<svg viewBox="0 0 560 1000"><path sodipodi:nodetypes="cccccccsccsccc" id="path4876" d="m 370.8969,268.8878 c 2.36849,23.60153 -3.24649,50.77091 -14.17047,77.92965 0.0897,2.34411 8.6595,18.11968 11.11537,30.07427 -36.77086,9.58655 -126.68446,13.76644 -145.55622,-5.09006 2.433,-12.49684 7.10305,-30.33653 14.9517,-51.41692 -2.13048,-7.70551 0.44816,-14.37237 -0.57531,-27.78473 0.40962,-35.13389 30.30326,-40.0847 52.38713,-59.43686 0.97617,-2.02088 2.05999,-19.89061 -11.85024,-27.17009 -0.63873,-0.33426 8.50117,-6.50561 11.05906,-11.16186 6.70597,3.4041 22.99454,0.85303 28.14609,-0.74716 2.50252,3.40831 10.8034,9.38293 9.58791,10.18188 -25.72677,16.91039 -30.9022,28.84774 -29.45936,29.06832 3.13994,1.52155 66.54554,33.43249 67.65165,34.25705 z" style="display:inline;fill-opacity:1;fill-rule:evenodd;fill:#000000;opacity:1;stroke-dasharray:none;stroke-linecap:butt;stroke-linejoin:miter;stroke-miterlimit:4;stroke-opacity:1;stroke-width:0;stroke:#000000"/><path sodipodi:nodetypes="cccccccccccc" id="path4878" d="m 355.86286,347.54922 c 0.49582,5.07437 8.15207,17.16139 10.52716,28.43074 -31.28229,8.06681 -129.76418,14.04864 -142.36655,-5.26211 1.76466,-12.54996 13.73275,-45.3843 14.32574,-50.33371 -3.0755,-26.84168 -3.64605,-47.62114 0.88756,-72.44709 4.39438,-23.68414 15.86738,-37.30901 37.69935,-41.95594 0.49229,-0.51848 8.77422,-5.79222 11.24034,-10.13911 10.29898,3.24942 24.87325,0.12383 27.81748,-0.74716 7.98672,7.65831 20.02168,11.09342 20.55356,12.43578 2.58742,0.19199 9.57783,0.93138 12.62329,2.06534 21.32697,11.58453 25.15316,34.74558 21.91064,58.57411 1.82371,35.69041 -9.90952,61.65738 -15.21857,79.37915 z" style="display:inline;fill-opacity:1;fill-rule:evenodd;fill:#550000;opacity:1;stroke-dasharray:none;stroke-linecap:butt;stroke-linejoin:miter;stroke-miterlimit:4;stroke-opacity:1;stroke-width:0;stroke:#000000"/></svg>
