<svg viewBox="0 0 560 1000"><path sodipodi:nodetypes="ccccc" id="path3154" d="m 339.5308,405.08537 c 30.26019,13.26174 55.49256,51.72258 54.14137,80.15836 -1.1786,21.86734 -8.0768,30.88058 -22.695,45.01394 -10.85292,23.6393 -14.74934,63.75397 -23.51515,63.15404 C 324.2256,591.8522 305.16305,413.60537 339.5308,405.08537 Z" style="fill-opacity:1;fill:#808080"/><path style="display:inline;fill-opacity:1;fill:#b3b3b3;stroke-dasharray:none;stroke-linecap:butt;stroke-linejoin:miter;stroke-miterlimit:4;stroke-opacity:1;stroke-width:0;stroke:#000000" d="m 355.2172,518.31626 1.24937,17.63765 0.007,0.0845 c 0.0458,-0.0119 12.02344,0.28147 12.06709,0.27568 0.78779,-1.95118 1.12853,-2.58781 2.44669,-6.02435 1.6324,-1.14213 10.26988,-10.1836 11.27353,-12.00161 z" id="path3213-6-7-7-0" sodipodi:nodetypes="ccccccc"/><path style="display:inline;fill-opacity:1;fill:#b3b3b3;stroke-dasharray:none;stroke-linecap:butt;stroke-linejoin:miter;stroke-miterlimit:4;stroke-opacity:1;stroke-width:0;stroke:#000000" d="m 351.42113,412.76189 5.61266,8.21902 c 0.0961,-0.42835 2.15589,-2.81488 2.05683,-3.37261 -0.72365,-1.4272 -6.88883,-5.34061 -7.12877,-5.50587 z" id="path3213-5-8-7-5-7-7" sodipodi:nodetypes="ccccc"/></svg>
