<svg viewBox="0 0 560 1000"><path sodipodi:nodetypes="csssscccccc" id="path3249" d="m 273.30405,440.76902 c -0.33276,1.13794 -0.52327,2.26709 -0.51533,3.35476 0.0523,7.15516 6.77566,12.4959 6.88124,12.73802 0.28894,0.66262 3.17984,0.55272 3.14405,1.01695 -0.43415,5.63179 -3.67304,10.16396 -3.93746,10.26101 -4.85185,1.78082 -9.33443,0.71119 -11.17487,-0.31697 0.0145,0.17905 -2.99048,-4.84651 -4.47389,-9.8183 3.56445,-6.00454 3.53954,-7.63892 3.25832,-13.81162 -0.24871,-1.66778 -0.6624,-3.32982 -1.17083,-4.93416 0.1759,-0.0694 0.84617,0.004 1.7776,-0.33534 1.60392,0.96474 5.3399,1.58653 6.21117,1.84565 z" class="steel_chastity"/></svg>
