<svg viewBox="0 0 560 1000"><path sodipodi:nodetypes="ccccsccc" d="m 275.26378,165.16101 c -0.24741,-0.20233 -0.40657,-0.39957 -0.41866,-0.49424 0.59443,-0.44081 2.73299,-1.22002 3.5737,-1.67167 1.34564,-0.78438 2.43572,-1.00305 3.16183,0.34264 1.08347,-2.14678 3.64584,-0.39198 4.74684,-0.23561 5.00348,0.71063 7.58447,1.93656 8.85919,1.79572 -0.0429,1.02216 -7.25052,6.51089 -12.43514,6.02955 -5.63735,0.0537 -7.22484,-4.77021 -7.48776,-5.76639 z" id="path4815" class="areola"/><path sodipodi:nodetypes="ccccscscsscsssccccscccc" d="m 277.34066,168.91426 c 3.07443,2.6285 7.90763,2.15904 11.76446,0.52 -2.3056,1.32557 -8.50726,2.93659 -11.76446,-0.52 z m -2.42568,-4.21209 c 0.63567,0.0463 1.83906,0.14386 3.87517,0.29701 0.11125,0.008 -0.41661,-0.74452 0.29437,-0.2038 0.24137,0.39986 1.78165,0.98734 2.49853,0.98211 1.00797,-0.007 2.49361,-0.65059 2.95464,-1.03609 0.50329,-0.27879 -0.0732,0.41371 0.0275,0.40054 0.3284,-0.0429 0.85527,-0.12008 1.21386,-0.13516 4.7766,-0.20087 9.28545,0.11666 9.31499,0.2149 -2.51295,0.31408 -5.53142,0.0775 -9.31202,0.16332 -1.48609,0.0338 -2.86629,0.78625 -4.24448,0.67218 -1.06139,-0.0879 -1.80084,-0.62541 -2.69933,-0.7218 -1.92804,-0.20682 -3.55367,-0.51112 -3.93887,-0.6477 z m 3.64659,-1.75353 c 0.34293,-0.2623 0.95752,-0.55091 1.44672,-0.58993 0.90378,-0.0721 1.26454,0.35436 1.58545,0.58013 0.43146,-0.26469 0.99269,-0.66333 1.51574,-0.67108 1.38439,-0.0205 2.61521,0.61228 3.99844,1.15512 -2.37369,-0.82247 -4.4973,-1.20188 -5.5143,-0.11339 -0.82128,-0.71582 -1.78559,-0.93174 -3.03205,-0.36085 z" style="display:inline;fill:#000000;stroke-width:0.16990675" id="path4817"/></svg>
