<svg viewBox="0 0 560 1000"><path sodipodi:nodetypes="cccccccccccccc" id="path2845" d="m 225.8,413.1 c 0,0 -18.61299,38.81162 -20.11299,63.21162 C 201.88701,536.61162 215,608.9 237.1,664.9 c 7.5,61.7 14.8,123 17.3,185.1 l 11.5,-0.3 c 2.3,-52.9 39.2,-99.2 20.2,-160.8 13.6,-57.7 6.2,-71.9 1,-161 -5.4,94.3 4.4,110.4 14.2,154.8 -15.6,58 17.8,109.6 18.6,167.8 h 16.3 C 336.4,792 352.6,755.3 344.7,681 368.5,611.1 378.72165,532.47107 373.92165,469.07107 371.92165,443.17107 350.4,411.4 350.4,411.4 l -124.6,1.7" style="fill-opacity:1;fill:#808080"/><path id="path2847" class="shadow" d="M 289.6,630.9 C 279.8,590.6 268.8,530 272.8,483.8 c -0.8,44.7 7.6,106.4 16.8,147.1 z"/><path d="m 226.3,412.5 c 27.9,-30 93.7,-36.4 123.8,-1.4 18.2,21.2 25.4,60.2 7,78.9 -8.2,8.3 -22.1,13.3 -35,11 -24.2,-4.4 -25.9,-31.9 -47.3,-34.5 C 256.7,464.3 248.5,483 231,478 220.9,475.1 221.28701,468.07973 218.48701,460.07973 216.5943,437.63189 223.7,415.2 226.3,412.5 Z" id="Stump_Normal-3-6-5" sodipodi:nodetypes="cccccccc" style="fill-opacity:1;fill:#808080"/><path d="m 226.3,412.5 c 20,-34.8 104.4,-37.1 124,-1.5 11.9,21.7 1.4,60.5 -22.3,72 -0.8,0.4 -20.2,9.5 -34,1 -9.5,-5.8 -10.3,-16.2 -19.3,-17.5 -6.4,-1 -8.4,3.9 -17.8,5.5 -9.2,1.5 -18.7,-1.3 -24,-5 -14.1,-9.8 -16,-38.2 -6.6,-54.5 z" id="Stump_Narrow-10-3-0" style="fill-opacity:1;fill:#808080"/><path style="display:inline;fill-opacity:1;fill:#b3b3b3;stroke-width:0.94552505" sodipodi:nodetypes="cssssccccssssssssccccssssssssccccsssssscccsc" id="path2496-4-8-3-3" d="m 333.83345,829.57196 c -0.14663,-9.66929 0.35555,-28.36645 0.94632,-49.37836 0.008,-0.27199 7.7397,0.2662 7.77299,-0.005 0.48863,-3.97529 1.23025,-8.4699 1.47091,-12.74908 0.014,-0.24939 -9.03788,-0.52095 -9.03094,-0.77088 0.92867,-33.42349 1.91472,-69.16605 0.67629,-82.22479 -0.0124,-0.13082 9.38388,-0.19198 9.37103,-0.31821 -0.12857,-1.01983 -0.18488,-2.52394 -0.23143,-2.77868 0.0562,-0.33413 1.34466,-4.32082 1.52046,-5.17952 -0.31027,0.031 -5.42083,0.16068 -10.49768,0.12598 -0.0571,-3.9e-4 -1.09894,-21.6483 -3.60609,-51.70886 -0.0386,-0.46228 28.44211,-0.0548 28.56209,-0.5068 1.10649,-4.16901 2.42894,-11.21459 2.77923,-14.11685 0.0548,-0.45421 -32.73493,0.56693 -32.8133,0.1138 -3.92457,-22.69154 -6.21474,-47.15181 -9.38121,-71.65628 -0.059,-0.45669 52.50081,-1.45604 52.53737,-1.9138 0.54054,-6.76801 1.10644,-13.98238 0.78671,-18.30842 -0.0432,-0.58461 -53.49873,1.70545 -53.56255,1.12671 4.17986,-35.31055 8.56934,-59.11863 35.99735,-98.5671 -1.87036,-3.6521 -4.94006,-7.41913 -5.65461,-8.06776 -35.66653,39.36299 -56.01145,63.58966 -53.27367,105.95096 0.0315,0.32654 -24.52312,0.4614 -24.49106,0.78835 0.6152,6.27414 0.70276,13.19592 1.51057,19.57017 0.0404,0.31888 24.24247,-1.68175 24.2833,-1.36278 3.22921,25.22594 8.11642,51.41496 12.49448,73.35846 0.0521,0.2611 -26.09035,2.47165 -26.03828,2.73181 0.93429,4.66834 1.82646,9.00087 2.80504,13.3312 0.06,0.2656 26.02723,-2.1087 26.08318,-1.84366 6.354,30.09637 11.78578,51.00052 11.7006,50.99983 -6.89693,-0.0557 -25.81651,0.44173 -26.68317,0.52733 0.11519,0.90904 0.95291,4.79238 1.10496,5.22553 -0.0321,0.25866 -0.28734,1.68336 -0.50822,2.6519 -0.003,0.14114 26.79344,-0.0519 26.78998,0.10209 -0.22573,10.06683 -0.96754,47.2983 -1.60548,81.40691 -0.006,0.29528 -14.87724,-0.0282 -14.86578,0.26649 0.1815,4.66593 1.69195,11.66948 1.88143,13.87257 0.0329,0.38299 12.97967,-0.11608 12.97302,0.26635 -0.40944,23.55211 -1.02271,43.63116 -0.85286,48.89443 0.0115,0.35502 -5.8584,0.94802 -5.80737,1.30181 0.75002,5.19982 1.28341,15.05954 1.14876,19.76236 8.60784,0.43817 16.69164,-0.0977 16.69164,-0.0977 l 0.41703,-20.31547 c 0,0 -3.39525,-0.12455 -3.40103,-0.50581 z"/><path style="display:inline;fill-opacity:1;fill:#b3b3b3;stroke-width:0.94552505" sodipodi:nodetypes="csssscccssssssssccccsssssssscccsssssscccsc" id="path2496-4-8-1-5-6" d="m 261.34979,828.41197 c -0.14663,-9.66929 -0.43995,-27.92451 0.15082,-48.93642 0.008,-0.27199 20.38486,0.79168 20.43981,0.52403 0.79799,-3.8869 2.8338,-8.93774 3.29543,-12.37723 0.0332,-0.24756 -23.60872,-1.86378 -23.60178,-2.11371 0.92867,-33.42349 2.87811,-68.90088 1.63968,-81.95962 -0.0124,-0.13082 23.92707,1.09807 23.91422,0.97184 0.36305,-3.06002 1.48471,-5.51891 1.69972,-8.20452 -0.45962,0.0459 -15.65956,-0.9427 -24.88628,-1.13622 -0.13282,-0.003 0.0472,-19.40316 -5.96324,-47.75592 -0.0524,-0.24702 30.63233,0.0527 30.6268,-0.20107 -0.0191,-0.87711 -2.55925,-10.58476 -2.8654,-13.49065 -0.0376,-0.35668 -31.14877,-0.6052 -31.21909,-0.95884 -4.32175,-21.73601 -9.92524,-48.43128 -12.31203,-72.7549 -0.0693,-0.70655 31.6361,-0.061 31.56985,-0.76676 -0.61943,-6.59885 -1.08088,-12.49278 -1.57054,-19.8288 -0.0359,-0.53741 -30.07791,0.97293 -30.10162,0.43645 2.10374,-62.22402 -15.99359,-98.19554 -18.21272,-102.17703 0.32286,-2.75119 -6.15897,11.31569 -6.21648,13.71168 5.96498,25.16653 5.76999,42.93464 6.02411,88.77686 0.0172,0.26978 -18.09588,1.1355 -18.07834,1.4052 0.41576,6.3906 1.15327,13.84979 1.75332,20.15297 0.0261,0.27445 17.78639,-1.22842 17.81283,-0.95422 2.53365,26.27891 8.42843,51.16318 12.3524,72.35479 0.0348,0.18808 -16.88919,0.97628 -16.85436,1.16376 0.89561,4.82061 2.832,11.55117 4.06806,14.97218 0.0866,0.23979 16.32938,-1.5021 16.37949,-1.25359 5.78934,28.70444 12.89727,46.98368 12.68065,46.98122 -2.97529,-0.0338 -15.00925,0.7282 -15.53521,0.7804 0.12826,1.42381 0.84039,7.3504 1.12708,8.76131 -0.003,0.14114 15.30694,-1.12955 15.30348,-0.97557 -0.22573,10.06683 0.90746,47.4233 0.26952,81.53191 -0.006,0.29528 -6.67794,0.36955 -6.66648,0.66424 0.1815,4.66593 1.03927,11.60699 1.2287,13.81008 0.0329,0.38299 4.96358,-0.66477 4.96566,-0.28229 0.0325,5.96283 0.92184,43.71955 1.09169,48.98282 0.0115,0.35502 -2.24256,1.17582 -2.22987,1.53305 0.1313,3.69722 0.88789,15.44702 0.75324,20.14984 8.60784,0.43817 12.00706,-0.36287 12.00706,-0.36287 0.21814,-6.83383 1.22923,-13.35915 2.1406,-19.96191 0,0 -6.97498,-0.83166 -6.98076,-1.21292 z"/></svg>
