<svg viewBox="0 0 560 1000"><path sodipodi:nodetypes="scscs" class="areola" d="m 271.54026,376.44844 c 0.0782,1.21363 -0.39233,3.20481 -1.35826,3.28497 -0.96592,0.0802 -1.48021,-1.74966 -1.55841,-2.96328 -0.0782,-1.21363 0.42001,-3.09486 1.38594,-3.17502 0.96593,-0.0802 1.45253,1.6397 1.53073,2.85333 z" id="path7335-0"/><path sodipodi:nodetypes="ccccc" id="path7337-5" d="m 347.13398,420.49104 c -32.75198,14.03698 -65.48424,24.91567 -80.17912,16.90739 -20.83059,4.09365 -35.66498,-10.43587 -40.76678,-24.36238 4.26478,15.21833 19.87989,29.19787 40.78057,26.02878 17.15312,7.09449 47.5212,-3.15592 80.16533,-18.57379 z" style="display:inline;fill-opacity:1;fill-rule:nonzero;fill:#000000;stroke-dasharray:none;stroke-linecap:butt;stroke-linejoin:miter;stroke-miterlimit:4;stroke-opacity:1;stroke-width:0;stroke:#000000"/><path sodipodi:nodetypes="csccc" id="path7339-3" d="m 356.01926,347.09333 c -0.21437,0.0622 0.19258,1.0796 0.0585,1.26722 -4.55196,6.36982 -19.79686,13.94142 -22.25581,16.13334 1.7124,-2.30461 20.21985,-12.75701 21.94736,-17.77556 z" style="display:inline;fill-opacity:1;fill-rule:nonzero;fill:#000000;stroke-dasharray:none;stroke-linecap:butt;stroke-linejoin:miter;stroke-miterlimit:4;stroke-opacity:1;stroke-width:0;stroke:#000000"/><path sodipodi:nodetypes="scscs" class="areola" d="m 271.54026,376.44844 c 0.0782,1.21363 -0.39233,3.20481 -1.35826,3.28497 -0.96592,0.0802 -1.48021,-1.74966 -1.55841,-2.96328 -0.0782,-1.21363 0.42001,-3.09486 1.38594,-3.17502 0.96593,-0.0802 1.45253,1.6397 1.53073,2.85333 z" id="path5405-7-9-0-3-5"/><path sodipodi:nodetypes="scscs" class="areola" d="m 271.54026,376.44844 c 0.0782,1.21363 -0.39233,3.20481 -1.35826,3.28497 -0.96592,0.0802 -1.48021,-1.74966 -1.55841,-2.96328 -0.0782,-1.21363 0.42001,-3.09486 1.38594,-3.17502 0.96593,-0.0802 1.45253,1.6397 1.53073,2.85333 z" id="path5405-7-9-0-4-2-4"/><path sodipodi:nodetypes="ccccccccc" id="path4510-8-4-3" d="m 372.04335,267.10594 c 1.53464,47.47488 -5.41679,73.52315 -6.11166,80.87806 1.95915,5.74033 19.87113,48.27514 -1.40023,69.44326 -26.83331,14.10151 -125.06351,21.80146 -141.32919,-1.8412 -8.74071,-26.23179 -12.00523,-36.75705 9.27149,-96.36365 -1.3284,-14.86921 -6.77053,-38.48978 2.35981,-65.81223 7.67333,-35.58769 32.81609,-44.18449 52.01014,-52.70115 9.24713,11.38115 25.18214,3.12903 31.26177,-2.13928 0.12489,7.20108 48.79561,29.49512 53.93787,68.53619 z" style="display:inline;fill-opacity:1;fill-rule:evenodd;fill:#000000;opacity:1;stroke-dasharray:none;stroke-linecap:butt;stroke-linejoin:miter;stroke-miterlimit:4;stroke-opacity:1;stroke-width:0;stroke:#000000"/><path sodipodi:nodetypes="ccscccccccc" id="path4512-9-0-5" d="m 364.5401,347.81145 c 1.23702,4.41205 13.93516,35.89251 6.48317,55.08641 -21.01719,4.68261 -63.9195,19.9336 -98.04041,19.74523 -17.83513,-0.0985 -33.02433,-3.64892 -48.37667,-12.82336 -10.00153,-13.85586 -8.92106,-43.47295 9.20465,-90.61118 -5.96785,-40.25491 -7.81391,-104.72411 48.29469,-116.78925 3.12384,-2.05334 5.3098,-5.95602 6.93885,-10.38042 1.65753,5.04021 26.21695,0.68309 26.60293,0.54975 2.99455,5.49381 1.12395,6.57536 6.71301,7.72308 51.82498,10.67434 54.83494,38.37524 49.02452,68.26307 0.84914,29.59697 -2.63162,53.84052 -6.84474,79.23667 z" style="display:inline;fill-opacity:1;fill-rule:evenodd;fill:#ff80b2;opacity:1;stroke-dasharray:none;stroke-linecap:butt;stroke-linejoin:miter;stroke-miterlimit:4;stroke-opacity:1;stroke-width:0;stroke:#000000"/><path style="display:inline;fill-opacity:1;fill:#000000;opacity:1;stroke-dasharray:none;stroke-linecap:butt;stroke-linejoin:miter;stroke-miterlimit:4;stroke-opacity:1;stroke-width:0;stroke:#000000" d="m 288.65067,205.94096 c -0.008,-0.17 5.77348,-12.05234 5.84504,-12.26958 0,0 -5.0441,-2.25985 -5.19628,-2.04286 -0.92463,1.3184 -2.65827,4.70639 -4.15936,6.60625 0.1059,0.25324 3.5106,7.70619 3.5106,7.70619 z" id="path4514-0-5-6" sodipodi:nodetypes="csscc"/><path style="display:inline;fill-opacity:1;fill:#ff80b2;opacity:1;stroke-dasharray:none;stroke-linecap:butt;stroke-linejoin:miter;stroke-miterlimit:4;stroke-opacity:1;stroke-width:0;stroke:#000000" d="m 288.66108,203.74098 c -0.008,-0.16669 5.35844,-10.06772 5.42795,-10.28074 0,0 -4.89991,-2.21585 -5.04775,-2.00309 -0.8982,1.29274 -2.58228,4.61477 -4.04047,6.47765 0.10291,0.24831 3.66027,5.80618 3.66027,5.80618 z" id="path4516-7-1-1" sodipodi:nodetypes="csscc"/><path style="display:inline;fill-opacity:1;fill:#000000;opacity:1;stroke-dasharray:none;stroke-linecap:butt;stroke-linejoin:miter;stroke-miterlimit:4;stroke-opacity:1;stroke-width:0;stroke:#000000" d="m 303.24206,205.47603 c 0.007,-0.15238 -3.99545,-11.03492 -4.06234,-11.22965 0,0 16.62296,-2.66894 16.76522,-2.47444 0.86438,1.18176 2.6413,5.37486 3.07583,6.04657 -0.099,0.227 -15.77871,7.65752 -15.77871,7.65752 z" id="path4518-2-1-4" sodipodi:nodetypes="csscc"/><path style="display:inline;fill-opacity:1;fill:#ff80b2;opacity:1;stroke-dasharray:none;stroke-linecap:butt;stroke-linejoin:miter;stroke-miterlimit:4;stroke-opacity:1;stroke-width:0;stroke:#000000" d="m 303.64915,204.60393 c 0.007,-0.14856 -3.93866,-10.27774 -4.00456,-10.46759 0,0 15.63782,-2.64512 15.77799,-2.4555 0.85164,1.15214 2.60238,5.24014 3.03051,5.89501 -0.0975,0.22131 -14.80394,7.02808 -14.80394,7.02808 z" id="path4520-0-3-7" sodipodi:nodetypes="csscc"/><path style="display:inline;fill-opacity:1;fill:#000000;opacity:1;stroke-dasharray:none;stroke-linecap:butt;stroke-linejoin:miter;stroke-miterlimit:4;stroke-opacity:1;stroke-width:0;stroke:#000000" d="m 273.98684,423.54376 c -0.0592,-0.48233 -0.33652,-4.64526 -0.38989,-5.15269 -2.98361,-28.36794 3.23892,-96.148 23.42151,-224.06832 l 0.80611,0.10099 c 0.43704,13.20785 -29.39797,178.30584 -22.0674,223.80494 0.0905,0.56148 0.40755,4.77286 0.50946,5.29741 0,0 -1.85534,0.73859 -2.27979,0.0177 z" id="path4522-4-7-1" sodipodi:nodetypes="csccsccc"/><path style="display:inline;fill-opacity:1;fill-rule:nonzero;fill:#ff5599;opacity:1;stroke-dasharray:none;stroke-linecap:butt;stroke-linejoin:round;stroke-miterlimit:4;stroke-opacity:1;stroke-width:0;stroke:#000000" d="m 300.87394,220.43307 a 2.7544847,2.8454499 0 0 1 -2.75448,2.84545 2.7544847,2.8454499 0 0 1 -2.75449,-2.84545 2.7544847,2.8454499 0 0 1 2.75449,-2.84546 2.7544847,2.8454499 0 0 1 2.75448,2.84546 z" id="path4524-9-3-0"/><path style="display:inline;fill-opacity:1;fill-rule:nonzero;fill:#ff5599;opacity:1;stroke-dasharray:none;stroke-linecap:butt;stroke-linejoin:round;stroke-miterlimit:4;stroke-opacity:1;stroke-width:0;stroke:#000000" d="m 297.69369,242.50598 a 2.7544847,2.8454499 0 0 1 -2.75448,2.84545 2.7544847,2.8454499 0 0 1 -2.75449,-2.84545 2.7544847,2.8454499 0 0 1 2.75449,-2.84546 2.7544847,2.8454499 0 0 1 2.75448,2.84546 z" id="path4526-8-0-3"/><path style="display:inline;fill-opacity:1;fill-rule:nonzero;fill:#ff5599;opacity:1;stroke-dasharray:none;stroke-linecap:butt;stroke-linejoin:round;stroke-miterlimit:4;stroke-opacity:1;stroke-width:0;stroke:#000000" d="m 294.36894,266.99921 a 2.7544847,2.8454499 0 0 1 -2.75448,2.84545 2.7544847,2.8454499 0 0 1 -2.75449,-2.84545 2.7544847,2.8454499 0 0 1 2.75449,-2.84546 2.7544847,2.8454499 0 0 1 2.75448,2.84546 z" id="path4528-5-2-2"/><path style="display:inline;fill-opacity:1;fill-rule:nonzero;fill:#ff5599;opacity:1;stroke-dasharray:none;stroke-linecap:butt;stroke-linejoin:round;stroke-miterlimit:4;stroke-opacity:1;stroke-width:0;stroke:#000000" d="m 291.12262,291.4949 a 2.7544847,2.8454499 0 0 1 -2.75448,2.84545 2.7544847,2.8454499 0 0 1 -2.75449,-2.84545 2.7544847,2.8454499 0 0 1 2.75449,-2.84546 2.7544847,2.8454499 0 0 1 2.75448,2.84546 z" id="path4530-6-7-6"/><path style="display:inline;fill-opacity:1;fill-rule:nonzero;fill:#ff5599;opacity:1;stroke-dasharray:none;stroke-linecap:butt;stroke-linejoin:round;stroke-miterlimit:4;stroke-opacity:1;stroke-width:0;stroke:#000000" d="m 288.19248,313.4826 a 2.7544847,2.8454499 0 0 1 -2.75448,2.84545 2.7544847,2.8454499 0 0 1 -2.75449,-2.84545 2.7544847,2.8454499 0 0 1 2.75449,-2.84546 2.7544847,2.8454499 0 0 1 2.75448,2.84546 z" id="path4532-6-1-6"/><path style="display:inline;fill-opacity:1;fill-rule:nonzero;fill:#ff5599;opacity:1;stroke-dasharray:none;stroke-linecap:butt;stroke-linejoin:round;stroke-miterlimit:4;stroke-opacity:1;stroke-width:0;stroke:#000000" d="m 285.69616,337.78711 a 2.7544847,2.8454499 0 0 1 -2.75448,2.84545 2.7544847,2.8454499 0 0 1 -2.75449,-2.84545 2.7544847,2.8454499 0 0 1 2.75449,-2.84546 2.7544847,2.8454499 0 0 1 2.75448,2.84546 z" id="path4534-8-1-8"/><path style="display:inline;fill-opacity:1;fill-rule:nonzero;fill:#ff5599;opacity:1;stroke-dasharray:none;stroke-linecap:butt;stroke-linejoin:round;stroke-miterlimit:4;stroke-opacity:1;stroke-width:0;stroke:#000000" d="m 283.59261,360.44517 a 2.7544847,2.8454499 0 0 1 -2.75448,2.84545 2.7544847,2.8454499 0 0 1 -2.75449,-2.84545 2.7544847,2.8454499 0 0 1 2.75449,-2.84546 2.7544847,2.8454499 0 0 1 2.75448,2.84546 z" id="path4536-5-7-9"/><path style="display:inline;fill-opacity:1;fill-rule:nonzero;fill:#ff5599;opacity:1;stroke-dasharray:none;stroke-linecap:butt;stroke-linejoin:round;stroke-miterlimit:4;stroke-opacity:1;stroke-width:0;stroke:#000000" d="m 282.01878,380.39507 a 2.7544847,2.8454499 0 0 1 -2.75448,2.84545 2.7544847,2.8454499 0 0 1 -2.75449,-2.84545 2.7544847,2.8454499 0 0 1 2.75449,-2.84546 2.7544847,2.8454499 0 0 1 2.75448,2.84546 z" id="path4538-4-4-4"/><path style="display:inline;fill-opacity:1;fill-rule:nonzero;fill:#ff5599;opacity:1;stroke-dasharray:none;stroke-linecap:butt;stroke-linejoin:round;stroke-miterlimit:4;stroke-opacity:1;stroke-width:0;stroke:#000000" d="m 281.0045,400.49998 a 2.7544847,2.8454499 0 0 1 -2.75448,2.84545 2.7544847,2.8454499 0 0 1 -2.75449,-2.84545 2.7544847,2.8454499 0 0 1 2.75449,-2.84546 2.7544847,2.8454499 0 0 1 2.75448,2.84546 z" id="path4548-1-8-1"/><path style="display:inline;fill-opacity:1;fill-rule:evenodd;fill:#000000;opacity:1;stroke-dasharray:none;stroke-linecap:butt;stroke-linejoin:miter;stroke-miterlimit:4;stroke-opacity:1;stroke-width:0;stroke:#000000" d="m 369.45241,403.33899 c 1.35149,1.92814 -5.44122,14.63033 -5.44122,14.63033 -53.94079,21.92802 -100.22913,40.99506 -143.69476,3.64733 0.33144,-3.18682 2.66597,-11.40942 2.66597,-11.40942 41.95471,21.91078 82.42577,12.02961 146.47001,-6.86824 z" id="path4455-8-9-5-7-7-3" sodipodi:nodetypes="ccccc"/><path style="display:inline;fill-opacity:1;fill-rule:evenodd;fill:#4b3832;opacity:1;stroke-dasharray:none;stroke-linecap:butt;stroke-linejoin:miter;stroke-miterlimit:4;stroke-opacity:1;stroke-width:0;stroke:#000000" d="m 370.76688,404.38658 c 1.17822,3.37561 -7.11312,12.33968 -7.11312,12.33968 -85.80271,36.72318 -107.52245,28.06752 -142.09232,4.1991 -0.66293,0.32662 2.57001,-9.83425 2.57001,-9.83425 43.77304,25.59125 83.69618,10.23748 146.63543,-6.70453 z" id="path4455-4-4-0-8-6" sodipodi:nodetypes="ccccc"/><path style="display:inline;fill-opacity:1;fill-rule:nonzero;fill:#4b3832;opacity:1;stroke-dasharray:none;stroke-linecap:butt;stroke-linejoin:round;stroke-miterlimit:4;stroke-opacity:1;stroke-width:0;stroke:#000000" d="m 298.54058,193.96049 c -0.22272,1.55564 -1.26393,2.69352 -2.32564,2.54152 -1.0617,-0.152 -1.74184,-1.53631 -1.51913,-3.09195 0.22271,-1.55565 1.04263,-1.58873 2.10434,-1.43673 1.0617,0.15199 1.96314,0.43152 1.74043,1.98716 z" id="path4439-9-13-9-0-1" sodipodi:nodetypes="cscsc"/><path style="display:inline;fill-opacity:1;fill-rule:nonzero;fill:#4b3832;opacity:1;stroke-dasharray:none;stroke-linecap:butt;stroke-linejoin:round;stroke-miterlimit:4;stroke-opacity:1;stroke-width:0;stroke:#000000" d="m 315.52612,189.11398 c 0.0576,0.35127 -0.11316,0.34643 -0.66436,0.47653 -4.13467,0.97592 -17.40139,4.51357 -18.29818,4.38518 -0.86595,-0.12398 -5.38498,-3.42227 -7.04422,-4.25831 -0.37635,-0.18963 -0.60041,-0.20129 -0.54402,-0.51681 0.0646,-0.26175 0.2988,-0.17142 0.69799,-0.048 1.91722,0.59277 6.06641,3.39796 6.92304,3.52059 0.89428,0.12802 14.05544,-3.42019 18.19736,-3.77375 0.46783,-0.0399 0.72918,-0.0739 0.73239,0.21455 z" id="path4439-9-1-2-7-7-2" sodipodi:nodetypes="cssscssscc"/><path style="display:inline;fill-opacity:1;fill-rule:nonzero;fill:#4b3832;opacity:1;stroke-dasharray:none;stroke-linecap:butt;stroke-linejoin:round;stroke-miterlimit:4;stroke-opacity:1;stroke-width:0;stroke:#000000" d="m 297.69274,194.11892 c -0.046,0.62756 -0.16377,18.44531 -1.03291,19.12038 -0.72098,0.55998 0.46004,-18.50374 -0.40011,-17.30381 -0.28279,0.3945 -3.553,16.71952 -3.93136,16.52557 -0.63911,-0.69387 2.65063,-19.02289 3.71234,-18.87089 1.0617,0.15199 1.63168,-0.31979 1.65204,0.52875 z" id="path4439-9-1-5-0-8-3-3" sodipodi:nodetypes="csscsc"/></svg>
