<svg viewBox="0 0 560 1000"><path sodipodi:nodetypes="cccccccc" id="path3206" d="M 281.8,204.7 C 260,208.1 230.03529,168.97647 207.73529,155.67647 235.83529,143.87647 229,138.3 275.7,106.8 c 0,0 42,18 43.4,2.2 3.5,-39.9 -31.1,-22.5 -48.4,-9.9 -14.8,1.2 -92.9,44.3 -88.9,57.8 6.1,20.6 48.4,58 75.4,76 8.9,4.4 28.5,-13.6 24.6,-28.2" style="fill:#ffffff"/><path sodipodi:nodetypes="ccccc" id="path3000-1-9-4-4-1-7-9-3" d="m 263.05449,224.21467 c -6.15018,-7.61421 -17.23749,-24.33497 -16.24665,-36.58437 1.10964,0.0781 3.02413,2.58257 3.48424,2.8723 -1.05024,9.6632 13.42301,28.86656 14.44766,32.21335 z" style="display:inline;fill-opacity:1;fill:#333333;stroke-dasharray:none;stroke-linecap:butt;stroke-linejoin:miter;stroke-miterlimit:4;stroke-opacity:1;stroke-width:0;stroke:#000000"/><path sodipodi:nodetypes="ccccc" id="path3000-1-9-4-9-0-5-9-00-0-6-3" d="m 181.67496,154.01973 c 8.93846,-0.77801 18.17169,-2.3752 27.70324,0.9799 -0.42983,0.62743 0.0162,1.68037 -0.61077,1.55841 -8.46537,-2.10121 -18.84232,-1.3957 -27.14174,0.52555 -0.28709,-0.93765 -0.20739,-1.97637 0.0492,-3.06386 z" style="display:inline;fill-opacity:1;fill:#333333;stroke-dasharray:none;stroke-linecap:butt;stroke-linejoin:miter;stroke-miterlimit:4;stroke-opacity:1;stroke-width:0;stroke:#000000"/><path sodipodi:nodetypes="ccccc" id="path3000-1-9-4-9-2-5-0-7-4-7" d="m 241.4134,133.17088 c -10.02529,-3.8032 -23.4234,5.40539 -41.31929,20.54557 -0.76125,1.08741 -0.01,1.09501 0.45589,1.50695 28.01011,-25.32407 36.63117,-20.91628 39.26843,-20.87289 z" style="display:inline;fill-opacity:1;fill:#333333;stroke-dasharray:none;stroke-linecap:butt;stroke-linejoin:miter;stroke-miterlimit:4;stroke-opacity:1;stroke-width:0;stroke:#000000"/><path sodipodi:nodetypes="ccccc" id="path3000-1-9-4-9-2-9-0-4-6-2-5" d="m 187.34449,154.57742 c 24.62377,-18.79183 37.01295,-30.40414 84.87561,-53.20604 0.45959,0.33829 0.37154,0.74203 0.49732,1.32101 -48.06797,22.1066 -82.30748,51.33544 -83.1034,52.49546 z" style="display:inline;fill-opacity:1;fill:#333333;stroke-dasharray:none;stroke-linecap:butt;stroke-linejoin:miter;stroke-miterlimit:4;stroke-opacity:1;stroke-width:0;stroke:#000000"/><path sodipodi:nodetypes="ccccc" id="path3000-1-9-4-9-2-5-0-8-5-3-2" d="m 198.55403,155.16595 c 8.12113,17.01318 28.13677,33.77252 55.4471,53.51997 1.60523,0.4644 0.91807,-0.87826 0.83002,-2.04389 -45.96538,-30.67724 -54.94672,-50.8872 -55.27451,-52.12224 z" style="display:inline;fill-opacity:1;fill:#333333;stroke-dasharray:none;stroke-linecap:butt;stroke-linejoin:miter;stroke-miterlimit:4;stroke-opacity:1;stroke-width:0;stroke:#000000"/><path sodipodi:nodetypes="ccccc" id="path3000-1-9-4-9-0-5-9-00-0-6-7-7" d="m 274.56681,107.27717 c -1.64756,-3.1202 -3.71813,-6.31698 -3.53076,-9.783036 0.35336,0.130471 0.77839,-0.06142 0.81193,0.163275 0.24178,3.049191 2.06262,6.678101 4.14941,9.535461 -0.39433,0.13215 -0.8884,0.13856 -1.43058,0.0843 z" style="display:inline;fill-opacity:1;fill:#333333;stroke-dasharray:none;stroke-linecap:butt;stroke-linejoin:miter;stroke-miterlimit:4;stroke-opacity:1;stroke-width:0;stroke:#000000"/></svg>
