<svg viewBox="0 0 560 1000"><path style="display:inline;fill-opacity:1;fill-rule:nonzero;fill:#000000;opacity:1;stroke-dasharray:none;stroke-linecap:butt;stroke-linejoin:miter;stroke-miterlimit:4;stroke-opacity:1;stroke-width:0;stroke:#000000" d="m 370.57368,268.65924 c -2.6755,30.3395 -14.35175,51.73455 -20.74512,85.55466 2.56335,6.42529 17.7159,38.78695 12.49668,64.00391 0,0 -64.9646,-3.14714 -76.47382,25.19023 -2.06147,4.01155 -2.1084,11.81811 -3.46792,16.10443 -0.27859,0.87834 -1.00697,6.35332 -3.50565,8.26757 -0.26944,0.20641 -1.13656,1.14752 -4.58251,0.28177 -0.17413,-0.0437 -1.37345,0.71664 -3.61847,0.0361 -5.83439,-1.76869 -6.66978,-8.86034 -6.76649,-9.28816 -1.98539,-8.78313 -6.24957,-28.02971 -9.43291,-34.24779 -14.19124,-27.72004 -27.97462,-8.06406 -29.28246,-10.40039 -6.10479,-27.75092 10.01654,-60.9933 14.75674,-93.57803 -1.86022,-11.21831 -2.67947,-19.46724 -3.28978,-27.98353 0.023,-35.68853 -4.57783,-46.2164 39.58736,-85.57467 -0.63873,-0.33426 5.76049,-3.75929 10.28502,-6.16163 1.43082,-0.85664 10.68402,25.74457 10.29068,24.95701 -0.12491,-0.25011 -0.64543,-0.55498 -1.33868,0.14782 -0.64398,0.65286 22.17244,-28.24484 22.30977,-27.24411 1.50252,1.12706 9.10193,4.89722 7.88644,5.69617 -59.4139,34.61221 2.46751,42.24274 38.50165,63.17069 z" id="path4303-3" sodipodi:nodetypes="ccccsssssscccccsscccc"/><path style="display:inline;fill-opacity:1;fill-rule:evenodd;fill:#005b96;opacity:1;stroke-dasharray:none;stroke-linecap:butt;stroke-linejoin:miter;stroke-miterlimit:4;stroke-opacity:1;stroke-width:0;stroke:#000000" d="m 360.51873,307.70681 c -2.41119,9.40765 -8.71335,31.07724 -11.65371,46.05104 3.30367,6.59415 15.97332,35.26466 13.93922,66.02554 -40.10653,11.44456 -75.72545,35.96388 -76.49712,38.30165 -0.78385,1.88787 -4.7912,9.82211 -7.2881,11.60252 -1.21712,0.86786 -4.56426,-0.37235 -4.8162,-0.39645 -0.29397,-0.0276 -0.77535,0.50225 -2.98817,-0.0701 -5.65546,-1.4629 -10.22974,-5.40448 -10.80185,-7.35518 -45.47795,-24.37059 -34.75398,-40.41635 -35.41353,-47.26215 -2.97745,-32.02343 11.97025,-60.38869 16.84538,-94.02421 -1.74199,-10.44301 -3.36754,-16.62598 -4.11789,-25.77542 -6.14778,-53.43221 7.21115,-83.19412 39.20936,-88.82295 0.49229,-0.51848 5.43756,-2.25669 9.91452,-4.65903 9.84838,23.51827 8.84084,25.04443 9.47199,24.50789 1.18842,-0.79719 21.46117,-26.64717 21.46117,-26.64717 1.48672,1.12706 18.23182,7.00546 18.7637,8.34782 0,0 25.14245,-4.55003 34.62152,27.88685 2.95492,28.91006 -3.31223,49.50397 -10.65029,72.28935 z" id="path4305-7" sodipodi:nodetypes="ccccsssccccccccccc"/><path style="display:inline;fill-opacity:1;fill:#000000;stroke-dasharray:none;stroke-linecap:butt;stroke-linejoin:miter;stroke-miterlimit:4;stroke-opacity:1;stroke-width:0;stroke:#000000" d="m 317.7568,197.70738 c 0.2207,0.0743 3.8334,2.73309 6.28946,4.18757 -0.6321,2.54596 -22.44225,30.88285 -24.69505,35.48871 -2.38446,-0.93979 -5.79223,-1.49125 -7.66316,-1.81857 -0.6168,-8.70829 22.22468,-33.0033 26.06875,-37.85771 z" id="path4307-6" sodipodi:nodetypes="ccccc"/><path style="display:inline;fill-opacity:1;fill:#000000;stroke-dasharray:none;stroke-linecap:butt;stroke-linejoin:miter;stroke-miterlimit:4;stroke-opacity:1;stroke-width:0;stroke:#000000" d="m 238.56669,333.12608 c -0.008,-5.06807 1.32358,-8.72621 1.22987,-11.32426 2.26754,-0.31877 50.07716,0.0982 118.53083,-1.45645 -1.09612,2.00802 -2.87316,9.87763 -4.43647,13.5612 -52.42422,3.39961 -109.62279,-0.61777 -115.44923,-0.65547 z" id="path4309-0" sodipodi:nodetypes="cccccc"/><path style="display:inline;fill-opacity:1;fill:#327bab;stroke-dasharray:none;stroke-linecap:butt;stroke-linejoin:miter;stroke-miterlimit:4;stroke-opacity:1;stroke-width:0;stroke:#000000" d="m 318.58329,198.16182 c 0.2207,0.0743 3.8334,2.73309 6.28946,4.18757 -0.6321,2.54596 -22.44225,30.88286 -24.69505,35.48872 -2.38446,-0.93979 -5.79223,-1.49125 -7.66316,-1.81857 -0.6168,-8.70829 22.22468,-33.00331 26.06875,-37.85772 z" id="path4312-1" sodipodi:nodetypes="ccccc"/><path style="display:inline;fill-opacity:1;fill:#000000;stroke-dasharray:none;stroke-linecap:butt;stroke-linejoin:miter;stroke-miterlimit:4;stroke-opacity:1;stroke-width:0;stroke:#000000" d="m 279.87719,204.50634 c 0.1767,-0.15169 4.3416,-3.51647 6.14002,-5.59108 1.86513,1.84465 31.599,82.99098 34.40618,87.28153 -2.02656,1.56905 -4.24242,4.21611 -5.48007,5.65685 -7.79998,-3.92111 -32.8587,-81.56202 -35.06613,-87.3473 z" id="path4314-2" sodipodi:nodetypes="ccccc"/><path style="display:inline;fill-opacity:1;fill:#327bab;stroke-dasharray:none;stroke-linecap:butt;stroke-linejoin:miter;stroke-miterlimit:4;stroke-opacity:1;stroke-width:0;stroke:#000000" d="m 279.87367,204.45214 c 0.1767,-0.15169 3.21124,-2.5223 4.92127,-4.95046 1.86513,1.84465 31.83338,83.44411 34.64056,87.73466 -2.02656,1.56905 -4.24242,4.21611 -5.48007,5.65685 -7.79998,-3.92111 -31.87433,-82.65577 -34.08176,-88.44105 z" id="path4316-4" sodipodi:nodetypes="ccccc"/><path style="display:inline;fill-opacity:1;fill:#004878;stroke-dasharray:none;stroke-linecap:butt;stroke-linejoin:miter;stroke-miterlimit:4;stroke-opacity:1;stroke-width:0;stroke:#000000" d="m 239.97064,332.17934 c -0.008,-5.06806 1.79217,-8.81459 1.69846,-11.41264 2.26754,-0.31877 47.11009,1.75349 115.56376,0.19888 -0.79171,2.81475 -2.47786,7.70179 -3.43647,11.62553 -20.80519,3.71127 -111.33937,-0.57301 -113.80798,-0.32335 z" id="path4318-3" sodipodi:nodetypes="cccccc"/><path style="display:inline;fill-opacity:1;fill:#000000;stroke-dasharray:none;stroke-linecap:butt;stroke-linejoin:miter;stroke-miterlimit:4;stroke-opacity:1;stroke-width:0;stroke:#000000" d="m 239.75423,324.07625 c -4.27408,-14.16046 -5.70873,-38.47485 -3.80831,-47.31032 2.40938,-1.03747 60.85072,3.98734 133.58625,-1.07229 0.69478,2.46701 -7.12572,41.71868 -12.08383,45.85077 -55.70342,11.06417 -111.50322,2.65449 -117.69411,2.53184 z" id="path4320-5" sodipodi:nodetypes="ccccc"/><path style="display:inline;fill-opacity:1;fill:#004878;stroke-dasharray:none;stroke-linecap:butt;stroke-linejoin:miter;stroke-miterlimit:4;stroke-opacity:1;stroke-width:0;stroke:#000000" d="m 240.65417,322.06978 c -4.27408,-14.16046 -5.42212,-34.98741 -3.5217,-43.82288 2.40938,-1.03747 58.3999,4.3775 131.13544,-0.68213 0.69478,2.46701 -8.12833,37.62141 -13.08644,41.7535 -55.70343,11.06417 -108.33641,2.87416 -114.5273,2.75151 z" id="path4322-2" sodipodi:nodetypes="ccccc"/><path style="display:inline;fill-opacity:1;fill:#000000;stroke-dasharray:none;stroke-linecap:butt;stroke-linejoin:miter;stroke-miterlimit:4;stroke-opacity:1;stroke-width:0;stroke:#000000" d="m 240.40284,320.88694 c -4.52408,-15.47326 -4.42212,-29.90649 -4.5217,-38.25015 2.40938,-1.02375 58.84812,5.19346 131.58366,0.20072 0.69478,2.4344 -7.70155,32.62522 -12.28466,36.82768 -55.70343,10.9179 -108.58641,1.34278 -114.7773,1.22175 z" id="path4324-9" sodipodi:nodetypes="ccccc"/><path style="display:inline;fill-opacity:1;fill:#b669cd;stroke-dasharray:none;stroke-linecap:butt;stroke-linejoin:miter;stroke-miterlimit:4;stroke-opacity:1;stroke-width:0;stroke:#000000" d="m 240.70596,322.37674 c -4.52408,-15.02035 -4.04712,-30.52746 -4.1467,-38.6269 2.40938,-0.99379 57.78118,5.40286 130.51672,0.55626 0.69478,2.36314 -6.44267,31.49608 -10.05351,35.31037 -55.70343,10.59834 -110.12562,2.87776 -116.31651,2.76027 z" id="path4326-8" sodipodi:nodetypes="ccccc"/><path style="display:inline;fill-opacity:1;fill:#000000;stroke-dasharray:none;stroke-linecap:butt;stroke-linejoin:miter;stroke-miterlimit:4;stroke-opacity:1;stroke-width:0;stroke:#000000" d="m 237.01663,305.76493 c -0.96158,-1.61193 -0.60962,-2.71692 -0.7092,-3.35021 41.90938,3.6723 86.15151,4.81932 127.01205,1.69033 0.69478,0.18478 -0.50756,2.21403 -0.50756,2.21403 -40.51065,3.30805 -84.48894,2.47643 -125.79529,-0.55415 z" id="path4328-5" sodipodi:nodetypes="ccccc"/><path style="display:inline;fill-opacity:1;fill:#800000;stroke-dasharray:none;stroke-linecap:butt;stroke-linejoin:miter;stroke-miterlimit:4;stroke-opacity:1;stroke-width:0;stroke:#000000" d="m 236.76874,306.32453 c -0.96158,-1.61193 -0.60962,-2.71692 -0.7092,-3.35021 41.90938,3.6723 86.15151,4.81932 127.01205,1.69033 0.69478,0.18478 -0.50756,2.21403 -0.50756,2.21403 -40.51065,3.30805 -84.48894,2.47643 -125.79529,-0.55415 z" id="path4330-0" sodipodi:nodetypes="ccccc"/><path style="display:inline;fill-opacity:1;fill:#000000;stroke-dasharray:none;stroke-linecap:butt;stroke-linejoin:miter;stroke-miterlimit:4;stroke-opacity:1;stroke-width:0;stroke:#000000" d="m 338.41512,320.75464 c 0,0 2.87663,-3.25572 3.36676,-3.23822 4.2e-4,-3.94893 -8.64753,-10.16687 -8.64575,-10.31253 0.38578,-31.49315 32.55092,-2.93674 1.33707,0.92432 0.11811,-0.15841 -0.001,0.67087 -0.001,0.67087 37.3907,-2.18949 -4.8934,-38.02177 -2.10696,-1.63493 -0.006,0.0458 5.81658,8.53102 6.04988,13.59049 z" id="path4332-8" sodipodi:nodetypes="ccscccc"/><path style="display:inline;fill-opacity:1;fill:#800000;stroke-dasharray:none;stroke-linecap:butt;stroke-linejoin:miter;stroke-miterlimit:4;stroke-opacity:1;stroke-width:0;stroke:#000000" d="m 338.84728,320.61329 c 0,0 2.87663,-3.25572 3.36676,-3.23822 4.2e-4,-3.94893 -8.64753,-10.16687 -8.64575,-10.31253 0.38578,-31.49315 32.55092,-2.93674 1.33707,0.92432 0.11811,-0.15841 -10e-4,0.67087 -10e-4,0.67087 37.3907,-2.18949 -4.8934,-38.02177 -2.10696,-1.63493 -0.006,0.0458 5.81658,8.53102 6.04988,13.59049 z" id="path4334-3" sodipodi:nodetypes="ccscccc"/><path style="display:inline;fill-opacity:1;fill:#000000;stroke-dasharray:none;stroke-linecap:butt;stroke-linejoin:miter;stroke-miterlimit:4;stroke-opacity:1;stroke-width:0;stroke:#000000" d="m 333.94067,308.95116 c 0,0 0.0523,-0.2433 0.0786,-0.73304 -32.10822,-0.66766 -2.95893,-32.5879 0.48118,-1.57501 0.009,0.0808 -8.24657,6.79107 -8.56942,9.0603 0.99279,0.0116 2.39431,4.91885 2.39431,4.91885 0.9246,-5.98567 6.86506,-13.89337 6.86121,-13.97829 -1.67919,-37.11742 -38.28468,4.77451 -1.24583,2.30719 z" id="path4336-0" sodipodi:nodetypes="ccsccscc"/><path style="display:inline;fill-opacity:1;fill:#800000;stroke-dasharray:none;stroke-linecap:butt;stroke-linejoin:miter;stroke-miterlimit:4;stroke-opacity:1;stroke-width:0;stroke:#000000" d="m 334.37283,308.80981 c 0,0 0.0523,-0.2433 0.0786,-0.73304 -32.10822,-0.66766 -2.95893,-32.5879 0.48118,-1.57501 0.009,0.0808 -8.24657,6.79107 -8.56942,9.0603 0.99279,0.0116 2.39431,4.91885 2.39431,4.91885 0.9246,-5.98567 6.86506,-13.89337 6.86121,-13.97829 -1.67919,-37.11742 -38.28468,4.77451 -1.24583,2.30719 z" id="path4338-8" sodipodi:nodetypes="ccsccscc"/><path d="m 329.8875,425.70175 c -15.4791,1.19068 -42.03653,26.26041 -44.60913,30.99635 10.29989,-9.14088 29.75951,-26.28541 44.60913,-30.99635 z" class="shadow" id="path5772-6-5-7" sodipodi:nodetypes="ccc"/><path d="m 262.14541,457.55004 c -6.81704,-9.41592 -28.83006,-31.99347 -34.93819,-34.15183 5.05404,5.44075 26.5203,25.35081 34.93819,34.15183 z" class="shadow" id="path5774-7-1-8" sodipodi:nodetypes="ccc"/></svg>
