<svg viewBox="0 0 560 1000"><path style="display:inline;fill-opacity:1;fill-rule:evenodd;fill:#000000;opacity:1;stroke-dasharray:none;stroke-linecap:butt;stroke-linejoin:miter;stroke-miterlimit:4;stroke-opacity:1;stroke-width:0;stroke:#000000" d="m 370.51486,269.33602 c 0.23724,0.8312 -0.5766,5.28861 -2.26041,13.52511 -33.60787,-4.288 -103.68903,-11.96778 -131.86236,-5.34633 0.1469,-4.00388 0.13267,-11.53731 1.15586,-14.24717 0.24324,-0.11759 7.25265,-2.21917 7.67385,-2.50366 12.96984,-34.21324 14.33596,-34.51518 31.51367,-55.13078 -0.20578,-0.10769 0.98637,-0.32991 2.81284,-0.93373 -14.26623,35.27571 -10.07743,51.97809 -1.78824,61.45129 10.93146,-7.63158 34.10888,-19.71829 53.08715,-60.31847 2.65591,0.76603 5.77773,1.30178 5.77773,1.30178 1.90789,18.32918 -0.0619,41.08452 3.67362,52.92764 3.54725,3.99043 26.59816,6.10404 30.21629,9.27432 z" id="path2505" sodipodi:nodetypes="cccccccccccc"/><path style="display:inline;fill-opacity:1;fill-rule:evenodd;fill:#ffaaee;opacity:1;stroke-dasharray:none;stroke-linecap:butt;stroke-linejoin:miter;stroke-miterlimit:4;stroke-opacity:1;stroke-width:0;stroke:#000000" d="m 370.53852,269.06519 c -0.23212,1.79731 -1.46179,6.53999 -2.59824,13.24253 -48.30237,-7.27876 -109.55684,-10.44159 -130.56058,-6.05551 -0.7082,-2.93964 0.3045,-12.75865 0.3045,-12.75865 0,0 7.0379,-2.10309 7.78836,-2.50793 11.82416,-30.55624 14.58742,-35.11847 31.24259,-55.40231 0.84544,-0.17546 1.70483,-0.38601 2.56536,-0.63893 -16.81405,40.48467 -8.02175,52.76388 -1.59072,61.62392 17.19358,-10.88851 38.35632,-25.50945 53.62911,-60.61021 1.9144,0.66913 3.96656,0.65204 5.47599,1.11851 -0.47031,15.65219 0.792,46.91864 3.02614,53.74685 3.55484,2.53922 23.78535,6.08886 30.71749,8.24173 z" id="path2507" sodipodi:nodetypes="cccccccccccc"/></svg>
