<svg viewBox="0 0 560 1000"><path d="m 323.2,161.2 c 6,-14.4 8.4,-24.7 10.6,-40.1 4.5,-31.3 -16.1,-52.4 -42.5,-43.9 -38.8,10 -27.5,43.7 -26.2,53.7 -4.19668,10.49551 -0.74585,27.8481 7.01337,39.6326 7.39446,11.2305 10.58435,13.60422 13.78663,13.8674 14.6,-1.9 28.9,-5.9 37.3,-23.2 z" class="shadow" id="Head_Shadow" sodipodi:nodetypes="ccccscc"/><path d="m 323.4,161.2 c 6,-14.4 8.4,-24.7 10.6,-40.1 4.5,-31.3 -16.1,-52.4 -42.5,-43.9 -34.2,11 -29.4,33.1 -26.2,53.7 -1.16906,3.21971 -1.63659,6.99403 -1.5314,11.02311 0.14072,5.39012 1.30645,11.23617 3.18876,16.82016 1.79046,5.31154 4.78114,10.47993 7.73853,14.60539 7.00203,9.76762 8.8026,10.60829 11.30411,10.65134 10.1,-1.7 28.3,-4.2 37.4,-22.8 z" class="skin head" id="path931" sodipodi:nodetypes="ccccssscc"/><g data-transform="art" id="g4014"/></svg>
