<svg viewBox="0 0 560 1000"><path style="display:inline;fill-opacity:1;fill-rule:evenodd;fill:#000000;opacity:1;stroke-dasharray:none;stroke-linecap:butt;stroke-linejoin:miter;stroke-miterlimit:4;stroke-opacity:1;stroke-width:0;stroke:#000000" d="m 370.32736,269.21102 c 4.28577,34.66716 -11.3965,68.46502 -13.27587,78.48816 7.90451,19.87043 24.93286,52.52479 6.21062,69.72357 -71.30488,20.12453 -75.39173,29.49551 -84.38426,50.35729 -0.26944,0.20641 -1.13656,1.14752 -4.58251,0.28177 -0.17413,-0.0437 -1.37345,0.71664 -3.61847,0.0361 -21.82469,-31.74709 -33.64663,-44.60472 -44.89975,-55.07022 -14.98732,-38.31436 4.70483,-66.54446 11.54854,-92.89829 -0.10903,-0.84586 -2.00634,-16.72794 -2.03869,-27.65439 -0.1106,-32.76834 -3.78232,-62.01862 41.18334,-85.69274 -0.63873,-0.33426 2.72387,-3.1709 7.2484,-5.57324 6.38934,-8.53563 5.53943,-17.91786 6.19018,-18.8806 3.41216,-5.04803 22.0725,-14.82189 24.51892,-9.29893 0.28194,0.63651 -0.0963,18.38259 4.92767,25.79025 1.50252,1.12706 7.85193,4.64722 6.63644,5.44617 -59.64798,34.7469 1.82837,42.20589 38.19229,63.32537 z" id="path1493" sodipodi:nodetypes="ccccsccccccsscccc"/><path style="display:inline;fill-opacity:1;fill-rule:evenodd;fill:#00619e;opacity:1;stroke-dasharray:none;stroke-linecap:butt;stroke-linejoin:miter;stroke-miterlimit:4;stroke-opacity:1;stroke-width:0;stroke:#000000" d="m 355.63983,346.88437 c 1.34356,7.732 25.65079,47.5423 8.44962,70.41939 9.76847,17.81956 -78.2481,39.32739 -79.01977,41.66516 -0.78385,1.88787 -3.29932,8.5329 -5.79622,10.31331 -1.21712,0.86786 -4.8236,-0.18577 -5.07554,-0.20987 -0.29397,-0.0276 -1.12355,0.44604 -3.33637,-0.1263 -5.65546,-1.4629 -9.47467,-5.19754 -10.04678,-7.14824 -28.68416,-20.30472 -36.21661,-33.10048 -35.28517,-48.25479 -12.33374,-38.77307 8.04714,-68.31245 13.09625,-93.82723 -10.09207,-76.26297 3.61735,-106.43783 46.72479,-118.14372 5.33294,-8.35978 4.47937,-16.82837 5.55606,-16.92645 10.85789,-0.98906 16.98793,-11.06455 22.37004,-11.2945 0.95246,-0.0407 -0.87894,16.73549 5.50706,26.58167 1.48672,1.12706 17.38807,5.34921 17.91995,6.69157 12.23055,1.62014 28.38973,10.37821 31.6923,23.00496 15.66202,45.7671 -8.82453,104.16794 -12.75622,117.25504 z" id="path1495" sodipodi:nodetypes="cccsssccccsscccc"/><path sodipodi:nodetypes="ccc" id="path1497" class="shadow" d="m 329.8875,425.70175 c -15.4791,1.19068 -42.03653,26.26041 -44.60913,30.99635 10.29989,-9.14088 29.75951,-26.28541 44.60913,-30.99635 z"/><path sodipodi:nodetypes="ccc" id="path1499" class="shadow" d="m 262.14541,457.55004 c -6.81704,-9.41592 -28.83006,-31.99347 -34.93819,-34.15183 5.05404,5.44075 26.5203,25.35081 34.93819,34.15183 z"/></svg>
