<svg viewBox="0 0 560 1000"><path d="m 329.91688,425.69464 c -15.4791,1.19068 -42.03653,26.26041 -44.60913,30.99635 10.29989,-9.14088 29.75951,-26.28541 44.60913,-30.99635 z" class="shadow" id="path8114-3" sodipodi:nodetypes="ccc"/><path d="m 262.17479,457.54293 c -6.81704,-9.41592 -28.83006,-31.99347 -34.93819,-34.15183 5.05404,5.44075 26.5203,25.35081 34.93819,34.15183 z" class="shadow" id="path8116-6" sodipodi:nodetypes="ccc"/><path style="display:inline;fill-opacity:1;fill-rule:evenodd;fill:#000000;opacity:1;stroke-dasharray:none;stroke-linecap:butt;stroke-linejoin:miter;stroke-miterlimit:4;stroke-opacity:1;stroke-width:0;stroke:#000000" d="m 370.57368,269.7199 c 3.84595,22.67315 -4.5199,50.60644 -13.74357,78.06033 0.67758,1.80275 28.23263,50.23148 7.16587,69.24632 0.0274,-0.17435 -57.23676,13.3638 -77.41671,34.30686 -4.92627,5.11256 -3.48792,15.45153 -7.05147,16.69466 -13.46483,4.69716 -17.71458,-10.66263 -17.71458,-10.66263 -6.67546,-8.9041 -31.17323,-37.74254 -36.54649,-43.43743 -7.25239,-24.13815 -9.52494,-35.31426 11.61897,-93.14951 -0.72423,-18.39757 -2.99028,-33.31812 0.89622,-68.17898 43.76576,-4.88221 102.05269,0.92273 132.79176,17.12038 z" id="path4094-7-2" sodipodi:nodetypes="cccssscccc"/><path style="display:inline;fill-opacity:1;fill-rule:evenodd;fill:#c8c8c8;opacity:1;stroke-dasharray:none;stroke-linecap:butt;stroke-linejoin:miter;stroke-miterlimit:4;stroke-opacity:1;stroke-width:0;stroke:#000000" d="m 370.59734,269.44907 c 1.05545,31.54596 -7.78779,55.28039 -15.30713,78.63145 7.68061,16.33418 24.66749,47.49523 8.09256,71.67896 -33.98941,14.44552 -62.68183,21.69132 -82.41255,47.77752 -0.34473,0.71459 -4.28479,1.02682 -6.08184,2.18944 -8.64043,5.59002 -13.52858,-12.764 -13.52858,-12.764 -28.92735,-8.27388 -37.19517,-35.24738 -36.13062,-42.49408 -10.61465,-26.22697 4.24449,-74.12937 13.79044,-94.22868 -2.28936,-19.57951 -3.90324,-50.69305 0.57446,-67.17259 57.4531,-10.65718 112.96792,2.25646 131.00323,16.38198 z" id="path4096-6-9" sodipodi:nodetypes="ccccssccccc"/><path sodipodi:nodetypes="ccc" id="path3401-2-3-0-1" class="shadow" d="m 329.90806,425.67038 c -15.4791,1.19068 -42.03653,26.26041 -44.60913,30.99635 10.29989,-9.14088 29.75951,-26.28541 44.60913,-30.99635 z"/><path sodipodi:nodetypes="ccc" id="path3406-2-8-6-4" class="shadow" d="m 262.16597,457.51867 c -6.81704,-9.41592 -28.83006,-31.99347 -34.93819,-34.15183 5.05404,5.44075 26.5203,25.35081 34.93819,34.15183 z"/></svg>
