<svg viewBox="0 0 560 1000"><path sodipodi:nodetypes="ccccccc" id="path3091" d="m 338.27948,405.05894 c 10.86715,-2.88915 27.32926,17.43453 34.21536,29.98739 9.9113,18.44258 8.17385,36.96333 6.37635,48.0856 -0.20333,2.42377 -0.913,4.53948 -1.86029,6.57518 -5.54519,11.89703 -10.30028,14.94353 -14.41484,19.27334 -8.39244,19.62629 -11.40511,52.93063 -18.18363,52.4325 -17.96844,-1.29514 -32.70902,-149.28057 -6.13295,-156.35401 z" style="fill-opacity:1;fill:#808080"/><path style="display:inline;fill-opacity:1;fill:#b3b3b3;stroke-dasharray:none;stroke-linecap:butt;stroke-linejoin:miter;stroke-miterlimit:4;stroke-opacity:1;stroke-width:0;stroke:#000000" d="m 355.04042,518.33836 1.10486,13.16877 c 0.66942,-2.98401 2.81692,-12.80811 3.19237,-13.24265 z" id="path3213" sodipodi:nodetypes="cccc"/><path style="display:inline;fill-opacity:1;fill:#b3b3b3;stroke-dasharray:none;stroke-linecap:butt;stroke-linejoin:miter;stroke-miterlimit:4;stroke-opacity:1;stroke-width:0;stroke:#000000" d="m 351.42113,412.76189 5.61266,8.21902 c 0.0961,-0.42835 3.03977,-2.96956 2.94071,-3.52729 -0.72365,-1.4272 -6.60156,-6.51175 -6.8415,-6.67701 z" id="path3213-5" sodipodi:nodetypes="ccccc"/></svg>
