<svg viewBox="0 0 560 1000"><path sodipodi:nodetypes="cccccccsccsccc" id="path4158" d="m 370.8969,268.8878 c 2.36849,23.60153 -3.24649,50.77091 -14.17047,77.92965 0.0897,2.34411 8.6595,18.11968 11.11537,30.07427 -36.77086,9.58655 -126.68446,13.76644 -145.55622,-5.09006 2.433,-12.49684 7.10305,-30.33653 14.9517,-51.41692 -2.13048,-7.70551 0.44816,-14.37237 -0.57531,-27.78473 0.40962,-35.13389 30.30326,-40.0847 52.38713,-59.43686 0.97617,-2.02088 2.05999,-19.89061 -11.85024,-27.17009 -0.63873,-0.33426 3.66191,-3.80977 8.18644,-6.21211 9.24713,11.38115 27.34766,3.74775 33.42729,-1.52056 1.50252,1.12706 8.39482,5.20658 7.17933,6.00553 -25.72677,16.91039 -30.9022,28.84774 -29.45936,29.06832 3.13994,1.52155 66.54554,33.43249 67.65165,34.25705 z" style="display:inline;fill-opacity:1;fill-rule:evenodd;fill:#000000;opacity:1;stroke-dasharray:none;stroke-linecap:butt;stroke-linejoin:miter;stroke-miterlimit:4;stroke-opacity:1;stroke-width:0;stroke:#000000"/><path sodipodi:nodetypes="cccccccccccc" id="path4160" d="m 355.86286,347.54922 c 0.49582,5.07437 8.15207,17.16139 10.52716,28.43074 -31.28229,8.06681 -129.76418,14.04864 -142.36655,-5.26211 1.76466,-12.54996 13.73275,-45.3843 14.32574,-50.33371 -3.0755,-26.84168 -3.64605,-47.62114 0.88756,-72.44709 4.39438,-23.68414 15.86738,-37.30901 37.69935,-41.95594 0.49229,-0.51848 3.97915,-3.18477 8.45611,-5.58711 9.14993,11.38115 27.08296,3.74775 33.09868,-1.52056 1.48672,1.12706 17.52471,7.31482 18.05659,8.65718 2.58742,0.19199 9.57783,0.93138 12.62329,2.06534 21.32697,11.58453 25.15316,34.74558 21.91064,58.57411 1.82371,35.69041 -9.90952,61.65738 -15.21857,79.37915 z" style="display:inline;fill-opacity:1;fill-rule:evenodd;fill:#1a1a1a;opacity:1;stroke-dasharray:none;stroke-linecap:butt;stroke-linejoin:miter;stroke-miterlimit:4;stroke-opacity:1;stroke-width:0;stroke:#000000"/><path sodipodi:nodetypes="ccssssccsccc" id="path1853-67" d="m 298.46108,438.89935 c -6.48422,6.26583 -11.19704,12.82415 -15.33516,19.44716 -1.04023,1.75909 -1.92047,7.35117 -4.50173,9.70959 -0.97785,0.89343 -3.70051,-0.0277 -4.03805,0.0431 -0.91345,0.19159 -2.09488,0.29968 -2.84109,0.24274 -1.3589,-0.10369 -3.10427,-0.97079 -4.62926,-2.64607 -1.15035,-1.26373 -2.1753,-2.98733 -2.81436,-5.19001 -3.99405,-5.27747 -10.5589,-14.66641 -17.49018,-23.90539 4.48963,1.85597 9.35646,2.79339 14.73041,2.73225 1.76498,-0.0201 3.58467,-0.14788 5.46366,-0.38622 9.80224,3.87793 21.03947,2.36746 31.45576,-0.0471 z" style="display:inline;fill-opacity:1;fill-rule:evenodd;fill:#c837ab;opacity:1;stroke-dasharray:none;stroke-linecap:butt;stroke-linejoin:miter;stroke-miterlimit:4;stroke-opacity:1;stroke-width:0;stroke:#000000"/><path sodipodi:nodetypes="cssssccc" id="path1855-9" d="m 282.94456,458.76549 c -0.0483,0.15247 -0.11284,0.47208 -0.19954,0.90622 -0.41277,2.06685 -1.81439,6.53069 -3.87757,8.11265 -0.26921,0.20642 -1.13559,1.14752 -4.57861,0.28177 -0.17398,-0.0437 -2.18026,1.1699 -4.2783,0.12449 -4.65827,-2.32112 -6.22252,-8.10904 -6.31915,-8.53686 3.82592,9.08132 8.89939,9.3147 10.40315,7.55401 5.26837,2.79873 7.50839,-4.81217 8.85002,-8.44228 z" style="display:inline;fill-opacity:1;fill-rule:evenodd;fill:#000000;opacity:1;stroke-dasharray:none;stroke-linecap:butt;stroke-linejoin:miter;stroke-miterlimit:4;stroke-opacity:1;stroke-width:0;stroke:#000000"/><path style="display:inline;fill-opacity:1;fill:#c837ab;stroke-dasharray:none;stroke-linecap:butt;stroke-linejoin:miter;stroke-miterlimit:4;stroke-opacity:1;stroke-width:0;stroke:#000000" d="m 293.86064,264.57931 c -6.26801,-3.01132 -15.75805,-11.63074 -17.87259,-19.86824 -3.04504,-11.86272 4.71945,-22.57429 21.63478,-11.57993 16.13297,-8.15503 24.9627,3.10697 17.59197,15.59404 -3.32722,5.63676 -12.4856,11.01114 -21.35416,15.85413 z" id="path3267-5-3-7-0-9-4" sodipodi:nodetypes="cscsc"/></svg>
