<svg viewBox="0 0 560 1000"><path class="eyebrow_hair" id="path2628" d="m 316.48306,121.51713 c -0.1213,-0.0587 -0.44051,-0.10395 -0.84396,-0.14332 l -0.83893,-0.0821 0.83503,0.31302 c 1.19041,0.44618 0.87181,0.54808 -0.77399,0.24755 -1.96448,-0.31371 -3.89281,-0.82982 -6.10511,-1.20763 -6.35176,0.43102 -13.81063,2.45965 -16.59426,3.76073 -0.73636,0.0966 -1.5979,0.23265 -1.91454,0.30244 -0.701,-0.69637 -1.3113,-1.06444 -0.82124,-2.03656 0.0611,-0.39902 0.15898,-0.8122 0.24275,-1.1588 0.0842,-0.34832 0.15401,-0.62942 0.15758,-0.76135 l 0.77221,-0.2017 c 1.33343,-0.95909 10.89736,-3.03544 16.56942,-3.04219 1.5659,-0.0998 2.01951,-0.0582 2.90447,0.26714 0.5768,0.21194 1.44085,0.48215 1.92009,0.60045 0.93807,0.23155 0.92944,0.22809 3.0981,1.23647 l 1.41851,0.65957 c 0.0235,0.025 0.73779,0.34378 1.28704,1.14833 -0.14745,0.21659 -1.29576,0.10647 -1.31317,0.098 z" sodipodi:nodetypes="cccscccccsccccccccsc"/><path class="eyebrow_hair" id="path2630" d="m 264.10591,119.64064 c 0.054,-0.0138 1.39965,-0.807 1.4862,-0.87333 3.64808,-1.68511 8.4865,0.29755 10.24697,1.17816 0.58004,-0.13328 2.36534,0.84791 2.36534,0.84791 0.15137,0.36997 0.42422,1.07776 0.4168,2.97414 -0.17418,0.37705 -1.01665,1.32993 -1.72325,0.80349 -0.66574,-0.31222 -1.41401,-0.71406 -2.46786,-1.03564 -1.36115,-0.78939 -9.02603,-1.37426 -9.92378,-0.90662 -0.052,0.027 -0.20749,-1.61088 -0.21876,-1.60247 0.0195,-0.0138 -0.20792,-1.37897 -0.18166,-1.38564 z" sodipodi:nodetypes="sccccccscs"/></svg>
