<svg viewBox="0 0 560 1000"><path d="m 309.95228,122.53846 c -2.34062,-0.44611 -3.95967,-0.57049 -6.47367,-0.49729 -5.49897,0.16008 -8.41111,0.27639 -9.4054,0.37566 -1.16863,-0.0774 -2.90307,0.8595 -3.11519,0.66149 0.2259,-0.62257 0.33475,-0.9376 0.96505,-1.60206 0.0383,0.0664 0.0713,0.34287 0.18807,0.3075 0.12267,-0.0372 0.18093,-0.50768 0.64685,-0.94165 0.17072,0.11141 0.1414,0.47193 0.24147,0.42506 0.10278,-0.0481 0.0993,-0.47685 0.82055,-0.9753 0.15251,0.36005 -0.1696,0.86003 -0.003,0.71316 0.54928,-0.48817 0.68454,-0.6648 1.54272,-0.84787 0.74554,-0.28664 7.46206,-0.44257 10.68247,-0.0485 0.768,0.094 1.89904,0.22105 2.51344,0.28236 1.26363,0.12611 2.83286,0.40181 2.9205,0.51308 0.0322,0.0407 5.25036,1.79785 7.03531,3.94846 -0.49283,0.1023 -7.68912,-2.1482 -8.55952,-2.31408 z m -38.70904,-2.28871 c 0.93232,0.0621 1.5093,0.26924 1.78817,0.37548 0.41141,0.15675 0.11507,-0.2085 0.11288,-0.42769 0.32751,-0.0754 0.92797,0.4876 1.21478,0.74681 0.21453,0.19388 0.0157,-0.69965 0.22486,-0.4768 0.19435,0.20704 0.55858,0.90036 0.73062,1.10858 0.1587,0.19209 -0.0271,-0.46641 0.15952,-0.31348 0.92128,0.75496 0.71568,1.75543 0.79786,1.90878 -0.13777,0.12907 -0.98361,-0.65608 -2.72096,-0.53713 -2.54577,0.16396 -5.42281,0.33652 -7.71494,1.09067 -0.27089,0.12282 -0.61654,0.22332 -0.76811,0.22332 -0.23547,0 -0.23119,-0.039 0.0294,-0.2683 0.3451,-0.30358 0.28605,-0.31883 -0.55531,-0.14346 -5.23285,0.69182 -5.08353,2.1218 -4.73965,-0.39304 3.59257,-1.59466 6.84977,-2.50383 11.44088,-2.89374 z" id="path7265" sodipodi:nodetypes="cscccscsccccccccccscsssccccscccc" class="eyebrow_hair"/></svg>
