<svg viewBox="0 0 560 1000"><path id="path6267-3-8-4-2" d="m 234.24801,318.90359 c -0.33189,8.57547 -29.65452,62.18085 -9.40334,94.47289 16.36196,-0.34408 101.91688,13.34687 134.8915,13.33227 28.63689,-28.14958 5.51814,-72.90172 5.0523,-78.49171 11.15078,-53.9169 5.38588,-64.0155 6.76483,-75.46977 -20.00731,-23.65544 -42.13586,-49.38014 -42.18228,-67.75238 -5.0856,-1.53654 -9.2662,-4.20037 -11.97165,-6.99799 -0.44453,1.7818 -1.99968,15.88708 -2.14306,17.33056 -12.09829,5.75915 -27.87745,3.2969 -33.51216,-1.00011 0.88357,-3.08367 2.87976,-7.82151 6.26875,-14.36009 -56.95029,14.92811 -59.18804,68.89961 -53.76489,118.93633 z" sodipodi:nodetypes="ccccccccccc" style="display:inline;fill-opacity:1;fill:#000000;opacity:1"/><path style="display:inline;fill-opacity:1;fill-rule:evenodd;fill:#333333;opacity:1;stroke-dasharray:none;stroke-linecap:butt;stroke-linejoin:miter;stroke-miterlimit:4;stroke-opacity:1;stroke-width:0;stroke:#000000" d="m 364.0483,348.23255 c -0.57501,5.23258 20.9459,44.54039 -3.15393,78.21635 -40.10653,11.44456 -73.81558,29.29837 -74.58725,31.63614 -0.78385,1.88787 -4.7912,9.82211 -7.2881,11.60252 -1.21712,0.86786 -4.56426,-0.37235 -4.8162,-0.39645 -0.29397,-0.0276 -0.77535,0.50225 -2.98817,-0.0701 -5.65546,-1.4629 -10.22974,-5.40448 -10.80185,-7.35518 -18.43111,-29.49711 -30.81312,-45.2607 -35.53853,-46.44965 -17.31662,-38.14502 9.67242,-83.87252 10.86123,-95.3024 -6.02,-53.44661 -4.47114,-107.2599 51.11514,-118.79171 1.01736,-0.38611 4.59904,-8.26172 5.00699,-8.02432 6.65758,3.87428 22.60885,-0.60503 22.93817,0.0937 0.97035,2.05878 1.84469,4.05751 2.988,5.79136 1.48672,1.12706 18.23182,7.00546 18.7637,8.34782 60.2803,1.20432 26.69263,124.5453 27.5008,140.70192 z" id="path5749-6-5-6" sodipodi:nodetypes="cccsssccccssccc"/><path style="display:inline;fill-opacity:1;fill:#333333;stroke-dasharray:none;stroke-linecap:butt;stroke-linejoin:miter;stroke-miterlimit:4;stroke-opacity:1;stroke-width:0;stroke:#000000" d="m 223.18243,414.47074 c 2.1374,12.07502 32.12285,58.19608 52.14464,56.49389 13.4605,-1.86072 14.55644,-32.7986 76.88701,-58.04142 -5.52595,-11.9083 -10.42481,-16.69568 -16.96101,-28.02007 -45.102,11.9464 -91.4758,7.08435 -96.81614,-2.31943 0,0 -10.12151,20.16938 -15.2545,31.88703 z" id="path5751-4-1-6" sodipodi:nodetypes="ccccsc"/><path style="display:inline;fill-opacity:1;fill:#000000;opacity:1;stroke-dasharray:none;stroke-linecap:butt;stroke-linejoin:miter;stroke-miterlimit:4;stroke-opacity:1;stroke-width:0;stroke:#000000" d="m 262.30433,421.58157 c 0.5575,-1.06599 1.6673,-32.48865 1.70988,-32.65285 0,0 -31.01961,0.27359 -37.06467,-7.63379 -0.14865,-0.19445 -6.46656,20.66164 -6.39994,20.74152 0.063,0.19141 41.75473,19.54512 41.75473,19.54512 z" id="path5753-1-2-7" sodipodi:nodetypes="csscc"/><path style="display:inline;fill-opacity:1;fill:#000000;opacity:1;stroke-dasharray:none;stroke-linecap:butt;stroke-linejoin:miter;stroke-miterlimit:4;stroke-opacity:1;stroke-width:0;stroke:#000000" d="m 256.33979,391.23466 c -0.0664,0.0413 -1.39182,-0.0733 -1.58546,-0.10885 -3.40999,-0.62801 19.2566,-160.50788 24.25915,-160.55375 0,0 9.9816,0.30395 8.15973,0.3028 -4.11982,-0.71348 -23.18044,136.73953 -23.13547,157.57822 -0.0426,1.28175 -9.4e-4,2.39529 -0.0998,2.64799 z" id="path5755-2-5-8" sodipodi:nodetypes="csscccc"/><path style="display:inline;fill-opacity:1;fill:#333333;opacity:1;stroke-dasharray:none;stroke-linecap:butt;stroke-linejoin:miter;stroke-miterlimit:4;stroke-opacity:1;stroke-width:0;stroke:#000000" d="m 262.94847,420.70666 c -0.005,-0.12477 0.12747,-31.57956 0.16946,-31.73901 0,0 -33.15105,-6.0585 -40.61463,-8.92031 -0.88612,6.60982 -2.25147,20.68159 -2.18577,20.75917 0.0621,0.18588 42.63094,19.90015 42.63094,19.90015 z" id="path5757-7-0-6" sodipodi:nodetypes="csccc"/><path style="display:inline;fill-opacity:1;fill:#333333;opacity:1;stroke-dasharray:none;stroke-linecap:butt;stroke-linejoin:miter;stroke-miterlimit:4;stroke-opacity:1;stroke-width:0;stroke:#000000" d="m 255.95357,390.4496 c -0.0664,0.0413 -1.76682,-0.0468 -1.96046,-0.0825 -3.40999,-0.62801 19.2566,-160.40253 24.25915,-160.4484 0,0 9.9816,0.30394 8.15973,0.30279 -4.43753,-0.7685 -26.3541,158.77919 -22.89125,160.21724 z" id="path5759-3-1-2" sodipodi:nodetypes="cssccc"/><path style="display:inline;fill-opacity:1;fill:#000000;opacity:1;stroke-dasharray:none;stroke-linecap:butt;stroke-linejoin:miter;stroke-miterlimit:4;stroke-opacity:1;stroke-width:0;stroke:#000000" d="m 261.89163,421.98581 c 0.007,-0.14856 1.42434,-36.87677 1.3621,-37.06662 0,0 53.30527,5.43026 72.67269,-0.74385 0.29791,-0.095 36.31182,13.12111 36.21444,13.21348 -0.0921,0.22131 -110.24923,24.59699 -110.24923,24.59699 z" id="path5761-4-6-8" sodipodi:nodetypes="csscc"/><path style="display:inline;fill-opacity:1;fill:#333333;opacity:1;stroke-dasharray:none;stroke-linecap:butt;stroke-linejoin:miter;stroke-miterlimit:4;stroke-opacity:1;stroke-width:0;stroke:#000000" d="m 263.02434,420.57363 c 0.007,-0.14856 1.18885,-35.45726 1.12661,-35.64711 0,0 52.13792,4.52623 71.50534,-1.64788 0.29791,-0.095 36.66721,12.93805 36.56983,13.03042 -0.0921,0.22131 -109.20178,24.26457 -109.20178,24.26457 z" id="path5763-9-1-6" sodipodi:nodetypes="csscc"/><path id="path5765-6-3-2" d="m 296.55615,236.72883 a 4.7552032,5.075284 0 0 1 -4.7552,5.07529 4.7552032,5.075284 0 0 1 -4.75521,-5.07529 4.7552032,5.075284 0 0 1 4.75521,-5.07529 4.7552032,5.075284 0 0 1 4.7552,5.07529 z" style="display:inline;fill-opacity:1;fill-rule:nonzero;fill:#c8c8c8;opacity:1;stroke-dasharray:none;stroke-linecap:butt;stroke-linejoin:round;stroke-miterlimit:4;stroke-opacity:1;stroke-width:0;stroke:#000000"/><path d="m 329.87921,425.70416 c -15.4791,1.19068 -42.03653,26.26041 -44.60913,30.99635 10.29989,-9.14088 29.75951,-26.28541 44.60913,-30.99635 z" class="shadow" id="path5767-1-7-0" sodipodi:nodetypes="ccc"/><path d="m 262.13712,457.55245 c -6.81704,-9.41592 -28.83006,-31.99347 -34.93819,-34.15183 5.05404,5.44075 26.5203,25.35081 34.93819,34.15183 z" class="shadow" id="path5769-9-3-4" sodipodi:nodetypes="ccc"/><path d="m 329.8875,425.70175 c -15.4791,1.19068 -42.03653,26.26041 -44.60913,30.99635 10.29989,-9.14088 29.75951,-26.28541 44.60913,-30.99635 z" class="shadow" id="path5772-6-0-3" sodipodi:nodetypes="ccc"/><path d="m 262.14541,457.55004 c -6.81704,-9.41592 -28.83006,-31.99347 -34.93819,-34.15183 5.05404,5.44075 26.5203,25.35081 34.93819,34.15183 z" class="shadow" id="path5774-7-9-3" sodipodi:nodetypes="ccc"/><path style="display:inline;fill-opacity:1;fill:#c8c8c8;opacity:1;stroke-dasharray:none;stroke-linecap:butt;stroke-linejoin:miter;stroke-miterlimit:4;stroke-opacity:1;stroke-width:0;stroke:#000000" d="m 305.8244,214.91944 c 0.52333,-1.91393 -0.41387,-20.28119 -0.34889,-20.4718 0,0 -12.97752,-0.7475 -13.11572,-0.55711 -0.83967,1.1568 -1.7069,17.0123 -3.07007,18.67927 0.0458,0.10569 3.34711,6.73091 7.26002,7.26474 4.31331,0.58847 9.27466,-4.9151 9.27466,-4.9151 z" id="path5776-0-4-3" sodipodi:nodetypes="csscsc"/><path style="display:inline;fill-opacity:1;fill:#1a1a1a;opacity:1;stroke-dasharray:none;stroke-linecap:butt;stroke-linejoin:miter;stroke-miterlimit:4;stroke-opacity:1;stroke-width:0;stroke:#000000" d="m 306.14469,219.74063 c -3.38941,-6.13212 -4.99806,-7.15541 -6.5412,-9.79351 -0.0287,-0.049 -0.16003,-0.85142 -0.1557,-0.52763 1.19646,-3.27092 1.75475,-4.61084 2.6709,-7.6292 0.86131,-3.02718 -1.86068,-7.53259 -1.84056,-7.60502 0,0 -3.70764,-0.28968 -3.84584,-0.0561 -0.35059,0.59257 -3.3119,3.19023 -2.66499,7.44441 0.72093,4.19168 0.70793,4.02297 1.4255,7.74374 -0.014,0.0531 -0.21764,0.57554 -0.24045,0.62377 -0.98974,2.09251 -3.54044,5.13908 -5.34233,6.91685 0.0458,0.12966 1.19086,7.85167 5.10377,8.5066 4.31331,0.72198 11.43091,-5.62391 11.43091,-5.62391 z" id="path5778-2-7-2" sodipodi:nodetypes="csccssccscscc"/><path style="display:inline;fill-opacity:1;fill:#000000;opacity:1;stroke-dasharray:none;stroke-linecap:butt;stroke-linejoin:miter;stroke-miterlimit:4;stroke-opacity:1;stroke-width:0;stroke:#000000" d="m 289.11888,215.04825 c -0.007,-0.15238 7.87213,-20.96789 7.93902,-21.16262 0,0 -7.74666,-1.83813 -7.88892,-1.64363 -0.86438,1.18176 0.5462,4.03111 -0.85708,5.73407 0.099,0.227 0.80698,17.07218 0.80698,17.07218 z" id="path5780-9-7-0" sodipodi:nodetypes="csscc"/><path style="display:inline;fill-opacity:1;fill:#c8c8c8;opacity:1;stroke-dasharray:none;stroke-linecap:butt;stroke-linejoin:miter;stroke-miterlimit:4;stroke-opacity:1;stroke-width:0;stroke:#000000" d="m 289.86716,210.04871 c -0.007,-0.14941 6.74558,-16.16139 6.81056,-16.35233 0,0 -7.61187,-1.7987 -7.75007,-1.60799 -0.83967,1.15876 0.61724,3.94899 -0.74593,5.6188 0.0962,0.22258 1.68544,12.34152 1.68544,12.34152 z" id="path5782-1-2-2" sodipodi:nodetypes="csscc"/><path style="display:inline;fill-opacity:1;fill:#000000;opacity:1;stroke-dasharray:none;stroke-linecap:butt;stroke-linejoin:miter;stroke-miterlimit:4;stroke-opacity:1;stroke-width:0;stroke:#000000" d="m 304.52262,215.99753 c 0.007,-0.15238 -5.40967,-21.68572 -5.47656,-21.88045 0,0 15.87166,-2.71313 16.01392,-2.51863 0.86438,1.18176 2.6413,5.37486 3.07583,6.04657 -0.099,0.227 -13.61319,18.35251 -13.61319,18.35251 z" id="path5784-6-5-9" sodipodi:nodetypes="csscc"/><path style="display:inline;fill-opacity:1;fill:#c8c8c8;opacity:1;stroke-dasharray:none;stroke-linecap:butt;stroke-linejoin:miter;stroke-miterlimit:4;stroke-opacity:1;stroke-width:0;stroke:#000000" d="m 305.15512,212.99967 c 0.007,-0.14856 -6.32959,-18.84697 -6.39549,-19.03682 0,0 15.63782,-2.64512 15.77799,-2.4555 0.85164,1.15214 2.60238,5.24014 3.03051,5.89501 -0.0975,0.22131 -12.41301,15.59731 -12.41301,15.59731 z" id="path5786-4-9-1" sodipodi:nodetypes="csscc"/><path style="display:inline;fill-opacity:1;fill:#000000;opacity:1;stroke-dasharray:none;stroke-linecap:butt;stroke-linejoin:miter;stroke-miterlimit:4;stroke-opacity:1;stroke-width:0;stroke:#000000" d="m 282.13394,203.4582 c -4.08655,35.00904 28.81336,107.20896 55.01204,138.53972 0.28973,0.34648 -5.90686,0.83772 -6.52953,0.93009 -12.80487,-10.2681 -55.37663,-89.38287 -54.96028,-135.97019 1.13104,-1.56976 2.8485,-2.74678 6.47777,-3.49962 z" id="path5788-1-6-7" sodipodi:nodetypes="csccc"/><path style="display:inline;fill-opacity:1;fill:#c8c8c8;opacity:1;stroke-dasharray:none;stroke-linecap:butt;stroke-linejoin:miter;stroke-miterlimit:4;stroke-opacity:1;stroke-width:0;stroke:#000000" d="m 284.51487,205.20924 c 0.0133,-0.14802 0.991,-3.76164 1.04686,-3.94624 0,0 -10.13556,2.84037 -10.14148,3.07346 -0.008,0.30956 -0.81107,2.93146 -0.7689,3.0294 0.0242,0.22566 9.86356,-2.15662 9.86356,-2.15662 z" id="path5790-5-1-9" sodipodi:nodetypes="cssccc"/><path style="display:inline;fill-opacity:1;fill:#000000;opacity:1;stroke-dasharray:none;stroke-linecap:butt;stroke-linejoin:miter;stroke-miterlimit:4;stroke-opacity:1;stroke-width:0;stroke:#000000" d="m 291.43804,225.22292 c -1.55746,-13.09357 -1.37426,-30.86276 -2.09889,-34.33078 0,0 -5.28137,7.94296 -5.45764,8.15272 -0.24328,0.28951 -9.9989,7.28882 -10.05513,7.43632 0,0 8.98019,1.98424 8.4621,1.85987 -0.27185,-0.0659 -9.07312,-0.10709 -9.07924,-0.0751 -0.003,0.005 7.73437,10.8537 16.43595,18.38414 0.55532,-0.2647 -1.41646,0.90148 1.79285,-1.42718 z" id="path5792-5-1-1" sodipodi:nodetypes="ccssscccc"/><path style="display:inline;fill-opacity:1;fill:#3c3c3c;opacity:1;stroke-dasharray:none;stroke-linecap:butt;stroke-linejoin:miter;stroke-miterlimit:4;stroke-opacity:1;stroke-width:0;stroke:#000000" d="m 291.34778,225.79668 c -2.31203,-13.95836 -1.43167,-31.00153 -2.12266,-34.35968 0,0 -4.7873,7.51408 -5.16763,7.92491 -0.22714,0.24535 -9.22457,6.66488 -9.27449,6.79607 0,0 8.51841,2.38495 8.03158,2.26825 -0.25542,-0.0618 -9.27745,5.1e-4 -9.28327,0.0308 -0.003,0.005 8.73922,11.31026 17.0217,18.51911 1.45157,-1.52676 -2.43587,1.75174 0.44122,-1.00268 z" id="path5794-7-4-6" sodipodi:nodetypes="ccssscccc"/><path style="display:inline;fill-opacity:1;fill:#000000;opacity:1;stroke-dasharray:none;stroke-linecap:butt;stroke-linejoin:miter;stroke-miterlimit:4;stroke-opacity:1;stroke-width:0;stroke:#000000" d="m 286.24599,230.74195 c 6.99662,-10.68847 26.89722,-35.72172 29.31122,-40.31703 0,0 5.37281,7.70971 5.8395,8.07901 0.57885,0.45805 6.88736,11.8487 6.90296,12.02858 0,0 -11.27805,-1.41667 -10.74571,-1.39424 0.27948,0.0112 9.49562,2.68758 9.49274,2.72003 0.002,0.01 -40.80071,18.88365 -40.80071,18.88365 z" id="path5796-3-6-3" sodipodi:nodetypes="ccssscc"/><path style="display:inline;fill-opacity:1;fill:#3c3c3c;opacity:1;stroke-dasharray:none;stroke-linecap:butt;stroke-linejoin:miter;stroke-miterlimit:4;stroke-opacity:1;stroke-width:0;stroke:#000000" d="m 286.79647,230.27986 c 6.57385,-10.1174 26.08396,-34.56765 28.35209,-38.91744 0,0 5.34768,7.08589 6.14325,7.58156 0.53066,0.33062 6.24414,10.87389 6.25786,11.03325 0,0 -11.02518,-0.92252 -10.52501,-0.90128 0.26258,0.0106 8.92184,2.54399 8.91914,2.5747 0.002,0.01 -39.14733,18.62921 -39.14733,18.62921 z" id="path5798-0-4-5" sodipodi:nodetypes="ccssscc"/><path id="path5800-5-5-2" d="m 289.43415,268.61609 a 4.7552032,5.075284 0 0 1 -4.7552,5.07529 4.7552032,5.075284 0 0 1 -4.75521,-5.07529 4.7552032,5.075284 0 0 1 4.75521,-5.07529 4.7552032,5.075284 0 0 1 4.7552,5.07529 z" style="display:inline;fill-opacity:1;fill-rule:nonzero;fill:#c8c8c8;opacity:1;stroke-dasharray:none;stroke-linecap:butt;stroke-linejoin:round;stroke-miterlimit:4;stroke-opacity:1;stroke-width:0;stroke:#000000"/><path id="path5802-9-9-9" d="m 285.3306,300.64642 a 4.7552032,5.075284 0 0 1 -4.7552,5.07529 4.7552032,5.075284 0 0 1 -4.75521,-5.07529 4.7552032,5.075284 0 0 1 4.75521,-5.07529 4.7552032,5.075284 0 0 1 4.7552,5.07529 z" style="display:inline;fill-opacity:1;fill-rule:nonzero;fill:#c8c8c8;opacity:1;stroke-dasharray:none;stroke-linecap:butt;stroke-linejoin:round;stroke-miterlimit:4;stroke-opacity:1;stroke-width:0;stroke:#000000"/><path style="display:inline;fill-opacity:1;fill:#000000;opacity:1;stroke-dasharray:none;stroke-linecap:butt;stroke-linejoin:miter;stroke-miterlimit:4;stroke-opacity:1;stroke-width:0;stroke:#000000" d="m 229.11994,337.01715 c 0,0 61.60641,12.81795 136.50552,0.74043 0.23296,-0.0376 -0.83206,7.02083 -1.15899,10.53752 -0.29881,3.21428 1.1624,4.16033 0.86505,4.20444 -14.57264,6.17213 -128.84593,9.23839 -139.92006,-2.7007 0.20985,-4.33685 2.5544,-9.90174 3.70848,-12.78169 z" id="path5804-0-1-8" sodipodi:nodetypes="cssccc"/><path id="path5806-5-6-9" d="m 275.97871,350.12781 a 9.0972689,9.697676 1.800694 0 1 -9.3975,9.40704 9.0972689,9.697676 1.800694 0 1 -8.78807,-9.97876 9.0972689,9.697676 1.800694 0 1 9.39753,-9.40705 9.0972689,9.697676 1.800694 0 1 8.78804,9.97877 z" style="display:inline;fill-opacity:1;fill-rule:nonzero;fill:#c8c8c8;opacity:1;stroke-dasharray:none;stroke-linecap:butt;stroke-linejoin:round;stroke-miterlimit:4;stroke-opacity:1;stroke-width:0;stroke:#000000" inkscape:transform-center-x="1.7197881" inkscape:transform-center-y="-1.9605944"/><path id="path5808-8-2-2" d="m 261.46827,340.98431 c -0.60769,5.3213 -1.15744,10.07335 -1.88967,16.21714 -0.5668,-0.0647 -7.78025,-0.46298 -7.71856,-0.88052 0.0175,-0.11833 -0.0262,-1.78698 0.36685,-1.82558 0.42387,-0.0417 5.96149,0.98391 5.96377,0.40201 0.002,-0.43836 1.03646,-9.36021 1.28771,-11.56038 0.0472,-0.41313 -6.19353,-0.79791 -6.1805,-1.15505 0.0671,-1.84748 0.19795,-2.12739 0.51533,-2.26906 4.99183,0.57009 7.67734,0.48728 7.65509,1.07144 z" style="display:inline;fill-opacity:1;fill-rule:nonzero;fill:#c8c8c8;opacity:1;stroke-dasharray:none;stroke-linecap:butt;stroke-linejoin:round;stroke-miterlimit:4;stroke-opacity:1;stroke-width:0;stroke:#000000" sodipodi:nodetypes="ccssscscc" inkscape:transform-center-x="11.941676" inkscape:transform-center-y="-3.245379"/><path id="path5810-36-5-5" d="m 273.75385,342.04108 c -0.24824,5.35013 -0.46303,10.12906 -0.71947,16.311 0.56986,0.027 7.75457,0.78313 7.76021,0.36109 10e-4,-0.11961 0.31067,-1.75997 -0.0712,-1.86071 -0.41182,-0.1087 -6.04212,0.0211 -5.95161,-0.55376 0.0682,-0.43303 0.46879,-9.40574 0.57146,-11.61783 0.019,-0.41539 6.24155,0.19922 6.28561,-0.15514 0.22826,-1.83456 0.14366,-2.13174 -0.14703,-2.32219 -5.01888,-0.23292 -7.65686,-0.74272 -7.72802,-0.16253 z" style="display:inline;fill-opacity:1;fill-rule:nonzero;fill:#c8c8c8;opacity:1;stroke-dasharray:none;stroke-linecap:butt;stroke-linejoin:round;stroke-miterlimit:4;stroke-opacity:1;stroke-width:0;stroke:#000000" sodipodi:nodetypes="ccssscscc" inkscape:transform-center-x="-8.7912219" inkscape:transform-center-y="-1.4953081"/><path style="display:inline;fill-opacity:1;fill-rule:nonzero;fill:#c8c8c8;opacity:1;stroke-dasharray:none;stroke-linecap:butt;stroke-linejoin:round;stroke-miterlimit:4;stroke-opacity:1;stroke-width:0;stroke:#000000" d="m 284.63086,231.65234 c -0.0165,-0.008 -0.0319,-0.004 -0.0449,0.01 -0.58358,0.62589 -3.38749,2.94487 -5.86328,5.07227 0.96283,3.23986 2.00965,7.26121 3.2539,10.24609 0.58358,-0.62589 3.38749,-2.94487 5.86328,-5.07227 -1.06398,-3.26131 -1.73611,-6.93046 -3.20898,-10.25586 z m -0.41602,1.57032 c 0.62964,2.61253 1.88016,5.41417 2.43164,8.17578 -0.16042,0.15084 -3.5544,3.03827 -4.29882,4.02148 -0.62925,-2.61242 -1.88026,-5.41468 -2.43164,-8.17578 0.16042,-0.15084 3.5544,-3.03827 4.29882,-4.02148 z" id="path5812-3-2-4" sodipodi:nodetypes="ccccccccccc"/><path id="path5814-3-4-2" d="m 327.91317,341.63787 c 0.55534,-0.381 1.09416,-0.7513 1.63156,-1.12166 0.0768,-0.053 2.29525,2.45246 2.3856,2.39738 0.82036,-0.50012 1.68987,-1.00563 2.59683,-1.63796 0.0794,-0.0554 -1.99444,-2.83092 -1.91405,-2.88702 0.47249,-0.32974 0.96234,-0.67256 1.47756,-1.03417 -0.33457,-0.46202 -4.40448,-6.41234 -4.55646,-6.29119 -0.0431,0.0341 -0.80721,0.27648 -0.61226,0.61072 0.21024,0.36054 3.65411,4.80834 3.39708,4.90738 -0.1936,0.0746 -3.5948,2.42707 -4.43567,3.00394 -0.15776,0.1085 -3.6972,-5.03263 -3.84825,-4.96244 -0.78373,0.36436 -0.83731,0.52026 -0.72891,0.80863 2.94707,4.06863 4.35972,6.32245 4.60695,6.2064 z" style="display:inline;fill-opacity:1;fill-rule:nonzero;fill:#c8c8c8;opacity:1;stroke-dasharray:none;stroke-linecap:butt;stroke-linejoin:round;stroke-miterlimit:4;stroke-opacity:1;stroke-width:0;stroke:#000000" sodipodi:nodetypes="csssscssscsccc"/><path sodipodi:nodetypes="cssscc" id="path2965-7-5-2-9" d="m 282.45842,458.56662 c -0.27835,0.87834 -1.09442,7.30349 -3.59097,9.21774 -0.26922,0.20641 -1.13559,1.14752 -4.57861,0.28177 -0.17398,-0.0437 -1.37228,0.71664 -3.61539,0.0361 -5.82941,-1.76869 -6.22252,-8.10904 -6.31915,-8.53686 8.23205,-5.09165 11.4291,-4.00072 18.10412,-0.99875 z" style="display:inline;fill-opacity:1;fill-rule:evenodd;fill:#000000;opacity:1;stroke-dasharray:none;stroke-linecap:butt;stroke-linejoin:miter;stroke-miterlimit:4;stroke-opacity:1;stroke-width:0;stroke:#000000"/><path sodipodi:nodetypes="cssscc" id="path2967-8-0-2-1" d="m 282.65569,458.4011 c -0.78318,1.88787 -2.10206,7.06063 -4.59684,8.84104 -1.21608,0.86786 -3.67141,-0.009 -3.92314,-0.0331 -0.29372,-0.0276 -0.96753,0.96577 -3.15689,0.31564 -4.33861,-1.28834 -5.1633,-4.97917 -6.6404,-7.92987 7.24395,-6.87766 11.19968,-9.59173 18.31727,-1.19371 z" style="display:inline;fill-opacity:1;fill-rule:evenodd;fill:#333333;opacity:1;stroke-dasharray:none;stroke-linecap:butt;stroke-linejoin:miter;stroke-miterlimit:4;stroke-opacity:1;stroke-width:0;stroke:#000000"/></svg>
