<svg viewBox="0 0 560 1000"><path sodipodi:nodetypes="ccccscccccccc" id="path3222-7-3-3" d="m 371.07736,265.46102 c 0.3204,30.00766 2.62522,38.64914 -5.87808,82.53519 7.69879,14.50936 15.92635,56.90915 -2.20635,71.92158 -40.88627,-6.42191 -64.48223,39.29962 -83.46513,48.11028 -13.46483,4.69716 -17.71458,-10.66263 -17.71458,-10.66263 -6.67546,-8.9041 -31.42323,-30.74254 -36.79649,-40.43743 -16.5972,-32.61931 -4.30291,-59.72896 8.63108,-98.12726 -3.23011,-28.04469 0.37171,-46.06543 2.00911,-57.57623 0.31637,-6.99101 17.01103,-36.30064 41.07855,-55.59133 2.45486,-2.19042 8.36366,-2.37802 11.80424,-11.95009 0.43971,1.1041 25.57401,1.13003 27.54816,0.1128 3.70824,10.06376 11.66308,9.74809 20.64203,13.26548 3.23602,13.74016 10.9742,40.5711 34.34746,58.39964 z" style="display:inline;fill-opacity:1;fill-rule:evenodd;fill:#000000;opacity:1;stroke-dasharray:none;stroke-linecap:butt;stroke-linejoin:miter;stroke-miterlimit:4;stroke-opacity:1;stroke-width:0;stroke:#000000"/><path sodipodi:nodetypes="cccccccccccccc" id="path3224-3-3-9" d="m 371.22602,265.44019 c -0.57813,35.55955 -1.98357,51.3504 -7.48454,82.86888 3.90265,7.07374 17.8388,52.11871 -0.23676,71.84165 -34.41267,14.19776 -52.40644,36.40748 -82.5345,47.38628 -0.34473,0.71459 -4.28479,1.02682 -6.08184,2.18944 -18.47205,-3.83493 -54.03854,-36.95373 -50.6592,-53.75808 -13.65583,-33.23496 -0.52606,-65.20618 10.68218,-96.80456 -1.808,-18.99778 -2.0386,-45.81473 3.60311,-62.90875 7.04392,-20.04246 26.09975,-36.63136 38.20065,-50.67173 4.39276,-1.63208 9.921,-3.54094 11.89532,-11.89005 0.91331,1.16305 27.3319,0.72925 27.585,0.13505 1.87148,7.65603 6.84719,9.74289 20.70437,13.17561 4.14295,30.00824 20.53003,50.47007 34.32618,58.43626 z" style="display:inline;fill-opacity:1;fill-rule:evenodd;fill:#800000;opacity:1;stroke-dasharray:none;stroke-linecap:butt;stroke-linejoin:miter;stroke-miterlimit:4;stroke-opacity:1;stroke-width:0;stroke:#000000"/><path d="m 328.65568,423.62719 c -15.47912,1.19068 -42.03655,26.26041 -44.60915,30.99635 10.29989,-9.14088 29.75953,-26.28541 44.60915,-30.99635 z" class="shadow" id="path9711-1-0-0-3" sodipodi:nodetypes="ccc"/><path d="m 260.91357,455.47548 c -6.81704,-9.41592 -28.83006,-31.99347 -34.93819,-34.15183 5.05404,5.44075 26.5203,25.35081 34.93819,34.15183 z" class="shadow" id="path9713-8-8-5-9" sodipodi:nodetypes="ccc"/></svg>
