<svg viewBox="0 0 560 1000"><path class="underarm_hair" sodipodi:nodetypes="csssssssssssscscsssssssssssscc" id="path6194" d="m 365.80063,265.90556 c 0.21643,-0.47602 0.42201,-0.95753 0.61698,-1.44305 0.13944,-0.34737 1.29001,0.72587 1.41873,0.37492 0.12775,-0.34825 -0.76626,-2.12067 -0.64894,-2.47139 0.24475,-0.73171 1.60817,0.99104 1.6802,0.56351 0.0876,-0.5201 -0.74311,-3.79189 -0.62403,-4.30255 0.14751,-0.63246 1.46085,0.80201 1.57759,0.17832 0.0843,-0.4506 -1.00758,-2.96102 -0.9519,-3.40544 0.14554,-1.16012 1.21693,-0.007 1.3373,-0.32654 0.12595,-0.33394 -1.10329,-3.54797 -1.0892,-3.88503 0.0313,-0.7458 1.24409,0.94746 1.24441,0.2533 1.7e-4,-0.38787 -1.20051,-3.18475 -1.21153,-3.55106 -0.0298,-0.98904 1.69618,0.47831 1.57005,-0.30114 -0.1243,-0.76815 -2.09908,-3.78666 -2.33797,-4.27738 -0.92287,-0.67191 -3.07849,-2.06127 -3.5098,-2.00489 -0.30891,0.0403 -2.41499,1.24997 -3.74587,1.72581 0.0878,1.02464 -2.78352,3.897 -2.628,5.02742 0.0789,0.57266 3.16243,-0.62603 3.25521,-0.0365 0.0879,0.55841 -2.44768,3.61654 -2.34926,4.18404 0.10751,0.6202 2.85005,-1.24961 2.96777,-0.62588 0.1294,0.6855 -1.71073,3.69234 -1.57229,4.37238 0.13023,0.63951 2.23848,-1.04717 2.37374,-0.42124 0.13879,0.64234 -1.06337,2.71413 -0.92218,3.33311 0.10422,0.45703 1.55169,-0.53241 1.65577,-0.0925 0.14933,0.63108 -0.74769,2.96268 -0.60169,3.54944 0.14999,0.60274 1.34259,-0.54073 1.4851,0.004 0.0999,0.38146 -0.55386,2.09107 -0.45928,2.43893 0.1029,0.37843 0.95361,-0.60815 1.0486,-0.27449 0.15262,0.53626 0.29405,1.01128 0.42046,1.41425 z"/></svg>
