<svg viewBox="0 0 560 1000"><path style="fill:#000000;stroke-width:3.36553597" sodipodi:nodetypes="cscccc" id="path3860" d="m 205.54594,435.9599 c 0.39669,-0.16338 1.03913,0.0302 1.40736,-0.13633 17.52509,-7.91229 3.02202,-19.29778 -1.34484,-18.75322 -11.78472,4.09791 -7.25146,15.68314 -3.41182,16.32158 0.0551,0.0395 0.45843,1.01609 3.3493,2.56795 z"/><path style="fill:#000000;stroke-width:3.36553597" sodipodi:nodetypes="ccccssssssssscc" id="path3862" d="m 243.08635,462.65881 c 16.46453,4.54875 33.05557,9.81929 38.74447,-4.31898 1.75555,-4.88888 0.62838,-8.34806 -2.88771,-9.61628 -14.51525,-4.49207 -45.4047,-17.65216 -54.43073,-26.07024 -1.24618,-1.89189 -1.03651,-2.1645 -2.30409,-3.4629 -2.68754,-2.75283 -6.14252,-2.47194 -8.96616,-2.31871 -1.70169,0.0925 -6.09387,-0.42681 -7.45982,0.11263 -1.14741,0.45312 -2.14844,1.09587 -2.80125,1.91591 -0.20277,0.25488 1.34817,-0.55694 1.49378,-0.66575 4.09901,-3.06287 20.4747,9.82032 2.22326,17.36531 -1.68956,0.69843 -6.86529,-4.51395 -6.8191,-4.33616 0.29538,1.13792 2.26613,2.92927 4.00045,4.07559 1.0356,0.68446 2.21378,0.94046 2.63336,1.67517 5.04385,8.83165 16.16433,18.52887 36.57354,25.64425 z"/><path class="areola" sodipodi:nodetypes="ccscccc" id="path3864" d="m 202.38068,432.12974 c 6.28167,3.72955 18.18535,-1.3664 21.17893,-8.47599 -0.75384,-2.12138 -3.33818,-6.22295 -6.37031,-6.12412 -8.65373,0.28186 -8.46109,-0.53641 -12.09761,0.51942 -7.27481,3.1046 -8.18256,9.62483 -4.24695,14.44963 0.38581,0.29355 0.88768,-0.22565 1.53594,-0.36912 z"/><path style="fill:#000000;stroke-width:3.36553597" sodipodi:nodetypes="ccscc" id="path3866" d="m 200.93764,428.12963 c 0.0893,0.64818 0.89485,1.96204 1.7665,2.19881 -0.004,-0.0337 -0.2143,-1.1506 -0.22277,-1.18465 -0.28185,-1.14864 -1.52948,-4.53032 0.50589,-8.32581 -2.04758,2.29804 -2.41713,4.57337 -2.04978,7.31165 z"/><path sodipodi:nodetypes="cccccscccc" id="path3868" class="skin penis" d="m 244.13341,461.92924 c 16.31057,4.50628 31.9847,10.71091 38.36728,-3.25685 1.73916,-4.84316 1.63033,-7.59813 -1.85291,-8.85459 -15.13357,-3.59505 -47.07132,-17.22387 -56.0129,-25.56319 -4.20948,5.86137 -8.36963,9.08016 -17.283,9.85747 -1.5006,-0.018 -3.09588,-0.41053 -4.7025,-1.32775 -0.34803,-0.19883 -0.91443,0.18254 -1.1575,0.26592 -0.27922,0.1842 6.53949,4.18558 6.39523,4.49646 4.9967,8.74911 16.02796,17.33387 36.24627,24.38266 z"/></svg>
