<svg viewBox="0 0 560 1000"><path style="display:inline;fill-opacity:1;fill-rule:nonzero;fill:#85929e;opacity:1;stroke-dasharray:none;stroke-linecap:butt;stroke-linejoin:miter;stroke-miterlimit:4;stroke-opacity:1;stroke-width:0;stroke:#000000" d="m 293.39717,219.15201 c 0,0 -11.30379,-8.0112 -13.32421,-14.80963 -0.14531,-0.48895 1.08137,-0.85736 1.3252,-0.89177 2.11202,5.76737 13.33697,14.92636 13.80409,15.01048 0.45472,0.0819 22.94782,-9.41365 27.20052,-15.6514 0.11299,0.48255 1.442,0.4609 1.29391,0.92178 -2.16457,6.73605 -27.24014,15.72559 -27.26746,15.74375 -0.0217,0.0182 -1.49102,0.55747 -1.70932,0.55652 -0.12548,-0.0318 -1.25536,-0.836 -1.32273,-0.87973 z" id="path2362-0" sodipodi:nodetypes="cscscsccc"/><path style="display:inline;fill-opacity:1;fill-rule:nonzero;fill:#85929e;opacity:1;stroke-dasharray:none;stroke-linecap:butt;stroke-linejoin:miter;stroke-miterlimit:4;stroke-opacity:1;stroke-width:0;stroke:#000000" d="m 237.50794,271.36382 c -0.12533,-0.49445 0.12012,-2.27961 0.12012,-2.27961 26.65163,-7.75069 37.59004,-13.08518 40.91657,-15.78407 2.88198,-2.73792 5.66754,-5.6219 9.10488,-1.29544 10.06093,13.80857 51.79113,22.38154 82.06573,20.02709 0.0169,0.29411 -0.25819,2.16976 -0.2561,2.3755 0.004,0.38325 -64.33759,1.88803 -83.77782,-20.35448 -1.60892,-1.85436 -2.59027,-1.05997 -3.33649,-0.47037 -3.1265,2.76859 -13.99763,9.41742 -44.83665,17.78138 z" id="path2364-9" sodipodi:nodetypes="cccccscccc"/><path sodipodi:nodetypes="cssccccsscc" id="path2316-4-2" d="m 362.62096,412.36033 c 0.17594,0.29463 0.25367,0.39966 0.14343,0.43358 -11.64785,3.58424 -54.77333,12.56155 -66.84263,28.92391 -5.44325,7.37942 -12.7957,15.81041 -13.00807,16.4538 -2.1338,6.22432 -3.13571,11.30135 -8.74014,9.85578 -3.7101,1.37219 -8.64925,-2.20367 -10.2075,-9.58034 -3.18111,0.37789 -22.83664,-35.81939 -38.56205,-44.63334 0.11113,-0.0316 0.41697,-0.90137 0.51991,-1.06255 0.0911,-0.14259 0.28025,0.0854 0.40697,0.19488 43.76307,37.81395 119.04026,-1.93695 136.1807,-0.71069 z" style="display:inline;fill-opacity:1;fill-rule:evenodd;fill:#85929e;opacity:1;stroke-dasharray:none;stroke-linecap:butt;stroke-linejoin:miter;stroke-miterlimit:4;stroke-opacity:1;stroke-width:0;stroke:#000000"/></svg>
