<svg viewBox="0 0 560 1000"><path sodipodi:nodetypes="cccscccccsccccccccsc" d="m 315.34619,121.99106 c -0.11679,-0.0465 -0.42414,-0.0824 -0.8126,-0.11361 l -0.80776,-0.0651 0.804,0.24813 c 1.14618,0.35369 0.83942,0.43447 -0.74523,0.19624 -1.89149,-0.24868 -3.74817,-0.6578 -5.87828,-0.95729 -6.11576,0.34167 -13.2975,1.94976 -15.9777,2.98113 -0.709,0.0766 -1.53853,0.18442 -1.84341,0.23974 -0.67495,-0.55201 -1.26258,-0.84378 -0.79073,-1.61438 0.0588,-0.3163 0.15308,-0.64383 0.23373,-0.91858 0.0811,-0.27611 0.14829,-0.49894 0.15173,-0.60352 l 0.74352,-0.15989 c 1.28388,-0.76027 10.49247,-2.40619 15.95379,-2.41154 1.50772,-0.0791 1.94447,-0.0461 2.79655,0.21176 0.55537,0.16801 1.38732,0.3822 1.84875,0.47598 0.90322,0.18355 0.89491,0.18081 2.98299,0.98015 l 1.36581,0.52284 c 0.0226,0.0198 0.71038,0.27251 1.23922,0.91028 -0.14197,0.17169 -1.24762,0.0844 -1.26438,0.0777 z" id="path2604" class="eyebrow_hair"/><path sodipodi:nodetypes="sccccccscs" d="m 264.1942,120.30943 c 0.0514,-0.0107 1.33147,-0.62373 1.41381,-0.67499 3.47039,-1.30241 8.07315,0.22997 9.74787,0.91059 0.55179,-0.10301 2.25013,0.65534 2.25013,0.65534 0.144,0.28595 0.40356,0.83299 0.3965,2.29869 -0.1657,0.29142 -0.96713,1.02789 -1.63932,0.62101 -0.63331,-0.24131 -1.34513,-0.55189 -2.34765,-0.80044 -1.29486,-0.61011 -8.5864,-1.06215 -9.44043,-0.70072 -0.0495,0.0209 -0.19738,-1.24503 -0.2081,-1.23853 0.0186,-0.0107 -0.19779,-1.0658 -0.17281,-1.07095 z" id="path2606" class="eyebrow_hair"/></svg>
