<svg viewBox="0 0 560 1000"><path sodipodi:nodetypes="cccscccccsccccccccsc" d="m 315.34619,122.70955 c -0.11679,-0.0122 -0.42414,-0.0215 -0.8126,-0.0297 l -0.80776,-0.0171 0.804,0.0649 c 1.14618,0.0925 0.83942,0.11366 -0.74523,0.0513 -1.89149,-0.0651 -3.74817,-0.17209 -5.87828,-0.25044 -6.11576,0.0894 -13.2975,0.51008 -15.9777,0.77989 -0.709,0.02 -1.53853,0.0482 -1.84341,0.0627 -0.67495,-0.14441 -1.26258,-0.22074 -0.79073,-0.42233 0.0588,-0.0828 0.15308,-0.16844 0.23373,-0.24031 0.0811,-0.0722 0.14829,-0.13053 0.15173,-0.15789 l 0.74352,-0.0418 c 1.28388,-0.19889 10.49247,-0.62948 15.95379,-0.63088 1.50772,-0.0207 1.94447,-0.0121 2.79655,0.0554 0.55537,0.044 1.38732,0.1 1.84875,0.12453 0.90322,0.048 0.89491,0.0473 2.98299,0.25641 l 1.36581,0.13679 c 0.0226,0.005 0.71038,0.0713 1.23922,0.23813 -0.14197,0.045 -1.24762,0.0221 -1.26438,0.0204 z" id="path2652" class="eyebrow_hair"/><path sodipodi:nodetypes="sccccccscs" d="m 264.1942,122.31694 c 0.0514,-0.003 1.33147,-0.15086 1.41381,-0.16325 3.47039,-0.31501 8.07315,0.0556 9.74787,0.22023 0.55179,-0.0249 2.25013,0.15851 2.25013,0.15851 0.144,0.0692 0.40356,0.20147 0.3965,0.55597 -0.1657,0.0705 -0.96713,0.2486 -1.63932,0.1502 -0.63331,-0.0584 -1.34513,-0.13348 -2.34765,-0.1936 -1.29486,-0.14757 -8.5864,-0.2569 -9.44043,-0.16948 -0.0495,0.005 -0.19738,-0.30113 -0.2081,-0.29956 0.0186,-0.003 -0.19779,-0.25777 -0.17281,-0.25902 z" id="path2654" class="eyebrow_hair"/></svg>
