<svg viewBox="0 0 560 1000"><path style="display:inline;fill-opacity:1;fill-rule:evenodd;fill:#eeaaff;opacity:1;stroke-dasharray:none;stroke-linecap:butt;stroke-linejoin:miter;stroke-miterlimit:4;stroke-opacity:1;stroke-width:0;stroke:#000000" d="m 350.44891,411.28161 c -41.34356,12.40411 -56.35277,29.50718 -67.32299,47.0649 -1.04023,1.75909 -1.92047,7.35117 -4.50173,9.70959 -0.97785,0.89343 -3.70051,-0.0277 -4.03805,0.0431 -0.91345,0.19159 -2.09488,0.29968 -2.84109,0.24274 -1.3589,-0.10369 -3.10427,-0.97079 -4.62926,-2.64607 -1.15035,-1.26373 -2.1753,-2.98733 -2.81436,-5.19001 -8.27893,-10.93923 -27.60352,-39.54369 -38.34145,-47.86102 0.0176,-0.005 -0.05,-0.20603 0.59439,-1.93851 29.91996,7.91079 37.53385,11.40066 123.28163,-1.21761 0,0 0.63138,1.78415 0.61291,1.79289 z" id="path5862" sodipodi:nodetypes="ccssssccccc"/><path style="display:inline;fill-opacity:1;fill:#eeaaff;stroke-dasharray:none;stroke-linecap:butt;stroke-linejoin:miter;stroke-miterlimit:4;stroke-opacity:1;stroke-width:0;stroke:#83afc8" d="m 225.9378,412.66104 c 0.12717,-0.79329 0.24724,-0.90642 0.25482,-0.95601 23.02972,9.12926 54.6817,12.66174 123.82806,-1.73671 0.0291,0.083 0.24793,0.57628 0.45084,1.30322 -7.49448,2.32559 -13.58511,4.61432 -22.50451,8.15633 -60.49161,9.75774 -83.56164,4.33761 -97.57663,-2.66633 -1.68147,-1.78024 -2.87542,-3.01265 -4.45258,-4.1005 z" id="path5864" sodipodi:nodetypes="ccccccc"/><path style="display:inline;fill-opacity:1;fill:#eeaaff;stroke-dasharray:none;stroke-linecap:butt;stroke-linejoin:miter;stroke-miterlimit:4;stroke-opacity:1;stroke-width:0;stroke:#83afc8" d="m 241.44907,429.61473 c 16.19921,3.4137 37.32679,4.09867 68.75142,-0.23858 -1.10723,0.72649 -4.9682,3.64884 -9.02733,7.02192 -26.13262,3.68145 -42.62028,3.1439 -53.96133,0.73077 -1.89388,-2.48871 -3.25794,-4.54662 -5.76276,-7.51411 z" id="path5866" sodipodi:nodetypes="ccccc"/><path style="display:inline;fill-opacity:1;fill:#eeaaff;stroke-dasharray:none;stroke-linecap:butt;stroke-linejoin:miter;stroke-miterlimit:4;stroke-opacity:1;stroke-width:0;stroke:#83afc8" d="m 252.70414,444.58541 c 10.94342,1.31488 24.01095,1.50229 40.32871,0.0811 -1.56759,2.01272 -3.58281,4.56444 -5.24245,6.66295 -12.30604,1.16431 -22.00263,1.20882 -29.81942,0.51362 -2.04934,-2.61037 -3.63449,-4.68604 -5.26684,-7.25767 z" id="path5868" sodipodi:nodetypes="ccccc"/><path style="display:inline;fill-opacity:1;fill:#eeaaff;stroke-dasharray:none;stroke-linecap:butt;stroke-linejoin:miter;stroke-miterlimit:4;stroke-opacity:1;stroke-width:0;stroke:#83afc8" d="m 262.53421,458.18295 c 6.22871,0.31514 13.08896,0.30377 20.72809,-0.0971 -0.87505,2.4389 -1.64015,4.66739 -2.42955,6.53665 -5.25319,0.34928 -9.97649,0.47387 -14.24234,0.41152 -1.68576,-1.69159 -2.0194,-4.59693 -4.0562,-6.85107 z" id="path5870" sodipodi:nodetypes="ccccc"/><path style="display:inline;fill-opacity:1;fill-rule:evenodd;fill:#000000;opacity:1;stroke-dasharray:none;stroke-linecap:butt;stroke-linejoin:miter;stroke-miterlimit:4;stroke-opacity:1;stroke-width:0;stroke:#000000" d="m 282.94456,458.76549 c -0.0483,0.15247 -0.11284,0.47208 -0.19954,0.90622 -0.41277,2.06685 -1.81439,6.53069 -3.87757,8.11265 -0.26921,0.20642 -1.13559,1.14752 -4.57861,0.28177 -0.17398,-0.0437 -2.18026,1.1699 -4.2783,0.12449 -4.65827,-2.32112 -6.22252,-8.10904 -6.31915,-8.53686 3.82592,9.08132 8.89939,9.3147 10.40315,7.55401 5.26837,2.79873 7.50839,-4.81217 8.85002,-8.44228 z" id="path5872" sodipodi:nodetypes="cssssccc"/><path style="display:inline;fill-opacity:1;fill:#eeaaff;stroke-dasharray:none;stroke-linecap:butt;stroke-linejoin:miter;stroke-miterlimit:4;stroke-opacity:1;stroke-width:0;stroke:#83afc8" d="m 271.02081,416.82683 c -0.40499,0.0203 -2.65956,0.56808 -4.1375,-0.83724 -4.16958,-3.96471 -10.17596,-9.87921 -10.68888,-9.8703 -4.579,14.03976 6.16335,16.1551 5.27505,17.72345 2.40799,0.6564 7.98463,6.14075 21.22352,-0.42033 -1.20838,-1.7332 10.55044,-3.69019 5.51126,-16.9532 -1.34763,0.35186 -8.56003,6.49771 -13.30543,9.96822 -1.31933,0.96489 -3.20132,0.3151 -3.87831,0.38931 z" id="path5853-5" sodipodi:nodetypes="csccccscc"/><path style="display:inline;fill-opacity:1;fill:#000000;stroke-dasharray:none;stroke-linecap:butt;stroke-linejoin:miter;stroke-miterlimit:4;stroke-opacity:1;stroke-width:0;stroke:#000000" d="m 358.3588,420.46955 c 0,0 0.90522,-3.71477 1.23561,-3.80327 -1.21534,-3.75726 -8.84438,-7.8256 -8.90737,-7.95693 -10.52727,-21.94918 14.2534,-0.93604 1.17112,0.59258 0.0295,-0.17605 0.20585,0.63851 0.20585,0.63851 18.06723,-2.3882 -15.05115,-26.45838 -1.90037,-1.10352 0.0103,0.0448 6.48299,6.86889 8.19516,11.63263 z" id="path4332-3-6" sodipodi:nodetypes="ccscccc"/><path style="display:inline;fill-opacity:1;fill:#eeaaff;stroke-dasharray:none;stroke-linecap:butt;stroke-linejoin:miter;stroke-miterlimit:4;stroke-opacity:1;stroke-width:0;stroke:#000000" d="m 358.60185,420.24234 c 0,0 0.90522,-3.71476 1.2356,-3.80326 -1.21533,-3.75726 -8.84466,-7.82546 -8.90736,-7.95694 -10.51953,-22.05892 14.79918,-0.81495 1.17111,0.59259 0.0295,-0.17605 0.20585,0.63851 0.20585,0.63851 18.59901,-2.19315 -16.36615,-26.99934 -1.90036,-1.10352 0.0103,0.0448 6.48298,6.86889 8.19516,11.63262 z" id="path4334-7-6" sodipodi:nodetypes="ccscccc"/><path style="display:inline;fill-opacity:1;fill:#000000;stroke-dasharray:none;stroke-linecap:butt;stroke-linejoin:miter;stroke-miterlimit:4;stroke-opacity:1;stroke-width:0;stroke:#000000" d="m 351.75838,410.19916 c 0,0 -0.0402,-0.24272 -0.17351,-0.71431 -20.6074,7.681 -6.89527,-22.17686 -0.16577,-1.60176 0.0252,0.077 -3.37763,8.23048 -2.89317,10.45879 0.66187,-0.20196 3.10181,4.16632 3.10181,4.16632 -1.2295,-5.89337 0.27249,-14.69057 0.24656,-14.77148 -8.33078,-25.98859 -23.21991,14.23924 -0.11586,2.46243 z" id="path4336-6-4" sodipodi:nodetypes="ccsccscc"/><path style="display:inline;fill-opacity:1;fill:#eeaaff;stroke-dasharray:none;stroke-linecap:butt;stroke-linejoin:miter;stroke-miterlimit:4;stroke-opacity:1;stroke-width:0;stroke:#000000" d="m 352.00143,409.97197 c 0,0 -0.0402,-0.24273 -0.17352,-0.71432 -20.56708,7.61314 -6.91981,-22.94111 -0.16578,-1.60175 0.0244,0.0772 -3.37763,8.23048 -2.89316,10.45878 0.66187,-0.20195 3.10181,4.16632 3.10181,4.16632 -1.22951,-5.89336 0.27401,-14.69108 0.24655,-14.77148 -9.06764,-26.54947 -23.333,14.16775 -0.11586,2.46243 z" id="path4338-4-9" sodipodi:nodetypes="ccsccscc"/><path style="display:inline;fill-opacity:1;fill:#000000;stroke-dasharray:none;stroke-linecap:butt;stroke-linejoin:miter;stroke-miterlimit:4;stroke-opacity:1;stroke-width:0;stroke:#000000" d="m 221.6569,423.82583 c 0,0 -1.4474,-3.53892 -1.78727,-3.57732 0.64327,-3.89619 7.58295,-9.05339 7.6255,-9.19269 5.56195,-18.20892 -10.27027,2.44141 -1.07001,0.76009 -0.0553,-0.16971 -0.10864,0.66202 -0.10864,0.66202 -12.47444,1.36473 9.0497,-22.8518 1.7152,-1.37377 -0.004,0.0458 -5.38981,7.75633 -6.37478,12.72167 z" id="path4332-3-9-0" sodipodi:nodetypes="ccscccc"/><path style="display:inline;fill-opacity:1;fill:#eeaaff;stroke-dasharray:none;stroke-linecap:butt;stroke-linejoin:miter;stroke-miterlimit:4;stroke-opacity:1;stroke-width:0;stroke:#000000" d="m 221.38278,423.63728 c 0,0 -1.4474,-3.53891 -1.78727,-3.57732 0.64327,-3.89618 7.57588,-9.05573 7.6255,-9.1927 6.47204,-17.86415 -10.93432,2.02596 -1.07,0.76011 -0.0554,-0.16971 -0.10864,0.66201 -0.10864,0.66201 -13.43477,2.55476 10.70651,-23.48257 1.71519,-1.37376 -0.004,0.0458 -5.38981,7.75633 -6.37478,12.72166 z" id="path4334-7-2-6" sodipodi:nodetypes="ccscccc"/><path style="display:inline;fill-opacity:1;fill:#000000;stroke-dasharray:none;stroke-linecap:butt;stroke-linejoin:miter;stroke-miterlimit:4;stroke-opacity:1;stroke-width:0;stroke:#000000" d="m 226.65718,412.68834 c 0,0 0.004,-0.246 0.0654,-0.73217 21.72011,4.11951 2.88094,-20.98739 -0.0742,-1.6086 -0.0122,0.0801 4.56365,7.6369 4.41583,9.91247 -0.68454,-0.10132 -2.44797,4.58114 -2.44797,4.58114 0.33972,-6.01066 -2.45857,-14.48783 -2.43976,-14.57069 5.31968,-23.43106 25.32651,10.578 0.48063,2.41785 z" id="path4336-6-6-0" sodipodi:nodetypes="ccsccscc"/><path style="display:inline;fill-opacity:1;fill:#eeaaff;stroke-dasharray:none;stroke-linecap:butt;stroke-linejoin:miter;stroke-miterlimit:4;stroke-opacity:1;stroke-width:0;stroke:#000000" d="m 226.38305,412.4998 c 0,0 0.004,-0.246 0.0654,-0.73217 21.825,4.21533 4.23573,-21.26198 -0.0742,-1.6086 -0.0173,0.0791 4.56365,7.6369 4.41583,9.91246 -0.68454,-0.10131 -2.44798,4.58115 -2.44798,4.58115 0.33974,-6.01066 -2.45828,-14.48778 -2.43975,-14.57069 5.43171,-24.30662 25.31159,10.66734 0.48064,2.41784 z" id="path4338-4-4-9" sodipodi:nodetypes="ccsccscc"/><path style="display:inline;fill-opacity:1;fill-rule:evenodd;fill:#ffffff;opacity:1;stroke-dasharray:none;stroke-linecap:butt;stroke-linejoin:miter;stroke-miterlimit:4;stroke-opacity:1;stroke-width:0;stroke:#000000" d="m 365.37357,281.798 c -0.32745,1.07095 0.008,2.03659 -0.33144,2.87146 -3.37514,-0.44813 -4.56495,1.98352 -7.98988,1.58066 -2.42396,-0.28511 -4.98934,-2.88572 -7.42757,-3.14801 -2.39996,-0.25819 -4.54066,1.93793 -6.94597,1.70195 -2.53802,-0.24898 -5.3407,-2.92878 -7.87498,-3.15292 -3.25195,-0.28761 -5.96858,1.77215 -9.1958,1.52569 -2.82372,-0.21563 -6.16213,-2.74232 -8.9519,-2.92627 -2.75453,-0.18162 -5.88529,2.79351 -8.59318,2.64297 -2.42583,-0.13486 -4.43413,-3.39849 -6.81229,-3.50829 -2.70865,-0.12506 -5.2512,2.4421 -7.88453,2.34971 -3.01482,-0.10575 -6.1076,-2.86593 -9.00355,-2.92858 -3.16336,-0.0684 -6.38139,2.68116 -9.37607,2.66449 -3.22656,-0.018 -6.21501,-2.79803 -9.21198,-2.75548 -2.41626,0.0343 -4.62021,2.53159 -6.86666,2.60551 -2.92729,0.0963 -5.83468,-2.21689 -8.43769,-2.05288 -2.65387,0.16721 -4.46841,2.69662 -6.74259,2.93472 -2.73231,0.2861 -3.15793,-1.89084 -5.27377,-1.50154 -0.27677,-0.78022 -0.0669,-1.6429 -0.22933,-2.57421 13.5597,-3.29884 50.46891,-6.42454 127.14918,3.67102 z" id="path3088-3-0-0-0-2-6-7-4-6-4-5" sodipodi:nodetypes="ccsssssssssssssssccc"/><path style="display:inline;fill-opacity:1;fill-rule:evenodd;fill:#ffffff;opacity:1;stroke-dasharray:none;stroke-linecap:butt;stroke-linejoin:miter;stroke-miterlimit:4;stroke-opacity:1;stroke-width:0;stroke:#000000" d="m 368.50738,249.23632 -0.26828,6.65854 -125.47383,-5.51138 0.91151,-5.57161 c 2.7038,-1.35916 3.73967,-4.26144 6.94607,-5.20827 3.75855,-1.10988 3.01219,1.18324 7.29411,0.56708 4.3145,-0.62084 4.77619,-3.74216 9.43812,-3.94185 4.41523,-0.18913 5.35037,1.39878 9.91598,1.51717 1.11616,0.0289 3.71833,-2.1004 6.81576,-2.44417 3.0706,-0.34078 5.77599,2.81672 8.85483,2.95397 3.12943,0.13951 4.379,-2.65607 7.74374,-2.66372 2.94496,-0.007 4.24222,3.07175 7.05441,3.04709 2.39646,-0.021 5.21151,-2.29174 7.43032,-1.72729 2.95141,0.75082 4.36841,2.99269 6.09349,3.18373 4.15336,0.45995 5.72259,-1.66487 9.63521,-1.09895 4.14845,0.60003 3.909,2.9234 7.63918,3.57825 3.96603,0.69626 5.41523,-1.68879 8.7312,-1.00774 3.63973,0.74755 5.63476,3.92003 8.49661,4.99337 2.04995,0.76885 4.71372,0.11176 6.38746,0.43594 2.86665,0.55525 6.39754,2.12088 6.35411,2.23984 z" id="path3180-8-0-7-5-5-9" sodipodi:nodetypes="ccccsssssssssssssssc"/><path style="display:inline;fill-opacity:1;fill-rule:evenodd;fill:#eeaaff;opacity:1;stroke-dasharray:none;stroke-linecap:butt;stroke-linejoin:miter;stroke-miterlimit:4;stroke-opacity:1;stroke-width:0;stroke:#000000" d="m 368.67948,251.00409 c -0.22367,1.20922 0.7087,15.86681 -3.4688,31.76896 -46.54781,-4.89707 -106.51619,-7.3019 -126.75697,-4.35099 -1.04386,-11.48092 4.87886,-31.84242 4.87886,-31.84242 34.54653,-12.61017 71.10517,-6.9819 125.34691,4.42445 z" id="path3180-8-2-7-0-0" sodipodi:nodetypes="ccccc"/><path sodipodi:nodetypes="cscsssssssssccssssssssscscc" id="path1686-7-77-70-6-0-7-3-8-7-7-1-1-9-7" d="m 289.80452,246.27599 c -0.42505,-0.0293 -2.81766,0.0864 -4.27946,-0.96712 -4.12406,-2.97227 -6.19364,-4.89988 -6.73099,-4.94764 -2.51562,4.78237 0.71448,8.24751 -0.30995,9.15879 -2.34278,2.0841 -3.18677,4.05494 -3.20293,7.68013 -9.7e-4,0.29722 -5.65906,0.60726 -5.63161,0.9026 0.0272,0.29232 5.73905,0.57053 5.79551,0.8589 0.0767,0.39408 0.18156,0.78439 0.31527,1.16896 0.0898,0.25838 -8.13064,1.68375 -8.01413,1.9364 0.1291,0.27981 8.59815,-0.61381 8.76097,-0.34255 0.24856,0.41405 0.5371,0.81726 0.86767,1.20684 0.13178,0.15527 -4.2015,2.27192 -4.05618,2.42276 0.12851,0.13343 4.73416,-1.6985 4.87339,-1.56891 4.46622,4.42846 14.07414,5.34722 20.80222,2.1051 0.18423,-0.11057 4.01651,2.94182 4.18799,2.82217 0.18436,-0.12863 -3.2931,-3.42996 -3.12328,-3.56848 0.39871,-0.32531 0.75749,-0.67713 1.07738,-1.0516 0.15951,-0.18668 7.11345,2.64029 7.2537,2.44283 0.1825,-0.25701 -6.45536,-3.54202 -6.30494,-3.81542 0.27016,-0.49102 0.48894,-1.00679 0.65798,-1.5412 0.0745,-0.23526 5.45481,0.54382 5.51007,0.30183 0.0503,-0.22082 -5.22275,-1.46216 -5.18808,-1.68773 0.55148,-3.58837 0.92301,-5.55783 -1.44369,-8.07844 -1.15989,-1.23532 2.38397,-2.30831 1.71775,-8.27865 -1.43161,0.0848 -4.27667,1.2686 -9.45262,2.99542 -1.43903,0.48009 -3.36933,-0.13197 -4.08232,-0.15503 z" class="skin"/></svg>
