<svg viewBox="0 0 560 1000"><path sodipodi:nodetypes="cscscc" id="path2635" d="m 311.35455,132.56454 c -0.17136,1.88256 -0.95401,3.28689 -1.89289,3.73354 -3.8731,1.84248 -7.87602,2.64483 -14.0454,1.60198 -1.66625,-0.24449 -4.05211,-4.31857 -3.86366,-5.36308 0.52169,-2.89149 3.70795,-3.62797 8.91858,-5.16053 4.42993,-0.14674 12.3457,1.1168 10.88337,5.18809 z" class="sclera"/><path sodipodi:nodetypes="cccccc" id="path2641" d="m 278.38686,133.34107 c -0.17135,1.876 0.48501,3.14472 -2.53497,3.75174 -2.27382,0.47585 -6.70319,-0.24475 -7.88998,-1.13625 -3.45206,-7.60151 -1.32648,-6.88225 -1.00507,-8.56534 0,-0.29363 1.30987,-0.67526 3.15351,-0.0798 3.71861,1.65197 8.22604,4.90247 8.27651,6.02961 z" class="sclera"/><path id="path2639" d="m 277.43623,133.98189 c 0.13676,-1.66364 0.004,-2.05021 -0.89129,-2.59606 -2.24586,-1.69413 -4.53124,-4.36003 -6.67586,-3.88123 -0.24264,0.25437 -2.00575,0.72888 -1.64604,4.227 0.30921,2.41202 0.72215,3.32689 3.16453,5.47848 0.7555,0.17542 2.47981,0.28452 3.23043,0.11652 1.06588,0.0313 1.72747,-0.22732 2.138,-0.61847 0.84507,-0.80523 0.62623,-2.17194 0.68023,-2.72624 z" sodipodi:nodetypes="ccccccsc" class="eye"/><path sodipodi:nodetypes="cccc" id="path2657-8" d="m 270.43514,133.59399 c -0.61109,-2.03939 -0.29342,-4.91254 1.96975,-4.98044 2.27289,-0.004 5.03837,3.20198 5.11246,5.24272 -0.47923,2.9727 -5.99918,2.40198 -7.08221,-0.26228 z" style="display:inline;fill-opacity:1;fill-rule:nonzero;fill:#000000;opacity:1;stroke-dasharray:none;stroke-dashoffset:0;stroke-linecap:round;stroke-linejoin:bevel;stroke-miterlimit:4;stroke-opacity:1;stroke-width:0;stroke:#000000;vector-effect:none"/><path style="fill:#000000;stroke-width:0.15957248" d="m 304.66543,126.87548 c -2.57061,-0.0641 -5.35546,0.30377 -7.98319,1.09009 -2.88879,0.86443 -4.47808,1.82344 -5.03054,3.03725 -0.32844,0.72162 -0.48801,2.18115 -0.22345,2.04166 0.10449,-0.0551 0.18908,-0.23753 0.18908,-0.40572 0,-0.78184 0.42935,-1.48357 1.28532,-2.10359 0.93391,-0.67648 1.64354,-1.1377 2.54235,-1.30379 l 0.5443,-0.0994 -0.36096,0.62245 c -0.55705,0.96057 -0.1266,2.70618 0.35681,4.07871 0.4666,1.32485 1.52644,2.26112 2.45988,3.09753 0.82091,0.59024 1.19401,0.69776 2.38923,1.07705 l 0.51757,0.0635 -1.69977,0.0376 c -1.43988,0.007 -3.01424,-0.0771 -3.88846,-0.20856 -1.75217,-0.2633 -1.66894,-0.26049 -1.43811,-0.0636 0.10207,0.0871 0.76019,0.24694 1.46104,0.35522 1.666,0.25737 5.76507,0.26679 7.4064,0.0163 2.44155,-0.37261 6.81832,-1.68959 6.50495,-1.95694 -0.052,-0.0444 -0.67562,0.12552 -1.38656,0.37803 -0.71095,0.25252 -0.86898,0.34428 -0.92423,0.34428 -0.0552,0 0.20329,-0.0626 0.64723,-0.52767 1.32526,-1.38816 1.63783,-1.90452 1.63783,-3.87152 0,-1.27328 -0.0973,-1.72068 -0.32336,-2.19126 -0.16536,-0.34452 -0.23793,-0.62732 -0.16235,-0.62732 0.14428,0 0.939,0.3751 1.50838,0.76478 0.27023,0.18493 0.32892,0.40529 0.31513,1.18295 -0.01,0.52601 -0.067,1.09056 -0.12796,1.25467 -0.22493,0.60462 0.21717,0.27212 0.79067,-0.59474 0.32485,-0.49104 0.76237,-1.10338 0.97211,-1.36221 0.94086,-1.16102 0.96008,-1.23205 0.46601,-1.62291 -0.61872,-0.48948 -3.08504,-1.63506 -4.131,-1.91783 -1.3074,-0.35344 -2.772,-0.54647 -4.31435,-0.58496 z" id="path3255" sodipodi:nodetypes="ccccscccccccccccccscscscsccccscscc"/><path sodipodi:nodetypes="ccscsccc" id="path2645" d="m 304.31474,137.59982 c 1.78051,-0.18547 2.63881,-0.65325 3.44953,-1.41994 2.26324,-1.51564 1.97032,-5.7471 0.51875,-6.86089 -1.16029,-0.89029 -4.61479,-1.57117 -5.91544,-1.62036 -1.73912,0.0766 -4.88961,0.46448 -5.49006,1.14564 -3.11434,3.53288 1.39878,9.48424 5.37114,8.97412 0.2513,-0.0281 1.18108,-0.12639 2.06621,-0.21857 z" class="eye"/><path sodipodi:nodetypes="ccc" id="path2657" d="m 302.34985,135.98191 c -5.82532,-0.72264 -5.34864,-7.66967 0.11182,-7.80953 5.44007,-0.006 7.8941,6.95928 -0.11182,7.80953 z" style="display:inline;fill-opacity:1;fill-rule:nonzero;fill:#000000;opacity:1;stroke-dasharray:none;stroke-dashoffset:0;stroke-linecap:round;stroke-linejoin:bevel;stroke-miterlimit:4;stroke-opacity:1;stroke-width:0;stroke:#000000;vector-effect:none"/><path id="path2647" d="m 268.62963,124.99783 c -1.40415,-0.29632 -1.6089,-0.5458 -0.3396,-0.41377 3.55034,0.37563 8.58632,3.66909 8.31257,3.86206 -2.19805,-0.70909 -4.55883,-3.03903 -7.97297,-3.44829 z" style="display:inline;fill:#000000;stroke-width:0.14657709" sodipodi:nodetypes="cccc"/><path id="path2649" d="m 291.74735,128.36867 c 3.5e-4,-0.0948 0.16122,-0.37297 0.3574,-0.61816 1.03109,-2.16588 6.78101,-2.35779 9.59354,-2.59974 -3.85489,0.99375 -7.90776,1.00989 -9.20526,2.64414 -0.59911,0.7632 -0.74687,0.87691 -0.74568,0.57376 z" style="display:inline;fill:#000000;stroke-width:0.15796353" sodipodi:nodetypes="ccccc"/><path id="path2651" d="m 264.51576,127.19282 c 0.0564,-0.0807 0.57515,-0.18463 1.15272,-0.23077 0.57756,-0.0461 1.41824,-0.11752 1.86815,-0.15864 0.47569,-0.0434 0.81806,-0.0195 0.81806,0.0572 0,0.13098 -0.57531,0.21087 -2.78881,0.38726 -0.79985,0.0637 -1.1213,0.0469 -1.05012,-0.055 z" style="display:inline;fill:#000000;stroke-width:0.14657709"/><path id="path2653" d="m 304.54086,125.17966 c 0.30882,-0.11282 7.27449,0.70554 8.6411,2.29315 -1.67454,-0.96534 -6.25191,-1.50999 -8.6411,-2.29315 z" style="display:inline;fill:#000000;stroke-width:0.14657709" sodipodi:nodetypes="ccc"/><path sodipodi:nodetypes="cccc" id="path2659" d="m 297.09457,132.46384 c 0.49289,-0.98188 3.2934,-4.20169 3.76287,-4.03012 0.46954,0.1716 0.45049,1.10656 -0.0425,2.08845 -0.74899,2.28347 -3.71668,1.94113 -3.72046,1.94167 z" style="display:inline;fill-opacity:1;fill-rule:nonzero;fill:#ffffff;opacity:1;stroke-dasharray:none;stroke-dashoffset:0;stroke-linecap:round;stroke-linejoin:bevel;stroke-miterlimit:4;stroke-opacity:1;stroke-width:0;stroke:#000000;vector-effect:none"/><path sodipodi:nodetypes="ccccc" id="path2661" d="m 271.78104,130.9364 c -0.31034,0.51252 -1.57472,1.32972 -1.83001,1.21717 -0.25529,-0.11253 -0.21066,-0.61921 0.0997,-1.13173 0.31033,-0.5125 2.15842,-2.29367 2.41372,-2.18116 0.2553,0.11254 -0.37303,1.5832 -0.68339,2.09572 z" style="display:inline;fill-opacity:1;fill-rule:nonzero;fill:#ffffff;opacity:1;stroke-dasharray:none;stroke-dashoffset:0;stroke-linecap:round;stroke-linejoin:bevel;stroke-miterlimit:4;stroke-opacity:1;stroke-width:0;stroke:#000000;vector-effect:none"/><path sodipodi:nodetypes="ccccc" id="path2663" d="m 271.57309,134.0029 c -0.16728,0.22018 -1.0459,1.18024 -1.25904,1.06237 -0.21304,-0.11781 -0.41323,-1.25001 -0.24597,-1.47017 0.16724,-0.22016 2.02656,-1.08255 2.23962,-0.96472 0.21304,0.1178 -0.56737,1.15236 -0.73461,1.37252 z" style="display:inline;fill-opacity:1;fill-rule:nonzero;fill:#ffffff;opacity:1;stroke-dasharray:none;stroke-dashoffset:0;stroke-linecap:round;stroke-linejoin:bevel;stroke-miterlimit:4;stroke-opacity:1;stroke-width:0;stroke:#000000;vector-effect:none"/><path sodipodi:nodetypes="ccccc" id="path2665" d="m 308.38339,133.29154 c 0,0.65836 -1.24096,3.10718 -1.88735,3.10713 -0.64636,0 -1.17033,-0.53366 -1.17033,-1.19202 0,-0.65834 0.52397,-3.49014 1.17033,-3.49014 0.64636,-4e-5 1.88735,0.91668 1.88735,1.57503 z" style="display:inline;fill-opacity:1;fill-rule:nonzero;fill:#ffffff;opacity:1;stroke-dasharray:none;stroke-dashoffset:0;stroke-linecap:round;stroke-linejoin:bevel;stroke-miterlimit:4;stroke-opacity:1;stroke-width:0;stroke:#000000;vector-effect:none"/><path style="fill:#000000;stroke-width:0.15957248" d="m 270.57244,137.22293 c -0.5226,-0.0985 -1.22309,-0.29196 -1.55666,-0.42987 -0.69468,-0.28721 -1.62265,-0.97731 -1.479,-1.09988 0.0532,-0.0454 -0.49938,0.0246 -0.32994,0.15542 0.43244,0.3339 3.21156,0.97818 3.6122,1.03014 l -0.78297,-0.65918 c -2.11033,-2.38572 -2.78282,-6.36412 -1.18886,-8.1457 l 0.57567,-0.64344 -0.50239,-0.17754 c -0.27081,0.0682 -0.68545,0.23681 -1.49446,0.8596 -0.95656,0.7364 -1.16104,1.20999 -1.04646,2.42364 0.0649,0.68725 0.0337,0.9949 -0.10081,0.9949 -0.35563,0 -1.38125,-1.38327 -1.94335,-2.62104 l -0.55441,-1.22081 0.502,-0.45052 c 0.8006,-0.71851 1.29225,-0.86637 2.88067,-0.86637 2.26797,0 3.33812,0.36335 6.26343,2.12667 1.67834,1.01166 4.30804,3.23382 5.03737,4.2567 0.56386,0.79081 0.67989,1.31678 0.18264,0.82788 -0.11779,-0.11583 -0.46062,-0.4002 -0.76185,-0.63198 l -0.54768,-0.42139 0.23776,0.56902 c 0.28987,0.69371 0.3167,1.84109 0.0614,2.62562 -0.20537,0.6311 -1.15887,1.55453 -1.60516,1.55453 -0.43834,0 -0.79702,-0.0543 0.20921,-0.38654 0.7301,-0.24108 1.07071,-0.98899 1.06116,-2.3625 -0.0113,-1.63329 -0.43523,-2.41936 -2.05867,-3.81793 -1.1332,-0.97622 -4.93191,-3.01371 -5.39426,-3.01371 -0.24247,0 -0.83121,0.58444 -1.17845,1.16984 -0.69109,1.16509 -0.24394,4.25878 0.67042,5.79777 1.16365,1.95858 2.74519,2.46568 4.85246,2.46568 0.8108,0 1.90754,0.0198 1.90754,0.10591 0,0.20818 -4.35417,0.20644 -5.52859,-0.015 z" id="path3222" sodipodi:nodetypes="cccccccccccscccscccccccssccsccsscc"/></svg>
