<svg viewBox="0 0 560 1000"><g data-transform="boob" id="g5588" transform="matrix(1.1247504,0,0,1.1247504,-26.347241,-34.609528)"><path style="fill-opacity:1;fill:#010101" id="path5580" d="m 271.51118,261.14089 c 0.0661,-0.75567 -15.55212,-23.85233 -20.78384,-21.10049 -1.52959,0.80455 -3.42058,1.9614 -5.76856,3.60973 -9.78469,6.69753 -21.31453,10.82141 -26.74443,14.7899 -0.54445,0.39791 -0.66828,2.70307 -0.76291,3.35152 -0.65836,4.51134 -1.66809,9.99655 -0.19947,14.9545 0.5788,2.79959 1.92116,5.11459 3.04085,7.21138 2.65234,4.96693 6.04765,7.87695 10.86115,8.57219 21.5829,3.2487 35.13223,-12.1343 39.18878,-20.05393 1.83647,8.16488 6.94853,14.47073 13.3338,17.64542 10.04423,4.99389 23.27331,3.62273 32.00152,-1.35019 14.24159,-8.46859 19.00686,-29.49472 0.12112,-46.95807 -1.24033,-1.44425 -2.4413,-2.70187 -3.54079,-3.8753 -0.36194,-0.36533 -0.83711,-0.69814 -1.41789,-0.98568 -0.3692,-0.18279 -0.78107,-0.34728 -1.23367,-0.49021 -4.17723,-1.31914 -18.96078,7.30779 -27.63663,14.95545 -5.29365,4.66629 -9.38919,8.82318 -10.45903,9.72378 z" sodipodi:nodetypes="cscsscsccscccsssc"/><path style="display:inline;fill-opacity:1;fill:#ff6db6;stroke-width:0.99731672" id="path4761-3-5" d="m 250.95621,240.11565 c -2.11394,1.57156 -4.28866,3.09127 -5.9323,4.24374 -5.84513,4.84375 -21.35794,11.02651 -25.83134,13.87003 -0.3957,0.25151 -0.72291,2.67424 -0.84991,3.0539 -0.70813,5.10266 -0.92231,9.50523 -0.30603,13.20388 1.01422,6.08705 3.33652,10.40452 6.45073,13.21684 2.49201,2.2505 5.54448,3.6161 8.79697,4.06242 10.50457,1.50378 19.88453,-2.42065 27.32023,-8.43634 4.20888,-3.41325 7.18867,-6.97923 9.9324,-10.95405 0.1273,0.41617 1.87281,5.61004 5.47452,10.2422 2.12477,2.73263 5.10064,4.98974 8.21809,6.71054 0.11312,0.0435 0.22611,0.0865 0.33898,0.1291 34.62009,13.04172 57.59846,-22.37642 31.10747,-47.22653 -1.21987,-1.38251 -4.20919,-5.29413 -4.35792,-5.62607 -0.53461,-2.09452 -6.03317,-6.25212 -11.35895,-8.26799 -3.18366,-0.74222 -6.81526,-0.99903 -10.33132,-1.35015 -5.35715,-0.53502 -10.68496,-0.85113 -15.63053,0.008 -0.22135,-0.36754 -16.16244,6.97412 -22.99996,13.09227 -0.0125,0.0112 -0.0412,0.0186 -0.0412,0.0287 z" sodipodi:nodetypes="ccscsscccscscccscssc"/><path id="path4763-4-4" class="shadow" d="m 279.80047,256.57476 c 0.91041,-1.67164 1.52784,-5.35307 1.97209,-7.83673 0.0849,-0.47459 0.1617,2.37506 -0.39129,4.18635 2.81732,-4.02446 6.03036,-8.32727 8.59629,-11.93286 0.12454,-0.19897 -0.26579,1.44379 6.3e-4,1.22599 -3.5335,4.76062 -7.44619,10.14679 -10.17811,14.35726 z" sodipodi:nodetypes="csccccc"/><path d="m 277.71207,269.05753 c -0.18844,2.26466 0.53888,3.65839 1.00561,6.03155 -0.75132,-1.79894 -1.47954,-4.19481 -1.00561,-6.03155 z" class="shadow" id="path4765-7-5" sodipodi:nodetypes="ccc"/><path sodipodi:nodetypes="ccccsc" id="path4019-8-8-9" d="m 279.22202,225.28524 c 2.20885,4.05254 4.74659,8.50866 6.65909,12.09417 2.63544,-0.14061 6.0753,-0.11586 6.70486,-6.425 -0.90697,-1.70461 -1.89611,-3.44795 -2.91871,-5.17806 -1.63201,-0.10982 -2.93364,-0.30195 -3.90891,-0.35297 -2.91038,-0.15229 -3.55762,0.011 -6.53633,-0.13814 z" style="display:inline;fill-opacity:1;fill:#ffffff;stroke-dasharray:none;stroke-linecap:butt;stroke-linejoin:miter;stroke-miterlimit:4;stroke-opacity:1;stroke-width:0;stroke:#000000"/><path sodipodi:nodetypes="ccccc" id="path4019-8-9-5-8" d="m 270.88591,226.58654 c 3.16991,5.15956 6.74074,11.00783 9.16045,15.54642 2.83152,-2.68749 10.53893,-8.05287 9.57909,-10.01297 -1.16398,-2.17933 -2.53212,-4.55488 -3.85816,-6.74756 -3.00008,-0.24697 -10.03766,-1.41266 -14.88138,1.21411 z" style="display:inline;fill-opacity:1;fill:#1e7bb6;stroke-dasharray:none;stroke-linecap:butt;stroke-linejoin:miter;stroke-miterlimit:4;stroke-opacity:1;stroke-width:0;stroke:#000000"/><path sodipodi:nodetypes="csccscc" id="path4019-6-6-7" d="m 289.71783,225.67925 c -2.35578,2.97019 -4.92428,6.23481 -7.29791,9.28047 -0.32281,0.41419 -4.61572,23.91561 -8.56949,45.45132 0.65709,1.10136 3.29954,5.51852 7.98909,7.2099 3.77012,-21.02884 8.29439,-46.7668 8.78897,-47.41389 3.44806,-4.51133 6.77507,-8.93888 9.75867,-12.94133 -5.51982,-1.74426 -6.62064,-1.38511 -10.66933,-1.58647 z" style="display:inline;fill-opacity:1;fill:#ffffff;stroke-dasharray:none;stroke-linecap:butt;stroke-linejoin:miter;stroke-miterlimit:4;stroke-opacity:1;stroke-width:0;stroke:#000000"/><path sodipodi:nodetypes="csccscc" id="path4019-81-4-4" d="m 293.80115,225.78181 c -2.90433,3.70173 -6.21674,7.97566 -9.09151,11.76225 -0.36381,0.47919 -4.71312,24.82403 -8.59298,46.20045 1.95292,2.34385 6.43397,6.11901 12.002,6.78213 3.30655,-20.30282 7.17294,-44.38179 7.56867,-44.91472 3.67316,-4.94672 7.47544,-10.1993 10.95699,-15.05834 -6.54478,-4.26394 -9.22964,-4.66806 -12.84317,-4.77177 z" style="display:inline;fill-opacity:1;fill:#1e7bb6;stroke-dasharray:none;stroke-linecap:butt;stroke-linejoin:miter;stroke-miterlimit:4;stroke-opacity:1;stroke-width:0;stroke:#000000"/><path style="display:inline;fill-opacity:1;fill:#000000;stroke-dasharray:none;stroke-linecap:butt;stroke-linejoin:miter;stroke-miterlimit:4;stroke-opacity:1;stroke-width:0;stroke:#83afc8" d="m 304.76688,254.96728 c -1.27,0.8876 -15.96843,-7.42822 -21.13387,-7.38582 -4.85132,0.0361 -7.32552,-0.47975 -12.41404,-0.48824 -5.23111,0.99475 -20.31141,9.02207 -22.47161,7.58739 -1.46738,-1.68823 1.1361,-26.13878 2.93277,-26.30286 1.72791,-1.69885 20.15529,6.33412 21.53903,6.22631 5.8545,-2.25415 6.98348,-0.5954 10.57899,0.22883 1.215,0.18875 23.25839,-6.84024 25.33699,-4.95575 0,0 2.03144,19.21347 -4.36826,25.09046 z" id="path1674-1-9-3" sodipodi:nodetypes="cccccccccc"/><path style="display:inline;fill-opacity:1;fill:#000000;stroke-dasharray:none;stroke-linecap:butt;stroke-linejoin:miter;stroke-miterlimit:4;stroke-opacity:1;stroke-width:0;stroke:#83afc8" d="m 263.8209,345.50169 c -1.10042,-0.13104 -11.82628,-2.82121 -12.03566,-2.9321 -0.60709,-1.01079 15.26981,-107.78955 27.18279,-107.64627 10.15414,-0.27735 9.84542,103.02369 10.73831,106.28837 -1.49122,0.85403 -10.15662,3.42527 -11.4468,3.72229 -0.60531,-1.40394 -0.082,-105.68773 0.42474,-107.71909 -8.34392,29.03677 -12.81085,66.14767 -14.86338,108.2868 z" id="path1686-2-1-7-1-7" sodipodi:nodetypes="ccccccc"/><path id="path5584" class="shadow" d="m 272.19169,258.88792 c 0.80943,-1.48623 1.35838,-4.75934 1.75336,-6.96753 0.0755,-0.42195 0.14376,2.11164 -0.34789,3.72203 2.50484,-3.57809 5.36151,-7.40366 7.64284,-10.60934 0.11073,-0.1769 -0.23631,1.28365 5.6e-4,1.09001 -3.14159,4.2326 -6.6203,9.02137 -9.04922,12.76484 z" sodipodi:nodetypes="csccccc"/><path id="path5759-3-0" d="m 289.14956,341.21169 c -1.36674,0.85403 -9.08662,2.99045 -10.2691,3.28745 -0.5261,-1.33134 0.80715,-96.91872 0.16535,-106.79844 -0.0351,-0.5386 -0.0759,-2.47781 -0.13701,-2.55746 9.01442,-0.0896 9.42241,102.80377 10.24076,106.06845 z" style="display:inline;fill-opacity:1;fill:#ff6db6;stroke-dasharray:none;stroke-linecap:butt;stroke-linejoin:miter;stroke-miterlimit:4;stroke-opacity:1;stroke-width:0;stroke:#83afc8"/><path id="path1686-2-1-74-9" d="m 278.0869,237.66431 c -13.45652,45.85483 -11.4271,68.85895 -14.88125,107.18513 -1.00854,-0.13104 -10.42862,-2.65211 -10.62053,-2.763 3.33337,-35.58432 15.56255,-107.05601 25.67634,-107.05542 -0.0783,0.31435 -0.0979,2.37199 -0.17456,2.63329 z" style="display:inline;fill-opacity:1;fill:#3e89b8;stroke-dasharray:none;stroke-linecap:butt;stroke-linejoin:miter;stroke-miterlimit:4;stroke-opacity:1;stroke-width:0;stroke:#83afc8"/><path id="path5755-6-4" d="m 271.592,246.68496 c -5.11737,0.90155 -19.85409,8.38447 -21.96727,7.0843 -1.43551,-1.52989 1.01223,-23.61891 2.76981,-23.76755 1.69029,-1.53964 19.80045,5.46265 21.15403,5.36499 2.04923,0.16817 0.47248,2.49912 1.89209,2.67387 -1.84604,0.0138 -1.34402,8.64834 -3.84866,8.64439 z" style="display:inline;fill-opacity:1;fill:#ff6db6;stroke-dasharray:none;stroke-linecap:butt;stroke-linejoin:miter;stroke-miterlimit:4;stroke-opacity:1;stroke-width:0;stroke:#83afc8"/><path id="path1682-7-2-5" d="m 283.89737,235.57384 c 1.18861,0.17113 22.74779,-5.90747 24.78109,-4.19965 0,0 1.97019,17.15537 -4.29022,22.48138 v -8e-5 c -1.24236,0.80436 -15.59929,-6.76653 -20.65234,-6.72814 -2.35787,0.014 -2.30039,-8.39795 -4.08033,-8.6239 1.66679,-0.0597 2.06555,-2.78702 4.2418,-2.92961 z" style="display:inline;fill-opacity:1;fill:#3e89b8;stroke-dasharray:none;stroke-linecap:butt;stroke-linejoin:miter;stroke-miterlimit:4;stroke-opacity:1;stroke-width:0;stroke:#83afc8"/><path style="display:inline;fill-opacity:1;fill:#000000;stroke-dasharray:none;stroke-linecap:butt;stroke-linejoin:miter;stroke-miterlimit:4;stroke-opacity:1;stroke-width:0;stroke:#83afc8" d="m 283.55413,247.46969 c -5.19243,1.30448 -7.83807,1.44335 -12.87682,-0.47241 -0.71214,-4.57465 -0.15167,-9.2351 2.07466,-12.08519 4.65531,0.38471 6.6459,0.50635 10.9734,0.2212 2.95876,1.99545 0.74127,9.1755 -0.17131,12.3364 z" id="path1684-01-4-8" sodipodi:nodetypes="cccccc"/><path style="display:inline;fill-opacity:1;fill:#ff6db6;stroke-dasharray:none;stroke-linecap:butt;stroke-linejoin:miter;stroke-miterlimit:4;stroke-opacity:1;stroke-width:0;stroke:#83afc8" d="m 282.73173,247.2193 c -4.53048,1.10721 -6.90842,1.49392 -10.98894,-0.45242 -0.60773,-4.38079 -0.1293,-8.84367 1.77053,-11.57303 5.82676,-2.01788 6.56288,-0.66234 9.36451,0.212 2.52495,1.9109 0.6326,8.78664 -0.1462,11.81361 z" id="path1686-2-7-3" sodipodi:nodetypes="cccccc"/><path d="m 270.33492,269.98618 c -0.16754,2.01348 0.47911,3.25262 0.89408,5.36257 -0.66799,-1.59942 -1.31544,-3.72955 -0.89408,-5.36257 z" class="shadow" id="path5586" sodipodi:nodetypes="ccc"/></g></svg>
