<svg viewBox="0 0 560 1000"><path d="m 310.07728,121.93067 c -2.34062,-0.81869 -3.95967,-1.04693 -6.47367,-0.91262 -5.49897,0.29379 -8.41111,0.50725 -9.4054,0.68942 -1.16863,-0.14201 -2.90307,1.57734 -3.11519,1.21395 0.2259,-1.14253 0.33475,-1.72067 0.96505,-2.94008 0.0383,0.12179 0.0713,0.62924 0.18807,0.56432 0.12267,-0.0682 0.18093,-0.93167 0.64685,-1.72807 0.17072,0.20443 0.1414,0.86607 0.24147,0.78006 0.10278,-0.0883 0.0993,-0.87512 0.82055,-1.78988 0.15251,0.66077 -0.1696,1.57832 -0.003,1.30878 0.54928,-0.89587 0.68454,-1.22002 1.54272,-1.55598 0.74554,-0.52605 7.46206,-0.8122 10.68247,-0.089 0.768,0.17247 1.89904,0.40564 2.51344,0.51816 1.26363,0.23144 2.83286,0.73738 2.9205,0.9416 0.0322,0.0747 5.25036,3.29938 7.03531,7.24614 -0.49283,0.18774 -7.68912,-3.94233 -8.55952,-4.24676 z m -38.83404,-3.05319 c 0.93232,0.11388 1.5093,0.49409 1.78817,0.68907 0.41141,0.28766 0.11507,-0.38264 0.11288,-0.78491 0.32751,-0.13826 0.92797,0.89484 1.21478,1.37054 0.21453,0.3558 0.0157,-1.28397 0.22486,-0.875 0.19435,0.37995 0.55858,1.65232 0.73062,2.03444 0.1587,0.35252 -0.0271,-0.85594 0.15952,-0.57529 0.92128,1.3855 0.71568,3.22152 0.79786,3.50296 -0.13777,0.23686 -0.98361,-1.20402 -2.72096,-0.98573 -2.54577,0.30089 -5.42281,0.61757 -7.71494,2.00157 -0.27089,0.22541 -0.61654,0.40983 -0.76811,0.40983 -0.23547,0 -0.23119,-0.0716 0.0294,-0.49238 0.3451,-0.55712 0.28605,-0.58512 -0.55531,-0.26328 -5.23285,1.26962 -5.08353,3.8939 -4.73965,-0.72129 3.59257,-2.92649 6.84977,-4.59498 11.44088,-5.31053 z" id="path7289" sodipodi:nodetypes="cscccscsccccccccccscsssccccscccc" class="eyebrow_hair"/></svg>
