<svg viewBox="0 0 560 1000"><path d="m 225.9,413.1 c 0,0 -10.3,43.4 -10.6,67.8 -0.5,43.2 14.3,129.1 30.4,183.7 7.5,61.7 6.2,123.3 8.8,185.4 l 11.5,-0.3 c 2.2,-51.3 34,-103.9 16.3,-161.5 2.3,-46.1 10,-72.4 5,-160.3 -5.4,94.3 16.6,109.2 26.4,153.6 -15.6,58 5.7,110.8 6.5,168.9 h 16.3 c 0.2,-58.5 15.6,-94.6 7.7,-168.9 12.4,-64.5 12.4,-139.3 11.6,-205.6 -0.3,-26 -5.4,-64.7 -5.4,-64.7 l -124.5,1.9" id="path3430" style="fill:#ffffff"/><path sodipodi:nodetypes="cccccccc" id="path3434" d="m 226.3,412.5 c 27.9,-30 93.7,-36.4 123.8,-1.4 18.2,21.2 25.4,60.2 7,78.9 -8.2,8.3 -22.1,13.3 -35,11 -24.2,-4.4 -25.9,-31.9 -47.3,-34.5 C 256.7,464.3 248.5,483 231,478 220.9,475.1 221.28701,468.07973 218.48701,460.07973 216.5943,437.63189 223.7,415.2 226.3,412.5 Z" style="fill:#ffffff"/><path id="path3436" d="m 226.3,412.5 c 20,-34.8 104.4,-37.1 124,-1.5 11.9,21.7 1.4,60.5 -22.3,72 -0.8,0.4 -20.2,9.5 -34,1 -9.5,-5.8 -10.3,-16.2 -19.3,-17.5 -6.4,-1 -8.4,3.9 -17.8,5.5 -9.2,1.5 -18.7,-1.3 -24,-5 -14.1,-9.8 -16,-38.2 -6.6,-54.5 z" style="fill:#ffffff"/><path d="m 319.16456,830.57146 c 0.72948,5.19982 1.06076,15.21579 0.9298,19.91861 8.3721,0.43817 15.89065,0.0791 15.89065,0.0791 l 1.21823,-20.49225 c -5.90239,-0.0349 -12.15813,-0.33944 -18.03868,0.49456 z" id="path3438" sodipodi:nodetypes="cccccc" style="display:inline;fill-opacity:1;fill:#333333;stroke-width:0.93248802"/><path d="m 267.96084,830.99933 c -0.67798,4.75788 -1.99643,15.05954 -1.90644,19.76236 -5.75231,0.43817 -11.15441,-0.0977 -11.15441,-0.0977 -0.38064,-6.40787 1.03708,-11.53343 -1.07436,-18.97978 -0.11993,-0.42294 0.0131,-0.89742 -0.13241,-1.33569 4.05542,-0.0349 10.2272,-0.18319 14.26762,0.65081 z" id="path3438-5" sodipodi:nodetypes="cccscc" style="display:inline;fill-opacity:1;fill:#333333;stroke-width:0.77294189"/><path d="m 313.46296,681.23284 c -0.48741,2.72494 -2.95923,9.40268 -3.09388,14.1055 2.39489,4.8169 9.43252,14.84328 17.25743,14.93015 13.37135,0.14845 18.17255,-14.32072 18.17255,-14.32072 l -1.24265,-13.94985 c -8.67019,-20.25463 -21.49635,-23.10651 -31.09345,-0.76508 z" id="path3438-7" sodipodi:nodetypes="ccsccc" style="display:inline;fill-opacity:1;fill:#333333;stroke-width:0.94552505"/><path d="m 283.09362,687.65119 c 0.24266,2.84162 1.88638,7.9711 1.94488,10.61042 -25.41281,-0.81189 -27.3657,11.9757 -35.07816,14.0791 l -4.32801,-44.56852 c 15.6318,-0.85204 20.03957,18.93273 37.46129,19.879 z" id="path3438-5-0" sodipodi:nodetypes="ccccc" style="display:inline;fill-opacity:1;fill:#333333;stroke-width:0.83188182"/><path d="m 283.27739,688.50442 c 0.20505,2.47055 1.78847,6.94922 1.81099,9.24127 -25.56164,-1.10526 -28.81705,13.16056 -35.61761,12.29383 l -3.61648,-40.63193 c 13.53297,-1.23681 21.15568,18.95584 37.4231,19.09683 z" id="path3438-5-0-6" sodipodi:nodetypes="ccccc" style="display:inline;fill-opacity:1;fill:#ffffff;stroke-width:0.77759731"/><path d="m 314.19053,681.59053 c -0.46066,2.56314 -2.79682,8.84436 -2.92408,13.26793 2.26345,4.53088 8.91483,13.96191 16.31027,14.04362 12.63748,0.13963 17.17517,-13.47038 17.17517,-13.47038 l -1.17445,-13.12152 c -8.19433,-19.05193 -20.31654,-21.73447 -29.38691,-0.71965 z" id="path3438-7-3" sodipodi:nodetypes="ccsccc" style="display:inline;fill-opacity:1;fill:#ffffff;stroke-width:0.89150327"/><path d="m 319.14293,831.58226 c 0.74488,5.19982 0.93088,15.12204 0.79714,19.82486 8.54891,0.43817 16.47624,0.0479 16.47624,0.0479 l 0.7653,-20.49225 c -6.02704,-0.0349 -12.03394,-0.21444 -18.03868,0.61956 z" id="path3438-6" sodipodi:nodetypes="cccccc" style="display:inline;fill-opacity:1;fill:#ffffff;stroke-width:0.94228274"/><path d="m 267.76779,832.12203 c -0.526,4.82152 -1.79504,14.05231 -1.7006,18.41299 -6.03691,0.4063 -11.7063,-0.0906 -11.7063,-0.0906 l -0.51344,-18.79328 c 4.25606,-0.0324 9.68002,-0.30245 13.92034,0.47088 z" id="path3438-5-6" sodipodi:nodetypes="cccccc" style="display:inline;fill-opacity:1;fill:#ffffff;stroke-width:0.76248449"/><path d="m 274.63512,698.37432 c 0.0733,0.33846 10.35369,11.15903 -9.88564,132.3135 -0.42691,0.0404 -2.42651,-0.14883 -2.42651,-0.14883 19.27515,-100.19136 10.9562,-125.85579 10.59003,-131.86661 0.91767,-0.036 1.4532,-0.34872 1.72212,-0.29806 z" id="path3438-5-1" sodipodi:nodetypes="ccccc" style="display:inline;fill-opacity:1;fill:#333333;stroke-width:0.77294189"/><path d="m 312.14065,696.9107 c -0.0586,0.34299 -8.28119,11.30811 7.90683,134.08112 0.34146,0.0409 1.9408,-0.15082 1.9408,-0.15082 -15.41685,-101.52984 -9.0131,-125.72463 -8.72023,-131.81575 -0.73398,-0.0365 -0.91231,-2.16588 -1.1274,-2.11455 z" id="path3438-5-1-0" sodipodi:nodetypes="ccccc" style="display:inline;fill-opacity:1;fill:#333333;stroke-width:0.69586897"/><path d="m 314.0521,680.66417 c -0.44152,-10.48322 -0.58866,-7.57683 -16.93406,-49.56248 -0.49623,-1.83935 -1.31789,-4.32704 -1.31789,-4.32704 16.83284,39.37868 18.53156,44.24293 19.58438,51.50769 0.0217,0.1495 -1.34577,2.25779 -1.33243,2.38183 z" id="path3438-5-1-0-1" sodipodi:nodetypes="cccsc" style="display:inline;fill-opacity:1;fill:#333333;stroke-width:0.48342791"/><path d="m 218.38174,445.92146 c 30.28716,6.85903 26.76686,40.04892 56.84727,39.14569 2.7347,-8.24473 62.29092,-46.59315 88.97177,-48.47786 -2.40469,-10.95538 -5.05159,-12.88585 -5.05159,-12.88585 -32.90472,6.43679 -80.77411,47.80575 -83.5578,55.43854 -26.35917,-2.22109 -39.70643,-52.24847 -55.31201,-47.51639 -0.72964,1.58795 -2.24234,11.64147 -1.89764,14.29587 z" id="path3438-5-1-0-1-6" sodipodi:nodetypes="ccccccc" style="display:inline;fill-opacity:1;fill:#333333;stroke-width:0.48342791"/><path d="m 288,588.6 c -9.8,-40.3 -16.6,-61.7 -12.6,-107.8 -0.7,44.5 3.5,67.1 12.6,107.8 z" class="shadow" id="path3432"/><path d="m 280.37412,554.79472 c -0.0733,0.33846 -26.40378,27.72686 -7.93222,130.143 0.42691,0.0404 2.33812,0.64667 2.33812,0.64667 -19.27515,-100.19136 5.63755,-122.51204 6.00372,-128.52286 -0.19892,-0.56725 -0.1407,-2.31747 -0.40962,-2.26681 z" id="path3438-5-1-1" sodipodi:nodetypes="ccccc" style="display:inline;fill-opacity:1;fill:#333333;stroke-width:0.77294189"/><path d="m 267.71846,596.97632 c -0.20912,-0.27604 -26.01847,-31.15766 -35.46973,-147.01904 0.37009,-0.21659 2.52829,2.29408 2.52829,2.29408 10.61316,109.94003 30.19339,136.77419 33.05921,142.07052 0.0587,0.59823 0.14744,2.58703 -0.11777,2.65444 z" id="path3438-5-1-1-5" sodipodi:nodetypes="ccccc" style="display:inline;fill-opacity:1;fill:#333333;stroke-width:0.77294189"/><path d="m 354.13994,597.29627 c -2.90173,40.73194 -7.74816,48.73923 -11.22311,81.52534 0.78046,1.27784 0.9239,1.9946 0.9239,1.9946 2.40748,-33.39326 8.6374,-42.76901 10.06423,-79.71576 -0.19892,-0.56725 0.5039,-3.85484 0.23498,-3.80418 z" id="path3438-5-1-1-9" sodipodi:nodetypes="ccccc" style="display:inline;fill-opacity:1;fill:#333333;stroke-width:0.77294189"/><path d="m 355.76891,553.85987 c -0.10136,-0.2047 -15.04545,-23.04257 -19.62531,-108.95996 0.17934,-0.16061 2.48771,-1.37296 2.48771,-1.37296 5.1429,81.5264 15.89972,102.59325 17.28843,106.52076 0.0284,0.44362 -0.0222,3.76217 -0.15085,3.81216 z" id="path3438-5-1-1-5-3" sodipodi:nodetypes="cccccc" style="display:inline;fill-opacity:1;fill:#333333;stroke-width:0.4633396"/><path d="m 280.52575,558.1569 c 0.0507,-0.1762 3.78866,-9.58564 -0.0456,-79.82365 -0.13157,-0.11279 -1.80667,1.69063 -1.80667,1.69063 3.11057,66.72646 1.69972,69.07321 1.09419,72.39961 0.0167,0.36313 0.66894,5.70541 0.75809,5.73341 z" id="path3438-5-1-1-5-3-3" sodipodi:nodetypes="cccccc" style="display:inline;fill-opacity:1;fill:#333333;stroke-width:0.3422533"/></svg>
