<svg viewBox="0 0 560 1000"><path sodipodi:nodetypes="cscccscsccccccccccscsssccccscccc" id="path7174" d="m 310.32728,122.92992 c -2.34062,-0.73491 -3.95967,-0.9398 -6.47367,-0.81923 -5.49897,0.26372 -8.41111,0.45534 -9.4054,0.61887 -1.16863,-0.12748 -2.90307,1.41592 -3.11519,1.08972 0.2259,-1.02561 0.33475,-1.54459 0.96505,-2.63921 0.0383,0.10933 0.0713,0.56485 0.18807,0.50657 0.12267,-0.0612 0.18093,-0.83633 0.64685,-1.55123 0.17072,0.18351 0.1414,0.77744 0.24147,0.70023 0.10278,-0.0793 0.0993,-0.78556 0.82055,-1.60671 0.15251,0.59315 -0.1696,1.4168 -0.003,1.17485 0.54928,-0.8042 0.68454,-1.09517 1.54272,-1.39675 0.74554,-0.47222 7.46206,-0.72909 10.68247,-0.0799 0.768,0.15482 1.89904,0.36413 2.51344,0.46514 1.26363,0.20775 2.83286,0.66192 2.9205,0.84524 0.0322,0.0671 5.25036,2.96174 7.03531,6.50461 -0.49283,0.16853 -7.68912,-3.53889 -8.55952,-3.81217 z m -39.08404,-4.24075 c 0.93232,0.10223 1.5093,0.44353 1.78817,0.61856 0.41141,0.25822 0.11507,-0.34349 0.11288,-0.70459 0.32751,-0.12411 0.92797,0.80327 1.21478,1.23029 0.21453,0.31939 0.0157,-1.15258 0.22486,-0.78546 0.19435,0.34107 0.55858,1.48323 0.73062,1.82625 0.1587,0.31644 -0.0271,-0.76835 0.15952,-0.51642 0.92128,1.24371 0.71568,2.89185 0.79786,3.14449 -0.13777,0.21262 -0.98361,-1.08081 -2.72096,-0.88486 -2.54577,0.2701 -5.42281,0.55437 -7.71494,1.79674 -0.27089,0.20234 -0.61654,0.36789 -0.76811,0.36789 -0.23547,0 -0.23119,-0.0643 0.0294,-0.44199 0.3451,-0.50011 0.28605,-0.52524 -0.55531,-0.23634 -5.23285,1.1397 -5.08353,3.49542 -4.73965,-0.64748 3.59257,-2.62701 6.84977,-4.12475 11.44088,-4.76708 z" class="eyebrow_hair"/></svg>
