<svg viewBox="0 0 560 1000"><g data-transform="boob" transform="matrix(1.1247504,0,0,1.1247504,-26.347241,-34.609528)" id="g4957" class="scaler_"><path sodipodi:nodetypes="csscsccscscc" d="m 226.54656,253.75066 c -3.36507,1.67191 -6.28302,3.1917 -8.33221,4.68937 -0.54445,0.39791 -0.66828,2.70307 -0.76291,3.35152 -0.65836,4.51134 -1.66809,9.99655 -0.19947,14.9545 0.5788,2.79959 1.92116,5.11459 3.04085,7.21138 2.65234,4.96693 6.04765,7.87695 10.86115,8.57219 21.5829,3.2487 35.13223,-12.1343 39.18878,-20.05393 1.83647,8.16488 6.94853,14.47073 13.3338,17.64542 10.04423,4.99389 23.27331,3.62273 32.00152,-1.35019 10.55597,-6.27698 15.90576,-19.45293 10.27729,-32.96347 -0.10014,-0.24038 -1.10748,-2.3276 -1.21461,-2.56815 -44.60848,9.13357 -64.17272,11.64213 -98.19419,0.51136 z" id="path4931" style="fill-opacity:1;fill:#010101"/><path sodipodi:nodetypes="cscsscccscsscc" d="m 226.61703,254.26275 c -3.24805,1.56057 -6.03443,2.9182 -7.55098,3.88901 -0.39536,0.25309 -0.72231,2.6909 -0.84921,3.07294 -0.70752,5.13443 -0.92153,9.56442 -0.30576,13.2861 1.01337,6.12496 3.33372,10.46932 6.44535,13.29915 2.48992,2.26451 5.53985,3.63861 8.78962,4.08772 10.49581,1.51314 19.86794,-2.43574 27.29744,-8.48888 4.20537,-3.4345 7.18267,-7.02269 9.92412,-11.02226 0.12718,0.41876 1.87124,5.64497 5.46994,10.30596 2.123,2.74967 5.09638,5.02083 8.21123,6.75234 0.11303,0.0438 0.22591,0.0871 0.33871,0.12991 28.39866,10.77366 48.95726,-11.31838 40.76152,-33.40986 -0.046,-0.12396 -0.89862,-2.10945 -0.94642,-2.23341 -38.7538,7.91357 -61.21049,12.91457 -97.58556,0.33128 z" id="path4943" style="fill-opacity:1;fill:#ffffff"/><path sodipodi:nodetypes="ccc" id="path4955" class="shadow" d="m 270.33492,269.98618 c -0.16754,2.01348 0.47911,3.25262 0.89408,5.36257 -0.66799,-1.59942 -1.31544,-3.72955 -0.89408,-5.36257 z"/><path sodipodi:nodetypes="csccscc" id="path4602-5" d="m 269.88606,273.28608 c -1.01314,-1.90025 -1.53853,-6.33735 -0.79385,-12.06375 l 0.0101,-0.0778 c 0.0374,-0.002 0.39657,-0.0248 1.46611,-0.0278 -0.002,0.0187 -0.006,0.048 -0.008,0.0665 -0.74953,5.50029 -0.48314,9.72594 -0.0498,11.52626 z" style="display:inline;fill-opacity:1;fill:#800000;opacity:1;stroke-dasharray:none;stroke-linecap:butt;stroke-linejoin:miter;stroke-miterlimit:4;stroke-opacity:1;stroke-width:0;stroke:#000000"/><path sodipodi:nodetypes="csccscc" id="path4602" d="m 270.27031,272.80358 c -0.57306,-2.00523 -0.87678,-6.21835 -0.16211,-11.6265 0.003,-0.0264 0.007,-0.0317 0.0101,-0.0582 0.033,0.006 1.01226,-0.007 1.06883,-0.0121 -0.003,0.0239 -0.007,0.0477 -0.0112,0.0715 -0.95066,6.32286 -0.66219,11.22903 -0.19177,13.14935 z" style="display:inline;fill-opacity:1;fill:#000000;opacity:1;stroke-dasharray:none;stroke-linecap:butt;stroke-linejoin:miter;stroke-miterlimit:4;stroke-opacity:1;stroke-width:0;stroke:#000000"/><path style="display:inline;fill-opacity:1;fill:#800000;opacity:1;stroke-dasharray:none;stroke-linecap:butt;stroke-linejoin:miter;stroke-miterlimit:4;stroke-opacity:1;stroke-width:0;stroke:#000000" d="m 219.01948,258.62763 c 3.04345,-1.93631 8.24319,-4.493 8.79918,-4.52274 4.92196,4.22613 2.96718,18.44314 -10.58432,18.92597 -0.14602,-2.41862 0.86484,-12.24403 1.78514,-14.40323 z" id="path4602-5-8" sodipodi:nodetypes="cccc"/><path style="display:inline;fill-opacity:1;fill:#ffffff;opacity:1;stroke-dasharray:none;stroke-linecap:butt;stroke-linejoin:miter;stroke-miterlimit:4;stroke-opacity:1;stroke-width:0;stroke:#000000" d="m 226.57686,254.4835 c -1.03184,1.46799 -3.0563,4.95374 -3.41863,5.55115 0.26886,0.25103 4.6302,3.94802 5.56369,4.70236 -0.45409,0.75494 -1.5065,2.44205 -1.94805,3.09794 -0.44242,-0.31138 -5.58713,-3.31264 -5.80766,-3.56269 -0.36485,0.24396 -3.2493,5.21579 -3.80884,5.71846 0.28145,-5.03107 1.02199,-8.93742 1.74954,-11.33595 2.41653,-1.52618 4.6189,-2.60335 7.66995,-4.17127 z" id="path4602-5-8-8-1-8" sodipodi:nodetypes="cccccccc"/><path style="display:inline;fill-opacity:1;fill:#800000;opacity:1;stroke-dasharray:none;stroke-linecap:butt;stroke-linejoin:miter;stroke-miterlimit:4;stroke-opacity:1;stroke-width:0;stroke:#000000" d="m 292.09566,267.91426 c -1.95655,-11.43631 18.05569,-14.0555 21.04918,-2.58524 2.93064,13.24459 -18.23761,17.25744 -21.04918,2.58524 z" id="path4602-5-8-8" sodipodi:nodetypes="ccc"/><path style="display:inline;fill-opacity:1;fill:#ffffff;opacity:1;stroke-dasharray:none;stroke-linecap:butt;stroke-linejoin:miter;stroke-miterlimit:4;stroke-opacity:1;stroke-width:0;stroke:#000000" d="m 293.73124,269.77548 c -0.13571,-0.79323 -0.62977,-2.78148 -0.5671,-3.48811 1.62186,-0.17279 6.49227,-0.87921 6.79359,-1.0236 0.12164,-0.32258 -1.06457,-6.00629 -0.90824,-6.47213 0.81527,-0.15019 2.59735,-0.42216 3.50351,-0.58119 0.26213,1.7751 1.80115,5.73316 1.94959,6.41591 0.36782,-0.003 6.07625,-0.32378 7.27263,-0.41924 0.19033,0.86018 0.58838,2.80837 0.71962,3.58808 -0.53525,0.0787 -6.33295,1.44338 -6.66504,1.41383 -0.0967,0.42811 0.99032,5.76355 0.9305,6.51334 -0.73094,0.11548 -3.11097,0.67224 -3.85561,0.65064 -0.24852,-1.3261 -1.93195,-6.42164 -1.93288,-6.78197 -0.25386,-0.21791 -5.55783,0.27569 -7.24057,0.18443 z" id="path4602-5-8-8-1" sodipodi:nodetypes="cccccccccccccc"/></g></svg>
