<svg viewBox="0 0 560 1000"><path style="fill-opacity:1;fill-rule:nonzero;fill:#000000;stroke-dasharray:none;stroke-linecap:butt;stroke-linejoin:miter;stroke-miterlimit:4;stroke-opacity:1;stroke-width:0;stroke:#000000" d="m 347.13398,420.49104 c -32.75198,14.03698 -65.48424,24.91567 -80.17912,16.90739 -20.83059,4.09365 -35.66498,-10.43587 -40.76678,-24.36238 4.26478,15.21833 19.87989,29.19787 40.78057,26.02878 17.15312,7.09449 47.5212,-3.15592 80.16533,-18.57379 z" id="path6877" sodipodi:nodetypes="ccccc"/><path style="display:inline;fill-opacity:1;fill:#464646;opacity:1;stroke-width:0.65152484" d="m 321.23473,428.89204 c 20.7508,-10.16198 21.08221,-20.61217 22.39193,-24.773 4.48263,10.84586 -10.79294,21.1955 -23.21082,27.36712 0,0 -12.47977,5.11336 0.81893,-2.59412 z" id="path6881" sodipodi:nodetypes="ccccc"/><path style="display:inline;fill-opacity:1;fill:#464646;opacity:1;stroke-width:0.59345704" d="m 245.40006,322.33229 c 1.62661,-1.35128 9.19337,-4.86987 10.47268,-4.86987 1.2946,0 0.0945,0.9719 -3.02593,2.45008 -6.10527,2.99828 -11.4337,5.84964 -12.93927,10.25178 -0.26837,-2.64955 3.56432,-6.20315 5.49252,-7.83199 z" id="path6887" sodipodi:nodetypes="csccc"/><path style="display:inline;fill-opacity:1;fill:#464646;opacity:1;stroke-width:0.76388013" d="m 265.04571,314.61579 c 1.01515,-1.0408 6.08875,-2.46001 6.66873,-1.86538 0.29926,0.30697 -0.82203,0.99005 -2.49205,1.51795 -3.485,1.10165 -5.03832,1.23086 -4.17668,0.34743 z" id="path6889"/><path style="display:inline;fill-opacity:1;fill:#464646;opacity:1;stroke-width:0.82662278" d="m 298.312,315.51735 c -2.78124,-0.77691 -6.19455,-1.42386 -7.58513,-1.43764 -1.39061,-0.0133 -2.5284,-0.29869 -2.5284,-0.63313 0,-1.08519 4.50111,-0.6449 9.8973,0.96812 9.27204,2.77159 9.45064,3.68221 0.21632,1.10265 z" id="path6891"/><path style="display:inline;fill-opacity:1;fill:#464646;opacity:1;stroke-width:0.39908788" d="m 234.5004,425.35943 c -8.43217,-9.38315 -8.56683,-19.03243 -9.09904,-22.87437 -1.82154,10.01463 4.38575,19.57105 9.43179,25.26968 0,0 5.07121,4.72146 -0.33275,-2.39531 z" id="path6893" sodipodi:nodetypes="ccccc"/><path style="display:inline;fill-opacity:1;fill:#464646;opacity:1;stroke-width:0.49076402" d="m 331.43287,329.23944 c -1.59216,-1.74796 -3.38317,-2.61927 -7.19099,-4.65823 3.43696,0.186 5.9201,1.90349 8.48362,3.30859 l 1.40851,0.76087 c 3.10054,-0.82904 2.06237,-0.76327 5.24019,-1.09569 -2.31267,1.57261 -1.37991,0.66686 -4.59328,2.59051 -0.1909,0.96086 1.37064,4.96931 1.3923,6.98457 -1.1142,-2.59503 -3.93747,-6.21609 -4.74035,-7.89062 z" id="path4735-6-1-2-5-2-0" sodipodi:nodetypes="cccccccc"/><path style="display:inline;fill-opacity:1;fill:#464646;opacity:1;stroke-width:0.81192213" d="m 269.49058,416.30318 c -1.92938,-6.70782 -4.18105,-20.93947 -0.0755,-30.24396 0.67215,-3.2851 0.98601,-6.2628 1.10956,-9.09856 0.02,-0.45955 -0.60709,-4.40247 -2.77509,-5.33392 -3.36527,-1.44584 -8.82372,0.004 -8.82485,-0.68688 -10e-4,-0.68927 3.01306,-1.8802 6.24111,-1.85055 2.48086,0.0228 5.37749,1.30922 5.36209,0.78579 -0.24198,-8.22669 -0.91249,-16.45289 2.66023,-29.28723 0.78273,-1.72499 1.42313,-4.08041 1.42313,-5.23425 0,-2.92123 2.72097,-11.95425 3.75025,-12.45001 2.26402,-1.09046 2.37976,0.82982 0.32614,5.41078 -1.23107,2.74601 -2.19252,6.04644 -2.13658,7.33424 0.056,1.28783 -0.55016,4.92187 -1.34684,8.07562 -4.0017,8.36959 -3.2315,18.92014 -2.63088,27.74128 0.0239,0.35046 2.98675,-0.87364 6.55739,-0.80896 4.71864,0.0855 10.3667,1.43207 10.39438,1.87671 0.0306,0.49131 -6.49194,0.30718 -11.18481,0.46931 -3.69279,0.12758 -5.66347,0.39576 -5.47105,3.40933 0.24706,3.86933 0.0681,7.16182 -0.85957,9.42001 -1.70301,3.83176 -2.42897,19.51748 -1.12834,27.8926 0.69415,4.58799 -0.28869,6.41027 -1.39078,2.57865 z" id="path6718-9" sodipodi:nodetypes="ccssssscsccccssssscccc"/></svg>
