<svg viewBox="0 0 560 1000"><path sodipodi:nodetypes="cccssscccssssssscc" id="path4222-4-9-4" d="m 371.4398,269.10119 c 1.04204,28.37672 -1.27689,50.40296 -6.45283,78.97427 10.87643,27.51165 16.18085,51.60351 -2.76244,71.6205 0.0274,-0.17435 -55.46531,10.69439 -75.64526,31.63745 -4.92627,5.11256 -3.48792,15.45153 -7.05147,16.69466 -13.46483,4.69716 -17.71458,-10.66263 -17.71458,-10.66263 -6.67546,-8.9041 -31.36073,-34.80504 -36.73399,-40.49993 -20.70367,-38.04905 5.5199,-70.49896 8.69358,-98.43976 0.097,-1.63858 -3.07847,-34.73932 1.384,-56.57623 1.38842,-0.26397 35.87576,-53.44628 37.19954,-53.6976 0.43619,-0.0828 2.29334,-1.13032 2.09727,-0.7416 -8.60409,17.05816 -22.30692,32.21233 -19.43332,41.57578 9.06131,29.52566 73.18214,9.94301 83.49346,-0.7343 7.97901,-8.26222 5.26422,-38.80401 5.17425,-40.08452 -0.0373,-0.531 1.6167,-0.0606 1.98313,0.63498 2.85094,5.41151 2.23783,31.00527 2.67334,36.68802 0.33796,4.40971 11.73272,18.44474 16.36995,20.77514 z" style="display:inline;fill-opacity:1;fill-rule:evenodd;fill:#000000;opacity:1;stroke-dasharray:none;stroke-linecap:butt;stroke-linejoin:miter;stroke-miterlimit:4;stroke-opacity:1;stroke-width:0;stroke:#000000"/><path sodipodi:nodetypes="ccccccccsssssssscc" id="path4227-1-9-7" d="m 363.40417,347.38832 c 7.32296,18.65298 16.60868,48.64187 -1.04285,72.29057 -33.99594,14.37113 -60.4203,19.95465 -81.3911,47.85811 -0.34473,0.71459 -4.28479,1.02682 -6.08184,2.18944 -23.84099,-1.81947 -52.45475,-42.82376 -50.3467,-54.19558 -16.94947,-35.06921 8.7856,-82.81958 10.61968,-95.99206 -2.46174,-18.24119 -1.85975,-40.02937 0.50772,-56.13642 0.0289,-2.32531 6.35779,-9.93331 6.925,-11.58529 1.81284,-0.33627 28.24098,-43.48253 30.03897,-43.77186 0.48737,-0.0784 2.07359,-1.1817 1.85576,-0.74521 -7.13078,14.28883 -24.59128,34.30141 -20.83634,43.3808 7.01663,16.96613 34.78847,15.97052 56.71502,10.88855 14.98395,-3.47287 25.17342,-9.12406 28.70208,-12.61527 3.60557,-3.5673 4.75134,-27.83182 4.67248,-40.81869 -0.005,-0.83791 1.79918,0.014 2.03957,0.85633 2.28078,7.99162 0.28021,33.92371 1.55099,37.79164 3.89692,11.86122 22.27903,25.00032 24.19533,24.04218 -2.237,29.46701 -3.18389,51.53495 -8.12377,76.56276 z" style="display:inline;fill-opacity:1;fill-rule:evenodd;fill:#303648;opacity:1;stroke-dasharray:none;stroke-linecap:butt;stroke-linejoin:miter;stroke-miterlimit:4;stroke-opacity:1;stroke-width:0;stroke:#000000"/><path d="m 329.8875,425.70175 c -15.4791,1.19068 -42.03653,26.26041 -44.60913,30.99635 10.29989,-9.14088 29.75951,-26.28541 44.60913,-30.99635 z" class="shadow" id="path5772-6-0-1-9-6-3-0" sodipodi:nodetypes="ccc"/><path d="m 262.14541,457.55004 c -6.81704,-9.41592 -28.83006,-31.99347 -34.93819,-34.15183 5.05404,5.44075 26.5203,25.35081 34.93819,34.15183 z" class="shadow" id="path5774-7-9-5-8-5-5-8" sodipodi:nodetypes="ccc"/></svg>
