<svg viewBox="0 0 560 1000"><path d="m 283.66521,456.38067 c -1.54841,0.73859 -1.78928,15.78672 -9.24659,11.14886 -5.5459,3.1603 -10.12915,-4.94173 -10.42429,-8.4126 -0.25114,-2.95343 3.37748,-7.20053 3.87403,-6.51846 2.14579,-0.003 16.30971,2.85987 15.79685,3.7822 z" class="shadow" id="Body_Normal_Pussyshadow-4" sodipodi:nodetypes="ccscc" inkscape:label="#PussyshadowN"/><path d="m 274.36595,467.58332 c -3.81452,2.31718 -9.64064,-2.27902 -10.8644,-11.68664 5.95334,-21.67633 25.49385,-8.31185 20.23612,0.35499 -2.87984,4.74713 -3.52005,14.37508 -9.37172,11.33165 z" class="skin torso" id="Body_Normal_Pussy-88" sodipodi:nodetypes="ccsc" inkscape:label="#PussyN"/><path style="display:inline;fill-opacity:1;fill-rule:evenodd;fill:#000000;opacity:1;stroke-dasharray:none;stroke-linecap:butt;stroke-linejoin:miter;stroke-miterlimit:4;stroke-opacity:1;stroke-width:0;stroke:#000000" d="m 368.67614,407.53 c 0.8928,1.03783 -5.37284,9.27719 -5.37284,9.27719 -8.19048,4.90102 -49.96568,10.20435 -62.40067,20.70752 -4.31136,3.64157 -13.47661,8.29154 -16.37051,16.44054 -2.5916,7.29773 -3.32032,16.98798 -9.68774,14.34823 -0.12708,-0.0527 -0.25389,-0.22936 -0.38798,-0.17253 -3.64553,1.54503 -9.41962,-0.71855 -11.29492,-12.24341 -2.95293,-18.14755 -12.84146,-17.24873 -13.71165,-17.80621 -12.60056,-8.07247 -21.82641,-18.94187 -25.29113,-24.2509 -2.6282,-5.08184 -3.01938,-9.25626 -3.01938,-9.25626 30.95157,34.29024 124.21674,9.16181 147.53682,2.95583 z" id="path3581-6-4-0-7-4-3-0-2-6" sodipodi:nodetypes="ccsssssscsc"/><path style="display:inline;fill-opacity:1;fill-rule:evenodd;fill:#333333;opacity:1;stroke-dasharray:none;stroke-linecap:butt;stroke-linejoin:miter;stroke-miterlimit:4;stroke-opacity:1;stroke-width:0;stroke:#000000" d="m 367.93194,408.743 c 0.8928,1.03783 -4.0572,8.30164 -4.0572,8.30164 -26.45516,18.17615 -63.03106,39.13132 -79.66632,39.75358 -0.27428,0.37469 -0.68811,0.67278 -0.81935,1.10672 -3.57923,11.83428 -8.32513,9.8537 -8.89431,9.63462 -0.17013,-0.0655 -5.98956,2.88621 -10.50307,-7.67418 -0.19489,-0.456 -0.68412,-0.47689 -1.06552,-0.9139 -16.27203,-7.95813 -36.45881,-24.8256 -39.15367,-45.27808 0.0593,-0.70684 -3.12543,-9.00182 -3.12543,-9.00182 29.78951,36.10978 125.08979,11.0274 147.28487,4.07142 z" id="path3581-6-8-0-7-5-9-8-1" sodipodi:nodetypes="cccsssccsc"/><path sodipodi:nodetypes="ccc" id="path3401-2-3-9-5-4-2" class="shadow" d="m 329.90806,425.67038 c -15.4791,1.19068 -42.03653,26.26041 -44.60913,30.99635 10.29989,-9.14088 29.75951,-26.28541 44.60913,-30.99635 z"/><path sodipodi:nodetypes="ccc" id="path3406-2-8-5-8-6-3" class="shadow" d="m 262.16597,457.51867 c -6.81704,-9.41592 -28.83006,-31.99347 -34.93819,-34.15183 5.05404,5.44075 26.5203,25.35081 34.93819,34.15183 z"/><path sodipodi:nodetypes="ccccc" id="path3344-1-5-5-2-7-2-9" d="m 338.28443,433.89335 c 0.52476,-0.49047 0.98857,-0.70449 2.2213,-1.59153 -0.92815,-4.90225 -3.59867,-14.29854 -4.20699,-15.53477 -0.68659,0.039 -1.82436,0.50498 -1.82436,0.50498 2.5209,7.92543 2.7276,9.48522 3.81005,16.62132 z" style="display:inline;fill-opacity:1;fill-rule:evenodd;fill:#ffffff;opacity:1;stroke-dasharray:none;stroke-linecap:butt;stroke-linejoin:miter;stroke-miterlimit:4;stroke-opacity:1;stroke-width:0;stroke:#000000"/></svg>
