<svg viewBox="0 0 560 1000"><path sodipodi:nodetypes="cccccc" d="m 274.22874,163.7403 0.18459,0.0441 c 1.13336,-0.15224 4.12051,-4.54566 6.71792,-2.9431 1.78388,-1.79923 9.75547,2.22742 14.80161,2.90764 -1.02718,1.59873 -5.43201,6.65963 -13.0452,7.65887 -5.95821,-1.45687 -8.44457,-7.44345 -8.65892,-7.66755 z" id="path2558-9-2" class="areola"/><path sodipodi:nodetypes="cccscccsccccsscssssscscccccccscccccscscssccccscsc" id="path7182" d="m 280.95347,171.29059 c -0.58826,-0.18813 -1.31019,-0.3473 -1.60431,-0.35374 -0.51647,-0.0113 -0.74054,-0.27347 -0.338,-0.39545 0.10822,-0.0327 -0.15431,-0.44588 -0.58339,-0.91795 -1.04984,-1.15501 -1.01367,-1.62472 0.0463,-0.60134 0.99214,0.95792 1.58361,1.24733 3.55337,1.73862 1.42849,0.35628 1.55672,0.36075 2.72119,0.0948 0.67215,-0.15349 1.90318,-0.51752 2.73563,-0.80894 0.83245,-0.29142 1.54302,-0.50305 1.57904,-0.47031 0.0359,0.0327 -0.29569,0.27686 -0.73716,0.54248 -2.16975,1.30539 -5.36635,1.81346 -7.37268,1.17181 z m 7.97297,-5.4506 c -0.37435,-0.0311 -1.51195,-0.2231 -2.52801,-0.42663 -2.76997,-0.55486 -2.85132,-0.56102 -3.33611,-0.25231 -0.55134,0.35108 -1.02176,0.35956 -1.58093,0.0285 -0.3724,-0.22049 -0.70594,-0.22215 -2.46434,-0.0123 -1.11852,0.13351 -2.10116,0.20479 -2.18369,0.15842 -0.0826,-0.0464 -0.33272,0.005 -0.55601,0.11324 -0.51122,0.24872 -1.19961,-0.12195 -1.74972,-0.94216 -0.80227,-1.1962 -0.2784,-1.3484 1.03196,-0.29978 0.82253,0.65824 0.96494,0.70717 2.05776,0.70717 0.64573,0 1.22816,-0.0796 1.29426,-0.17678 0.0661,-0.0973 0.38775,-0.1768 0.71478,-0.1768 0.49884,0 0.57821,-0.057 0.49289,-0.35359 -0.13445,-0.46735 -0.0596,-0.45123 0.94204,0.20271 l 0.85205,0.55629 0.97469,-0.36824 c 0.55741,-0.21061 1.02286,-0.29739 1.08724,-0.20273 0.0619,0.0911 0.39176,0.1665 0.73305,0.16766 0.6426,0.002 1.99402,0.31269 3.34301,0.76813 0.5638,0.19034 1.23273,0.23688 2.43078,0.16909 1.49605,-0.0847 1.75234,-0.15463 2.70019,-0.73741 0.57598,-0.35414 1.27604,-0.7827 1.5557,-0.95235 1.26097,-0.76498 1.66078,0.1109 0.55247,1.21036 -0.48044,0.47661 -0.87397,0.67226 -1.60431,0.79754 -0.88624,0.15202 -3.07347,0.1621 -4.75975,0.0219 z m -8.70817,-4.90432 c -0.49422,-0.19524 -0.74631,-0.20711 -1.11897,-0.0528 -0.65678,0.27204 -0.84032,0.0378 -0.3323,-0.42408 0.37704,-0.34278 0.4904,-0.3593 1.17854,-0.17188 1.01091,0.27537 1.59587,0.26148 2.43641,-0.0578 1.01178,-0.38434 1.43606,-0.33538 2.9508,0.34038 1.51906,0.67771 1.32456,0.81557 -0.39279,0.2784 -0.62175,-0.19447 -1.29524,-0.3536 -1.49666,-0.3536 -0.20143,0 -0.70929,0.15913 -1.12859,0.3536 -0.89352,0.41442 -1.23342,0.42864 -2.09644,0.0877 z" style="fill:#000000;stroke-width:0.18541756"/></svg>
