<svg viewBox="0 0 560 1000"><path d="m 290.99463,123.29155 c 0.2259,-1.02561 0.33475,-1.54459 0.96505,-2.63921 0.0383,0.10933 0.0713,0.56485 0.18807,0.50657 0.12267,-0.0612 0.18093,-0.83633 0.64685,-1.55123 0.17072,0.18351 0.1414,0.77744 0.24147,0.70023 0.10278,-0.0793 0.0993,-0.78556 0.82055,-1.60671 0.15251,0.59315 -0.1696,1.4168 -0.003,1.17485 0.54928,-0.8042 0.68454,-1.09517 1.54272,-1.39675 0.74554,-0.47222 7.46206,-0.72909 10.68247,-0.0799 0.768,0.15482 1.89904,0.36413 2.51344,0.46514 4.08839,0.86902 8.31261,4.31763 9.95581,7.34985 -10.64151,-10.06364 -20.5966,-6.70046 -27.55343,-2.92284 z m -19.75139,-4.60238 c 0.93232,0.10223 1.5093,0.44353 1.78817,0.61856 0.41141,0.25822 0.11507,-0.34349 0.11288,-0.70459 0.32751,-0.12411 0.92797,0.80327 1.21478,1.23029 0.21453,0.31939 0.0157,-1.15258 0.22486,-0.78546 0.19435,0.34107 0.55858,1.48323 0.73062,1.82625 0.1587,0.31644 -0.0271,-0.76835 0.15952,-0.51642 0.92128,1.24371 0.71568,2.89185 0.79786,3.14449 -7.16315,-5.11488 -11.00398,-1.6842 -16.46957,-0.046 3.59257,-2.62701 6.84977,-4.12475 11.44088,-4.76708 z" id="path7279" sodipodi:nodetypes="ccscsccccccccscsssccccc" class="eyebrow_hair"/></svg>
