<svg viewBox="0 0 560 1000"><path d="m 283.66521,456.38067 c -1.54841,0.73859 -1.78928,15.78672 -9.24659,11.14886 -5.5459,3.1603 -10.12915,-4.94173 -10.42429,-8.4126 -0.25114,-2.95343 3.37748,-7.20053 3.87403,-6.51846 2.14579,-0.003 16.30971,2.85987 15.79685,3.7822 z" class="shadow" id="path4202" sodipodi:nodetypes="ccscc" inkscape:label="#PussyshadowN"/><path d="m 274.36595,467.58332 c -3.81452,2.31718 -9.64064,-2.27902 -10.8644,-11.68664 5.95334,-21.67633 25.49385,-8.31185 20.23612,0.35499 -2.87984,4.74713 -3.52005,14.37508 -9.37172,11.33165 z" class="skin torso" id="path4204" sodipodi:nodetypes="ccsc" inkscape:label="#PussyN"/><path sodipodi:nodetypes="ccsscc" id="path4206" d="m 349.70238,409.51538 c -0.0813,-0.25494 -0.70857,-2.49571 -0.70857,-2.49571 -22.65767,4.89275 -39.56413,7.60141 -60.05248,8.19626 -24.22046,0.7032 -47.22387,-2.18776 -60.45696,-7.53731 -0.0404,-0.0164 -0.80202,1.68077 -2.10224,5.81027 30.89873,13.95984 100.6663,9.88312 123.32025,-3.97351 z" style="display:inline;fill-opacity:1;fill:#000000;stroke-dasharray:none;stroke-linecap:butt;stroke-linejoin:miter;stroke-miterlimit:4;stroke-opacity:1;stroke-width:0;stroke:#000000"/><path style="display:inline;fill-opacity:1;fill:#517cd3;stroke-dasharray:none;stroke-linecap:butt;stroke-linejoin:miter;stroke-miterlimit:4;stroke-opacity:1;stroke-width:0;stroke:#000000" d="m 268.15022,466.84042 c 1.97544,1.15064 3.44304,1.50895 6.29117,0.74829 1.48394,1.11892 3.67809,1.01117 5.52348,-0.15189 18.69419,-31.69091 44.8542,-43.45488 76.35811,-48.40572 -3.14828,-4.6033 -5.95606,-8.61745 -6.25571,-9.55721 -0.0813,-0.25494 -1.22374,-2.21355 -1.22374,-2.21355 -45.10201,11.9464 -93.79959,12.46804 -120.26832,0.58222 -0.0636,-0.0285 -2.86516,3.55419 -5.78851,12.81957 13.67372,9.43951 30.44627,25.13128 45.36352,46.17829 z" id="path4208" sodipodi:nodetypes="ccccscscc"/><path style="display:inline;fill-opacity:1;fill:#8aa7ff;stroke-dasharray:none;stroke-linecap:butt;stroke-linejoin:miter;stroke-miterlimit:4;stroke-opacity:1;stroke-width:0;stroke:#000000" d="m 226.43714,411.39001 c 35.65478,14.81043 108.78953,7.12999 124.04699,-1.19349 -0.98086,-2.37283 -1.00632,-2.28871 -1.45689,-3.1686 -58.31295,15.78964 -105.07502,8.24648 -121.04522,0.40529 -0.32556,0.70561 -0.67555,1.24868 -1.54488,3.9568 z" id="path4210" sodipodi:nodetypes="ccccc"/><path style="display:inline;fill-opacity:1;fill:#8aa7ff;stroke-dasharray:none;stroke-linecap:butt;stroke-linejoin:miter;stroke-miterlimit:4;stroke-opacity:1;stroke-width:0;stroke:#000000" d="m 275.25299,462.86252 c -12.30071,-3.84341 -9.97725,-39.56452 -8.12905,-43.86741 0.10337,-0.24065 6.70466,-0.007 6.80117,-0.0386 -0.14286,-0.008 -0.28501,-0.0153 -0.42641,-0.0219 -4.0967,-0.18979 -7.561,0.22503 -9.12434,-0.44654 -1.55247,9.38892 -6.14341,45.13839 10.87863,44.37445 z" id="path4212" sodipodi:nodetypes="cscsccc"/><path style="display:inline;fill-opacity:1;fill:#8aa7ff;stroke-dasharray:none;stroke-linecap:butt;stroke-linejoin:miter;stroke-miterlimit:4;stroke-opacity:1;stroke-width:0;stroke:#000000" d="m 324.23328,427.46565 c -3.54385,-4.72455 -4.58363,-8.98886 -4.9291,-11.08235 -1.02422,-0.29348 -2.03709,0.77235 -2.39603,0.55362 -0.0361,0.57214 1.60868,5.44622 5.93925,10.97322 0.79536,-0.22124 0.67963,-0.24922 1.38588,-0.44449 z" id="path4214" sodipodi:nodetypes="ccccc"/><path style="display:inline;fill-opacity:1;fill:#8aa7ff;stroke-dasharray:none;stroke-linecap:butt;stroke-linejoin:miter;stroke-miterlimit:4;stroke-opacity:1;stroke-width:0;stroke:#000000" d="m 233.05215,427.945 c 3.55397,-4.71055 5.66482,-10.40051 5.21735,-13.11208 -1.02422,-0.29348 -0.41393,-0.14186 -0.77287,-0.36059 -0.0557,0.88313 -0.96077,6.97597 -5.44961,12.86117 0.31554,0.91926 0.31461,0.36013 1.00513,0.6115 z" id="path4216" sodipodi:nodetypes="ccccc"/><path sodipodi:nodetypes="ccc" id="path4218" class="shadow" d="m 329.90785,425.6821 c -15.4791,1.19068 -42.03653,26.26041 -44.60913,30.99635 10.29989,-9.14088 29.75951,-26.28541 44.60913,-30.99635 z"/><path sodipodi:nodetypes="ccc" id="path4220" class="shadow" d="m 262.16576,457.53039 c -6.81704,-9.41592 -28.83006,-31.99347 -34.93819,-34.15183 5.05404,5.44075 26.5203,25.35081 34.93819,34.15183 z"/><path d="m 262.98857,459.03749 c 4.57815,9.39542 7.95428,8.94718 11.45233,8.01034 0.29456,-0.0789 5.02218,4.77996 9.26343,-8.71666 -1.38475,8.70911 -4.94655,11.61521 -9.3291,9.47151 -0.0226,-0.0111 -2.82256,1.04466 -4.71233,0.003 -2.95847,-1.63089 -6.486,-5.556 -6.67433,-8.7681 z" class="shadow" id="path4222" sodipodi:nodetypes="cscsscc"/><path style="display:inline;fill-opacity:1;fill-rule:evenodd;fill:#000000;opacity:1;stroke-dasharray:none;stroke-linecap:butt;stroke-linejoin:miter;stroke-miterlimit:4;stroke-opacity:1;stroke-width:0;stroke:#000000" d="m 368.45236,268.83602 c 0.40069,1.40387 0.82871,12.89967 -6.36035,37.77919 -7.32948,25.39302 -46.25579,50.21893 -32.10865,72.69961 -32.89181,6.65266 -76.33001,11.61922 -90.69809,-5.38372 2.433,-12.49684 4.19127,-19.92717 4.36254,-35.13031 0.24452,-21.70551 -6.08737,-33.66342 -6.98584,-46.20078 0.40962,-35.13389 30.30326,-40.0847 52.38713,-59.43686 0.97617,-2.02088 2.08274,-20.02947 -11.82749,-27.30895 -0.63873,-0.33426 5.09757,-2.74283 9.6221,-5.14517 9.24713,11.38115 25.18214,3.12903 31.26177,-2.13928 1.50252,1.12706 9.10193,4.89722 7.88644,5.69617 -25.72677,16.91039 -30.9022,28.84774 -29.45936,29.06832 3.13994,1.52155 66.54554,33.43249 67.65165,34.25705 z" id="path3636-9" sodipodi:nodetypes="ccccsccsccsccc"/><path style="display:inline;fill-opacity:1;fill-rule:evenodd;fill:#ffffff;opacity:1;stroke-dasharray:none;stroke-linecap:butt;stroke-linejoin:miter;stroke-miterlimit:4;stroke-opacity:1;stroke-width:0;stroke:#000000" d="m 368.47602,268.56519 c -0.47811,3.70196 -1.71839,20.80284 -7.95729,39.14162 -5.70331,22.34363 -45.52558,47.64607 -32.17465,70.44625 -31.15729,6.94181 -77.3071,10.62018 -87.90947,-4.94057 2.40743,-12.49684 4.43231,-29.2995 4.60178,-32.17365 1.27707,-21.66848 -5.53672,-33.8742 -6.42575,-46.41156 -3.49765,-53.35898 12.93818,-79.84335 38.32548,-88.64617 0.49229,-0.51848 5.43756,-2.25669 9.91452,-4.65903 9.14993,11.38115 24.91744,3.12903 30.93316,-2.13928 1.48672,1.12706 18.23182,7.00546 18.7637,8.34782 40.52013,0.35863 36.88575,49.2706 31.92852,61.03457 z" id="path3638-4" sodipodi:nodetypes="ccccscccccc"/></svg>
