<svg viewBox="0 0 560 1000"><path style="display:inline;fill-opacity:1;fill-rule:evenodd;fill:#000000;opacity:1;stroke-dasharray:none;stroke-linecap:butt;stroke-linejoin:miter;stroke-miterlimit:4;stroke-opacity:1;stroke-width:0;stroke:#000000" d="m 371.20236,269.08602 c 1.51626,38.6583 -8.21765,58.58898 -14.19389,78.66987 12.60788,27.13802 22.15167,55.8984 6.04549,71.67531 -40.98707,8.31859 -66.05552,17.7901 -80.67045,40.08127 -0.27859,0.87834 -1.00697,6.35332 -3.50565,8.26757 -0.26944,0.20641 -1.13656,1.14752 -4.58251,0.28177 -0.17413,-0.0437 -1.37345,0.71664 -3.61847,0.0361 -5.83439,-1.76869 -6.66978,-8.86034 -6.76649,-9.28816 -16.51529,-20.94369 -30.17868,-37.66144 -38.61765,-45.36138 -13.44171,-39.16213 6.85191,-70.39725 11.76842,-92.49495 -0.99183,-10.27512 -1.42079,-19.93359 -2.02418,-28.35341 0.22636,-19.41542 1.83156,-30.42602 4.27202,-40.80573 0,0 69.39151,6.34849 124.87522,15.79701 z" id="path3717-2-2" sodipodi:nodetypes="ccccsssccccccc"/><path style="display:inline;fill-opacity:1;fill-rule:evenodd;fill:#333333;opacity:1;stroke-dasharray:none;stroke-linecap:butt;stroke-linejoin:miter;stroke-miterlimit:4;stroke-opacity:1;stroke-width:0;stroke:#000000" d="m 369.97602,269.06519 c 2.49535,32.93412 -6.79368,56.63998 -14.01328,78.67932 11.45107,23.91916 22.46379,56.72434 6.80322,71.14293 -59.85653,10.56956 -79.27448,37.11519 -80.04615,39.45296 -0.78385,1.88787 -2.07261,6.65438 -4.56951,8.43479 -1.21712,0.86786 -3.67455,-0.009 -3.92649,-0.0331 -0.29397,-0.0276 -1.00544,1.07969 -3.15959,0.31564 -5.02013,-1.78057 -5.70316,-4.92926 -6.40142,-6.81689 -11.78358,-9.0584 -26.35879,-18.16165 -39.40007,-47.07157 -10.7549,-42.28106 10.69142,-73.04215 13.33459,-92.70957 -1.14292,-9.26145 -1.06401,-18.10901 -1.61168,-25.83242 -1.19702,-18.84935 0.39939,-30.37568 2.36381,-42.7198 0.46633,-0.72632 78.52997,-14.47705 130.62657,17.15771 z" id="path3719-9-5" sodipodi:nodetypes="ccccssscccccc"/><path sodipodi:nodetypes="ccc" id="path3401-0-1-0" class="shadow" d="m 330.97739,420.24734 c -27.76035,9.69068 -41.78653,28.32291 -44.35913,33.05885 10.29989,-9.14088 23.16576,-22.06666 44.35913,-33.05885 z"/><path sodipodi:nodetypes="ccc" id="path3406-4-3-7" class="shadow" d="m 262.15947,457.51688 c -6.81704,-9.41592 -11.96578,-25.28452 -25.82391,-35.94288 6.67904,9.06575 17.40602,27.14186 25.82391,35.94288 z"/></svg>
