<svg viewBox="0 0 560 1000"><path sodipodi:nodetypes="csccccc" id="path5157" d="m 300.39583,218.87955 c 2.88085,-3.50481 6.15719,-4.57678 3.22635,-5.38665 -7.83122,-2.16398 -6.65602,-5.15553 -29.53589,-8.46494 0.072,0.004 -39.11599,-30.35431 -48.04775,-36.68666 -2.16372,0.95706 -7.77886,12.55489 -15.12661,28.73937 12.73182,10.61386 59.08282,55.8677 69.66432,62.86912 9.89979,-18.57727 19.44175,-40.69055 19.81958,-41.07024 z" style="display:inline;fill-opacity:1;fill-rule:evenodd;fill:#000000;stroke-dasharray:none;stroke-linecap:butt;stroke-linejoin:miter;stroke-miterlimit:4;stroke-opacity:0;stroke-width:3.02935934;stroke:#000000"/><path sodipodi:nodetypes="csccccc" id="path5159" d="m 300.48784,216.69956 c 2.82896,-3.50026 6.04627,-4.57084 3.16823,-5.37966 -7.69014,-2.16117 -6.53612,-5.14882 -29.00381,-8.45395 0.0707,0.004 -39.76707,-26.35368 -48.53793,-32.67781 -4.35837,6.81101 -8.95029,18.29678 -13.3785,26.72628 12.33577,10.43922 57.41291,55.57865 67.67075,62.48145 9.72145,-18.55316 19.71023,-42.31711 20.08126,-42.69631 z" style="display:inline;fill-opacity:1;fill-rule:evenodd;fill:#550022;stroke-dasharray:none;stroke-linecap:butt;stroke-linejoin:miter;stroke-miterlimit:4;stroke-opacity:0;stroke-width:3;stroke:#000000"/></svg>
