<svg viewBox="0 0 560 1000"><path sodipodi:nodetypes="csccc" d="m 266.56266,487.41644 c -1.02095,0.32423 -2.19079,0.17635 -2.92249,0.16431 -1.17374,-0.0187 -3.47875,-1.81699 -3.67721,-2.36577 0.30298,-2.36283 6.37063,-5.59458 10.88669,-2.56186 -1.46852,3.35279 -2.47463,3.76341 -4.28699,4.76332 z" id="path3732" style="fill:#000000;stroke-width:2.09582233"/><path sodipodi:nodetypes="ccccccsscc" d="m 260.79563,452.01085 c 3.47045,-6.51771 15.87474,-10.78623 17.05735,4.1693 0.39194,0.84172 -0.52879,4.62269 -1.63556,9.37779 -1.26752,4.64247 -2.27249,9.92053 -2.76554,15.17968 -0.60135,5.93814 -1.87816,15.25966 -9.7012,15.03492 -4.84319,-1.02845 -7.2991,-4.74035 -9.30881,-7.4832 -0.18496,-0.89265 0.19937,-1.33818 0.11881,-1.67649 -1.01086,-4.25623 -0.70003,-10.63948 0.60408,-17.75744 1.11844,-6.10456 3.0308,-12.26743 5.63072,-16.84456 z" id="path3734" style="fill:#000000;stroke-width:2.62346387"/><path sodipodi:nodetypes="cccccc" d="m 271.56035,487.95909 c -0.0181,0.71712 -0.93401,3.23915 -1.81105,4.4369 -1.99718,2.35031 -4.3836,3.39604 -7.19063,2.47906 -1.31243,-0.0238 -5.51253,-3.39012 -7.52103,-6.81442 0.85486,-2.97706 12.78325,1.71388 16.52271,-0.10142 z" id="path3736" class="areola"/><path sodipodi:nodetypes="ccccccscc" class="skin penis" d="m 261.64352,450.73802 c 3.10339,-6.6625 14.19583,-11.02589 15.25337,4.26192 0.35047,0.86045 -0.47287,4.72537 -1.46257,9.58619 -1.13346,4.74555 -2.45573,10.05257 -2.89669,15.42858 -0.0543,3.00651 -0.32294,4.96725 -0.58831,6.80902 -1.94601,2.41979 -12.56693,-0.95777 -16.26259,-0.62664 -0.90398,-4.35079 -0.24474,-10.96417 0.92145,-18.24028 1.00009,-6.24016 2.71021,-12.53994 5.03519,-17.21879 z" id="path3738"/></svg>
