<svg viewBox="0 0 560 1000"><path d="m 300.27148,121.89692 c -4.61537,0.002 -7.85482,0.4831 -9.52929,1.41319 -1.11533,0.6195 -2.50977,1.67559 -2.3711,1.79611 0.0887,0.077 1.74874,-0.27497 5.25977,-1.11627 2.071,-0.49624 3.86634,-0.71972 7.32226,-0.90856 7.27906,-0.14802 11.9666,0.67709 17.14258,2.87674 0.48116,0.22706 0.94887,0.4154 1.03907,0.41756 0.43773,0.0117 0.0377,-0.24286 -1.25782,-0.8005 -4.86952,-2.26106 -12.19188,-3.85784 -17.60547,-3.67827 z" id="path9404" sodipodi:nodetypes="ccccccccc" class="eyebrow_hair"/><path d="m 260.88281,125.1335 c -0.0161,0.15952 0.23749,0.0962 2.41211,-0.60954 4.01771,-1.37244 7.88734,-1.25692 11.84961,-0.60221 1.21883,0.31997 3.91381,1.32875 4.00391,1.29883 0.50531,-0.16775 -1.4689,-2.01937 -2.76647,-2.50924 -5.70442,-1.23288 -11.13078,0.60698 -15.49916,2.42216 z" id="path9406" sodipodi:nodetypes="cccccc" class="eyebrow_hair"/></svg>
