<svg viewBox="0 0 560 1000"><path style="fill:#000000;stroke-width:2.09582233" id="path3722" d="m 266.56266,487.41644 c -1.02095,0.32423 -2.19079,0.17635 -2.92249,0.16431 -1.17374,-0.0187 -3.47875,-1.81699 -3.67721,-2.36577 0.30298,-2.36283 6.37063,-5.59458 10.88669,-2.56186 -1.46852,3.35279 -2.47463,3.76341 -4.28699,4.76332 z" sodipodi:nodetypes="csccc"/><path style="fill:#000000;stroke-width:2.09582233" id="path3724" d="m 261.91516,453.02993 c 2.80122,-5.15338 12.81348,-8.5284 13.76805,3.29657 0.31636,0.66553 -0.42682,3.65504 -1.32016,7.41478 -1.0231,3.67069 -1.83427,7.84392 -2.23224,12.00219 -0.3117,3.25669 -0.40325,6.44869 -2.45448,8.48524 -1.45895,1.21462 -3.82206,1.65371 -5.83,1.62347 -1.17989,-0.0188 -3.24406,-0.0703 -3.60579,-0.34518 -1.4397,-1.09363 -2.25738,-2.19204 -3.4539,-3.79257 -0.14928,-0.70581 0.16092,-1.05808 0.0959,-1.32557 -0.81593,-3.36529 -0.56504,-8.41237 0.48759,-14.04036 0.90277,-4.82671 2.44635,-9.69955 4.54491,-13.31857 z" sodipodi:nodetypes="cccscsscssc"/><path class="areola" id="path3726" d="m 270.60404,481.4533 c -0.0147,0.56701 -0.75391,2.56112 -1.46182,3.50815 -1.61205,1.85833 -3.53828,2.68516 -5.804,1.96012 -1.05934,-0.0188 -4.44951,-2.68047 -6.0707,-5.38798 0.69001,-2.35389 10.31816,1.35511 13.33652,-0.0802 z" sodipodi:nodetypes="cccccc"/><path id="path3728" d="m 262.59954,452.02354 c 2.50495,-5.26787 11.45834,-8.71789 12.31194,3.3698 0.28289,0.68033 -0.38167,3.73623 -1.18053,7.57955 -0.91488,3.75219 -1.98217,7.94831 -2.33809,12.19899 -0.0439,2.37717 -0.26067,3.92748 -0.47486,5.38372 -1.57075,1.91327 -10.14356,-0.75728 -13.12655,-0.49547 -0.72965,-3.44006 -0.19755,-8.66909 0.74376,-14.42212 0.80724,-4.93394 2.18758,-9.91502 4.06421,-13.61447 z" class="skin penis" sodipodi:nodetypes="ccccccscc"/></svg>
