<svg viewBox="0 0 560 1000"><path sodipodi:nodetypes="ccccc" id="path3018" d="m 347.35548,403.07035 c 24.16746,7.28071 65.74638,64.35108 34.35901,107.11434 -2.82592,0.5089 -20.1207,3.8309 -25.97733,5.04567 -1.75993,0.29702 -12.50053,-3.40664 -14.35422,-9.89647 -6.11747,-31.88836 10.27697,-98.83242 5.97254,-102.26354 z" style="display:inline;fill-opacity:1;fill-rule:evenodd;fill:#000000;opacity:1;stroke-dasharray:none;stroke-linecap:butt;stroke-linejoin:miter;stroke-miterlimit:4;stroke-opacity:0;stroke-width:3.632617;stroke:#000000"/><path sodipodi:nodetypes="ccccc" id="path3020" d="m 346.68004,402.49502 c 49.256,28.72812 51.67578,87.70345 34.6119,106.85821 -0.0508,0.0516 -18.85026,3.54924 -25.09398,5.17795 -4.30588,-1.18983 -7.56364,-2.39956 -8.71124,-7.32869 -6.70189,-30.77106 4.93677,-100.1293 -0.80668,-104.70747 z" style="display:inline;fill-opacity:1;fill-rule:evenodd;fill:#333333;opacity:1;stroke-dasharray:none;stroke-linecap:butt;stroke-linejoin:miter;stroke-miterlimit:4;stroke-opacity:0;stroke-width:3.632617;stroke:#000000"/><path style="display:inline;fill-opacity:1;fill-rule:evenodd;fill:#ffffff;opacity:1;stroke-dasharray:none;stroke-linecap:butt;stroke-linejoin:miter;stroke-miterlimit:4;stroke-opacity:1;stroke-width:0;stroke:#000000" d="m 355.15917,512.99801 c 1.13276,0.20739 -0.80139,0.82611 1.36071,1.37545 8.85161,-1.71775 24.27021,-4.56608 26.35265,-5.2291 -0.34796,-0.4125 0.0141,0.01 0.0141,0.01 -14.51926,1.99324 -14.38252,1.70778 -27.37521,4.04333 z" id="path3022" sodipodi:nodetypes="cccccc"/></svg>
