<svg viewBox="0 0 560 1000"><path sodipodi:nodetypes="cscsccscccc" id="path4424" d="m 368.45236,268.83602 c 0.40069,1.40387 0.82871,12.89967 -6.36035,37.77919 -5.42713,18.7819 -20.56882,29.98312 -21.1652,31.4412 -2.88475,4.63162 -4.57729,5.99939 -6.42705,9.48318 -13.13334,24.73507 -7.63498,24.70657 15.2336,59.90023 -26.83331,14.10151 -110.26541,31.7889 -126.53109,8.14624 21.52488,-42.19532 20.27427,-61.58213 20.44554,-76.78527 0.24452,-21.70551 -6.08737,-33.66342 -6.98584,-46.20078 -3.73179,-44.54825 18.17921,-77.96777 50.18174,-91.89098 9.24713,11.38115 23.27589,1.97278 29.35552,-3.29553 -0.32987,32.01707 -7.67778,52.6152 52.25313,71.42252 z" style="display:inline;fill-opacity:1;fill-rule:evenodd;fill:#000000;opacity:1;stroke-dasharray:none;stroke-linecap:butt;stroke-linejoin:miter;stroke-miterlimit:4;stroke-opacity:1;stroke-width:0;stroke:#000000"/><path sodipodi:nodetypes="csccccsccsc" id="path4426" d="m 369.22602,268.69019 c -10.52126,71.13498 -30.62472,55.5723 -42.96537,93.12884 -3.19645,9.72782 2.28681,21.51526 21.08343,44.45903 -31.15729,6.94181 -70.4321,22.74518 -119.90947,5.30943 41.81147,-92.93422 -2.51381,-98.87567 14.34659,-157.50912 4.95512,-25.94069 19.05277,-46.18887 44.89266,-53.24243 0.95941,-0.26505 5.83183,-7.60855 5.90605,-7.38285 1.65753,5.04021 20.47171,-0.37757 20.85769,-0.51091 7.83112,13.51631 21.33617,13.52486 23.1099,14.58844 26.97619,0.32338 32.77629,22.27233 33.28341,40.71368 0.22567,8.20653 -0.8493,15.84345 -0.60489,20.44589 z" style="display:inline;fill-opacity:1;fill-rule:evenodd;fill:#ff80b2;opacity:1;stroke-dasharray:none;stroke-linecap:butt;stroke-linejoin:miter;stroke-miterlimit:4;stroke-opacity:1;stroke-width:0;stroke:#000000"/><path style="display:inline;fill-opacity:1;fill:#000000;opacity:1;stroke-dasharray:none;stroke-linecap:butt;stroke-linejoin:miter;stroke-miterlimit:4;stroke-opacity:1;stroke-width:0;stroke:#000000" d="m 291.59482,204.8803 c -0.007,-0.15238 5.39726,-10.80323 5.46415,-10.99796 0,0 -4.71541,-2.02563 -4.85767,-1.83113 -0.86438,1.18176 -2.48505,4.21861 -3.88833,5.92157 0.099,0.227 3.28185,6.90752 3.28185,6.90752 z" id="path4428" sodipodi:nodetypes="csscc"/><path style="display:inline;fill-opacity:1;fill:#ff80b2;opacity:1;stroke-dasharray:none;stroke-linecap:butt;stroke-linejoin:miter;stroke-miterlimit:4;stroke-opacity:1;stroke-width:0;stroke:#000000" d="m 291.55833,202.78945 c -0.007,-0.14941 5.05548,-8.90542 5.12046,-9.09636 0,0 -4.58062,-1.9862 -4.71882,-1.79549 -0.83967,1.15876 -2.41401,4.13649 -3.77718,5.8063 0.0962,0.22258 3.37554,5.08555 3.37554,5.08555 z" id="path4430" sodipodi:nodetypes="csscc"/><path style="display:inline;fill-opacity:1;fill:#000000;opacity:1;stroke-dasharray:none;stroke-linecap:butt;stroke-linejoin:miter;stroke-miterlimit:4;stroke-opacity:1;stroke-width:0;stroke:#000000" d="m 302.35818,205.29925 c 0.007,-0.15238 -3.99545,-11.03492 -4.06234,-11.22965 0,0 16.62296,-2.66894 16.76522,-2.47444 0.86438,1.18176 2.6413,5.37486 3.07583,6.04657 -0.099,0.227 -15.77871,7.65752 -15.77871,7.65752 z" id="path4432" sodipodi:nodetypes="csscc"/><path style="display:inline;fill-opacity:1;fill:#ff80b2;opacity:1;stroke-dasharray:none;stroke-linecap:butt;stroke-linejoin:miter;stroke-miterlimit:4;stroke-opacity:1;stroke-width:0;stroke:#000000" d="m 303.01527,204.17715 c 0.007,-0.14856 -4.18866,-10.02774 -4.25456,-10.21759 0,0 15.63782,-2.64512 15.77799,-2.4555 0.85164,1.15214 2.60238,5.24014 3.03051,5.89501 -0.0975,0.22131 -14.55394,6.77808 -14.55394,6.77808 z" id="path4434" sodipodi:nodetypes="csscc"/><path style="display:inline;fill-opacity:1;fill-rule:nonzero;fill:#ff5599;opacity:1;stroke-dasharray:none;stroke-linecap:butt;stroke-linejoin:round;stroke-miterlimit:4;stroke-opacity:1;stroke-width:0;stroke:#000000" d="m 300.87394,220.43307 a 2.7544847,2.8454499 0 0 1 -2.75448,2.84545 2.7544847,2.8454499 0 0 1 -2.75449,-2.84545 2.7544847,2.8454499 0 0 1 2.75449,-2.84546 2.7544847,2.8454499 0 0 1 2.75448,2.84546 z" id="path4439"/><path style="display:inline;fill-opacity:1;fill-rule:nonzero;fill:#ff5599;opacity:1;stroke-dasharray:none;stroke-linecap:butt;stroke-linejoin:round;stroke-miterlimit:4;stroke-opacity:1;stroke-width:0;stroke:#000000" d="m 297.69369,242.50598 a 2.7544847,2.8454499 0 0 1 -2.75448,2.84545 2.7544847,2.8454499 0 0 1 -2.75449,-2.84545 2.7544847,2.8454499 0 0 1 2.75449,-2.84546 2.7544847,2.8454499 0 0 1 2.75448,2.84546 z" id="path4441"/><path style="display:inline;fill-opacity:1;fill-rule:nonzero;fill:#ff5599;opacity:1;stroke-dasharray:none;stroke-linecap:butt;stroke-linejoin:round;stroke-miterlimit:4;stroke-opacity:1;stroke-width:0;stroke:#000000" d="m 294.36894,266.99921 a 2.7544847,2.8454499 0 0 1 -2.75448,2.84545 2.7544847,2.8454499 0 0 1 -2.75449,-2.84545 2.7544847,2.8454499 0 0 1 2.75449,-2.84546 2.7544847,2.8454499 0 0 1 2.75448,2.84546 z" id="path4443"/><path style="display:inline;fill-opacity:1;fill-rule:nonzero;fill:#ff5599;opacity:1;stroke-dasharray:none;stroke-linecap:butt;stroke-linejoin:round;stroke-miterlimit:4;stroke-opacity:1;stroke-width:0;stroke:#000000" d="m 291.12262,291.4949 a 2.7544847,2.8454499 0 0 1 -2.75448,2.84545 2.7544847,2.8454499 0 0 1 -2.75449,-2.84545 2.7544847,2.8454499 0 0 1 2.75449,-2.84546 2.7544847,2.8454499 0 0 1 2.75448,2.84546 z" id="path4445"/><path style="display:inline;fill-opacity:1;fill-rule:nonzero;fill:#ff5599;opacity:1;stroke-dasharray:none;stroke-linecap:butt;stroke-linejoin:round;stroke-miterlimit:4;stroke-opacity:1;stroke-width:0;stroke:#000000" d="m 288.19248,313.4826 a 2.7544847,2.8454499 0 0 1 -2.75448,2.84545 2.7544847,2.8454499 0 0 1 -2.75449,-2.84545 2.7544847,2.8454499 0 0 1 2.75449,-2.84546 2.7544847,2.8454499 0 0 1 2.75448,2.84546 z" id="path4447"/><path style="display:inline;fill-opacity:1;fill-rule:nonzero;fill:#ff5599;opacity:1;stroke-dasharray:none;stroke-linecap:butt;stroke-linejoin:round;stroke-miterlimit:4;stroke-opacity:1;stroke-width:0;stroke:#000000" d="m 285.69616,337.78711 a 2.7544847,2.8454499 0 0 1 -2.75448,2.84545 2.7544847,2.8454499 0 0 1 -2.75449,-2.84545 2.7544847,2.8454499 0 0 1 2.75449,-2.84546 2.7544847,2.8454499 0 0 1 2.75448,2.84546 z" id="path4449"/><path style="display:inline;fill-opacity:1;fill-rule:nonzero;fill:#ff5599;opacity:1;stroke-dasharray:none;stroke-linecap:butt;stroke-linejoin:round;stroke-miterlimit:4;stroke-opacity:1;stroke-width:0;stroke:#000000" d="m 283.59261,360.44517 a 2.7544847,2.8454499 0 0 1 -2.75448,2.84545 2.7544847,2.8454499 0 0 1 -2.75449,-2.84545 2.7544847,2.8454499 0 0 1 2.75449,-2.84546 2.7544847,2.8454499 0 0 1 2.75448,2.84546 z" id="path4451"/><path style="display:inline;fill-opacity:1;fill-rule:nonzero;fill:#ff5599;opacity:1;stroke-dasharray:none;stroke-linecap:butt;stroke-linejoin:round;stroke-miterlimit:4;stroke-opacity:1;stroke-width:0;stroke:#000000" d="m 282.01878,380.39507 a 2.7544847,2.8454499 0 0 1 -2.75448,2.84545 2.7544847,2.8454499 0 0 1 -2.75449,-2.84545 2.7544847,2.8454499 0 0 1 2.75449,-2.84546 2.7544847,2.8454499 0 0 1 2.75448,2.84546 z" id="path4453"/><path style="display:inline;fill-opacity:1;fill-rule:evenodd;fill:#000000;opacity:1;stroke-dasharray:none;stroke-linecap:butt;stroke-linejoin:miter;stroke-miterlimit:4;stroke-opacity:1;stroke-width:0;stroke:#000000" d="m 349.03914,406.39597 c 1.35149,1.92814 5.97205,8.57335 5.97205,8.57335 -45.39345,19.19025 -98.71965,21.32265 -129.07173,8.86993 -4.57236,-1.57 -5.53803,-2.25151 -5.5158,-2.31099 1.33144,-3.56182 4.97295,-9.87649 4.97295,-9.87649 36.42612,14.76968 77.25855,8.93498 123.64253,-5.2558 z" id="path4455-8" sodipodi:nodetypes="cccscc"/><path style="display:inline;fill-opacity:1;fill-rule:evenodd;fill:#4b3832;opacity:1;stroke-dasharray:none;stroke-linecap:butt;stroke-linejoin:miter;stroke-miterlimit:4;stroke-opacity:1;stroke-width:0;stroke:#000000" d="m 348.03914,406.77097 c 1.35149,1.92814 5.43479,7.59101 5.43479,7.59101 -44.68439,14.36753 -87.88014,23.61243 -131.19358,6.87588 -0.66293,0.32662 4.30376,-8.77359 4.30376,-8.77359 41.05112,14.26968 75.07105,8.49748 121.45503,-5.6933 z" id="path4455" sodipodi:nodetypes="ccccc"/><path style="display:inline;fill-opacity:1;fill-rule:nonzero;fill:#ff5599;opacity:1;stroke-dasharray:none;stroke-linecap:butt;stroke-linejoin:round;stroke-miterlimit:4;stroke-opacity:1;stroke-width:0;stroke:#000000" d="m 281.0045,400.49998 a 2.7544847,2.8454499 0 0 1 -2.75448,2.84545 2.7544847,2.8454499 0 0 1 -2.75449,-2.84545 2.7544847,2.8454499 0 0 1 2.75449,-2.84546 2.7544847,2.8454499 0 0 1 2.75448,2.84546 z" id="path4463"/><path style="display:inline;fill-opacity:1;fill-rule:nonzero;fill:#4b3832;opacity:1;stroke-dasharray:none;stroke-linecap:butt;stroke-linejoin:round;stroke-miterlimit:4;stroke-opacity:1;stroke-width:0;stroke:#000000" d="m 300.11993,192.20176 c -0.22272,1.55564 -1.26393,2.69352 -2.32564,2.54152 -1.0617,-0.152 -1.74184,-1.53631 -1.51913,-3.09195 0.22271,-1.55565 1.04263,-1.58873 2.10434,-1.43673 1.0617,0.15199 1.96314,0.43152 1.74043,1.98716 z" id="path4439-9-4-4-1-6" sodipodi:nodetypes="cscsc"/><path style="display:inline;fill-opacity:1;fill-rule:nonzero;fill:#4b3832;opacity:1;stroke-dasharray:none;stroke-linecap:butt;stroke-linejoin:round;stroke-miterlimit:4;stroke-opacity:1;stroke-width:0;stroke:#000000" d="m 313.22737,189.83012 c -0.0498,0.62756 -14.15592,2.40626 -15.30657,2.25426 -1.15066,-0.152 -5.50667,-1.81532 -5.30231,-2.34444 0.0977,-0.71597 4.33087,1.02251 5.48153,1.17451 1.15065,0.15199 15.10528,-1.93287 15.12735,-1.08433 z" id="path4439-9-1-9-8-9-9" sodipodi:nodetypes="cscsc"/><path style="display:inline;fill-opacity:1;fill-rule:nonzero;fill:#4b3832;opacity:1;stroke-dasharray:none;stroke-linecap:butt;stroke-linejoin:round;stroke-miterlimit:4;stroke-opacity:1;stroke-width:0;stroke:#000000" d="m 299.26765,192.13164 c -0.046,0.62756 -0.16377,18.44531 -1.03291,19.12038 -0.72098,0.55998 0.46004,-18.50374 -0.40011,-17.30381 -0.28279,0.3945 -3.553,16.71952 -3.93136,16.52557 -0.63911,-0.69387 2.65063,-19.02289 3.71234,-18.87089 1.0617,0.15199 1.63168,-0.31979 1.65204,0.52875 z" id="path4439-9-1-5-1-6-7-0" sodipodi:nodetypes="csscsc"/><path style="display:inline;fill-opacity:1;fill:#000000;opacity:1;stroke-dasharray:none;stroke-linecap:butt;stroke-linejoin:miter;stroke-miterlimit:4;stroke-opacity:1;stroke-width:0;stroke:#000000" d="m 273.76587,419.87564 c -3.37067,-27.44695 2.70899,-95.34442 23.25259,-225.55289 l 0.80611,0.10099 c 0.44243,13.37084 -30.13893,182.40374 -21.77891,225.43423 0,0 -1.85534,0.73859 -2.27979,0.0177 z" id="path4522-4-1-3-4" sodipodi:nodetypes="cccccc"/></svg>
