<svg viewBox="0 0 560 1000"><path sodipodi:nodetypes="ccccccccscc" id="path4944" d="m 370.52949,269.10119 c -1.40707,42.23254 -16.76292,56.89214 -19.02126,81.79769 -0.65233,7.19397 5.62112,14.43267 6.43749,24.43791 -13.79439,3.71945 -105.97281,20.50316 -128.49442,-5.62657 1.09157,-8.53879 5.83658,-24.30802 6.28642,-32.46038 1.41022,-25.55676 -3.49882,-41.79952 -0.9531,-63.63674 4.1474,-34.69597 23.60454,-60.35906 50.55649,-72.99246 9.24713,11.38115 26.77312,2.86386 32.85275,-2.40445 3.60502,2.41128 12.51351,5.15536 13.9274,8.77997 5.80316,14.87672 -6.8011,38.98424 32.06295,60.59513 z" style="display:inline;fill-opacity:1;fill-rule:evenodd;fill:#000000;opacity:1;stroke-dasharray:none;stroke-linecap:butt;stroke-linejoin:miter;stroke-miterlimit:4;stroke-opacity:1;stroke-width:0;stroke:#000000"/><path style="display:inline;fill-opacity:1;fill-rule:evenodd;fill:#1a1a1a;opacity:1;stroke-dasharray:none;stroke-linecap:butt;stroke-linejoin:miter;stroke-miterlimit:4;stroke-opacity:1;stroke-width:0;stroke:#000000" d="m 370.55315,268.83036 c -5.06057,43.11968 -19.97912,63.38062 -20.58901,83.28138 -0.21461,7.00257 5.40829,11.83923 5.72398,21.85414 -37.1677,8.35602 -111.74273,13.80752 -124.3451,-5.50323 2.83363,-11.52951 5.0372,-19.94343 5.55969,-26.54554 2.98475,-37.71545 -3.12279,-38.96936 -1.21887,-62.06195 0.62283,-5.80398 1.32021,-11.77405 1.93291,-17.12971 2.80944,-24.25611 17.62018,-49.23247 47.6429,-61.1382 9.14993,11.38115 27.12715,2.68708 33.14287,-2.58123 1.48672,1.12706 17.6131,7.18224 18.14498,8.5246 1.34998,3.19719 2.37503,6.3614 3.25412,9.48996 2.76556,9.84229 4.08656,19.33169 9.53548,28.38477 7.32565,13.63251 15.77601,21.57759 21.21605,23.42501 z" id="path4946" sodipodi:nodetypes="csccscccccscc"/><path sodipodi:nodetypes="ccssssccccc" id="path1736-3-1" d="m 362.3043,413.36134 c -51.41983,14.7906 -68.20816,27.42745 -79.17838,44.98517 -1.04023,1.75909 -1.92047,7.35117 -4.50173,9.70959 -0.97785,0.89343 -3.70051,-0.0277 -4.03805,0.0431 -0.91345,0.19159 -2.09488,0.29968 -2.84109,0.24274 -1.3589,-0.10369 -3.10427,-0.97079 -4.62926,-2.64607 -1.15035,-1.26373 -2.1753,-2.98733 -2.81436,-5.19001 -7.02893,-7.18923 -29.10352,-25.91869 -38.34145,-47.86102 0.0176,-0.005 -0.05,-0.20603 0.59439,-1.93851 29.91996,7.91079 50.09635,9.90066 135.84413,-2.71761 0,0 -0.0757,5.36388 -0.0942,5.37262 z" style="display:inline;fill-opacity:1;fill-rule:evenodd;fill:#1a1a1a;opacity:1;stroke-dasharray:none;stroke-linecap:butt;stroke-linejoin:miter;stroke-miterlimit:4;stroke-opacity:1;stroke-width:0;stroke:#000000"/><path sodipodi:nodetypes="cccccc" id="path1738-4-0" d="m 225.9378,412.66104 c 0.12717,-0.79329 0.24724,-0.90642 0.25482,-0.95601 23.02972,9.12926 67.15581,11.20593 136.30217,-3.19252 0.0291,0.083 -0.0614,2.65341 -0.12368,3.64552 -43.51258,9.82623 -92.34712,16.57336 -133.4589,6.0264 -0.19646,-0.18478 -2.83934,-5.37591 -2.97441,-5.52339 z" style="display:inline;fill-opacity:1;fill:#5a2ca0;stroke-dasharray:none;stroke-linecap:butt;stroke-linejoin:miter;stroke-miterlimit:4;stroke-opacity:1;stroke-width:0;stroke:#83afc8"/><path sodipodi:nodetypes="cssssccc" id="path1754-5-4" d="m 282.94456,458.76549 c -0.0483,0.15247 -0.11284,0.47208 -0.19954,0.90622 -0.41277,2.06685 -1.81439,6.53069 -3.87757,8.11265 -0.26921,0.20642 -1.13559,1.14752 -4.57861,0.28177 -0.17398,-0.0437 -2.18026,1.1699 -4.2783,0.12449 -4.65827,-2.32112 -6.22252,-8.10904 -6.31915,-8.53686 3.82592,9.08132 8.89939,9.3147 10.40315,7.55401 5.26837,2.79873 7.50839,-4.81217 8.85002,-8.44228 z" style="display:inline;fill-opacity:1;fill-rule:evenodd;fill:#000000;opacity:1;stroke-dasharray:none;stroke-linecap:butt;stroke-linejoin:miter;stroke-miterlimit:4;stroke-opacity:1;stroke-width:0;stroke:#000000"/><path style="display:inline;fill-opacity:1;fill:#5a2ca0;stroke-dasharray:none;stroke-linecap:butt;stroke-linejoin:miter;stroke-miterlimit:4;stroke-opacity:1;stroke-width:0;stroke:#83afc8" d="m 234.60256,427.93872 c 16.19921,3.4137 52.20455,5.49343 83.62918,1.15618 -1.10723,0.72649 -7.93695,3.83634 -12.55858,6.92817 -26.13262,3.68145 -53.86584,2.2702 -65.20689,-0.14293 -1.89388,-2.48871 -3.84503,-4.66458 -5.86371,-7.94142 z" id="path1180-5-1-9-1-3-2-0-18-3" sodipodi:nodetypes="ccccc"/><path style="display:inline;fill-opacity:1;fill:#5a2ca0;stroke-dasharray:none;stroke-linecap:butt;stroke-linejoin:miter;stroke-miterlimit:4;stroke-opacity:1;stroke-width:0;stroke:#83afc8" d="m 247.95327,444.36444 c 10.94342,1.31488 29.77745,1.94201 46.09521,0.52033 -1.56759,2.01272 -4.3557,4.42382 -6.01534,6.52233 -12.30604,1.16431 -24.74234,1.19698 -32.55913,0.50178 -2.13773,-1.85907 -5.40225,-4.9733 -7.52074,-7.54493 z" id="path1180-5-1-9-7-9-5-2-6-3" sodipodi:nodetypes="cccccc"/><path style="display:inline;fill-opacity:1;fill:#5a2ca0;stroke-dasharray:none;stroke-linecap:butt;stroke-linejoin:miter;stroke-miterlimit:4;stroke-opacity:1;stroke-width:0;stroke:#83afc8" d="m 262.53421,458.18295 c 6.22871,0.31514 13.08896,0.30377 20.72809,-0.0971 -0.87505,2.4389 -1.64015,4.66739 -2.42955,6.53665 -5.25319,0.34928 -9.97649,0.47387 -14.24234,0.41152 -1.68576,-1.69159 -2.0194,-4.59693 -4.0562,-6.85107 z" id="path1180-5-1-9-3-1-8-4-0-6" sodipodi:nodetypes="ccccc"/></svg>
