<svg viewBox="0 0 560 1000"><path d="m 225.8,413.1 c 0,0 -18.61299,38.81162 -20.11299,63.21162 C 201.88701,536.61162 215,608.9 237.1,664.9 c 7.5,61.7 14.8,123 17.3,185.1 l 11.5,-0.3 c 2.3,-52.9 39.2,-99.2 20.2,-160.8 13.6,-57.7 6.2,-71.9 1,-161 -5.4,94.3 4.4,110.4 14.2,154.8 -15.6,58 17.8,109.6 18.6,167.8 h 16.3 C 336.4,792 352.6,755.3 344.7,681 368.5,611.1 378.72165,532.47107 373.92165,469.07107 371.92165,443.17107 350.4,411.4 350.4,411.4 l -124.6,1.7" id="path4133" sodipodi:nodetypes="cccccccccccccc" style="fill-opacity:1;fill:#1a1a1a"/><path d="M 289.6,630.9 C 279.8,590.6 268.8,530 272.8,483.8 c -0.8,44.7 7.6,106.4 16.8,147.1 z" class="shadow" id="path4135"/><path sodipodi:nodetypes="cccccccc" id="path4137" d="m 226.3,412.5 c 27.9,-30 93.7,-36.4 123.8,-1.4 18.2,21.2 25.4,60.2 7,78.9 -8.2,8.3 -22.1,13.3 -35,11 -24.2,-4.4 -25.9,-31.9 -47.3,-34.5 C 256.7,464.3 248.5,483 231,478 220.9,475.1 221.28701,468.07973 218.48701,460.07973 216.5943,437.63189 223.7,415.2 226.3,412.5 Z" style="fill-opacity:1;fill:#1a1a1a"/><path id="path4139" d="m 226.175,412.25 c 20,-34.8 104.4,-37.1 124,-1.5 11.9,21.7 1.4,60.5 -22.3,72 -0.8,0.4 -20.2,9.5 -34,1 -9.5,-5.8 -10.3,-16.2 -19.3,-17.5 -6.4,-1 -8.4,3.9 -17.8,5.5 -9.2,1.5 -18.7,-1.3 -24,-5 -14.1,-9.8 -16,-38.2 -6.6,-54.5 z" style="fill-opacity:1;fill:#1a1a1a"/><path d="m 319.16456,830.57146 c 0.72948,5.19982 1.06076,15.21579 0.9298,19.91861 8.3721,0.43817 15.89065,0.0791 15.89065,0.0791 l 1.21823,-20.49225 c -5.90239,-0.0349 -12.15813,-0.33944 -18.03868,0.49456 z" id="path4141" sodipodi:nodetypes="cccccc" style="display:inline;fill-opacity:1;fill:#aa8800;stroke-width:0.93248802"/><path d="m 267.96084,830.99933 c -0.67798,4.75788 -1.99643,15.05954 -1.90644,19.76236 -5.75231,0.43817 -11.15441,-0.0977 -11.15441,-0.0977 -0.38064,-6.40787 1.03708,-11.53343 -1.07436,-18.97978 -0.11993,-0.42294 0.0131,-0.89742 -0.13241,-1.33569 4.05542,-0.0349 10.2272,-0.18319 14.26762,0.65081 z" id="path4143" sodipodi:nodetypes="cccscc" style="display:inline;fill-opacity:1;fill:#aa8800;stroke-width:0.77294189"/><path d="m 302.35819,679.9605 c -0.65957,3.01853 -4.00449,10.41575 -4.1867,15.62526 3.24082,5.33589 12.7643,16.44254 23.35314,16.53877 18.0944,0.16444 25.06992,-16.15742 25.06992,-16.15742 l -1.80118,-16.23613 c -11.73269,-22.43693 -29.44817,-24.51905 -42.43518,0.22952 z" id="path4145" sodipodi:nodetypes="ccsccc" style="display:inline;fill-opacity:1;fill:#aa8800;stroke-width:1.1576494"/><path d="m 286.34817,687.65119 c 0.31985,2.84162 2.48645,7.9711 2.56355,10.61042 -33.49674,-0.81189 -36.07085,11.9757 -46.23668,14.0791 l -5.70477,-44.56852 c 20.60435,-0.85204 26.41425,18.93273 49.3779,19.879 z" id="path4147" sodipodi:nodetypes="ccccc" style="display:inline;fill-opacity:1;fill:#aa8800;stroke-width:0.95507294"/><path d="m 286.5904,688.50442 c 0.27027,2.47055 2.35739,6.94922 2.38707,9.24127 -33.69291,-1.10526 -37.98389,13.16056 -46.94774,12.29383 l -4.76689,-40.63193 c 17.83787,-1.23681 27.88539,18.95584 49.32756,19.09683 z" id="path4149" sodipodi:nodetypes="ccccc" style="display:inline;fill-opacity:1;fill:#1a1a1a;stroke-width:0.89274955"/><path d="m 319.14293,831.58226 c 0.74488,5.19982 0.93088,15.12204 0.79714,19.82486 8.54891,0.43817 16.47624,0.0479 16.47624,0.0479 l 0.7653,-20.49225 c -6.02704,-0.0349 -12.03394,-0.21444 -18.03868,0.61956 z" id="path4151" sodipodi:nodetypes="cccccc" style="display:inline;fill-opacity:1;fill:#1a1a1a;stroke-width:0.94228274"/><path d="m 267.76779,832.12203 c -0.526,4.82152 -1.79504,14.05231 -1.7006,18.41299 -6.03691,0.4063 -11.7063,-0.0906 -11.7063,-0.0906 l -0.51344,-18.79328 c 4.25606,-0.0324 9.68002,-0.30245 13.92034,0.47088 z" id="path4153" sodipodi:nodetypes="cccccc" style="display:inline;fill-opacity:1;fill:#1a1a1a;stroke-width:0.76248449"/><path d="m 278.74518,698.06496 c 0.0733,0.33846 10.66305,24.54987 -13.9957,132.62286 -0.42691,0.0404 -2.42651,-0.14883 -2.42651,-0.14883 25.46233,-109.7373 15.06626,-126.16515 14.70009,-132.17597 0.91767,-0.036 1.4532,-0.34872 1.72212,-0.29806 z" id="path4155" sodipodi:nodetypes="ccccc" style="display:inline;fill-opacity:1;fill:#aa8800;stroke-width:0.77294189"/><path d="m 303.39065,696.9107 c -0.0586,0.34299 -7.78119,13.30811 16.65683,134.08112 0.34146,0.0409 1.9408,-0.15082 1.9408,-0.15082 -22.66685,-115.77984 -17.7631,-125.72463 -17.47023,-131.81575 -0.73398,-0.0365 -0.91231,-2.16588 -1.1274,-2.11455 z" id="path4157" sodipodi:nodetypes="ccccc" style="display:inline;fill-opacity:1;fill:#aa8800;stroke-width:0.69586897"/><path d="m 305.56682,682.43194 c -0.44152,-10.48322 -0.14672,-11.37753 -16.49212,-53.36318 -0.49623,-1.83935 -1.2295,-5.03415 -1.2295,-5.03415 16.83284,39.37868 18.00123,48.75074 19.05405,56.0155 0.0217,0.1495 -1.34577,2.25779 -1.33243,2.38183 z" id="path4159" sodipodi:nodetypes="cccsc" style="display:inline;fill-opacity:1;fill:#aa8800;stroke-width:0.48342791"/><path d="m 213.38174,443.92146 c 30.28716,6.85903 29.2036,41.60698 59.28401,40.70375 2.7347,-8.24473 65.13543,-46.18246 91.81628,-48.06717 -2.40469,-10.95538 -6.83284,-14.6046 -6.83284,-14.6046 -32.90472,6.43679 -81.83737,49.11381 -84.62106,56.7466 -26.35917,-2.22109 -39.39317,-52.80653 -54.99875,-48.07445 -0.72964,1.58795 -4.99234,10.64147 -4.64764,13.29587 z" id="path4161" sodipodi:nodetypes="ccccccc" style="display:inline;fill-opacity:1;fill:#aa8800;stroke-width:0.48342791"/><path d="m 275.74912,555.98222 c -0.0733,0.33846 -21.77878,26.53936 -3.30722,128.9555 0.42691,0.0404 2.33812,0.64667 2.33812,0.64667 -19.27515,-100.19136 1.01255,-121.32454 1.37872,-127.33536 -0.19892,-0.56725 -0.1407,-2.31747 -0.40962,-2.26681 z" id="path4163" sodipodi:nodetypes="ccccc" style="display:inline;fill-opacity:1;fill:#aa8800;stroke-width:0.77294189"/><path d="m 266.30425,596.44599 c -0.20912,-0.27604 -24.60426,-30.62733 -34.05552,-146.48871 0.37009,-0.21659 2.52829,2.29408 2.52829,2.29408 10.61316,109.94003 28.77918,136.24386 31.645,141.54019 0.0587,0.59823 0.14744,2.58703 -0.11777,2.65444 z" id="path4165" sodipodi:nodetypes="ccccc" style="display:inline;fill-opacity:1;fill:#aa8800;stroke-width:0.77294189"/><path d="m 365.32106,600.9202 c -5.2516,32.38574 -18.92928,45.1153 -22.40423,77.90141 0.78046,1.27784 0.9239,1.9946 0.9239,1.9946 2.40748,-33.39326 16.67943,-44.22719 21.24535,-76.09183 -0.15472,-0.78823 0.5039,-3.85484 0.23498,-3.80418 z" id="path4167" sodipodi:nodetypes="ccccc" style="display:inline;fill-opacity:1;fill:#aa8800;stroke-width:0.77294189"/><path d="m 303.34276,680.35672 c -0.62337,2.8393 -3.78473,9.79728 -3.95693,14.69746 3.06295,5.01904 12.06374,15.4662 22.07141,15.55672 17.10132,0.15467 23.24182,-14.92172 23.24182,-14.92172 l -1.58928,-14.53527 c -11.08876,-21.10464 -27.4928,-24.0762 -39.76702,-0.79719 z" id="path4169" sodipodi:nodetypes="ccsccc" style="display:inline;fill-opacity:1;fill:#1a1a1a;stroke-width:1.09150815"/><path d="m 371.76891,561.85987 c -0.10136,-0.2047 -31.04545,-31.04257 -35.62531,-116.95996 0.17934,-0.16061 2.48771,-1.37296 2.48771,-1.37296 5.1429,81.5264 31.89972,110.59325 33.28843,114.52076 0.0284,0.44362 -0.0222,3.76217 -0.15085,3.81216 z" id="path4171" sodipodi:nodetypes="cccccc" style="display:inline;fill-opacity:1;fill:#aa8800;stroke-width:0.4633396"/><path d="m 277.46325,559.6569 c 0.0507,-0.1762 6.47616,-14.21064 2.6419,-84.44865 -0.13157,-0.11279 -1.80667,1.69063 -1.80667,1.69063 3.11057,66.72646 -0.98778,73.69821 -1.59331,77.02461 0.0167,0.36313 0.66894,5.70541 0.75809,5.73341 z" id="path4173" sodipodi:nodetypes="cccccc" style="display:inline;fill-opacity:1;fill:#aa8800;stroke-width:0.3422533"/></svg>
