<svg viewBox="0 0 560 1000"><path d="m 283.66521,456.38067 c -1.54841,0.73859 -1.78928,15.78672 -9.24659,11.14886 -5.5459,3.1603 -10.12915,-4.94173 -10.42429,-8.4126 -0.25114,-2.95343 3.37748,-7.20053 3.87403,-6.51846 2.14579,-0.003 16.30971,2.85987 15.79685,3.7822 z" class="shadow" id="path3878" sodipodi:nodetypes="ccscc" inkscape:label="#PussyshadowN"/><path d="m 274.36595,467.58332 c -3.81452,2.31718 -9.64064,-2.27902 -10.8644,-11.68664 5.95334,-21.67633 25.49385,-8.31185 20.23612,0.35499 -2.87984,4.74713 -3.52005,14.37508 -9.37172,11.33165 z" class="skin torso" id="path3880" sodipodi:nodetypes="ccsc" inkscape:label="#PussyN"/><path style="display:inline;fill-opacity:1;fill:#550000;stroke-dasharray:none;stroke-linecap:butt;stroke-linejoin:miter;stroke-miterlimit:4;stroke-opacity:1;stroke-width:0;stroke:#000000" d="m 268.15022,466.84042 c 1.97544,1.15064 3.44304,1.50895 6.29117,0.74829 1.48394,1.11892 3.67809,1.01117 5.52348,-0.15189 7.82224,-13.26047 17.50609,-22.59748 28.5432,-30.20656 15.92414,-7.32512 35.65563,-13.9168 53.63813,-16.61521 1.23117,-3.1619 1.68227,-3.76161 2.13393,-4.78976 -6.98714,2.20071 -22.51132,7.70378 -29.76675,10.33389 -24.29445,8.80678 -49.30882,19.5271 -67.78558,12.72247 -9.19987,1.7019 -17.1878,-0.81844 -23.32533,-3.95341 -4.55174,-2.32496 -10.86997,-4.23668 -19.09203,-20.26188 0.42664,8.69013 22.80751,34.79862 43.83979,52.17406 z" id="path3882" sodipodi:nodetypes="ccccccscsccc"/><path style="display:inline;fill-opacity:1;fill:#2b0000;stroke-dasharray:none;stroke-linecap:butt;stroke-linejoin:miter;stroke-miterlimit:4;stroke-opacity:1;stroke-width:0;stroke:#000000" d="m 275.25299,462.86252 c -6.58379,-2.05713 -8.97807,-13.24652 -9.4981,-23.86278 -1.07418,0.15185 -1.78047,0.0916 -3.12071,0.37515 0.10978,11.93368 2.68079,23.93364 12.61881,23.48763 z" id="path3884" sodipodi:nodetypes="cccc"/><path style="display:inline;fill-opacity:1;fill:#2b0000;stroke-dasharray:none;stroke-linecap:butt;stroke-linejoin:miter;stroke-miterlimit:4;stroke-opacity:1;stroke-width:0;stroke:#000000" d="m 232.01359,429.27083 c 0.26572,-0.3522 0.52338,-0.70987 0.7725,-1.07137 -0.29849,-0.3272 -0.7716,-0.94227 -0.7716,-0.94227 -0.30788,0.45912 -0.65581,0.94298 -1.00603,1.40214 0.31554,0.91926 0.31461,0.36013 1.00513,0.6115 z" id="path3886" sodipodi:nodetypes="ccccc"/><path sodipodi:nodetypes="cccc" id="path3888" class="shadow" d="m 308.2039,435.78241 c 0,0 -21.36416,18.05915 -22.90518,20.89604 6.85085,-6.07995 28.65766,-22.84858 28.65766,-22.84858 z"/><path sodipodi:nodetypes="ccc" id="path3890" class="shadow" d="m 262.16576,457.53039 c -6.81704,-9.41592 -28.83006,-31.99347 -34.93819,-34.15183 5.05404,5.44075 26.5203,25.35081 34.93819,34.15183 z"/><path d="m 262.98857,459.03749 c 4.57815,9.39542 7.95428,8.94718 11.45233,8.01034 0.29456,-0.0789 5.02218,4.77996 9.26343,-8.71666 -1.38475,8.70911 -4.94655,11.74021 -9.3291,9.59651 -0.0226,-0.0111 -2.82256,1.04466 -4.71233,0.003 -2.95847,-1.63089 -6.486,-5.681 -6.67433,-8.8931 z" class="shadow" id="path3892" sodipodi:nodetypes="cscsscc"/><path sodipodi:nodetypes="cccc" id="path3894" d="m 335.37111,425.83232 c 8.90478,-2.06457 25.79776,-6.87759 27.68022,-6.82607 0.17382,-1.68154 1.0928,-2.2079 0.8411,-3.10989 -1.75576,0.62762 -16.10436,3.44602 -28.52132,9.93596 z" style="display:inline;fill-opacity:1;fill:#2b0000;stroke-dasharray:none;stroke-linecap:butt;stroke-linejoin:miter;stroke-miterlimit:4;stroke-opacity:1;stroke-width:0;stroke:#000000"/><path sodipodi:nodetypes="ccsccc" id="path5105-9-0-7-3-3-7-8" d="m 314.29363,275.41775 c -11.17521,-9.01494 -12.4097,-15.14101 -7.89117,-19.74018 4.39197,-3.8424 6.88957,2.34093 7.73764,2.30651 0.91083,-0.037 3.81637,-6.6957 8.90989,-1.10433 1.95047,3.23747 3.85989,8.22888 -8.75638,18.538 z" style="display:inline;fill-opacity:1;fill:#800000;opacity:1"/><path sodipodi:nodetypes="cccssssscc" id="path5108-0-36-8-9-1-3-0" d="m 250.89207,252.6388 c 2.17936,3.1811 1.53948,6.60232 -0.25668,9.35142 -1.76376,4.04756 -8.95235,7.38221 -13.05084,10.98292 -0.31955,-0.6623 -0.43976,-2.94107 -0.17968,-5.70202 0.36114,-3.83527 0.82687,-8.67702 1.38235,-11.41026 0.0255,-0.12488 0.018,-0.28223 0.10023,-0.35303 0.41452,-0.35698 2.14562,-2.10082 3.35102,-3.0726 1.76992,-1.42689 2.65742,-1.49977 3.54382,-1.65913 0.96726,-0.17389 -1.036,1.82822 -0.91963,2.00476 0.16707,0.10437 4.61931,-2.05348 6.02941,-0.14206 z" style="display:inline;fill-opacity:1;fill:#800000;opacity:1;stroke-width:1.0654707"/></svg>
