<svg viewBox="0 0 560 1000"><path class="areola" id="path3894" d="m 275.26383,165.69589 -5e-5,-5e-5 c -0.24741,-0.21873 -0.40657,-0.43196 -0.41866,-0.53431 1.41051,-1.13078 3.10302,-5.42572 6.79803,-2.99926 1.0991,-0.49268 2.23959,-0.89251 3.34059,-0.72346 5.00348,0.76824 8.92822,4.12479 10.20294,3.97254 -0.0429,1.10502 -7.00052,7.06994 -12.18514,6.54958 -6.4232,-0.80062 -7.53249,-6.04094 -7.73771,-6.26504 z" sodipodi:nodetypes="ccccsccc"/><path id="path3896" style="display:inline;fill:#000000;stroke-width:0.1766593" d="m 278.66392,170.63194 c -0.48823,-0.55313 -0.94513,-0.83866 -0.91035,-0.87323 0.0348,-0.0345 0.60815,0.26408 1.27417,0.66364 1.73099,1.03849 3.36922,1.33406 5.12985,1.17917 0.78844,-0.0694 2.47989,-0.37328 3.14763,-0.599 0.66776,-0.22571 1.16635,-0.33359 1.10796,-0.23972 -0.1986,0.31932 -2.3428,1.10869 -3.45728,1.36983 -1.08113,0.25333 -2.46722,0.10658 -3.34047,-0.0974 -1.29529,-0.41154 -2.06003,-0.54923 -2.95151,-1.40329 z m 13.18692,-4.32798 c -2.22376,-0.10242 -7.01541,-0.29776 -8.36097,-0.0775 -0.0857,0.014 -0.16151,0.0302 -0.22634,0.0487 0.7512,-0.51391 6.21556,-0.22691 8.57782,-0.19148 2.57137,0.20265 3.50313,-1.09346 3.56206,-0.88158 -0.75281,1.83193 -1.93934,1.26302 -3.55257,1.10185 z m -15.36172,-0.33201 c -1.1212,0.022 -1.41984,-0.0675 -1.71764,-0.90297 0.60515,0.5295 1.43281,0.48596 1.60637,0.53642 0.0863,0.0273 0.98403,-0.0182 1.65631,-0.0546 0.62172,0.0499 1.10632,0.24358 1.04513,0.13458 -0.34377,-0.61121 0.41619,-0.16132 0.7339,-0.0419 1.30506,0.73197 2.45806,0.85175 3.55539,0.36936 0.69408,-0.30513 1.17885,-0.42925 0.98015,-0.19058 -0.34879,0.41889 -1.94555,1.04322 -2.56702,1.03329 -0.2924,-0.005 -0.95334,-0.15125 -1.46877,-0.32575 v -5e-5 c -0.51542,-0.17449 -0.95402,-0.34725 -0.97465,-0.38389 -0.009,-0.0159 -0.88249,-0.31153 -1.2757,-0.3485 -0.60888,-0.0728 -1.54404,0.13933 -1.57347,0.17459 z m 3.02196,-4.20121 c -0.89452,-0.0177 -0.8936,-0.52188 0.0122,-0.52188 0.37776,0 0.86496,0.17285 1.12083,0.26955 0.33772,0.1276 1.00203,0.4094 1.92664,0.20034 1.70188,-0.38468 1.98692,-0.91574 2.79194,-0.5742 l 2.02648,0.85976 -1.97502,-0.4098 c -1.1964,-0.24824 -1.25695,0.2838 -2.1894,0.57567 -1.2319,0.38365 -1.62825,0.30219 -2.22514,0.19898 -0.5969,-0.22821 -1.11725,-0.59105 -1.48849,-0.59842 z" sodipodi:nodetypes="ccccccccccccccccccccccccccsccccccscsccccc"/><path sodipodi:nodetypes="cccc" id="path3290-3" d="m 274.01652,161.87982 c 0.51349,0.2189 1.51514,-0.95076 0.75581,-1.45953 -0.9307,-0.30724 -1.66244,1.18116 -0.75579,1.45951 z" style="display:inline;fill:#000000;stroke-width:0.31387603"/></svg>
