<svg viewBox="0 0 560 1000"><path sodipodi:nodetypes="ccccccccc" id="path9392" d="m 300.27148,120.36328 c -6.39393,0.82046 -7.51133,0.78228 -7.99567,1.1075 -1.32707,1.66677 -2.57778,2.86774 -3.90472,4.86711 0.0887,0.14352 1.74874,-0.5119 5.25977,-2.07812 2.071,-0.92383 3.86634,-1.33984 7.32226,-1.69141 7.27906,-0.27556 11.9666,1.26049 17.14258,5.35547 0.48116,0.42269 0.94887,0.77334 1.03907,0.77734 0.43773,0.0219 0.0377,-0.4521 -1.25782,-1.49023 -4.86952,-4.20931 -12.19188,-7.18194 -17.60547,-6.84766 z" class="eyebrow_hair"/><path sodipodi:nodetypes="cccccc" id="path9394" d="m 260.88281,126.38867 c -0.0161,0.29695 0.23749,0.17894 2.41211,-1.13476 4.01771,-2.55502 7.88734,-2.33993 11.84961,-1.1211 1.21883,0.59568 3.91381,2.47367 4.00391,2.41797 -0.13978,-0.60284 -1.52098,-4.45767 -1.83319,-4.72132 -5.78044,-2.46674 -12.24223,1.32754 -16.43244,4.55921 z" class="eyebrow_hair"/></svg>
