<svg viewBox="0 0 560 1000"><path sodipodi:nodetypes="ccc" id="path3616-1" d="m 362.90387,406.34995 c -57.45727,-0.71713 -86.55004,16.38178 -92.10581,15.86638 -5.08786,-0.24546 -27.83305,-12.51527 -45.39992,-16.46155" style="display:inline;fill-rule:evenodd;fill:none;stroke-dasharray:none;stroke-linecap:round;stroke-linejoin:miter;stroke-miterlimit:3;stroke-opacity:1;stroke-width:2;stroke:#ffa000"/><path sodipodi:nodetypes="csssssscssc" id="path3618-2" d="m 363.1853,423.64808 c -0.2357,0.27481 -1.48581,1.72424 -8.04503,-0.0461 -0.3188,-0.0861 -0.4378,0.0547 -0.47622,0.11003 -1.32966,1.91526 -7.28404,7.44997 -24.25753,1.83503 -0.45715,-0.15123 -0.90662,0.21796 -1.30967,0.38501 -5.70325,2.36378 -5.4148,11.90297 -29.543,4.17481 -0.22981,-0.0736 -0.39894,0.21044 -0.54035,0.31931 -18.26161,14.05935 -24.00606,2.94835 -29.39785,2.44816 -9.59822,4.83966 -16.11328,6.80793 -25.59183,-5.08079 -0.0209,-0.0262 -0.33689,-0.7279 -0.92746,-0.48621 -9.697,3.96859 -17.49193,-6.94925 -19.13064,-9.70705" style="display:inline;fill-rule:evenodd;fill:none;stroke-dasharray:none;stroke-linecap:round;stroke-linejoin:miter;stroke-miterlimit:3;stroke-opacity:1;stroke-width:1;stroke:#ffa000"/><path sodipodi:nodetypes="cc" id="path3620-6" d="m 223.23635,420.10032 c 0.0194,-0.29292 1.03967,-1.32614 1.20518,-1.77659" style="display:inline;fill-rule:evenodd;fill:none;stroke-dasharray:none;stroke-linecap:round;stroke-linejoin:miter;stroke-miterlimit:3;stroke-opacity:1;stroke-width:1;stroke:#ffa000"/><path sodipodi:nodetypes="cc" id="path3622-6" d="m 225.67061,423.66795 c 0.0194,-0.29292 1.03967,-1.32614 1.20518,-1.77659" style="display:inline;fill-rule:evenodd;fill:none;stroke-dasharray:none;stroke-linecap:round;stroke-linejoin:miter;stroke-miterlimit:3;stroke-opacity:1;stroke-width:1;stroke:#ffa000"/><path sodipodi:nodetypes="cc" id="path3624-7" d="m 228.36646,427.55704 c 0.0194,-0.29292 1.65839,-1.98905 1.8239,-2.4395" style="display:inline;fill-rule:evenodd;fill:none;stroke-dasharray:none;stroke-linecap:round;stroke-linejoin:miter;stroke-miterlimit:3;stroke-opacity:1;stroke-width:1;stroke:#ffa000"/><path sodipodi:nodetypes="cc" id="path3626-1" d="m 233.66976,430.58434 c 0.19516,-0.34431 0.89926,-2.15329 1.29357,-2.96983" style="display:inline;fill-rule:evenodd;fill:none;stroke-dasharray:none;stroke-linecap:round;stroke-linejoin:miter;stroke-miterlimit:3;stroke-opacity:1;stroke-width:1;stroke:#ffa000"/><path sodipodi:nodetypes="cc" id="path3628-3" d="m 242.42139,430.36369 c 0.19516,-0.34431 0.54571,-1.79974 0.94002,-2.61628" style="display:inline;fill-rule:evenodd;fill:none;stroke-dasharray:none;stroke-linecap:round;stroke-linejoin:miter;stroke-miterlimit:3;stroke-opacity:1;stroke-width:1;stroke:#ffa000"/><path sodipodi:nodetypes="cc" id="path3630-1" d="m 247.71772,437.80822 c 0.19516,-0.34431 0.98321,-3.42474 1.37752,-4.24128" style="display:inline;fill-rule:evenodd;fill:none;stroke-dasharray:none;stroke-linecap:round;stroke-linejoin:miter;stroke-miterlimit:3;stroke-opacity:1;stroke-width:1;stroke:#ffa000"/><path sodipodi:nodetypes="cc" id="path3632-2" d="m 254.43647,440.99572 c 0.19516,-0.34431 0.67071,-3.61224 1.06502,-4.42878" style="display:inline;fill-rule:evenodd;fill:none;stroke-dasharray:none;stroke-linecap:round;stroke-linejoin:miter;stroke-miterlimit:3;stroke-opacity:1;stroke-width:1;stroke:#ffa000"/><path sodipodi:nodetypes="cc" id="path3634-5" d="m 262.34272,440.27697 c 0.19516,-0.34431 -0.14179,-3.36224 0.25252,-4.17878" style="display:inline;fill-rule:evenodd;fill:none;stroke-dasharray:none;stroke-linecap:round;stroke-linejoin:miter;stroke-miterlimit:3;stroke-opacity:1;stroke-width:1;stroke:#ffa000"/><path sodipodi:nodetypes="cc" id="path3636-8" d="m 269.43647,436.08947 c 0.19516,-0.34431 0.10821,-2.04974 0.25252,-3.11628" style="display:inline;fill-rule:evenodd;fill:none;stroke-dasharray:none;stroke-linecap:round;stroke-linejoin:miter;stroke-miterlimit:3;stroke-opacity:1;stroke-width:1;stroke:#ffa000"/><path sodipodi:nodetypes="cc" id="path3638-4" d="m 277.31253,440.05854 c 0.19516,-0.34431 0.10821,-2.04974 0.25252,-3.11628" style="display:inline;fill-rule:evenodd;fill:none;stroke-dasharray:none;stroke-linecap:round;stroke-linejoin:miter;stroke-miterlimit:3;stroke-opacity:1;stroke-width:1;stroke:#ffa000"/><path sodipodi:nodetypes="cc" id="path3640-2" d="m 285.50003,440.80854 c 0.19516,-0.34431 0.10821,-2.04974 0.25252,-3.11628" style="display:inline;fill-rule:evenodd;fill:none;stroke-dasharray:none;stroke-linecap:round;stroke-linejoin:miter;stroke-miterlimit:3;stroke-opacity:1;stroke-width:1;stroke:#ffa000"/><path sodipodi:nodetypes="cc" id="path3642-4" d="m 292.75003,439.37104 c 0.19516,-0.34431 0.23321,-3.04974 -0.12248,-4.11628" style="display:inline;fill-rule:evenodd;fill:none;stroke-dasharray:none;stroke-linecap:round;stroke-linejoin:miter;stroke-miterlimit:3;stroke-opacity:1;stroke-width:1;stroke:#ffa000"/><path sodipodi:nodetypes="cc" id="path3644-5" d="m 299.61412,434.62089 c 0.19516,-0.34431 0.23321,-3.04974 -0.12248,-4.11628" style="display:inline;fill-rule:evenodd;fill:none;stroke-dasharray:none;stroke-linecap:round;stroke-linejoin:miter;stroke-miterlimit:3;stroke-opacity:1;stroke-width:1;stroke:#ffa000"/><path sodipodi:nodetypes="cc" id="path3646-3" d="m 308.61412,436.68339 c 0.19516,-0.34431 0.23321,-3.04974 -0.12248,-4.11628" style="display:inline;fill-rule:evenodd;fill:none;stroke-dasharray:none;stroke-linecap:round;stroke-linejoin:miter;stroke-miterlimit:3;stroke-opacity:1;stroke-width:1;stroke:#ffa000"/><path sodipodi:nodetypes="cc" id="path3648-4" d="m 316.92662,437.24589 c 0.19516,-0.34431 0.23321,-3.04974 -0.12248,-4.11628" style="display:inline;fill-rule:evenodd;fill:none;stroke-dasharray:none;stroke-linecap:round;stroke-linejoin:miter;stroke-miterlimit:3;stroke-opacity:1;stroke-width:1;stroke:#ffa000"/><path sodipodi:nodetypes="cc" id="path3650-1" d="m 324.98911,433.80839 c 0.19516,-0.34431 0.0457,-2.54974 -0.30998,-3.61628" style="display:inline;fill-rule:evenodd;fill:none;stroke-dasharray:none;stroke-linecap:round;stroke-linejoin:miter;stroke-miterlimit:3;stroke-opacity:1;stroke-width:1;stroke:#ffa000"/><path sodipodi:nodetypes="cc" id="path3652-3" d="m 330.55046,429.43339 c 0.19516,-0.34431 0.0457,-2.54974 -0.30998,-3.61628" style="display:inline;fill-rule:evenodd;fill:none;stroke-dasharray:none;stroke-linecap:round;stroke-linejoin:miter;stroke-miterlimit:3;stroke-opacity:1;stroke-width:1;stroke:#ffa000"/><path sodipodi:nodetypes="cc" id="path3654-1" d="m 339.30046,431.49589 c 0.19516,-0.34431 0.0457,-2.54974 -0.30998,-3.61628" style="display:inline;fill-rule:evenodd;fill:none;stroke-dasharray:none;stroke-linecap:round;stroke-linejoin:miter;stroke-miterlimit:3;stroke-opacity:1;stroke-width:1;stroke:#ffa000"/><path sodipodi:nodetypes="cc" id="path3656-3" d="m 346.48796,431.87089 c 0.19516,-0.34431 0.0457,-2.54974 -0.30998,-3.61628" style="display:inline;fill-rule:evenodd;fill:none;stroke-dasharray:none;stroke-linecap:round;stroke-linejoin:miter;stroke-miterlimit:3;stroke-opacity:1;stroke-width:1;stroke:#ffa000"/><path sodipodi:nodetypes="cc" id="path3658-1" d="m 352.30046,430.74589 c 0.19516,-0.34431 -1.0793,-2.48724 -1.43498,-3.55378" style="display:inline;fill-rule:evenodd;fill:none;stroke-dasharray:none;stroke-linecap:round;stroke-linejoin:miter;stroke-miterlimit:3;stroke-opacity:1;stroke-width:1;stroke:#ffa000"/><path sodipodi:nodetypes="cc" id="path3660-4" d="m 356.57907,427.65214 c 0.19516,-0.34431 -1.0793,-2.48724 -1.43498,-3.55378" style="display:inline;fill-rule:evenodd;fill:none;stroke-dasharray:none;stroke-linecap:round;stroke-linejoin:miter;stroke-miterlimit:3;stroke-opacity:1;stroke-width:1;stroke:#ffa000"/><path sodipodi:nodetypes="cc" id="path3662-7" d="m 361.20407,428.40214 c 0.19516,-0.34431 -1.0793,-2.48724 -1.43498,-3.55378" style="display:inline;fill-rule:evenodd;fill:none;stroke-dasharray:none;stroke-linecap:round;stroke-linejoin:miter;stroke-miterlimit:3;stroke-opacity:1;stroke-width:1;stroke:#ffa000"/><path sodipodi:nodetypes="cc" id="path3664-7" d="m 364.51657,426.96464 c 0.19516,-0.34431 -1.0793,-1.48724 -1.43498,-2.55378" style="display:inline;fill-rule:evenodd;fill:none;stroke-dasharray:none;stroke-linecap:round;stroke-linejoin:miter;stroke-miterlimit:3;stroke-opacity:1;stroke-width:1;stroke:#ffa000"/><path sodipodi:nodetypes="cc" id="path3666-6" d="m 243.31147,427.37072 c 0.19516,-0.34431 0.60821,-7.92474 1.00252,-8.74128" style="display:inline;fill-rule:evenodd;fill:none;stroke-dasharray:none;stroke-linecap:round;stroke-linejoin:miter;stroke-miterlimit:3;stroke-opacity:1;stroke-width:1;stroke:#ffa000"/><circle cy="439.1481" cx="269.71753" class="steel_piercing" id="circle3668-3" r="4.5"/><path sodipodi:nodetypes="cc" id="path3670-4" d="m 269.74897,432.74572 c 0.19516,-0.34431 0.35821,-5.67474 0.75252,-6.49128" style="display:inline;fill-rule:evenodd;fill:none;stroke-dasharray:none;stroke-linecap:round;stroke-linejoin:miter;stroke-miterlimit:3;stroke-opacity:1;stroke-width:1;stroke:#ffa000"/><ellipse cy="421.19263" cx="270.76962" class="steel_piercing" id="ellipse3672-9" rx="7" ry="10"/><circle cy="443.74545" cx="262.19495" class="steel_piercing" id="circle3674-8" r="4.5"/><path sodipodi:nodetypes="cc" id="path3676-9" d="m 299.49897,430.12072 c 0.19516,-0.34431 -0.39179,-9.04974 0.003,-9.86628" style="display:inline;fill-rule:evenodd;fill:none;stroke-dasharray:none;stroke-linecap:round;stroke-linejoin:miter;stroke-miterlimit:3;stroke-opacity:1;stroke-width:1;stroke:#ffa000"/><circle cy="444.21771" cx="276.6889" class="steel_piercing" id="circle3678-1" r="4.5"/><path sodipodi:nodetypes="cc" id="path3680-0" d="m 330.24896,425.62072 c 0.19516,-0.34431 -2.26679,-10.04974 -1.87248,-10.86628" style="display:inline;fill-rule:evenodd;fill:none;stroke-dasharray:none;stroke-linecap:round;stroke-linejoin:miter;stroke-miterlimit:3;stroke-opacity:1;stroke-width:1;stroke:#ffa000"/><circle cy="445.08755" cx="285.26889" class="steel_piercing" id="circle3682-0" r="4.5"/><path sodipodi:nodetypes="cc" id="path3684-1" d="m 354.82712,423.74572 c 0.19516,-0.34431 -2.57929,-10.17474 -2.18498,-10.99128" style="display:inline;fill-rule:evenodd;fill:none;stroke-dasharray:none;stroke-linecap:round;stroke-linejoin:miter;stroke-miterlimit:3;stroke-opacity:1;stroke-width:1;stroke:#ffa000"/><circle cy="442.71625" cx="293.59882" class="steel_piercing" id="circle3686-5" r="4.5"/><path sodipodi:nodetypes="cc" id="path3688-3" d="m 223.7402,417.29532 c 0.19516,-0.34431 2.46436,-3.32855 2.85867,-4.14509" style="display:inline;fill-rule:evenodd;fill:none;stroke-dasharray:none;stroke-linecap:round;stroke-linejoin:miter;stroke-miterlimit:3;stroke-opacity:1;stroke-width:1;stroke:#ffa000"/><circle cy="436.80197" cx="300.10556" class="steel_piercing" id="circle3690-4" r="4.5"/><circle cy="439.18954" cx="308.53906" class="steel_piercing" id="circle3692-7" r="4.5"/><circle cy="440.12891" cx="317.09753" class="steel_piercing" id="circle3694-5" r="4.5"/><circle cy="437.72357" cx="325.28104" class="steel_piercing" id="circle3696-0" r="4.5"/><circle cy="431.59854" cx="330.96457" class="steel_piercing" id="circle3698-3" r="4.5"/><circle cy="444.45062" cx="253.58946" class="steel_piercing" id="circle3700-6" r="4.5"/><circle cy="434.45062" cx="232.96448" class="steel_piercing" id="circle3702-2" r="4.5"/><circle cy="433.57562" cx="241.46448" class="steel_piercing" id="circle3704-9" r="4.5"/><circle cy="440.70062" cx="245.96448" class="steel_piercing" id="circle3706-2" r="4.5"/><ellipse cy="457.69293" cx="222.11871" class="steel_piercing" id="ellipse3708-3" rx="7" ry="10" transform="rotate(-10.024652)"/><ellipse cy="485.68515" cx="188.23273" class="steel_piercing" id="ellipse3710-2" rx="7" ry="10" transform="rotate(-17.507551)"/><ellipse cy="312.60837" cx="363.74295" class="steel_piercing" id="ellipse3712-4" rx="7" ry="10" inkscape:transform-center-x="-25.994311" inkscape:transform-center-y="9.2237114" transform="rotate(18.434795)"/><ellipse cy="304.71436" cx="379.88785" class="steel_piercing" id="ellipse3718-8" rx="3.25" ry="4.5" transform="rotate(23.583121)"/><ellipse cy="334.91016" cx="405.88184" class="steel_piercing" id="ellipse3720-2" rx="1.3713783" ry="5.3589725" transform="matrix(0.9460643,0.32397892,-0.48625957,0.87381441,0,0)"/><ellipse cy="337.91675" cx="409.8335" class="steel_piercing" id="ellipse3722-1" rx="2.3335655" ry="4.9708085" transform="matrix(0.94643691,0.32288881,-0.48765793,0.87303479,0,0)"/><circle cy="433.87497" cx="339.12503" class="steel_piercing" id="circle3724-5" r="4.5"/><ellipse cy="529.38922" cx="168.46951" class="steel_piercing" id="ellipse3726-5" rx="3.1875" ry="4.5" transform="rotate(-20.975779)"/><ellipse cy="531.02057" cx="174.4707" class="steel_piercing" id="ellipse3728-4" rx="3.1875" ry="4.5" transform="rotate(-20.975779)"/><ellipse cy="560.08337" cx="117.66714" class="steel_piercing" id="ellipse3730-5" rx="2.731339" ry="4.4112439" transform="matrix(0.82273256,-0.56842865,0.46444683,0.885601,0,0)"/><ellipse cy="595.09979" cx="111.13579" class="steel_piercing" id="ellipse3732-4" rx="2.1979663" ry="4.0616369" transform="matrix(0.61972803,-0.78481665,0.49235617,0.87039382,0,0)"/><ellipse cy="597.31372" cx="115.02454" class="steel_piercing" id="ellipse3734-3" rx="2.1979663" ry="4.0616369" transform="matrix(0.61972803,-0.78481665,0.49235617,0.87039382,0,0)"/><path sodipodi:nodetypes="cscsc" id="path3736-4" d="m 354.71962,365.90588 c -0.21128,0.10913 -28.61086,5.09191 -28.82373,5.19834 -15.88099,7.93986 -36.15312,8.34515 -54.68516,-0.66373 -0.22037,0.29902 -23.43296,8.77932 -28.9891,1.0912 -0.24612,-0.34057 -11.44136,-5.47435 -11.61466,-5.88049" style="display:inline;fill-rule:evenodd;fill:none;stroke-dasharray:none;stroke-linecap:round;stroke-linejoin:miter;stroke-miterlimit:3;stroke-opacity:1;stroke-width:2;stroke:#ffa000"/><path sodipodi:nodetypes="cc" id="path3738-7" d="m 289.20473,377.13207 c -16.18117,18.53347 -21.95799,21.07463 -34.11355,-0.009" style="display:inline;fill-rule:evenodd;fill:none;stroke-dasharray:none;stroke-linecap:round;stroke-linejoin:miter;stroke-miterlimit:3;stroke-opacity:1;stroke-width:1;stroke:#ffa000"/><path sodipodi:nodetypes="cc" id="path3740-5" d="m 254.82089,376.68415 c -16.18117,18.53347 -25.59662,1.70762 -26.96881,-0.99123" style="display:inline;fill-rule:evenodd;fill:none;stroke-dasharray:none;stroke-linecap:round;stroke-linejoin:miter;stroke-miterlimit:3;stroke-opacity:1;stroke-width:1;stroke:#ffa000"/><path sodipodi:nodetypes="cc" id="path3742-4" d="m 289.11557,376.86093 c 14.57798,18.00314 27.71627,12.76612 32.53126,-3.72132" style="display:inline;fill-rule:evenodd;fill:none;stroke-dasharray:none;stroke-linecap:round;stroke-linejoin:miter;stroke-miterlimit:3;stroke-opacity:1;stroke-width:1;stroke:#ffa000"/><path style="display:inline;fill:#787878;stroke-width:3.74999905" d="m 275.67548,371.64722 c -10e-6,0.33659 -4.31336,6.18535 -4.5,6.26777 -0.14153,0.0625 -4.49998,-5.77493 -4.5,-6.26777 -10e-6,-0.27409 4.29597,-6.26777 4.5,-6.26777 0.32903,0 4.50001,5.89993 4.5,6.26777 z" id="path3744-5" sodipodi:nodetypes="sssss"/><path style="display:inline;fill:#787878;stroke-width:3.5895772" d="m 292.97818,375.36285 c 0.0301,0.33499 -3.38132,6.57611 -3.54417,6.67632 -0.12348,0.076 -4.61904,-5.3091 -4.66305,-5.7996 -0.0245,-0.27278 3.35811,-6.65644 3.54416,-6.67632 0.30005,-0.032 4.63024,5.43351 4.66306,5.7996 z" id="path3746-3" sodipodi:nodetypes="sssss"/><path style="display:inline;fill:#787878;stroke-width:3.56161857" d="m 310.13483,376.31339 c 0.037,0.33408 -3.1818,6.66498 -3.33984,6.76953 -0.11985,0.0793 -4.66391,-5.18339 -4.71811,-5.67255 -0.0301,-0.27204 3.15717,-6.74466 3.33984,-6.76953 0.2946,-0.0401 4.67768,5.30745 4.71811,5.67255 z" id="path3748-7" sodipodi:nodetypes="sssss"/><path style="display:inline;fill:#787878;stroke-width:3.31919122" d="m 258.53239,374.62653 c -0.0365,0.33665 -3.98213,5.57871 -4.1344,5.63485 -0.11546,0.0425 -2.83125,-6.41017 -2.77794,-6.9031 0.0296,-0.27415 3.97769,-5.66361 4.13439,-5.63485 0.25271,0.0464 2.81776,6.53518 2.77795,6.9031 z" id="path3750-5" sodipodi:nodetypes="sssss"/><path style="display:inline;fill:#787878;stroke-width:2.57942367" d="m 244.23081,373.04463 c -0.11143,0.30947 -3.75247,4.25386 -3.85348,4.26763 -0.0766,0.0105 0.1359,-6.80424 0.29915,-7.25736 0.0908,-0.25201 3.77289,-4.33542 3.85347,-4.26764 0.12994,0.10931 -0.17729,6.91918 -0.29914,7.25737 z" id="path3752-5" sodipodi:nodetypes="sssss"/><path sodipodi:nodetypes="cc" id="path3754-6" d="m 321.90943,373.61222 c 4.39093,11.12191 34.37262,11.02082 35.14682,-0.85215" style="display:inline;fill-rule:evenodd;fill:none;stroke-dasharray:none;stroke-linecap:round;stroke-linejoin:miter;stroke-miterlimit:3;stroke-opacity:1;stroke-width:1;stroke:#ffa000"/><path style="display:inline;fill:#787878;stroke-width:3.5006206" d="m 325.58565,371.91268 c 0.0691,0.32711 -2.38316,7.02741 -2.5243,7.15148 -0.10703,0.0941 -4.99654,-4.55228 -5.09773,-5.03124 -0.0563,-0.26637 2.3515,-7.10342 2.52428,-7.15148 0.27866,-0.0775 5.02224,4.67375 5.09775,5.03124 z" id="path3756-6" sodipodi:nodetypes="sssss"/><path sodipodi:nodetypes="cc" id="path3758-3" d="m 322.83505,203.04669 c -24.71012,13.94287 -36.74028,9.2776 -41.33117,0.83707" style="display:inline;fill-rule:evenodd;fill:none;stroke-dasharray:none;stroke-linecap:round;stroke-linejoin:miter;stroke-miterlimit:3;stroke-opacity:1;stroke-width:2;stroke:#ffa000"/><path sodipodi:nodetypes="cc" id="path3760-7" d="m 319.3583,200.04984 c -12.15898,8.81635 -30.3826,10.12487 -34.97349,1.68434" style="display:inline;fill-rule:evenodd;fill:none;stroke-dasharray:none;stroke-linecap:round;stroke-linejoin:miter;stroke-miterlimit:3;stroke-opacity:1;stroke-width:2;stroke:#ffa000"/><path sodipodi:nodetypes="cc" id="path3762-9" d="m 328.49263,206.04508 c -24.71012,13.94287 -46.82099,11.24804 -49.82089,-0.81642" style="display:inline;fill-rule:evenodd;fill:none;stroke-dasharray:none;stroke-linecap:round;stroke-linejoin:miter;stroke-miterlimit:3;stroke-opacity:1;stroke-width:2;stroke:#ffa000"/><path sodipodi:nodetypes="cscc" id="path3764-7" d="m 329.52609,226.13992 c 6.67893,9.10866 16.3354,22.17465 16.61608,22.99843 12.38899,36.36045 -48.42557,72.30695 -63.6428,16.265 -17.23013,40.31227 -45.35049,31.67689 -45.90033,20.15786" style="display:inline;fill-rule:evenodd;fill:none;stroke-dasharray:none;stroke-linecap:round;stroke-linejoin:miter;stroke-miterlimit:3;stroke-opacity:1;stroke-width:2;stroke:#ffa000"/><path sodipodi:nodetypes="cc" id="path3766-2" d="m 318.63776,294.14446 c -15.51773,22.42815 -62.938,21.24219 -69.65021,2.37183" style="display:inline;fill-rule:evenodd;fill:none;stroke-dasharray:none;stroke-linecap:round;stroke-linejoin:miter;stroke-miterlimit:3;stroke-opacity:1;stroke-width:2;stroke:#ffa000"/><path sodipodi:nodetypes="cc" id="path3768-8" d="m 303.07348,306.6678 c -15.51774,22.42815 -38.43801,18.74219 -45.15022,-0.12817" style="display:inline;fill-rule:evenodd;fill:none;stroke-dasharray:none;stroke-linecap:round;stroke-linejoin:miter;stroke-miterlimit:3;stroke-opacity:1;stroke-width:2;stroke:#ffa000"/><path sodipodi:nodetypes="cc" id="path3770-5" d="m 290.07348,319.04437 c -10.76774,20.17815 -20.18801,12.49219 -23.65022,-0.62817" style="display:inline;fill-rule:evenodd;fill:none;stroke-dasharray:none;stroke-linecap:round;stroke-linejoin:miter;stroke-miterlimit:3;stroke-opacity:1;stroke-width:2;stroke:#ffa000"/><path sodipodi:nodetypes="cc" id="path3772-7" d="m 276.63611,331.76745 c -0.11149,0.67815 -0.59426,4.92969 -0.46272,5.93433" style="display:inline;fill-rule:evenodd;fill:none;stroke-dasharray:none;stroke-linecap:round;stroke-linejoin:miter;stroke-miterlimit:3;stroke-opacity:1;stroke-width:2;stroke:#ffa000"/><path sodipodi:nodetypes="cc" id="path3774-0" d="m 266.73427,319.35931 c -0.11149,0.67815 -0.68265,8.37684 -0.55111,9.38148" style="display:inline;fill-rule:evenodd;fill:none;stroke-dasharray:none;stroke-linecap:round;stroke-linejoin:miter;stroke-miterlimit:3;stroke-opacity:1;stroke-width:2;stroke:#ffa000"/><path sodipodi:nodetypes="cc" id="path3776-5" d="m 290.4675,319.22672 c -0.11149,0.67815 -0.77103,8.20006 -0.63949,9.2047" style="display:inline;fill-rule:evenodd;fill:none;stroke-dasharray:none;stroke-linecap:round;stroke-linejoin:miter;stroke-miterlimit:3;stroke-opacity:1;stroke-width:2;stroke:#ffa000"/><path sodipodi:nodetypes="cc" id="path3778-6" d="m 302.88515,306.76397 c -0.11149,0.67815 -0.94781,9.08394 -0.81627,10.08858" style="display:inline;fill-rule:evenodd;fill:none;stroke-dasharray:none;stroke-linecap:round;stroke-linejoin:miter;stroke-miterlimit:3;stroke-opacity:1;stroke-width:2;stroke:#ffa000"/><path sodipodi:nodetypes="cc" id="path3780-5" d="m 257.80649,306.32203 c -0.11149,0.67815 -1.21298,8.73038 -1.08144,9.73502" style="display:inline;fill-rule:evenodd;fill:none;stroke-dasharray:none;stroke-linecap:round;stroke-linejoin:miter;stroke-miterlimit:3;stroke-opacity:1;stroke-width:2;stroke:#ffa000"/><path sodipodi:nodetypes="cc" id="path3782-2" d="m 248.82996,296.59932 c -0.11149,0.67815 -1.21298,10.67492 -1.08144,11.67956" style="display:inline;fill-rule:evenodd;fill:none;stroke-dasharray:none;stroke-linecap:round;stroke-linejoin:miter;stroke-miterlimit:3;stroke-opacity:1;stroke-width:2;stroke:#ffa000"/><path sodipodi:nodetypes="cc" id="path3784-1" d="m 318.12702,294.3896 c -0.11149,0.67815 -0.59426,10.49815 -0.46272,11.50279" style="display:inline;fill-rule:evenodd;fill:none;stroke-dasharray:none;stroke-linecap:round;stroke-linejoin:miter;stroke-miterlimit:3;stroke-opacity:1;stroke-width:2;stroke:#ffa000"/><path style="display:inline;fill:#787878;stroke-width:3.29897571" d="m 278.18571,340.15002 c -0.16782,4.06965 -1.25445,7.32954 -2.42707,7.28119 -1.17261,-0.0484 -1.98715,-3.38665 -1.81933,-7.45629 0.16782,-4.06965 1.97897,-7.28658 2.42706,-7.28119 0.24945,0.003 1.98716,3.38665 1.81934,7.45629 z" id="path3786-7" sodipodi:nodetypes="sssss"/><path style="display:inline;fill:#787878;stroke-width:3.29897571" d="m 268.00348,332.14976 c -0.16782,4.06965 -1.25445,7.32954 -2.42707,7.28119 -1.17261,-0.0484 -1.98715,-3.38665 -1.81933,-7.45629 0.16782,-4.06965 1.97897,-7.28658 2.42706,-7.28119 0.24945,0.003 1.98716,3.38665 1.81934,7.45629 z" id="path3788-6" sodipodi:nodetypes="sssss"/><path style="display:inline;fill:#787878;stroke-width:3.29897571" d="m 291.91509,331.35687 c -0.16782,4.06965 -1.25445,7.32954 -2.42707,7.28119 -1.17261,-0.0484 -1.98715,-3.38665 -1.81933,-7.45629 0.16782,-4.06965 1.97897,-7.28658 2.42706,-7.28119 0.24945,0.003 1.98716,3.38665 1.81934,7.45629 z" id="path3790-3" sodipodi:nodetypes="sssss"/><path style="display:inline;fill:#787878;stroke-width:3.29897571" d="m 304.15146,319.49698 c -0.16782,4.06965 -1.25445,7.32954 -2.42707,7.28119 -1.17261,-0.0484 -1.98715,-3.38665 -1.81933,-7.45629 0.16782,-4.06965 1.97897,-7.28658 2.42706,-7.28119 0.24945,0.003 1.98716,3.38665 1.81934,7.45629 z" id="path3792-2" sodipodi:nodetypes="sssss"/><path style="display:inline;fill:#787878;stroke-width:3.29897571" d="m 319.7078,306.68067 c -0.16782,4.06965 -1.25445,7.32954 -2.42706,7.28119 -1.17261,-0.0484 -1.98715,-3.38665 -1.81933,-7.45629 0.16782,-4.06965 1.97897,-7.28658 2.42706,-7.28119 0.24945,0.003 1.98715,3.38665 1.81933,7.45629 z" id="path3794-3" sodipodi:nodetypes="sssss"/><path style="display:inline;fill:#787878;stroke-width:3.29897571" d="m 258.80824,318.96665 c -0.16782,4.06965 -1.25445,7.32954 -2.42707,7.28119 -1.17261,-0.0484 -1.98715,-3.38665 -1.81933,-7.45629 0.16782,-4.06965 1.97897,-7.28658 2.42706,-7.28119 0.24945,0.003 1.98716,3.38665 1.81934,7.45629 z" id="path3796-2" sodipodi:nodetypes="sssss"/><path style="display:inline;fill:#787878;stroke-width:3.29897571" d="m 250.05779,308.71361 c -0.16782,4.06965 -1.25445,7.32954 -2.42707,7.28119 -1.17261,-0.0484 -1.98715,-3.38665 -1.81933,-7.45629 0.16782,-4.06965 1.97897,-7.28658 2.42706,-7.28119 0.24945,0.003 1.98716,3.38665 1.81934,7.45629 z" id="path3798-8" sodipodi:nodetypes="sssss"/><path sodipodi:nodetypes="cc" id="path3800-1" d="m 368.60237,280.30784 c -4.20403,1.92206 -22.2677,-0.3889 -24.38371,-6.17779" style="display:inline;fill-rule:evenodd;fill:none;stroke-dasharray:none;stroke-linecap:round;stroke-linejoin:miter;stroke-miterlimit:3;stroke-opacity:1;stroke-width:2;stroke:#ffa000"/><path sodipodi:nodetypes="cc" id="path3802-1" d="m 370.00037,271.74042 c -4.20403,1.92206 -21.0177,0.3611 -23.13371,-5.42779" style="display:inline;fill-rule:evenodd;fill:none;stroke-dasharray:none;stroke-linecap:round;stroke-linejoin:miter;stroke-miterlimit:3;stroke-opacity:1;stroke-width:2;stroke:#ffa000"/><path sodipodi:nodetypes="cc" id="path3804-9" d="m 266.83178,227.32942 c -2.32535,1.43462 -22.04435,16.22658 -27.34234,21.7514" style="display:inline;fill-rule:evenodd;fill:none;stroke-dasharray:none;stroke-linecap:round;stroke-linejoin:miter;stroke-miterlimit:3;stroke-opacity:1;stroke-width:2;stroke:#ffa000"/><path sodipodi:nodetypes="cc" id="path3806-7" d="m 329.39296,225.97066 c -2.61304,-4.08835 -8.96808,-8.86162 -11.08409,-14.65051" style="display:inline;fill-rule:evenodd;fill:none;stroke-dasharray:none;stroke-linecap:round;stroke-linejoin:miter;stroke-miterlimit:3;stroke-opacity:1;stroke-width:2;stroke:#ffa000"/><path sodipodi:nodetypes="cc" id="path3808-2" d="m 266.41569,227.4509 c 1.26196,-0.83835 11.65692,-13.11162 14.79091,-17.15051" style="display:inline;fill-rule:evenodd;fill:none;stroke-dasharray:none;stroke-linecap:round;stroke-linejoin:miter;stroke-miterlimit:3;stroke-opacity:1;stroke-width:2;stroke:#ffa000"/><path sodipodi:nodetypes="cssssc" id="path3810-6" d="m 370.453,254.62335 c -11.85102,4.53843 -26.06927,-6.54746 -26.65495,-6.75739 -30.71232,-11.00815 -40.61682,-19.34988 -59.71884,17.77294 -0.27206,0.52872 -1.1804,0.0197 -1.7609,0.003 -0.61878,-0.0179 -1.47969,0.11768 -1.64897,-0.39763 -10.30762,-31.37788 -6.14603,-28.52291 -41.2733,-16.38289" style="display:inline;fill-rule:evenodd;fill:none;stroke-dasharray:none;stroke-linecap:round;stroke-linejoin:miter;stroke-miterlimit:3;stroke-opacity:1;stroke-width:2;stroke:#ffa000"/><path sodipodi:nodetypes="cc" id="path3812-7" d="m 304.59658,240.08179 c -19.26899,10.1878 -31.40501,4.2203 -34.67319,1.0575" style="display:inline;fill-rule:evenodd;fill:none;stroke-dasharray:none;stroke-linecap:round;stroke-linejoin:miter;stroke-miterlimit:3;stroke-opacity:1;stroke-width:2;stroke:#ffa000"/><path style="display:inline;fill:#787878;stroke-width:2.40921926" d="m 340.16453,367.87229 c 0.0439,0.24407 -1.5129,5.24327 -1.6025,5.33584 -0.068,0.0702 -3.17195,-3.39653 -3.23619,-3.75389 -0.0357,-0.19874 1.49281,-5.29998 1.60249,-5.33584 0.17691,-0.0578 3.18826,3.48716 3.2362,3.75389 z" id="path3756-7-1" sodipodi:nodetypes="sssss"/><path class="steel_piercing" id="path3716-4-1" transform="matrix(0.91676246,-0.39943285,0.15344214,0.98815763,0,0)" sodipodi:type="arc" sodipodi:cx="306.46118" sodipodi:cy="535.12274" sodipodi:rx="3.020782" sodipodi:ry="7.9867902" sodipodi:start="0" sodipodi:end="6.271474" sodipodi:open="true" d="m 309.48196,535.12274 a 3.020782,7.9867902 0 0 1 -3.01193,7.98676 3.020782,7.9867902 0 0 1 -3.02958,-7.93999 3.020782,7.9867902 0 0 1 2.9942,-8.03325 3.020782,7.9867902 0 0 1 3.04711,7.89295"/><ellipse cy="400.01593" cx="243.0704" class="steel_piercing" id="ellipse3714-1-7" rx="1.8754634" ry="7.2519011" inkscape:transform-center-x="-7.3677975" inkscape:transform-center-y="0.57998741" transform="matrix(0.99964867,0.02650531,-0.04726023,0.99888261,0,0)"/><ellipse cy="466.76505" cx="341.07669" class="steel_piercing" id="ellipse3714-1-2-3-3-6" rx="3.8993185" ry="11.067118" inkscape:transform-center-x="-15.08218" inkscape:transform-center-y="-1.5320448" transform="matrix(0.99058316,-0.13691238,-0.22991978,0.97320958,0,0)"/><path class="steel_piercing" id="path3716-4-7-9-5-6" transform="matrix(0.98689685,-0.16135246,0.29903873,0.95424097,0,0)" sodipodi:type="arc" sodipodi:cx="215.24863" sodipodi:cy="461.95523" sodipodi:rx="5.584075" sodipodi:ry="10.220964" sodipodi:start="0" sodipodi:end="6.271474" sodipodi:open="true" d="m 220.8327,461.95523 a 5.584075,10.220964 0 0 1 -5.56772,10.22092 5.584075,10.220964 0 0 1 -5.60033,-10.16107 5.584075,10.220964 0 0 1 5.53493,-10.28042 5.584075,10.220964 0 0 1 5.63274,10.10087"/></svg>
