<svg viewBox="0 0 560 1000"><path style="display:inline;fill-opacity:1;fill-rule:nonzero;fill:#000000;opacity:1;stroke-dasharray:none;stroke-linecap:butt;stroke-linejoin:miter;stroke-miterlimit:4;stroke-opacity:1;stroke-width:0;stroke:#000000" d="m 349.07524,408.21781 c 0,0 -51.7146,6.85286 -63.22382,35.19023 -2.06147,4.01155 -2.1084,11.81811 -3.46792,16.10443 -0.27859,0.87834 -1.00697,6.35332 -3.50565,8.26757 -0.26944,0.20641 -1.13656,1.14752 -4.58251,0.28177 -0.17413,-0.0437 -1.37345,0.71664 -3.61847,0.0361 -5.83439,-1.76869 -6.66978,-8.86034 -6.76649,-9.28816 -1.98539,-8.78313 -6.24957,-28.02971 -9.43291,-34.24779 -14.19124,-27.72004 -27.97462,-8.06406 -29.28246,-10.40039 0.41618,-1.08804 4.02945,-13.36841 6.19444,-18.09893 11.62539,-25.40153 0.95689,-39.90966 1.12816,-55.1128 0.0975,-8.65113 2.07852,-16.07477 1.28865,-22.62638 -1.29132,-10.71088 -0.84396,-17.13759 -1.38433,-24.67795 2.35417,-86.04559 34.5433,-41.1302 56.62717,-60.48236 0.97617,-2.02088 1.11046,-18.85833 -12.79977,-26.13781 -0.63873,-0.33426 5.76049,-3.75929 10.28502,-6.16163 1.43082,-0.85664 10.68402,25.74457 10.29068,24.95701 -0.12491,-0.25011 -0.64543,-0.55498 -1.33868,0.14782 -0.64398,0.65286 22.17244,-28.24484 22.30977,-27.24411 1.50252,1.12706 9.10193,4.89722 7.88644,5.69617 34.32164,23.00913 45.33266,44.85256 45.84884,66.82863 0.47134,20.067 -0.24498,33.85029 -3.35032,53.32007 -3.25164,20.38701 -15.37291,43.99251 -19.10584,83.64851 z" id="path3994-7-8-2-3-2-6" sodipodi:nodetypes="ccsssssscsssccscssccssc"/><path style="display:inline;fill-opacity:1;fill-rule:evenodd;fill:#ff6db6;opacity:1;stroke-dasharray:none;stroke-linecap:butt;stroke-linejoin:miter;stroke-miterlimit:4;stroke-opacity:1;stroke-width:0;stroke:#000000" d="m 367.76657,320.25795 c -5.18439,29.24787 -19.8371,35.56989 -15.71233,92.52544 -40.10653,11.44456 -64.97545,42.96388 -65.74712,45.30165 -0.78385,1.88787 -4.7912,9.82211 -7.2881,11.60252 -1.21712,0.86786 -4.56426,-0.37235 -4.8162,-0.39645 -0.29397,-0.0276 -0.77535,0.50225 -2.98817,-0.0701 -5.65546,-1.4629 -10.22974,-5.40448 -10.80185,-7.35518 -18.43111,-29.49711 -30.68812,-46.0732 -35.41353,-47.26215 7.94787,-20.31139 14.53739,-34.53836 15.52113,-39.64488 2.40743,-12.49684 -2.6534,-28.92082 -2.48401,-31.79497 0.47349,-8.03387 -2.60834,-12.18403 -2.71508,-18.20199 -3.82277,-40.79755 -3.69209,-110.48012 41.61481,-118.98074 0.49229,-0.51848 5.43756,-2.25669 9.91452,-4.65903 9.84838,23.51827 8.84084,25.04443 9.47199,24.50789 1.18842,-0.79719 21.46117,-26.64717 21.46117,-26.64717 1.48672,1.12706 18.23182,7.00546 18.7637,8.34782 0,0 25.14245,-4.0197 34.62152,28.41718 0.89165,23.1386 5.87605,43.65481 -3.40245,84.31016 z" id="path3998-9-0-8-4-0-7" sodipodi:nodetypes="cccsssccsscccccccc"/><path style="display:inline;fill-opacity:1;fill:#000000;stroke-dasharray:none;stroke-linecap:butt;stroke-linejoin:miter;stroke-miterlimit:4;stroke-opacity:1;stroke-width:0;stroke:#000000" d="M 95.342618,843.58884 C 116.4048,576.55377 233.12105,325.44231 234.41383,318.20271 l 134.2744,4.024 c 0,0 93.14437,250.65517 129.55669,523.11062 C 469.5415,883.9015 99.033509,884.7115 95.342618,843.58884 Z" id="path4019-2-8-3-5-6-1" sodipodi:nodetypes="ccccc"/><path style="display:inline;fill-opacity:1;fill:#ffffff;stroke-dasharray:none;stroke-linecap:butt;stroke-linejoin:miter;stroke-miterlimit:4;stroke-opacity:1;stroke-width:0;stroke:#000000" d="m 287.16658,200.45746 c -0.22893,0.0426 -4.1786,2.16887 -6.81426,3.26478 0.19397,1.8812 9.40764,18.57713 15.12903,29.57646 2.86255,-0.15662 6.59884,-0.12905 7.28265,-7.15631 -5.45611,-10.51551 -13.64965,-22.35416 -15.59742,-25.68493 z" id="path4019-8-1-1-2-0-0" sodipodi:nodetypes="ccccc"/><path style="display:inline;fill-opacity:1;fill:#1e7bb6;stroke-dasharray:none;stroke-linecap:butt;stroke-linejoin:miter;stroke-miterlimit:4;stroke-opacity:1;stroke-width:0;stroke:#000000" d="m 284.03456,201.91659 c -0.22893,0.0426 -9.8036,4.79386 -12.43927,5.88977 0.19447,1.88608 11.83049,19.78885 17.54849,30.78695 3.07553,-2.99339 11.44714,-8.96947 10.40457,-11.15266 -5.45583,-10.47509 -13.57594,-22.21027 -15.51379,-25.52406 z" id="path4019-8-9-9-5-5-6-8" sodipodi:nodetypes="ccccc"/><path style="display:inline;fill-opacity:1;fill:#ffffff;stroke-dasharray:none;stroke-linecap:butt;stroke-linejoin:miter;stroke-miterlimit:4;stroke-opacity:1;stroke-width:0;stroke:#000000" d="m 324.54387,203.65532 c -0.12458,-0.19676 -4.31778,-4.35181 -6.31344,-6.39266 -1.04706,0.54898 -14.38968,17.39522 -26.50854,33.34093 -0.64624,0.85031 -15.94218,89.06051 -16.57941,89.90309 1.89905,3.70374 9.21321,-3.81421 10.35881,-1.16913 0.91653,-1.21918 14.23196,-81.67571 15.13655,-82.88937 11.74091,-15.75234 22.18949,-30.58793 23.90603,-32.79286 z" id="path4019-6-4-4-0-8-7" sodipodi:nodetypes="ccsccsc"/><path style="display:inline;fill-opacity:1;fill:#1e7bb6;stroke-dasharray:none;stroke-linecap:butt;stroke-linejoin:miter;stroke-miterlimit:4;stroke-opacity:1;stroke-width:0;stroke:#000000" d="m 332.55607,204.81471 c -0.1201,-0.1938 -9.32772,-3.37994 -11.85418,-5.14391 -1.00377,0.53771 -14.87571,18.11974 -26.49296,33.81128 -0.72428,0.97829 -15.57153,88.00313 -16.28597,88.96833 0.51948,1.43014 12.22386,-4.32894 14.80609,0.99828 0.72129,-1.01259 12.66269,-79.95727 13.40358,-80.98044 11.76374,-16.24574 24.74694,-35.45328 26.42344,-37.65354 z" id="path4019-81-7-2-2-0-4" sodipodi:nodetypes="ccsccsc"/><path style="display:inline;fill-opacity:1;fill:#3e89b8;stroke-dasharray:none;stroke-linecap:butt;stroke-linejoin:miter;stroke-miterlimit:4;stroke-opacity:1;stroke-width:0;stroke:#000000" d="m 97.40242,847.45958 c 19.50361,-235.78756 114.75026,-475.02945 134.24006,-522.36895 1.97876,-4.8063 1.72684,-4.41685 1.84004,-5.05074 l 134.40221,2.47792 c 0,0 92.3888,258.37388 126.0309,524.54399 -10.64379,20.01032 -296.22374,41.57276 -396.513214,0.39771 z" id="path4019-2-2-5-5-4-8-3-9" sodipodi:nodetypes="csccccc"/><path style="display:inline;fill-opacity:1;fill:#1e7bb6;stroke-dasharray:none;stroke-linecap:butt;stroke-linejoin:miter;stroke-miterlimit:4;stroke-opacity:1;stroke-width:0;stroke:#000000" d="m 338.10766,318.31218 c 27.06453,104.41657 107.55568,542.74271 108.50071,542.4271 5.94685,-0.53108 27.062,-4.68578 30.06753,-5.91002 -1.01211,-5.17108 -109.64436,-480.15568 -138.56824,-536.51708 z" id="path4019-8-9-4-1-2-7-7-5-3" sodipodi:nodetypes="cccc"/><path style="display:inline;fill-opacity:1;fill:#1e7bb6;stroke-dasharray:none;stroke-linecap:butt;stroke-linejoin:miter;stroke-miterlimit:4;stroke-opacity:1;stroke-width:0;stroke:#000000" d="m 276.87512,317.52904 c -0.19447,1.88608 -61.77052,551.75832 -62.71555,551.44271 -6.43429,-0.6953 -28.10489,-1.11807 -31.83529,-3.65481 1.01211,-5.17108 79.06199,-502.74021 94.55084,-547.7879 z" id="path4019-8-9-4-1-5-6-8-9-2-0" sodipodi:nodetypes="cccc"/><path style="display:inline;fill-opacity:1;fill:#1e7bb6;stroke-dasharray:none;stroke-linecap:butt;stroke-linejoin:miter;stroke-miterlimit:4;stroke-opacity:1;stroke-width:0;stroke:#000000" d="m 293.58556,316.57607 c -0.19447,1.88608 13.35958,552.81897 12.94488,554.09435 -5.19685,0.71892 -28.10488,1.00326 -32.54239,-0.11927 1.01211,-5.17108 11.53329,-515.99846 19.59751,-553.97508 z" id="path4019-8-9-4-1-5-3-9-0-8-3-4" sodipodi:nodetypes="cccc"/><path style="display:inline;fill-opacity:1;fill:#1e7bb6;stroke-dasharray:none;stroke-linecap:butt;stroke-linejoin:miter;stroke-miterlimit:4;stroke-opacity:1;stroke-width:0;stroke:#000000" d="m 315.94956,319.46455 c 0.19447,1.88608 49.27052,549.6422 50.21555,549.32659 3.95941,-0.34174 28.45844,-1.29485 31.83529,-2.59415 -1.01211,-5.17108 -66.56199,-501.68475 -82.05084,-546.73244 z" id="path4019-8-9-4-1-5-5-9-5-2-8-7" sodipodi:nodetypes="cccc"/><path sodipodi:nodetypes="cccccccccc" id="path1674-1-7-3-5-4-2" d="m 315.99461,252.88845 c -1.37945,0.98862 -17.34452,-8.27371 -22.95509,-8.22648 -5.26939,0.0402 -7.9568,-0.53436 -13.48383,-0.54382 -5.6819,1.10798 -22.06175,10.04898 -24.40811,8.45101 -1.59383,-1.88039 1.23401,-29.11395 3.1855,-29.29671 1.87682,-1.89222 21.89219,7.05508 23.39518,6.935 6.35901,-2.51072 7.58527,-0.66317 11.49063,0.25487 1.31971,0.21024 25.26269,-7.6188 27.52041,-5.51982 0,0 2.20651,21.40039 -4.74469,27.94631 z" style="display:inline;fill-opacity:1;fill:#000000;stroke-dasharray:none;stroke-linecap:butt;stroke-linejoin:miter;stroke-miterlimit:4;stroke-opacity:1;stroke-width:0;stroke:#83afc8"/><path style="display:inline;fill-opacity:1;fill:#1e7bb6;stroke-dasharray:none;stroke-linecap:butt;stroke-linejoin:miter;stroke-miterlimit:4;stroke-opacity:1;stroke-width:0;stroke:#000000" d="M 249.49097,318.13219 C 222.42644,422.54876 143.10134,859.95701 142.15631,859.6414 c -4.48974,-0.87207 -26.86745,-4.83039 -30.42108,-7.36713 1.01211,-5.17108 108.83186,-477.78068 137.75574,-534.14208 z" id="path4019-8-9-4-1-1-6-7-9-7-9" sodipodi:nodetypes="cccc"/><path style="display:inline;fill-opacity:1;fill:#1e7bb6;stroke-dasharray:none;stroke-linecap:butt;stroke-linejoin:miter;stroke-miterlimit:4;stroke-opacity:1;stroke-width:0;stroke:#000000" d="m 233.72618,317.85193 c 0.11256,0.38409 -0.0491,1.09967 -0.59383,3.91392 0.19447,1.88608 133.93833,1.12516 134.88336,0.80955 0,0 0.48353,-2.79746 0.85518,-3.91999 -13.58756,-1.2827 -132.49974,-0.67167 -135.1447,-0.80348 z" id="path4019-8-9-4-3-9-8-3-5" sodipodi:nodetypes="cccccc"/><path sodipodi:nodetypes="ccccccc" id="path1686-2-1-7-7-3-3-0-3" d="m 271.52009,353.72765 c -1.19524,-0.14596 -12.84541,-3.14232 -13.07284,-3.26583 -0.65939,-1.12584 16.58569,-120.05835 29.52529,-119.89876 11.02917,-0.30893 10.69385,114.75002 11.66368,118.3863 -1.61972,0.95124 -11.03187,3.81514 -12.43323,4.14596 -0.65748,-1.56373 -0.0891,-117.7173 0.46134,-119.97986 -9.06295,32.34178 -13.91483,73.67671 -16.14424,120.61219 z" style="display:inline;fill-opacity:1;fill:#000000;stroke-dasharray:none;stroke-linecap:butt;stroke-linejoin:miter;stroke-miterlimit:4;stroke-opacity:1;stroke-width:0;stroke:#83afc8"/><path style="display:inline;fill-opacity:1;fill:#ff6db6;stroke-dasharray:none;stroke-linecap:butt;stroke-linejoin:miter;stroke-miterlimit:4;stroke-opacity:1;stroke-width:0;stroke:#83afc8" d="m 299.03146,348.94936 c -1.48451,0.95124 -9.86966,3.33082 -11.15404,3.66163 -0.57144,-1.48288 0.8767,-107.95019 0.1796,-118.95443 -0.038,-0.59991 -0.0824,-2.75985 -0.14882,-2.84855 9.79123,-0.0998 10.23439,114.50507 11.12326,118.14135 z" id="path5759-6-0-8-3-7"/><path style="display:inline;fill-opacity:1;fill:#3e89b8;stroke-dasharray:none;stroke-linecap:butt;stroke-linejoin:miter;stroke-miterlimit:4;stroke-opacity:1;stroke-width:0;stroke:#83afc8" d="m 287.01547,233.61602 c -14.61613,51.07412 -12.41183,76.69661 -16.16365,119.38514 -1.09546,-0.14596 -11.32731,-2.95397 -11.53575,-3.07748 3.62062,-39.6346 16.90366,-119.24133 27.889,-119.24067 -0.085,0.35013 -0.10632,2.64198 -0.1896,2.93301 z" id="path1686-2-1-71-0-7-6-3"/><path style="display:inline;fill-opacity:1;fill:#ff6db6;stroke-dasharray:none;stroke-linecap:butt;stroke-linejoin:miter;stroke-miterlimit:4;stroke-opacity:1;stroke-width:0;stroke:#83afc8" d="m 279.96087,243.66343 c -5.55836,1.00416 -21.56502,9.3388 -23.8603,7.89064 -1.55922,-1.70403 1.09945,-26.30726 3.0085,-26.47282 1.83594,-1.71488 21.50675,6.08443 22.97697,5.97565 2.22583,0.1873 0.51321,2.78358 2.05515,2.97821 -2.00513,0.0154 -1.45984,9.63272 -4.18032,9.62832 z" id="path5755-5-6-1-5-4"/><path style="display:inline;fill-opacity:1;fill:#3e89b8;stroke-dasharray:none;stroke-linecap:butt;stroke-linejoin:miter;stroke-miterlimit:4;stroke-opacity:1;stroke-width:0;stroke:#83afc8" d="m 293.32666,231.28762 c 1.29104,0.1906 24.70809,-6.57988 26.91662,-4.67766 0,0 2.13996,19.10801 -4.65995,25.04025 v -9e-5 c -1.34941,0.89591 -16.94355,-7.53671 -22.43206,-7.49395 -2.56105,0.0156 -2.49862,-9.35383 -4.43195,-9.60549 1.81043,-0.0665 2.24355,-3.10425 4.60734,-3.26306 z" id="path1682-7-7-9-5-0-6"/><path sodipodi:nodetypes="cccccc" id="path1684-01-5-6-5-6-6" d="m 292.95384,244.53747 c -5.63989,1.45296 -8.51351,1.60763 -13.98648,-0.52618 -0.77351,-5.09534 -0.16474,-10.28625 2.25344,-13.46075 5.05648,0.42851 7.21862,0.56398 11.91904,0.24638 3.21373,2.22258 0.80515,10.21988 -0.18607,13.74055 z" style="display:inline;fill-opacity:1;fill:#000000;stroke-dasharray:none;stroke-linecap:butt;stroke-linejoin:miter;stroke-miterlimit:4;stroke-opacity:1;stroke-width:0;stroke:#83afc8"/><path sodipodi:nodetypes="cccccc" id="path1686-2-5-6-0-8-3" d="m 292.06058,244.25858 c -4.9209,1.23323 -7.50376,1.66397 -11.93592,-0.50391 -0.6601,-4.87943 -0.14044,-9.85028 1.9231,-12.8903 6.32888,-2.24755 7.12844,-0.73773 10.1715,0.23613 2.74253,2.1284 0.68711,9.78676 -0.1588,13.15826 z" style="display:inline;fill-opacity:1;fill:#ff6db6;stroke-dasharray:none;stroke-linecap:butt;stroke-linejoin:miter;stroke-miterlimit:4;stroke-opacity:1;stroke-width:0;stroke:#83afc8"/></svg>
