<svg viewBox="0 0 560 1000"><path d="m 277.92014,120.99398 c 0.15976,0.0982 0.98694,0.69136 -0.47682,0.56526 -0.37467,-0.0943 -0.77553,-0.17278 -1.19508,-0.2374 -0.22121,-0.034 -0.44762,-0.0643 -0.67812,-0.0909 -0.22144,-0.0256 -0.44666,-0.0479 -0.67468,-0.0671 -1.74463,-0.14717 -3.65312,-0.11567 -5.28783,-0.0173 -1.86304,0.11498 -4.20091,0.39975 -5.41721,0.72845 -0.11798,-0.28853 -0.2088,-0.41928 -0.23516,-0.64096 -0.007,-0.0629 -0.23947,0.004 -0.25786,-0.0403 0.11859,-0.0497 0.81465,-0.2046 0.8952,-0.21754 0.13064,-0.021 -0.28417,-0.0605 -0.15717,-0.0863 0.16014,-0.0326 0.8551,-0.0577 1.02202,-0.0875 0.4834,-0.0864 0.99374,-0.16111 1.52232,-0.22423 0.18647,-0.0223 -0.12475,-0.0736 0.0659,-0.093 0.11719,-0.012 0.73509,0.007 0.85362,-0.004 0.52907,-0.0483 1.07059,-0.0857 1.61664,-0.1123 0.26197,-0.0127 -0.10001,-0.0902 0.16318,-0.098 0.21942,-0.006 1.06396,0.056 1.28312,0.053 0.38826,-0.005 0.77532,-0.005 1.15835,3.8e-4 0.22176,0.003 -0.0109,-0.11393 0.20757,-0.10707 0.19835,0.006 0.84827,0.13614 1.04308,0.14536 0.46541,0.0221 0.91958,0.0526 1.35695,0.0917 0.31406,0.0281 -0.0368,-0.10437 0.25788,-0.0675 0.19042,0.0239 1.0326,0.21445 1.21351,0.24195 0.64623,0.0982 1.22823,0.21988 1.72067,0.36485 z" id="path7249" sodipodi:nodetypes="ccsssccscssssssssssssssscc" class="eyebrow_hair"/><path d="m 298.38099,120.92078 c -1.09909,0.0662 -2.17175,0.16552 -3.24494,0.29903 -3.62966,0.46543 -2.64043,-0.13616 -2.59396,-0.34748 0.76259,-0.16033 1.5142,-0.2943 2.26214,-0.40519 0.35009,-0.0519 1.60535,-0.27586 1.95457,-0.31799 0.3564,-0.043 -0.19319,0.0961 0.16384,0.0625 0.43341,-0.0406 0.86791,-0.0746 1.30492,-0.10249 0.393,-0.025 1.45094,-0.13592 1.84903,-0.15161 0.28039,-0.0111 -0.10058,0.0708 0.18317,0.064 0.49445,-0.0119 0.99461,-0.0175 1.5024,-0.0177 0.32118,-1.6e-4 1.42986,-0.0587 1.75763,-0.0547 0.27686,0.003 -0.2282,0.0685 0.054,0.0744 0.43475,0.009 0.87618,0.0212 1.32536,0.0357 0.24725,0.008 1.35864,-0.048 1.61077,-0.0386 0.28945,0.0108 -0.27956,0.0873 0.0168,0.0998 0.70797,0.0298 1.43646,0.064 2.18914,0.10082 0.28501,0.025 1.32322,0.004 1.61271,0.0341 0.21372,0.0223 -0.32185,0.0949 -0.10748,0.11976 0.84808,0.0985 1.29752,0.1385 2.09664,0.268 0.38647,0.0626 1.19921,0.11578 1.55786,0.18305 0.0697,0.013 -0.29877,0.0384 -0.23038,0.0516 0.65892,0.12723 1.65386,0.33828 2.15429,0.47206 10e-4,0.10432 -2.42095,-0.24802 0.62293,0.35715 -6.02408,-0.60413 -12.24058,-1.12368 -18.04144,-0.78629 z" id="path7251" sodipodi:nodetypes="cccsssssssssssscssssscccc" class="eyebrow_hair"/></svg>
