<svg viewBox="0 0 560 1000"><path sodipodi:nodetypes="cccccc" id="path3543-7" d="m 366.98115,291.69749 c -25.75939,81.8522 6.62703,87.03059 -5.42367,122.40896 -39.63585,8.44961 -87.08686,-9.90018 -88.34168,-11.81835 -1.64009,0.741 -46.07386,10.68531 -47.3817,8.34898 -8.18183,-35.71775 16.17461,-57.09398 10.74392,-120.01194 31.55028,3.86008 95.35007,6.47864 130.40313,1.07235 z" style="display:inline;fill-opacity:1;fill-rule:evenodd;fill:#000000;opacity:1;stroke-dasharray:none;stroke-linecap:butt;stroke-linejoin:miter;stroke-miterlimit:4;stroke-opacity:1;stroke-width:0;stroke:#000000"/><path sodipodi:nodetypes="ccccc" id="path3545-8" d="m 365.8522,292.50543 c -26.12253,72.96577 3.83914,87.35168 -3.33999,123.44261 -87.98397,16.38228 -115.66482,15.96927 -136.77918,-5.11885 -4.89624,-35.20911 18.48061,-62.61971 12.22228,-118.8606 26.56853,7.31487 112.82784,4.7862 127.89689,0.53684 z" style="display:inline;fill-opacity:1;fill-rule:evenodd;fill:#800000;opacity:1;stroke-dasharray:none;stroke-linecap:butt;stroke-linejoin:miter;stroke-miterlimit:4;stroke-opacity:1;stroke-width:0;stroke:#000000"/><path sodipodi:nodetypes="ccssccc" id="path3547-0" d="m 271.48166,426.63426 c -2.96459,-1.35508 3.51233,-92.0077 10.17092,-132.27485 0.0421,-0.18953 -0.065,-0.55474 0.12551,-0.56351 0.81123,-0.0373 0.77997,0.3603 2.32799,0.0884 0.20144,-0.0354 -0.067,0.40493 -0.1009,0.60937 -10.12688,61.2283 -12.38098,131.94573 -12.52352,132.14056 z" style="display:inline;fill-opacity:1;fill:#000000"/><path sodipodi:nodetypes="sccs" id="path3549-0" d="m 277.26367,407.09589 c 0,0.86028 -3.76472,3.3125 -6.25,3.3125 l 0.28125,-6.65625 c 2.48528,0 5.96875,2.60847 5.96875,3.34375 z" style="display:inline;fill:#000000"/><path sodipodi:nodetypes="sccs" id="path3551-7" d="m 277.90626,391.4531 c 0,0.86028 -3.76472,3.3125 -6.25,3.3125 l 0.28125,-6.65625 c 2.48528,0 5.96875,2.60847 5.96875,3.34375 z" style="display:inline;fill:#000000"/><path sodipodi:nodetypes="sccs" id="path3553-5" d="m 279.12501,376.4531 c 0,0.86028 -4.04597,3 -6.53125,3 l 0.46875,-6.65625 c 2.48528,0 6.0625,2.92097 6.0625,3.65625 z" style="display:inline;fill:#000000"/><path sodipodi:nodetypes="sccs" id="path3555-3" d="m 280.18751,363.2656 c 0,0.86028 -4.20222,2.6875 -6.6875,2.6875 l 0.59375,-6.65625 c 2.48528,0 6.09375,3.23347 6.09375,3.96875 z" style="display:inline;fill:#000000"/><path sodipodi:nodetypes="sccs" id="path3557-9" d="m 281.25001,348.5781 c 0,0.86028 -3.95222,2.875 -6.4375,2.875 l 0.625,-6.59375 c 2.48528,0 5.8125,2.98347 5.8125,3.71875 z" style="display:inline;fill:#000000"/><path sodipodi:nodetypes="sccs" id="path3559-7" d="m 283.00001,332.92185 c 0,0.86028 -4.13972,2.65625 -6.625,2.65625 l 0.6875,-6.59375 c 2.48528,0 5.9375,3.20222 5.9375,3.9375 z" style="display:inline;fill:#000000"/><path sodipodi:nodetypes="sccs" id="path3561-4" d="m 284.7206,318.33666 c 0,0.86028 -4.29597,2.28125 -6.78125,2.28125 l 0.8125,-6.5 c 2.48528,0 5.96875,3.48347 5.96875,4.21875 z" style="display:inline;fill:#000000"/><path sodipodi:nodetypes="sccs" id="path3563-0" d="m 286.3358,302.31061 c 0,0.86028 -3.98347,3 -6.46875,3 l 0.9375,-6.3125 c 2.48528,0 5.53125,2.57722 5.53125,3.3125 z" style="display:inline;fill:#000000"/><path sodipodi:nodetypes="sccs" id="path3569-2" d="m 277.18902,406.27379 c 0,0.86028 -3.76472,3.3125 -6.25,3.3125 l 0.28125,-6.65625 c 2.48528,0 5.96875,2.60847 5.96875,3.34375 z" style="display:inline;fill:#787878"/><path sodipodi:nodetypes="sccs" id="path3571-1" d="m 277.83161,390.631 c 0,0.86028 -3.76472,3.3125 -6.25,3.3125 l 0.28125,-6.65625 c 2.48528,0 5.96875,2.60847 5.96875,3.34375 z" style="display:inline;fill:#787878"/><path sodipodi:nodetypes="sccs" id="path3573-64" d="m 279.05036,375.631 c 0,0.86028 -4.04597,3 -6.53125,3 l 0.46875,-6.65625 c 2.48528,0 6.0625,2.92097 6.0625,3.65625 z" style="display:inline;fill:#787878"/><path sodipodi:nodetypes="sccs" id="path3575-5" d="m 280.11286,362.4435 c 0,0.86028 -4.20222,2.6875 -6.6875,2.6875 l 0.59375,-6.65625 c 2.48528,0 6.09375,3.23347 6.09375,3.96875 z" style="display:inline;fill:#787878"/><path sodipodi:nodetypes="sccs" id="path3577-4" d="m 281.17536,347.756 c 0,0.86028 -3.95222,2.875 -6.4375,2.875 l 0.625,-6.59375 c 2.48528,0 5.8125,2.98347 5.8125,3.71875 z" style="display:inline;fill:#787878"/><path sodipodi:nodetypes="sccs" id="path3583-8" d="m 282.92536,332.09975 c 0,0.86028 -4.13972,2.65625 -6.625,2.65625 l 0.6875,-6.59375 c 2.48528,0 5.9375,3.20222 5.9375,3.9375 z" style="display:inline;fill:#787878"/><path sodipodi:nodetypes="sccs" id="path3585-0" d="m 284.64595,317.51456 c 0,0.86028 -4.29597,2.28125 -6.78125,2.28125 l 0.8125,-6.5 c 2.48528,0 5.96875,3.48347 5.96875,4.21875 z" style="display:inline;fill:#787878"/><path sodipodi:nodetypes="sccs" id="path3587-6" d="m 286.26115,301.48851 c 0,0.86028 -3.98347,3 -6.46875,3 l 0.9375,-6.3125 c 2.48528,0 5.53125,2.57722 5.53125,3.3125 z" style="display:inline;fill:#787878"/><path style="display:inline;fill-opacity:1;fill-rule:evenodd;fill:#000000;opacity:1;stroke-dasharray:none;stroke-linecap:butt;stroke-linejoin:miter;stroke-miterlimit:4;stroke-opacity:1;stroke-width:0;stroke:#000000" d="m 362.68789,405.48716 c 2.80181,5.33577 10.09174,42.04249 3.90133,68.39555 -20.82093,14.76257 -101.55407,3.60363 -151.95195,0.28076 0.0585,-1.03765 0.0424,-2.07139 0.18689,-3.07673 6.24071,-43.42968 8.73403,-57.26949 10.53306,-61.20446 0.20972,-0.4587 0.34723,-0.67416 0.34723,-0.67416 31.73404,35.14115 114.78836,3.69544 136.98344,-3.72096 z" id="path3581-6-5-2-4-8" sodipodi:nodetypes="cccsssc"/><path style="display:inline;fill-opacity:1;fill-rule:evenodd;fill:#800000;opacity:1;stroke-dasharray:none;stroke-linecap:butt;stroke-linejoin:miter;stroke-miterlimit:4;stroke-opacity:1;stroke-width:0;stroke:#000000" d="m 363.44218,406.49232 c 8.55181,12.27339 9.90202,39.49125 3.71161,64.20828 -20.82093,13.84609 -101.99157,3.49714 -152.38945,0.38057 0.55367,-47.38146 11.00468,-61.00809 11.00468,-61.00809 29.7895,36.10978 117.10308,4.00022 137.67316,-3.58076 z" id="path3581-6-5-2-9" sodipodi:nodetypes="cccsc"/><path sodipodi:nodetypes="ccc" id="path3401-2-3" class="shadow" d="m 329.90806,425.67038 c -15.4791,1.19068 -42.03653,26.26041 -44.60913,30.99635 10.29989,-9.14088 29.75951,-26.28541 44.60913,-30.99635 z"/><path sodipodi:nodetypes="ccc" id="path3406-2-8" class="shadow" d="m 262.16597,457.51867 c -6.81704,-9.41592 -28.83006,-31.99347 -34.93819,-34.15183 5.05404,5.44075 26.5203,25.35081 34.93819,34.15183 z"/></svg>
