<svg viewBox="0 0 560 1000"><path d="m 267.23463,450.73798 3.11592,-0.15136 c 0.93021,-6.40662 3.95894,-11.50631 6.66908,-16.80443 -5.58516,-0.0849 -11.59094,-0.67726 -16.5428,0.002 1.54591,5.70209 4.03226,11.33653 6.7578,16.95379 z" id="path5158-5" sodipodi:nodetypes="ccccc" class="pubic_hair"/><path d="m 363.96648,268.10163 c 3.47711,-4.86808 5.51409,-20.47518 3.32753,-24.2077 -2.60035,0.69044 -1.97503,1.38571 -4.4446,-0.21104 0.83858,8.14327 2.00713,17.8126 1.11707,24.41874 z" id="path5158-3-5" sodipodi:nodetypes="cccc" class="underarm_hair"/><path style="display:inline;fill-opacity:1;fill:#000000;opacity:1" sodipodi:nodetypes="ccccccccccccc" d="m 233.44242,319.3763 c -22.35563,57.33386 -17.14339,72.13673 -8.59775,94.00018 16.36196,-0.34408 104.86205,3.75956 137.83667,3.74496 19.4112,-19.47819 6.50262,-59.08875 2.57928,-68.59965 0.3856,-5.0601 1.09992,-20.31102 6.37651,-63.49742 -20.00731,-23.65544 -42.21969,-61.65724 -42.26611,-80.02948 -5.0856,-1.53654 -9.2662,-4.20037 -11.97165,-6.99799 -0.44453,1.7818 -1.99968,15.88708 -2.14306,17.33056 -12.09829,5.75915 -27.87745,3.2969 -33.51216,-1.00011 0.88357,-3.08367 0.12976,-7.88401 3.51875,-14.42259 -2.95309,1.88608 -5.93497,4.18624 -9.90394,6.09612 -19.66621,9.88875 -29.38006,22.85237 -34.17501,36.41805 -8.21093,17.20176 -11.19214,45.53181 -7.74153,76.95737 z" id="path6926-8-8-5"/><path sodipodi:nodetypes="cccssscccccsscccc" id="path6928-6-1-7" d="m 363.79938,348.80355 c 0,0 18.70221,53.35531 -0.49514,68.72984 -40.10653,11.44456 -76.22545,38.21388 -76.99712,40.55165 -0.78385,1.88787 -4.7912,9.82211 -7.2881,11.60252 -1.21712,0.86786 -4.56426,-0.37235 -4.8162,-0.39645 -0.29397,-0.0276 -0.77535,0.50225 -2.98817,-0.0701 -5.65546,-1.4629 -10.22974,-5.40448 -10.80185,-7.35518 -18.43111,-29.49711 -30.68812,-46.0732 -35.41353,-47.26215 -18.27915,-34.80733 10.35514,-95.37901 10.35514,-95.37901 -2.10939,-9.79535 -10.34764,-107.27782 41.58171,-113.24357 0.49229,-0.51848 2.68756,-2.31919 7.16452,-4.72153 1.01736,-0.38611 4.59904,-8.26172 5.00699,-8.02432 6.65758,3.87428 26.54635,-0.85503 26.87567,-0.1563 0.97035,2.05878 1.71969,4.49501 2.863,6.22886 1.48672,1.12706 17.16932,6.88046 17.7012,8.22282 0,0 24.76225,-4.8947 34.24132,27.54218 6.83766,34.59578 -1.76374,79.25865 -6.98944,113.73074 z" style="display:inline;fill-opacity:1;fill-rule:evenodd;fill:#0b1728;opacity:1;stroke-dasharray:none;stroke-linecap:butt;stroke-linejoin:miter;stroke-miterlimit:4;stroke-opacity:1;stroke-width:0;stroke:#000000"/><path sodipodi:nodetypes="ccccsc" id="path6930-5-0-2" d="m 223.46081,414.21749 c -0.42263,12.80142 31.84447,58.44933 51.86626,56.74714 13.4605,-1.86072 24.20778,-26.48734 86.53835,-51.73016 -5.52595,-11.9083 -20.07615,-23.00694 -26.61235,-34.33133 -45.102,11.9464 -91.4758,3.33435 -104.81614,-0.31943 0,0 -1.84313,17.91613 -6.97612,29.63378 z" style="display:inline;fill-opacity:1;fill:#0b1728;stroke-dasharray:none;stroke-linecap:butt;stroke-linejoin:miter;stroke-miterlimit:4;stroke-opacity:1;stroke-width:0;stroke:#000000"/><path sodipodi:nodetypes="csccc" id="path6932-2-2-7" d="m 257.42933,436.58157 c 0.5575,-1.06599 6.5423,-47.48865 6.58488,-47.65285 0,0 -38.32742,-17.84534 -44.85496,-22.26022 -2.89865,7.30555 -6.50164,53.27796 -6.43502,53.35784 0.063,0.19141 44.7051,16.55523 44.7051,16.55523 z" style="display:inline;fill-opacity:1;fill:#000000;opacity:1;stroke-dasharray:none;stroke-linecap:butt;stroke-linejoin:miter;stroke-miterlimit:4;stroke-opacity:1;stroke-width:0;stroke:#000000"/><path sodipodi:nodetypes="csscccc" id="path6934-5-5-6" d="m 256.33979,391.23466 c -0.0664,0.0413 -1.39182,-0.0733 -1.58546,-0.10885 -3.40999,-0.62801 19.2566,-160.50788 24.25915,-160.55375 0,0 12.26767,-11.59694 15.1958,-14.84809 -11.66224,14.89533 -30.22666,147.63281 -30.17154,172.72911 -0.0426,1.28175 -9.4e-4,2.39529 -0.0998,2.64799 z" style="display:inline;fill-opacity:1;fill:#000000;opacity:1;stroke-dasharray:none;stroke-linecap:butt;stroke-linejoin:miter;stroke-miterlimit:4;stroke-opacity:1;stroke-width:0;stroke:#000000"/><path sodipodi:nodetypes="csccc" id="path6936-2-0-0" d="m 256.82347,435.83166 c -0.005,-0.12477 6.43682,-46.78082 6.29446,-46.86401 L 221.1893,364.46602 c -3.09148,7.86232 -7.50086,55.17965 -7.43167,55.25026 0.0621,0.18588 43.06584,16.11538 43.06584,16.11538 z" style="display:inline;fill-opacity:1;fill:#0b1728;opacity:1;stroke-dasharray:none;stroke-linecap:butt;stroke-linejoin:miter;stroke-miterlimit:4;stroke-opacity:1;stroke-width:0;stroke:#000000"/><path sodipodi:nodetypes="cssccc" id="path6938-5-7-0" d="m 255.95357,390.4496 c -0.0664,0.0413 -1.76682,-0.0468 -1.96046,-0.0825 -3.40999,-0.62801 19.2566,-160.40253 24.25915,-160.4484 0,0 14.23398,-13.51852 15.68248,-14.44775 -15.56688,24.4846 -34.69807,173.01647 -30.414,174.96778 z" style="display:inline;fill-opacity:1;fill:#0b1728;opacity:1;stroke-dasharray:none;stroke-linecap:butt;stroke-linejoin:miter;stroke-miterlimit:4;stroke-opacity:1;stroke-width:0;stroke:#000000"/><path sodipodi:nodetypes="csccc" id="path6940-7-0-1" d="m 258.89163,437.11081 c 0.007,-0.14856 4.09744,-51.68483 4.0352,-51.87468 0,0 101.2447,0.61532 110.3902,2.55165 1.82798,0.41016 1.00812,31.07449 0.90647,31.15726 -0.0921,0.22131 -115.33187,18.16577 -115.33187,18.16577 z" style="display:inline;fill-opacity:1;fill:#000000;opacity:1;stroke-dasharray:none;stroke-linecap:butt;stroke-linejoin:miter;stroke-miterlimit:4;stroke-opacity:1;stroke-width:0;stroke:#000000"/><path sodipodi:nodetypes="csscc" id="path6942-2-5-3" d="m 260.02434,435.69863 c 0.007,-0.14856 4.18979,-50.58257 4.12661,-50.77211 -0.29391,-0.88173 105.08455,-8.8344 107.64151,2.36545 1.00313,4.39384 1.05118,31.10594 0.9538,31.19831 -0.0921,0.22131 -112.72192,17.20835 -112.72192,17.20835 z" style="display:inline;fill-opacity:1;fill:#0b1728;opacity:1;stroke-dasharray:none;stroke-linecap:butt;stroke-linejoin:miter;stroke-miterlimit:4;stroke-opacity:1;stroke-width:0;stroke:#000000"/><path style="display:inline;fill-opacity:1;fill-rule:nonzero;fill:#999999;opacity:1;stroke-dasharray:none;stroke-linecap:butt;stroke-linejoin:round;stroke-miterlimit:4;stroke-opacity:1;stroke-width:0;stroke:#000000" d="m 288.03821,262.88906 a 2.8059697,3.1566737 0 0 1 -2.80597,3.15668 2.8059697,3.1566737 0 0 1 -2.80597,-3.15668 2.8059697,3.1566737 0 0 1 2.80597,-3.15668 2.8059697,3.1566737 0 0 1 2.80597,3.15668 z" id="path6944-2-8-4"/><path style="display:inline;fill-opacity:1;fill-rule:nonzero;fill:#999999;opacity:1;stroke-dasharray:none;stroke-linecap:butt;stroke-linejoin:round;stroke-miterlimit:4;stroke-opacity:1;stroke-width:0;stroke:#000000" d="m 282.89194,297.67418 a 2.8059697,3.1566737 0 0 1 -2.80597,3.15667 2.8059697,3.1566737 0 0 1 -2.80597,-3.15667 2.8059697,3.1566737 0 0 1 2.80597,-3.15668 2.8059697,3.1566737 0 0 1 2.80597,3.15668 z" id="path6948-2-3-0"/><path sodipodi:nodetypes="ccc" id="path6950-5-0-9" class="shadow" d="m 329.87921,425.70416 c -15.4791,1.19068 -42.03653,26.26041 -44.60913,30.99635 10.29989,-9.14088 29.75951,-26.28541 44.60913,-30.99635 z"/><path sodipodi:nodetypes="cccc" id="path6952-6-1-6" class="shadow" d="m 262.13712,457.55245 c -5.32741,-7.35839 -28.98018,-30.1623 -28.98018,-30.1623 l -2.80403,-0.77815 c 0,0 24.58999,23.41879 31.78421,30.94045 z"/><path sodipodi:nodetypes="ccc" id="path6954-6-8-8" class="shadow" d="m 329.8875,425.70175 c -15.4791,1.19068 -42.03653,26.26041 -44.60913,30.99635 10.29989,-9.14088 29.75951,-26.28541 44.60913,-30.99635 z"/><path sodipodi:nodetypes="cccc" id="path6956-2-0-4" class="shadow" d="m 262.14541,457.55004 c -5.37406,-7.42283 -29.21651,-30.35505 -29.21651,-30.35505 l -2.57069,-0.58835 c 0,0 24.59207,23.42079 31.7872,30.9434 z"/><path style="display:inline;fill-opacity:1;fill-rule:nonzero;fill:#999999;opacity:1;stroke-dasharray:none;stroke-linecap:butt;stroke-linejoin:round;stroke-miterlimit:4;stroke-opacity:1;stroke-width:0;stroke:#000000" d="m 296.15903,227.39313 a 2.8059697,3.1566737 0 0 1 -2.80597,3.15668 2.8059697,3.1566737 0 0 1 -2.80597,-3.15668 2.8059697,3.1566737 0 0 1 2.80597,-3.15668 2.8059697,3.1566737 0 0 1 2.80597,3.15668 z" id="path6970-4-1-6"/><path style="display:inline;fill-opacity:1;fill-rule:nonzero;fill:#999999;opacity:1;stroke-dasharray:none;stroke-linecap:butt;stroke-linejoin:round;stroke-miterlimit:4;stroke-opacity:1;stroke-width:0;stroke:#000000" d="m 277.43213,332.06503 a 2.8059697,3.1566737 0 0 1 -2.80597,3.15668 2.8059697,3.1566737 0 0 1 -2.80597,-3.15668 2.8059697,3.1566737 0 0 1 2.80597,-3.15668 2.8059697,3.1566737 0 0 1 2.80597,3.15668 z" id="path6972-1-4-7"/><path sodipodi:nodetypes="sscccs" id="path6974-0-6-4" d="m 227.82974,334.96774 c 0,0 63.66509,14.76939 138.56448,1.3648 0.36617,-0.0655 -0.75183,8.09757 -1.82437,12.15825 0.0936,0.96098 0.86786,2.79892 1.09629,3.10959 -14.57264,6.85213 -124.27045,11.75014 -142.30707,-2.07794 0,0 4.83547,-14.36152 4.47067,-14.5547 z" style="display:inline;fill-opacity:1;fill:#000000;opacity:1;stroke-dasharray:none;stroke-linecap:butt;stroke-linejoin:miter;stroke-miterlimit:4;stroke-opacity:1;stroke-width:0;stroke:#000000"/><path sodipodi:nodetypes="cscccsc" id="path6976-1-1-6" d="m 228.05071,335.76323 c 0,0 58.964,15.54522 137.86312,0.96768 0.33287,-0.0615 -0.7847,7.26731 -1.7821,11.85859 0.21297,0.87125 0.7768,2.6909 0.7768,2.6909 -19.95115,6.77325 -124.93169,9.79867 -140.40042,-2.02669 0,0 3.5426,-13.89468 3.5426,-13.4905 z" style="display:inline;fill-opacity:1;fill:#1a1a1a;opacity:1;stroke-dasharray:none;stroke-linecap:butt;stroke-linejoin:miter;stroke-miterlimit:4;stroke-opacity:1;stroke-width:0;stroke:#000000"/><path sodipodi:nodetypes="ccssscscc" style="display:inline;fill-opacity:1;fill-rule:nonzero;fill:#999999;opacity:1;stroke-dasharray:none;stroke-linecap:butt;stroke-linejoin:round;stroke-miterlimit:4;stroke-opacity:1;stroke-width:0;stroke:#000000" d="m 274.10068,341.20932 c -0.49922,6.0624 -0.95306,11.47655 -1.56415,18.47709 -0.64482,-0.0533 -8.83601,-0.24791 -8.78096,-0.7241 0.0156,-0.13496 -0.0933,-2.02764 0.35079,-2.08549 0.479,-0.0625 6.79288,0.90418 6.77472,0.24352 -0.0136,-0.49768 0.84133,-10.66266 1.04774,-13.16926 0.0388,-0.47067 -7.04928,-0.68475 -7.04724,-1.09063 0.0102,-2.09966 0.14858,-2.42207 0.50329,-2.59423 5.67895,0.46901 8.72023,0.27917 8.71584,0.9431 z" id="path6978-4-7-6"/><path sodipodi:nodetypes="ccssscscc" style="display:inline;fill-opacity:1;fill-rule:nonzero;fill:#999999;opacity:1;stroke-dasharray:none;stroke-linecap:butt;stroke-linejoin:round;stroke-miterlimit:4;stroke-opacity:1;stroke-width:0;stroke:#000000" d="m 260.62035,339.99155 c -0.49481,6.06275 -0.92891,11.47852 -1.46621,18.48513 0.64483,0.0534 8.75806,1.19869 8.78131,0.71988 0.007,-0.1357 0.42233,-1.98524 -0.007,-2.11486 -0.46242,-0.13982 -6.84919,-0.21747 -6.72367,-0.86632 0.0945,-0.48878 0.9066,-10.65729 1.11121,-13.16405 0.0382,-0.47072 7.06645,0.4755 7.13052,0.0751 0.33191,-2.07322 0.24787,-2.41392 -0.0741,-2.6417 -5.67929,-0.4649 -8.64892,-1.14893 -8.75273,-0.49321 z" id="path6980-7-9-2"/><path style="display:inline;fill-opacity:1;fill-rule:evenodd;fill:#000000;opacity:1;stroke-dasharray:none;stroke-linecap:butt;stroke-linejoin:miter;stroke-miterlimit:4;stroke-opacity:1;stroke-width:0;stroke:#000000" d="m 282.45842,458.56662 c -0.27835,0.87834 -1.09442,7.30349 -3.59097,9.21774 -0.26922,0.20641 -1.13559,1.14752 -4.57861,0.28177 -0.17398,-0.0437 -1.37228,0.71664 -3.61539,0.0361 -5.82941,-1.76869 -6.22252,-8.10904 -6.31915,-8.53686 8.23205,-5.09165 11.4291,-4.00072 18.10412,-0.99875 z" id="path6986-5-1-6" sodipodi:nodetypes="cssscc"/><path style="display:inline;fill-opacity:1;fill-rule:evenodd;fill:#0b1728;opacity:1;stroke-dasharray:none;stroke-linecap:butt;stroke-linejoin:miter;stroke-miterlimit:4;stroke-opacity:1;stroke-width:0;stroke:#000000" d="m 282.65569,458.4011 c -0.78318,1.88787 -2.10206,7.06063 -4.59684,8.84104 -1.21608,0.86786 -3.67141,-0.009 -3.92314,-0.0331 -0.29372,-0.0276 -0.96753,0.96577 -3.15689,0.31564 -4.33861,-1.28834 -5.1633,-4.97917 -6.6404,-7.92987 7.24395,-6.87766 11.19968,-9.59173 18.31727,-1.19371 z" id="path6988-2-6-0" sodipodi:nodetypes="cssscc"/><path sodipodi:nodetypes="csscc" id="path6191-7-5" d="m 292.37072,216.07858 c -0.007,-0.15238 3.8945,-21.33661 3.96139,-21.53134 0,0 -8.30916,-2.77563 -8.45142,-2.58113 -0.86438,1.18176 -2.11005,6.96861 -3.51333,8.67157 0.099,0.227 8.00336,15.4409 8.00336,15.4409 z" style="display:inline;fill-opacity:1;fill:#000000;opacity:1;stroke-dasharray:none;stroke-linecap:butt;stroke-linejoin:miter;stroke-miterlimit:4;stroke-opacity:1;stroke-width:0;stroke:#000000"/><path sodipodi:nodetypes="csscc" id="path6193-1-4" d="m 292.27012,214.99157 c -0.006,-0.15465 3.18623,-20.56297 3.24155,-20.7606 0,0 -7.62885,-3.42808 -7.7465,-3.23069 -0.7148,1.19936 -1.68003,7.03144 -2.84049,8.75976 0.0818,0.23038 7.34544,15.23153 7.34544,15.23153 z" style="display:inline;fill-opacity:1;fill:#0b1728;opacity:1;stroke-dasharray:none;stroke-linecap:butt;stroke-linejoin:miter;stroke-miterlimit:4;stroke-opacity:1;stroke-width:0;stroke:#000000"/><path sodipodi:nodetypes="csscc" id="path6195-5-77" d="m 298.6408,216.19261 c 0.006,-0.15238 3.40168,-21.28705 3.34715,-21.48178 0,0 16.14948,-3.80688 16.26545,-3.61238 0.70464,1.18176 2.15318,9.74986 2.50741,10.42157 -0.0807,0.227 -22.12001,14.67259 -22.12001,14.67259 z" style="display:inline;fill-opacity:1;fill:#000000;opacity:1;stroke-dasharray:none;stroke-linecap:butt;stroke-linejoin:miter;stroke-miterlimit:4;stroke-opacity:1;stroke-width:0;stroke:#000000"/><path sodipodi:nodetypes="csscc" id="path6197-5-6" d="m 299.45773,215.19253 c 0.006,-0.15052 3.06748,-20.24269 3.01643,-20.43505 0,0 15.11733,-4.25466 15.22593,-4.06254 0.65983,1.16734 2.01625,9.68426 2.34795,10.34777 -0.0756,0.22423 -20.59031,14.14982 -20.59031,14.14982 z" style="display:inline;fill-opacity:1;fill:#0b1728;opacity:1;stroke-dasharray:none;stroke-linecap:butt;stroke-linejoin:miter;stroke-miterlimit:4;stroke-opacity:1;stroke-width:0;stroke:#000000"/><path sodipodi:nodetypes="cssccc" id="path6201-81-1" d="m 284.51487,205.20924 c 0.0133,-0.14802 0.991,-3.76164 1.04686,-3.94624 0,0 -10.13556,2.84037 -10.14148,3.07346 -0.008,0.30956 -0.81107,2.93146 -0.7689,3.0294 0.0242,0.22566 9.86356,-2.15662 9.86356,-2.15662 z" style="display:inline;fill-opacity:1;fill:#000000;opacity:1;stroke-dasharray:none;stroke-linecap:butt;stroke-linejoin:miter;stroke-miterlimit:4;stroke-opacity:1;stroke-width:0;stroke:#000000"/><path sodipodi:nodetypes="cssccc" id="path6201-0-39-5" d="m 321.73469,205.93856 c -0.0135,-0.25315 -2.19351,-6.61269 -2.32164,-6.93919 0,0 28.25558,7.57122 28.23428,7.96573 -0.0279,0.52399 1.81929,5.16395 1.68381,5.31746 -0.10544,0.37372 -27.59656,-6.34401 -27.59656,-6.34401 z" style="display:inline;fill-opacity:1;fill:#000000;opacity:1;stroke-dasharray:none;stroke-linecap:butt;stroke-linejoin:miter;stroke-miterlimit:4;stroke-opacity:1;stroke-width:0;stroke:#000000"/><path sodipodi:nodetypes="cssccc" id="path6201-07-8-8" d="m 284.41581,204.80064 c 0.0132,-0.13828 0.98105,-3.51413 1.03635,-3.68659 0,0 -10.03379,2.65349 -10.03965,2.87124 -0.008,0.28919 -0.80292,2.73858 -0.76118,2.83007 0.024,0.21081 9.76452,-2.01472 9.76452,-2.01472 z" style="display:inline;fill-opacity:1;fill:#0b1728;opacity:1;stroke-dasharray:none;stroke-linecap:butt;stroke-linejoin:miter;stroke-miterlimit:4;stroke-opacity:1;stroke-width:0;stroke:#000000"/><path sodipodi:nodetypes="cssccc" id="path6201-0-5-5-9" d="m 321.26188,205.48198 c -0.0134,-0.2365 -2.17149,-6.1776 -2.29833,-6.48261 0,0 27.97185,7.07304 27.95076,7.4416 -0.0276,0.48951 1.80102,4.82417 1.6669,4.96758 -0.10438,0.34913 -27.31944,-5.92658 -27.31944,-5.92658 z" style="display:inline;fill-opacity:1;fill:#0b1728;opacity:1;stroke-dasharray:none;stroke-linecap:butt;stroke-linejoin:miter;stroke-miterlimit:4;stroke-opacity:1;stroke-width:0;stroke:#000000"/><path style="display:inline;fill-opacity:1;fill-rule:nonzero;fill:#999999;opacity:1;stroke-dasharray:none;stroke-linecap:butt;stroke-linejoin:round;stroke-miterlimit:4;stroke-opacity:1;stroke-width:0;stroke:#000000" d="m 299.80598,206.99996 a 2.8059697,3.1566737 0 0 1 -2.80597,3.15668 2.8059697,3.1566737 0 0 1 -2.80597,-3.15668 2.8059697,3.1566737 0 0 1 2.80597,-3.15668 2.8059697,3.1566737 0 0 1 2.80597,3.15668 z" id="path6212-8-0"/></svg>
