<svg viewBox="0 0 560 1000"><path d="m 277.92014,121.43418 c 0.15976,0.25105 0.98694,1.76823 -0.47682,1.4457 -0.37467,-0.24115 -0.77553,-0.4419 -1.19508,-0.60715 -0.22121,-0.0871 -0.44762,-0.1644 -0.67812,-0.23252 -0.22144,-0.0654 -0.44666,-0.12244 -0.67468,-0.17163 -4.75105,-1.16618 -7.73246,-0.97737 -10.9402,0.17957 -0.007,-0.1608 -0.23947,0.009 -0.25786,-0.10322 0.11859,-0.12696 0.81465,-0.5233 0.8952,-0.5564 0.13064,-0.0537 -0.28417,-0.1546 -0.15717,-0.22073 0.16014,-0.0834 0.8551,-0.1476 1.02202,-0.22389 0.4834,-0.22092 0.99374,-0.41206 1.52232,-0.5735 0.18647,-0.057 -0.12475,-0.18833 0.0659,-0.23789 0.11719,-0.0305 0.73509,0.0186 0.85362,-0.009 0.52907,-0.12353 1.07059,-0.21925 1.61664,-0.28722 0.26197,-0.0326 -0.10001,-0.23069 0.16318,-0.25053 0.21942,-0.0165 1.06396,0.14323 1.28312,0.13556 0.38826,-0.0136 0.77532,-0.0132 1.15835,9.7e-4 0.22176,0.008 -0.0109,-0.29137 0.20757,-0.27383 0.19835,0.0159 0.84827,0.34819 1.04308,0.37178 0.46541,0.0564 0.91958,0.13458 1.35695,0.23463 0.31406,0.0718 -0.0368,-0.26694 0.25788,-0.1726 0.19042,0.061 1.0326,0.54847 1.21351,0.61881 0.64623,0.25128 1.22823,0.56239 1.72067,0.93316 z" id="path7283" sodipodi:nodetypes="ccsscccssssssssssssssscc" class="eyebrow_hair"/><path d="m 295.13605,122.01177 c -3.62966,1.19037 -2.64043,-0.34824 -2.59396,-0.88872 0.76259,-0.41006 1.5142,-0.75271 2.26214,-1.03632 0.35009,-0.13275 1.60535,-0.70555 1.95457,-0.81328 0.3564,-0.10995 -0.19319,0.24567 0.16384,0.15997 0.43341,-0.10402 0.86791,-0.19086 1.30492,-0.26214 0.393,-0.0641 1.45094,-0.34763 1.84903,-0.38776 0.28039,-0.0283 -0.10058,0.18115 0.18317,0.16378 0.49445,-0.0303 0.99461,-0.0446 1.5024,-0.0453 0.32118,-4.1e-4 1.42986,-0.15002 1.75763,-0.14002 0.27686,0.008 -0.2282,0.17509 0.054,0.19024 0.43475,0.0233 0.87618,0.0542 1.32536,0.0914 0.24725,0.0205 1.35864,-0.12283 1.61077,-0.0987 0.28945,0.0277 -0.27956,0.22337 0.0168,0.25528 0.70797,0.0762 1.43646,0.16357 2.18914,0.25785 0.28501,0.0639 1.32322,0.01 1.61271,0.0872 0.21372,0.0571 -0.32185,0.24261 -0.10748,0.3063 0.84808,0.25194 1.29752,0.35425 2.09664,0.68544 0.38647,0.16018 1.19921,0.29612 1.55786,0.46816 0.0697,0.0334 -0.29877,0.0983 -0.23038,0.13206 -0.12503,0.22749 0.81286,0.87578 2.77722,2.1208 -7.46654,-3.18414 -9.92979,-4.29954 -21.28638,-1.24624 z" id="path7285" sodipodi:nodetypes="ccsssssssssssscssssccc" class="eyebrow_hair"/></svg>
