<svg viewBox="0 0 560 1000"><path sodipodi:nodetypes="ccccscccccc" id="path4938" d="m 368.45236,268.83602 c 0.40069,1.40387 0.82871,12.89967 -6.36035,37.77919 -12.15896,26.12678 -20.07931,40.42492 -18.23168,72.34606 -30.1743,9.46458 -99.23768,14.85361 -107.75336,-7.03905 2.433,-12.49684 2.06627,-18.80217 2.23754,-34.00531 0.24452,-21.70551 -0.78407,-32.77954 -1.68254,-45.3169 -1.42778,-60.22724 49.22582,-91.39318 50.18174,-91.89098 9.24713,11.38115 25.18214,3.12903 31.26177,-2.13928 1.50252,1.12706 9.10193,4.89722 7.88644,5.69617 -59.64798,34.7469 1.82837,42.20589 38.19229,63.32537 z" style="display:inline;fill-opacity:1;fill-rule:evenodd;fill:#000000;opacity:1;stroke-dasharray:none;stroke-linecap:butt;stroke-linejoin:miter;stroke-miterlimit:4;stroke-opacity:1;stroke-width:0;stroke:#000000"/><path sodipodi:nodetypes="cccccccccscc" id="path4940" d="m 368.47602,268.56519 c -0.47811,3.70196 -1.71839,20.80284 -7.95729,39.14162 -13.45974,23.09583 -20.94919,49.90274 -17.4138,71.15336 -31.15729,6.94181 -93.87125,12.40419 -106.47362,-6.90656 3.80579,-12.31976 3.83839,-53.28333 1.97933,-77.32633 -3.37265,-53.10898 14.43818,-62.96835 38.32548,-88.64617 0.49229,-0.51848 5.43756,-2.25669 9.91452,-4.65903 9.14993,11.38115 24.91744,3.12903 30.93316,-2.13928 1.48672,1.12706 18.23182,7.00546 18.7637,8.34782 1.34998,3.19719 2.37503,6.3614 3.25412,9.48996 2.76556,9.84229 4.08656,19.33169 9.53548,28.38477 7.32565,13.63251 13.69888,21.31242 19.13892,23.15984 z" style="display:inline;fill-opacity:1;fill-rule:evenodd;fill:#1a1a1a;opacity:1;stroke-dasharray:none;stroke-linecap:butt;stroke-linejoin:miter;stroke-miterlimit:4;stroke-opacity:1;stroke-width:0;stroke:#000000"/><path sodipodi:nodetypes="ccssssccccc" id="path1664-0-5-8-1" d="m 350.44891,411.28161 c -41.34356,12.40411 -56.35277,29.50718 -67.32299,47.0649 -1.04023,1.75909 -1.92047,7.35117 -4.50173,9.70959 -0.97785,0.89343 -3.70051,-0.0277 -4.03805,0.0431 -0.91345,0.19159 -2.09488,0.29968 -2.84109,0.24274 -1.3589,-0.10369 -3.10427,-0.97079 -4.62926,-2.64607 -1.15035,-1.26373 -2.1753,-2.98733 -2.81436,-5.19001 -8.27893,-10.93923 -27.60352,-39.54369 -38.34145,-47.86102 0.0176,-0.005 -0.05,-0.20603 0.59439,-1.93851 29.91996,7.91079 37.53385,11.40066 123.28163,-1.21761 0,0 0.63138,1.78415 0.61291,1.79289 z" style="display:inline;fill-opacity:1;fill-rule:evenodd;fill:#1a1a1a;opacity:1;stroke-dasharray:none;stroke-linecap:butt;stroke-linejoin:miter;stroke-miterlimit:4;stroke-opacity:1;stroke-width:0;stroke:#000000"/><path sodipodi:nodetypes="ccccccc" id="path1667-4-1-4-1" d="m 225.9378,412.66104 c 0.12717,-0.79329 0.24724,-0.90642 0.25482,-0.95601 23.02972,9.12926 54.6817,12.66174 123.82806,-1.73671 0.0291,0.083 0.24793,0.57628 0.45084,1.30322 -7.49448,2.32559 -13.58511,4.61432 -22.50451,8.15633 -60.49161,9.75774 -83.56164,4.33761 -97.57663,-2.66633 -1.68147,-1.78024 -2.87542,-3.01265 -4.45258,-4.1005 z" style="display:inline;fill-opacity:1;fill:#5a2ca0;stroke-dasharray:none;stroke-linecap:butt;stroke-linejoin:miter;stroke-miterlimit:4;stroke-opacity:1;stroke-width:0;stroke:#83afc8"/><path sodipodi:nodetypes="ccccc" id="path1676-0-6-2-5" d="m 241.44907,429.61473 c 16.19921,3.4137 37.32679,4.09867 68.75142,-0.23858 -1.10723,0.72649 -4.9682,3.64884 -9.02733,7.02192 -26.13262,3.68145 -42.62028,3.1439 -53.96133,0.73077 -1.89388,-2.48871 -3.25794,-4.54662 -5.76276,-7.51411 z" style="display:inline;fill-opacity:1;fill:#5a2ca0;stroke-dasharray:none;stroke-linecap:butt;stroke-linejoin:miter;stroke-miterlimit:4;stroke-opacity:1;stroke-width:0;stroke:#83afc8"/><path sodipodi:nodetypes="ccccc" id="path1678-6-7-8-4" d="m 252.70414,444.58541 c 10.94342,1.31488 24.01095,1.50229 40.32871,0.0811 -1.56759,2.01272 -3.58281,4.56444 -5.24245,6.66295 -12.30604,1.16431 -22.00263,1.20882 -29.81942,0.51362 -2.04934,-2.61037 -3.63449,-4.68604 -5.26684,-7.25767 z" style="display:inline;fill-opacity:1;fill:#5a2ca0;stroke-dasharray:none;stroke-linecap:butt;stroke-linejoin:miter;stroke-miterlimit:4;stroke-opacity:1;stroke-width:0;stroke:#83afc8"/><path sodipodi:nodetypes="ccccc" id="path1680-3-2-1-6" d="m 262.53421,458.18295 c 6.22871,0.31514 13.08896,0.30377 20.72809,-0.0971 -0.87505,2.4389 -1.64015,4.66739 -2.42955,6.53665 -5.25319,0.34928 -9.97649,0.47387 -14.24234,0.41152 -1.68576,-1.69159 -2.0194,-4.59693 -4.0562,-6.85107 z" style="display:inline;fill-opacity:1;fill:#5a2ca0;stroke-dasharray:none;stroke-linecap:butt;stroke-linejoin:miter;stroke-miterlimit:4;stroke-opacity:1;stroke-width:0;stroke:#83afc8"/><path sodipodi:nodetypes="cssssccc" id="path1688-6-0-5-8" d="m 282.94456,458.76549 c -0.0483,0.15247 -0.11284,0.47208 -0.19954,0.90622 -0.41277,2.06685 -1.81439,6.53069 -3.87757,8.11265 -0.26921,0.20642 -1.13559,1.14752 -4.57861,0.28177 -0.17398,-0.0437 -2.18026,1.1699 -4.2783,0.12449 -4.65827,-2.32112 -6.22252,-8.10904 -6.31915,-8.53686 3.82592,9.08132 8.89939,9.3147 10.40315,7.55401 5.26837,2.79873 7.50839,-4.81217 8.85002,-8.44228 z" style="display:inline;fill-opacity:1;fill-rule:evenodd;fill:#000000;opacity:1;stroke-dasharray:none;stroke-linecap:butt;stroke-linejoin:miter;stroke-miterlimit:4;stroke-opacity:1;stroke-width:0;stroke:#000000"/></svg>
