<svg viewBox="0 0 560 1000"><path d="M 289.6,630.9 C 279.8,590.6 268.8,530 272.8,483.8 c -0.8,44.7 7.6,106.4 16.8,147.1 z" class="shadow" id="path6292"/><path sodipodi:nodetypes="cccccccccsccccccc" id="path6294" d="m 251.86935,691.92303 c -0.72709,-1.33403 -1.4012,-1.81397 -2.89128,-2.05851 -1.61463,-0.26501 -2.35548,-0.87725 -4.38225,-3.62126 -1.34147,-1.8163 -3.1393,-3.86338 -3.99508,-4.54907 -2.97806,-2.38601 -3.97631,-4.79875 -3.92035,-9.47504 0.0281,-2.33133 0.15835,-5.13643 0.29012,-6.23356 0.27705,-2.30773 1.07751,-5.60447 1.82241,-17.21297 0.28235,-9.6e-4 1.49187,11.86077 1.2789,13.59752 -0.99331,8.10014 -1.03534,9.50147 -0.36727,12.2554 0.61658,2.54201 0.95558,3.02408 2.70639,3.84896 2.27464,1.07169 5.16032,4.06785 6.59982,6.85259 0.85628,1.65641 1.11524,1.82214 2.1155,1.35382 0.84806,-0.95394 4.87742,-4.42854 6.88409,-8.82118 0.11886,3.08862 -2.73552,7.07752 -4.37851,10.10683 -0.88604,1.63345 -0.8736,2.90742 0.0467,4.82338 0.807,1.67962 -0.85546,0.88309 -1.80938,-0.86691 z" style="display:inline;fill-opacity:1;fill:#464646;stroke-width:0.53315955"/><path sodipodi:nodetypes="cccccccccccsccccccsscc" id="path6296" d="m 323.29159,698.20571 c -11.14376,-2.57117 -10.73247,-21.06825 -5.41958,-30.28295 -0.22592,-0.22982 0.31783,-1.19964 1.20827,-2.15517 1.68519,-1.80838 5.58442,-3.31168 7.87134,-3.03469 0.6483,0.0784 2.2136,1.29752 3.49032,2.71815 1.27315,1.4167 2.59088,2.56882 2.9283,2.56026 3.22122,-2.13523 5.76784,-7.26011 6.8038,-11.33804 1.76604,-2.70154 2.7206,-2.22939 1.477,0.73053 -0.51483,1.22517 -1.79364,4.30782 -2.84193,6.85034 -1.83242,4.4444 -4.01296,7.31652 -5.55911,7.32235 -1.66269,0.006 -3.64032,-1.50772 -3.77364,-2.88891 -0.16141,-1.67181 -1.98602,-3.58855 -3.41614,-3.58855 -0.55721,0 -1.95911,0.40766 -3.11533,0.90589 -6.34503,2.24575 -9.03218,14.46255 -4.18679,19.74865 2.92392,-0.003 11.57814,3.98545 10.66453,4.91508 -0.27036,0.27511 -3.9062,-0.28635 -6.87035,-1.06097 -0.83883,-0.21921 -4.63173,-0.80185 -4.62027,-0.24194 1.52967,2.90373 9.32551,8.98337 13.36157,6.95049 0.88081,-0.55393 1.72404,-0.5609 1.72404,-0.0144 0,0.96069 -4.41425,2.81816 -6.6973,2.81816 -0.46229,0 -1.82523,-0.41149 -3.02876,-0.91443 z" style="display:inline;fill-opacity:1;fill:#464646;stroke-width:0.51072145"/><path sodipodi:nodetypes="ccccc" id="path6298" d="m 304.29762,649.75811 c -4.59018,-17.71186 -3.71691,-21.7088 1.01795,-4.65944 3.84414,13.84129 5.55351,17.47133 10.6734,22.66349 2.19899,2.23013 2.44092,2.88404 1.15327,3.11622 -6.38794,-2.34419 -12.12666,-18.39545 -12.84462,-21.12027 z" style="display:inline;fill-opacity:1;fill:#464646;stroke-width:1.33007073"/><path id="path6300" d="m 315.75552,780.96828 c -1.16061,-5.02183 -2.39837,-9.46016 -2.75064,-9.86294 -0.35223,-0.40279 -0.67674,-2.26984 -0.72113,-4.14902 -0.0648,-2.73849 -1.38457,-11.79434 -2.88612,-19.80201 -0.12057,-0.64276 0.0788,-1.26551 0.44303,-1.3838 0.6577,-0.21361 0.93692,0.90109 3.20814,12.80789 l 1.18271,6.20041 2.04453,-2.77744 c 1.56243,-2.12257 2.82396,-5.82983 5.35009,-15.72231 4.76815,-18.67224 8.34011,-28.86751 4.89074,-13.95935 -5.01909,21.69248 -6.85069,28.33165 -8.58534,31.12024 -1.02893,1.65413 -2.18655,3.02692 -2.57242,3.05064 -0.86711,0.0533 0.31324,8.209 2.08652,14.4172 1.37325,4.80763 1.83139,9.10435 0.97637,9.15692 -0.30596,0.0188 -1.50589,-4.07457 -2.66648,-9.09643 z" style="display:inline;fill-opacity:1;fill:#464646;stroke-width:0.68576407"/><path id="path6302" d="m 269.10164,794.20838 c 0.006,-1.6665 1.03034,-5.95998 2.18963,-9.17414 2.30951,-6.40359 4.74446,-22.50614 3.77492,-24.96397 -1.88452,-4.77744 -2.67054,-26.1185 -1.00556,-27.30196 0.51406,-0.36538 0.91399,-0.511 0.88873,-0.32358 -0.15233,1.13065 0.65926,21.43617 0.90454,22.6306 0.16412,0.79886 0.7545,2.22172 1.31203,3.1619 l 1.01378,1.70947 1.95282,-1.74037 c 1.07404,-0.95721 2.30685,-1.7226 2.7396,-1.7009 1.42812,0.0717 0.54307,2.08331 -1.32786,3.01801 -2.03504,1.01668 -3.62654,4.96205 -5.74303,14.23689 -2.27919,9.98773 -6.71002,23.51123 -6.6996,20.44805 z" style="display:inline;fill-opacity:1;fill:#464646;stroke-width:0.78087538"/></svg>
