<svg viewBox="0 0 560 1000"><path d="m 339.34739,405.05894 c 11.66744,-2.88915 29.34188,17.43453 36.73509,29.98739 12.01399,20.8218 8.08635,41.74324 6.12252,52.0047 -6.50305,14.12929 -12.02078,17.29388 -16.75028,21.92942 -9.01048,19.62629 -12.24502,52.93063 -19.52273,52.4325 -19.29169,-1.29514 -35.11781,-149.28057 -6.5846,-156.35401 z" id="path3095" sodipodi:nodetypes="cccccc" style="fill-opacity:1;fill:#808080"/><path style="display:inline;fill-opacity:1;fill:#b3b3b3;stroke-dasharray:none;stroke-linecap:butt;stroke-linejoin:miter;stroke-miterlimit:4;stroke-opacity:1;stroke-width:0;stroke:#000000" d="m 355.2172,518.31626 1.24937,17.63765 0.007,0.0845 c 0.0458,-0.0119 0.30332,-0.0149 0.34697,-0.0207 0.77327,-3.27927 4.7415,-17.16927 5.11102,-17.59695 z" id="path3213-6" sodipodi:nodetypes="cccccc"/><path style="display:inline;fill-opacity:1;fill:#b3b3b3;stroke-dasharray:none;stroke-linecap:butt;stroke-linejoin:miter;stroke-miterlimit:4;stroke-opacity:1;stroke-width:0;stroke:#000000" d="m 351.42113,412.76189 5.61266,8.21902 c 0.0961,-0.42835 3.85737,-4.82572 3.75831,-5.38345 -0.72365,-1.4272 -6.77835,-5.73835 -7.01829,-5.90361 z" id="path3213-5-8-7" sodipodi:nodetypes="ccccc"/></svg>
