<svg viewBox="0 0 560 1000"><path sodipodi:nodetypes="ccccccccc" id="path3198" d="m 267.4,253.7 c -28.3,-5.9 -22.8,53.7 -29.6,71.4 18.2,0.4 51.1,-12.2 103.6,-15.7 0,0 36.2,-17.5 37.3,-2.1 3,38.7 -20.2,22.3 -37.3,14.6 -18.04351,17.54942 -130.23052,37.90729 -134.13052,21.80729 C 204.56948,332.80729 230.9,236.6 246.2,219.8 c 6.9,-7.7 8.3,-4.7 14.3,-8.9 43.1,6.1 25,46.1 6.9,42.8" style="fill:#ffffff"/><path sodipodi:nodetypes="ccccc" id="path3000-1-9-4-4-1-2" d="m 262.23209,237.27314 c -7.46177,6.86101 -22.82938,19.21672 -32.93528,17.75444 0.25902,-1.2722 1.10794,-3.36632 1.43129,-3.88703 10.45668,2.03163 27.55324,-14.75434 30.54027,-15.84236 z" style="display:inline;fill-opacity:1;fill:#333333;stroke-dasharray:none;stroke-linecap:butt;stroke-linejoin:miter;stroke-miterlimit:4;stroke-opacity:1;stroke-width:0;stroke:#000000"/><path sodipodi:nodetypes="ccccc" id="path3000-1-9-4-9-0-5-9-00-9" d="m 207.17256,343.63074 c 17.95471,-15.33882 18.43886,-14.52322 31.1913,-20.08743 0.001,0.50178 -0.19291,0.92948 -0.5464,1.5375 -10.16278,4.99074 -12.50946,5.86075 -29.77933,20.20207 -0.32562,-0.38262 -0.47969,-0.61462 -0.86557,-1.65214 z" style="display:inline;fill-opacity:1;fill:#333333;stroke-dasharray:none;stroke-linecap:butt;stroke-linejoin:miter;stroke-miterlimit:4;stroke-opacity:1;stroke-width:0;stroke:#000000"/><path sodipodi:nodetypes="ccccc" id="path3000-1-9-4-9-2-5-0-2" d="m 224.77864,330.84333 c 11.95116,8.36559 32.41672,4.27484 60.64568,-4.22408 1.34019,-0.83529 0.35733,-1.16581 -0.12402,-1.80585 -49.72536,16.5276 -57.76007,5.46036 -58.4416,4.94504 z" style="display:inline;fill-opacity:1;fill:#333333;stroke-dasharray:none;stroke-linecap:butt;stroke-linejoin:miter;stroke-miterlimit:4;stroke-opacity:1;stroke-width:0;stroke:#000000"/><path sodipodi:nodetypes="ccccc" id="path3000-1-9-4-9-2-9-0-4-4" d="m 224.94355,331.15635 c 3.76924,-27.64208 5.62359,-37.4514 14.58821,-80.82301 0.67779,-0.72107 0.19487,1.38414 1.54799,1.07 -9.17789,41.79535 -14.51599,77.59565 -14.14074,78.71959 z" style="display:inline;fill-opacity:1;fill:#333333;stroke-dasharray:none;stroke-linecap:butt;stroke-linejoin:miter;stroke-miterlimit:4;stroke-opacity:1;stroke-width:0;stroke:#000000"/><path sodipodi:nodetypes="ccccc" id="path3000-1-9-4-9-2-5-0-8-1" d="m 211.38104,341.24232 c 13.30605,7.62845 38.18669,6.74478 71.15423,3.09931 1.71881,-0.75878 0.6234,-1.32849 0.17066,-2.17849 -54.68227,8.13696 -69.8362,-1.39017 -70.54567,-2.12689 z" style="display:inline;fill-opacity:1;fill:#333333;stroke-dasharray:none;stroke-linecap:butt;stroke-linejoin:miter;stroke-miterlimit:4;stroke-opacity:1;stroke-width:0;stroke:#000000"/><path sodipodi:nodetypes="ccccc" id="path3000-1-9-4-9-2-5-0-8-1-7" d="m 379.04374,315.06856 c -8.20548,3.44095 -15.17023,2.80728 -30.92852,1.97431 -0.75316,-0.75878 -0.27317,-1.32849 -0.0748,-2.17849 21.58579,2.63696 30.60098,-1.39017 30.91185,-2.12689 z" style="display:inline;fill-opacity:1;fill:#333333;stroke-dasharray:none;stroke-linecap:butt;stroke-linejoin:miter;stroke-miterlimit:4;stroke-opacity:1;stroke-width:0;stroke:#000000"/></svg>
