<svg viewBox="0 0 560 1000"><path sodipodi:nodetypes="csssssssssssssssssssssssscssssssssssssssssssssssssscc" id="path3282-5-4-0-5-5-3-9" class="shadow" d="m 390.51251,482.01997 c -1.12037,0.41865 -2.58602,1.44755 -3.06247,1.62517 -0.1673,0.0624 -2.8028,-2.4716 -2.96505,-2.44404 -4.20533,0.71443 -8.2497,2.30075 -13.72624,4.8025 -0.20903,0.0955 0.2654,4.98556 0.0532,5.08002 -4.01596,1.78795 -8.60226,3.38146 -14.01181,4.36525 -0.11776,0.0214 -3.43981,-5.12788 -3.55799,-5.10646 -6.16654,1.11783 -12.90208,2.24471 -20.19062,3.39598 -0.27648,0.0437 -0.841,4.99238 -1.11901,5.03501 -4.65184,0.7132 -9.51697,1.27797 -14.58804,1.64304 -0.17529,0.0126 -2.66326,-4.56863 -2.83892,-4.55624 -6.76487,0.47704 -13.80154,0.78124 -21.05614,0.86426 -0.16153,0.002 -1.20703,4.77697 -1.36876,4.77797 -5.03242,0.0466 -10.06996,0.14151 -15.2691,-0.18842 -0.15444,-0.01 -0.99395,-4.48335 -1.14851,-4.49343 -6.23887,-0.40681 -12.5282,-0.77903 -18.91896,-1.68502 -0.16625,-0.0236 -1.14502,3.73391 -1.31133,3.70991 -4.39186,-0.6336 -8.80568,-1.4158 -13.22865,-2.36212 -0.10008,-0.0214 -0.35484,-3.57843 -0.45492,-3.60003 -4.94908,-1.06624 -9.90832,-2.31688 -14.85963,-3.77032 -0.11868,-0.0348 -1.64361,2.83645 -1.76227,2.80136 -3.63359,-1.07446 -6.95022,-2.57508 -10.56115,-3.89118 -0.19669,-0.0717 0.0707,-3.45828 -0.12589,-3.53066 -3.7333,-1.37442 -7.24874,-4.13613 -10.94444,-5.76149 -0.0549,-0.0242 -2.45362,3.12352 -2.50854,3.0993 -0.52139,-0.22993 -1.04611,-0.51728 -1.56633,-0.75269 -0.005,0.0218 -0.24173,0.46758 -0.23893,0.48419 0.003,0.0154 0.91302,0.77777 1.92589,1.23673 0.16458,0.0746 2.39404,-3.102 2.558,-2.97372 1.54395,1.208 4.76296,3.1781 9.84566,5.25938 0.0559,0.0229 0.11475,3.75851 0.17149,3.78018 3.27996,1.25389 7.43116,3.05505 11.81787,4.3439 0.0814,0.0239 1.56286,-2.94796 1.64321,-2.91979 4.20944,1.47594 8.46992,2.2183 13.46922,3.38148 0.0977,0.0227 0.40198,3.8024 0.49998,3.82507 4.52377,1.04687 9.88271,1.85704 15.02922,2.62866 0.11331,0.017 1.34533,-3.68723 1.45893,-3.6704 5.52798,0.81914 10.90534,0.89611 16.96291,1.30337 0.0926,0.006 1.37844,4.65281 1.47113,4.65899 5.42991,0.36223 11.53839,0.26202 17.35629,0.18591 0.16122,-0.002 0.80365,-4.56223 0.96515,-4.55862 6.84281,0.15323 12.45491,-0.30042 19.17924,-0.87512 0.12566,-0.0107 2.96859,4.39992 3.09443,4.38916 5.44977,-0.46595 11.12398,-0.58408 16.65632,-1.57911 0.17871,-0.0321 0.91308,-4.91437 1.09194,-4.94718 6.17744,-1.13299 11.62959,-1.97932 18.03267,-3.10243 0.10455,-0.0183 3.89322,5.06822 3.99816,5.08497 0.74663,0.11916 15.31315,-4.38765 15.58689,-4.50097 0.12035,-0.0498 -0.15819,-5.52773 -0.0557,-5.6093 0.28486,-0.22661 6.97662,-2.02171 12.4277,-4.4786 0.0531,-0.024 2.87363,2.26414 2.93127,2.24524 1.23295,-0.4032 2.26578,-1.28644 3.31287,-1.71011 z"/><path sodipodi:nodetypes="cscccssssssccccccsccc" id="path2188-0-6-8" d="m 370.45236,269.21102 c 0.40069,1.40387 3.07871,13.77467 -0.11035,39.40419 -2.41401,19.40067 -5.18925,37.70585 -5.78563,39.16393 11.88028,23.7788 14.86269,53.01654 -0.82644,69.63321 0,0 -66.36927,-2.34168 -77.87849,25.99569 -2.06147,4.01155 -2.1084,11.81811 -3.46792,16.10443 -0.27859,0.87834 -1.00697,6.35332 -3.50565,8.26757 -0.26944,0.20641 -1.13656,1.14752 -4.58251,0.28177 -0.17413,-0.0437 -1.37345,0.71664 -3.61847,0.0361 -5.83439,-1.76869 -6.66978,-8.86034 -6.76649,-9.28816 -1.6737,-7.40423 -46.11954,12.61666 -60.09264,19.37984 -2.60222,1.25951 -4.32858,2.9642 -4.32858,2.9642 4.97328,-21.33859 11.84073,-46.07126 23.41575,-65.94944 -11.70295,-42.60692 5.50629,-73.38887 10.13629,-95.49544 -7.87076,-86.73226 31.29947,-86.30702 44.2246,-113.72213 -0.63873,-0.33426 3.72755,-3.58252 8.25208,-5.98486 9.24713,11.38115 27.00794,3.33614 33.08757,-1.93217 1.50252,1.12706 8.60193,5.39722 7.38644,6.19617 -25.72677,16.91039 -30.90217,28.84774 -29.45933,29.06832 3.13991,1.52155 68.54551,33.80749 69.65162,34.63205 z" style="display:inline;fill-opacity:1;fill-rule:evenodd;fill:#000000;opacity:1;stroke-dasharray:none;stroke-linecap:butt;stroke-linejoin:miter;stroke-miterlimit:4;stroke-opacity:1;stroke-width:0;stroke:#000000"/><path sodipodi:nodetypes="cscccscssssssssssssssssssssssssccccccccccc" id="path2191-3-5-4" d="m 370.47602,268.94019 c -0.47811,3.70196 1.28161,21.67784 -1.70729,40.76662 -3.02097,19.29358 -3.72102,33.50804 -5.34368,37.99863 9.57623,20.96815 15.2788,50.33587 0.49309,69.00008 0.49456,0.58345 0.99615,1.17702 1.50461,1.78174 15.5706,19.91859 23.92209,57.82149 25.0696,63.38824 0.0443,0.21481 0.0549,0.36195 0.0301,0.43701 -0.0744,0.0285 -2.87553,1.59116 -3.08523,1.61187 -0.24967,0.0247 -2.66909,-2.57614 -2.90308,-2.47239 -3.76548,1.66966 -8.26984,3.28806 -13.36775,4.81151 -0.38887,0.11621 0.18143,5.35098 -0.20407,5.48523 -4.80255,1.67253 -8.41412,2.87423 -14.27134,4.09295 -0.3584,0.0746 -3.66282,-5.0851 -4.02418,-5.01148 -5.97891,1.21801 -12.36129,2.30427 -19.01773,3.21986 -0.37859,0.0521 -1.00807,5.18203 -1.38841,5.23299 -5.75087,0.77059 -9.10799,0.93476 -15.17105,1.4249 -0.36585,0.0296 -3.07311,-4.54128 -3.43978,-4.51282 -6.45776,0.50121 -13.03972,0.82838 -19.64707,0.95182 -0.30179,0.006 -1.13397,4.60705 -1.43585,4.61183 -5.72159,0.0907 -10.30978,0.0277 -15.99861,-0.20823 -0.27377,-0.0113 -1.16615,-4.6193 -1.43969,-4.63146 -6.10964,-0.27159 -12.15979,-0.744 -18.07086,-1.44126 -0.22365,-0.0264 -1.17804,3.64602 -1.39891,3.60371 -4.16151,-0.79722 -9.05345,-1.40536 -13.83342,-2.35891 -0.15644,-0.0312 -0.50022,-3.72498 -0.65634,-3.75657 -4.88021,-0.98762 -9.59854,-2.16348 -14.10199,-3.54353 -0.22729,-0.0696 -1.54686,2.89939 -1.77304,2.82869 -4.08252,-1.27596 -7.25595,-2.47203 -10.93733,-4.10025 -0.17311,-0.0766 0.0186,-3.44272 -0.15358,-3.52011 -3.81009,-1.71261 -7.37918,-3.62316 -10.66202,-5.74525 -0.1108,-0.0716 -2.38213,3.17942 -2.50159,3.1241 -0.12098,-0.056 -1.34706,-0.65058 -1.64864,-0.85193 7.075,-21.02738 14.23186,-51.02901 25.28533,-64.66314 -12.03673,-43.20489 7.555,-80.23569 9.80166,-97.33842 -1.99165,-16.83136 -1.98015,-40.94233 2.94339,-59.87306 3.84463,-13.94035 14.84157,-26.75278 39.51485,-53.30205 0.49229,-0.51848 4.11173,-2.9638 8.58869,-5.36614 9.14993,11.38115 27.18074,3.33614 33.19646,-1.93217 1.48672,1.12706 17.29432,7.50546 17.8262,8.84782 5.59696,13.25538 5.60863,25.94395 12.7896,37.87473 7.32565,13.63251 15.69888,21.68742 21.13892,23.53484 z" style="display:inline;fill-opacity:1;fill-rule:evenodd;fill:#5f6ea0;opacity:1;stroke-dasharray:none;stroke-linecap:butt;stroke-linejoin:miter;stroke-miterlimit:4;stroke-opacity:1;stroke-width:0;stroke:#000000"/><path style="display:inline;fill-opacity:1;fill:#ffffff;opacity:1;stroke-dasharray:none;stroke-linecap:butt;stroke-linejoin:miter;stroke-miterlimit:4;stroke-opacity:1;stroke-width:0;stroke:#000000" d="M 388.75048,477.03475 C 325.88533,502.30439 219.4127,494.2293 202.18095,472.84059 l 0.50934,-1.31436 c 36.77007,27.20814 144.63321,19.97628 185.47388,3.98034 0.1385,0.27852 0.44728,1.28671 0.58631,1.52818 z" id="path2329-3-0-26-1-6-8-4" sodipodi:nodetypes="ccccc"/><path style="display:inline;fill-opacity:1;fill:#ffffff;opacity:1;stroke-dasharray:none;stroke-linecap:butt;stroke-linejoin:miter;stroke-miterlimit:4;stroke-opacity:1;stroke-width:0;stroke:#000000" d="m 387.06239,472.98347 c -63.82717,21.90257 -166.29566,15.55515 -183.2347,-4.80909 l 0.49861,-1.17863 c 36.09645,25.322 140.22164,17.52339 182.04308,4.27362 0.1385,0.27852 0.55398,1.38425 0.69301,1.7141 z" id="path2329-3-0-26-1-4-1-4-7" sodipodi:nodetypes="ccccc"/><path style="display:inline;fill-opacity:1;fill:#e7bb67;opacity:1;stroke-dasharray:none;stroke-linecap:butt;stroke-linejoin:miter;stroke-miterlimit:4;stroke-opacity:1;stroke-width:0;stroke:#000000" d="m 203.55359,478.92173 c 8.51495,-28.38984 24.90569,-58.3362 35.05008,-89.27979 l 1.51993,0.57841 c -8.38453,32.41858 -18.87908,63.04264 -25.84818,94.53961 -4.19544,-1.96694 -6.85804,-3.20798 -10.72183,-5.83823 z" id="path2329-2-7-4" sodipodi:nodetypes="ccccc"/><path style="display:inline;fill-opacity:1;fill:#e7bb67;opacity:1;stroke-dasharray:none;stroke-linecap:butt;stroke-linejoin:miter;stroke-miterlimit:4;stroke-opacity:1;stroke-width:0;stroke:#000000" d="m 226.95772,489.464 c 7.24497,-32.07307 17.36955,-64.50147 26.93716,-96.11001 l 2.03771,0.43067 c -7.35074,32.55411 -9.7067,66.76448 -14.70238,99.31859 -4.43458,-0.94634 -9.83791,-2.1253 -14.27249,-3.63925 z" id="path2329-3-3-6-7" sodipodi:nodetypes="ccccc"/><path style="display:inline;fill-opacity:1;fill:#e7bb67;opacity:1;stroke-dasharray:none;stroke-linecap:butt;stroke-linejoin:miter;stroke-miterlimit:4;stroke-opacity:1;stroke-width:0;stroke:#000000" d="m 256.96019,495.62277 c 4.12528,-33.29707 11.21077,-67.27028 17.20686,-99.63194 l 1.98474,0.31888 c -1.1273,33.48562 1.58175,67.71877 -0.94699,100.73724 -5.90886,-0.17424 -12.66842,-0.58459 -18.24461,-1.42418 z" id="path2329-3-0-5-9-9" sodipodi:nodetypes="ccccc"/><path style="display:inline;fill-opacity:1;fill:#e7bb67;opacity:1;stroke-dasharray:none;stroke-linecap:butt;stroke-linejoin:miter;stroke-miterlimit:4;stroke-opacity:1;stroke-width:0;stroke:#000000" d="m 293.97998,497.23072 c -0.55795,-32.66775 1.13471,-66.01338 1.96298,-100.52941 l 2.53771,-0.0997 c 3.73479,35.86669 11.87466,67.7164 15.34928,99.64702 -6.4873,0.7737 -15.28556,1.51121 -19.84997,0.98209 z" id="path2329-3-0-2-5-3-0" sodipodi:nodetypes="ccccc"/><path style="display:inline;fill-opacity:1;fill:#e7bb67;opacity:1;stroke-dasharray:none;stroke-linecap:butt;stroke-linejoin:miter;stroke-miterlimit:4;stroke-opacity:1;stroke-width:0;stroke:#000000" d="m 333.58147,494.15658 c -7.04711,-32.54953 -12.39888,-65.66548 -16.83289,-99.52156 l 1.96578,-0.25435 c 5.55226,34.08301 23.32978,64.51357 34.0336,96.4501 -5.88931,1.26555 -12.94565,2.47467 -19.16649,3.32581 z" id="path2329-3-0-2-4-3-4-1" sodipodi:nodetypes="ccccc"/><path style="display:inline;fill-opacity:1;fill:#e7bb67;opacity:1;stroke-dasharray:none;stroke-linecap:butt;stroke-linejoin:miter;stroke-miterlimit:4;stroke-opacity:1;stroke-width:0;stroke:#000000" d="m 371.13216,486.30077 c -15.12415,-30.24903 -25.05372,-61.32185 -35.32911,-95.09726 l 2.09577,-0.90902 c 5.05362,15.805 27.87694,64.14372 46.67297,91.17249 -4.07146,1.82226 -9.20346,3.50567 -13.43963,4.83379 z" id="path2329-3-0-2-4-9-2-3-4" sodipodi:nodetypes="ccccc"/><path style="display:inline;fill-opacity:1;fill:#e7bb67;opacity:1;stroke-dasharray:none;stroke-linecap:butt;stroke-linejoin:miter;stroke-miterlimit:4;stroke-opacity:1;stroke-width:0;stroke:#000000" d="m 373.2337,386.80975 c -40.86096,10.96691 -119.8662,10.54178 -152.56095,-0.79596 l 1.02688,-13.68308 c 47.7592,15.19673 118.66515,7.67595 150.25593,1.79037 -0.1896,0.57539 0.94809,9.28483 1.27814,12.68867 z" id="path2329-3-0-26-2-5-7" sodipodi:nodetypes="ccccc"/><path style="display:inline;fill-opacity:1;fill:#ffffff;opacity:1;stroke-dasharray:none;stroke-linecap:butt;stroke-linejoin:miter;stroke-miterlimit:4;stroke-opacity:1;stroke-width:0;stroke:#000000" d="m 373.17962,385.09416 c -40.86096,10.96691 -119.81999,9.85973 -152.51474,-1.47801 l 0.61917,-9.2167 c 47.7592,15.19673 119.30968,7.11107 150.90046,1.22549 0.0448,0.13789 0.75883,6.90945 0.99511,9.46922 z" id="path2329-3-0-26-7-4-4-5" sodipodi:nodetypes="ccccc"/><path style="display:inline;fill-opacity:1;fill:#5f6ea0;opacity:1;stroke-dasharray:none;stroke-linecap:butt;stroke-linejoin:miter;stroke-miterlimit:4;stroke-opacity:1;stroke-width:0;stroke:#000000" d="m 372.8105,381.66898 c -41.39444,10.52696 -119.67514,10.16579 -151.92859,-0.97304 l 0.1018,-3.04244 c 45.2592,15.44673 118.71422,7.73201 151.555,1.34643 0.0135,0.65352 0.20001,1.79468 0.27179,2.66905 z" id="path2329-3-0-26-0-5-5-9" sodipodi:nodetypes="ccccc"/><path style="display:inline;fill-opacity:1;fill:#fffff0;opacity:1;stroke-dasharray:none;stroke-linecap:butt;stroke-linejoin:miter;stroke-miterlimit:4;stroke-opacity:1;stroke-width:0;stroke:#000000" d="m 370.39741,269.98904 c -27.35909,-12.76218 -35.35546,-63.16932 -35.34102,-63.50197 l 1.46471,0.8232 c 3.25485,-0.36024 8.38702,43.07969 33.9257,61.60091 0.0135,0.65352 -0.0118,0.25036 -0.0494,1.07786 z" id="path2329-3-0-26-0-2-7-0-1" sodipodi:nodetypes="cccccc"/><path style="display:inline;fill-opacity:1;fill:#e7bb67;opacity:1;stroke-dasharray:none;stroke-linecap:butt;stroke-linejoin:miter;stroke-miterlimit:4;stroke-opacity:1;stroke-width:0;stroke:#000000" d="m 370.03188,272.9477 c -30.26029,-11.23523 -40.87372,-67.32092 -39.38479,-68.42962 l 1.69673,0.72376 c 6.87878,30.31052 13.48493,52.63826 37.8361,66.47198 -0.0459,0.19747 -2e-4,0.6498 -0.14804,1.23388 z" id="path2329-3-0-26-0-2-9-3-6-1" sodipodi:nodetypes="ccccc"/><path style="display:inline;fill-opacity:1;fill:#fffff0;opacity:1;stroke-dasharray:none;stroke-linecap:butt;stroke-linejoin:miter;stroke-miterlimit:4;stroke-opacity:1;stroke-width:0;stroke:#000000" d="m 237.88366,256.38538 c 4.48819,-18.82264 38.92913,-50.11135 38.94357,-50.444 l 1.06819,-0.81083 c 3.25485,-0.36024 -33.82665,36.9433 -40.29394,52.32686 0.0178,-0.25259 0.28331,-1.1301 0.28218,-1.07203 z" id="path2329-3-0-26-0-2-8-9-5-6" sodipodi:nodetypes="ccccc"/><path style="display:inline;fill-opacity:1;fill:#e7bb67;opacity:1;stroke-dasharray:none;stroke-linecap:butt;stroke-linejoin:miter;stroke-miterlimit:4;stroke-opacity:1;stroke-width:0;stroke:#000000" d="m 237.14771,259.87448 c 3.50569,-11.84025 43.46987,-53.06507 43.05363,-56.28867 l 1.23961,-0.76888 c 0.92859,4.54771 -38.87914,46.18703 -45.13889,60.74808 0.0178,-0.25259 0.75839,-3.30666 0.84565,-3.69053 z" id="path2329-3-0-26-0-2-8-5-5-3-7" sodipodi:nodetypes="ccccc"/><path sodipodi:nodetypes="ccc" id="path3280-7-2-6-1-7-8" class="shadow" d="m 329.90024,425.68202 c -15.4791,1.19068 -42.0365,26.26041 -44.6091,30.99635 10.29989,-9.14088 29.75948,-26.28541 44.6091,-30.99635 z"/><path sodipodi:nodetypes="ccc" id="path3282-5-4-0-6-7-9" class="shadow" d="m 262.15818,457.53031 c -6.81704,-9.41592 -28.83006,-31.99347 -34.93819,-34.15183 5.05404,5.44075 26.5203,25.35081 34.93819,34.15183 z"/></svg>
