<svg viewBox="0 0 560 1000"><g data-transform="boob" transform="matrix(1.1247504,0,0,1.1247504,-26.347241,-34.609528)" id="g4118"><path sodipodi:nodetypes="cscsscsccscccsssc" d="m 271.51118,261.14089 c 0.0661,-0.75567 -15.55212,-23.85233 -20.78384,-21.10049 -1.52959,0.80455 -3.42058,1.9614 -5.76856,3.60973 -9.78469,6.69753 -21.31453,10.82141 -26.74443,14.7899 -0.54445,0.39791 -0.66828,2.70307 -0.76291,3.35152 -0.65836,4.51134 -1.66809,9.99655 -0.19947,14.9545 0.5788,2.79959 1.92116,5.11459 3.04085,7.21138 2.65234,4.96693 6.04765,7.87695 10.86115,8.57219 21.5829,3.2487 35.13223,-12.1343 39.18878,-20.05393 1.83647,8.16488 6.94853,14.47073 13.3338,17.64542 10.04423,4.99389 23.27331,3.62273 32.00152,-1.35019 14.24159,-8.46859 19.00686,-29.49472 0.12112,-46.95807 -1.24033,-1.44425 -2.4413,-2.70187 -3.54079,-3.8753 -0.36194,-0.36533 -0.83711,-0.69814 -1.41789,-0.98568 -0.3692,-0.18279 -0.78107,-0.34728 -1.23367,-0.49021 -4.17723,-1.31914 -18.96078,7.30779 -27.63663,14.95545 -5.29365,4.66629 -9.38919,8.82318 -10.45903,9.72378 z" id="path4110" style="fill-opacity:1;fill:#010101"/><path sodipodi:nodetypes="ccscsscccscsccscssc" d="m 250.80319,239.92519 c -2.11217,1.58135 -4.28508,3.11053 -5.92735,4.27017 -5.84025,4.87392 -21.34013,11.09517 -25.80979,13.9564 -0.39537,0.25308 -0.72231,2.6909 -0.84921,3.07294 -0.70752,5.13443 -0.92153,9.56442 -0.30576,13.2861 1.01337,6.12496 3.33372,10.46932 6.44535,13.29915 2.48992,2.26451 5.53985,3.63861 8.78962,4.08772 10.49581,1.51314 19.86794,-2.43574 27.29744,-8.48888 4.20537,-3.4345 7.18267,-7.02269 9.92412,-11.02226 0.12718,0.41876 1.87124,5.64497 5.46994,10.30596 2.123,2.74967 5.09638,5.02083 8.21123,6.75234 0.11303,0.0438 0.22593,0.0871 0.33871,0.12991 34.5912,13.12294 57.55039,-22.51578 31.08151,-47.52065 -1.21885,-1.39111 -4.20568,-5.32709 -4.35427,-5.6611 -0.6987,-2.75664 -9.8826,-9.0648 -16.06697,-9.45676 -9.71868,-0.61597 -21.08175,-0.60121 -21.2227,-0.21343 -0.22117,-0.36982 -16.14896,7.01755 -22.98077,13.1738 -0.0124,0.0112 -0.0411,0.0188 -0.0411,0.0289 z" id="path4112" style="fill-opacity:1;fill:#ffffff"/><path sodipodi:nodetypes="csccccc" d="m 272.19169,258.88792 c 0.80943,-1.48623 1.35838,-4.75934 1.75336,-6.96753 0.0755,-0.42195 0.14376,2.11164 -0.34789,3.72203 2.50484,-3.57809 5.36151,-7.40366 7.64284,-10.60934 0.11073,-0.1769 -0.23631,1.28365 5.6e-4,1.09001 -3.14159,4.2326 -6.6203,9.02137 -9.04922,12.76484 z" class="shadow" id="path4114"/><path sodipodi:nodetypes="ccc" id="path4116" class="shadow" d="m 270.33492,269.98618 c -0.16754,2.01348 0.47911,3.25262 0.89408,5.36257 -0.66799,-1.59942 -1.31544,-3.72955 -0.89408,-5.36257 z"/><path sodipodi:nodetypes="ccccc" id="path1676-3-2-8-3-7-3-2-5-3" d="m 272.47396,250.17347 c -8.8872,-28.93987 30.6312,-12.16204 1.95433,0.45015 34.27089,-18.14438 15.45078,28.02535 -0.14101,2.70967 11.28149,30.85148 -30.49519,9.52861 -2.52315,-1.21756 -30.51307,11.43308 -6.53856,-30.59113 0.70983,-1.94226 z" style="display:inline;fill-opacity:1;fill:#008000;stroke-dasharray:none;stroke-linecap:butt;stroke-linejoin:miter;stroke-miterlimit:4;stroke-opacity:1;stroke-width:0;stroke:#83afc8"/><path sodipodi:nodetypes="ccccc" id="path1676-3-2-5-8-7-5-2-9" d="m 277.81059,250.36078 c 0.97993,7.24108 4.77367,16.05492 13.99306,28.26844 -0.70792,-0.33437 -3.43627,-1.43526 -6.50549,-2.54235 -7.71661,-10.14424 -10.67522,-17.02296 -11.34576,-22.0963 1.28082,-1.19611 2.38058,-2.10202 3.85819,-3.62979 z" style="display:inline;fill-opacity:1;fill:#008000;stroke-dasharray:none;stroke-linecap:butt;stroke-linejoin:miter;stroke-miterlimit:4;stroke-opacity:1;stroke-width:0;stroke:#83afc8"/><path sodipodi:nodetypes="ccccc" id="path1676-3-2-8-0-9-1-9-7-2-2" d="m 272.61546,250.4084 c -7.97764,-25.7174 26.30598,-10.46769 1.69141,0.418 29.38347,-15.72969 13.63241,24.97242 -0.0929,2.3983 10.06429,27.43403 -26.2166,8.13685 -2.19047,-1.10325 -26.21178,9.82331 -5.96827,-27.15651 0.59194,-1.71305 z" style="display:inline;fill-opacity:1;fill:#aaffaa;stroke-dasharray:none;stroke-linecap:butt;stroke-linejoin:miter;stroke-miterlimit:4;stroke-opacity:1;stroke-width:0;stroke:#83afc8"/><path sodipodi:nodetypes="ccccc" id="path1676-3-2-3-3-1-4-0-2-3" d="m 277.22306,250.6271 c 0.92272,6.42246 4.29054,14.26562 12.37696,25.17329 -0.61451,-0.30314 -2.98082,-1.30509 -5.64141,-2.31592 -6.76747,-9.06021 -9.39398,-15.18135 -10.02664,-19.68098 1.09266,-1.04662 2.03214,-1.83801 3.29109,-3.17639 z" style="display:inline;fill-opacity:1;fill:#aaffaa;stroke-dasharray:none;stroke-linecap:butt;stroke-linejoin:miter;stroke-miterlimit:4;stroke-opacity:1;stroke-width:0;stroke:#83afc8"/><path sodipodi:nodetypes="csccccc" d="m 271.67003,259.50635 c 0.8352,-1.47925 1.40163,-4.73699 1.80918,-6.93482 0.0779,-0.41997 0.14834,2.10173 -0.35896,3.70456 2.58458,-3.56129 5.53219,-7.3689 7.88614,-10.55953 0.11426,-0.17607 -0.24384,1.27762 5.8e-4,1.08489 -3.2416,4.21273 -6.83105,8.97902 -9.3373,12.70491 z" class="shadow" id="path4114-5"/></g></svg>
