<svg viewBox="0 0 560 1000"><path id="path4708" style="fill:#008000;opacity:0.23999999" d="m 278.5625,173.35028 c 2.6,3.9 7.0375,-1.35 13.4375,2.85 0.42842,0.27463 0.83422,0.56133 1.21943,0.85794 6.62801,5.10358 2.3371,30.65052 4.46756,34.97398 4.61682,9.36917 12.16206,5.0988 12.52012,-1.86967 0.71075,-1.21618 -0.18163,-25.23516 -0.44423,-27.25859 -2.48432,-19.14301 -23.34757,-29.98506 -31.26288,-26.95366 -4.4,1.7 -2.6375,13.2 0.0625,17.4 z" sodipodi:nodetypes="ccsscscc"/><path sodipodi:nodetypes="ccccc" id="path4710" d="m 270.83406,168.02069 -3.48388,-7.12041 c 19.27977,1.64821 36.75756,0.39194 56.51238,-0.17678 -1.57847,3.06547 -3.22426,5.86169 -5.03743,7.98839 -18.27129,0.42342 -32.29473,1.46033 -47.99107,-0.6912 z" style="fill:#070505"/><path sodipodi:nodetypes="cssssssc" id="path4712" d="m 290.39999,164.90029 c 0,4.80488 -3.34014,9.8875 -7.5375,9.8875 -0.14922,0 -2.39119,-0.0362 -2.53828,-0.0458 -3.99047,-0.26347 -5.12422,-5.20756 -5.12422,-9.84162 0,-4.68504 0.82878,-9.28639 4.88123,-9.47403 0.10365,-0.005 2.30159,0.0242 2.40627,0.0242 4.19736,0 7.9125,4.64512 7.9125,9.45 z" style="fill:#00ff00"/><path sodipodi:nodetypes="cssssssc" id="path4714" d="m 288.03751,164.89387 c 0,4.80488 -3.52764,9.8875 -7.725,9.8875 -0.14922,0 -0.29744,-0.005 -0.44453,-0.0146 -3.99047,-0.26347 -7.03047,-5.23881 -7.03047,-9.87287 0,-4.68504 3.11003,-9.25514 7.16248,-9.44278 0.10365,-0.005 0.20784,-0.007 0.31252,-0.007 4.19736,0 7.725,4.64512 7.725,9.45 z" style="display:inline;fill:#008000"/></svg>
