<svg viewBox="0 0 560 1000"><path sodipodi:nodetypes="cccsccsccsccc" id="path3760" d="m 368.45236,268.83602 c 1.90346,38.00112 -31.10333,76.4584 -25.2815,111.6038 -36.77086,9.58655 -96.59778,12.99867 -105.46954,-7.23283 2.433,-12.49684 1.05648,-27.27371 3.07149,-42.3437 3.11952,-23.33051 -3.08737,-24.85092 -4.11084,-38.26328 0.40962,-35.13389 30.30326,-40.0847 52.38713,-59.43686 0.97617,-2.02088 2.05999,-19.89061 -11.85024,-27.17009 -0.63873,-0.33426 5.12032,-2.88169 9.64485,-5.28403 9.24713,11.38115 25.18214,3.12903 31.26177,-2.13928 1.50252,1.12706 9.10193,4.89722 7.88644,5.69617 -25.72677,16.91039 -30.9022,28.84774 -29.45936,29.06832 3.13994,1.52155 66.54554,33.43249 67.65165,34.25705 z" style="display:inline;fill-opacity:1;fill-rule:evenodd;fill:#000000;opacity:1;stroke-dasharray:none;stroke-linecap:butt;stroke-linejoin:miter;stroke-miterlimit:4;stroke-opacity:1;stroke-width:0;stroke:#000000"/><path sodipodi:nodetypes="ccccsccccccc" id="path3762" d="m 368.47602,268.56519 c -0.82283,35.56451 -25.28468,68.64115 -27.21167,98.12959 -0.2322,4.28783 1.00045,9.35182 1.70473,13.58328 -31.15729,6.94181 -92.6775,12.28087 -105.27987,-7.02988 1.41111,-4.24145 4.10254,-39.81108 4.69553,-44.76049 2.42309,-20.22425 -2.88507,-21.32305 -3.7741,-33.86041 -3.37265,-53.10898 13.20074,-79.76214 38.32548,-88.64617 0.49229,-0.51848 5.43756,-2.25669 9.91452,-4.65903 9.14993,11.38115 24.91744,3.12903 30.93316,-2.13928 1.48672,1.12706 18.23182,7.00546 18.7637,8.34782 2.58742,0.19199 9.57783,0.93138 12.62329,2.06534 30.8936,12.50306 20.3557,56.2984 19.30523,58.96923 z" style="display:inline;fill-opacity:1;fill-rule:evenodd;fill:#ffffff;opacity:1;stroke-dasharray:none;stroke-linecap:butt;stroke-linejoin:miter;stroke-miterlimit:4;stroke-opacity:1;stroke-width:0;stroke:#000000"/><path sodipodi:nodetypes="ccssssccccc" id="path1664-0-5-8" d="m 350.44891,411.28161 c -41.34356,12.40411 -56.35277,29.50718 -67.32299,47.0649 -1.04023,1.75909 -1.92047,7.35117 -4.50173,9.70959 -0.97785,0.89343 -3.70051,-0.0277 -4.03805,0.0431 -0.91345,0.19159 -2.09488,0.29968 -2.84109,0.24274 -1.3589,-0.10369 -3.10427,-0.97079 -4.62926,-2.64607 -1.15035,-1.26373 -2.1753,-2.98733 -2.81436,-5.19001 -8.27893,-10.93923 -27.60352,-39.54369 -38.34145,-47.86102 0.0176,-0.005 -0.05,-0.20603 0.59439,-1.93851 29.91996,7.91079 37.53385,11.40066 123.28163,-1.21761 0,0 0.63138,1.78415 0.61291,1.79289 z" style="display:inline;fill-opacity:1;fill-rule:evenodd;fill:#aaffaa;opacity:1;stroke-dasharray:none;stroke-linecap:butt;stroke-linejoin:miter;stroke-miterlimit:4;stroke-opacity:1;stroke-width:0;stroke:#000000"/><path sodipodi:nodetypes="ccccccc" id="path1667-4-1-4" d="m 225.9378,412.66104 c 0.12717,-0.79329 0.24724,-0.90642 0.25482,-0.95601 23.02972,9.12926 54.6817,12.66174 123.82806,-1.73671 0.0291,0.083 0.24793,0.57628 0.45084,1.30322 -7.49448,2.32559 -13.58511,4.61432 -22.50451,8.15633 -60.49161,9.75774 -83.56164,4.33761 -97.57663,-2.66633 -1.68147,-1.78024 -2.87542,-3.01265 -4.45258,-4.1005 z" style="display:inline;fill-opacity:1;fill:#ffffff;stroke-dasharray:none;stroke-linecap:butt;stroke-linejoin:miter;stroke-miterlimit:4;stroke-opacity:1;stroke-width:0;stroke:#83afc8"/><path sodipodi:nodetypes="ccccc" id="path1676-0-6-2" d="m 241.44907,429.61473 c 16.19921,3.4137 37.32679,4.09867 68.75142,-0.23858 -1.10723,0.72649 -4.9682,3.64884 -9.02733,7.02192 -26.13262,3.68145 -42.62028,3.1439 -53.96133,0.73077 -1.89388,-2.48871 -3.25794,-4.54662 -5.76276,-7.51411 z" style="display:inline;fill-opacity:1;fill:#ffffff;stroke-dasharray:none;stroke-linecap:butt;stroke-linejoin:miter;stroke-miterlimit:4;stroke-opacity:1;stroke-width:0;stroke:#83afc8"/><path sodipodi:nodetypes="ccccc" id="path1678-6-7-8" d="m 252.70414,444.58541 c 10.94342,1.31488 24.01095,1.50229 40.32871,0.0811 -1.56759,2.01272 -3.58281,4.56444 -5.24245,6.66295 -12.30604,1.16431 -22.00263,1.20882 -29.81942,0.51362 -2.04934,-2.61037 -3.63449,-4.68604 -5.26684,-7.25767 z" style="display:inline;fill-opacity:1;fill:#ffffff;stroke-dasharray:none;stroke-linecap:butt;stroke-linejoin:miter;stroke-miterlimit:4;stroke-opacity:1;stroke-width:0;stroke:#83afc8"/><path sodipodi:nodetypes="ccccc" id="path1680-3-2-1" d="m 262.53421,458.18295 c 6.22871,0.31514 13.08896,0.30377 20.72809,-0.0971 -0.87505,2.4389 -1.64015,4.66739 -2.42955,6.53665 -5.25319,0.34928 -9.97649,0.47387 -14.24234,0.41152 -1.68576,-1.69159 -2.0194,-4.59693 -4.0562,-6.85107 z" style="display:inline;fill-opacity:1;fill:#ffffff;stroke-dasharray:none;stroke-linecap:butt;stroke-linejoin:miter;stroke-miterlimit:4;stroke-opacity:1;stroke-width:0;stroke:#83afc8"/><path sodipodi:nodetypes="cssssccc" id="path1688-6-0-5" d="m 282.94456,458.76549 c -0.0483,0.15247 -0.11284,0.47208 -0.19954,0.90622 -0.41277,2.06685 -1.81439,6.53069 -3.87757,8.11265 -0.26921,0.20642 -1.13559,1.14752 -4.57861,0.28177 -0.17398,-0.0437 -2.18026,1.1699 -4.2783,0.12449 -4.65827,-2.32112 -6.22252,-8.10904 -6.31915,-8.53686 3.82592,9.08132 8.89939,9.3147 10.40315,7.55401 5.26837,2.79873 7.50839,-4.81217 8.85002,-8.44228 z" style="display:inline;fill-opacity:1;fill-rule:evenodd;fill:#000000;opacity:1;stroke-dasharray:none;stroke-linecap:butt;stroke-linejoin:miter;stroke-miterlimit:4;stroke-opacity:1;stroke-width:0;stroke:#000000"/><path sodipodi:nodetypes="ccccc" id="path1676-3-2-5-8" d="m 297.45414,247.91914 c 1.06817,8.18282 5.20354,18.14296 15.25313,31.94492 -0.77167,-0.37786 -3.7457,-1.62192 -7.09131,-2.873 -8.41148,-11.46356 -11.63651,-19.2369 -12.36744,-24.97006 1.39616,-1.35167 2.59495,-2.3754 4.20562,-4.10186 z" style="display:inline;fill-opacity:1;fill:#008000;stroke-dasharray:none;stroke-linecap:butt;stroke-linejoin:miter;stroke-miterlimit:4;stroke-opacity:1;stroke-width:0;stroke:#83afc8"/><path sodipodi:nodetypes="ccccc" id="path1676-3-2-8-3-7" d="m 291.63695,247.70747 c -9.68748,-32.70368 33.38952,-13.74379 2.13032,0.50869 37.35696,-20.50416 16.84211,31.67022 -0.15371,3.06208 12.29738,34.8639 -33.24126,10.76787 -2.75036,-1.37591 -33.26075,12.92002 -7.12735,-34.56969 0.77375,-2.19486 z" style="display:inline;fill-opacity:1;fill:#008000;stroke-dasharray:none;stroke-linecap:butt;stroke-linejoin:miter;stroke-miterlimit:4;stroke-opacity:1;stroke-width:0;stroke:#83afc8"/><path sodipodi:nodetypes="ccccc" id="path1676-3-2-3-3-1" d="m 296.81371,248.22009 c 1.00581,7.25775 4.6769,16.12096 13.4915,28.44723 -0.66985,-0.34256 -3.24925,-1.47482 -6.14942,-2.61711 -7.37688,-10.23855 -10.2399,-17.15578 -10.92953,-22.24062 1.19105,-1.18273 2.21513,-2.07705 3.58745,-3.5895 z" style="display:inline;fill-opacity:1;fill:#aaffaa;stroke-dasharray:none;stroke-linecap:butt;stroke-linejoin:miter;stroke-miterlimit:4;stroke-opacity:1;stroke-width:0;stroke:#83afc8"/><path sodipodi:nodetypes="ccccc" id="path1676-3-2-8-0-9-1" d="m 291.79119,247.97295 c -8.69602,-29.0621 28.67482,-11.82907 1.84373,0.47236 32.02943,-17.77543 14.86,28.22024 -0.10125,2.71022 10.97057,31.00199 -28.57739,9.1951 -2.38772,-1.24673 -28.57213,11.10088 -6.50571,-30.68838 0.64524,-1.93585 z" style="display:inline;fill-opacity:1;fill:#aaffaa;stroke-dasharray:none;stroke-linecap:butt;stroke-linejoin:miter;stroke-miterlimit:4;stroke-opacity:1;stroke-width:0;stroke:#83afc8"/></svg>
