<svg viewBox="0 0 560 1000"><path sodipodi:nodetypes="ccc" id="path4625-2" d="m 278.91029,204.53894 c 1.85126,3.80712 19.40173,8.15738 16.14829,13.77126 -0.41019,-6.01263 27.31795,-11.14122 29.5594,-14.68385" style="display:inline;fill-rule:evenodd;fill:none;stroke-dasharray:none;stroke-linecap:butt;stroke-linejoin:miter;stroke-miterlimit:3;stroke-opacity:1;stroke-width:5;stroke:#000000"/><path sodipodi:nodetypes="csc" id="path4627-3" d="m 283.20925,457.85928 c -10.24818,-3.65074 -12.19771,-8.47811 -13.14205,-9.13293 -3.48868,-2.41906 -25.29434,-31.62162 -35.93034,-37.68891" style="display:inline;fill:none;stroke-dasharray:none;stroke-linecap:butt;stroke-linejoin:miter;stroke-miterlimit:4;stroke-opacity:1;stroke-width:5;stroke:#000000"/><path sodipodi:nodetypes="cssc" id="path4629-0" d="m 262.61148,457.66092 c 0.0971,-0.0743 0.39896,-0.14737 0.48137,-0.44924 0.65805,-2.41031 8.31304,-12.2898 15.48987,-17.60178 0.1214,-0.0898 40.23665,-24.13272 61.30578,-31.8213" style="display:inline;fill:none;stroke-dasharray:none;stroke-linecap:butt;stroke-linejoin:miter;stroke-miterlimit:4;stroke-opacity:1;stroke-width:5;stroke:#000000"/><path sodipodi:nodetypes="csc" id="path4631-2" d="m 362.80554,402.02197 c -3.73678,0.0516 -73.05003,21.23386 -95.34233,19.48542 -12.10128,-0.94914 -41.42747,-13.989 -42.40013,-13.86861" style="display:inline;fill:none;stroke-dasharray:none;stroke-linecap:butt;stroke-linejoin:miter;stroke-miterlimit:4;stroke-opacity:1;stroke-width:5;stroke:#000000"/><path sodipodi:nodetypes="cc" id="path4633-8" d="m 284.55365,435.44823 c -1.73883,-1.23029 -10.50162,-4.47957 -14.45556,-11.33521" style="display:inline;fill:none;stroke-dasharray:none;stroke-linecap:butt;stroke-linejoin:miter;stroke-miterlimit:4;stroke-opacity:1;stroke-width:5;stroke:#000000"/><path sodipodi:nodetypes="cc" id="path4635-4" d="m 257.50856,434.0939 c -0.66616,0.86984 5.23612,-2.12224 12.30421,-12.26198" style="display:inline;fill:none;stroke-dasharray:none;stroke-linecap:butt;stroke-linejoin:miter;stroke-miterlimit:4;stroke-opacity:1;stroke-width:5;stroke:#000000"/><path sodipodi:nodetypes="cc" id="path4637-1" d="m 301.89498,416.98156 c -1.73883,-1.23029 -27.50772,-63.26358 -27.3958,-66.93724" style="display:inline;fill:none;stroke-dasharray:none;stroke-linecap:butt;stroke-linejoin:miter;stroke-miterlimit:4;stroke-opacity:1;stroke-width:5;stroke:#000000"/><path sodipodi:nodetypes="cc" id="path4639-9" d="m 242.05481,413.73414 c 1.44315,-2.82128 28.88103,-61.16887 29.47236,-62.57393" style="display:inline;fill:none;stroke-dasharray:none;stroke-linecap:butt;stroke-linejoin:miter;stroke-miterlimit:4;stroke-opacity:1;stroke-width:5;stroke:#000000"/><path sodipodi:nodetypes="cc" id="path4641-1" d="M 268.46363,421.64667 C 266.7248,420.41638 256.83701,406.5421 253.13307,391.18646" style="display:inline;fill:none;stroke-dasharray:none;stroke-linecap:butt;stroke-linejoin:miter;stroke-miterlimit:4;stroke-opacity:1;stroke-width:5;stroke:#000000"/><path sodipodi:nodetypes="cc" id="path4643-6" d="m 268.99849,422.75277 c 1.26117,-1.73029 20.99838,-27.35457 19.79444,-35.33521" style="display:inline;fill:none;stroke-dasharray:none;stroke-linecap:butt;stroke-linejoin:miter;stroke-miterlimit:4;stroke-opacity:1;stroke-width:5;stroke:#000000"/><path sodipodi:nodetypes="cc" id="path4645-9" d="m 271.3845,351.45024 c 1.44315,-2.82128 25.06635,-47.38769 25.00149,-49.82391" style="display:inline;fill:none;stroke-dasharray:none;stroke-linecap:butt;stroke-linejoin:miter;stroke-miterlimit:4;stroke-opacity:1;stroke-width:5;stroke:#000000"/><path sodipodi:nodetypes="cc" id="path4647-7" d="m 275.36922,353.45714 c -0.78768,-2.18144 -11.52383,-49.82124 -11.41191,-53.4949" style="display:inline;fill:none;stroke-dasharray:none;stroke-linecap:butt;stroke-linejoin:miter;stroke-miterlimit:4;stroke-opacity:1;stroke-width:5;stroke:#000000"/><path sodipodi:nodetypes="cc" id="path4649-4" d="m 263.9236,300.43482 c 0.006,-1.50878 17.79935,-27.25511 17.73449,-29.81633" style="display:inline;fill:none;stroke-dasharray:none;stroke-linecap:butt;stroke-linejoin:miter;stroke-miterlimit:4;stroke-opacity:1;stroke-width:5;stroke:#000000"/><path sodipodi:nodetypes="cc" id="path4651-0" d="m 296.4126,301.75098 c -0.0161,-0.29344 -14.73727,-28.71915 -14.80213,-31.28037" style="display:inline;fill:none;stroke-dasharray:none;stroke-linecap:butt;stroke-linejoin:miter;stroke-miterlimit:4;stroke-opacity:1;stroke-width:5;stroke:#000000"/><path sodipodi:nodetypes="cc" id="path4653-6" d="m 353.81749,328.07444 c -2.9588,-0.80232 -55.72627,-19.76831 -57.77986,-27.1467" style="display:inline;fill:none;stroke-dasharray:none;stroke-linecap:butt;stroke-linejoin:miter;stroke-miterlimit:4;stroke-opacity:1;stroke-width:5;stroke:#000000"/><path sodipodi:nodetypes="cc" id="path4655-6" d="m 240.40542,317.98372 c 2.51117,-0.35529 22.46804,-15.25717 23.7016,-17.98781" style="display:inline;fill:none;stroke-dasharray:none;stroke-linecap:butt;stroke-linejoin:miter;stroke-miterlimit:4;stroke-opacity:1;stroke-width:5;stroke:#000000"/><path sodipodi:nodetypes="cc" id="path4658-6" d="m 295.1758,217.75274 c -0.31725,2.29636 -10.084,24.46384 -13.6234,53.72979" style="display:inline;fill:none;stroke-dasharray:none;stroke-linecap:butt;stroke-linejoin:miter;stroke-miterlimit:4;stroke-opacity:1;stroke-width:5;stroke:#000000"/><path sodipodi:nodetypes="cc" id="path4660-1" d="m 268.99395,324.2539 c -2.60871,6.67905 -9.59488,19.71997 -12.42415,22.36891" style="display:inline;fill:none;stroke-dasharray:none;stroke-linecap:butt;stroke-linejoin:miter;stroke-miterlimit:4;stroke-opacity:1;stroke-width:5;stroke:#000000"/><path sodipodi:nodetypes="cc" id="path4662-8" d="m 284.21309,326.02717 c 0.97088,9.18802 6.82201,21.98747 9.20623,23.43433" style="display:inline;fill:none;stroke-dasharray:none;stroke-linecap:butt;stroke-linejoin:miter;stroke-miterlimit:4;stroke-opacity:1;stroke-width:5;stroke:#000000"/><path sodipodi:nodetypes="csc" id="path4664-5" d="m 350.07025,348.06197 c -1.61546,-0.30189 -54.61455,2.8062 -76.90685,1.05776 -12.10128,-0.94914 -33.33756,-7.92314 -35.85864,-8.4662" style="display:inline;fill:none;stroke-dasharray:none;stroke-linecap:butt;stroke-linejoin:miter;stroke-miterlimit:4;stroke-opacity:1;stroke-width:5;stroke:#000000"/><path sodipodi:nodetypes="cc" id="path4666-3" d="m 281.16309,367.27287 c 0.65966,-1.49283 7.87996,-15.67051 11.74615,-17.51458" style="display:inline;fill:none;stroke-dasharray:none;stroke-linecap:butt;stroke-linejoin:miter;stroke-miterlimit:4;stroke-opacity:1;stroke-width:5;stroke:#000000"/><path sodipodi:nodetypes="cc" id="path4668-7" d="m 264.62194,365.51681 c -0.85495,-1.76062 -5.3751,-18.09137 -5.7935,-19.11338" style="display:inline;fill:none;stroke-dasharray:none;stroke-linecap:butt;stroke-linejoin:miter;stroke-miterlimit:4;stroke-opacity:1;stroke-width:5;stroke:#000000"/><path sodipodi:nodetypes="cc" id="path4670-0" d="m 365.65559,295.02677 c -2.878,-0.55419 -54.19138,-4.49097 -84.51209,-22.20216" style="display:inline;fill:none;stroke-dasharray:none;stroke-linecap:butt;stroke-linejoin:miter;stroke-miterlimit:4;stroke-opacity:1;stroke-width:5;stroke:#000000"/><path sodipodi:nodetypes="cc" id="path4672-5" d="m 281.67372,270.99797 c -2.60871,6.67905 -41.68093,17.28062 -45.21731,17.80824" style="display:inline;fill:none;stroke-dasharray:none;stroke-linecap:butt;stroke-linejoin:miter;stroke-miterlimit:4;stroke-opacity:1;stroke-width:5;stroke:#000000"/></svg>
