<svg viewBox="0 0 560 1000"><path style="display:inline;fill-opacity:1;fill-rule:evenodd;fill:#000000;opacity:1;stroke-dasharray:none;stroke-linecap:butt;stroke-linejoin:miter;stroke-miterlimit:4;stroke-opacity:1;stroke-width:0;stroke:#000000" d="m 367.91666,272.56978 c -1.04417,0.19236 -69.19797,-5.59381 -129.85152,-5.06291 3.08213,-21.15597 12.38675,-37.43947 38.49355,-60.63621 -0.63873,-0.33426 5.76049,-3.75929 10.28502,-6.16163 8.14833,-12.70068 6.58972,-19.9665 7.42911,-19.7012 7.80794,2.46783 11.66265,-2.52162 18.04047,-7.12212 0.74373,-0.53648 -0.002,15.72836 5.79219,24.68404 1.50252,1.12706 9.10193,4.89722 7.88644,5.69617 -25.72677,16.91039 -30.9022,28.84774 -29.45936,29.06832 3.13994,1.52155 70.52301,36.43769 71.62912,37.26225 z" id="path2662-8" sodipodi:nodetypes="ccccsscsccc"/><path style="display:inline;fill-opacity:1;fill-rule:evenodd;fill:#800000;opacity:1;stroke-dasharray:none;stroke-linecap:butt;stroke-linejoin:miter;stroke-miterlimit:4;stroke-opacity:1;stroke-width:0;stroke:#000000" d="m 368.16666,271.04006 c -0.022,0.17059 -0.0457,0.36964 -0.0714,0.59595 -76.50814,-6.11786 -108.96504,-5.38677 -129.97305,-5.27735 3.60766,-34.58862 22.79863,-55.66959 38.81388,-60.37756 0.49229,-0.51848 5.43756,-2.25669 9.91452,-4.65903 6.67421,-5.15908 6.83554,-16.63841 7.30509,-16.68638 9.66279,-0.98707 12.18194,-7.30033 16.83937,-10.42453 1.18842,-0.79719 -0.15736,14.75347 6.7887,24.97163 1.48672,1.12706 18.54432,6.19296 19.0762,7.53532 0,0 22.53186,-3.73753 32.01093,28.69935 0.0476,0.44543 1.31272,7.24328 1.49903,15.71117 0.21526,6.04642 -0.99897,15.21794 -2.20327,19.91143 z" id="path2664-3" sodipodi:nodetypes="cccccssccccc"/><path sodipodi:nodetypes="ccsssscccccc" id="path1760-5-7" d="m 350.44891,411.28161 c -41.34356,12.40411 -56.35277,29.50718 -67.32299,47.0649 -1.04023,1.75909 -1.92047,7.35117 -4.50173,9.70959 -0.97785,0.89343 -3.70051,-0.0277 -4.03805,0.0431 -0.91345,0.19159 -2.09488,0.29968 -2.84109,0.24274 -1.3589,-0.10369 -3.10427,-0.97079 -4.62926,-2.64607 -1.15035,-1.26373 -2.1753,-2.98733 -2.81436,-5.19001 -8.27893,-10.93923 -27.60352,-39.54369 -38.34145,-47.86102 0.0176,-0.005 -0.05,-0.20603 0.59439,-1.93851 16.6623,12.87869 26.04641,28.55393 42.32336,28.99216 18.31235,-0.0725 28.69369,-13.91735 80.95827,-30.20977 0,0 0.63138,1.78415 0.61291,1.79289 z" style="display:inline;fill-opacity:1;fill-rule:evenodd;fill:#800000;opacity:1;stroke-dasharray:none;stroke-linecap:butt;stroke-linejoin:miter;stroke-miterlimit:4;stroke-opacity:1;stroke-width:0;stroke:#000000"/><path sodipodi:nodetypes="cssssccc" id="path1781-9-6" d="m 282.94456,458.76549 c -0.0483,0.15247 -0.11284,0.47208 -0.19954,0.90622 -0.41277,2.06685 -1.81439,6.53069 -3.87757,8.11265 -0.26921,0.20642 -1.13559,1.14752 -4.57861,0.28177 -0.17398,-0.0437 -2.18026,1.1699 -4.2783,0.12449 -4.65827,-2.32112 -6.22252,-8.10904 -6.31915,-8.53686 3.82592,9.08132 8.89939,9.3147 10.40315,7.55401 5.26837,2.79873 7.50839,-4.81217 8.85002,-8.44228 z" style="display:inline;fill-opacity:1;fill-rule:evenodd;fill:#000000;opacity:1;stroke-dasharray:none;stroke-linecap:butt;stroke-linejoin:miter;stroke-miterlimit:4;stroke-opacity:1;stroke-width:0;stroke:#000000"/></svg>
