<svg viewBox="0 0 560 1000"><path style="display:inline;fill-opacity:1;fill-rule:evenodd;fill:#000000;opacity:1;stroke-dasharray:none;stroke-linecap:butt;stroke-linejoin:miter;stroke-miterlimit:4;stroke-opacity:1;stroke-width:0;stroke:#000000" d="m 370.45236,269.14852 c 0.40069,1.40387 -1.17129,12.58717 -8.36035,37.46669 -5.42713,18.7819 -12.22802,47.45897 -12.22802,47.45897 0,0 19.75608,39.67492 11.65884,61.4987 0,0 -64.16219,-0.50221 -75.67141,27.83516 -2.06147,4.01155 -2.1084,11.81811 -3.46792,16.10443 -0.27859,0.87834 -1.00697,6.35332 -3.50565,8.26757 -0.26944,0.20641 -1.13656,1.14752 -4.58251,0.28177 -0.17413,-0.0437 -1.37345,0.71664 -3.61847,0.0361 -5.83439,-1.76869 -6.66978,-8.86034 -6.76649,-9.28816 -1.98539,-8.78313 -6.24957,-28.02971 -9.43291,-34.24779 -14.19124,-27.72004 -27.39251,-9.72827 -28.70035,-12.0646 -8.73203,-14.95806 7.86758,-51.53623 14.53858,-91.95267 -0.10903,-0.84586 -1.87138,-11.51823 -3.65373,-27.94468 -0.1155,-10.43874 -0.22841,-19.65019 1.10856,-28.54711 2.74356,-18.25709 15.12808,-33.77543 39.05333,-58.68484 -0.63873,-0.33426 4.18282,-3.06919 8.70735,-5.47153 9.24713,11.38115 26.49464,3.94153 32.57427,-1.32678 1.50252,1.12706 9.10193,4.89722 7.88644,5.69617 18.66409,44.64639 1.82837,42.20589 38.19229,63.32537 z" id="path2164-7" sodipodi:nodetypes="cscccsssssscccscccccc"/><path style="display:inline;fill-opacity:1;fill-rule:evenodd;fill:#162d50;opacity:1;stroke-dasharray:none;stroke-linecap:butt;stroke-linejoin:miter;stroke-miterlimit:4;stroke-opacity:1;stroke-width:0;stroke:#000000" d="m 370.47602,268.87769 c -0.47811,3.70196 -3.71839,20.49034 -9.95729,38.82912 -5.98449,19.80882 -11.30158,45.81488 -11.30158,45.81488 18.07664,43.30729 10.98719,57.86141 12.91335,62.17851 -64.48153,11.94456 -78.76402,39.95868 -79.53569,42.29645 -0.78385,1.88787 -1.88511,7.56063 -4.38201,9.34104 -1.21712,0.86786 -3.67455,-0.009 -3.92649,-0.0331 -0.29397,-0.0276 -0.94677,0.88798 -3.15959,0.31564 -5.65546,-1.4629 -6.20431,-7.05369 -6.77642,-9.00439 -19.80611,-11.74711 -35.50062,-40.58209 -39.35103,-44.89604 -3.60464,-29.2214 14.6201,-66.88878 16.14435,-93.24404 -3.33584,-19.88835 -6.57122,-42.43128 -2.52815,-59.56652 5.4266,-22.99891 20.9597,-39.26147 38.32065,-54.92813 0.49229,-0.51848 4.12506,-3.06919 8.60202,-5.47153 9.14993,11.38115 26.22994,3.94153 32.24566,-1.32678 1.48672,1.12706 18.23182,7.00546 18.7637,8.34782 5.59696,13.25538 5.60863,25.94395 12.7896,37.87473 7.32565,13.63251 15.69888,21.62492 21.13892,23.47234 z" id="path2166-3" sodipodi:nodetypes="cccccssscccscccccc"/></svg>
