<svg viewBox="0 0 560 1000"><path sodipodi:nodetypes="cccccc" id="path4424-7-4-0-6-7-5" d="m 370.75046,269.36635 c 6.31421,22.27158 -7.8019,74.8635 0.5833,98.96072 -51.47437,16.09461 -123.9901,11.09676 -151.44708,-3.33594 15.08982,-72.75843 -13.26513,-130.1518 66.95703,-164.2821 9.24713,11.38115 23.27589,1.97278 29.35552,-3.29553 -0.32987,32.01707 -5.37968,53.14553 54.55123,71.95285 z" style="display:inline;fill-opacity:1;fill-rule:evenodd;fill:#000000;opacity:1;stroke-dasharray:none;stroke-linecap:butt;stroke-linejoin:miter;stroke-miterlimit:4;stroke-opacity:1;stroke-width:0;stroke:#000000"/><path sodipodi:nodetypes="cccccccc" id="path4426-5-7-1-5-9-8" d="m 369.48103,367.23065 c -50.34556,17.82383 -130.4201,6.35494 -147.00257,-3.38545 9.87763,-58.96026 -7.84956,-146.2023 59.02069,-161.9739 4.03794,-1.99488 5.81148,-2.95253 7.20576,-9.66821 1.65753,5.04021 26.78421,0.30993 27.17019,0.17659 7.83112,13.51631 18.89867,14.08736 20.6724,15.15094 25.47619,0.82338 32.77629,22.27233 33.28341,40.71368 5.70808,60.72748 -7.91854,85.97268 -0.34988,118.98635 z" style="display:inline;fill-opacity:1;fill-rule:evenodd;fill:#ffffff;opacity:1;stroke-dasharray:none;stroke-linecap:butt;stroke-linejoin:miter;stroke-miterlimit:4;stroke-opacity:1;stroke-width:0;stroke:#000000"/><path style="display:inline;fill-opacity:1;fill:#000000;opacity:1;stroke-dasharray:none;stroke-linecap:butt;stroke-linejoin:miter;stroke-miterlimit:4;stroke-opacity:1;stroke-width:0;stroke:#000000" d="m 291.59482,204.8803 c -0.007,-0.15238 5.39726,-10.80323 5.46415,-10.99796 0,0 -7.77791,-3.33813 -7.92017,-3.14363 -0.86438,1.18176 -2.48505,4.21861 -3.88833,5.92157 0.099,0.227 6.34435,8.22002 6.34435,8.22002 z" id="path4428-5-9-5-2-5-1" sodipodi:nodetypes="csscc"/><path style="display:inline;fill-opacity:1;fill:#ffffff;opacity:1;stroke-dasharray:none;stroke-linecap:butt;stroke-linejoin:miter;stroke-miterlimit:4;stroke-opacity:1;stroke-width:0;stroke:#000000" d="m 291.55833,202.78945 c -0.007,-0.14941 5.05548,-8.90542 5.12046,-9.09636 0,0 -7.64312,-3.2987 -7.78132,-3.10799 -0.83967,1.15876 -2.41401,4.13649 -3.77718,5.8063 0.0962,0.22258 6.43804,6.39805 6.43804,6.39805 z" id="path4430-1-1-0-7-6-3" sodipodi:nodetypes="csscc"/><path style="display:inline;fill-opacity:1;fill:#000000;opacity:1;stroke-dasharray:none;stroke-linecap:butt;stroke-linejoin:miter;stroke-miterlimit:4;stroke-opacity:1;stroke-width:0;stroke:#000000" d="m 302.35818,205.29925 c 0.007,-0.15238 -3.99545,-11.03492 -4.06234,-11.22965 0,0 17.81046,-3.16894 17.95272,-2.97444 0.86438,1.18176 2.6413,5.37486 3.07583,6.04657 -0.099,0.227 -16.96621,8.15752 -16.96621,8.15752 z" id="path4432-6-3-3-8-5-0" sodipodi:nodetypes="csscc"/><path style="display:inline;fill-opacity:1;fill:#ffffff;opacity:1;stroke-dasharray:none;stroke-linecap:butt;stroke-linejoin:miter;stroke-miterlimit:4;stroke-opacity:1;stroke-width:0;stroke:#000000" d="m 303.01527,204.17715 c 0.007,-0.14856 -4.18866,-10.02774 -4.25456,-10.21759 0,0 16.82532,-3.14512 16.96549,-2.9555 0.85164,1.15214 2.60238,5.24014 3.03051,5.89501 -0.0975,0.22131 -15.74144,7.27808 -15.74144,7.27808 z" id="path4434-4-3-0-2-3-9" sodipodi:nodetypes="csscc"/><path style="display:inline;fill-opacity:1;fill-rule:nonzero;fill:#999999;opacity:1;stroke-dasharray:none;stroke-linecap:butt;stroke-linejoin:round;stroke-miterlimit:4;stroke-opacity:1;stroke-width:0;stroke:#000000" d="m 300.87394,220.43307 a 2.7544847,2.8454499 0 0 1 -2.75448,2.84545 2.7544847,2.8454499 0 0 1 -2.75449,-2.84545 2.7544847,2.8454499 0 0 1 2.75449,-2.84546 2.7544847,2.8454499 0 0 1 2.75448,2.84546 z" id="path4439-3-4-0-4-0-2"/><path style="display:inline;fill-opacity:1;fill-rule:nonzero;fill:#999999;opacity:1;stroke-dasharray:none;stroke-linecap:butt;stroke-linejoin:round;stroke-miterlimit:4;stroke-opacity:1;stroke-width:0;stroke:#000000" d="m 297.69369,242.50598 a 2.7544847,2.8454499 0 0 1 -2.75448,2.84545 2.7544847,2.8454499 0 0 1 -2.75449,-2.84545 2.7544847,2.8454499 0 0 1 2.75449,-2.84546 2.7544847,2.8454499 0 0 1 2.75448,2.84546 z" id="path4441-3-4-1-3-9-7"/><path style="display:inline;fill-opacity:1;fill-rule:nonzero;fill:#999999;opacity:1;stroke-dasharray:none;stroke-linecap:butt;stroke-linejoin:round;stroke-miterlimit:4;stroke-opacity:1;stroke-width:0;stroke:#000000" d="m 293.61894,266.74921 a 2.7544847,2.8454499 0 0 1 -2.75448,2.84545 2.7544847,2.8454499 0 0 1 -2.75449,-2.84545 2.7544847,2.8454499 0 0 1 2.75449,-2.84546 2.7544847,2.8454499 0 0 1 2.75448,2.84546 z" id="path4443-5-5-7-1-3-9"/><path style="display:inline;fill-opacity:1;fill-rule:nonzero;fill:#999999;opacity:1;stroke-dasharray:none;stroke-linecap:butt;stroke-linejoin:round;stroke-miterlimit:4;stroke-opacity:1;stroke-width:0;stroke:#000000" d="m 289.87262,290.7449 a 2.7544847,2.8454499 0 0 1 -2.75448,2.84545 2.7544847,2.8454499 0 0 1 -2.75449,-2.84545 2.7544847,2.8454499 0 0 1 2.75449,-2.84546 2.7544847,2.8454499 0 0 1 2.75448,2.84546 z" id="path4445-1-0-6-8-7-1"/><path style="display:inline;fill-opacity:1;fill-rule:nonzero;fill:#999999;opacity:1;stroke-dasharray:none;stroke-linecap:butt;stroke-linejoin:round;stroke-miterlimit:4;stroke-opacity:1;stroke-width:0;stroke:#000000" d="m 286.44248,313.2326 a 2.7544847,2.8454499 0 0 1 -2.75448,2.84545 2.7544847,2.8454499 0 0 1 -2.75449,-2.84545 2.7544847,2.8454499 0 0 1 2.75449,-2.84546 2.7544847,2.8454499 0 0 1 2.75448,2.84546 z" id="path4447-0-7-8-3-0-9"/><path style="display:inline;fill-opacity:1;fill-rule:nonzero;fill:#999999;opacity:1;stroke-dasharray:none;stroke-linecap:butt;stroke-linejoin:round;stroke-miterlimit:4;stroke-opacity:1;stroke-width:0;stroke:#000000" d="m 282.44616,338.28711 a 2.7544847,2.8454499 0 0 1 -2.75448,2.84545 2.7544847,2.8454499 0 0 1 -2.75449,-2.84545 2.7544847,2.8454499 0 0 1 2.75449,-2.84546 2.7544847,2.8454499 0 0 1 2.75448,2.84546 z" id="path4449-3-4-4-5-3-8"/><path style="display:inline;fill-opacity:1;fill-rule:nonzero;fill:#999999;opacity:1;stroke-dasharray:none;stroke-linecap:butt;stroke-linejoin:round;stroke-miterlimit:4;stroke-opacity:1;stroke-width:0;stroke:#000000" d="m 279.59261,361.69517 a 2.7544847,2.8454499 0 0 1 -2.75448,2.84545 2.7544847,2.8454499 0 0 1 -2.75449,-2.84545 2.7544847,2.8454499 0 0 1 2.75449,-2.84546 2.7544847,2.8454499 0 0 1 2.75448,2.84546 z" id="path4451-7-8-9-6-8-3"/><path style="display:inline;fill-opacity:1;fill:#000000;opacity:1;stroke-dasharray:none;stroke-linecap:butt;stroke-linejoin:miter;stroke-miterlimit:4;stroke-opacity:1;stroke-width:0;stroke:#000000" d="m 269.20648,376.40211 c 3.14646,-38.07398 12.16388,-97.77571 27.91521,-181.10709 l 0.9671,0.10113 c 0.40865,10.30847 -21.59763,114.86817 -27.0072,181.25192 -1.30606,-0.0163 -1.16175,0.40985 -1.87511,-0.24596 z" id="path4522-4-1-3-4-9-1-4-3-1-0" sodipodi:nodetypes="ccccc"/><path style="display:inline;fill-opacity:1;fill-rule:evenodd;fill:#000000;opacity:1;stroke-dasharray:none;stroke-linecap:butt;stroke-linejoin:miter;stroke-miterlimit:4;stroke-opacity:1;stroke-width:0;stroke:#000000" d="m 363.55662,415.54988 c 32.97194,41.12226 -1.27364,71.80189 -6.10957,88.23689 -2.01061,6.83307 4.74255,12.01889 -82.59133,8.00899 -17.30311,-1.81576 -59.24343,-1.2282 -59.21094,-1.53911 3.78245,-36.19606 8.02358,-78.57041 10.98824,-98.64804 36.34163,12.28427 69.78725,21.65924 136.9236,3.94127 z" id="path3202-9-5-0-9" sodipodi:nodetypes="cscscc"/><path style="display:inline;fill-opacity:1;fill-rule:evenodd;fill:#333333;opacity:1;stroke-dasharray:none;stroke-linecap:butt;stroke-linejoin:miter;stroke-miterlimit:4;stroke-opacity:1;stroke-width:0;stroke:#000000" d="m 364.76874,416.65163 c 32.8228,40.39855 0.77565,68.27451 -7.22039,86.89515 -2.76395,6.43649 17.95903,12.02833 -82.2693,5.50142 -17.22485,-1.7838 -59.61101,1.398 -59.64703,1.09296 -4.19847,-35.55905 0.16732,-81.76088 10.08691,-97.55556 36.42612,14.76968 92.66584,18.25681 139.04981,4.06603 z" id="path3204-7-3-4-5" sodipodi:nodetypes="cscscc"/><path d="m 328.65216,423.61908 c -15.47911,1.19068 -42.03654,26.26041 -44.60914,30.99635 10.29989,-9.14088 29.75952,-26.28541 44.60914,-30.99635 z" class="shadow" id="path3231-8-2-6-9" sodipodi:nodetypes="ccc"/><path d="m 260.91006,455.46737 c -6.81704,-9.41592 -28.83006,-31.99347 -34.93819,-34.15183 5.05404,5.44075 26.5203,25.35081 34.93819,34.15183 z" class="shadow" id="path3233-8-64-5-2" sodipodi:nodetypes="ccc"/></svg>
