<svg viewBox="0 0 560 1000"><path sodipodi:nodetypes="csccc" d="m 266.56266,487.41644 c -1.02095,0.32423 -2.19079,0.17635 -2.92249,0.16431 -1.17374,-0.0187 -3.47875,-1.81699 -3.67721,-2.36577 0.30298,-2.36283 6.37063,-5.59458 10.88669,-2.56186 -1.46852,3.35279 -2.47463,3.76341 -4.28699,4.76332 z" id="path3792" style="fill:#000000;stroke-width:2.09582233"/><path sodipodi:nodetypes="ccccccsscc" d="m 253.39299,441.78835 c 7.90207,-14.41073 36.14612,-23.84851 38.83893,9.21837 0.8924,1.86105 -1.20406,10.22084 -3.72411,20.73442 -2.8861,10.26455 -5.17437,21.93442 -6.29702,33.56245 -0.73635,13.30092 -3.84637,35.06329 -22.65853,33.51877 -10.75806,-2.49684 -16.19822,-10.95311 -20.62657,-16.82184 -0.42112,-1.97365 0.45396,-2.95872 0.27055,-3.70676 -2.30172,-9.41055 -1.59398,-23.52398 1.37547,-39.26189 2.54663,-13.49725 6.90097,-27.12345 12.8209,-37.24352 z" id="path3794" style="fill:#000000;stroke-width:5.88638449"/><path sodipodi:nodetypes="cccccc" d="m 277.9038,521.27034 c -0.0412,1.58556 -2.12669,7.16181 -4.12366,9.81005 -4.54753,5.19656 -9.98131,7.50867 -16.37281,5.48122 -2.98833,-0.0524 -12.55181,-7.49558 -17.12505,-15.06675 1.94644,-6.58235 29.10696,3.78937 37.62152,-0.22429 z" id="path3796" class="areola"/><path sodipodi:nodetypes="ccccccscc" class="skin penis" d="m 254.68681,438.97408 c 7.25364,-14.73087 33.18037,-24.37837 35.65216,9.42315 0.81921,1.90248 -1.10522,10.44788 -3.41849,21.19521 -2.64928,10.49245 -5.73987,22.22633 -6.7705,34.11278 -0.12684,6.64744 -0.75482,10.98265 -1.3751,15.05484 -4.54851,5.35017 -29.37307,-2.11766 -38.01111,-1.38552 -2.11289,-9.61967 -0.57205,-24.2419 2.15373,-40.32949 2.33755,-13.79707 6.33467,-27.72594 11.76891,-38.07097 z" id="path3798"/></svg>
