<svg viewBox="0 0 560 1000"><path d="m 225.8,413.1 c 0,0 -18.61299,38.81162 -20.11299,63.21162 C 201.88701,536.61162 215,608.9 237.1,664.9 c 7.5,61.7 14.8,123 17.3,185.1 l 11.5,-0.3 c 2.3,-52.9 39.2,-99.2 20.2,-160.8 13.6,-57.7 6.2,-71.9 1,-161 -5.4,94.3 4.4,110.4 14.2,154.8 -15.6,58 17.8,109.6 18.6,167.8 h 16.3 C 336.4,792 352.6,755.3 344.7,681 368.5,611.1 378.72165,532.47107 373.92165,469.07107 371.92165,443.17107 350.4,411.4 350.4,411.4 l -124.6,1.7" class="skin" id="XMLID_468_" sodipodi:nodetypes="cccccccccccccc"/><path d="M 289.6,630.9 C 279.8,590.6 268.8,530 272.8,483.8 c -0.8,44.7 7.6,106.4 16.8,147.1 z" class="shadow" id="XMLID_469_"/><path d="m 226.3,412.5 c 27.9,-30 93.7,-36.4 123.8,-1.4 18.2,21.2 25.4,60.2 7,78.9 -8.2,8.3 -22.1,13.3 -35,11 -24.2,-4.4 -25.9,-31.9 -47.3,-34.5 C 256.7,464.3 248.5,483 231,478 220.9,475.1 221.28701,468.07973 218.48701,460.07973 216.5943,437.63189 223.7,415.2 226.3,412.5 Z" class="skin" id="Stump_Normal-4" sodipodi:nodetypes="cccccccc"/><path d="m 226.3,412.5 c 20,-34.8 104.4,-37.1 124,-1.5 11.9,21.7 1.4,60.5 -22.3,72 -0.8,0.4 -20.2,9.5 -34,1 -9.5,-5.8 -10.3,-16.2 -19.3,-17.5 -6.4,-1 -8.4,3.9 -17.8,5.5 -9.2,1.5 -18.7,-1.3 -24,-5 -14.1,-9.8 -16,-38.2 -6.6,-54.5 z" class="skin" id="Stump_Narrow-6"/></svg>
