<svg viewBox="0 0 560 1000"><path style="display:inline;fill-opacity:1;fill:#464646;stroke-width:0.54046547" d="m 314.28278,425.16635 c 0.47266,-0.69407 1.53246,-1.78738 2.35511,-2.42959 1.63824,-1.27888 5.78988,-7.56448 7.03453,-10.6503 0.64825,-1.6072 1.86075,-3.02317 1.09442,-6.85886 -1.25034,-6.25845 -1.26356,-6.53059 -0.31697,-6.53059 0.99936,0 2.73366,3.59933 3.79766,7.88148 0.77657,3.12531 -0.47352,3.45864 -2.41357,6.60692 -1.07861,1.75037 -2.95231,4.31645 -4.16374,5.70243 -2.45949,3.81 -7.85332,9.41626 -7.85332,9.41626 0,0 -7.09995,6.18491 0.46588,-3.13775 z" id="path4817-8-4" sodipodi:nodetypes="csscsscccc"/><path style="display:inline;fill-opacity:1;fill:#464646;stroke-width:0.47898471" d="m 247.21096,437.19208 c -2.05081,-3.48515 -6.43112,-12.5398 -7.53942,-15.58494 -0.50044,-1.37504 -1.61593,-3.74097 -2.47885,-5.25762 -2.09004,-3.67351 -2.68632,-6.43413 -1.8604,-8.6131 1.37102,-3.61699 2.64252,-7.47967 3.10632,-9.43669 0.60171,-2.53886 1.3835,-3.41658 1.01782,-1.14273 -0.64249,3.99513 -2.33483,11.33549 -2.89303,12.54828 -0.5561,1.20818 -0.54569,1.56362 0.10768,3.674 0.39787,1.28501 1.13723,2.97254 1.64301,3.75003 0.50583,0.77749 2.74346,5.1015 4.97252,9.60892 2.22907,4.5074 4.42901,8.86917 4.88878,9.69285 2.13628,3.82721 1.25089,4.5258 -0.96445,0.761 z" id="path4809-8-4"/><path style="display:inline;fill-opacity:1;fill:#464646;stroke-width:0.76042944" d="m 267.00723,420.03693 c -1.69242,-6.70782 -0.10105,-20.05559 3.50027,-29.36008 5.05322,-15.88279 -5.31114,-25.6564 -0.25685,-46.35523 0.6866,-1.72499 1.24834,-4.08041 1.24834,-5.23425 0,-2.92123 2.38679,-11.95425 3.28966,-12.45001 1.98595,-1.09046 2.08747,0.82982 0.28607,5.41078 -1.07987,2.74601 -1.92322,6.04644 -1.87416,7.33424 0.0491,1.28783 -0.48259,4.92187 -1.18142,8.07562 -2.13054,9.61503 -2.52433,13.71905 0.339,25.44524 0.74528,1.77401 1.53334,5.32201 1.75129,7.88446 0.33408,3.92792 0.0774,5.27754 -1.63611,8.6012 -5.28175,10.24501 -5.36506,19.63795 -4.24613,28.06938 0.6089,4.58799 -0.25324,6.41027 -1.21996,2.57865 z" id="path4767-2-4" sodipodi:nodetypes="cccsccccccccc"/><path style="display:inline;fill-opacity:1;fill:#464646;stroke-width:0.88785607" d="m 242.07028,386.00001 c 0,-1.88731 1.90232,-8.98714 2.15362,-8.03776 0.0905,0.34192 -0.0816,2.66344 -0.38268,5.15897 -0.52254,4.33281 -1.77094,6.36215 -1.77094,2.87879 z" id="path4753-0-5"/><path style="display:inline;fill-opacity:1;fill:#464646;stroke-width:0.71543431" d="m 316.23176,371.9755 c -0.96775,-1.86254 -2.28575,-7.98095 -2.04808,-9.50761 0.40922,-2.62859 1.76258,-1.15131 2.21211,2.41472 0.24733,1.96193 0.79308,4.67768 1.21282,6.03507 0.76629,2.47813 -0.23797,3.24968 -1.37685,1.05782 z" id="path4747-8-2"/><path style="display:inline;fill-opacity:1;fill:#464646;stroke-width:0.71543431" d="m 312.6165,347.90096 c -0.0158,-1.6722 0.41781,-7.81216 0.4189,-8.27563 0.004,-1.5819 -0.52023,-3.42763 -0.96801,-5.23527 l -3.51824,-4.68548 c -1.93504,-2.57699 -3.25509,-4.87287 -2.93346,-5.10192 0.67282,-0.47914 6.28887,4.09795 6.3077,5.14084 0.008,0.381 0.73152,1.33416 1.61035,2.11814 l 1.59781,1.42541 5.97967,-2.97831 c 3.28885,-1.63808 6.14628,-2.85801 6.34986,-2.71094 0.2036,0.14707 -2.02457,1.76546 -4.95147,3.59649 -2.92692,1.83101 -5.91681,4.03293 -6.64421,4.89316 -1.8958,2.24201 -0.7599,6.65784 -1.37503,10.07967 -0.78467,4.36487 -1.84115,5.37645 -1.87387,1.73384 z" id="path4735-6-1" sodipodi:nodetypes="cscccccccccccc"/><path style="display:inline;fill-opacity:1;fill:#464646;stroke-width:0.71543431" d="m 249.32578,336.63232 c -0.60369,-4.03696 -0.47832,-4.86673 1.05653,-6.9928 1.51859,-2.10353 8.58286,-7.58091 9.77721,-7.58091 1.20864,0 0.0882,1.51296 -2.82498,3.81404 -4.76619,3.76498 -6.33445,6.29957 -6.85799,11.0837 l -0.46579,4.25647 z" id="path4721-0-8"/><path style="display:inline;fill-opacity:1;fill:#464646;stroke-width:0.71543431" d="m 333.82151,325.82252 c 0,-0.31996 0.77922,-0.72891 1.73161,-0.90883 1.10148,-0.20808 1.61211,-0.068 1.4033,0.38514 -0.40311,0.87457 -3.13491,1.33098 -3.13491,0.52369 z" id="path4691-3-2"/><path style="display:inline;fill-opacity:1;fill:#464646;stroke-width:0.71543431" d="m 266.06399,317.79777 c 0.89046,-1.0408 5.34093,-2.46001 5.84967,-1.86538 0.26251,0.30697 -0.72106,0.99005 -2.18597,1.51795 -3.05698,1.10165 -4.41952,1.23086 -3.6637,0.34743 z" id="path4685-3-53"/><path style="display:inline;fill-opacity:1;fill:#464646;stroke-width:0.71543431" d="m 294.25904,316.22446 c -2.08333,-0.77691 -4.64016,-1.42386 -5.68182,-1.43764 -1.04167,-0.0133 -1.89396,-0.29869 -1.89396,-0.63313 0,-1.08519 3.37167,-0.6449 7.41382,0.96812 6.94544,2.77159 7.07923,3.68221 0.16204,1.10265 z" id="path4683-1"/><path style="display:inline;fill-opacity:1;fill:#464646;stroke-width:0.88785607" d="m 322.06917,390.7916 c -0.85654,-1.75357 -2.31123,-8.92328 -1.64687,-8.11685 0.23928,0.2904 1.13298,2.49926 1.98581,4.90864 1.48088,4.18318 1.24197,6.44475 -0.33894,3.20821 z" id="path4753-0-3-46"/></svg>
