<svg viewBox="0 0 560 1000"><path sodipodi:nodetypes="ccccccccc" id="path9398" d="m 300.27148,121.15228 c -4.61537,0.003 -7.85482,0.67127 -9.52929,1.96363 -1.11533,0.8608 -2.50977,2.32824 -2.3711,2.49571 0.0887,0.10712 1.74874,-0.38207 5.25977,-1.55107 2.071,-0.68953 3.86634,-1.00004 7.32226,-1.26244 7.27906,-0.20567 11.9666,0.94081 17.14258,3.99723 0.48116,0.31549 0.94887,0.5772 1.03907,0.58019 0.43773,0.0163 0.0377,-0.33744 -1.25782,-1.11228 -4.86952,-3.14176 -12.19188,-5.36047 -17.60547,-5.11097 z" class="eyebrow_hair"/><path sodipodi:nodetypes="cccccc" id="path9400" d="m 260.88281,125.64952 c -0.0161,0.22164 0.23749,0.13356 2.41211,-0.84696 4.01771,-1.90702 7.88734,-1.74649 11.84961,-0.83677 1.21883,0.4446 3.91381,1.8463 4.00391,1.80473 0.50531,-0.2331 -1.4689,-2.80593 -2.76647,-3.48661 -5.70442,-1.71307 -11.13078,0.84342 -15.49916,3.36561 z" class="eyebrow_hair"/></svg>
