<svg viewBox="0 0 560 1000"><g data-transform="art" inkscape:label="Penis_6_Original" inkscape:groupmode="layer" id="Penis_6_Original" style="display:none;opacity:1"><path d="m 205.5753,435.80646 c 0.39633,-0.16461 1.03811,0.0301 1.40603,-0.13739 17.5085,-7.97201 3.01915,-19.44343 -1.34358,-18.89474 -11.77355,4.1288 -7.24455,15.8015 -3.40854,16.44477 0.0551,0.0399 0.45797,1.02376 3.34607,2.58736 z" id="path8078" sodipodi:nodetypes="cscccc" style="fill:#000000"/><path d="m 202.41304,431.94734 c 6.27574,3.75771 13.61673,-1.9736 13.5483,-5.18238 -1.83245,-5.20067 -5.5954,-9.85666 -10.78708,-8.84611 -8.11212,3.15436 -8.22762,9.5392 -4.2957,14.40041 0.38545,0.29595 0.88682,-0.22726 1.53448,-0.37192 z" id="path8080" sodipodi:nodetypes="ccccc" class="areola"/><path d="m 243.08014,462.70687 c 16.44894,4.58311 33.02426,9.89343 38.70775,-4.35157 1.75387,-4.92581 0.62779,-8.41108 -2.88499,-9.68893 -14.50143,-4.52594 -45.36166,-17.78534 -54.37911,-26.267 -1.24501,-1.90615 -1.03553,-2.18079 -2.30198,-3.48905 -2.68496,-2.77358 -6.13663,-2.49056 -8.95765,-2.33617 -1.70004,0.093 -6.19356,-0.43003 -7.5582,0.11341 -1.14633,0.45656 -2.04092,1.10418 -2.69311,1.93038 -0.20278,0.25683 1.34693,-0.56113 1.49235,-0.67075 4.09513,-3.08597 20.45531,9.89443 2.22117,17.49634 -1.68794,0.70371 -6.85874,-4.548 -6.81266,-4.36889 0.29497,1.14655 2.26401,2.95143 3.99669,4.10638 1.03458,0.6896 2.21169,0.94759 2.63088,1.6878 5.03904,8.89835 16.14899,18.66874 36.53886,25.83782 z" id="path8082" sodipodi:nodetypes="ccccssssssssscc" style="fill:#000000"/><path d="m 200.97133,427.91706 c 0.0892,0.65307 0.89407,1.97683 1.76483,2.2154 -0.008,-0.0323 -0.21407,-1.15932 -0.2224,-1.19358 -0.28168,-1.1573 -1.52808,-4.56453 0.50539,-8.38867 -2.04567,2.31538 -2.41483,4.60792 -2.04782,7.36685 z" id="path8084" sodipodi:nodetypes="ccscc" style="fill:#000000"/><path d="m 243.97522,461.86714 c 16.29508,4.54026 31.95435,10.79179 38.33091,-3.28142 1.73746,-4.87972 1.62876,-7.65553 -1.85117,-8.92144 -15.11926,-3.62216 -47.02673,-17.35384 -55.95985,-25.75617 -1.23334,-1.88834 -1.02583,-2.16041 -2.28045,-3.45642 -2.65985,-2.74765 -4.99671,-3.40926 -7.79132,-3.25631 -1.68416,0.0922 -5.9281,-0.17621 -7.37053,0.0537 0.40732,0.24167 1.73694,0.13338 3.49788,1.34957 2.56951,1.77463 5.24997,4.78484 5.43091,7.94632 0.23473,4.10179 -6.50213,9.95812 -13.45116,5.95733 -0.3478,-0.20022 -0.91349,0.18406 -1.15641,0.2676 -0.27855,0.18551 6.53331,4.2172 6.38927,4.53041 4.99189,8.81513 16.01271,17.46469 36.21188,24.56669 z" class="skin penis" id="path8086" sodipodi:nodetypes="ccccsscssscccc"/></g><g data-transform="art" style="display:none;opacity:1" id="Penis_5_Original" inkscape:groupmode="layer" inkscape:label="Penis_5_Original"><path sodipodi:nodetypes="cscccc" id="path8066" d="m 212.57016,438.53563 c 0.34984,-0.1453 0.91633,0.0266 1.24109,-0.12127 15.45462,-7.03683 2.66498,-17.16257 -1.18597,-16.67824 -10.39242,3.64446 -6.39471,13.94786 -3.00869,14.51567 0.0486,0.0352 0.40425,0.90367 2.95355,2.28384 z" style="fill:#000000"/><path sodipodi:nodetypes="ccccc" id="path8068" d="m 209.77886,435.12922 c 5.53954,3.3169 12.01938,-1.74208 11.95898,-4.57445 -1.61749,-4.59059 -4.93902,-8.7004 -9.52168,-7.80839 -7.1605,2.78433 -7.26245,8.42018 -3.79178,12.71113 0.34024,0.26123 0.78279,-0.2006 1.35448,-0.32829 z" class="areola"/><path sodipodi:nodetypes="ccccssssssssscc" id="path8070" d="m 245.6754,462.28042 c 14.51935,4.04548 29.15026,8.73286 34.16703,-3.8411 1.54813,-4.34797 0.55415,-7.42439 -2.54656,-8.55234 -12.8003,-3.99501 -40.04039,-15.69899 -48.00002,-23.18568 -1.09896,-1.68255 -0.91406,-1.92497 -2.03194,-3.07976 -2.37,-2.44822 -5.41676,-2.1984 -7.90685,-2.06212 -1.50062,0.0821 -5.46701,-0.37958 -6.67157,0.10011 -1.01186,0.403 -1.8015,0.97465 -2.37719,1.70393 -0.17899,0.2267 1.18893,-0.49531 1.31729,-0.59207 3.61474,-2.72396 18.05575,8.73374 1.96061,15.44389 -1.48993,0.62116 -6.05416,-4.01449 -6.01348,-3.85639 0.26036,1.01205 1.99842,2.60521 3.52784,3.62467 0.91322,0.60871 1.95225,0.83643 2.32226,1.48981 4.44792,7.85451 14.25459,16.47876 32.25258,22.80685 z" style="fill:#000000"/><path sodipodi:nodetypes="ccscc" id="path8072" d="m 208.50627,431.57172 c 0.0787,0.57646 0.78919,1.74493 1.5578,1.95552 -0.007,-0.0285 -0.18896,-1.02333 -0.19631,-1.05357 -0.24864,-1.02154 -1.34882,-4.02907 0.4461,-7.40461 -1.80569,2.04377 -2.13155,4.06737 -1.80759,6.50266 z" style="fill:#000000"/><path sodipodi:nodetypes="ccccsscssscccc" id="path8074" class="skin penis" d="m 246.47254,461.54455 c 14.38354,4.00765 28.20586,9.52584 33.83441,-2.89648 1.53363,-4.3073 1.43769,-6.75748 -1.63403,-7.87489 -13.34565,-3.19726 -41.51012,-15.31811 -49.39532,-22.73478 -1.08866,-1.66683 -0.9055,-1.90697 -2.01294,-3.05095 -2.34782,-2.42533 -4.41055,-3.00933 -6.87734,-2.87431 -1.48659,0.0814 -5.23268,-0.15554 -6.5059,0.0474 0.35953,0.21332 1.53317,0.11773 3.08754,1.19126 2.26809,1.56645 4.6341,4.22354 4.79383,7.01415 0.2072,3.62062 -5.73938,8.78996 -11.87324,5.25849 -0.30699,-0.17673 -0.80633,0.16247 -1.02076,0.23621 -0.24587,0.16375 5.76691,3.72248 5.63977,3.99896 4.4063,7.78104 14.13429,15.41596 31.96395,21.68483 z"/></g><g data-transform="art" inkscape:label="Penis_4_Original" inkscape:groupmode="layer" id="Penis_4_Original" style="display:none;opacity:1"><path d="m 219.64496,441.38095 c 0.30335,-0.12599 0.79455,0.0231 1.07615,-0.10515 13.40073,-6.10165 2.31081,-14.88169 -1.02835,-14.46173 -9.01129,3.16012 -5.54487,12.09421 -2.60884,12.58656 0.0421,0.0305 0.35052,0.78358 2.56102,1.98032 z" id="path7829" sodipodi:nodetypes="cscccc" style="fill:#000000"/><path d="m 217.22462,438.42725 c 4.80334,2.87609 10.42202,-1.51056 10.36965,-3.96651 -1.40253,-3.98051 -4.28263,-7.54413 -8.25626,-6.77067 -6.20888,2.4143 -6.29728,7.30115 -3.28786,11.02184 0.29502,0.22651 0.67876,-0.17394 1.17447,-0.28466 z" id="path7831" sodipodi:nodetypes="ccccc" class="areola"/><path d="m 248.35056,461.9701 c 12.58975,3.50784 25.27624,7.57227 29.62629,-3.33063 1.34238,-3.77013 0.4805,-6.4377 -2.20813,-7.41574 -11.09916,-3.46408 -34.71908,-13.61262 -41.62089,-20.10434 -0.95291,-1.45894 -0.79258,-1.66915 -1.7619,-2.67047 -2.05503,-2.12285 -4.69688,-1.90623 -6.85604,-1.78806 -1.30119,0.0712 -4.74045,-0.32914 -5.78493,0.0868 -0.87738,0.34944 -1.56208,0.84512 -2.06126,1.47748 -0.1552,0.19657 1.03092,-0.42948 1.14222,-0.51338 3.13435,-2.36195 15.65617,7.57304 1.70005,13.39142 -1.29192,0.53861 -5.24957,-3.48097 -5.2143,-3.34388 0.22576,0.87755 1.73284,2.25898 3.059,3.14295 0.79185,0.52782 1.6928,0.72527 2.01363,1.29182 3.8568,6.81066 12.36018,14.28876 27.96626,19.77585 z" id="path7833" sodipodi:nodetypes="ccccssssssssscc" style="fill:#000000"/><path d="m 216.12116,435.34254 c 0.0682,0.49985 0.6843,1.51303 1.35077,1.69563 -0.006,-0.0247 -0.16385,-0.88733 -0.17022,-0.91355 -0.2156,-0.88578 -1.16957,-3.49361 0.38681,-6.42055 -1.56572,1.77216 -1.84827,3.52682 -1.56736,5.63847 z" id="path7835" sodipodi:nodetypes="ccscc" style="fill:#000000"/><path d="m 249.0499,461.33828 c 12.47198,3.47504 24.45734,8.25986 29.33786,-2.51155 1.32983,-3.73487 1.24663,-5.85943 -1.41686,-6.82834 -11.57203,-2.77234 -35.99349,-13.28235 -42.83076,-19.71335 -0.94398,-1.4453 -0.78516,-1.65354 -1.74542,-2.64549 -2.0358,-2.103 -3.8244,-2.60938 -5.96336,-2.49232 -1.28902,0.0705 -4.53726,-0.13487 -5.64127,0.0411 0.31175,0.18497 1.32941,0.10208 2.67722,1.03294 1.96666,1.35827 4.01823,3.66222 4.15673,6.08198 0.17966,3.13944 -4.97663,7.62179 -10.29531,4.55964 -0.26619,-0.15324 -0.69917,0.14088 -0.8851,0.20482 -0.21319,0.14199 5.00049,3.22778 4.89025,3.4675 3.82072,6.74696 12.25587,13.36721 27.71599,18.80296 z" class="skin penis" id="path7837" sodipodi:nodetypes="ccccsscssscccc"/></g><g data-transform="art" style="display:none;opacity:1" id="Penis_3_Original" inkscape:groupmode="layer" inkscape:label="Penis_3_Original"><path sodipodi:nodetypes="cscccc" id="path8018" d="m 226.76483,444.17259 c 0.25685,-0.10668 0.67277,0.0196 0.91121,-0.089 11.34687,-5.16648 1.95664,-12.60085 -0.87074,-12.24525 -7.63017,2.67578 -4.69504,10.24059 -2.209,10.65748 0.0357,0.0258 0.2968,0.66348 2.16851,1.6768 z" style="fill:#000000"/><path sodipodi:nodetypes="ccccc" id="path8020" d="m 224.71544,441.67159 c 4.06716,2.43529 8.82469,-1.27904 8.78034,-3.35858 -1.18757,-3.37044 -3.62625,-6.38788 -6.99086,-5.73296 -5.25728,2.04427 -5.33213,6.18214 -2.78395,9.33257 0.24981,0.1918 0.57473,-0.14728 0.99447,-0.24103 z" class="areola"/><path sodipodi:nodetypes="ccccssssssssscc" id="path8022" d="m 251.07086,461.60615 c 10.66018,2.97021 21.40228,6.4117 25.08562,-2.82016 1.13664,-3.19231 0.40685,-5.45103 -1.8697,-6.27917 -9.39805,-2.93316 -29.39786,-11.52628 -35.24187,-17.02305 -0.80686,-1.23533 -0.6711,-1.41333 -1.49186,-2.26118 -1.74007,-1.79749 -3.97701,-1.61407 -5.80525,-1.51401 -1.10176,0.0603 -4.0139,-0.2787 -4.8983,0.0735 -0.74291,0.29589 -1.32267,0.7156 -1.74534,1.25104 -0.13141,0.16644 0.87291,-0.36366 0.96716,-0.4347 2.65396,-1.99994 13.25662,6.41236 1.43949,11.33899 -1.09392,0.45606 -4.445,-2.94746 -4.41513,-2.83138 0.19116,0.74305 1.46725,1.91275 2.59016,2.66124 0.67049,0.44692 1.43335,0.61411 1.70501,1.09383 3.26569,5.76682 10.4658,12.09879 23.68001,16.7449 z" style="fill:#000000"/><path sodipodi:nodetypes="ccscc" id="path8024" d="m 223.7811,439.05966 c 0.0577,0.42324 0.57942,1.28114 1.14375,1.43575 -0.005,-0.0209 -0.13874,-0.75133 -0.14414,-0.77354 -0.18255,-0.75002 -0.99031,-2.95816 0.32753,-5.4365 -1.32575,1.50055 -1.565,2.98628 -1.32714,4.77429 z" style="fill:#000000"/><path sodipodi:nodetypes="ccccsscssscccc" id="path8026" class="skin penis" d="m 251.67247,461.07827 c 10.56045,2.94245 20.70888,6.99392 24.84139,-2.1266 1.12601,-3.16245 1.05557,-4.96139 -1.1997,-5.78179 -9.79845,-2.34744 -30.47696,-11.24663 -36.2663,-16.69199 -0.7993,-1.22378 -0.66483,-1.40011 -1.47792,-2.24004 -1.72377,-1.78068 -3.23826,-2.20944 -5.04938,-2.11033 -1.09146,0.0597 -3.84185,-0.1142 -4.77667,0.0348 0.26398,0.15661 1.12566,0.0865 2.2669,0.87462 1.66525,1.1501 3.40238,3.10094 3.51965,5.14983 0.15212,2.65828 -4.21389,6.45364 -8.71739,3.8608 -0.2254,-0.12976 -0.59201,0.11929 -0.74945,0.17343 -0.18052,0.12022 4.23409,2.73307 4.14074,2.93606 3.23514,5.71289 10.37748,11.31848 23.4681,15.92111 z"/></g><g data-transform="art" inkscape:label="Penis_2_Original" inkscape:groupmode="layer" id="Penis_2_Original" style="display:none;opacity:1"><path d="m 234.25969,446.77676 c 0.21036,-0.0874 0.55099,0.0161 0.74627,-0.0729 9.29299,-4.2313 1.60247,-10.31998 -0.71313,-10.02875 -6.24904,2.19144 -3.8452,8.38695 -1.80915,8.72838 0.0292,0.0211 0.24308,0.54339 1.77599,1.37329 z" id="path8030" sodipodi:nodetypes="cscccc" style="fill:#000000"/><path d="m 232.58126,444.72847 c 3.33096,1.99448 7.22734,-1.04753 7.19102,-2.75065 -0.97261,-2.76036 -2.96987,-5.23162 -5.72546,-4.69525 -4.30566,1.67424 -4.36696,5.06312 -2.28003,7.6433 0.20459,0.15708 0.4707,-0.12062 0.81447,-0.1974 z" id="path8032" sodipodi:nodetypes="ccccc" class="areola"/><path d="m 254.16612,461.0547 c 8.73059,2.43258 17.52828,5.25113 20.54491,-2.30969 0.9309,-2.61447 0.3332,-4.46434 -1.53127,-5.14258 -7.69692,-2.40224 -24.0766,-9.43993 -28.86279,-13.94174 -0.66081,-1.01172 -0.54963,-1.1575 -1.22182,-1.85188 -1.4251,-1.47213 -3.25714,-1.32191 -4.75445,-1.23996 -0.90233,0.0494 -3.28735,-0.22826 -4.01167,0.0602 -0.60843,0.24233 -1.08325,0.58607 -1.42942,1.02459 -0.10762,0.13632 0.71491,-0.29783 0.7921,-0.35601 2.17357,-1.63794 10.85706,5.25167 1.17893,9.28653 -0.89591,0.37351 -3.64042,-2.41394 -3.61595,-2.31887 0.15655,0.60855 1.20166,1.56652 2.12131,2.17953 0.54913,0.36602 1.17391,0.50295 1.39639,0.89584 2.67458,4.72297 8.5714,9.9088 19.39373,13.71393 z" id="path8034" sodipodi:nodetypes="ccccssssssssscc" style="fill:#000000"/><path d="m 231.81604,442.58932 c 0.0473,0.34663 0.47454,1.04924 0.93672,1.17586 -0.004,-0.0171 -0.11363,-0.61533 -0.11805,-0.63352 -0.14951,-0.61426 -0.81105,-2.42271 0.26824,-4.45244 -1.08577,1.22893 -1.28172,2.44573 -1.08691,3.9101 z" id="path8036" sodipodi:nodetypes="ccscc" style="fill:#000000"/><path d="m 254.67058,460.63048 c 8.64894,2.40985 16.96041,5.72797 20.3449,-1.74165 0.92218,-2.59002 0.86449,-4.06335 -0.98255,-4.73526 -8.02485,-1.92253 -24.96037,-9.21089 -29.70179,-13.67058 -0.65462,-1.00228 -0.54449,-1.14669 -1.2104,-1.83458 -1.41176,-1.45835 -2.65211,-1.80951 -4.1354,-1.72834 -0.8939,0.0488 -3.14645,-0.0936 -3.91205,0.0285 0.2162,0.12827 0.9219,0.0709 1.85657,0.71631 1.36382,0.94192 2.78651,2.53965 2.88256,4.21766 0.12459,2.17711 -3.45114,5.28548 -7.13947,3.16197 -0.1846,-0.10626 -0.48486,0.0977 -0.61379,0.14205 -0.14784,0.0985 3.46768,2.23835 3.39123,2.4046 2.64955,4.67879 8.49907,9.26973 19.22017,13.03925 z" class="skin penis" id="path8038" sodipodi:nodetypes="ccccsscssscccc"/></g><g data-transform="art" style="display:none;opacity:1" id="Penis_1_Original" inkscape:groupmode="layer" inkscape:label="Penis_1_Original"><path sodipodi:nodetypes="cscccc" id="path8042" d="m 241.26312,449.05511 c 0.16387,-0.0681 0.42921,0.0125 0.58133,-0.0568 7.23911,-3.29612 1.24831,-8.03913 -0.55552,-7.81226 -4.86791,1.7071 -2.99535,6.53331 -1.4093,6.79929 0.0228,0.0164 0.18936,0.42329 1.38348,1.06977 z" style="fill:#000000"/><path sodipodi:nodetypes="ccccc" id="path8044" d="m 239.95564,447.45952 c 2.59477,1.55367 5.63,-0.81601 5.60171,-2.14272 -0.75765,-2.15028 -2.31349,-4.07536 -4.46006,-3.65754 -3.35405,1.30422 -3.40179,3.9441 -1.77611,5.95402 0.15937,0.12237 0.36667,-0.0939 0.63446,-0.15376 z" class="areola"/><path sodipodi:nodetypes="ccccssssssssscc" id="path8046" d="m 256.76995,460.17742 c 6.80101,1.89494 13.65428,4.09056 16.0042,-1.79922 0.72515,-2.03663 0.25955,-3.47765 -1.19284,-4.00599 -5.9958,-1.87132 -18.75534,-7.35357 -22.48371,-10.86042 -0.51477,-0.78812 -0.42816,-0.90168 -0.95178,-1.44259 -1.11013,-1.14677 -2.53727,-1.02975 -3.70365,-0.96591 -0.70291,0.0385 -2.56081,-0.17782 -3.12504,0.0469 -0.47396,0.18876 -0.84384,0.45653 -1.11349,0.79813 -0.0838,0.1062 0.5569,-0.23201 0.61703,-0.27732 1.69318,-1.27594 8.45749,4.09097 0.91837,7.23407 -0.69791,0.29096 -2.83584,-1.88042 -2.81678,-1.80636 0.12195,0.47405 0.93608,1.22029 1.65248,1.69782 0.42776,0.28512 0.91445,0.39179 1.08776,0.69785 2.08346,3.67912 6.677,7.71882 15.10745,10.68296 z" style="fill:#000000"/><path sodipodi:nodetypes="ccscc" id="path8048" d="m 239.35954,445.79315 c 0.0369,0.27001 0.36967,0.81735 0.7297,0.91598 -0.003,-0.0133 -0.0885,-0.47933 -0.092,-0.4935 -0.11646,-0.47851 -0.63179,-1.88727 0.20895,-3.4684 -0.84579,0.95732 -0.99844,1.9052 -0.84669,3.04592 z" style="fill:#000000"/><path sodipodi:nodetypes="ccccsscssscccc" id="path8050" class="skin penis" d="m 257.1765,459.85636 c 6.7374,1.87723 13.2119,4.46201 15.84838,-1.35675 0.71837,-2.01758 0.67342,-3.16527 -0.76539,-3.68868 -6.25125,-1.49762 -19.44377,-7.17514 -23.13728,-10.64919 -0.50994,-0.78076 -0.42415,-0.89326 -0.94289,-1.42911 -1.09974,-1.13604 -2.06595,-1.40958 -3.22141,-1.34636 -0.69634,0.038 -2.45104,-0.0729 -3.04743,0.0222 0.16841,0.1 0.71816,0.0551 1.44624,0.558 1.06239,0.73375 2.17065,1.97835 2.24547,3.2855 0.0971,1.69593 -2.68839,4.11731 -5.56154,2.46312 -0.1438,-0.0829 -0.3777,0.0761 -0.47814,0.11064 -0.11516,0.0768 2.70127,1.74365 2.64173,1.87316 2.06395,3.64473 6.62064,7.22099 14.97224,10.15741 z"/></g><g data-transform="art" inkscape:groupmode="layer" id="Penis_Alt_Low" style="display:none" inkscape:label="Penis_Alt_Low"><path d="m 226.61405,487.58313 c 3.68258,-11.04469 -10.19837,-11.78155 -10.0793,-7.91427 -1.45472,9.77651 8.7954,10.61058 10.0793,7.91427 z" id="XMLID_885_-0-28" sodipodi:nodetypes="ccc" style="fill:#000000"/><path d="m 226.25878,486.96497 c 3.26472,-9.7915 -9.04122,-10.44476 -8.93566,-7.01628 -1.28967,8.66721 7.79743,9.40664 8.93566,7.01628 z" id="XMLID_885_-0" sodipodi:nodetypes="ccc" style="fill-opacity:1;fill:#daa595"/><path d="m 260.99716,470.70612 c 8.97273,-9.50247 18.48295,-18.83104 10.86544,-27.76242 -2.70952,-2.94523 -5.47126,-3.42639 -7.58997,-1.50379 -8.23909,8.20418 -28.22902,24.36884 -37.18976,27.44823 -1.73494,0.16284 -1.84616,-0.077 -3.18391,0.31372 -2.8361,0.82834 -3.87611,3.26652 -4.77818,5.23176 -0.54362,1.18434 -2.50121,4.04032 -2.62016,5.15827 -0.0999,0.93911 0.0194,1.77593 0.34611,2.51236 0.10155,0.22894 0.0116,-1.61585 0.0384,-1.75256 0.67703,-3.46875 10.11859,-2.98154 9.39028,5.4513 -0.12041,1.39451 -2.23747,2.81199 -2.09975,2.8447 0.8816,0.20939 2.80633,-0.47985 4.20662,-1.24096 0.83611,-0.45446 1.43082,-1.15946 2.08161,-1.17916 7.82329,-0.23684 18.40332,-4.27324 30.53327,-15.52145 z" id="XMLID_885_-1" sodipodi:nodetypes="ccccsssssssssc" style="fill:#000000"/><path d="m 219.48097,484.11977 c -0.44566,0.93458 -0.13092,1.88191 0.19574,2.67609 0.13669,0.33234 0.99783,0.92529 1.56732,0.92419 -0.009,-0.0156 -0.39771,-0.54203 -0.40713,-0.55894 -0.3186,-0.57106 -1.25496,-1.8606 -1.3559,-3.04135 z" id="XMLID_885_-0-2" sodipodi:nodetypes="cscscc" style="fill:#000000"/><path d="m 260.49495,469.86003 c 8.83376,-9.35529 18.59361,-17.67588 11.38466,-26.95742 -2.66756,-2.89962 -4.57402,-3.81083 -6.65992,-1.918 -7.79898,8.88961 -28.3543,25.4914 -37.17625,28.5231 -1.70807,0.16032 -1.81757,-0.0758 -3.1346,0.30886 -2.79217,0.81551 -4.06607,2.15343 -4.95417,4.08823 -0.5352,1.166 -2.45493,4.01558 -2.72321,5.08943 -0.23098,0.92456 -0.3676,2.07987 -0.046,2.8049 0.1,0.22539 0.54173,-1.93333 0.56813,-2.06792 0.66655,-3.41503 9.59204,-2.65255 8.87501,5.64968 -0.11854,1.37291 -1.83298,2.48563 -1.69739,2.51783 0.86794,0.20615 2.76286,-0.47242 4.14146,-1.22174 0.82316,-0.44742 1.40866,-1.1415 2.04937,-1.1609 7.70212,-0.23317 17.43079,-4.58205 29.37286,-15.65605 z" class="skin penis" id="XMLID_885_-1-9" sodipodi:nodetypes="ccccssssssssscc"/></g><g data-transform="art" style="display:none" id="Penis_Alt_High_Circ" inkscape:groupmode="layer" inkscape:label="Penis_Alt_High_Circ" sodipodi:insensitive="true"><path sodipodi:nodetypes="csscccc" id="path7882" d="m 216.02104,430.77435 c 0.30335,-0.12599 0.79454,0.0231 1.07615,-0.10515 5.23904,-2.38545 13.01609,-4.68027 12.69524,-7.17468 -0.49985,-3.88595 -11.68988,-7.54283 -13.72359,-7.28705 -9.01129,3.16012 -5.54487,12.09421 -2.60884,12.58656 0.0421,0.0305 0.35052,0.78358 2.56102,1.98032 z" style="fill:#000000"/><path sodipodi:nodetypes="csscsccc" id="path7884" d="m 215.49133,430.2269 c 0.33299,0.19938 0.63571,0.3419 0.92307,0.43644 1.42348,0.46831 2.46982,-0.2407 4.94954,-1.04624 4.24051,-1.37754 8.51499,-5.95586 8.48424,-7.39814 -0.73019,-2.07234 -1.33269,-4.73751 -4.33712,-5.60574 -2.76643,-0.79945 -7.89209,0.0995 -9.79697,0.47025 -6.20888,2.4143 -6.26603,7.30115 -3.25661,11.02184 0.29502,0.22651 2.53814,2.23231 3.03385,2.12159 z" style="fill-opacity:1;fill:#daa595"/><path sodipodi:nodetypes="ccccsssssssssssscc" id="path7886" d="m 244.72664,451.3635 c 12.58975,3.50784 25.27624,7.57227 29.62629,-3.33063 1.34238,-3.77013 0.4805,-6.4377 -2.20813,-7.41574 -11.09916,-3.46408 -35.03158,-13.51887 -41.93339,-20.01059 -0.95291,-1.45894 -1.07383,-1.79415 -2.04315,-2.79547 -2.05503,-2.12285 -4.72813,-1.65623 -6.88729,-1.53806 -1.30119,0.0712 -4.36545,-0.42289 -5.40993,-0.007 -0.87738,0.34944 -1.31208,0.72012 -1.81126,1.35248 -0.1552,0.19657 1.00401,-0.49539 1.14222,-0.51338 9.87726,-1.28591 12.58031,-0.0274 13.77724,3.10109 0.30288,0.79164 0.42362,1.98437 -0.0244,2.71978 -0.91499,1.50205 -3.26555,3.64481 -5.97254,5.16068 -1.78111,0.99739 -3.63211,1.6283 -6.08028,2.40987 -1.3334,0.42568 -5.24957,-3.48097 -5.2143,-3.34388 0.22576,0.87755 1.73284,2.25898 3.059,3.14295 0.79185,0.52782 1.6928,0.72527 2.01363,1.29182 3.8568,6.81066 12.36018,14.28876 27.96626,19.77585 z" style="fill:#000000"/><path sodipodi:nodetypes="ccscc" id="path7888" d="m 212.49724,424.73594 c 0.0682,0.49985 0.6843,1.51303 1.35077,1.69563 -0.006,-0.0247 -0.16385,-0.88733 -0.17022,-0.91355 -0.2156,-0.88578 -1.16957,-3.49361 0.38681,-6.42055 -1.56572,1.77216 -1.84827,3.52682 -1.56736,5.63847 z" style="fill:#000000"/><path sodipodi:nodetypes="ccccccc" id="path7890" class="skin penis" d="m 245.24103,450.52475 c 12.39475,3.45352 24.30588,8.20871 29.15618,-2.49599 1.32159,-3.71174 1.23891,-5.82315 -1.40809,-6.78605 -11.28224,-2.70293 -35.54206,-13.33793 -42.84774,-19.75459 -2.69887,6.44221 -10.20519,8.78929 -13.25723,9.41257 3.79706,6.70517 12.99248,14.22192 28.35685,19.62401 z"/></g><g data-transform="art" style="display:none" id="Penis_Alt_Mid" inkscape:groupmode="layer" inkscape:label="Penis_Alt_Mid"><path sodipodi:nodetypes="csccccc" id="path7856" d="m 214.96629,456.45579 c 0.2203,-0.24364 0.63147,-0.46613 0.92775,-0.55536 9.66383,-2.91049 2.60729,-16.30985 -1.49901,-15.4884 -1.68682,0.79277 -4.36724,2.05863 -5.86214,3.10514 -6.37657,6.62403 0.44234,13.04491 3.2714,12.24409 0.0511,0.01 0.65201,0.55834 3.16198,0.69454 z" style="fill:#000000"/><path sodipodi:nodetypes="csccc" id="path7858" d="m 214.20261,456.25874 c 9.66791,0.15815 5.40597,-14.99985 0.51471,-15.06617 -1.34094,-0.0182 -4.52989,1.95677 -5.94463,3.04771 -4.57949,4.83811 -2.50914,9.26478 1.80258,11.34064 0.36356,0.0786 3.22663,0.98994 3.62734,0.67782 z" style="fill-opacity:1;fill:#daa595"/><path sodipodi:nodetypes="ccccsscscssscc" id="path7860" d="m 249.72018,462.78758 c 12.88033,-2.2145 26.08617,-3.96727 25.3545,-15.6831 -0.39929,-3.98202 -2.31938,-6.02456 -5.16798,-5.75856 -11.51427,1.61645 -37.20529,2.54654 -46.22064,-0.36909 -1.48539,-0.91113 -1.43038,-1.16972 -2.73486,-1.66019 -2.76558,-1.03981 -5.06088,0.28605 -6.962,1.31642 -0.31683,0.17172 -4.10369,2.14322 -4.30287,2.20725 0.34421,0.21863 3.60878,-1.47793 5.04318,-0.82302 2.31392,1.05649 8.67505,8.16369 0.91431,13.81058 -0.98473,0.99472 -6.23406,-0.90096 -6.14354,-0.79213 0.57944,0.69665 2.53259,1.30067 4.10942,1.53243 0.94152,0.13838 1.84035,-0.0685 2.37268,0.30635 6.3994,4.50641 17.28432,7.62857 33.73772,5.91289 z" style="fill:#000000"/><path sodipodi:nodetypes="ccscc" id="path7862" d="m 208.1497,451.64402 c 0.11992,0.46711 0.76663,1.30648 1.3523,1.33287 -0.008,-0.0225 -0.24904,-0.8196 -0.25768,-0.84348 -0.29254,-0.80646 -0.0496,-3.69204 0.49937,-6.26008 -0.72859,1.35165 -1.78494,3.64934 -1.59399,5.77069 z" style="fill:#000000"/><path sodipodi:nodetypes="ccccccscccc" id="path7864" class="skin penis" d="m 249.82636,461.8094 c 12.68083,-2.18018 25.48131,-2.97691 25.28659,-14.72758 -0.3931,-3.92034 -1.37099,-5.79347 -4.17548,-5.53159 -11.57368,2.42883 -37.9793,3.36918 -46.85502,0.49872 -1.93911,-1.13102 -3.1745,-3.12648 -5.98385,-2.60515 -2.43352,0.30345 -5.47148,1.94819 -6.66055,2.59266 0.0632,0.0542 2.45315,-0.93839 3.66897,-0.47754 1.69998,0.64437 9.95358,8.5593 0.68365,14.63243 0.13382,0.0928 0.48639,0.23485 1.14527,0.50938 6.30027,4.43661 16.69183,6.79782 32.89039,5.10871 z"/></g></svg>
