<svg viewBox="0 0 560 1000"><path d="m 278,171.2 c 2.6,3.9 7.6,0.9 14,5.1 7.8,5 8.1,14 13.2,14 1.7,0 3.5,-1 4.3,-2.4 4.5,-7.7 -18.1,-34.7 -27.5,-31.1 -4.4,1.7 -6.7,10.2 -4,14.4 z" style="fill:#bf2126;opacity:0.23999999" id="XMLID_867_"/><path style="fill:#070505" d="m 270.86363,167.91774 -3.2875,-6.73024 c 19.27977,1.64821 36.51905,0.31872 56.27387,-0.25 -1.47095,2.92345 -3.142,5.5801 -5.1125,7.8375 -18.27129,0.42342 -32.17753,1.29427 -47.87387,-0.85726 z" id="XMLID_892_" sodipodi:nodetypes="ccccc"/><path style="fill:#ff0000" d="m 290.39999,165.00001 c 0,4.80488 -3.40264,8.7 -7.6,8.7 -0.14922,0 -2.39119,-0.0362 -2.53828,-0.0458 -3.99047,-0.26347 -5.06172,-4.02006 -5.06172,-8.65412 0,-4.68504 1.14128,-8.53639 5.19373,-8.72403 0.10365,-0.005 2.30159,0.0242 2.40627,0.0242 4.19736,0 7.6,3.89512 7.6,8.7 z" id="XMLID_893_" sodipodi:nodetypes="cssssssc"/><path style="display:inline;fill:#800000" d="m 288.03751,164.99359 c 0,4.80488 -3.40264,8.7 -7.6,8.7 -0.14922,0 -0.29744,-0.005 -0.44453,-0.0146 -3.99047,-0.26347 -7.15547,-4.05131 -7.15547,-8.68537 0,-4.68504 3.23503,-8.50514 7.28748,-8.69278 0.10365,-0.005 0.20784,-0.007 0.31252,-0.007 4.19736,0 7.6,3.89512 7.6,8.7 z" id="XMLID_893_-6" sodipodi:nodetypes="sssssss"/></svg>
