<svg viewBox="0 0 560 1000"><path id="path2540" style="display:inline;fill:#000000;stroke-width:0.1766593" d="m 286.55407,155.24717 c 0.39401,-0.4248 0.86161,-1.03899 1.0391,-1.36486 0.12176,-0.32674 -0.0857,-0.87842 -0.24408,-1.44896 0.34507,0.54284 0.46551,0.85519 0.62561,1.3445 0.10363,0.85958 -1.03225,2.24168 -1.84242,2.24168 -0.21056,0 -0.0902,-0.22032 0.42175,-0.77236 z m -5.24389,-0.0118 c 0.45235,-0.27246 0.72518,-0.44764 1.59275,-0.43625 2.15805,0.0284 1.90593,0.69358 -0.29051,0.76643 -1.20861,-0.13402 -1.34813,-0.22021 -1.35788,0.62936 -0.0882,-0.33332 -0.1714,-0.61558 0.0556,-0.95954 z m -6.18111,-2.69406 v 2e-5 c -0.46806,-1.10244 -0.369,-2.74262 0.25789,-4.27071 1.05444,-2.57022 1.93041,-4.57849 2.048,-4.69536 0.0654,-0.0651 0.11908,0.13457 0.11908,0.44372 0,0.62188 -0.31247,1.53535 -1.42428,4.16358 -0.62256,1.47174 -0.74395,1.94923 -0.7386,2.90584 0.003,0.62961 0.0908,1.36267 0.19421,1.62904 0.44651,0.80152 1.87221,2.1737 2.10335,2.23323 0.40574,0.10448 0.70355,0.23251 1.00643,0.70381 0.12951,0.25329 0.22841,0.4791 0.29419,0.66657 -0.2032,-0.41456 -1.04341,-0.64673 -1.27755,-0.91056 -2.04892,-1.8712 -2.52814,-2.73499 -2.58272,-2.86918 z" sodipodi:nodetypes="csccsccccsccccccccsccccccc"/><path sodipodi:nodetypes="ccc" id="path2548" d="m 283.22365,149.21726 c 0.57228,0.8852 0.25352,1.52877 -0.58236,1.43672 -0.0682,-0.2112 -0.34275,-1.25205 0.58236,-1.43672 z" style="fill-opacity:1;fill-rule:nonzero;fill:#000000;stroke-dasharray:none;stroke-linecap:butt;stroke-linejoin:miter;stroke-miterlimit:4;stroke-opacity:1;stroke-width:0;stroke:#000000"/></svg>
