<svg viewBox="0 0 560 1000"><path sodipodi:nodetypes="ccccccc" id="path9410" d="m 300.27148,120.36328 c -4.61537,0.004 -7.85482,0.89937 -9.52929,2.63086 -1.11533,1.1533 -2.50977,3.11938 -2.3711,3.34375 0.0887,0.14352 1.74874,-0.5119 5.25977,-2.07812 2.071,-0.92383 3.86634,-1.33984 7.32226,-1.69141 6.3903,-0.35846 11.90098,2.03176 11.90098,2.03176 0,0 -4.45367,-3.19972 -12.58262,-4.23684 z" class="eyebrow_hair"/><path sodipodi:nodetypes="ccccc" id="path9412" d="m 263.52711,124.62742 c 0,0 6.45962,-1.89097 11.61742,-0.49461 1.21883,0.59568 3.91381,2.47367 4.00391,2.41797 0.50531,-0.3123 -1.4689,-3.75937 -2.76647,-4.67134 -4.29579,-1.77724 -12.85486,2.74798 -12.85486,2.74798 z" class="eyebrow_hair"/></svg>
