<svg viewBox="0 0 560 1000"><path sodipodi:nodetypes="cccscc" id="path2710" d="m 290.14844,121.63529 c -0.2823,0.55176 -1.35966,4.05192 -0.70508,4.97626 2.33617,-1.51027 12.86948,-5.74759 16.3254,-6.20461 0.75808,-0.15287 8.31293,5.06637 7.73312,4.31764 -0.28278,-0.36516 -3.75707,-5.47482 -7.34451,-6.95177 -4.56178,1.60931 -12.97098,2.31704 -16.00893,3.86248 z" class="eyebrow_hair"/><path sodipodi:nodetypes="cccsssccc" id="path2712" d="m 277.24499,121.73594 c 0.18157,0.55175 0.8745,4.05191 0.45349,4.97625 -1.332,-1.2009 -8.55568,-5.54807 -10.77844,-6.00509 -0.0391,-0.0117 -0.10867,0.0152 -0.20291,0.0758 -1.07857,0.69308 -4.14018,3.75429 -4.4924,4.04236 -0.22939,0.18759 2.25287,-5.08023 4.4604,-6.76671 0.0875,-0.067 0.17537,-0.12869 0.26338,-0.18506 2.934,1.60931 8.34256,2.31704 10.29648,3.86248 z" class="eyebrow_hair"/></svg>
