<svg viewBox="0 0 560 1000"><path inkscape:label="#PussyshadowN" sodipodi:nodetypes="ccscc" id="path3626" class="shadow" d="m 283.66521,456.38067 c -1.54841,0.73859 -1.78928,15.78672 -9.24659,11.14886 -5.5459,3.1603 -10.12915,-4.94173 -10.42429,-8.4126 -0.25114,-2.95343 3.37748,-7.20053 3.87403,-6.51846 2.14579,-0.003 16.30971,2.85987 15.79685,3.7822 z"/><path inkscape:label="#PussyN" sodipodi:nodetypes="ccsc" id="path3628" class="skin torso" d="m 274.36595,467.58332 c -3.81452,2.31718 -9.64064,-2.27902 -10.8644,-11.68664 5.95334,-21.67633 25.49385,-8.31185 20.23612,0.35499 -2.87984,4.74713 -3.52005,14.37508 -9.37172,11.33165 z"/><path style="display:inline;fill-opacity:1;fill:#000000;stroke-dasharray:none;stroke-linecap:butt;stroke-linejoin:miter;stroke-miterlimit:4;stroke-opacity:1;stroke-width:0;stroke:#000000" d="m 362.10234,431.42577 c -2.68621,-6.082 -11.77109,-19.93812 -12.39996,-21.91039 -0.0813,-0.25494 -0.70857,-2.49571 -0.70857,-2.49571 -22.65767,4.89275 -39.56413,7.60141 -60.05248,8.19626 -24.22046,0.7032 -47.2185,-2.20107 -60.45696,-7.53731 -5.40607,5.37032 -15.30216,29.43767 -18.2596,57.12826 19.27983,-8.82383 104.9691,-2.24715 151.87757,-33.38111 z" id="path3630" sodipodi:nodetypes="cscsccc"/><path sodipodi:nodetypes="ccccccscsc" id="path3637" d="m 210.02231,465.70903 c 9.85266,-3.69513 44.83927,-4.51457 58.12791,1.13139 1.97544,1.15064 3.44304,1.50895 6.29117,0.74829 1.48394,1.11892 3.67809,1.01117 5.52348,-0.15189 69.74911,-5.15378 88.60816,4.49456 89.15449,3.93966 4.42612,-12.45392 -1.2103,-34.0201 -4.06114,-38.33503 -2.68621,-6.082 -14.36208,-21.59529 -14.99095,-23.56756 -0.0813,-0.25494 -1.22374,-2.21355 -1.22374,-2.21355 -45.10201,11.9464 -93.79805,12.4646 -120.26832,0.58222 -0.12493,-0.0561 -10.13222,11.32902 -18.5529,57.86647 z" style="display:inline;fill-opacity:1;fill:#517cd3;stroke-dasharray:none;stroke-linecap:butt;stroke-linejoin:miter;stroke-miterlimit:4;stroke-opacity:1;stroke-width:0;stroke:#000000"/><path style="baseline-shift:baseline;clip-rule:nonzero;color-interpolation-filters:linearRGB;color-interpolation:sRGB;color-rendering:auto;color:#000000;direction:ltr;display:inline;enable-background:accumulate;fill-opacity:1;fill-rule:evenodd;fill:#000000;image-rendering:auto;isolation:auto;mix-blend-mode:normal;opacity:1;overflow:visible;shape-rendering:auto;solid-color:#000000;solid-opacity:1;stroke-dasharray:none;stroke-dashoffset:0;stroke-linecap:butt;stroke-linejoin:miter;stroke-miterlimit:4;stroke-opacity:1;stroke-width:1.77084005;stroke:none;visibility:visible;white-space:normal;writing-mode:lr-tb" d="m 267.87825,838.69315 c 9.18334,-53.4093 34.63123,-97.3606 16.80434,-152.07447 -0.50064,-1.39178 11.25238,-58.67167 7.16821,-91.96966 -0.073,-0.5948 1.54741,-2.89277 1.49723,-3.45798 -0.12842,-1.44489 -0.40044,-2.84549 -0.59652,-4.05342 -1.78565,-11.00008 -11.04331,-29.37927 -14.86188,-50.18047 -26.36653,9.36509 -58.06927,-99.29056 -60.96352,-98.22539 -24.58844,61.53329 -6.91342,123.46546 25.36848,225.13452 1.44207,4.54167 2.0997,14.18196 2.01111,15.64706 2.20237,5.96005 3.93417,109.17429 9.12168,159.64521 6.31619,-2.58038 10.84336,-1.35332 14.45087,-0.46541 z" id="path6062-0" sodipodi:nodetypes="ccsssccscccc"/><path style="baseline-shift:baseline;clip-rule:nonzero;color-interpolation-filters:linearRGB;color-interpolation:sRGB;color-rendering:auto;color:#000000;direction:ltr;display:inline;enable-background:accumulate;fill-opacity:1;fill-rule:evenodd;fill:#000000;image-rendering:auto;isolation:auto;mix-blend-mode:normal;opacity:1;overflow:visible;shape-rendering:auto;solid-color:#000000;solid-opacity:1;stroke-dasharray:none;stroke-dashoffset:0;stroke-linecap:butt;stroke-linejoin:miter;stroke-miterlimit:4;stroke-opacity:1;stroke-width:1.77035642;stroke:none;visibility:visible;white-space:normal;writing-mode:lr-tb" d="m 338.3575,841.60277 c 2.22085,-6.48168 2.39389,-23.88738 5.18311,-48.98913 3.235,-29.11351 9.23009,-70.7682 2.09774,-111.0184 -0.32901,-1.85668 27.38078,-58.46913 21.77711,-143.06541 -0.3747,-5.65669 -11.90475,-0.15545 -12.09364,-3.81687 -18.35816,5.1524 -64.27852,5.74594 -77.62644,2.38332 0.93627,6.39984 -3.79386,11.29263 -2.65491,17.47692 2.35463,12.78537 6.22047,23.42494 8.22336,32.62077 0.0425,0.19537 0.0873,0.38952 0.1244,0.58402 0.95096,4.98748 1.64899,6.14898 3.08327,11.76174 3.46039,22.89029 18.66659,61.42323 25.93951,81.54848 -16.39841,61.82149 0.65417,103.4583 6.57968,160.29686 7.04026,-3.30483 16.67986,-0.52304 19.36681,0.21766 z" id="path6060-7" sodipodi:nodetypes="csssccsssccccc"/><path style="baseline-shift:baseline;clip-rule:nonzero;color-interpolation-filters:linearRGB;color-interpolation:sRGB;color-rendering:auto;color:#000000;direction:ltr;display:inline;enable-background:accumulate;fill-opacity:1;fill-rule:evenodd;fill:#517cd3;image-rendering:auto;isolation:auto;mix-blend-mode:normal;opacity:1;overflow:visible;shape-rendering:auto;solid-color:#000000;solid-opacity:1;stroke-dasharray:none;stroke-dashoffset:0;stroke-linecap:butt;stroke-linejoin:miter;stroke-miterlimit:4;stroke-opacity:1;stroke-width:1.67334545;stroke:none;visibility:visible;white-space:normal;writing-mode:lr-tb" d="m 338.27734,841.54046 c 0.58817,-5.10668 0.96862,-22.66511 3.46053,-47.76686 2.89017,-29.11351 8.80445,-64.26817 3.32592,-112.0184 -0.0815,-0.71031 16.09907,-49.43011 18.48147,-86.00098 0.66189,-3.70541 6.12682,-36.53869 4.10935,-82.25751 -0.43336,-9.82037 -1.88642,-20.06664 -3.05272,-30.9349 18.86471,-31.07961 -11.34834,-69.35781 -12.54193,-72.11229 -13.38607,6.4024 -75.21854,28.14253 -80.33144,23.15495 0.83647,6.39984 7.79328,115.94444 8.81082,122.12873 2.10365,12.78537 5.55742,23.42494 7.34682,32.62077 0.038,0.19537 0.078,0.38952 0.11114,0.58402 0.84959,4.98748 1.47322,14.81104 2.75462,20.4238 4.18309,18.32272 6.88096,25.30567 7.63764,27.21176 8.0663,20.31924 14.76729,43.90236 14.64351,44.42466 -14.65047,61.82149 2.76653,96.86103 5.82691,160.44959 6.37574,-2.12547 19.54311,0.34239 19.4174,0.0927 z" id="path6064-7" sodipodi:nodetypes="csscscccssssssccc"/><path sodipodi:nodetypes="ccccc" id="path3639" d="m 226.43714,411.39001 c 35.65478,14.81043 108.78953,7.12999 124.04699,-1.19349 -0.98086,-2.37283 -1.00632,-2.28871 -1.45689,-3.1686 -58.31295,15.78964 -104.54469,8.55584 -120.51489,0.71465 -0.32556,0.70561 -0.85233,0.93932 -2.07521,3.64744 z" style="display:inline;fill-opacity:1;fill:#8aa7ff;stroke-dasharray:none;stroke-linecap:butt;stroke-linejoin:miter;stroke-miterlimit:4;stroke-opacity:1;stroke-width:0;stroke:#000000"/><path style="baseline-shift:baseline;clip-rule:nonzero;color-interpolation-filters:linearRGB;color-interpolation:sRGB;color-rendering:auto;color:#000000;direction:ltr;display:inline;enable-background:accumulate;fill-opacity:1;fill-rule:evenodd;fill:#517cd3;image-rendering:auto;isolation:auto;mix-blend-mode:normal;opacity:1;overflow:visible;shape-rendering:auto;solid-color:#000000;solid-opacity:1;stroke-dasharray:none;stroke-dashoffset:0;stroke-linecap:butt;stroke-linejoin:miter;stroke-miterlimit:4;stroke-opacity:1;stroke-width:1.67334545;stroke:none;visibility:visible;white-space:normal;writing-mode:lr-tb" d="m 267.54874,838.68262 c 7.68322,-53.38932 32.7879,-97.68944 15.84191,-150.90398 -0.44704,-1.39178 12.00437,-64.85885 5.45355,-91.96966 -0.14073,-0.58244 1.38171,-2.89277 1.33691,-3.45798 -0.11467,-1.44489 -0.35756,-2.84549 -0.53265,-4.05342 -1.59444,-11.00008 -15.39677,-127.57698 -18.80645,-148.37818 -23.71289,-13.25991 -43.84533,-26.92069 -46.98774,-26.54302 -35.44239,71.65396 -8.3994,172.96177 20.7402,251.64986 1.63965,4.42769 1.87486,14.18196 1.79576,15.64706 1.96654,5.96005 3.82199,97.39136 7.4127,158.15149 6.91548,-1.42636 8.24402,-0.666 13.74582,-0.14212 z" id="path6066-0" sodipodi:nodetypes="ccsssccscccc"/><path sodipodi:nodetypes="cscsccc" id="path3641" d="m 275.25299,462.86252 c -12.30071,-3.84341 -9.97725,-39.56452 -8.12905,-43.86741 0.10337,-0.24065 6.70466,-0.007 6.80117,-0.0386 -0.14286,-0.008 -0.28501,-0.0153 -0.42641,-0.0219 -4.0967,-0.18979 -7.561,0.22503 -9.12434,-0.44654 -1.55247,9.38892 -6.14341,45.13839 10.87863,44.37445 z" style="display:inline;fill-opacity:1;fill:#8aa7ff;stroke-dasharray:none;stroke-linecap:butt;stroke-linejoin:miter;stroke-miterlimit:4;stroke-opacity:1;stroke-width:0;stroke:#000000"/><path sodipodi:nodetypes="cccc" id="path3643" d="m 356.28203,444.8129 c -31.56327,-6.76001 -36.1698,-23.53296 -36.97785,-28.4296 -1.02422,-0.29348 -2.03709,0.77235 -2.39603,0.55362 -0.0837,1.32642 8.867,25.77488 39.37388,27.87598 z" style="display:inline;fill-opacity:1;fill:#8aa7ff;stroke-dasharray:none;stroke-linecap:butt;stroke-linejoin:miter;stroke-miterlimit:4;stroke-opacity:1;stroke-width:0;stroke:#000000"/><path sodipodi:nodetypes="cccc" id="path3645" d="m 222.23265,435.35375 c 9.31024,-1.01499 16.8449,-15.62419 16.03685,-20.52083 -1.02422,-0.29348 -0.41393,-0.14186 -0.77287,-0.36059 -0.0837,1.32642 -2.08336,14.40532 -15.26398,20.88142 z" style="display:inline;fill-opacity:1;fill:#8aa7ff;stroke-dasharray:none;stroke-linecap:butt;stroke-linejoin:miter;stroke-miterlimit:4;stroke-opacity:1;stroke-width:0;stroke:#000000"/><path d="m 329.90785,425.6821 c -15.4791,1.19068 -42.03653,26.26041 -44.60913,30.99635 10.29989,-9.14088 29.75951,-26.28541 44.60913,-30.99635 z" class="shadow" id="path3647" sodipodi:nodetypes="ccc"/><path d="m 262.16576,457.53039 c -6.81704,-9.41592 -28.83006,-31.99347 -34.93819,-34.15183 5.05404,5.44075 26.5203,25.35081 34.93819,34.15183 z" class="shadow" id="path3649" sodipodi:nodetypes="ccc"/><path sodipodi:nodetypes="cscsscc" id="path3651" class="shadow" d="m 262.98857,459.03749 c 4.57815,9.39542 7.95428,8.94718 11.45233,8.01034 0.29456,-0.0789 5.02218,4.77996 9.26343,-8.71666 -1.38475,8.70911 -4.94655,11.61521 -9.3291,9.47151 -0.0226,-0.0111 -2.82256,1.04466 -4.71233,0.003 -2.95847,-1.63089 -6.486,-5.556 -6.67433,-8.7681 z"/><path d="M 306.25237,658.37575 C 284.05575,618.9078 274.30467,520.03041 273.49983,475.7992 c 3.81661,43.09419 14.7887,152.91589 32.75254,182.57655 z" class="shadow" id="path6068-9" sodipodi:nodetypes="ccc"/><path sodipodi:nodetypes="ccccc" id="path3588-2" d="m 253.11752,838.8044 c 1.86438,-1.14318 12.01986,0.11289 15.02873,-0.0882 0.29217,-1.87322 0.30322,-2.60124 0.3712,-3.0857 -4.65635,-1.89222 -14.42678,-1.48324 -15.55143,-0.80312 -0.005,0.40677 0.19805,1.98204 0.1515,3.97694 z" style="display:inline;fill-opacity:1;fill:#8aa7ff;stroke-dasharray:none;stroke-linecap:butt;stroke-linejoin:miter;stroke-miterlimit:4;stroke-opacity:1;stroke-width:0;stroke:#000000"/><path sodipodi:nodetypes="ccccc" id="path3588-1-5" d="m 338.55822,842.45175 c -2.44297,-1.46673 -16.15649,-0.87894 -20.18841,-1.36185 -0.29084,-2.17162 -0.26615,-3.00701 -0.33118,-3.56802 6.35923,-1.77826 19.46496,-0.48985 20.93914,0.38406 -0.0161,0.46662 -0.37375,2.25524 -0.41955,4.54572 z" style="display:inline;fill-opacity:1;fill:#8aa7ff;stroke-dasharray:none;stroke-linecap:butt;stroke-linejoin:miter;stroke-miterlimit:4;stroke-opacity:1;stroke-width:0;stroke:#000000"/></svg>
