<svg viewBox="0 0 560 1000"><path d="m 283.66521,456.38067 c -1.54841,0.73859 -1.78928,15.78672 -9.24659,11.14886 -5.5459,3.1603 -10.12915,-4.94173 -10.42429,-8.4126 -0.25114,-2.95343 3.37748,-7.20053 3.87403,-6.51846 2.14579,-0.003 16.30971,2.85987 15.79685,3.7822 z" class="shadow" id="path3393" sodipodi:nodetypes="ccscc" inkscape:label="#PussyshadowN"/><path d="m 274.36595,467.58332 c -3.81452,2.31718 -9.64064,-2.27902 -10.8644,-11.68664 5.95334,-21.67633 25.49385,-8.31185 20.23612,0.35499 -2.87984,4.74713 -3.52005,14.37508 -9.37172,11.33165 z" class="skin torso" id="path3395" sodipodi:nodetypes="ccsc" inkscape:label="#PussyN"/><path sodipodi:nodetypes="ccsssssscsc" id="path3397" d="m 348.04007,404.56705 c 0.8928,1.03783 2.36114,4.19485 2.36114,4.19485 -8.19048,4.90102 -37.06099,18.24769 -49.49598,28.75086 -4.31136,3.64157 -13.47661,8.29154 -16.37051,16.44054 -2.5916,7.29773 -3.38661,17.01008 -9.75403,14.37033 -0.12708,-0.0527 -0.25389,-0.22936 -0.38798,-0.17253 -3.64553,1.54503 -9.35333,-0.74065 -11.22863,-12.26551 -2.95293,-18.14755 -12.84146,-17.24873 -13.71165,-17.80621 -12.60056,-8.07247 -21.3889,-19.81687 -24.85362,-25.1259 0.0593,-0.70684 4.38552,-10.43066 4.38552,-10.43066 30.95156,34.29024 95.73566,8.25021 119.05574,2.04423 z" style="display:inline;fill-opacity:1;fill-rule:evenodd;fill:#000000;opacity:1;stroke-dasharray:none;stroke-linecap:butt;stroke-linejoin:miter;stroke-miterlimit:4;stroke-opacity:1;stroke-width:0;stroke:#000000"/><path sodipodi:nodetypes="ccssssssscsc" id="path3399" d="m 348.09137,404.41002 c 0.8928,1.03783 7.65296,10.61427 7.65296,10.61427 -8.19048,4.90102 -42.72781,14.82827 -55.1628,25.33144 -4.31136,3.64157 -11.26256,9.46273 -16.37051,16.44054 -0.27428,0.37469 -0.68811,0.67278 -0.81935,1.10672 -3.57923,11.83428 -8.32513,9.8537 -8.89431,9.63462 -0.17013,-0.0655 -6.10005,2.75363 -10.61356,-7.80676 -0.19489,-0.456 -0.68412,-0.47689 -1.06552,-0.9139 -12.08963,-13.85259 -12.81936,-17.33712 -13.68955,-17.8946 -12.60056,-8.07247 -21.8889,-21.94187 -25.35362,-27.2509 0.0593,-0.70684 5.26052,-10.68066 5.26052,-10.68066 29.7895,36.10978 96.86066,8.37521 119.05574,1.41923 z" style="display:inline;fill-opacity:1;fill-rule:evenodd;fill:#333333;opacity:1;stroke-dasharray:none;stroke-linecap:butt;stroke-linejoin:miter;stroke-miterlimit:4;stroke-opacity:1;stroke-width:0;stroke:#000000"/><path sodipodi:nodetypes="ccccc" id="path3344-1-5-5-2-7" d="m 336.64967,423.6121 c 0.60089,-0.41225 1.13199,-0.59213 2.54356,-1.3377 -1.0628,-4.12041 -4.37123,-12.28078 -5.0678,-13.31985 -0.7862,0.0327 -1.83855,0.6871 -1.83855,0.6871 2.88662,6.66143 3.12331,7.97246 4.36279,13.97045 z" style="display:inline;fill-opacity:1;fill-rule:evenodd;fill:#ffffff;opacity:1;stroke-dasharray:none;stroke-linecap:butt;stroke-linejoin:miter;stroke-miterlimit:4;stroke-opacity:1;stroke-width:0;stroke:#000000"/></svg>
