<svg viewBox="0 0 560 1000"><path id="path3795" d="m 271.54026,376.44844 c 0.0782,1.21363 -0.39233,3.20481 -1.35826,3.28497 -0.96592,0.0802 -1.48021,-1.74966 -1.55841,-2.96328 -0.0782,-1.21363 0.42001,-3.09486 1.38594,-3.17502 0.96593,-0.0802 1.45253,1.6397 1.53073,2.85333 z" class="areola" sodipodi:nodetypes="scscs"/><path id="path3797" d="m 271.54026,376.44844 c 0.0782,1.21363 -0.39233,3.20481 -1.35826,3.28497 -0.96592,0.0802 -1.48021,-1.74966 -1.55841,-2.96328 -0.0782,-1.21363 0.42001,-3.09486 1.38594,-3.17502 0.96593,-0.0802 1.45253,1.6397 1.53073,2.85333 z" class="areola" sodipodi:nodetypes="scscs"/><path style="display:inline;fill-opacity:1;fill-rule:evenodd;fill:#000000;opacity:1;stroke-dasharray:none;stroke-linecap:butt;stroke-linejoin:miter;stroke-miterlimit:4;stroke-opacity:1;stroke-width:0;stroke:#000000" d="m 372.04335,267.10594 c 1.53464,47.47488 -5.75563,72.69993 -6.4505,80.05484 1.95915,5.74033 20.20997,49.09836 -1.06139,70.26648 -15.07792,7.92379 -52.69892,16.30119 -85.65372,15.75745 -1.08977,-0.018 -2.54944,-9.01788 -3.62802,-9.05012 -0.96198,-0.0288 -1.54412,8.91163 -2.49572,8.87129 -23.13621,-0.98072 -46.1797,-7.89336 -52.73371,-17.41982 -3.61419,-35.95451 -7.58581,-35.87317 13.69091,-95.47977 -1.87782,-10.29261 -0.008,-20.34715 -0.58476,-28.39016 -5.66195,-68.91381 28.97148,-80.02705 53.71727,-91.0071 9.24713,11.38115 25.18214,3.12903 31.26177,-2.13928 0.12489,7.20108 48.79561,29.49512 53.93787,68.53619 z" id="path3799" sodipodi:nodetypes="cccssscccccc"/><path style="display:inline;fill-opacity:1;fill-rule:evenodd;fill:#ececec;opacity:1;stroke-dasharray:none;stroke-linecap:butt;stroke-linejoin:miter;stroke-miterlimit:4;stroke-opacity:1;stroke-width:0;stroke:#000000" d="m 364.20126,346.98823 c 7.99984,21.71645 15.59566,51.12445 0.32201,69.15963 -24.61713,10.70423 -51.94719,14.99138 -85.03902,16.1418 -0.97712,0.034 -3.40779,-9.6656 -4.37457,-9.65384 -0.712,0.009 -2.21651,9.5571 -2.92232,9.55321 -17.83513,-0.0985 -46.21259,-8.62195 -50.93993,-16.35889 -1.11584,-8.51344 -2.02338,-17.07071 -2.43381,-24.27747 -0.92249,-17.23048 2.89987,-36.7814 16.23466,-71.46024 -4.73041,-42.55301 -11.17267,-105.78477 47.05725,-117.67313 3.12384,-2.05334 5.3098,-5.95602 6.93885,-10.38042 1.65753,5.04021 26.21695,0.68309 26.60293,0.54975 2.99455,5.49381 1.12395,6.57536 6.71301,7.72308 51.82498,10.67434 54.83494,38.37524 49.02452,68.26307 0.84914,29.59697 -2.64203,55.39382 -7.18358,78.41345 z" id="path3801" sodipodi:nodetypes="ccsssccccccccc"/><path sodipodi:nodetypes="csscc" id="path3803" d="m 288.65067,205.94096 c -0.008,-0.17 5.77348,-12.05234 5.84504,-12.26958 0,0 -5.0441,-2.25985 -5.19628,-2.04286 -0.92463,1.3184 -2.65827,4.70639 -4.15936,6.60625 0.1059,0.25324 3.5106,7.70619 3.5106,7.70619 z" style="display:inline;fill-opacity:1;fill:#000000;opacity:1;stroke-dasharray:none;stroke-linecap:butt;stroke-linejoin:miter;stroke-miterlimit:4;stroke-opacity:1;stroke-width:0;stroke:#000000"/><path sodipodi:nodetypes="csscc" id="path3805" d="m 288.66108,203.74098 c -0.008,-0.16669 5.35844,-10.06772 5.42795,-10.28074 0,0 -4.89991,-2.21585 -5.04775,-2.00309 -0.8982,1.29274 -2.58228,4.61477 -4.04047,6.47765 0.10291,0.24831 3.66027,5.80618 3.66027,5.80618 z" style="display:inline;fill-opacity:1;fill:#ececec;opacity:1;stroke-dasharray:none;stroke-linecap:butt;stroke-linejoin:miter;stroke-miterlimit:4;stroke-opacity:1;stroke-width:0;stroke:#000000"/><path sodipodi:nodetypes="csscc" id="path3807" d="m 303.24206,205.47603 c 0.007,-0.15238 -3.99545,-11.03492 -4.06234,-11.22965 0,0 16.62296,-2.66894 16.76522,-2.47444 0.86438,1.18176 2.6413,5.37486 3.07583,6.04657 -0.099,0.227 -15.77871,7.65752 -15.77871,7.65752 z" style="display:inline;fill-opacity:1;fill:#000000;opacity:1;stroke-dasharray:none;stroke-linecap:butt;stroke-linejoin:miter;stroke-miterlimit:4;stroke-opacity:1;stroke-width:0;stroke:#000000"/><path sodipodi:nodetypes="csscc" id="path3809" d="m 303.64915,204.60393 c 0.007,-0.14856 -3.93866,-10.27774 -4.00456,-10.46759 0,0 15.63782,-2.64512 15.77799,-2.4555 0.85164,1.15214 2.60238,5.24014 3.03051,5.89501 -0.0975,0.22131 -14.80394,7.02808 -14.80394,7.02808 z" style="display:inline;fill-opacity:1;fill:#ececec;opacity:1;stroke-dasharray:none;stroke-linecap:butt;stroke-linejoin:miter;stroke-miterlimit:4;stroke-opacity:1;stroke-width:0;stroke:#000000"/><path sodipodi:nodetypes="csccccscc" id="path3811" d="m 273.98684,423.54376 c -0.0592,-0.48233 -0.33652,-4.64526 -0.38989,-5.15269 -2.98361,-28.36794 3.23892,-96.148 23.42151,-224.06832 l 0.80611,0.10099 c 0.43704,13.20785 -29.39797,178.30584 -22.0674,223.80494 0.15338,0.60365 0.46055,5.66003 1.3341,8.06271 -0.31043,0.0803 -0.92772,-1.6917 -1.6382,-2.39668 -0.61537,-0.6106 -1.21223,2.02081 -1.33365,1.81459 z" style="display:inline;fill-opacity:1;fill:#000000;opacity:1;stroke-dasharray:none;stroke-linecap:butt;stroke-linejoin:miter;stroke-miterlimit:4;stroke-opacity:1;stroke-width:0;stroke:#000000"/><path id="path3813" d="m 300.87394,220.43307 a 2.7544847,2.8454499 0 0 1 -2.75448,2.84545 2.7544847,2.8454499 0 0 1 -2.75449,-2.84545 2.7544847,2.8454499 0 0 1 2.75449,-2.84546 2.7544847,2.8454499 0 0 1 2.75448,2.84546 z" style="display:inline;fill-opacity:1;fill-rule:nonzero;fill:#808080;opacity:1;stroke-dasharray:none;stroke-linecap:butt;stroke-linejoin:round;stroke-miterlimit:4;stroke-opacity:1;stroke-width:0;stroke:#000000"/><path id="path3815" d="m 297.69369,242.50598 a 2.7544847,2.8454499 0 0 1 -2.75448,2.84545 2.7544847,2.8454499 0 0 1 -2.75449,-2.84545 2.7544847,2.8454499 0 0 1 2.75449,-2.84546 2.7544847,2.8454499 0 0 1 2.75448,2.84546 z" style="display:inline;fill-opacity:1;fill-rule:nonzero;fill:#808080;opacity:1;stroke-dasharray:none;stroke-linecap:butt;stroke-linejoin:round;stroke-miterlimit:4;stroke-opacity:1;stroke-width:0;stroke:#000000"/><path id="path3817" d="m 294.36894,266.99921 a 2.7544847,2.8454499 0 0 1 -2.75448,2.84545 2.7544847,2.8454499 0 0 1 -2.75449,-2.84545 2.7544847,2.8454499 0 0 1 2.75449,-2.84546 2.7544847,2.8454499 0 0 1 2.75448,2.84546 z" style="display:inline;fill-opacity:1;fill-rule:nonzero;fill:#808080;opacity:1;stroke-dasharray:none;stroke-linecap:butt;stroke-linejoin:round;stroke-miterlimit:4;stroke-opacity:1;stroke-width:0;stroke:#000000"/><path id="path3819" d="m 291.12262,291.4949 a 2.7544847,2.8454499 0 0 1 -2.75448,2.84545 2.7544847,2.8454499 0 0 1 -2.75449,-2.84545 2.7544847,2.8454499 0 0 1 2.75449,-2.84546 2.7544847,2.8454499 0 0 1 2.75448,2.84546 z" style="display:inline;fill-opacity:1;fill-rule:nonzero;fill:#808080;opacity:1;stroke-dasharray:none;stroke-linecap:butt;stroke-linejoin:round;stroke-miterlimit:4;stroke-opacity:1;stroke-width:0;stroke:#000000"/><path id="path3821" d="m 288.19248,313.4826 a 2.7544847,2.8454499 0 0 1 -2.75448,2.84545 2.7544847,2.8454499 0 0 1 -2.75449,-2.84545 2.7544847,2.8454499 0 0 1 2.75449,-2.84546 2.7544847,2.8454499 0 0 1 2.75448,2.84546 z" style="display:inline;fill-opacity:1;fill-rule:nonzero;fill:#808080;opacity:1;stroke-dasharray:none;stroke-linecap:butt;stroke-linejoin:round;stroke-miterlimit:4;stroke-opacity:1;stroke-width:0;stroke:#000000"/><path id="path3823" d="m 285.69616,337.78711 a 2.7544847,2.8454499 0 0 1 -2.75448,2.84545 2.7544847,2.8454499 0 0 1 -2.75449,-2.84545 2.7544847,2.8454499 0 0 1 2.75449,-2.84546 2.7544847,2.8454499 0 0 1 2.75448,2.84546 z" style="display:inline;fill-opacity:1;fill-rule:nonzero;fill:#808080;opacity:1;stroke-dasharray:none;stroke-linecap:butt;stroke-linejoin:round;stroke-miterlimit:4;stroke-opacity:1;stroke-width:0;stroke:#000000"/><path id="path3825" d="m 283.59261,360.44517 a 2.7544847,2.8454499 0 0 1 -2.75448,2.84545 2.7544847,2.8454499 0 0 1 -2.75449,-2.84545 2.7544847,2.8454499 0 0 1 2.75449,-2.84546 2.7544847,2.8454499 0 0 1 2.75448,2.84546 z" style="display:inline;fill-opacity:1;fill-rule:nonzero;fill:#808080;opacity:1;stroke-dasharray:none;stroke-linecap:butt;stroke-linejoin:round;stroke-miterlimit:4;stroke-opacity:1;stroke-width:0;stroke:#000000"/><path id="path3827" d="m 282.01878,380.39507 a 2.7544847,2.8454499 0 0 1 -2.75448,2.84545 2.7544847,2.8454499 0 0 1 -2.75449,-2.84545 2.7544847,2.8454499 0 0 1 2.75449,-2.84546 2.7544847,2.8454499 0 0 1 2.75448,2.84546 z" style="display:inline;fill-opacity:1;fill-rule:nonzero;fill:#808080;opacity:1;stroke-dasharray:none;stroke-linecap:butt;stroke-linejoin:round;stroke-miterlimit:4;stroke-opacity:1;stroke-width:0;stroke:#000000"/><path id="path3829" d="m 281.0045,400.49998 a 2.7544847,2.8454499 0 0 1 -2.75448,2.84545 2.7544847,2.8454499 0 0 1 -2.75449,-2.84545 2.7544847,2.8454499 0 0 1 2.75449,-2.84546 2.7544847,2.8454499 0 0 1 2.75448,2.84546 z" style="display:inline;fill-opacity:1;fill-rule:nonzero;fill:#808080;opacity:1;stroke-dasharray:none;stroke-linecap:butt;stroke-linejoin:round;stroke-miterlimit:4;stroke-opacity:1;stroke-width:0;stroke:#000000"/></svg>
