<svg viewBox="0 0 560 1000"><path inkscape:label="#PussyshadowN" sodipodi:nodetypes="ccscc" id="path2772" class="shadow" d="m 283.66521,456.38067 c -1.54841,0.73859 -1.78928,15.78672 -9.24659,11.14886 -5.5459,3.1603 -10.12915,-4.94173 -10.42429,-8.4126 -0.25114,-2.95343 3.37748,-7.20053 3.87403,-6.51846 2.14579,-0.003 16.30971,2.85987 15.79685,3.7822 z"/><path inkscape:label="#PussyN" sodipodi:nodetypes="ccsc" id="path2774" class="skin torso" d="m 274.36595,467.58332 c -3.81452,2.31718 -9.64064,-2.27902 -10.8644,-11.68664 5.95334,-21.67633 25.49385,-8.31185 20.23612,0.35499 -2.87984,4.74713 -3.52005,14.37508 -9.37172,11.33165 z"/><path sodipodi:nodetypes="ccsssssscsc" id="path2776" d="m 368.67614,407.53 c 0.8928,1.03783 -5.37284,9.27719 -5.37284,9.27719 -8.19048,4.90102 -49.96568,10.20435 -62.40067,20.70752 -4.31136,3.64157 -13.47661,8.29154 -16.37051,16.44054 -2.5916,7.29773 -3.32032,16.98798 -9.68774,14.34823 -0.12708,-0.0527 -0.25389,-0.22936 -0.38798,-0.17253 -3.64553,1.54503 -9.41962,-0.71855 -11.29492,-12.24341 -2.95293,-18.14755 -12.84146,-17.24873 -13.71165,-17.80621 -12.60056,-8.07247 -21.82641,-18.94187 -25.29113,-24.2509 -2.6282,-5.08184 -3.01938,-9.25626 -3.01938,-9.25626 30.95157,34.29024 124.21674,9.16181 147.53682,2.95583 z" style="display:inline;fill-opacity:1;fill-rule:evenodd;fill:#000000;opacity:1;stroke-dasharray:none;stroke-linecap:butt;stroke-linejoin:miter;stroke-miterlimit:4;stroke-opacity:1;stroke-width:0;stroke:#000000"/><path sodipodi:nodetypes="cccsssccsc" id="path2778" d="m 367.93194,408.743 c 0.8928,1.03783 -4.0572,8.30164 -4.0572,8.30164 -26.45516,18.17615 -63.03106,39.13132 -79.66632,39.75358 -0.27428,0.37469 -0.68811,0.67278 -0.81935,1.10672 -3.57923,11.83428 -8.32513,9.8537 -8.89431,9.63462 -0.17013,-0.0655 -5.98956,2.88621 -10.50307,-7.67418 -0.19489,-0.456 -0.68412,-0.47689 -1.06552,-0.9139 -16.27203,-7.95813 -36.45881,-24.8256 -39.15367,-45.27808 0.0593,-0.70684 -3.12543,-9.00182 -3.12543,-9.00182 29.78951,36.10978 125.08979,11.0274 147.28487,4.07142 z" style="display:inline;fill-opacity:1;fill-rule:evenodd;fill:#333333;opacity:1;stroke-dasharray:none;stroke-linecap:butt;stroke-linejoin:miter;stroke-miterlimit:4;stroke-opacity:1;stroke-width:0;stroke:#000000"/><path d="m 329.90806,425.67038 c -15.4791,1.19068 -42.03653,26.26041 -44.60913,30.99635 10.29989,-9.14088 29.75951,-26.28541 44.60913,-30.99635 z" class="shadow" id="path2780" sodipodi:nodetypes="ccc"/><path d="m 262.16597,457.51867 c -6.81704,-9.41592 -28.83006,-31.99347 -34.93819,-34.15183 5.05404,5.44075 26.5203,25.35081 34.93819,34.15183 z" class="shadow" id="path2782" sodipodi:nodetypes="ccc"/><path style="display:inline;fill-opacity:1;fill-rule:evenodd;fill:#ffffff;opacity:1;stroke-dasharray:none;stroke-linecap:butt;stroke-linejoin:miter;stroke-miterlimit:4;stroke-opacity:1;stroke-width:0;stroke:#000000" d="m 338.28443,433.89335 c 0.52476,-0.49047 0.98857,-0.70449 2.2213,-1.59153 -0.92815,-4.90225 -3.59867,-14.29854 -4.20699,-15.53477 -0.68659,0.039 -1.82436,0.50498 -1.82436,0.50498 2.5209,7.92543 2.7276,9.48522 3.81005,16.62132 z" id="path2784" sodipodi:nodetypes="ccccc"/><path sodipodi:nodetypes="ccccccccc" id="path3251-2-5-2-8-1-0" d="m 370.40947,252.58602 c 0.23724,0.8312 4.22106,29.07672 0.77209,49.07884 -33.60788,-4.288 -110.48877,-12.88893 -138.66209,-6.26748 -1.4156,-20.50388 6.27544,-46.75787 7.29863,-49.46773 17.34142,-11.82315 26.69725,-27.37566 36.91736,-40.29646 -0.20578,-0.10769 0.98637,-0.32991 2.81284,-0.93373 -3.68896,22.23095 44.18084,11.81257 51.29891,1.13282 2.65591,0.76603 5.77774,1.30178 5.77774,1.30178 -2.50818,38.73816 14.52142,35.96141 33.78452,45.45196 z" style="display:inline;fill-opacity:1;fill-rule:evenodd;fill:#000000;opacity:1;stroke-dasharray:none;stroke-linecap:butt;stroke-linejoin:miter;stroke-miterlimit:4;stroke-opacity:1;stroke-width:0;stroke:#000000"/><path sodipodi:nodetypes="ccccccccc" id="path3253-6-9-5-4-0-4" d="m 370.43313,252.31519 c -0.23212,1.79731 2.89394,28.05038 0.43426,48.79626 -48.30238,-7.27876 -116.35658,-11.36274 -137.36031,-6.97666 -1.0832,-17.06464 6.44727,-47.97921 6.44727,-47.97921 17.76843,-9.12056 26.17066,-26.39457 36.76079,-40.57226 0.84544,-0.17546 1.70483,-0.38601 2.56536,-0.63893 -4.82898,22.98057 45.03234,14.37734 52.03839,1.01371 1.9144,0.66913 3.96656,0.65204 5.476,1.11851 -2.5296,33.39255 5.80802,36.93935 33.63824,45.23858 z" style="display:inline;fill-opacity:1;fill-rule:evenodd;fill:#333333;opacity:1;stroke-dasharray:none;stroke-linecap:butt;stroke-linejoin:miter;stroke-miterlimit:4;stroke-opacity:1;stroke-width:0;stroke:#000000"/></svg>
