<svg viewBox="0 0 560 1000"><path d="m 267.23463,450.73798 3.11592,-0.15136 c 0.93021,-6.40662 3.95894,-11.50631 6.66908,-16.80443 -5.58516,-0.0849 -11.59094,-0.67726 -16.5428,0.002 1.54591,5.70209 4.03226,11.33653 6.7578,16.95379 z" id="path5158-6" sodipodi:nodetypes="ccccc" class="pubic_hair"/><path d="m 363.96648,268.10163 c 3.47711,-4.86808 5.51409,-20.47518 3.32753,-24.2077 -2.60035,0.69044 -1.97503,1.38571 -4.4446,-0.21104 0.83858,8.14327 2.00713,17.8126 1.11707,24.41874 z" id="path5158-3-0" sodipodi:nodetypes="cccc" class="underarm_hair"/><path id="path6846" d="m 236.73004,270.99741 c -0.12551,1.89685 -0.19342,3.79183 -0.202,5.67824 -1.3755,20.25213 5.80721,38.32609 6.31603,57.05357 2.27221,32.09531 -8.01014,53.77861 -17.9994,79.64726 16.36196,-0.34408 93.98705,-1.86544 126.96167,-1.88004 -37.53734,-61.77465 -9.57392,-54.14103 6.26462,-95.80632 3.6218,-8.59036 8.38281,-20.72036 8.78952,-34.11918 -20.00731,-23.65544 -37.44304,-58.20381 -37.48946,-76.57605 -5.0856,-1.53654 -9.2662,-4.20037 -11.97165,-6.99799 -0.44453,1.7818 -1.99968,15.88708 -2.14306,17.33056 -12.09829,5.75915 -27.87745,3.2969 -33.51216,-1.00011 0.88357,-3.08367 2.87976,-7.82151 6.26875,-14.36009 -2.95309,1.88608 -8.68497,4.12374 -12.65394,6.03362 -16.12454,21.61213 -36.49699,49.48545 -38.62892,64.99653 z" sodipodi:nodetypes="cccccccccccccc" style="display:inline;fill-opacity:1;fill:#000000;opacity:1"/><path style="display:inline;fill-opacity:1;fill-rule:evenodd;fill:#0b1728;opacity:1;stroke-dasharray:none;stroke-linecap:butt;stroke-linejoin:miter;stroke-miterlimit:4;stroke-opacity:1;stroke-width:0;stroke:#000000" d="m 360.51873,307.70681 c -7.02713,18.78095 -15.92872,31.16969 -16.93404,32.37947 -27.84284,31.09516 2.21481,55.19846 8.46955,72.69711 -40.10653,11.44456 -64.97545,42.96388 -65.74712,45.30165 -0.78385,1.88787 -4.7912,9.82211 -7.2881,11.60252 -1.21712,0.86786 -4.56426,-0.37235 -4.8162,-0.39645 -0.29397,-0.0276 -0.77535,0.50225 -2.98817,-0.0701 -5.65546,-1.4629 -10.22974,-5.40448 -10.80185,-7.35518 -18.43111,-29.49711 -30.68812,-46.0732 -35.41353,-47.26215 7.94787,-20.31139 14.53739,-34.53836 15.52113,-39.64488 2.40743,-12.49684 4.56181,-31.04119 4.51599,-33.91997 -0.31392,-19.72394 -5.53672,-33.8742 -6.42575,-46.41156 -5.84752,-48.51279 18.32727,-82.76734 38.32548,-88.64617 0.49229,-0.51848 5.43756,-2.25669 9.91452,-4.65903 1.01736,-0.38611 4.59904,-8.26172 5.00699,-8.02432 6.65758,3.87428 22.60885,-0.60503 22.93817,0.0937 0.97035,2.05878 1.84469,4.05751 2.988,5.79136 1.48672,1.12706 18.23182,7.00546 18.7637,8.34782 0,0 24.76225,-4.8947 34.24132,27.54218 0.0476,0.44543 -0.20742,8.29506 -0.0211,16.76295 0.11811,5.36806 -0.97158,11.24597 -1.56133,15.83868 -0.58975,4.59271 -2.44875,21.69359 -8.68765,40.03237 z" id="path6848" sodipodi:nodetypes="ccccsssccsscccsscccscsc"/><path style="display:inline;fill-opacity:1;fill:#0b1728;stroke-dasharray:none;stroke-linecap:butt;stroke-linejoin:miter;stroke-miterlimit:4;stroke-opacity:1;stroke-width:0;stroke:#000000" d="m 223.46081,414.21749 c 13.0124,5.20002 31.84447,58.44933 51.86626,56.74714 13.4605,-1.86072 15.36894,-33.20485 77.69951,-58.44767 -5.52595,-11.9083 -11.23731,-16.28943 -17.77351,-27.61382 -45.102,11.9464 -91.4758,7.08435 -96.81614,-2.31943 0,0 -9.84313,19.91613 -14.97612,31.63378 z" id="path6850" sodipodi:nodetypes="ccccsc"/><path style="display:inline;fill-opacity:1;fill:#000000;opacity:1;stroke-dasharray:none;stroke-linecap:butt;stroke-linejoin:miter;stroke-miterlimit:4;stroke-opacity:1;stroke-width:0;stroke:#000000" d="m 257.42933,436.58157 c 0.5575,-1.06599 6.5423,-47.48865 6.58488,-47.65285 0,0 -20.89461,1.52359 -26.93967,-6.38379 -0.14865,-0.19445 -16.61224,37.29997 -16.54562,37.37985 0.063,0.19141 36.90041,16.65679 36.90041,16.65679 z" id="path6852" sodipodi:nodetypes="csscc"/><path style="display:inline;fill-opacity:1;fill:#000000;opacity:1;stroke-dasharray:none;stroke-linecap:butt;stroke-linejoin:miter;stroke-miterlimit:4;stroke-opacity:1;stroke-width:0;stroke:#000000" d="m 256.33979,391.23466 c -0.0664,0.0413 -1.39182,-0.0733 -1.58546,-0.10885 -3.40999,-0.62801 19.2566,-160.50788 24.25915,-160.55375 0,0 12.26767,-11.59694 15.1958,-14.84809 -11.66224,14.89533 -30.22666,147.63281 -30.17154,172.72911 -0.0426,1.28175 -9.4e-4,2.39529 -0.0998,2.64799 z" id="path6854" sodipodi:nodetypes="csscccc"/><path style="display:inline;fill-opacity:1;fill:#0b1728;opacity:1;stroke-dasharray:none;stroke-linecap:butt;stroke-linejoin:miter;stroke-miterlimit:4;stroke-opacity:1;stroke-width:0;stroke:#000000" d="m 256.82347,435.83166 c -0.005,-0.12477 6.25247,-46.70456 6.29446,-46.86401 0,0 -17.22784,-4.68182 -24.69142,-7.54363 -0.2232,-0.0856 -17.48458,38.21468 -17.41888,38.29226 0.0621,0.18588 35.81584,16.11538 35.81584,16.11538 z" id="path6856" sodipodi:nodetypes="csscc"/><path style="display:inline;fill-opacity:1;fill:#0b1728;opacity:1;stroke-dasharray:none;stroke-linecap:butt;stroke-linejoin:miter;stroke-miterlimit:4;stroke-opacity:1;stroke-width:0;stroke:#000000" d="m 255.95357,390.4496 c -0.0664,0.0413 -1.76682,-0.0468 -1.96046,-0.0825 -3.40999,-0.62801 19.2566,-160.40253 24.25915,-160.4484 0,0 14.23398,-13.51852 15.68248,-14.44775 -15.56688,24.4846 -34.69807,173.01647 -30.414,174.96778 z" id="path6858" sodipodi:nodetypes="cssccc"/><path style="display:inline;fill-opacity:1;fill:#000000;opacity:1;stroke-dasharray:none;stroke-linecap:butt;stroke-linejoin:miter;stroke-miterlimit:4;stroke-opacity:1;stroke-width:0;stroke:#000000" d="m 258.89163,437.11081 c 0.007,-0.14856 4.42434,-52.00177 4.3621,-52.19162 0,0 53.30527,5.43026 72.67269,-0.74385 0.29791,-0.095 18.76588,29.93177 18.6685,30.02414 -0.0921,0.22131 -95.70329,22.91133 -95.70329,22.91133 z" id="path6860" sodipodi:nodetypes="csscc"/><path style="display:inline;fill-opacity:1;fill:#0b1728;opacity:1;stroke-dasharray:none;stroke-linecap:butt;stroke-linejoin:miter;stroke-miterlimit:4;stroke-opacity:1;stroke-width:0;stroke:#000000" d="m 260.02434,435.69863 c 0.007,-0.14856 4.18979,-50.58257 4.12661,-50.77211 -0.29391,-0.88173 49.59496,-1.68844 71.0634,-1.55949 0.31268,0.002 19.18821,29.78532 19.09083,29.87769 -0.0921,0.22131 -94.28084,22.45391 -94.28084,22.45391 z" id="path6862" sodipodi:nodetypes="csscc"/><path id="path6864" d="m 288.03821,262.88906 a 2.8059697,3.1566737 0 0 1 -2.80597,3.15668 2.8059697,3.1566737 0 0 1 -2.80597,-3.15668 2.8059697,3.1566737 0 0 1 2.80597,-3.15668 2.8059697,3.1566737 0 0 1 2.80597,3.15668 z" style="display:inline;fill-opacity:1;fill-rule:nonzero;fill:#999999;opacity:1;stroke-dasharray:none;stroke-linecap:butt;stroke-linejoin:round;stroke-miterlimit:4;stroke-opacity:1;stroke-width:0;stroke:#000000"/><path id="path6868" d="m 282.89194,297.67418 a 2.8059697,3.1566737 0 0 1 -2.80597,3.15667 2.8059697,3.1566737 0 0 1 -2.80597,-3.15667 2.8059697,3.1566737 0 0 1 2.80597,-3.15668 2.8059697,3.1566737 0 0 1 2.80597,3.15668 z" style="display:inline;fill-opacity:1;fill-rule:nonzero;fill:#999999;opacity:1;stroke-dasharray:none;stroke-linecap:butt;stroke-linejoin:round;stroke-miterlimit:4;stroke-opacity:1;stroke-width:0;stroke:#000000"/><path d="m 329.87921,425.70416 c -15.4791,1.19068 -42.03653,26.26041 -44.60913,30.99635 10.29989,-9.14088 29.75951,-26.28541 44.60913,-30.99635 z" class="shadow" id="path6870" sodipodi:nodetypes="ccc"/><path d="m 262.13712,457.55245 c -6.81704,-9.41592 -28.83006,-31.99347 -34.93819,-34.15183 5.05404,5.44075 26.5203,25.35081 34.93819,34.15183 z" class="shadow" id="path6872" sodipodi:nodetypes="ccc"/><path d="m 329.8875,425.70175 c -15.4791,1.19068 -42.03653,26.26041 -44.60913,30.99635 10.29989,-9.14088 29.75951,-26.28541 44.60913,-30.99635 z" class="shadow" id="path6874" sodipodi:nodetypes="ccc"/><path d="m 262.14541,457.55004 c -6.81704,-9.41592 -28.83006,-31.99347 -34.93819,-34.15183 5.05404,5.44075 26.5203,25.35081 34.93819,34.15183 z" class="shadow" id="path6876" sodipodi:nodetypes="ccc"/><path id="path6890" d="m 296.15903,227.39313 a 2.8059697,3.1566737 0 0 1 -2.80597,3.15668 2.8059697,3.1566737 0 0 1 -2.80597,-3.15668 2.8059697,3.1566737 0 0 1 2.80597,-3.15668 2.8059697,3.1566737 0 0 1 2.80597,3.15668 z" style="display:inline;fill-opacity:1;fill-rule:nonzero;fill:#999999;opacity:1;stroke-dasharray:none;stroke-linecap:butt;stroke-linejoin:round;stroke-miterlimit:4;stroke-opacity:1;stroke-width:0;stroke:#000000"/><path id="path6892" d="m 277.43213,332.06503 a 2.8059697,3.1566737 0 0 1 -2.80597,3.15668 2.8059697,3.1566737 0 0 1 -2.80597,-3.15668 2.8059697,3.1566737 0 0 1 2.80597,-3.15668 2.8059697,3.1566737 0 0 1 2.80597,3.15668 z" style="display:inline;fill-opacity:1;fill-rule:nonzero;fill:#999999;opacity:1;stroke-dasharray:none;stroke-linecap:butt;stroke-linejoin:round;stroke-miterlimit:4;stroke-opacity:1;stroke-width:0;stroke:#000000"/><path style="display:inline;fill-opacity:1;fill:#000000;opacity:1;stroke-dasharray:none;stroke-linecap:butt;stroke-linejoin:miter;stroke-miterlimit:4;stroke-opacity:1;stroke-width:0;stroke:#000000" d="m 243.58167,352.74416 c 0.54144,-4.31831 0.3018,-15.85966 -0.063,-16.05284 0,0 25.69312,16.81349 100.59378,3.41603 0.44589,-0.0798 -9.68091,15.65771 -10.30358,15.76025 -14.57264,6.85213 -79.1531,10.13101 -90.22723,-3.12344 z" id="path6894" sodipodi:nodetypes="cssccc"/><path style="display:inline;fill-opacity:1;fill:#1a1a1a;opacity:1;stroke-dasharray:none;stroke-linecap:butt;stroke-linejoin:miter;stroke-miterlimit:4;stroke-opacity:1;stroke-width:0;stroke:#000000" d="m 243.58167,352.56531 c 0.54144,-3.88977 0.3018,-14.28577 -0.063,-14.45978 0,0 24.25562,15.20741 99.15628,3.13949 0.44589,-0.0719 -8.24341,14.08525 -8.86608,14.17762 -14.57264,6.17213 -79.1531,9.08176 -90.22723,-2.85733 z" id="path6896" sodipodi:nodetypes="cssccc"/><path id="path6898" d="m 274.98457,344.74372 c -0.44018,5.33776 -0.84034,10.10475 -1.37916,16.26851 -0.56855,-0.0469 -7.79095,-0.21827 -7.74241,-0.63754 0.0138,-0.11883 -0.0823,-1.78528 0.3093,-1.83621 0.42235,-0.055 5.98947,0.7961 5.97346,0.21441 -0.012,-0.43819 0.74182,-9.38815 0.92382,-11.59513 0.0342,-0.41441 -6.21555,-0.6029 -6.21375,-0.96027 0.009,-1.84868 0.13101,-2.13256 0.44377,-2.28414 5.00728,0.41295 7.68886,0.2458 7.68499,0.83037 z" style="display:inline;fill-opacity:1;fill-rule:nonzero;fill:#999999;opacity:1;stroke-dasharray:none;stroke-linecap:butt;stroke-linejoin:round;stroke-miterlimit:4;stroke-opacity:1;stroke-width:0;stroke:#000000" sodipodi:nodetypes="ccssscscc"/><path id="path6900" d="m 263.09859,343.67151 c -0.43629,5.33807 -0.81905,10.10649 -1.2928,16.27559 0.56856,0.047 7.72222,1.05541 7.74272,0.63384 0.006,-0.11948 0.37238,-1.74795 -0.006,-1.86207 -0.40773,-0.12311 -6.03912,-0.19148 -5.92845,-0.76277 0.0833,-0.43036 0.79938,-9.38342 0.97979,-11.59054 0.0337,-0.41446 6.23068,0.41866 6.28717,0.0661 0.29266,-1.8254 0.21856,-2.12538 -0.0653,-2.32593 -5.00758,-0.40933 -7.62599,-1.0116 -7.71752,-0.43426 z" style="display:inline;fill-opacity:1;fill-rule:nonzero;fill:#999999;opacity:1;stroke-dasharray:none;stroke-linecap:butt;stroke-linejoin:round;stroke-miterlimit:4;stroke-opacity:1;stroke-width:0;stroke:#000000" sodipodi:nodetypes="ccssscscc"/><path sodipodi:nodetypes="cssscc" id="path6906" d="m 282.45842,458.56662 c -0.27835,0.87834 -1.09442,7.30349 -3.59097,9.21774 -0.26922,0.20641 -1.13559,1.14752 -4.57861,0.28177 -0.17398,-0.0437 -1.37228,0.71664 -3.61539,0.0361 -5.82941,-1.76869 -6.22252,-8.10904 -6.31915,-8.53686 8.23205,-5.09165 11.4291,-4.00072 18.10412,-0.99875 z" style="display:inline;fill-opacity:1;fill-rule:evenodd;fill:#000000;opacity:1;stroke-dasharray:none;stroke-linecap:butt;stroke-linejoin:miter;stroke-miterlimit:4;stroke-opacity:1;stroke-width:0;stroke:#000000"/><path sodipodi:nodetypes="cssscc" id="path6908" d="m 282.65569,458.4011 c -0.78318,1.88787 -2.10206,7.06063 -4.59684,8.84104 -1.21608,0.86786 -3.67141,-0.009 -3.92314,-0.0331 -0.29372,-0.0276 -0.96753,0.96577 -3.15689,0.31564 -4.33861,-1.28834 -5.1633,-4.97917 -6.6404,-7.92987 7.24395,-6.87766 11.19968,-9.59173 18.31727,-1.19371 z" style="display:inline;fill-opacity:1;fill-rule:evenodd;fill:#0b1728;opacity:1;stroke-dasharray:none;stroke-linecap:butt;stroke-linejoin:miter;stroke-miterlimit:4;stroke-opacity:1;stroke-width:0;stroke:#000000"/><path sodipodi:nodetypes="csscc" id="path6191-9" d="m 292.37072,216.07858 c -0.007,-0.15238 3.8945,-21.33661 3.96139,-21.53134 0,0 -5.93416,-2.77563 -6.07642,-2.58113 -0.86438,1.18176 -2.48505,4.21861 -3.88833,5.92157 0.099,0.227 6.00336,18.1909 6.00336,18.1909 z" style="display:inline;fill-opacity:1;fill:#000000;opacity:1;stroke-dasharray:none;stroke-linecap:butt;stroke-linejoin:miter;stroke-miterlimit:4;stroke-opacity:1;stroke-width:0;stroke:#000000"/><path sodipodi:nodetypes="csscc" id="path6193-2" d="m 292.27012,214.99157 c -0.006,-0.15465 3.18623,-20.56297 3.24155,-20.7606 0,0 -5.25385,-3.42808 -5.3715,-3.23069 -0.7148,1.19936 -2.05503,4.28144 -3.21549,6.00976 0.0818,0.23038 5.34544,17.98153 5.34544,17.98153 z" style="display:inline;fill-opacity:1;fill:#0b1728;opacity:1;stroke-dasharray:none;stroke-linecap:butt;stroke-linejoin:miter;stroke-miterlimit:4;stroke-opacity:1;stroke-width:0;stroke:#000000"/><path sodipodi:nodetypes="csscc" id="path6195-1" d="m 298.6408,216.19261 c 0.006,-0.15238 3.40168,-21.28705 3.34715,-21.48178 0,0 13.52448,-3.30688 13.64045,-3.11238 0.70464,1.18176 2.15318,5.37486 2.50741,6.04657 -0.0807,0.227 -19.49501,18.54759 -19.49501,18.54759 z" style="display:inline;fill-opacity:1;fill:#000000;opacity:1;stroke-dasharray:none;stroke-linecap:butt;stroke-linejoin:miter;stroke-miterlimit:4;stroke-opacity:1;stroke-width:0;stroke:#000000"/><path sodipodi:nodetypes="csscc" id="path6197-1" d="m 299.45773,215.19253 c 0.006,-0.15052 3.06748,-20.24269 3.01643,-20.43505 0,0 12.49233,-3.75466 12.60093,-3.56254 0.65983,1.16734 2.01625,5.30926 2.34795,5.97277 -0.0756,0.22423 -17.96531,18.02482 -17.96531,18.02482 z" style="display:inline;fill-opacity:1;fill:#0b1728;opacity:1;stroke-dasharray:none;stroke-linecap:butt;stroke-linejoin:miter;stroke-miterlimit:4;stroke-opacity:1;stroke-width:0;stroke:#000000"/><path sodipodi:nodetypes="cssccc" id="path6201-8" d="m 284.51487,205.20924 c 0.0133,-0.14802 0.991,-3.76164 1.04686,-3.94624 0,0 -10.13556,2.84037 -10.14148,3.07346 -0.008,0.30956 -0.81107,2.93146 -0.7689,3.0294 0.0242,0.22566 9.86356,-2.15662 9.86356,-2.15662 z" style="display:inline;fill-opacity:1;fill:#000000;opacity:1;stroke-dasharray:none;stroke-linecap:butt;stroke-linejoin:miter;stroke-miterlimit:4;stroke-opacity:1;stroke-width:0;stroke:#000000"/><path sodipodi:nodetypes="cssccc" id="path6201-0-4" d="m 321.73469,205.93856 c -0.0135,-0.25315 -2.19351,-6.61269 -2.32164,-6.93919 0,0 28.25558,7.57122 28.23428,7.96573 -0.0279,0.52399 1.81929,5.16395 1.68381,5.31746 -0.10544,0.37372 -27.59656,-6.34401 -27.59656,-6.34401 z" style="display:inline;fill-opacity:1;fill:#000000;opacity:1;stroke-dasharray:none;stroke-linecap:butt;stroke-linejoin:miter;stroke-miterlimit:4;stroke-opacity:1;stroke-width:0;stroke:#000000"/><path sodipodi:nodetypes="cssccc" id="path6201-07-0" d="m 284.41581,204.80064 c 0.0132,-0.13828 0.98105,-3.51413 1.03635,-3.68659 0,0 -10.03379,2.65349 -10.03965,2.87124 -0.008,0.28919 -0.80292,2.73858 -0.76118,2.83007 0.024,0.21081 9.76452,-2.01472 9.76452,-2.01472 z" style="display:inline;fill-opacity:1;fill:#0b1728;opacity:1;stroke-dasharray:none;stroke-linecap:butt;stroke-linejoin:miter;stroke-miterlimit:4;stroke-opacity:1;stroke-width:0;stroke:#000000"/><path sodipodi:nodetypes="cssccc" id="path6201-0-5-4" d="m 321.26188,205.48198 c -0.0134,-0.2365 -2.17149,-6.1776 -2.29833,-6.48261 0,0 27.97185,7.07304 27.95076,7.4416 -0.0276,0.48951 1.80102,4.82417 1.6669,4.96758 -0.10438,0.34913 -27.31944,-5.92658 -27.31944,-5.92658 z" style="display:inline;fill-opacity:1;fill:#0b1728;opacity:1;stroke-dasharray:none;stroke-linecap:butt;stroke-linejoin:miter;stroke-miterlimit:4;stroke-opacity:1;stroke-width:0;stroke:#000000"/><path style="display:inline;fill-opacity:1;fill-rule:nonzero;fill:#999999;opacity:1;stroke-dasharray:none;stroke-linecap:butt;stroke-linejoin:round;stroke-miterlimit:4;stroke-opacity:1;stroke-width:0;stroke:#000000" d="m 299.80598,206.99996 a 2.8059697,3.1566737 0 0 1 -2.80597,3.15668 2.8059697,3.1566737 0 0 1 -2.80597,-3.15668 2.8059697,3.1566737 0 0 1 2.80597,-3.15668 2.8059697,3.1566737 0 0 1 2.80597,3.15668 z" id="path6212-8-6"/></svg>
