<svg viewBox="0 0 560 1000"><path d="m 265.37628,132.28711 c 0.25813,-3.77403 9.78194,-5.76335 10.44932,3.89823 -3.09737,3.48781 -9.1931,2.75995 -10.40615,-0.14511 -0.56962,-1.36414 -1.1657,-2.50965 -0.0432,-3.75312 z" id="path4059-2-1-0-5-5-5-7" sodipodi:nodetypes="ccscc" class="sclera"/><path d="m 268.15181,133.35098 c -0.26076,0.66565 1.18754,0.20562 2.8955,0.17023 -0.003,4.40935 3.16103,3.55505 3.9915,1.86856 0.88285,3.6425 -6.2772,3.10753 -6.61328,1.69219 -0.17675,-0.45933 -0.35761,-3.68176 -0.27372,-3.73098 z" id="path7178-3" sodipodi:nodetypes="ccccc" class="eye"/><path d="m 313.19999,131.1733 c -0.41093,-3.77403 -18.49089,-5.58657 -19.55331,4.07501 0.60224,2.16099 7.91703,4.83154 12.55497,3.60681 3.87534,-1.02336 7.05427,-3.65555 6.99834,-7.68182 z" id="path4059-2-1-0-5-5-3" sodipodi:nodetypes="ccsc" class="sclera"/><path d="m 298.8245,133.80668 c -0.26076,0.66565 1.58529,0.0509 3.29325,0.0155 0.2831,2.30674 1.71328,3.24999 2.42071,2.33112 0.99268,-1.28937 2.47013,-2.86498 2.89662,-3.11421 0.66034,2.29533 0.20646,3.73661 -0.76179,4.58275 -2.24288,1.96002 -7.24577,0.72665 -7.55297,-0.48198 -0.17675,-0.45933 -0.37971,-3.28401 -0.29582,-3.33323 z" id="path7178-3-0" sodipodi:nodetypes="ccscsccc" class="eye"/><path style="fill:#000000;stroke-width:0.18142612" d="m 267.42128,138.80002 c -0.85239,-0.26839 -1.00511,-0.38255 -1.00826,-0.75354 -0.002,-0.31085 -0.25393,-0.61747 -0.86935,-1.06076 -0.47612,-0.34294 -1.04953,-0.8465 -1.27425,-1.11902 -0.22472,-0.27253 -1.72615,-3.81908 -2.00069,-4.00646 1.08738,-1.14661 1.81209,-2.2437 2.81224,-2.39796 l 9.4e-4,-9e-5 c 0.96444,-0.14875 1.19205,-0.33415 0.86693,-0.70614 -0.15931,-0.18228 -0.40329,-0.2471 -0.68098,-0.18091 -0.2965,0.0706 -0.43272,0.0262 -0.43272,-0.14124 0,-0.3079 1.5442,-1.68906 2.58801,-2.31476 0.62271,-0.37328 0.74628,-0.52467 0.58185,-0.7128 -0.16597,-0.1899 -0.0829,-0.26586 0.40523,-0.3705 1.3605,-0.29167 4.00024,0.0809 4.53284,0.63972 0.45862,0.48122 0.2925,0.54771 -0.62142,0.24871 -0.4312,-0.14106 -1.39566,-0.27676 -2.14323,-0.30156 l -1.35924,-0.045 -1.42408,1.13629 c -0.78324,0.62494 -1.38148,1.20173 -1.3294,1.28174 0.17369,0.26685 1.50453,0.1498 2.35412,-0.20707 0.82822,-0.34789 0.85127,-0.34813 1.74583,-0.0181 0.4986,0.18393 1.28459,0.46128 1.74667,0.61631 1.24019,0.41612 2.09498,1.17955 2.83239,2.52969 1.01045,1.85008 1.44745,3.24761 1.44745,4.62902 0,0.77286 -0.0518,1.17145 -0.25584,1.37397 -0.99832,0.89678 -5.87674,2.55934 -8.51504,1.88046 z m 7.58415,-2.36048 c 0.0645,-0.38292 0.062,-0.6962 -0.006,-0.6962 -0.0674,0 -0.3755,0.27353 -0.68463,0.60787 -0.88537,0.95752 -2.16207,0.91467 -2.95136,-0.0991 -0.33825,-0.43446 -0.40579,-0.71905 -0.35484,-1.49529 0.0345,-0.5273 0.0365,-0.95861 0.004,-0.95848 -0.0324,1.3e-4 -0.22014,0.0822 -0.41736,0.18247 -0.21181,0.10763 -0.59249,0.12466 -0.93002,0.0417 -0.61829,-0.15213 -0.67391,-0.44914 -0.0998,-0.53235 0.85165,-0.12342 2.71603,-1.71912 2.71603,-2.32463 0,-0.34914 -1.23204,-0.20695 -2.32546,0.2684 -0.91428,0.39746 -1.1226,0.58112 -1.45392,1.28175 -1.01483,3.64733 1.00476,5.49567 4.24257,5.07666 1.18401,-0.15297 1.9273,-0.54748 2.26079,-1.3528 z m 23.0519,0.74721 c -0.48961,-1.09113 -0.62493,-1.6698 -0.63216,-2.703 -0.009,-1.31478 0.33422,-2.41585 1.01948,-3.26898 0.59367,-0.7391 0.58328,-0.78721 -0.14328,-0.66312 -1.19945,0.20485 -2.15869,0.7881 -3.19862,1.94488 -0.9782,1.0881 -1.03699,1.20717 -1.03699,2.10021 0,0.52069 0.084,1.17067 0.18662,1.44441 0.93768,1.16055 4.58754,2.2403 3.80495,1.1456 z m 11.78864,-1.41755 c 0.0899,-0.88836 -0.21985,-2.14743 -0.5283,-2.14743 -0.0819,1.89422 -0.32276,2.99336 -0.94473,4.18462 0.18907,-0.0585 0.36839,-0.18927 0.79399,-0.68177 0.47675,-0.50851 0.51824,-0.73739 0.67904,-1.35542 z m -2.56184,3.34778 c -1.25679,0.37152 -3.12933,0.41723 -5.42898,0.13253 l 4.9e-4,-10e-6 c -4.20329,-0.87227 -6.5424,-1.71229 -7.87571,-3.23592 -0.31344,-0.35857 -0.42533,-0.65307 -0.35261,-0.92816 0.14914,-0.56432 -0.0566,-0.50189 -0.39524,0.11993 -0.26777,0.4917 -0.26042,0.54439 0.12343,0.88397 0.28197,0.24944 0.32535,0.35935 0.14032,0.35546 -0.71982,-0.0151 -1.14181,-0.80144 -0.74751,-1.39292 0.10174,-0.15267 0.0869,-0.37002 -0.0385,-0.56054 -0.16326,-0.24822 -0.1033,-0.45005 0.29635,-0.99767 0.63452,-0.86945 0.64062,-1.19076 0.009,-0.49071 -0.46777,0.5187 -0.47587,0.52065 -0.36822,0.0884 0.0606,-0.24309 0.11124,-0.57846 0.11264,-0.74523 9.9e-4,-0.16678 0.25389,-0.57507 0.56108,-0.9073 0.69759,-0.75444 0.70055,-0.89376 0.0162,-0.76379 -0.35029,0.0665 -0.61856,0.0158 -0.75765,-0.14338 -0.17771,-0.20334 -0.0158,-0.28365 0.92684,-0.45975 0.77777,-0.14532 1.59861,-0.48511 2.57289,-1.06507 3.88601,-2.31328 5.86851,-2.8555 10.55358,-2.8865 1.51827,-0.0104 1.8618,-0.0609 1.8618,-0.27537 0,-0.42749 -3.00453,-2.05448 -4.61733,-2.38132 -0.76799,-0.15564 -1.79203,-0.36461 -2.27563,-0.46439 -0.48361,-0.0998 -1.13293,-0.12851 -1.4429,-0.0639 -0.34262,0.0714 -0.56362,0.0461 -0.56362,-0.0644 0,-0.38018 0.59886,-0.46313 2.54854,-0.353 2.41293,0.13629 2.88756,0.38323 5.51093,1.868 1.98148,1.12146 2.60873,1.63468 2.60873,2.13443 0,0.56585 0.46217,0.80335 1.1319,0.58165 0.48,-0.1589 0.5636,-0.14897 0.48036,0.057 -0.0785,0.19422 0.0357,0.22834 0.51617,0.15429 0.84194,-0.12974 1.01109,0.20733 0.40535,0.80771 -0.26719,0.26482 -0.48579,0.56426 -0.48579,0.66541 0,0.35652 0.70185,0.78059 1.50829,0.91132 0.98403,0.1595 1.07744,0.41639 0.55067,1.51443 -0.21084,0.43948 -0.38334,0.88145 -0.38334,0.98217 0,0.17346 0.42783,0.32783 1.21103,0.43699 0.77165,0.10755 0.44728,0.43666 -0.54657,0.55456 -1.01809,0.12079 -1.05066,0.1431 -2.35062,1.60899 -1.53268,1.81806 -2.85493,3.6404 -5.01637,4.32209 z m 0.34364,-5.40682 c -0.19634,-0.69455 -0.20479,-0.70024 -0.47412,-0.31837 -0.15084,0.21384 -0.47629,0.59582 -0.72326,0.84886 -0.24696,0.25305 -0.45169,0.59522 -0.45495,0.76037 -0.019,0.96279 -2.24276,2.14226 -2.70371,1.43403 -0.0689,-0.1057 -0.28489,-0.15252 -0.48017,-0.10402 -0.44636,0.11084 -0.90616,-0.66437 -0.90616,-1.52773 v -0.60395 l -1.27794,0.0868 c -1.42505,0.0968 -2.02682,-0.2065 -0.82177,-0.4142 0.84256,-0.14523 1.72766,-0.55519 2.79789,-1.29591 1.82529,-1.26334 0.25714,-2.45183 -1.75652,-1.33124 -0.90127,0.50153 -1.5999,1.42295 -1.91116,2.52058 -0.26094,0.92019 0.0205,2.07351 0.73427,3.00918 0.7796,1.02195 1.44417,1.55527 3.61594,1.55919 2.5591,0.0781 4.85382,-1.19683 4.36166,-4.62359 z m -2.93743,2.0269 c 0.418,-0.21243 0.48761,-0.87775 0.0918,-0.87775 -0.14755,0 -0.32007,0.0796 -0.38334,0.17679 -0.0633,0.0973 -0.28665,0.17679 -0.49637,0.17679 -0.27648,0 -0.34917,-0.0794 -0.26443,-0.28917 0.10529,-0.26049 0.0759,-0.26337 -0.29569,-0.029 -0.57073,0.35985 -0.59747,0.55449 -0.10784,0.78472 0.55734,0.26204 1.0178,0.28029 1.45583,0.0576 z m 0.99244,-1.33569 c 0.16133,-0.39922 -0.0245,-0.60281 -0.55021,-0.60281 -0.31658,0 -0.45447,0.0984 -0.45447,0.32411 0,0.17827 0.0559,0.37717 0.12412,0.44199 0.23065,0.21902 0.76619,0.11972 0.88056,-0.16329 z m -10.12753,-7.41309 c 0,-0.0507 0.21881,-0.40618 0.48626,-0.78994 0.43141,-0.61904 0.91633,-0.9616 1.18937,-0.8402 0.0512,0.0228 0.34443,-0.12721 0.65162,-0.3333 0.87755,-0.58872 3.7117,-1.29274 4.12785,-1.29274 0.82096,0 -0.59562,0.22153 -2.74903,1.2279 -1.23843,0.57878 -2.53996,1.29264 -2.89229,1.58637 -0.62948,0.52486 -0.81378,0.62492 -0.81378,0.44191 z m -28.57887,5.2803 c 0.33013,-0.75027 0.33242,-0.7683 0.0975,-0.7683 -0.37225,0 -0.75271,0.85889 -1.01683,2.29546 -0.14962,0.81384 -0.23136,1.54219 -0.18164,1.61858 0.0498,0.0763 0.0978,0.48825 0.10685,0.91527 0.0158,0.75201 1.12443,1.10323 2.04893,1.54596 -0.42184,-0.41193 -1.56065,-2.51833 -1.05481,-5.60697 z m 7.16532,3.18604 c 0.61383,-0.86367 0.62345,-1.30243 0.0285,-1.30243 -0.42347,0 -0.67037,0.48406 -0.40296,0.79004 0.27316,0.31252 0.0389,0.4475 -0.77676,0.4475 -0.76673,0 -1.17585,0.42925 -0.68843,0.7223 0.64985,0.39074 1.24611,0.17767 1.83961,-0.65741 z" id="path7141-3" sodipodi:nodetypes="cccsccccscccccccscssccsccccscccsscccsccccccccccccccccccccccscccscscscssssscscscsscssccssscscccssccscccssscsccssccssssscscscsccccccscssssccccccccc"/></svg>
