<svg viewBox="0 0 560 1000"><path sodipodi:nodetypes="csccc" id="path4732" d="m 351.64546,406.09159 c -21.42023,7.01407 -42.21578,8.52949 -62.70413,9.12434 -24.22046,0.7032 -47.2185,-2.20107 -60.45696,-7.53731 -5.80364,5.76526 -21.8082,35.55903 -24.20437,59.25372 31.15589,-28.54719 172.01217,1.41243 147.36546,-60.84075 z" style="display:inline;fill-opacity:1;fill:#000000;stroke-dasharray:none;stroke-linecap:butt;stroke-linejoin:miter;stroke-miterlimit:4;stroke-opacity:1;stroke-width:0;stroke:#000000"/><path d="m 283.66521,456.38067 c -1.54841,0.73859 -1.78928,15.78672 -9.24659,11.14886 -5.5459,3.1603 -10.12915,-4.94173 -10.42429,-8.4126 -0.25114,-2.95343 3.37748,-7.20053 3.87403,-6.51846 2.14579,-0.003 16.30971,2.85987 15.79685,3.7822 z" class="shadow" id="path4734" sodipodi:nodetypes="ccscc" inkscape:label="#PussyshadowN"/><path style="display:inline;fill-opacity:1;fill:#517cd3;stroke-dasharray:none;stroke-linecap:butt;stroke-linejoin:miter;stroke-miterlimit:4;stroke-opacity:1;stroke-width:0;stroke:#000000" d="m 204.23049,467.13581 c 9.85266,-3.69513 50.63109,-5.94135 63.91973,-0.29539 1.97544,1.15064 3.44304,1.50895 6.29117,0.74829 1.48394,1.11892 3.67809,1.01117 5.52348,-0.15189 69.74911,-5.15378 103.89934,4.49456 104.44567,3.93966 -0.40498,-21.96515 -15.61413,-49.27225 -32.91536,-65.04422 -45.10201,11.9464 -96.4497,13.39268 -122.91997,1.5103 -0.12493,-0.0561 -17.82049,24.52509 -24.34472,59.29325 z" id="path4736" sodipodi:nodetypes="ccccccsc"/><path d="m 274.36595,467.58332 c -3.81452,2.31718 -9.64064,-2.27902 -10.8644,-11.68664 5.95334,-21.67633 25.49385,-8.31185 20.23612,0.35499 -2.87984,4.74713 -3.52005,14.37508 -9.37172,11.33165 z" class="skin torso" id="path4738" sodipodi:nodetypes="ccsc" inkscape:label="#PussyN"/><path style="display:inline;fill-opacity:1;fill:#8aa7ff;stroke-dasharray:none;stroke-linecap:butt;stroke-linejoin:miter;stroke-miterlimit:4;stroke-opacity:1;stroke-width:0;stroke:#000000" d="m 226.43714,411.39001 c 35.65478,14.81043 110.86666,5.36222 127.27316,-2.51932 -1.33441,-1.88669 -1.31567,-1.71418 -1.76624,-2.59407 -58.31295,15.78964 -107.46151,9.30714 -123.43171,1.46595 -0.32556,0.70561 -0.85233,0.93932 -2.07521,3.64744 z" id="path4740" sodipodi:nodetypes="ccccc"/><path sodipodi:nodetypes="csssccsssccccc" id="path4742" d="m 338.3575,841.60277 c 2.22085,-6.48168 2.39389,-23.88738 5.18311,-48.98913 3.235,-29.11351 9.23009,-70.7682 2.09774,-111.0184 -0.32901,-1.85668 30.6896,-69.85454 35.99583,-141.08686 0.42113,-5.65342 -22.12347,-2.134 -22.31236,-5.79542 -18.35816,5.1524 -68.27852,5.74594 -81.62644,2.38332 0.93627,6.39984 -3.79386,11.29263 -2.65491,17.47692 2.35463,12.78537 6.22047,23.42494 8.22336,32.62077 0.0425,0.19537 0.0873,0.38952 0.1244,0.58402 0.95096,4.98748 1.64899,6.14898 3.08327,11.76174 3.46039,22.89029 6.66659,62.54823 13.93951,82.67348 -16.39841,61.82149 12.65417,102.5833 18.57968,159.42186 7.04026,-3.30483 16.67986,-0.77304 19.36681,-0.0323 z" style="baseline-shift:baseline;clip-rule:nonzero;color-interpolation-filters:linearRGB;color-interpolation:sRGB;color-rendering:auto;color:#000000;direction:ltr;display:inline;enable-background:accumulate;fill-opacity:1;fill-rule:evenodd;fill:#000000;image-rendering:auto;isolation:auto;mix-blend-mode:normal;opacity:1;overflow:visible;shape-rendering:auto;solid-color:#000000;solid-opacity:1;stroke-dasharray:none;stroke-dashoffset:0;stroke-linecap:butt;stroke-linejoin:miter;stroke-miterlimit:4;stroke-opacity:1;stroke-width:1.77035642;stroke:none;visibility:visible;white-space:normal;writing-mode:lr-tb"/><path sodipodi:nodetypes="ccssssccscccc" id="path4744" d="m 268.62825,838.81815 c 8.30437,-53.83136 36.47066,-97.01128 18.17934,-149.57447 -0.0514,-0.143 -0.25491,-0.97982 0.0502,-2.30784 13.24736,-57.66414 5.80252,-66.13748 4.99303,-92.28682 -0.0185,-0.59897 1.54741,-2.89277 1.49723,-3.45798 -0.12842,-1.44489 -0.40044,-2.84549 -0.59652,-4.05342 -1.78565,-11.00008 -11.04331,-29.37927 -14.86188,-50.18047 -26.36653,9.36509 -55.85848,-111.71586 -58.75273,-110.65069 -34.17854,60.1136 -19.7204,142.10827 15.73307,237.55982 1.65915,4.46694 2.0997,14.18196 2.01111,15.64706 2.20237,5.96005 10.98379,109.54929 16.1713,160.02021 6.31619,-2.58038 11.96836,-1.60332 15.57587,-0.71541 z" style="baseline-shift:baseline;clip-rule:nonzero;color-interpolation-filters:linearRGB;color-interpolation:sRGB;color-rendering:auto;color:#000000;direction:ltr;display:inline;enable-background:accumulate;fill-opacity:1;fill-rule:evenodd;fill:#000000;image-rendering:auto;isolation:auto;mix-blend-mode:normal;opacity:1;overflow:visible;shape-rendering:auto;solid-color:#000000;solid-opacity:1;stroke-dasharray:none;stroke-dashoffset:0;stroke-linecap:butt;stroke-linejoin:miter;stroke-miterlimit:4;stroke-opacity:1;stroke-width:1.77084005;stroke:none;visibility:visible;white-space:normal;writing-mode:lr-tb"/><path sodipodi:nodetypes="csccscsssssssccc" id="path4746" d="m 338.27734,841.54046 c 0.58817,-5.10668 0.96862,-22.66511 3.46053,-47.76686 2.89017,-29.11351 8.80445,-64.26817 3.32592,-112.0184 30.45858,-98.60544 69.74045,-210.68456 10.99617,-271.30568 -3.15751,-2.4898 -11.23311,-13.12622 -18.74158,-10.46133 -24.32324,8.63275 -61.68299,37.42739 -65.58986,33.61628 0.83647,6.39984 7.79328,115.94444 8.81082,122.12873 2.10365,12.78537 5.55742,23.42494 7.34682,32.62077 0.038,0.19537 0.078,0.38952 0.11114,0.58402 0.84959,4.98748 -1.77678,14.81104 -0.49538,20.4238 4.18309,18.32272 4.22166,31.77212 4.88764,33.71176 3.17345,9.24249 3.9377,18.62671 5.53492,25.57382 2.0222,8.79562 4.43747,14.06151 4.35859,14.35084 -17.40038,63.82152 13.51653,95.11103 16.57691,158.69959 6.37574,-2.12547 19.54311,0.0924 19.4174,-0.15734 z" style="baseline-shift:baseline;clip-rule:nonzero;color-interpolation-filters:linearRGB;color-interpolation:sRGB;color-rendering:auto;color:#000000;direction:ltr;display:inline;enable-background:accumulate;fill-opacity:1;fill-rule:evenodd;fill:#517cd3;image-rendering:auto;isolation:auto;mix-blend-mode:normal;opacity:1;overflow:visible;shape-rendering:auto;solid-color:#000000;solid-opacity:1;stroke-dasharray:none;stroke-dashoffset:0;stroke-linecap:butt;stroke-linejoin:miter;stroke-miterlimit:4;stroke-opacity:1;stroke-width:1.67334545;stroke:none;visibility:visible;white-space:normal;writing-mode:lr-tb"/><path style="display:inline;fill-opacity:1;fill:#8aa7ff;stroke-dasharray:none;stroke-linecap:butt;stroke-linejoin:miter;stroke-miterlimit:4;stroke-opacity:1;stroke-width:0;stroke:#000000" d="m 275.25299,462.86252 c -12.30071,-3.84341 -9.97725,-39.56452 -8.12905,-43.86741 0.10337,-0.24065 6.70466,-0.007 6.80117,-0.0386 -0.14286,-0.008 -0.28501,-0.0153 -0.42641,-0.0219 -4.0967,-0.18979 -7.561,0.22503 -9.12434,-0.44654 -1.55247,9.38892 -6.14341,45.13839 10.87863,44.37445 z" id="path4748" sodipodi:nodetypes="cscsccc"/><path sodipodi:nodetypes="ccssssccccccc" id="path4750" d="m 268.29874,838.80762 c 7.09712,-53.88645 33.84031,-94.72334 17.34191,-148.77898 -0.29801,-0.92779 6.2079,-26.66238 7.25648,-54.26832 0.5244,-13.80574 -3.78437,-30.23546 -4.05293,-39.95134 -0.0166,-0.59897 1.38171,-2.89277 1.33691,-3.45798 -0.11467,-1.44489 -0.35756,-2.84549 -0.53265,-4.05342 -1.59444,-11.00008 -15.39677,-127.57698 -18.80645,-148.37818 -23.71289,-13.25991 -43.84533,-26.92069 -46.98774,-26.54302 -44.48011,81.89666 -10.53548,181.75528 12.60847,247.40722 1.53584,4.46476 1.87486,14.18196 1.79576,15.64706 1.96654,5.96005 11.57872,102.009 15.16943,162.76913 6.91548,-1.42636 9.36902,-0.916 14.87082,-0.39212 z" style="baseline-shift:baseline;clip-rule:nonzero;color-interpolation-filters:linearRGB;color-interpolation:sRGB;color-rendering:auto;color:#000000;direction:ltr;display:inline;enable-background:accumulate;fill-opacity:1;fill-rule:evenodd;fill:#517cd3;image-rendering:auto;isolation:auto;mix-blend-mode:normal;opacity:1;overflow:visible;shape-rendering:auto;solid-color:#000000;solid-opacity:1;stroke-dasharray:none;stroke-dashoffset:0;stroke-linecap:butt;stroke-linejoin:miter;stroke-miterlimit:4;stroke-opacity:1;stroke-width:1.67334545;stroke:none;visibility:visible;white-space:normal;writing-mode:lr-tb"/><path style="display:inline;fill-opacity:1;fill:#8aa7ff;stroke-dasharray:none;stroke-linecap:butt;stroke-linejoin:miter;stroke-miterlimit:4;stroke-opacity:1;stroke-width:0;stroke:#000000" d="m 356.28203,444.8129 c -31.56327,-6.76001 -36.1698,-23.53296 -36.97785,-28.4296 -1.02422,-0.29348 -2.03709,0.77235 -2.39603,0.55362 -0.0837,1.32642 8.867,25.77488 39.37388,27.87598 z" id="path4752" sodipodi:nodetypes="cccc"/><path style="display:inline;fill-opacity:1;fill:#8aa7ff;stroke-dasharray:none;stroke-linecap:butt;stroke-linejoin:miter;stroke-miterlimit:4;stroke-opacity:1;stroke-width:0;stroke:#000000" d="m 222.23265,435.35375 c 9.31024,-1.01499 16.8449,-15.62419 16.03685,-20.52083 -1.02422,-0.29348 -0.41393,-0.14186 -0.77287,-0.36059 -0.0837,1.32642 -2.08336,14.40532 -15.26398,20.88142 z" id="path4754" sodipodi:nodetypes="cccc"/><path sodipodi:nodetypes="ccc" id="path4756" class="shadow" d="m 329.90785,425.6821 c -15.4791,1.19068 -42.03653,26.26041 -44.60913,30.99635 10.29989,-9.14088 29.75951,-26.28541 44.60913,-30.99635 z"/><path sodipodi:nodetypes="ccc" id="path4758" class="shadow" d="m 262.16576,457.53039 c -6.81704,-9.41592 -28.83006,-31.99347 -34.93819,-34.15183 5.05404,5.44075 26.5203,25.35081 34.93819,34.15183 z"/><path d="m 262.98857,459.03749 c 4.57815,9.39542 7.95428,8.94718 11.45233,8.01034 0.29456,-0.0789 5.02218,4.77996 9.26343,-8.71666 -1.38475,8.70911 -4.94655,11.61521 -9.3291,9.47151 -0.0226,-0.0111 -2.82256,1.04466 -4.71233,0.003 -2.95847,-1.63089 -6.486,-5.556 -6.67433,-8.7681 z" class="shadow" id="path4760" sodipodi:nodetypes="cscsscc"/><path sodipodi:nodetypes="ccc" id="path4762" class="shadow" d="M 298.25237,673.37575 C 288.05575,634.7828 274.30467,520.03041 273.49983,475.7992 c 3.81661,43.09419 19.4137,165.79089 24.75254,197.57655 z"/><path style="display:inline;fill-opacity:1;fill:#8aa7ff;stroke-dasharray:none;stroke-linecap:butt;stroke-linejoin:miter;stroke-miterlimit:4;stroke-opacity:1;stroke-width:0;stroke:#000000" d="m 252.63214,840.0544 c 2.0442,-1.14318 13.17922,0.11289 16.47831,-0.0882 0.32035,-1.87322 0.33246,-2.60124 0.407,-3.0857 -5.10547,-1.89222 -15.8183,-1.48324 -17.05143,-0.80312 -0.005,0.40677 0.21717,1.98204 0.16612,3.97694 z" id="path4764" sodipodi:nodetypes="ccccc"/><path style="display:inline;fill-opacity:1;fill:#8aa7ff;stroke-dasharray:none;stroke-linecap:butt;stroke-linejoin:miter;stroke-miterlimit:4;stroke-opacity:1;stroke-width:0;stroke:#000000" d="m 338.93322,843.45175 c -2.44297,-1.71872 -16.15649,-1.02994 -20.18841,-1.59582 -0.29084,-2.5447 -0.26615,-3.52362 -0.33118,-4.18101 6.35923,-2.08377 19.46496,-0.574 20.93914,0.45004 -0.0161,0.54679 -0.37375,2.6427 -0.41955,5.32668 z" id="path4766" sodipodi:nodetypes="ccccc"/></svg>
