<svg viewBox="0 0 560 1000"><path style="fill-opacity:1;fill:#464646;stroke-width:0.54959524" d="m 310.98489,427.23479 c 0.453,-0.74885 1.46873,-1.92846 2.25717,-2.62137 1.57012,-1.37983 5.54912,-8.16158 6.74202,-11.49099 0.62129,-1.73406 0.59739,-2.9757 -0.13708,-7.11416 -1.19834,-6.75247 -1.21101,-7.04609 -0.30379,-7.04609 0.95781,0 2.61999,3.88345 3.63975,8.50361 0.74427,3.37201 0.73215,3.44555 -1.12723,6.84234 -1.03376,1.88854 -2.82954,4.65717 -3.9906,6.15255 -2.35721,4.11075 -7.52675,10.15954 -7.52675,10.15954 0,0 -6.80471,6.67312 0.44651,-3.38543 z" id="path4817-8" sodipodi:nodetypes="csscsscccc"/><path style="fill-opacity:1;fill:#464646;stroke-width:0.49682742" d="m 248.13959,437.19208 c -2.20644,-3.48515 -6.91916,-12.5398 -8.11158,-15.58494 -0.53842,-1.37504 -1.73856,-3.74097 -2.66696,-5.25762 -2.24866,-3.67351 -2.89019,-6.43413 -2.00159,-8.6131 1.47506,-3.61699 2.84306,-7.47967 3.34206,-9.43669 0.64737,-2.53886 1.48849,-3.41658 1.09506,-1.14273 -0.69125,3.99513 -2.51202,11.33549 -3.11258,12.54828 -0.59831,1.20818 -0.58711,1.56362 0.11585,3.674 0.42806,1.28501 1.22353,2.97254 1.7677,3.75003 0.54422,0.77749 2.95165,5.1015 5.34988,9.60892 2.39823,4.5074 4.76513,8.86917 5.25978,9.69285 2.29841,3.82721 1.34583,4.5258 -1.03764,0.761 z" id="path4809-8"/><path style="fill-opacity:1;fill:#464646;stroke-width:0.76042944" d="m 263.58045,424.98515 c -1.69242,-6.70782 -0.10105,-20.05559 3.50027,-29.36008 5.05322,-15.88279 -5.31114,-25.6564 -0.25685,-46.35523 0.6866,-1.72499 1.24834,-4.08041 1.24834,-5.23425 0,-2.92123 2.38679,-11.95425 3.28966,-12.45001 1.98595,-1.09046 2.08747,0.82982 0.28607,5.41078 -1.07987,2.74601 -1.92322,6.04644 -1.87416,7.33424 0.0491,1.28783 -0.48259,4.92187 -1.18142,8.07562 -2.13054,9.61503 -2.52433,13.71905 0.339,25.44524 0.74528,1.77401 1.53334,5.32201 1.75129,7.88446 0.33408,3.92792 0.0774,5.27754 -1.63611,8.6012 -5.28175,10.24501 -5.36506,19.63795 -4.24613,28.06938 0.6089,4.58799 -0.25324,6.41027 -1.21996,2.57865 z" id="path4767-2" sodipodi:nodetypes="cccsccccccccc"/><path style="fill-opacity:1;fill:#464646;stroke-width:0.86920017" d="m 241.77521,386.00001 c 0,-1.88731 1.82321,-8.98714 2.06406,-8.03776 0.0867,0.34192 -0.0782,2.66344 -0.36676,5.15897 -0.50082,4.33281 -1.6973,6.36215 -1.6973,2.87879 z" id="path4753-0"/><path style="fill-opacity:1;fill:#464646;stroke-width:0.70040137" d="m 311.27008,372.07243 c -1.19106,-1.69151 -3.34125,-7.53435 -3.34125,-9.0794 0,-2.66026 1.49944,-1.40874 2.45089,2.0457 0.52347,1.90053 1.44069,4.50001 2.0383,5.77668 1.09103,2.33076 0.25374,3.2476 -1.14794,1.25702 z" id="path4747-8"/><path style="fill-opacity:1;fill:#464646;stroke-width:0.70040137" d="m 306.33823,347.90096 c -0.0151,-1.6722 0.54748,-5.39622 1.24861,-8.27563 l 1.27478,-5.23527 -3.37194,-4.68548 c -1.85458,-2.57699 -3.11973,-4.87287 -2.81148,-5.10192 0.64484,-0.47914 6.02736,4.09795 6.04541,5.14084 0.008,0.381 0.7011,1.33416 1.54338,2.11814 l 1.53137,1.42541 5.73102,-2.97831 c 3.15209,-1.63808 5.8907,-2.85801 6.08581,-2.71094 0.19514,0.14707 -1.94038,1.76546 -4.74557,3.59649 -2.80521,1.83101 -5.67077,4.03293 -6.36792,4.89316 -1.81697,2.24201 -3.69325,6.65784 -4.2828,10.07967 -0.75205,4.36487 -1.84931,5.37645 -1.88067,1.73384 z" id="path4735-6"/><path style="fill-opacity:1;fill:#464646;stroke-width:0.70040137" d="m 248.729,336.63232 c -0.57859,-4.03696 -0.45843,-4.86673 1.0126,-6.9928 1.45544,-2.10353 8.22595,-7.58091 9.37064,-7.58091 1.15838,0 0.0845,1.51296 -2.70751,3.81404 -4.568,3.76498 -6.07104,6.29957 -6.57281,11.0837 l -0.44642,4.25647 z" id="path4721-0"/><path style="fill-opacity:1;fill:#464646;stroke-width:0.70040137" d="m 329.71114,325.82252 c 0,-0.31996 0.74681,-0.72891 1.6596,-0.90883 1.05568,-0.20808 1.54507,-0.068 1.34495,0.38514 -0.38635,0.87457 -3.00455,1.33098 -3.00455,0.52369 z" id="path4691-3"/><path style="fill-opacity:1;fill:#464646;stroke-width:0.70040137" d="m 264.77118,317.79777 c 0.85344,-1.0408 5.11884,-2.46001 5.60643,-1.86538 0.25159,0.30697 -0.69108,0.99005 -2.09507,1.51795 -2.92987,1.10165 -4.23575,1.23086 -3.51136,0.34743 z" id="path4685-3"/><path style="fill-opacity:1;fill:#464646;stroke-width:0.70040137" d="m 291.7938,316.22446 c -1.9967,-0.77691 -4.44721,-1.42386 -5.44556,-1.43764 -0.99835,-0.0133 -1.8152,-0.29869 -1.8152,-0.63313 0,-1.08519 3.23147,-0.6449 7.10553,0.96812 6.65663,2.77159 6.78485,3.68221 0.1553,1.10265 z" id="path4683"/><path style="display:inline;fill-opacity:1;fill:#464646;stroke-width:0.86920017" d="m 317.26151,390.87999 c -0.82092,-1.75357 -2.21512,-8.92328 -1.57839,-8.11685 0.22933,0.2904 1.08587,2.49926 1.90324,4.90864 1.4193,4.18318 1.19032,6.44475 -0.32485,3.20821 z" id="path4753-0-3"/></svg>
