<svg viewBox="0 0 560 1000"><path sodipodi:nodetypes="cccccccsccsccc" id="path2288-2-7-3" d="m 370.8969,268.8878 c 2.36849,23.60153 1.75351,51.52091 -5.54547,78.55465 0.0897,2.34411 4.6595,17.11968 7.11537,29.07427 -36.77086,9.58655 -135.02177,13.96466 -153.89353,-4.89184 2.433,-12.49684 7.69036,-32.03475 15.53901,-53.11514 -2.13048,-7.70551 3.57316,-12.49737 2.54969,-25.90973 0.40962,-35.13389 30.30326,-40.0847 52.38713,-59.43686 0.97617,-2.02088 2.05999,-19.89061 -11.85024,-27.17009 -0.63873,-0.33426 3.66191,-3.80977 8.18644,-6.21211 9.24713,11.38115 27.34766,3.74775 33.42729,-1.52056 1.50252,1.12706 8.39482,5.20658 7.17933,6.00553 -25.72677,16.91039 -30.9022,28.84774 -29.45936,29.06832 3.13994,1.52155 66.54554,33.43249 67.65165,34.25705 z" style="display:inline;fill-opacity:1;fill-rule:evenodd;fill:#000000;opacity:1;stroke-dasharray:none;stroke-linecap:butt;stroke-linejoin:miter;stroke-miterlimit:4;stroke-opacity:1;stroke-width:0;stroke:#000000"/><path sodipodi:nodetypes="cccccccccccc" id="path2290-3-0-0" d="m 364.11286,347.17422 c 0.49582,5.07437 4.52707,17.16139 6.90216,28.43074 -31.28229,8.06681 -138.10149,14.24686 -150.70386,-5.06389 1.76466,-12.54996 14.32006,-47.08252 14.91305,-52.03193 -3.0755,-26.84168 -0.52105,-45.74614 4.01256,-70.57209 4.39438,-23.68414 15.86738,-37.30901 37.69935,-41.95594 0.49229,-0.51848 3.97915,-3.18477 8.45611,-5.58711 9.14993,11.38115 27.08296,3.74775 33.09868,-1.52056 1.48672,1.12706 17.52471,7.31482 18.05659,8.65718 2.58742,0.19199 9.57783,0.93138 12.62329,2.06534 21.32697,11.58453 25.15316,34.74558 21.91064,58.57411 1.82371,35.69041 -1.65952,61.28238 -6.96857,79.00415 z" style="display:inline;fill-opacity:1;fill-rule:evenodd;fill:#c8c8c8;opacity:1;stroke-dasharray:none;stroke-linecap:butt;stroke-linejoin:miter;stroke-miterlimit:4;stroke-opacity:1;stroke-width:0;stroke:#000000"/><path sodipodi:nodetypes="csscccsccsc" id="path2276-4-9-6-2-3" d="m 219.45138,465.1272 c 1.78605,-0.18069 -2.80643,5.58689 -3.97335,9.7375 -0.13898,0.49434 11.30318,-3.00043 23.34645,-2.68738 15.39215,0.40011 32.76084,4.80119 36.36612,6.43486 27.3515,-5.55275 87.9134,-1.91457 95.21552,1.04811 2.65835,-10.3326 -5.45294,-43.91959 -8.30378,-48.23452 -2.68621,-6.082 2.84256,-15.41331 2.21369,-17.38558 -0.0813,-0.25494 3.79143,-4.62071 3.79143,-4.62071 -27.80965,7.38411 -109.36222,14.73846 -144.72296,2.05203 -0.0808,-0.0326 2.14825,2.73787 -2.22969,22.08944 -2.03466,8.99372 -2.66555,19.55629 -1.70343,31.56625 z" style="display:inline;fill-opacity:1;fill:#000000;stroke-dasharray:none;stroke-linecap:butt;stroke-linejoin:miter;stroke-miterlimit:4;stroke-opacity:1;stroke-width:0;stroke:#000000"/><path style="display:inline;fill-opacity:1;fill:#8aa7ff;stroke-dasharray:none;stroke-linecap:butt;stroke-linejoin:miter;stroke-miterlimit:4;stroke-opacity:1;stroke-width:0;stroke:#000000" d="m 215.45586,474.91455 c 20.47367,-7.92632 54.41137,-0.23765 59.78866,3.8022 0.0798,-4.49415 1.05695,-10.70077 1.29388,-11.83066 -42.61622,-7.91998 -56.23048,-3.96035 -60.15052,-2.37407 -0.0162,0.94868 -0.7698,5.74986 -0.93202,10.40253 z" id="path2292-9-3-0" sodipodi:nodetypes="ccccc"/><path style="display:inline;fill-opacity:1;fill:#8aa7ff;stroke-dasharray:none;stroke-linecap:butt;stroke-linejoin:miter;stroke-miterlimit:4;stroke-opacity:1;stroke-width:0;stroke:#000000" d="m 275.2174,478.60926 c 20.47367,-7.92632 89.98768,-2.93349 95.36497,1.10636 1.22885,-4.40576 1.05695,-7.69556 1.29388,-8.82545 -45.09109,-9.06903 -92.17692,-4.20895 -96.09696,-2.62267 -0.0162,0.94868 -0.53225,5.73329 -0.56189,10.34176 z" id="path2294-2-5-4" sodipodi:nodetypes="ccccc"/><path style="display:inline;fill-opacity:1;fill:#517cd3;stroke-dasharray:none;stroke-linecap:butt;stroke-linejoin:miter;stroke-miterlimit:4;stroke-opacity:1;stroke-width:0;stroke:#000000" d="m 216.33481,465.20903 c 4.88391,-4.22638 38.52677,-4.01457 51.81541,1.63139 1.97544,1.15064 3.25554,2.1652 6.10367,1.40454 1.48394,1.11892 3.86559,0.35492 5.71098,-0.80814 69.74911,-5.15378 91.25981,5.37844 91.80614,4.82354 -1.44176,-18.35508 -2.03126,-35.40794 -7.70444,-55.14553 0.15029,-0.96669 0.75131,-1.44262 2.67685,-4.30363 -0.0813,-0.25494 -2.03624,-2.15105 -2.03624,-2.15105 -45.10201,11.9464 -112.72864,14.44867 -139.19891,2.56629 -0.12493,-0.0561 -7.75278,8.44514 -9.17346,51.98259 z" id="path2296-3-6-7" sodipodi:nodetypes="ccccccccsc"/><path style="display:inline;fill-opacity:1;fill:#8aa7ff;stroke-dasharray:none;stroke-linecap:butt;stroke-linejoin:miter;stroke-miterlimit:4;stroke-opacity:1;stroke-width:0;stroke:#000000" d="m 223.81214,415.89001 c 35.65478,14.81043 126.84068,6.5298 142.09814,-1.79368 0.89414,-2.06033 1.8065,-3.10121 1.35561,-3.9811 -58.31295,15.78964 -128.23677,9.4382 -144.20697,1.59701 -0.28189,0.61096 1.40669,2.10557 1.20893,3.21447 -0.0552,0.30943 -0.29168,0.60005 -0.45571,0.9633 z" id="path2298-9-4-9" sodipodi:nodetypes="ccccsc"/><path style="display:inline;fill-opacity:1;fill:#8aa7ff;stroke-dasharray:none;stroke-linecap:butt;stroke-linejoin:miter;stroke-miterlimit:4;stroke-opacity:1;stroke-width:0;stroke:#000000" d="m 275.25299,462.86252 c -12.30071,-3.84341 -10.24242,-38.06192 -8.39422,-42.36481 0.10337,-0.24065 6.70466,-0.007 6.80117,-0.0386 -0.14286,-0.008 -0.28501,-0.0153 -0.42641,-0.0219 -4.0967,-0.18979 -7.561,0.22503 -9.12434,-0.44654 -1.55247,9.38892 -5.87824,43.63579 11.1438,42.87185 z" id="path2300-0-3-8" sodipodi:nodetypes="cscscc"/><path style="display:inline;fill-opacity:1;fill:#8aa7ff;stroke-dasharray:none;stroke-linecap:butt;stroke-linejoin:miter;stroke-miterlimit:4;stroke-opacity:1;stroke-width:0;stroke:#000000" d="m 356.28203,444.8129 c -31.56327,-6.76001 -36.08141,-20.9697 -36.88946,-25.86634 -1.02422,-0.29348 -2.03709,0.77235 -2.39603,0.55362 -0.0837,1.32642 8.77861,23.21162 39.28549,25.31272 z" id="path2302-4-1-1" sodipodi:nodetypes="cccc"/><path style="display:inline;fill-opacity:1;fill:#8aa7ff;stroke-dasharray:none;stroke-linecap:butt;stroke-linejoin:miter;stroke-miterlimit:4;stroke-opacity:1;stroke-width:0;stroke:#000000" d="m 222.23265,435.35375 c 9.31024,-1.01499 16.40296,-13.94481 15.59491,-18.84145 -1.02422,-0.29348 -0.41393,-0.14186 -0.77287,-0.36059 -0.0837,1.32642 -1.64142,12.72594 -14.82204,19.20204 z" id="path2304-4-0-2" sodipodi:nodetypes="cccc"/><path sodipodi:nodetypes="ccc" id="path3280-7-2-6-6-0-7-0-3" class="shadow" d="m 329.89265,425.68684 c -15.4791,1.19068 -42.03653,26.26041 -44.60913,30.99635 10.29989,-9.14088 29.75951,-26.28541 44.60913,-30.99635 z"/><path sodipodi:nodetypes="ccc" id="path3282-5-4-0-8-3-8-4-9" class="shadow" d="m 262.15056,457.53513 c -6.81704,-9.41592 -28.83006,-31.99347 -34.93819,-34.15183 5.05404,5.44075 26.5203,25.35081 34.93819,34.15183 z"/><path d="m 262.98857,459.03749 c 4.57815,9.39542 7.95428,8.94718 11.45233,8.01034 0.29456,-0.0789 5.02218,4.77996 9.26343,-8.71666 -1.38475,8.70911 -4.94655,11.61521 -9.3291,9.47151 -0.0226,-0.0111 -2.82256,1.04466 -4.71233,0.003 -2.95847,-1.63089 -6.486,-5.556 -6.67433,-8.7681 z" class="shadow" id="path4347-6-2-8-7-7" sodipodi:nodetypes="cscsscc"/><path d="m 274.84429,467.66511 c -0.33521,1.70859 0.19151,9.15085 0.3994,10.94825 -1.47124,-0.0994 -1.90021,-9.61487 -0.3994,-10.94825 z" class="shadow" id="path4347-6-8-2-3-0-7-1-7" sodipodi:nodetypes="ccc"/></svg>
