<svg viewBox="0 0 560 1000"><path style="display:inline;fill-opacity:1;fill-rule:evenodd;fill:#000000;opacity:1;stroke-dasharray:none;stroke-linecap:butt;stroke-linejoin:miter;stroke-miterlimit:4;stroke-opacity:1;stroke-width:0;stroke:#000000" d="m 370.45236,268.71102 c 3.98205,15.96646 5.20868,48.76604 -5.57044,79.15933 9.29471,24.14374 16.83449,50.9617 -2.68168,71.84746 -52.87,4.34813 -59.55245,28.13229 -83.32239,48.06223 -0.26944,0.20641 -1.13656,1.14752 -4.58251,0.28177 -0.17413,-0.0437 -1.37345,0.71664 -3.61847,0.0361 -4.76561,-27.49788 -25.93313,-36.08382 -45.60686,-51.43634 -15.64702,-29.76344 -4.33904,-57.81969 9.03105,-97.59617 -4.75535,-24.07335 -1.67856,-35.70225 -1.40876,-44.80638 2.45072,-30.83519 7.12595,-44.73823 43.86639,-67.38836 -0.63873,-0.33426 4.57299,-4.57179 9.09752,-6.97413 2.92341,-4.5213 2.94604,-6.88256 3.21496,-7.63841 7.59995,3.04875 12.54042,2.39227 26.09377,0.45427 0,0 2.20771,4.67981 3.14054,5.85732 1.50252,1.12706 9.10193,4.89722 7.88644,5.69617 -25.72677,16.91039 -30.9022,28.84774 -29.45936,29.06832 3.13994,1.52155 66.54554,33.43249 67.65165,34.25705 z" id="path5854-5-1-9" sodipodi:nodetypes="ccccscccccccscsccc"/><path style="display:inline;fill-opacity:1;fill-rule:evenodd;fill:#725d49;opacity:1;stroke-dasharray:none;stroke-linecap:butt;stroke-linejoin:miter;stroke-miterlimit:4;stroke-opacity:1;stroke-width:0;stroke:#000000" d="m 364.00147,347.96251 c 13.94728,31.8706 12.58862,50.84987 -1.82223,72.69588 -40.10653,11.44456 -75.10045,35.08888 -75.87212,37.42665 -0.78385,1.88787 -4.7912,9.82211 -7.2881,11.60252 -1.21712,0.86786 -4.56426,-0.37235 -4.8162,-0.39645 -0.29397,-0.0276 -0.77535,0.50225 -2.98817,-0.0701 -5.65546,-1.4629 -10.22974,-5.40448 -10.80185,-7.35518 -18.43111,-29.49711 -30.56312,-44.6982 -35.28853,-45.88715 -16.92655,-38.98555 4.38905,-75.29074 9.90034,-96.5432 -4.27241,-20.09749 -1.93015,-36.96845 -1.52615,-52.81055 1.01563,-36.61898 15.30274,-53.39967 43.43766,-60.64383 0.49229,-0.51848 4.93756,-4.44419 9.41452,-6.84653 1.01736,-0.38611 2.31779,-5.23047 2.81949,-6.89932 6.65758,3.87428 25.29635,0.45747 25.62567,1.1562 0.97035,2.05878 1.84469,4.05751 2.988,5.79136 1.48672,1.12706 18.23182,7.00546 18.7637,8.34782 24.04525,1.12858 33.84226,11.72196 34.47022,42.80513 2.90401,40.6321 2.0439,70.08555 -7.01625,97.62675 z" id="path5856-6-7-2" sodipodi:nodetypes="cccssscccccccscccc"/><path style="display:inline;fill-opacity:1;fill:#000000;stroke-dasharray:none;stroke-linecap:butt;stroke-linejoin:miter;stroke-miterlimit:4;stroke-opacity:1;stroke-width:0;stroke:#000000" d="m 225.59803,414.50423 c 13.0124,5.20002 29.36397,56.66207 49.38576,54.95988 13.4605,-1.86072 14.12966,-32.15215 76.46023,-57.39497 -1.99871,-6.0195 -17.05662,-30.7307 -17.68549,-32.70297 -0.0813,-0.25494 -1.22374,-2.21355 -1.22374,-2.21355 -45.102,11.9464 -87.26241,7.51113 -92.60275,-1.89265 0,0 -9.20102,27.52661 -14.33401,39.24426 z" id="path5858-3-6-5" sodipodi:nodetypes="cccscsc"/><path style="display:inline;fill-opacity:1;fill:#725d49;stroke-dasharray:none;stroke-linecap:butt;stroke-linejoin:miter;stroke-miterlimit:4;stroke-opacity:1;stroke-width:0;stroke:#000000" d="m 224.05743,416.09574 c 0.8874,16.95002 31.24785,56.57108 51.26964,54.86889 13.4605,-1.86072 24.55644,-26.0486 86.88701,-51.29142 -5.52595,-11.9083 -17.02186,-24.68312 -23.55806,-36.00751 -45.102,11.9464 -94.87875,8.32179 -100.21909,-1.08199 0,0 -9.24651,21.79438 -14.3795,33.51203 z" id="path5864-3-2-1" sodipodi:nodetypes="ccccsc"/><path style="display:inline;fill-opacity:1;fill:#000000;opacity:1;stroke-dasharray:none;stroke-linecap:butt;stroke-linejoin:miter;stroke-miterlimit:4;stroke-opacity:1;stroke-width:0;stroke:#000000" d="m 289.11888,215.04825 c -0.007,-0.15238 7.87213,-20.96789 7.93902,-21.16262 0,0 -7.88763,-2.17757 -7.98267,-1.95613 -0.52063,1.21301 -1.42255,3.99986 -2.29458,5.89032 0.099,0.227 2.33823,17.22843 2.33823,17.22843 z" id="path5867-1-3-9" sodipodi:nodetypes="csscc"/><path style="display:inline;fill-opacity:1;fill:#725d49;opacity:1;stroke-dasharray:none;stroke-linecap:butt;stroke-linejoin:miter;stroke-miterlimit:4;stroke-opacity:1;stroke-width:0;stroke:#000000" d="m 289.86716,210.04871 c -0.007,-0.14941 6.74558,-16.16139 6.81056,-16.35233 0,0 -7.73918,-2.13149 -7.84382,-1.92049 -0.65217,1.31501 -1.53901,4.35524 -2.18343,5.77505 0.0962,0.22258 3.21669,12.49777 3.21669,12.49777 z" id="path5870-7-4-5" sodipodi:nodetypes="csscc"/><path style="display:inline;fill-opacity:1;fill:#000000;opacity:1;stroke-dasharray:none;stroke-linecap:butt;stroke-linejoin:miter;stroke-miterlimit:4;stroke-opacity:1;stroke-width:0;stroke:#000000" d="m 275.45007,385.34392 c -0.0664,0.049 -1.39182,-0.0869 -1.58546,-0.12917 -3.40999,-0.74522 19.2566,-190.46416 24.25915,-190.51859 0,0 9.9816,0.36067 8.15973,0.35931 -4.05459,-0.91193 -25.06749,186.14721 -24.62563,189.69739 z" id="path5872-2-3-1" sodipodi:nodetypes="cssccc"/><path style="display:inline;fill-opacity:1;fill:#725d49;opacity:1;stroke-dasharray:none;stroke-linecap:butt;stroke-linejoin:miter;stroke-miterlimit:4;stroke-opacity:1;stroke-width:0;stroke:#000000" d="m 275.06385,384.41234 c -0.0664,0.049 -1.76682,-0.0556 -1.96046,-0.0979 -3.40999,-0.74522 19.2566,-190.33916 24.25915,-190.39359 0,0 9.9816,0.36067 8.15973,0.35931 -4.72947,-0.95364 -25.12648,185.84267 -24.485,189.58802 z" id="path5874-7-3-8" sodipodi:nodetypes="cssccc"/><path style="display:inline;fill-opacity:1;fill:#000000;opacity:1;stroke-dasharray:none;stroke-linecap:butt;stroke-linejoin:miter;stroke-miterlimit:4;stroke-opacity:1;stroke-width:0;stroke:#000000" d="m 304.52262,215.99753 c 0.007,-0.15238 -5.40967,-21.68572 -5.47656,-21.88045 0,0 16.66716,-3.24346 16.80942,-3.04896 0.86438,1.18176 1.8458,5.90519 2.28033,6.5769 -0.099,0.227 -13.61319,18.35251 -13.61319,18.35251 z" id="path5876-9-8-4" sodipodi:nodetypes="csscc"/><path style="display:inline;fill-opacity:1;fill:#725d49;opacity:1;stroke-dasharray:none;stroke-linecap:butt;stroke-linejoin:miter;stroke-miterlimit:4;stroke-opacity:1;stroke-width:0;stroke:#000000" d="m 305.15512,212.99967 c 0.007,-0.14856 -6.32959,-18.84697 -6.39549,-19.03682 0,0 16.43332,-3.17545 16.57349,-2.98583 0.85164,1.15214 1.80688,5.77047 2.23501,6.42534 -0.0975,0.22131 -12.41301,15.59731 -12.41301,15.59731 z" id="path5878-5-9-1" sodipodi:nodetypes="csscc"/><path style="display:inline;fill-opacity:1;fill:#000000;opacity:1;stroke-dasharray:none;stroke-linecap:butt;stroke-linejoin:miter;stroke-miterlimit:4;stroke-opacity:1;stroke-width:0;stroke:#000000" d="m 318.34141,206.04031 c 0.007,-0.14856 1.42041,-6.72197 1.35451,-6.91182 0,0 29.69411,9.43731 29.65299,9.6695 -0.0546,0.30839 -0.36637,2.67764 -0.46949,2.77001 -0.0975,0.22131 -30.53801,-5.52769 -30.53801,-5.52769 z" id="path5881-9-2-5" sodipodi:nodetypes="csscc"/><path style="display:inline;fill-opacity:1;fill:#000000;opacity:1;stroke-dasharray:none;stroke-linecap:butt;stroke-linejoin:miter;stroke-miterlimit:4;stroke-opacity:1;stroke-width:0;stroke:#000000" d="m 286.36935,205.61511 c 0.0133,-0.14802 0.0535,-6.76164 0.10936,-6.94624 0,0 -16.32306,7.59037 -16.32898,7.82346 -0.008,0.30956 -0.12357,2.68146 -0.0814,2.7794 0.0242,0.22566 16.30106,-3.65662 16.30106,-3.65662 z" id="path5884-7-1-1" sodipodi:nodetypes="csscc"/><path style="display:inline;fill-opacity:1;fill:#725d49;opacity:1;stroke-dasharray:none;stroke-linecap:butt;stroke-linejoin:miter;stroke-miterlimit:4;stroke-opacity:1;stroke-width:0;stroke:#000000" d="m 285.63987,205.08424 c 0.0133,-0.14802 0.0535,-6.76164 0.10936,-6.94624 0,0 -16.32306,7.59037 -16.32898,7.82346 -0.008,0.30956 -0.12357,2.68146 -0.0814,2.7794 0.0242,0.22566 16.30106,-3.65662 16.30106,-3.65662 z" id="path5886-1-4-7" sodipodi:nodetypes="csscc"/><path style="display:inline;fill-opacity:1;fill:#725d49;opacity:1;stroke-dasharray:none;stroke-linecap:butt;stroke-linejoin:miter;stroke-miterlimit:4;stroke-opacity:1;stroke-width:0;stroke:#000000" d="m 319.37125,205.43891 c 0.007,-0.14856 1.34146,-6.72197 1.27922,-6.91182 0,0 28.04354,9.43731 28.00471,9.6695 -0.0516,0.30839 -0.34601,2.67764 -0.44339,2.77001 -0.0921,0.22131 -28.84054,-5.52769 -28.84054,-5.52769 z" id="path5888-6-4-9" sodipodi:nodetypes="csscc"/><path style="display:inline;fill-opacity:1;fill:#000000;opacity:1;stroke-dasharray:none;stroke-linecap:butt;stroke-linejoin:miter;stroke-miterlimit:4;stroke-opacity:1;stroke-width:0;stroke:#000000" d="m 278.97374,429.3684 c 0.007,-0.14856 2.52919,-37.05355 2.46695,-37.2434 0,0 35.11831,-1.77555 54.48573,-7.94966 0.29791,-0.095 33.93162,21.79528 33.83424,21.88765 -0.0921,0.22131 -90.78692,23.30541 -90.78692,23.30541 z" id="path5890-8-2-9" sodipodi:nodetypes="csscc"/><path style="display:inline;fill-opacity:1;fill:#000000;opacity:1;stroke-dasharray:none;stroke-linecap:butt;stroke-linejoin:miter;stroke-miterlimit:4;stroke-opacity:1;stroke-width:0;stroke:#000000" d="m 278.6823,429.54052 c -0.007,-0.14856 4.33217,-40.73216 4.39441,-40.92201 0,0 -36.17101,1.96465 -45.00718,-7.17821 -0.21729,-0.22483 -16.73415,24.44422 -16.63677,24.53659 0.0921,0.22131 57.24954,23.56363 57.24954,23.56363 z" id="path5892-6-3-4" sodipodi:nodetypes="csscc"/><path style="display:inline;fill-opacity:1;fill:#725d49;opacity:1;stroke-dasharray:none;stroke-linecap:butt;stroke-linejoin:miter;stroke-miterlimit:4;stroke-opacity:1;stroke-width:0;stroke:#000000" d="m 278.03602,427.71792 c -0.007,-0.15017 2.93507,-44.01036 2.99731,-44.20227 0,0 -36.23806,-4.9715 -42.57423,-8.71357 -0.27074,-0.1599 -17.2075,29.61886 -17.11012,29.71223 0.0921,0.22372 56.68704,23.20361 56.68704,23.20361 z" id="path5895-3-9-3" sodipodi:nodetypes="csscc"/><path style="display:inline;fill-opacity:1;fill:#725d49;opacity:1;stroke-dasharray:none;stroke-linecap:butt;stroke-linejoin:miter;stroke-miterlimit:4;stroke-opacity:1;stroke-width:0;stroke:#000000" d="m 279.21433,427.75073 c 0.007,-0.14856 2.02384,-37.68465 2.48906,-44.20398 0,0 31.58354,-1.15481 50.94769,-7.33917 11.02805,10.50941 26.18281,18.7759 37.19484,28.90063 -0.0921,0.22131 -90.63159,22.6425 -90.63159,22.6425 z" id="path5898-3-2-5" sodipodi:nodetypes="cscccc"/><path style="display:inline;fill-opacity:1;fill:#000000;opacity:1;stroke-dasharray:none;stroke-linecap:butt;stroke-linejoin:miter;stroke-miterlimit:4;stroke-opacity:1;stroke-width:0;stroke:#000000" d="m 224.71638,348.6372 c 0.007,-0.14856 4.18077,-13.26719 4.77831,-12.89986 5.64391,3.46962 136.87258,7.27783 137.2086,4.28623 0.0207,-0.18441 -1.04186,3.70218 -1.75994,7.54583 -0.49184,2.63265 1.15826,4.75287 1.48058,5.72184 0.0797,2.0576 -140.80298,-1.0358 -141.70755,-4.65404 z" id="path5904-6-7-3" sodipodi:nodetypes="cssscc"/><path id="path5906-2-3-6" d="m 299.09689,220.15135 a 3.005204,3.1377864 0 0 1 -3.0052,3.13779 3.005204,3.1377864 0 0 1 -3.00521,-3.13779 3.005204,3.1377864 0 0 1 3.00521,-3.13779 3.005204,3.1377864 0 0 1 3.0052,3.13779 z" style="display:inline;fill-opacity:1;fill-rule:nonzero;fill:#c8ab37;opacity:1;stroke-dasharray:none;stroke-linecap:butt;stroke-linejoin:round;stroke-miterlimit:4;stroke-opacity:1;stroke-width:0;stroke:#000000"/><path id="path5908-2-8-0" d="m 287.07608,314.19657 a 3.005204,3.1377864 0 0 1 -3.00521,3.13779 3.005204,3.1377864 0 0 1 -3.00521,-3.13779 3.005204,3.1377864 0 0 1 3.00521,-3.13779 3.005204,3.1377864 0 0 1 3.00521,3.13779 z" style="display:inline;fill-opacity:1;fill-rule:nonzero;fill:#c8ab37;opacity:1;stroke-dasharray:none;stroke-linecap:butt;stroke-linejoin:round;stroke-miterlimit:4;stroke-opacity:1;stroke-width:0;stroke:#000000"/><path id="path5910-7-6-6" d="m 289.9045,290.15493 a 3.005204,3.1377864 0 0 1 -3.0052,3.13779 3.005204,3.1377864 0 0 1 -3.00522,-3.13779 3.005204,3.1377864 0 0 1 3.00522,-3.13779 3.005204,3.1377864 0 0 1 3.0052,3.13779 z" style="display:inline;fill-opacity:1;fill-rule:nonzero;fill:#c8ab37;opacity:1;stroke-dasharray:none;stroke-linecap:butt;stroke-linejoin:round;stroke-miterlimit:4;stroke-opacity:1;stroke-width:0;stroke:#000000"/><path id="path5912-4-6-0" d="m 293.08649,266.46685 a 3.005204,3.1377864 0 0 1 -3.0052,3.13779 3.005204,3.1377864 0 0 1 -3.00521,-3.13779 3.005204,3.1377864 0 0 1 3.00521,-3.13779 3.005204,3.1377864 0 0 1 3.0052,3.13779 z" style="display:inline;fill-opacity:1;fill-rule:nonzero;fill:#c8ab37;opacity:1;stroke-dasharray:none;stroke-linecap:butt;stroke-linejoin:round;stroke-miterlimit:4;stroke-opacity:1;stroke-width:0;stroke:#000000"/><path id="path5914-8-8-5" d="m 296.44524,242.24844 a 3.005204,3.1377864 0 0 1 -3.0052,3.13779 3.005204,3.1377864 0 0 1 -3.00521,-3.13779 3.005204,3.1377864 0 0 1 3.00521,-3.13779 3.005204,3.1377864 0 0 1 3.0052,3.13779 z" style="display:inline;fill-opacity:1;fill-rule:nonzero;fill:#c8ab37;opacity:1;stroke-dasharray:none;stroke-linecap:butt;stroke-linejoin:round;stroke-miterlimit:4;stroke-opacity:1;stroke-width:0;stroke:#000000"/><path id="path5929-7-6-0" d="m 284.42442,336.82397 a 3.005204,3.1377864 0 0 1 -3.0052,3.13779 3.005204,3.1377864 0 0 1 -3.00521,-3.13779 3.005204,3.1377864 0 0 1 3.00521,-3.13779 3.005204,3.1377864 0 0 1 3.0052,3.13779 z" style="display:inline;fill-opacity:1;fill-rule:nonzero;fill:#c8ab37;opacity:1;stroke-dasharray:none;stroke-linecap:butt;stroke-linejoin:round;stroke-miterlimit:4;stroke-opacity:1;stroke-width:0;stroke:#000000"/><path id="path5932-9-3-3" d="m 282.83343,358.92107 a 3.005204,3.1377864 0 0 1 -3.0052,3.13779 3.005204,3.1377864 0 0 1 -3.00521,-3.13779 3.005204,3.1377864 0 0 1 3.00521,-3.13779 3.005204,3.1377864 0 0 1 3.0052,3.13779 z" style="display:inline;fill-opacity:1;fill-rule:nonzero;fill:#c8ab37;opacity:1;stroke-dasharray:none;stroke-linecap:butt;stroke-linejoin:round;stroke-miterlimit:4;stroke-opacity:1;stroke-width:0;stroke:#000000"/><path id="path5934-1-9-6" d="m 280.88888,378.18973 a 3.005204,3.1377864 0 0 1 -3.0052,3.13779 3.005204,3.1377864 0 0 1 -3.00521,-3.13779 3.005204,3.1377864 0 0 1 3.00521,-3.13779 3.005204,3.1377864 0 0 1 3.0052,3.13779 z" style="display:inline;fill-opacity:1;fill-rule:nonzero;fill:#c8ab37;opacity:1;stroke-dasharray:none;stroke-linecap:butt;stroke-linejoin:round;stroke-miterlimit:4;stroke-opacity:1;stroke-width:0;stroke:#000000"/><path id="path5936-9-9-1" d="m 283.379,204.10002 a 1.2374378,1.4584099 83.139098 0 1 -1.59579,-1.05436 1.2374378,1.4584099 83.139098 0 1 1.30015,-1.4028 1.2374378,1.4584099 83.139098 0 1 1.59579,1.05436 1.2374378,1.4584099 83.139098 0 1 -1.30015,1.4028 z" style="display:inline;fill-opacity:1;fill-rule:nonzero;fill:#c8ab37;opacity:1;stroke-dasharray:none;stroke-linecap:butt;stroke-linejoin:round;stroke-miterlimit:4;stroke-opacity:1;stroke-width:0;stroke:#000000"/><path id="path5938-2-0-6" d="m 323.44032,204.30799 a 1.2374378,1.4584099 83.139098 0 1 -1.59579,-1.05436 1.2374378,1.4584099 83.139098 0 1 1.30015,-1.4028 1.2374378,1.4584099 83.139098 0 1 1.59579,1.05436 1.2374378,1.4584099 83.139098 0 1 -1.30015,1.4028 z" style="display:inline;fill-opacity:1;fill-rule:nonzero;fill:#c8ab37;opacity:1;stroke-dasharray:none;stroke-linecap:butt;stroke-linejoin:round;stroke-miterlimit:4;stroke-opacity:1;stroke-width:0;stroke:#000000"/><path d="m 329.87921,425.70416 c -15.4791,1.19068 -42.03653,26.26041 -44.60913,30.99635 10.29989,-9.14088 29.75951,-26.28541 44.60913,-30.99635 z" class="shadow" id="path5940-6-0-4" sodipodi:nodetypes="ccc"/><path d="m 262.13712,457.55245 c -6.81704,-9.41592 -28.83006,-31.99347 -34.93819,-34.15183 5.05404,5.44075 26.5203,25.35081 34.93819,34.15183 z" class="shadow" id="path5942-6-1-9" sodipodi:nodetypes="ccc"/><path d="m 329.8875,425.70175 c -15.4791,1.19068 -42.03653,26.26041 -44.60913,30.99635 10.29989,-9.14088 29.75951,-26.28541 44.60913,-30.99635 z" class="shadow" id="path5944-0-8-7" sodipodi:nodetypes="ccc"/><path d="m 262.14541,457.55004 c -6.81704,-9.41592 -28.83006,-31.99347 -34.93819,-34.15183 5.05404,5.44075 26.5203,25.35081 34.93819,34.15183 z" class="shadow" id="path5946-5-9-3" sodipodi:nodetypes="ccc"/><path sodipodi:nodetypes="ssssscsssss" id="path5948-8-4-5" d="m 290.73517,200.30981 c -0.0591,-0.0482 -1.09627,-0.0769 -1.15683,-0.11691 0,0 0.90981,-0.99335 0.97761,-1.11923 0,0 -0.15252,-1.4205 -0.13214,-1.57786 0,0 0.6608,0.95037 0.74613,0.84823 l 0.98706,-1.18144 c 0,0 -0.32375,1.6382 -0.35104,1.85837 -0.0278,0.22437 0.76596,0.88401 0.71688,0.97297 -0.11118,0.20153 -0.86921,0.25184 -0.89852,0.31922 -0.0386,0.0887 -0.39243,1.822 -0.39243,1.822 -0.0441,-0.10966 -0.46065,-1.79591 -0.49672,-1.82535 z" style="display:inline;fill:#800000"/><path sodipodi:nodetypes="ssssscsssss" id="path5950-7-5-0" d="m 306.68951,198.95155 c 0.12445,0.0382 2.03328,-0.56036 2.15766,-0.53581 0,0 -1.3308,2.10593 -1.41247,2.34335 0,0 0.75849,2.11027 0.77426,2.36716 0,0 -1.53058,-1.06541 -1.65235,-0.85396 l -1.4088,2.44576 c 0,0 0.0401,-2.74346 0.0158,-3.10212 -0.0247,-0.36553 -1.70076,-0.89719 -1.6409,-1.06571 0.1356,-0.38174 1.50658,-0.92986 1.53758,-1.05252 0.0408,-0.16163 0.10389,-3.07133 0.10389,-3.07133 0.11787,0.14279 1.4494,2.50186 1.52527,2.52526 z" style="display:inline;fill:#800000"/><path style="display:inline;fill-opacity:1;fill:#4d351f;opacity:1;stroke-dasharray:none;stroke-linecap:butt;stroke-linejoin:miter;stroke-miterlimit:4;stroke-opacity:1;stroke-width:0;stroke:#000000" d="m 225.12171,347.94443 c 0.007,-0.13533 3.61383,-11.81696 4.21137,-11.48232 5.64391,3.16074 136.85898,6.98051 137.19501,4.25523 0.0208,-0.16859 -1.03136,3.34097 -1.66392,6.84881 -0.42945,2.38152 1.61843,4.44512 1.31734,5.23825 0.0797,1.87442 -140.15523,-1.56379 -141.0598,-4.85997 z" id="path5952-02-9-3" sodipodi:nodetypes="cssscc"/><path id="path5954-1-6-1" d="m 273.38517,346.92057 a 1.2374377,1.3479245 0 0 1 -1.23743,1.34792 1.2374377,1.3479245 0 0 1 -1.23744,-1.34792 1.2374377,1.3479245 0 0 1 1.23744,-1.34793 1.2374377,1.3479245 0 0 1 1.23743,1.34793 z" style="display:inline;fill-opacity:1;fill-rule:nonzero;fill:#000000;opacity:1;stroke-dasharray:none;stroke-linecap:butt;stroke-linejoin:round;stroke-miterlimit:4;stroke-opacity:1;stroke-width:0;stroke:#000000"/><path id="path5956-9-2-4" d="m 268.57675,338.83472 c -0.13407,4.75154 -0.24689,8.9957 -0.37141,14.48554 0.57028,0.0157 7.76933,0.57721 7.76598,0.20263 -7.9e-4,-0.10615 0.27306,-1.56653 -0.1108,-1.65014 -0.41402,-0.0902 -6.04016,0.11043 -5.96194,-0.40107 0.0589,-0.3853 0.26808,-8.3539 0.32354,-10.31849 0.0102,-0.36892 6.24425,0.0815 6.28073,-0.23311 0.18908,-1.63147 0.0982,-1.89392 -0.19654,-2.05851 -5.0226,-0.13054 -7.67079,-0.54287 -7.72956,-0.0269 z" style="display:inline;fill-opacity:1;fill-rule:nonzero;fill:#c8ab37;opacity:1;stroke-dasharray:none;stroke-linecap:butt;stroke-linejoin:round;stroke-miterlimit:4;stroke-opacity:1;stroke-width:0;stroke:#000000" sodipodi:nodetypes="ccssscscc"/><path id="path5958-5-4-0" d="m 266.80189,348.19497 c 0.008,-0.36892 4.89933,0.0815 4.92795,-0.23311 0.14835,-1.63147 0.077,-1.89392 -0.15421,-2.05851 -3.9408,-0.13054 -4.44938,-0.1465 -4.78971,0.006 -0.17423,0.43643 -0.16585,1.10969 0.0159,2.28554 z" style="display:inline;fill-opacity:1;fill-rule:nonzero;fill:#c8ab37;opacity:1;stroke-dasharray:none;stroke-linecap:butt;stroke-linejoin:round;stroke-miterlimit:4;stroke-opacity:1;stroke-width:0;stroke:#000000" sodipodi:nodetypes="csccc"/><path id="path5960-7-9-5" d="m 288.20021,339.57505 c -0.11087,4.65361 -0.20298,8.81027 -0.30069,14.18682 0.57034,0.0126 7.77205,0.52651 7.76687,0.15971 0.10342,-4.60823 0.40613,-13.59162 0.26341,-14.35877 -5.02317,-0.10279 -7.67334,-0.49337 -7.72959,0.0121 z" style="display:inline;fill-opacity:1;fill-rule:nonzero;fill:#000000;opacity:1;stroke-dasharray:none;stroke-linecap:butt;stroke-linejoin:round;stroke-miterlimit:4;stroke-opacity:1;stroke-width:0;stroke:#000000" sodipodi:nodetypes="cccccc"/><path id="path5962-99-8-9" d="m 288.48669,339.79244 c -0.10181,4.5108 -0.18631,8.53988 -0.27576,13.75142 0.52872,0.0124 7.20478,0.51198 7.19991,0.15644 0.0949,-4.4668 0.37361,-13.17445 0.24115,-13.91809 -4.65649,-0.1007 -7.11328,-0.47984 -7.1653,0.0101 z" style="display:inline;fill-opacity:1;fill-rule:nonzero;fill:#4d351f;opacity:1;stroke-dasharray:none;stroke-linecap:butt;stroke-linejoin:round;stroke-miterlimit:4;stroke-opacity:1;stroke-width:0;stroke:#000000" sodipodi:nodetypes="cccccc"/><path id="path5964-4-7-1" d="m 282.35659,347.4288 a 1.2374377,1.3479245 0 0 1 -1.23743,1.34792 1.2374377,1.3479245 0 0 1 -1.23744,-1.34792 1.2374377,1.3479245 0 0 1 1.23744,-1.34793 1.2374377,1.3479245 0 0 1 1.23743,1.34793 z" style="display:inline;fill-opacity:1;fill-rule:nonzero;fill:#000000;opacity:1;stroke-dasharray:none;stroke-linecap:butt;stroke-linejoin:round;stroke-miterlimit:4;stroke-opacity:1;stroke-width:0;stroke:#000000"/><path id="path5966-2-3-9" d="m 302.86269,348.09171 a 1.2374377,1.3479245 0 0 1 -1.23743,1.34792 1.2374377,1.3479245 0 0 1 -1.23744,-1.34792 1.2374377,1.3479245 0 0 1 1.23744,-1.34793 1.2374377,1.3479245 0 0 1 1.23743,1.34793 z" style="display:inline;fill-opacity:1;fill-rule:nonzero;fill:#000000;opacity:1;stroke-dasharray:none;stroke-linecap:butt;stroke-linejoin:round;stroke-miterlimit:4;stroke-opacity:1;stroke-width:0;stroke:#000000"/><path id="path5968-7-8-6" d="m 314.66253,348.2243 a 1.2374377,1.3479245 0 0 1 -1.23743,1.34792 1.2374377,1.3479245 0 0 1 -1.23744,-1.34792 1.2374377,1.3479245 0 0 1 1.23744,-1.34793 1.2374377,1.3479245 0 0 1 1.23743,1.34793 z" style="display:inline;fill-opacity:1;fill-rule:nonzero;fill:#000000;opacity:1;stroke-dasharray:none;stroke-linecap:butt;stroke-linejoin:round;stroke-miterlimit:4;stroke-opacity:1;stroke-width:0;stroke:#000000"/><path id="path5970-28-8-6" d="m 262.36245,346.24997 a 1.2374377,1.3479245 0 0 1 -1.23743,1.34792 1.2374377,1.3479245 0 0 1 -1.23744,-1.34792 1.2374377,1.3479245 0 0 1 1.23744,-1.34793 1.2374377,1.3479245 0 0 1 1.23743,1.34793 z" style="display:inline;fill-opacity:1;fill-rule:nonzero;fill:#000000;opacity:1;stroke-dasharray:none;stroke-linecap:butt;stroke-linejoin:round;stroke-miterlimit:4;stroke-opacity:1;stroke-width:0;stroke:#000000"/><path id="path5962-5-3-3-7" d="m 316.06138,340.90521 c -0.13141,4.1253 -0.24198,7.8101 -0.36401,12.57639 0.55891,0.0138 7.61445,0.50113 7.61117,0.17591 8.3824,-2.16138 8.81913,-5.60719 8.69722,-6.13161 -0.11681,-0.50253 -1.15853,-4.68907 -8.36891,-6.59738 -4.92248,-0.11334 -7.51788,-0.47132 -7.57547,-0.0234 z" style="display:inline;fill-opacity:1;fill-rule:nonzero;fill:#000000;opacity:1;stroke-dasharray:none;stroke-linecap:butt;stroke-linejoin:round;stroke-miterlimit:4;stroke-opacity:1;stroke-width:0;stroke:#000000" sodipodi:nodetypes="cccsccc"/><path id="path5962-5-4-8-1-9" d="m 315.74864,341.28591 c -0.12505,3.78776 -0.23026,7.17104 -0.34639,11.54734 0.53186,0.0127 7.24588,0.46012 7.24275,0.16153 7.97665,-1.98455 8.39224,-5.14839 8.27624,-5.62992 -0.11116,-0.46139 -1.10246,-4.30538 -7.96382,-6.05755 -4.6842,-0.10408 -7.15398,-0.43275 -7.20878,-0.0215 z" style="display:inline;fill-opacity:1;fill-rule:nonzero;fill:#4d351f;opacity:1;stroke-dasharray:none;stroke-linecap:butt;stroke-linejoin:round;stroke-miterlimit:4;stroke-opacity:1;stroke-width:0;stroke:#000000" sodipodi:nodetypes="cccsccc"/></svg>
