<svg viewBox="0 0 560 1000"><path sodipodi:nodetypes="cccsccccccc" id="path6692" d="m 270.19769,417.71739 c -1.92938,-6.70782 -4.18105,-20.93947 -0.0755,-30.24396 3.28587,-16.05957 -1.98893,-24.77252 3.77305,-45.47135 0.78273,-1.72499 1.42313,-4.08041 1.42313,-5.23425 0,-2.92123 2.72097,-11.95425 3.75025,-12.45001 2.26402,-1.09046 2.37976,0.82982 0.32614,5.41078 -1.23107,2.74601 -2.19252,6.04644 -2.13658,7.33424 0.056,1.28783 -0.55016,4.92187 -1.34684,8.07562 -6.72281,14.06083 0.0224,34.27711 -3.19454,42.10768 -1.70301,3.83176 -2.42897,19.51748 -1.12834,27.8926 0.69415,4.58799 -0.28869,6.41027 -1.39078,2.57865 z" style="display:inline;fill-opacity:1;fill:#464646;opacity:1;stroke-width:0.81192213"/><path sodipodi:nodetypes="ccccc" id="path6690" d="m 319.38673,426.77072 c 14.49566,-10.16198 14.72717,-20.61217 15.64209,-24.773 3.13138,10.84586 -7.53951,21.1955 -16.21413,27.36712 0,0 -8.71786,5.11336 0.57207,-2.59412 z" style="display:inline;fill-opacity:1;fill:#464646;opacity:1;stroke-width:0.54454345"/><path sodipodi:nodetypes="ccccscccssscc" id="path6694" d="m 321.52065,332.9544 c -2.05903,-3.27464 -4.37521,-4.90694 -9.29958,-8.72674 4.44477,0.34846 7.65604,3.56602 10.97124,6.19832 l 1.82153,1.42541 6.81692,-2.97831 c 3.74934,-1.63808 5.06232,-1.79735 5.29439,-1.65028 0.23212,0.14707 -0.36349,0.7048 -3.7002,2.53583 -3.33673,1.83101 -6.74525,4.03293 -7.57451,4.89316 -0.0888,0.6477 0.11575,2.03457 0.41541,3.72071 0.16591,0.93362 0.36098,1.95899 0.55152,3.00143 0.15434,0.84436 0.3057,1.69991 0.43621,2.52698 0.2261,1.43288 0.38958,2.78025 0.39741,3.83576 -1.44091,-4.86153 -5.09204,-11.64523 -6.13034,-14.78227 z" style="display:inline;fill-opacity:1;fill:#464646;opacity:1;stroke-width:0.76388013"/><path sodipodi:nodetypes="csccc" id="path6696" d="m 245.75414,329.63952 c 1.73122,-2.10353 9.7846,-7.58091 11.14618,-7.58091 1.37786,0 0.10056,1.51296 -3.22053,3.81404 -6.4979,4.6674 -12.169,9.1061 -13.77139,15.95889 -0.28563,-4.12454 3.79354,-9.65641 5.84574,-12.19202 z" style="display:inline;fill-opacity:1;fill:#464646;opacity:1;stroke-width:0.76388013"/><path id="path6698" d="m 263.6315,317.79777 c 1.01515,-1.0408 6.08875,-2.46001 6.66873,-1.86538 0.29926,0.30697 -0.82203,0.99005 -2.49205,1.51795 -3.485,1.10165 -5.03832,1.23086 -4.17668,0.34743 z" style="display:inline;fill-opacity:1;fill:#464646;opacity:1;stroke-width:0.76388013"/><path id="path6700" d="m 295.77432,316.22446 c -2.37505,-0.77691 -5.28987,-1.42386 -6.47737,-1.43764 -1.18752,-0.0133 -2.15914,-0.29869 -2.15914,-0.63313 0,-1.08519 3.84375,-0.6449 8.45186,0.96812 7.91792,2.77159 8.07044,3.68221 0.18473,1.10265 z" style="display:inline;fill-opacity:1;fill:#464646;opacity:1;stroke-width:0.76388013"/><path sodipodi:nodetypes="ccccc" id="path6702" d="m 235.16568,427.4714 c -6.18032,-10.24949 -6.27902,-20.78968 -6.6691,-24.98634 -1.33509,10.93927 3.21452,21.37803 6.91299,27.6028 0,0 3.71692,5.15739 -0.24389,-2.61646 z" style="display:inline;fill-opacity:1;fill:#464646;opacity:1;stroke-width:0.35709274"/></svg>
