<svg viewBox="0 0 560 1000"><path style="display:inline;fill-opacity:1;fill-rule:nonzero;fill:#000000;opacity:1;stroke-dasharray:none;stroke-linecap:butt;stroke-linejoin:miter;stroke-miterlimit:4;stroke-opacity:1;stroke-width:0;stroke:#000000" d="m 370.57368,268.65924 c 3.3245,28.3395 -6.72675,57.10955 -13.87012,79.17966 2.56335,6.42529 28.2159,52.28695 5.62168,70.37891 0,0 -64.9646,-3.14714 -76.47382,25.19023 -2.06147,4.01155 -2.1084,11.81811 -3.46792,16.10443 -0.27859,0.87834 -1.00697,6.35332 -3.50565,8.26757 -0.26944,0.20641 -1.13656,1.14752 -4.58251,0.28177 -0.17413,-0.0437 -1.37345,0.71664 -3.61847,0.0361 -5.83439,-1.76869 -6.66978,-8.86034 -6.76649,-9.28816 -1.98539,-8.78313 -6.24957,-28.02971 -9.43291,-34.24779 -14.19124,-27.72004 -27.97462,-8.06406 -29.28246,-10.40039 -13.60479,-47.50092 6.89154,-67.9933 11.63174,-93.57803 -1.86022,-11.21831 0.44553,-19.46724 -0.16478,-27.98353 0.023,-35.68853 -4.57783,-46.2164 39.58736,-85.57467 -0.63873,-0.33426 5.76049,-3.75929 10.28502,-6.16163 1.43082,-0.85664 10.68402,25.74457 10.29068,24.95701 -0.12491,-0.25011 -0.64543,-0.55498 -1.33868,0.14782 -0.64398,0.65286 22.17244,-28.24484 22.30977,-27.24411 1.50252,1.12706 9.10193,4.89722 7.88644,5.69617 -59.4139,34.61221 2.46751,42.24274 38.50165,63.17069 z" id="path4303-3-0" sodipodi:nodetypes="ccccsssssscccccsscccc"/><path style="display:inline;fill-opacity:1;fill-rule:evenodd;fill:#005b96;opacity:1;stroke-dasharray:none;stroke-linecap:butt;stroke-linejoin:miter;stroke-miterlimit:4;stroke-opacity:1;stroke-width:0;stroke:#000000" d="m 355.74002,347.38285 c 3.42867,7.59415 24.97332,48.88966 7.06422,72.40054 -40.10653,11.44456 -75.72545,35.96388 -76.49712,38.30165 -0.78385,1.88787 -4.7912,9.82211 -7.2881,11.60252 -1.21712,0.86786 -4.56426,-0.37235 -4.8162,-0.39645 -0.29397,-0.0276 -0.77535,0.50225 -2.98817,-0.0701 -5.65546,-1.4629 -10.22974,-5.40448 -10.80185,-7.35518 -45.47795,-24.37059 -34.75398,-40.41635 -35.41353,-47.26215 -10.22745,-55.52343 10.59525,-68.88869 13.72038,-94.02421 -1.74199,-10.44301 -0.24254,-16.62598 -0.99289,-25.77542 -6.14778,-53.43221 7.21115,-83.19412 39.20936,-88.82295 0.49229,-0.51848 5.43756,-2.25669 9.91452,-4.65903 9.84838,23.51827 8.84084,25.04443 9.47199,24.50789 1.18842,-0.79719 21.46117,-26.64717 21.46117,-26.64717 1.48672,1.12706 18.23182,7.00546 18.7637,8.34782 0,0 25.14245,-4.55003 34.62152,27.88685 3.43909,48.71951 -2.34008,72.46476 -15.429,111.96539 z" id="path4305-7-2" sodipodi:nodetypes="cccsssccccccccccc"/><path style="display:inline;fill-opacity:1;fill:#000000;stroke-dasharray:none;stroke-linecap:butt;stroke-linejoin:miter;stroke-miterlimit:4;stroke-opacity:1;stroke-width:0;stroke:#000000" d="m 317.7568,197.70738 c 0.2207,0.0743 3.8334,2.73309 6.28946,4.18757 -0.6321,2.54596 -22.44225,30.88285 -24.69505,35.48871 -2.38446,-0.93979 -5.79223,-1.49125 -7.66316,-1.81857 -0.6168,-8.70829 22.22468,-33.0033 26.06875,-37.85771 z" id="path4307-6-4" sodipodi:nodetypes="ccccc"/><path style="display:inline;fill-opacity:1;fill:#000000;stroke-dasharray:none;stroke-linecap:butt;stroke-linejoin:miter;stroke-miterlimit:4;stroke-opacity:1;stroke-width:0;stroke:#000000" d="m 234.81669,332.87608 c -0.008,-5.06807 3.44858,-8.72621 3.35487,-11.32426 2.26754,-0.31877 58.57716,0.2232 127.03083,-1.33145 -1.09612,2.00802 -2.87316,9.87763 -4.43647,13.5612 -52.42422,3.39961 -120.24779,-0.74277 -126.07423,-0.78047 z" id="path4309-0-6" sodipodi:nodetypes="cccccc"/><path style="display:inline;fill-opacity:1;fill:#327bab;stroke-dasharray:none;stroke-linecap:butt;stroke-linejoin:miter;stroke-miterlimit:4;stroke-opacity:1;stroke-width:0;stroke:#000000" d="m 318.58329,198.16182 c 0.2207,0.0743 3.8334,2.73309 6.28946,4.18757 -0.6321,2.54596 -22.44225,30.88286 -24.69505,35.48872 -2.38446,-0.93979 -5.79223,-1.49125 -7.66316,-1.81857 -0.6168,-8.70829 22.22468,-33.00331 26.06875,-37.85772 z" id="path4312-1-4" sodipodi:nodetypes="ccccc"/><path style="display:inline;fill-opacity:1;fill:#000000;stroke-dasharray:none;stroke-linecap:butt;stroke-linejoin:miter;stroke-miterlimit:4;stroke-opacity:1;stroke-width:0;stroke:#000000" d="m 279.87719,204.50634 c 0.1767,-0.15169 4.3416,-3.51647 6.14002,-5.59108 1.86513,1.84465 31.599,82.99098 34.40618,87.28153 -2.02656,1.56905 -4.24242,4.21611 -5.48007,5.65685 -7.79998,-3.92111 -32.8587,-81.56202 -35.06613,-87.3473 z" id="path4314-2-7" sodipodi:nodetypes="ccccc"/><path style="display:inline;fill-opacity:1;fill:#327bab;stroke-dasharray:none;stroke-linecap:butt;stroke-linejoin:miter;stroke-miterlimit:4;stroke-opacity:1;stroke-width:0;stroke:#000000" d="m 279.87367,204.45214 c 0.1767,-0.15169 3.21124,-2.5223 4.92127,-4.95046 1.86513,1.84465 31.83338,83.44411 34.64056,87.73466 -2.02656,1.56905 -4.24242,4.21611 -5.48007,5.65685 -7.79998,-3.92111 -31.87433,-82.65577 -34.08176,-88.44105 z" id="path4316-4-9" sodipodi:nodetypes="ccccc"/><path style="display:inline;fill-opacity:1;fill:#004878;stroke-dasharray:none;stroke-linecap:butt;stroke-linejoin:miter;stroke-miterlimit:4;stroke-opacity:1;stroke-width:0;stroke:#000000" d="m 236.34564,332.05434 c -0.008,-5.06806 2.29217,-7.93959 2.19846,-10.53764 2.26754,-0.31877 56.73509,1.25349 125.18876,-0.30112 -0.79171,2.81475 -2.47786,7.70179 -3.43647,11.62553 -20.80519,3.71127 -121.46437,-0.94801 -123.93298,-0.69835 z" id="path4318-3-0" sodipodi:nodetypes="cccccc"/><path style="display:inline;fill-opacity:1;fill:#000000;stroke-dasharray:none;stroke-linecap:butt;stroke-linejoin:miter;stroke-miterlimit:4;stroke-opacity:1;stroke-width:0;stroke:#000000" d="m 237.50423,322.07625 c -4.27408,-14.16046 -3.45873,-36.47485 -1.55831,-45.31032 2.40938,-1.03747 63.22572,4.23734 135.96125,-0.82229 0.69478,2.46701 -3.50072,41.46868 -8.45883,45.60077 -55.70342,11.06417 -119.75322,0.65449 -125.94411,0.53184 z" id="path4320-5-9" sodipodi:nodetypes="ccccc"/><path style="display:inline;fill-opacity:1;fill:#004878;stroke-dasharray:none;stroke-linecap:butt;stroke-linejoin:miter;stroke-miterlimit:4;stroke-opacity:1;stroke-width:0;stroke:#000000" d="m 238.84167,320.63228 c -4.27408,-14.16046 -3.07929,-33.72669 -2.23953,-42.56216 2.40938,-1.03747 61.43023,4.55428 134.16577,-0.50535 0.69478,2.46701 -3.25333,37.87141 -8.21144,42.0035 -55.70343,11.06417 -117.52391,1.18666 -123.7148,1.06401 z" id="path4322-2-5" sodipodi:nodetypes="ccccc"/><path style="display:inline;fill-opacity:1;fill:#000000;stroke-dasharray:none;stroke-linecap:butt;stroke-linejoin:miter;stroke-miterlimit:4;stroke-opacity:1;stroke-width:0;stroke:#000000" d="m 240.40284,320.88694 c -4.52408,-15.47326 -4.42212,-29.90649 -4.5217,-38.25015 2.40938,-1.02375 62.09812,5.31846 134.83366,0.32572 0.69478,2.4344 -4.07655,32.37522 -8.65966,36.57768 -55.70343,10.9179 -115.46141,1.46778 -121.6523,1.34675 z" id="path4324-9-2" sodipodi:nodetypes="ccccc"/><path style="display:inline;fill-opacity:1;fill:#b669cd;stroke-dasharray:none;stroke-linecap:butt;stroke-linejoin:miter;stroke-miterlimit:4;stroke-opacity:1;stroke-width:0;stroke:#000000" d="m 238.70596,321.00174 c -4.52408,-15.02035 -3.63811,-29.85957 -2.1467,-37.2519 2.40938,-0.99379 60.53118,5.90286 133.26672,1.05626 0.69478,2.36314 -2.69267,31.37108 -6.30351,35.18537 -55.70343,10.59834 -118.62562,1.12776 -124.81651,1.01027 z" id="path4326-8-3" sodipodi:nodetypes="ccccc"/><path style="display:inline;fill-opacity:1;fill:#000000;stroke-dasharray:none;stroke-linecap:butt;stroke-linejoin:miter;stroke-miterlimit:4;stroke-opacity:1;stroke-width:0;stroke:#000000" d="m 236.04436,305.85332 c -0.96158,-1.61193 -0.60962,-2.71692 -0.7092,-3.35021 41.90938,3.6723 91.93628,4.79343 132.79682,1.66444 0.69478,0.18478 -0.50756,2.21403 -0.50756,2.21403 -40.51065,3.30805 -90.27371,2.50232 -131.58006,-0.52826 z" id="path4328-5-1" sodipodi:nodetypes="ccccc"/><path style="display:inline;fill-opacity:1;fill:#800000;stroke-dasharray:none;stroke-linecap:butt;stroke-linejoin:miter;stroke-miterlimit:4;stroke-opacity:1;stroke-width:0;stroke:#000000" d="m 235.79647,306.41292 c -0.96158,-1.61193 -0.60962,-2.71692 -0.7092,-3.35021 41.90938,3.6723 91.93628,4.79343 132.79682,1.66444 0.69478,0.18478 -0.50756,2.21403 -0.50756,2.21403 -40.51065,3.30805 -90.27371,2.50232 -131.58006,-0.52826 z" id="path4330-0-0" sodipodi:nodetypes="ccccc"/><path style="display:inline;fill-opacity:1;fill:#000000;stroke-dasharray:none;stroke-linecap:butt;stroke-linejoin:miter;stroke-miterlimit:4;stroke-opacity:1;stroke-width:0;stroke:#000000" d="m 338.41512,320.75464 c 0,0 2.87663,-3.25572 3.36676,-3.23822 4.2e-4,-3.94893 -8.64753,-10.16687 -8.64575,-10.31253 0.38578,-31.49315 32.55092,-2.93674 1.33707,0.92432 0.11811,-0.15841 -0.001,0.67087 -0.001,0.67087 37.3907,-2.18949 -4.8934,-38.02177 -2.10696,-1.63493 -0.006,0.0458 5.81658,8.53102 6.04988,13.59049 z" id="path4332-8-1" sodipodi:nodetypes="ccscccc"/><path style="display:inline;fill-opacity:1;fill:#800000;stroke-dasharray:none;stroke-linecap:butt;stroke-linejoin:miter;stroke-miterlimit:4;stroke-opacity:1;stroke-width:0;stroke:#000000" d="m 338.84728,320.61329 c 0,0 2.87663,-3.25572 3.36676,-3.23822 4.2e-4,-3.94893 -8.64753,-10.16687 -8.64575,-10.31253 0.38578,-31.49315 32.55092,-2.93674 1.33707,0.92432 0.11811,-0.15841 -10e-4,0.67087 -10e-4,0.67087 37.3907,-2.18949 -4.8934,-38.02177 -2.10696,-1.63493 -0.006,0.0458 5.81658,8.53102 6.04988,13.59049 z" id="path4334-3-6" sodipodi:nodetypes="ccscccc"/><path style="display:inline;fill-opacity:1;fill:#000000;stroke-dasharray:none;stroke-linecap:butt;stroke-linejoin:miter;stroke-miterlimit:4;stroke-opacity:1;stroke-width:0;stroke:#000000" d="m 333.94067,308.95116 c 0,0 0.0523,-0.2433 0.0786,-0.73304 -32.10822,-0.66766 -2.95893,-32.5879 0.48118,-1.57501 0.009,0.0808 -8.24657,6.79107 -8.56942,9.0603 0.99279,0.0116 2.39431,4.91885 2.39431,4.91885 0.9246,-5.98567 6.86506,-13.89337 6.86121,-13.97829 -1.67919,-37.11742 -38.28468,4.77451 -1.24583,2.30719 z" id="path4336-0-6" sodipodi:nodetypes="ccsccscc"/><path style="display:inline;fill-opacity:1;fill:#800000;stroke-dasharray:none;stroke-linecap:butt;stroke-linejoin:miter;stroke-miterlimit:4;stroke-opacity:1;stroke-width:0;stroke:#000000" d="m 334.37283,308.80981 c 0,0 0.0523,-0.2433 0.0786,-0.73304 -32.10822,-0.66766 -2.95893,-32.5879 0.48118,-1.57501 0.009,0.0808 -8.24657,6.79107 -8.56942,9.0603 0.99279,0.0116 2.39431,4.91885 2.39431,4.91885 0.9246,-5.98567 6.86506,-13.89337 6.86121,-13.97829 -1.67919,-37.11742 -38.28468,4.77451 -1.24583,2.30719 z" id="path4338-8-9" sodipodi:nodetypes="ccsccscc"/><path d="m 329.8875,425.70175 c -15.4791,1.19068 -42.03653,26.26041 -44.60913,30.99635 10.29989,-9.14088 29.75951,-26.28541 44.60913,-30.99635 z" class="shadow" id="path5772-6-5-7-8" sodipodi:nodetypes="ccc"/><path d="m 262.14541,457.55004 c -6.81704,-9.41592 -28.83006,-31.99347 -34.93819,-34.15183 5.05404,5.44075 26.5203,25.35081 34.93819,34.15183 z" class="shadow" id="path5774-7-1-8-9" sodipodi:nodetypes="ccc"/></svg>
