<svg viewBox="0 0 560 1000"><path d="m 311.493,132.10506 c -0.41093,-3.77403 -18.22573,-5.05624 -19.50912,3.85404 13.86662,5.11927 18.74811,-1.28478 19.50912,-3.85404 z" id="path4059-2-1-0-5" sodipodi:nodetypes="ccc" class="sclera"/><path d="m 305.76672,130.34218 c 2.26855,3.73056 -4.15711,7.94312 -6.94632,4.57451 -3.36632,-2.4161 -0.74509,-5.97447 1.08225,-5.44928 0.25155,6.49511 3.89315,3.74521 3.79063,0.0767 1.24229,3.3e-4 1.3943,0.43373 2.07344,0.79811 z" id="path4059-2" sodipodi:nodetypes="ccccc" class="eye"/><path sodipodi:nodetypes="sccccccccccscccsccccscccsccccsccccccccccccccccccsccccsccccccccsccccccc" d="m 302.83721,135.42328 c 0.97134,-0.40334 1.99507,-1.44584 2.30368,-2.34593 0.55446,-1.61715 0.2963,-2.44799 -0.81638,-2.62743 -0.64437,-0.10399 -0.65317,-0.0972 -0.75831,0.57638 -0.34647,2.22 -2.18379,3.2933 -3.09328,1.80701 -0.31354,-0.51236 -0.31585,-0.51293 -0.74026,-0.18353 -0.45732,0.35494 -1.20082,0.64822 -1.48897,0.58733 -0.0975,-0.0205 -0.0517,0.0628 0.10186,0.18525 0.15353,0.12249 0.42487,0.44519 0.60301,0.71714 0.42897,0.65491 2.03097,1.47031 2.97785,1.5157 0.1737,0.008 0.58355,-0.096 0.91077,-0.23192 z m -0.23442,-3.11769 c 0.4387,-0.46672 0.65031,-0.86194 0.46148,-0.86194 -0.0289,0 -0.36412,0.31701 -0.74481,0.70445 -0.38068,0.38745 -0.58834,0.70445 -0.46146,0.70445 0.12687,0 0.46202,-0.24613 0.74479,-0.54696 z m -3.83359,-0.0253 c 0.56362,-0.36664 0.98075,-0.95524 0.98075,-1.38395 0,-0.21728 -1.57908,-0.0192 -1.905,0.23897 -0.28187,0.22327 -0.28741,1.05307 -0.008,1.3299 0.27071,0.26903 0.21966,0.27915 0.9331,-0.18492 z m 2.75283,-0.54571 c 0,-0.0969 -0.19935,0.0105 -0.44302,0.23752 -0.24365,0.22748 -0.44303,0.49286 -0.44303,0.58973 0,0.0969 0.19938,-0.0105 0.44303,-0.23752 0.24367,-0.22749 0.44302,-0.49287 0.44302,-0.58973 z m 0.0886,-0.64305 0.69218,-0.70445 -0.61189,0.004 c -0.33654,0.001 -0.69166,0.0609 -0.78911,0.13209 -0.2151,0.15705 -0.32491,1.2741 -0.12523,1.2741 0.0781,0 0.45339,-0.31699 0.83405,-0.70444 z m -6.68951,-2.64252 c -0.0732,5.3e-4 -0.13292,-0.0371 -0.13292,-0.0836 l -5e-5,-3e-5 c 4.69499,-2.80313 11.35698,-2.21971 15.38896,0.56566 0.47366,0.35341 0.84585,0.45483 1.86068,0.50695 1.57976,0.0811 2.42045,0.21939 2.42045,0.39802 0,0.0756 -0.20713,0.32956 -0.46025,0.56439 -0.25314,0.23482 -0.6108,0.7186 -0.79474,1.07509 -1.08518,2.10288 -3.05856,4.33903 -4.50428,5.10409 -2.05865,1.08939 -6.58157,1.7949 -8.75912,1.3663 l 1e-5,-8e-5 c -0.19344,-0.0481 -2.59454,-0.16251 -4.46527,-0.97812 2.90021,0.35492 6.9034,1.19749 9.32189,0.0331 0.53819,-0.26169 0.97856,-0.53796 0.97856,-0.61394 0,-0.076 0.47304,-0.42829 1.05121,-0.78295 2.16798,-1.32987 4.24429,-3.39737 3.80646,-3.79031 -0.21371,-0.19178 -3.12493,-0.89828 -3.70151,-0.89828 -0.4276,0 -0.44551,0.0374 -0.33805,0.70531 0.19842,1.23304 -0.22033,2.24519 -1.42683,3.44895 -1.81197,1.8078 -3.43764,2.07459 -5.6759,0.93146 -1.95068,-0.99628 -2.62026,-1.9319 -2.85186,-3.98502 -0.0866,-0.76851 -0.19918,-1.1007 -0.37276,-1.1007 -1.06619,0 -3.4037,2.21233 -3.62286,3.4288 -0.0703,0.3904 -0.1825,0.88262 -0.24926,1.09381 -0.10524,0.33281 -0.0304,0.40789 0.56059,0.56319 0.6989,0.30603 6.1525,1.50227 7.173,1.69716 -0.4189,0.1675 -6.31586,-0.82018 -8.70465,-1.49719 -0.0945,-0.15186 0.25541,-1.01635 0.98948,-2.44499 0.62455,-1.21555 1.13554,-2.23311 1.13554,-2.26125 0,-0.0281 -0.27437,-0.0511 -0.60976,-0.0511 -1.56266,0 -0.55292,-0.46684 4.39401,-2.03152 3.55995,-1.12599 6.20654,-1.26637 9.60226,-0.50932 1.11767,0.24917 2.17137,0.41963 2.34151,0.37878 0.32189,-0.0772 -2.07605,-1.28299 -3.41086,-1.71505 -4.16807,-1.27454 -7.66528,-0.81814 -10.94368,0.88239 z" style="display:inline;fill:#000000;stroke-width:0.1766593" id="path3608-5"/><path d="m 276.25305,134.72213 c -0.19347,1.01703 -0.87729,1.60122 -1.8178,1.86228 -3.08303,0.8558 -7.77524,1.77499 -9.29317,-3.98456 0.47343,-5.14903 8.03823,-3.43124 11.11096,2.1223 z" id="path4059-2-1-0" sodipodi:nodetypes="csccc" class="sclera"/><path d="m 275.50813,133.58118 c 0.0562,2.93666 -5.10528,3.21087 -5.5867,0.3084 -1.13931,-2.54404 0.94835,-4.58495 2.52047,-3.16114 -0.74418,3.80039 1.31721,3.83731 2.13092,1.68697 0.72212,0.42066 0.6638,0.72408 0.9353,1.16579 z" id="path4059-2-1" sodipodi:nodetypes="cccccc" class="eye"/><path sodipodi:nodetypes="ccccccscccccscccccccccccccccccsccccccccsccccccccccccccccccccccccccccc" d="m 268.88732,128.21079 c -0.77185,0.10853 -1.6551,0.29912 -1.96283,0.42368 -0.52626,0.21301 -0.47715,0.22679 0.82741,0.23201 0.7628,0.004 2.10417,0.15396 2.98084,0.33537 1.57292,0.32547 1.60756,0.34396 2.62971,1.40334 0.56968,0.59044 1.1901,1.3509 1.37872,1.68991 0.18864,0.33901 0.69982,1.11679 1.13598,1.72839 0.43616,0.61159 0.79301,1.26358 0.79301,1.44887 0,0.37598 -0.54683,0.78823 -1.28477,0.96854 -0.26653,0.0651 -1.88754,0.57202 -3.09935,0.77725 1.62298,-0.59321 2.75348,-1.05588 3.14365,-1.28494 0.51626,-0.30308 0.68752,-0.70397 0.3811,-0.89217 -0.0827,-0.0509 -0.25398,0.0998 -0.38046,0.3346 -0.1265,0.23488 -0.55714,0.59146 -0.95704,0.79241 -0.3999,0.20095 -0.9916,0.5316 -1.31485,0.73476 -0.78583,0.49386 -3.20167,0.74103 -4.79543,0.49066 -1.43004,-0.22466 -2.29223,-0.75617 -3.14883,-1.94115 -0.24701,-0.34169 -0.45938,-0.62733 -0.57593,-0.75432 -0.61236,-0.80415 -1.53546,-2.37453 -1.86069,-3.56647 1.00076,-0.34319 2.24532,-1.68755 2.23515,-1.71291 l 0.2627,-0.35213 0.51473,-0.40749 c 0.61905,-0.46924 2.54376,-0.94219 3.836,-0.9426 2.10544,-0.0537 4.24765,0.11057 4.73596,0.3059 0.28615,0.19898 1.09086,1.04378 1.22304,1.35928 0,0 -0.28544,-0.11297 -0.52929,-0.35529 -1.70893,-1.33158 -4.01653,-0.95099 -6.16853,-0.8155 z m 3.08372,8.67841 c 0.30457,-0.11821 0.26425,-0.16513 -0.30123,-0.3506 -0.76625,-0.25131 -1.64772,-1.18716 -2.12215,-2.25303 -0.35149,-0.78971 -0.47413,-2.43433 -0.24215,-3.24738 l 0.13262,-0.4647 -0.84951,0.15773 c -1.69264,0.31426 -3.08285,1.23416 -3.08285,2.03994 0,1.02201 2.39996,3.73909 3.61092,4.08801 0.68243,0.19665 2.37914,0.21448 2.85435,0.03 z m 2.3025,-1.53346 c 0.85691,-0.40196 1.13733,-1.02178 0.81363,-1.79841 -0.34108,-0.81837 -0.66798,-0.82284 -1.08277,-0.0148 -0.19967,0.38899 -0.48417,0.75343 -0.63218,0.80988 -0.44053,0.16801 -1.11584,-0.24915 -1.41599,-0.87469 -0.2334,-0.48639 -0.38263,-0.58797 -0.88471,-0.60212 -0.49146,-0.0138 -0.6039,0.0486 -0.6039,0.33519 0,0.58361 0.53282,1.51475 1.19991,2.09683 0.71579,0.62459 1.35204,0.63634 2.60601,0.0481 z m -0.97061,-2.00367 c 0,-0.0969 -0.0353,-0.17612 -0.0782,-0.17612 -0.043,0 -0.12742,0.0793 -0.18766,0.17612 -0.0603,0.0969 -0.025,0.17612 0.0781,0.17612 0.10331,0 0.18767,-0.0792 0.18767,-0.17612 z m -0.53162,-0.69405 c 0,-0.0911 -0.0798,-0.2147 -0.17721,-0.27456 -0.0975,-0.0599 -0.1772,0.0147 -0.1772,0.16572 0,0.15101 0.0797,0.27456 0.1772,0.27456 0.0975,0 0.17721,-0.0746 0.17721,-0.16572 z m -1.23847,-0.72289 c 0.48552,-0.24556 0.92884,-0.85468 0.82251,-1.13011 -0.0744,-0.19275 -0.35541,-0.27073 -0.97549,-0.27073 -0.94094,0 -1.08152,0.16552 -1.08704,1.28016 -0.002,0.44299 0.042,0.47706 0.48489,0.37189 0.26802,-0.0637 0.60783,-0.17673 0.75513,-0.25121 z m 1.74265,-0.53715 c -0.30224,-0.18564 -0.51071,-0.0288 -0.38715,0.29117 0.08,0.20691 0.15565,0.21842 0.35507,0.0539 0.19825,-0.1635 0.20523,-0.23873 0.0322,-0.34509 z" style="display:inline;fill:#000000;stroke-width:0.1766593" id="path3608-4"/></svg>
