<svg viewBox="0 0 560 1000"><path style="fill:#000000;stroke-width:2.09582233" id="path3742" d="m 266.56266,487.41644 c -1.02095,0.32423 -2.19079,0.17635 -2.92249,0.16431 -1.17374,-0.0187 -3.47875,-1.81699 -3.67721,-2.36577 0.30298,-2.36283 6.37063,-5.59458 10.88669,-2.56186 -1.46852,3.35279 -2.47463,3.76341 -4.28699,4.76332 z" sodipodi:nodetypes="csccc"/><path style="fill:#000000;stroke-width:3.16542935" id="path3744" d="m 259.47047,450.02014 c 4.19394,-7.85186 19.18419,-12.99414 20.61335,5.02275 0.47364,1.01401 -0.63903,5.56894 -1.97653,11.2974 -1.53177,5.59277 -2.74625,11.95123 -3.34208,18.28692 -0.3908,7.24717 -2.04142,19.10467 -12.02577,18.26311 -5.70973,-1.36042 -8.59704,-5.96793 -10.94733,-9.16557 -0.22351,-1.07538 0.24093,-1.61211 0.14359,-2.01967 -1.22161,-5.12747 -0.84598,-12.81735 0.73001,-21.39234 1.3516,-7.35415 3.66263,-14.77854 6.80457,-20.2926 z" sodipodi:nodetypes="ccccccsscc"/><path class="areola" id="path3746" d="m 272.47933,493.32689 c -0.0219,0.86391 -1.12872,3.9022 -2.18859,5.34512 -2.41355,2.83141 -5.29747,4.0912 -8.68969,2.98652 -1.58603,-0.0286 -6.66175,-4.08407 -9.08896,-8.20931 1.03307,-3.58646 15.44822,2.0647 19.96724,-0.12219 z" sodipodi:nodetypes="cccccc"/><path id="path3748" d="m 260.49512,448.48677 c 3.75036,-8.0263 17.15528,-13.28287 18.43328,5.13432 0.42354,1.03658 -0.57145,5.69264 -1.76748,11.54846 -1.36975,5.71695 -2.96768,12.1103 -3.50056,18.58677 -0.0656,3.62193 -0.39027,5.98403 -0.71096,8.20281 -2.35171,2.91511 -15.18679,-1.15383 -19.65291,-0.75491 -1.09243,-5.24139 -0.29576,-13.20851 1.11355,-21.97402 1.20858,-7.5175 3.27522,-15.10683 6.08489,-20.74343 z" class="skin penis" sodipodi:nodetypes="ccccccscc"/></svg>
