<svg viewBox="0 0 560 1000"><path style="display:inline;fill-opacity:1;fill-rule:evenodd;fill:#221c24;opacity:1;stroke-dasharray:none;stroke-linecap:butt;stroke-linejoin:miter;stroke-miterlimit:4;stroke-opacity:1;stroke-width:0;stroke:#000000" d="m 350.44891,411.28161 c -41.34356,12.40411 -56.35277,29.50718 -67.32299,47.0649 -1.04023,1.75909 -1.92047,7.35117 -4.50173,9.70959 -0.97785,0.89343 -3.70051,-0.0277 -4.03805,0.0431 -0.91345,0.19159 -2.09488,0.29968 -2.84109,0.24274 -1.3589,-0.10369 -3.10427,-0.97079 -4.62926,-2.64607 -1.15035,-1.26373 -2.1753,-2.98733 -2.81436,-5.19001 -8.27893,-10.93923 -27.60352,-39.54369 -38.34145,-47.86102 0.0176,-0.005 -0.05,-0.20603 0.59439,-1.93851 29.91996,7.91079 37.53385,11.40066 123.28163,-1.21761 0,0 0.63138,1.78415 0.61291,1.79289 z" id="path2039" sodipodi:nodetypes="ccssssccccc"/><path style="display:inline;fill-opacity:1;fill:#ffffff;stroke-dasharray:none;stroke-linecap:butt;stroke-linejoin:miter;stroke-miterlimit:4;stroke-opacity:1;stroke-width:0;stroke:#83afc8" d="m 225.9378,412.66104 c 0.12717,-0.79329 0.24724,-0.90642 0.25482,-0.95601 23.02972,9.12926 54.6817,12.66174 123.82806,-1.73671 0.0291,0.083 0.24793,0.57628 0.45084,1.30322 -7.49448,2.32559 -13.58511,4.61432 -22.50451,8.15633 -60.49161,9.75774 -83.56164,4.33761 -97.57663,-2.66633 -1.68147,-1.78024 -2.87542,-3.01265 -4.45258,-4.1005 z" id="path2041" sodipodi:nodetypes="ccccccc"/><path style="display:inline;fill-opacity:1;fill:#000000;stroke-dasharray:none;stroke-linecap:butt;stroke-linejoin:miter;stroke-miterlimit:4;stroke-opacity:1;stroke-width:0;stroke:#83afc8" d="m 273.84597,422.32819 c -0.2328,0.22148 -3.10989,-1.76118 -4.05675,-1.7506 -0.88928,0.009 -1.34282,-0.11971 -2.27558,-0.12183 -0.9589,0.24822 -3.85377,1.69706 -4.24975,1.33907 -0.26898,-0.42126 1.04376,-6.70708 1.3731,-6.74802 0.31674,-0.42391 2.98965,2.31946 3.2433,2.29256 0.82267,0.0992 1.17444,0.13057 1.9392,0.0571 0.22272,0.0471 4.30259,-2.4827 4.68361,-2.01247 0,0 0.51598,5.4778 -0.65713,6.94427 z" id="path2043" sodipodi:nodetypes="ccccccccc"/><path style="display:inline;fill-opacity:1;fill:#ffffff;stroke-dasharray:none;stroke-linecap:butt;stroke-linejoin:miter;stroke-miterlimit:4;stroke-opacity:1;stroke-width:0;stroke:#83afc8" d="m 241.44907,429.61473 c 16.19921,3.4137 37.32679,4.09867 68.75142,-0.23858 -1.10723,0.72649 -4.9682,3.64884 -9.02733,7.02192 -26.13262,3.68145 -42.62028,3.1439 -53.96133,0.73077 -1.89388,-2.48871 -3.25794,-4.54662 -5.76276,-7.51411 z" id="path2045" sodipodi:nodetypes="ccccc"/><path style="display:inline;fill-opacity:1;fill:#ffffff;stroke-dasharray:none;stroke-linecap:butt;stroke-linejoin:miter;stroke-miterlimit:4;stroke-opacity:1;stroke-width:0;stroke:#83afc8" d="m 252.70414,444.58541 c 10.94342,1.31488 24.01095,1.50229 40.32871,0.0811 -1.56759,2.01272 -3.58281,4.56444 -5.24245,6.66295 -12.30604,1.16431 -22.00263,1.20882 -29.81942,0.51362 -2.04934,-2.61037 -3.63449,-4.68604 -5.26684,-7.25767 z" id="path2047" sodipodi:nodetypes="ccccc"/><path style="display:inline;fill-opacity:1;fill:#ffffff;stroke-dasharray:none;stroke-linecap:butt;stroke-linejoin:miter;stroke-miterlimit:4;stroke-opacity:1;stroke-width:0;stroke:#83afc8" d="m 262.53421,458.18295 c 6.22871,0.31514 13.08896,0.30377 20.72809,-0.0971 -0.87505,2.4389 -1.64015,4.66739 -2.42955,6.53665 -5.25319,0.34928 -9.97649,0.47387 -14.24234,0.41152 -1.68576,-1.69159 -2.0194,-4.59693 -4.0562,-6.85107 z" id="path2049" sodipodi:nodetypes="ccccc"/><path style="display:inline;fill-opacity:1;fill:#ffffff;stroke-dasharray:none;stroke-linecap:butt;stroke-linejoin:miter;stroke-miterlimit:4;stroke-opacity:1;stroke-width:0;stroke:#83afc8" d="m 273.77656,422.05078 c -0.22773,0.20071 -3.04222,-1.59607 -3.96848,-1.58649 -0.86995,0.007 -1.31362,-0.10844 -2.22606,-0.1104 -0.93805,0.22496 -3.76994,1.53796 -4.1573,1.21353 -0.26314,-0.38175 1.02105,-6.0783 1.34323,-6.11539 0.30984,-0.38418 2.9246,2.10201 3.17272,2.07764 0.80478,0.0899 1.1489,0.11833 1.89701,0.0517 0.21788,0.0427 4.20899,-2.24995 4.58171,-1.8238 0,0 0.50475,4.96424 -0.64283,6.29323 z" id="path2051" sodipodi:nodetypes="ccccccccc"/><path style="display:inline;fill-opacity:1;fill:#000000;stroke-dasharray:none;stroke-linecap:butt;stroke-linejoin:miter;stroke-miterlimit:4;stroke-opacity:1;stroke-width:0;stroke:#83afc8" d="m 269.77476,420.5497 c -0.92245,0.007 -1.3929,-0.11578 -2.36041,-0.11788 -0.13054,-1.1415 -0.0278,-2.30441 0.3803,-3.01559 0.85335,0.096 1.21824,0.12635 2.0115,0.0552 0.54236,0.49792 0.13588,2.28954 -0.0314,3.07827 z" id="path2053" sodipodi:nodetypes="ccccc"/><path style="display:inline;fill-opacity:1;fill:#ffffff;stroke-dasharray:none;stroke-linecap:butt;stroke-linejoin:miter;stroke-miterlimit:4;stroke-opacity:1;stroke-width:0;stroke:#83afc8" d="m 269.62401,420.48722 c -0.78722,0.007 -1.18868,-0.11089 -2.01435,-0.11289 -0.1114,-1.09313 -0.0237,-2.20674 0.32455,-2.88779 0.72823,0.0919 1.03962,0.121 1.71658,0.0529 0.46284,0.47682 0.11596,2.19251 -0.0268,2.94782 z" id="path2055" sodipodi:nodetypes="ccccc"/><path style="display:inline;fill-opacity:1;fill-rule:evenodd;fill:#000000;opacity:1;stroke-dasharray:none;stroke-linecap:butt;stroke-linejoin:miter;stroke-miterlimit:4;stroke-opacity:1;stroke-width:0;stroke:#000000" d="m 282.94456,458.76549 c -0.0483,0.15247 -0.11284,0.47208 -0.19954,0.90622 -0.41277,2.06685 -1.81439,6.53069 -3.87757,8.11265 -0.26921,0.20642 -1.13559,1.14752 -4.57861,0.28177 -0.17398,-0.0437 -2.18026,1.1699 -4.2783,0.12449 -4.65827,-2.32112 -6.22252,-8.10904 -6.31915,-8.53686 3.82592,9.08132 8.89939,9.3147 10.40315,7.55401 5.26837,2.79873 7.50839,-4.81217 8.85002,-8.44228 z" id="path2057" sodipodi:nodetypes="cssssccc"/><path sodipodi:nodetypes="ccsccc" id="path5105-9" d="m 314.29363,275.41775 c -11.17521,-9.01494 -12.4097,-15.14101 -7.89117,-19.74018 4.39197,-3.8424 6.88957,2.34093 7.73764,2.30651 0.91083,-0.037 3.81637,-6.6957 8.90989,-1.10433 1.95047,3.23747 3.85989,8.22888 -8.75638,18.538 z" style="display:inline;fill-opacity:1;fill:#221c24;opacity:1"/><path sodipodi:nodetypes="cccssssscc" id="path5108-0" d="m 250.89207,252.6388 c 2.17936,3.1811 1.53948,6.60232 -0.25668,9.35142 -1.76376,4.04756 -8.95235,7.38221 -13.05084,10.98292 -0.31955,-0.6623 -0.43976,-2.94107 -0.17968,-5.70202 0.36114,-3.83527 0.82687,-8.67702 1.38235,-11.41026 0.0255,-0.12488 0.018,-0.28223 0.10023,-0.35303 0.41452,-0.35698 2.14562,-2.10082 3.35102,-3.0726 1.76992,-1.42689 2.65742,-1.49977 3.54382,-1.65913 0.96726,-0.17389 -1.036,1.82822 -0.91963,2.00476 0.16707,0.10437 4.61931,-2.05348 6.02941,-0.14206 z" style="display:inline;fill-opacity:1;fill:#221c24;opacity:1;stroke-width:1.0654707"/></svg>
