<svg viewBox="0 0 560 1000"><path style="display:inline;fill-opacity:1;fill-rule:evenodd;fill:#ffffff;stroke-dasharray:none;stroke-linecap:butt;stroke-linejoin:miter;stroke-miterlimit:4;stroke-opacity:0;stroke-width:3.02935934;stroke:#000000" d="m 300.39582,218.87955 c 2.88085,-3.50481 6.15719,-4.57678 3.22635,-5.38665 -7.83122,-2.16398 -6.65602,-5.15553 -29.53589,-8.46494 0.072,0.004 -17.60495,-10.36472 -26.53671,-16.69707 -2.16372,0.95706 -5.45931,9.85514 -12.93206,29.53962 12.73181,10.61386 35.37723,35.07786 45.95873,42.07928 9.89979,-18.57727 19.44175,-40.69055 19.81958,-41.07024 z" id="path5976" sodipodi:nodetypes="csccccc"/><path style="display:inline;fill-opacity:1;fill-rule:evenodd;fill:#1a1a1a;stroke-dasharray:none;stroke-linecap:butt;stroke-linejoin:miter;stroke-miterlimit:4;stroke-opacity:0;stroke-width:3;stroke:#000000" d="m 300.48783,216.69956 c 2.82896,-3.50026 6.04627,-4.57084 3.16823,-5.37966 -8.20529,-0.81696 -21.25021,-2.74842 -27.18763,-6.56839 -3.59019,-9.51541 -18.40073,-15.30217 -26.50208,-14.86147 -4.85837,5.43601 -9.34673,21.82559 -13.77494,30.25509 0.70111,9.58485 7.82152,16.76758 16.36484,22.39879 10.37315,6.83731 22.84399,11.38731 28.46904,15.17257 9.72145,-18.55316 19.09151,-40.63773 19.46254,-41.01693 z" id="path5978" sodipodi:nodetypes="cccccscc"/><path sodipodi:nodetypes="cccsscc" id="path1686-2-6-4-4-3" d="m 310.15002,117.3251 c 1.31507,-6.93158 5.73055,-21.000725 -9.17569,-30.085268 -19.95945,-4.73561 -38.57743,10.155391 -41.6785,13.394998 -0.79843,0.59726 -1.17634,1.59111 -1.26925,2.8005 -0.26095,3.39678 1.72637,8.49385 2.95909,11.27955 0.53861,1.21717 0.93316,1.99307 0.93316,1.99307 0,0 44.58433,9.17009 48.23119,0.61715 z" style="display:inline;fill-opacity:1;fill:#1a1a1a;stroke-dasharray:none;stroke-linecap:butt;stroke-linejoin:miter;stroke-miterlimit:4;stroke-opacity:1;stroke-width:0;stroke:#83afc8"/></svg>
