<svg viewBox="0 0 560 1000"><path style="fill:#000000;stroke-width:4.94660425" sodipodi:nodetypes="cscccc" id="path3934" d="m 177.04996,422.87792 c 0.5752,-0.24343 1.50668,0.0451 2.04062,-0.20313 25.41029,-11.78847 4.38175,-28.75167 -1.94996,-27.94033 -17.08713,6.10545 -10.51419,23.36625 -4.94693,24.31745 0.0797,0.059 0.6647,1.51389 4.85627,3.82598 z"/><path style="fill:#000000;stroke-width:4.94660425" sodipodi:nodetypes="ccccssssssssscc" id="path3936" d="m 231.4813,462.65654 c 23.87256,6.77716 47.92859,14.62972 56.17713,-6.43484 2.54541,-7.28394 0.91111,-12.43776 -4.18701,-14.32729 -21.04623,-6.69268 -65.83406,-26.29986 -78.92126,-38.84194 -1.80688,-2.81869 -1.5029,-3.22488 -3.34079,-5.15933 -3.8968,-4.10144 -8.90626,-3.68296 -13.00039,-3.45465 -2.46732,0.13781 -8.83572,-0.63591 -10.81628,0.16779 -1.66368,0.6751 -3.11514,1.63273 -4.06165,2.85451 -0.294,0.37976 1.95477,-0.82979 2.16591,-0.99188 5.94331,-4.56338 29.68704,14.63125 3.22357,25.87249 -2.44978,1.04062 -9.95427,-6.72531 -9.88726,-6.46042 0.42825,1.6954 3.28574,4.3643 5.80039,6.07223 1.50156,1.01977 3.20986,1.40117 3.81822,2.49582 7.31329,13.15823 23.43731,27.60609 53.02942,38.20724 z"/><path class="areola" sodipodi:nodetypes="ccscccc" id="path3938" d="m 172.46055,417.17136 c 9.10803,5.55667 26.36764,-2.03578 30.70815,-12.62831 -1.093,-3.16063 -4.84016,-9.27156 -9.23656,-9.12433 -12.54741,0.41997 -12.26807,-0.79918 -17.54078,0.7739 -10.54805,4.62554 -11.86425,14.33998 -6.15787,21.52844 0.55944,0.43735 1.28712,-0.3362 2.22706,-0.54995 z"/><path style="fill:#000000;stroke-width:4.94660425" sodipodi:nodetypes="ccscc" id="path3940" d="m 170.36821,411.21162 c 0.12943,0.96573 1.2975,2.92323 2.56132,3.27601 -0.005,-0.0502 -0.31072,-1.71427 -0.32301,-1.765 -0.40863,-1.71134 -2.21761,-6.7497 0.7335,-12.40459 -2.96885,3.42383 -3.50469,6.81386 -2.97203,10.89358 z"/><path sodipodi:nodetypes="cccccscccc" id="path3942" class="skin penis" d="m 232.99946,461.56953 c 23.64933,6.71391 46.37589,15.95814 55.63023,-4.85237 2.52168,-7.2158 2.36387,-11.32042 -2.68659,-13.19241 -21.94276,-5.35624 -68.25057,-25.6618 -81.2153,-38.0865 -6.10351,8.73283 -12.13551,13.52851 -25.05933,14.6866 -2.17576,-0.0267 -4.48885,-0.61163 -6.81834,-1.97818 -0.50461,-0.29625 -1.32588,0.27194 -1.67831,0.39619 -0.40484,0.27442 9.48189,6.23605 9.27271,6.69923 7.24492,13.03528 23.23957,25.82568 52.5549,36.32764 z"/></svg>
