<svg viewBox="0 0 560 1000"><path sodipodi:nodetypes="cssssssscscccccc" id="path2820" d="m 346.23354,145.63979 c -0.34666,-1.06752 -15.52249,34.78786 -17.49539,36.25027 -2.77552,2.05735 -8.32727,5.8526 -11.14383,3.21543 -2.27691,-2.13193 8.01881,-58.70029 7.82685,-59.23158 -0.84895,-2.34951 -29.76167,-39.444686 -42.86774,-36.364832 -8.7081,2.046354 -20.24267,19.867962 -18.43828,31.859592 0,0 1.61491,8.1466 1.57217,8.89547 -0.14118,2.47236 -2.09447,17.96581 -2.32549,16.64856 -0.0693,-0.39448 3.70229,30.47293 22.33654,38.64035 0.0113,0.45077 13.13651,-0.40044 26.48303,-8.51655 7.8468,-4.7717 28.80392,-29.81044 34.18361,-40.81631 2.66894,34.28452 21.65401,89.60848 7.7249,93.85947 -12.88631,6.18634 -88.30268,9.94543 -105.29684,-0.17698 -6.68813,-8.16891 7.30688,-101.00748 7.27974,-101.12268 -0.21639,-0.94005 0.18431,-48.096343 40.03484,-54.030492 45.43365,-5.835919 52.47089,56.449212 50.12589,70.890282 z" style="display:inline;fill-opacity:1;fill-rule:nonzero;fill:#000000;opacity:1;stroke-dasharray:none;stroke-linecap:butt;stroke-linejoin:miter;stroke-miterlimit:4;stroke-opacity:0;stroke-width:2.49378181;stroke:#000000"/><path sodipodi:nodetypes="cssssssscscccccc" id="path2822" d="m 344.93995,145.51461 c -0.33912,-1.06457 -15.18449,34.57515 -17.11442,36.02286 -2.71508,2.03667 -6.6786,5.79843 -9.43382,3.15997 -2.22734,-2.13296 8.20488,-57.9424 8.01709,-58.47233 -0.83046,-2.34342 -30.94162,-39.894677 -43.76231,-36.884806 -8.51847,1.999853 -20.83074,19.868306 -19.06564,31.817826 0,0 1.50812,8.55944 1.46629,9.305 -0.1381,2.46145 -1.38067,17.26861 -1.60666,15.95585 -0.0677,-0.39313 4.05399,30.36394 22.28247,38.57857 0.011,0.44892 12.85047,-0.34152 25.90636,-8.3656 7.67594,-4.71759 28.1767,-29.56055 33.43925,-40.49708 2.61083,34.15322 21.18247,89.32926 7.55669,93.5018 -12.60572,6.10436 -86.37985,9.51899 -103.00397,-0.63533 -6.54248,-8.16401 7.14778,-100.55447 7.12122,-100.6693 -0.21167,-0.93708 0.1803,-47.895011 39.16307,-53.630671 44.44431,-5.613497 51.32832,56.442621 49.03438,70.813241 z" style="display:inline;fill-opacity:1;fill-rule:nonzero;fill:#800000;opacity:1;stroke-dasharray:none;stroke-linecap:butt;stroke-linejoin:miter;stroke-miterlimit:4;stroke-opacity:0;stroke-width:2.46133304;stroke:#000000"/><path sodipodi:nodetypes="csssscccc" id="path2824" d="m 264.92645,130.94398 c -0.50379,0.16864 -3.84726,-23.50953 -0.17233,-33.239681 3.34237,-8.849586 9.71263,-13.476798 11.43851,-14.663555 2.29582,-1.578667 24.5619,-14.636429 43.91259,-3.132662 15.81173,9.399898 14.81653,33.965348 14.89595,34.482778 0.081,0.52745 0.0636,8.31276 -1.02578,15.32456 -4.24385,-1.19221 -11.9324,5.34041 -17.7584,3.96874 -2.11641,-8.77407 -18.62381,-13.985 -30.09892,2.27667 -9.78353,-12.70689 -20.77518,-11.48166 -21.19162,-5.01685 z" style="display:inline;fill-opacity:1;fill-rule:evenodd;fill:#800000;opacity:1;stroke-dasharray:none;stroke-linecap:butt;stroke-linejoin:miter;stroke-miterlimit:4;stroke-opacity:0;stroke-width:3;stroke:#000000"/><path sodipodi:nodetypes="cscscsc" id="path2826" d="m 338.31494,136.00984 c -12.4689,-18.47322 -24.9661,-20.78645 -51.42889,-21.27926 -30.84305,-0.57438 -26.87251,14.11475 -27.73407,11.84508 0.0364,-6.33837 4.80245,-14.08291 4.72384,-28.058251 -0.0485,-8.628225 15.22144,-55.752482 47.29991,-80.205161 4.87211,34.649261 26.64555,73.454024 25.74908,84.021862 -1.15758,13.64586 2.65753,25.58396 1.39013,33.67573 z" style="display:inline;fill-opacity:1;fill-rule:evenodd;fill:#000000;opacity:1;stroke-dasharray:none;stroke-linecap:butt;stroke-linejoin:miter;stroke-miterlimit:4;stroke-opacity:0;stroke-width:2.92175102;stroke:#000000"/><path sodipodi:nodetypes="cscscsc" id="path2828" d="m 340.09823,142.92458 c -12.18384,-18.50631 -27.15912,-25.60519 -53.01696,-26.09889 -30.13795,-0.57541 -28.33101,17.5048 -29.17286,15.23108 0.0355,-6.34973 2.88388,-18.47177 5.65225,-32.181662 1.85267,-9.174959 16.78451,-55.271086 47.25501,-79.640439 4.76074,34.71132 24.30906,69.335344 26.54232,84.349441 2.01735,13.5626 3.97867,30.23421 2.74024,38.34047 z" style="display:inline;fill-opacity:1;fill-rule:evenodd;fill:#800000;opacity:1;stroke-dasharray:none;stroke-linecap:butt;stroke-linejoin:miter;stroke-miterlimit:4;stroke-opacity:0;stroke-width:2.89074636;stroke:#000000"/><path sodipodi:nodetypes="cscccscc" id="path2830" d="m 284.42142,192.41542 c -7.37148,-6.09318 -32.74787,-10.76363 -24.36783,-58.4992 0.13249,-0.75471 4.60337,-1.16672 4.75074,-1.94331 1.42316,9.35859 17.20549,5.50571 21.5887,-2.02918 12.96265,15.75319 35.76947,1.56721 35.76947,1.56721 0,0 6.02633,-3.22392 6.4754,-1.6595 1.64885,5.74398 -0.18284,24.19026 0.39797,32.36738 -11.51503,29.06344 -37.89204,34.21479 -44.61445,30.1966 z" style="display:inline;fill-opacity:1;fill-rule:evenodd;fill:#800000;opacity:1;stroke-dasharray:none;stroke-linecap:butt;stroke-linejoin:miter;stroke-miterlimit:4;stroke-opacity:0;stroke-width:2.88784504;stroke:#000000"/><path sodipodi:nodetypes="sssss" id="path2798-3" d="m 298.75264,97.908476 c 0,6.154844 -5.05333,10.783384 -11.51511,10.783374 -6.46177,0 -10.4052,-4.17735 -10.4052,-10.332188 0,-6.154839 3.75845,-11.234561 10.22022,-11.234566 6.46178,-5e-6 11.70009,4.628531 11.70009,10.78338 z" style="display:inline;fill-opacity:1;fill-rule:nonzero;fill:#000000;opacity:1;stroke-dasharray:none;stroke-dashoffset:0;stroke-linecap:round;stroke-linejoin:bevel;stroke-miterlimit:4;stroke-opacity:1;stroke-width:0;stroke:#000000;vector-effect:none"/><path sodipodi:nodetypes="sssss" id="path2800-5" d="m 297.83238,97.831453 c 0,5.671257 -4.63786,9.936137 -10.56838,9.936127 -5.93051,0 -9.54972,-3.84914 -9.54972,-9.520393 0,-5.671249 3.44944,-10.351863 9.37995,-10.351868 5.93052,-5e-6 10.73815,4.264875 10.73815,9.936134 z" style="display:inline;fill-opacity:1;fill-rule:nonzero;fill:#800000;opacity:1;stroke-dasharray:none;stroke-dashoffset:0;stroke-linecap:round;stroke-linejoin:bevel;stroke-miterlimit:4;stroke-opacity:1;stroke-width:0;stroke:#000000;vector-effect:none"/><path sodipodi:nodetypes="cccccccccccccccccc" id="path2802-0" d="m 295.87036,98.022875 c 0,0.549128 -0.0609,1.67629 -0.11709,2.169435 -2.53608,-0.17821 -6.24622,-0.435197 -7.07184,-0.477581 0.0648,0.362051 0.42463,3.774741 0.87847,6.608741 -0.39087,0.0269 -2.2026,0.0403 -2.6229,0.0403 -0.39122,0 -1.80855,-0.10689 -2.16014,-0.12945 0.37961,-2.30188 1.03733,-6.08636 1.03099,-6.487539 -0.45386,-0.002 -3.57431,0.338729 -6.10693,0.566679 -0.017,-0.404292 0.0408,-1.752325 0.0408,-2.193935 0,-0.553721 0.0117,-1.746687 0.0383,-2.239664 2.07782,0.313984 5.26633,0.753306 5.84312,0.698085 -0.2333,-1.05526 -0.28245,-3.623553 -0.78134,-6.481201 0.47231,-0.04283 1.5056,-0.09582 2.05625,-0.09582 0.56507,0 2.05222,0.05324 2.56471,0.09676 -0.25372,1.695815 -0.43887,5.599187 -0.56287,6.422707 1.09166,-0.153444 4.16171,-0.438179 6.89711,-0.738564 0.0271,0.349527 0.0734,1.862123 0.0734,2.241002 z" style="display:inline;fill-opacity:1;fill-rule:nonzero;fill:#000000;opacity:1;stroke-dasharray:none;stroke-dashoffset:0;stroke-linecap:round;stroke-linejoin:bevel;stroke-miterlimit:4;stroke-opacity:1;stroke-width:0;stroke:#000000;vector-effect:none"/><path sodipodi:nodetypes="ccccscccscscccscscccscsccc" id="path2804-6" d="m 295.26917,97.987429 c 0,0.51582 -0.12416,1.134406 -0.17655,1.597633 -0.21287,0.0439 -0.34267,-0.441859 -0.57144,-0.442206 -2.26124,-0.0036 -5.44505,0.119044 -6.14331,0.08284 0.0558,0.314515 -0.15815,3.411914 -0.0759,5.946154 0.007,0.20609 0.40712,0.41076 0.41522,0.61262 -0.36402,0.0253 -1.3763,0.0379 -1.76774,0.0379 -0.36435,0 -1.07683,-0.10041 -1.40426,-0.1216 0.0179,-0.19583 0.42868,-0.33601 0.44595,-0.55235 0.1715,-2.14799 0.33721,-5.629971 0.33183,-5.972332 -0.37793,-0.002 -3.13556,-0.07331 -5.30635,-0.129386 -0.25703,-0.0066 -0.48898,0.393355 -0.73869,0.388062 -0.0157,-0.379762 -0.0295,-0.941697 -0.0295,-1.356523 0,-0.520128 -0.0117,-1.112476 0.0131,-1.575556 0.2544,0.01337 0.48649,0.499761 0.77874,0.511533 1.82738,0.07361 4.6373,0.0056 5.1004,-0.03915 -0.0339,-0.842203 -0.15327,-3.940263 -0.23234,-5.833983 -0.008,-0.18664 -0.38538,-0.365143 -0.39274,-0.532905 0.43987,-0.04022 0.88469,-0.156043 1.39752,-0.156043 0.52624,0 1.41626,0.02797 1.89353,0.06888 -0.007,0.193724 -0.3388,0.441068 -0.34815,0.687972 -0.0686,1.811343 0.0495,5.077635 0.0865,5.739033 0.93903,-0.01113 3.50257,0.148279 5.93128,0.04155 0.20078,-0.0088 0.48157,-0.503141 0.67953,-0.512921 0.0253,0.328323 0.11337,1.154886 0.11337,1.510784 z" style="display:inline;fill-opacity:1;fill-rule:nonzero;fill:#ececec;opacity:1;stroke-dasharray:none;stroke-dashoffset:0;stroke-linecap:round;stroke-linejoin:bevel;stroke-miterlimit:4;stroke-opacity:1;stroke-width:0;stroke:#000000;vector-effect:none"/><path sodipodi:nodetypes="ccccc" id="path2806-6" d="m 289.4138,97.920089 c -0.66734,0.890268 -1.25337,1.573555 -2.05772,2.295851 -0.92947,-0.857721 -1.20168,-1.199347 -2.015,-2.202462 0.56307,-0.732271 1.15886,-1.487956 1.89888,-2.325443 0.99204,0.790009 1.29795,1.161205 2.17384,2.232054 z" style="display:inline;fill-opacity:1;fill-rule:nonzero;fill:#000000;opacity:1;stroke-dasharray:none;stroke-dashoffset:0;stroke-linecap:round;stroke-linejoin:bevel;stroke-miterlimit:4;stroke-opacity:1;stroke-width:0;stroke:#000000;vector-effect:none"/><path sodipodi:nodetypes="ccccc" id="path2808-5" d="m 289.13585,97.936607 c -0.5709,0.763246 -1.07223,1.349034 -1.76033,1.968269 -0.79514,-0.735334 -1.02801,-1.02822 -1.72379,-1.888213 0.4817,-0.627779 0.99138,-1.275645 1.62445,-1.993638 0.84867,0.677289 1.11037,0.995525 1.85967,1.913582 z" style="display:inline;fill-opacity:1;fill-rule:nonzero;fill:#ffffff;opacity:1;stroke-dasharray:none;stroke-dashoffset:0;stroke-linecap:round;stroke-linejoin:bevel;stroke-miterlimit:4;stroke-opacity:1;stroke-width:0;stroke:#000000;vector-effect:none"/><path sodipodi:nodetypes="ssscs" id="path2810-7" d="m 288.16626,98.306303 c 0,0.460052 -0.36879,0.806012 -0.84037,0.806012 -0.47159,0 -0.75938,-0.312239 -0.75938,-0.772291 0,-0.460047 0.18181,-1.313486 1.21989,-1.358605 -1.28574,1.240765 0.37986,0.864832 0.37986,1.324884 z" style="display:inline;fill-opacity:1;fill-rule:nonzero;fill:#800000;opacity:1;stroke-dasharray:none;stroke-dashoffset:0;stroke-linecap:round;stroke-linejoin:bevel;stroke-miterlimit:4;stroke-opacity:1;stroke-width:0;stroke:#000000;vector-effect:none"/></svg>
