<svg viewBox="0 0 560 1000"><path sodipodi:nodetypes="ccccssc" id="path3451" d="m 272.03349,513.05568 c 11.68776,5.67883 61.91258,3.15088 67.58989,-5.14198 1.3493,4.11729 34.99539,5.29203 36.67902,1.76186 -14.39885,-15.83874 -149.81415,-97.34947 -152.47798,-96.3691 -24.61633,46.24828 -21.05503,93.40212 -20.52608,93.67013 14.75878,7.47808 61.07283,9.5584 68.12526,6.38983 0.89029,-0.39999 0.39671,-0.14214 0.60989,-0.31074 z" style="baseline-shift:baseline;clip-rule:nonzero;color-interpolation-filters:linearRGB;color-interpolation:sRGB;color-rendering:auto;color:#000000;direction:ltr;display:inline;enable-background:accumulate;fill-opacity:1;fill-rule:evenodd;fill:#000000;image-rendering:auto;isolation:auto;mix-blend-mode:normal;opacity:1;overflow:visible;shape-rendering:auto;solid-color:#000000;solid-opacity:1;stroke-dasharray:none;stroke-dashoffset:0;stroke-linecap:butt;stroke-linejoin:miter;stroke-miterlimit:4;stroke-opacity:1;stroke-width:1.77084005;stroke:none;visibility:visible;white-space:normal;writing-mode:lr-tb"/><path sodipodi:nodetypes="csccccc" id="path3453" d="m 376.23036,509.62314 c 0.10439,-8.41124 -0.0982,-14.50729 -0.0982,-14.50729 7.47956,-47.16254 -22.74916,-81.6131 -24.0722,-84.66633 -13.38607,6.4024 -75.21854,28.14253 -80.33144,23.15495 0.50667,3.8765 -0.49115,46.0338 1.82649,79.70422 30.46928,2.97784 58.709,-1.92428 66.32152,-7.5878 5.74771,4.19922 31.39402,4.94925 36.35383,3.90225 z" style="baseline-shift:baseline;clip-rule:nonzero;color-interpolation-filters:linearRGB;color-interpolation:sRGB;color-rendering:auto;color:#000000;direction:ltr;display:inline;enable-background:accumulate;fill-opacity:1;fill-rule:evenodd;fill:#333333;image-rendering:auto;isolation:auto;mix-blend-mode:normal;opacity:1;overflow:visible;shape-rendering:auto;solid-color:#000000;solid-opacity:1;stroke-dasharray:none;stroke-dashoffset:0;stroke-linecap:butt;stroke-linejoin:miter;stroke-miterlimit:4;stroke-opacity:1;stroke-width:1.67334545;stroke:none;visibility:visible;white-space:normal;writing-mode:lr-tb"/><path sodipodi:nodetypes="cccscc" id="path3455" d="m 272.7568,513.24143 c -3.90901,-31.70512 7.13896,-60.20133 5.50983,-70.14005 -23.71289,-13.25991 -51.26995,-30.10267 -54.41236,-29.725 -10.00203,23.20555 -18.57176,49.44984 -19.77509,81.04525 -0.1538,4.03819 -0.20415,8.16097 -0.15078,12.37116 6.17374,1.0494 44.98817,8.70442 68.8284,6.44864 z" style="baseline-shift:baseline;clip-rule:nonzero;color-interpolation-filters:linearRGB;color-interpolation:sRGB;color-rendering:auto;color:#000000;direction:ltr;display:inline;enable-background:accumulate;fill-opacity:1;fill-rule:evenodd;fill:#333333;image-rendering:auto;isolation:auto;mix-blend-mode:normal;opacity:1;overflow:visible;shape-rendering:auto;solid-color:#000000;solid-opacity:1;stroke-dasharray:none;stroke-dashoffset:0;stroke-linecap:butt;stroke-linejoin:miter;stroke-miterlimit:4;stroke-opacity:1;stroke-width:1.67334545;stroke:none;visibility:visible;white-space:normal;writing-mode:lr-tb"/><path sodipodi:nodetypes="ccc" id="path3459" class="shadow" d="m 329.46037,425.76321 c -15.4791,1.19068 -42.03653,26.26041 -44.60913,30.99635 10.29989,-9.14088 29.75951,-26.28541 44.60913,-30.99635 z"/><path sodipodi:nodetypes="ccc" id="path3461" class="shadow" d="m 261.71828,457.6115 c -6.81704,-9.41592 -28.83006,-31.99347 -34.93819,-34.15183 5.05404,5.44075 26.5203,25.35081 34.93819,34.15183 z"/><path d="m 283.66521,456.38067 c -1.54841,0.73859 -1.78928,15.78672 -9.24659,11.14886 -5.5459,3.1603 -10.12915,-4.94173 -10.42429,-8.4126 -0.25114,-2.95343 3.37748,-7.20053 3.87403,-6.51846 2.14579,-0.003 16.30971,2.85987 15.79685,3.7822 z" class="shadow" id="Body_Normal_Pussyshadow-14" sodipodi:nodetypes="ccscc" inkscape:label="#PussyshadowN"/><path d="m 274.36595,467.58332 c -3.81452,2.31718 -9.64064,-2.27902 -10.8644,-11.68664 5.95334,-21.67633 25.49385,-8.31185 20.23612,0.35499 -2.87984,4.74713 -3.52005,14.37508 -9.37172,11.33165 z" class="skin torso" id="Body_Normal_Pussy-6" sodipodi:nodetypes="ccsc" inkscape:label="#PussyN"/><path sodipodi:nodetypes="cccccc" id="path3344-1-8-7" d="m 271.97931,510.45015 c -9.47722,3.32694 -63.36106,-3.30921 -68.25061,-6.28523 0.0156,0.36181 0.0501,0.92235 0.25601,2.69939 16.52371,5.43081 55.86142,8.2521 68.01227,6.45682 -0.0374,-0.79532 -0.0236,-2.59976 -0.0177,-2.87098 z" style="display:inline;fill-opacity:1;fill-rule:evenodd;fill:#ffffff;opacity:1;stroke-dasharray:none;stroke-linecap:butt;stroke-linejoin:miter;stroke-miterlimit:4;stroke-opacity:1;stroke-width:0;stroke:#000000"/><path sodipodi:nodetypes="cccccccc" id="path3344-1-2-3-0" d="m 273.09381,510.23103 c 0.0204,0.36181 0.0162,1.14379 0.16501,3.05341 15.23297,4.03939 59.84782,0.1933 66.45457,-6.84599 2.54519,4.26609 32.85649,4.73494 36.55984,3.21442 -0.0489,-0.79532 0.0426,-1.05289 0.0503,-1.32411 -2.24029,1.41082 -33.0301,1.04517 -36.25321,-4.64212 -5.95619,8.79549 -53.82494,11.37125 -66.97646,6.56002 z" style="display:inline;fill-opacity:1;fill-rule:evenodd;fill:#ffffff;opacity:1;stroke-dasharray:none;stroke-linecap:butt;stroke-linejoin:miter;stroke-miterlimit:4;stroke-opacity:1;stroke-width:0;stroke:#000000"/><path sodipodi:nodetypes="ccc" id="path3457" class="shadow" d="M 293.87737,651.87575 C 283.68075,613.2828 264.75873,518.26264 273.49983,475.7992 c -3.08656,73.49978 15.0387,144.29089 20.37754,176.07655 z"/><path sodipodi:nodetypes="cccccc" id="path3344-1-5-8-1" d="m 336.18565,421.8999 c 4.3624,12.79607 4.98159,76.66552 2.56903,84.00697 0.35782,-0.0789 0.91102,-0.2158 2.65404,-0.78531 3.55549,-24.08049 0.004,-70.96344 -2.37195,-83.69902 -0.7862,0.17793 -2.58093,0.44294 -2.85112,0.47741 z" style="display:inline;fill-opacity:1;fill-rule:evenodd;fill:#ffffff;opacity:1;stroke-dasharray:none;stroke-linecap:butt;stroke-linejoin:miter;stroke-miterlimit:4;stroke-opacity:1;stroke-width:0;stroke:#000000"/></svg>
