<svg viewBox="0 0 560 1000"><path sodipodi:nodetypes="ccccc" id="path4436" d="m 371.6898,270.22619 c 0.57746,9.24593 1.7189,28.50735 -1.40065,40.696 -66.74361,-8.03197 -132.02579,-8.49693 -137.54578,-6.0638 -1.10839,-21.54956 -0.12657,-32.63476 4.83014,-53.0977 50.54474,0.32853 93.53218,3.12206 134.11629,18.4655 z" style="display:inline;fill-opacity:1;fill-rule:evenodd;fill:#000000;opacity:1;stroke-dasharray:none;stroke-linecap:butt;stroke-linejoin:miter;stroke-miterlimit:4;stroke-opacity:1;stroke-width:0;stroke:#000000"/><path sodipodi:nodetypes="ccccc" id="path4438" d="m 369.51137,309.78263 c -55.12275,-8.36934 -126.64983,-8.64117 -135.76034,-6.26247 -1.34908,-23.52121 1.95145,-38.87779 4.68879,-50.90757 12.4531,0.21782 86.73913,0.93307 132.51692,18.25599 0.51622,10.00929 1.03619,29.36273 -1.44537,38.91405 z" style="display:inline;fill-opacity:1;fill-rule:evenodd;fill:#221c24;opacity:1;stroke-dasharray:none;stroke-linecap:butt;stroke-linejoin:miter;stroke-miterlimit:4;stroke-opacity:1;stroke-width:0;stroke:#000000"/><path sodipodi:nodetypes="cssssccc" id="path1863-5" d="m 282.94456,458.76549 c -0.0483,0.15247 -0.11284,0.47208 -0.19954,0.90622 -0.41277,2.06685 -1.81439,6.53069 -3.87757,8.11265 -0.26921,0.20642 -1.13559,1.14752 -4.57861,0.28177 -0.17398,-0.0437 -2.18026,1.1699 -4.2783,0.12449 -4.65827,-2.32112 -6.22252,-8.10904 -6.31915,-8.53686 3.82592,9.08132 8.89939,9.3147 10.40315,7.55401 5.26837,2.79873 7.50839,-4.81217 8.85002,-8.44228 z" style="display:inline;fill-opacity:1;fill-rule:evenodd;fill:#000000;opacity:1;stroke-dasharray:none;stroke-linecap:butt;stroke-linejoin:miter;stroke-miterlimit:4;stroke-opacity:1;stroke-width:0;stroke:#000000"/><path sodipodi:nodetypes="ccssssccsccc" id="path1865-0" d="m 298.46108,438.89935 c -6.48422,6.26583 -11.19704,12.82415 -15.33516,19.44716 -1.04023,1.75909 -1.92047,7.35117 -4.50173,9.70959 -0.97785,0.89343 -3.70051,-0.0277 -4.03805,0.0431 -0.91345,0.19159 -2.09488,0.29968 -2.84109,0.24274 -1.3589,-0.10369 -3.10427,-0.97079 -4.62926,-2.64607 -1.15035,-1.26373 -2.1753,-2.98733 -2.81436,-5.19001 -3.99405,-5.27747 -10.5589,-14.66641 -17.49018,-23.90539 4.48963,1.85597 9.35646,2.79339 14.73041,2.73225 1.76498,-0.0201 3.58467,-0.14788 5.46366,-0.38622 9.80224,3.87793 21.03947,2.36746 31.45576,-0.0471 z" style="display:inline;fill-opacity:1;fill-rule:evenodd;fill:#221c24;opacity:1;stroke-dasharray:none;stroke-linecap:butt;stroke-linejoin:miter;stroke-miterlimit:4;stroke-opacity:1;stroke-width:0;stroke:#000000"/><path sodipodi:nodetypes="cssssccc" id="path1868-0" d="m 282.94456,458.76549 c -0.0483,0.15247 -0.11284,0.47208 -0.19954,0.90622 -0.41277,2.06685 -1.81439,6.53069 -3.87757,8.11265 -0.26921,0.20642 -1.13559,1.14752 -4.57861,0.28177 -0.17398,-0.0437 -2.18026,1.1699 -4.2783,0.12449 -4.65827,-2.32112 -6.22252,-8.10904 -6.31915,-8.53686 3.82592,9.08132 8.89939,9.3147 10.40315,7.55401 5.26837,2.79873 7.50839,-4.81217 8.85002,-8.44228 z" style="display:inline;fill-opacity:1;fill-rule:evenodd;fill:#000000;opacity:1;stroke-dasharray:none;stroke-linecap:butt;stroke-linejoin:miter;stroke-miterlimit:4;stroke-opacity:1;stroke-width:0;stroke:#000000"/></svg>
