<svg viewBox="0 0 560 1000"><path style="display:inline;fill-opacity:1;fill-rule:evenodd;fill:#000000;opacity:1;stroke-dasharray:none;stroke-linecap:butt;stroke-linejoin:miter;stroke-miterlimit:4;stroke-opacity:1;stroke-width:0;stroke:#000000" d="m 370.92723,269.0128 c -1.87281,32.37544 -19.16191,68.97712 -20.95435,83.70285 0.95862,4.08436 19.04168,35.1756 11.47673,66.46232 -34.55753,14.24364 -54.97949,25.46729 -82.57176,48.60207 -0.26944,0.20641 -1.13656,1.14752 -4.58251,0.28177 -0.17413,-0.0437 -1.37345,0.71664 -3.61847,0.0361 -25.78105,-20.6634 -34.30892,-43.92241 -45.48186,-53.93634 -9.14306,-24.25619 15.20192,-81.38186 14.99102,-93.38851 0,0 -12.29145,-50.66806 3.09726,-84.10473 9.97025,-7.3845 35.36355,5.61035 45.76581,-3.50518 -0.22204,1.98499 4.34434,5.11885 7.48346,0.17105 3.13994,1.52155 66.54554,33.43249 67.65165,34.25705 z" id="path3847-2" sodipodi:nodetypes="ccccscccccccc"/><path style="display:inline;fill-opacity:1;fill-rule:evenodd;fill:#333333;opacity:1;stroke-dasharray:none;stroke-linecap:butt;stroke-linejoin:miter;stroke-miterlimit:4;stroke-opacity:1;stroke-width:0;stroke:#000000" d="m 347.94393,353.26385 c 6.99729,14.62808 18.26299,38.386 12.36031,64.51954 -40.10653,11.44456 -73.22545,37.96388 -73.99712,40.30165 -0.78385,1.88787 -4.7912,9.82211 -7.2881,11.60252 -1.21712,0.86786 -4.56426,-0.37235 -4.8162,-0.39645 -0.29397,-0.0276 -0.77535,0.50225 -2.98817,-0.0701 -5.65546,-1.4629 -10.22974,-5.40448 -10.80185,-7.35518 -18.43111,-29.49711 -30.68812,-46.0732 -35.41353,-47.26215 -4.48249,-29.33723 16.57447,-80.66659 16.53304,-94.32792 -5.93533,-36.36152 -16.65402,-104.5165 35.40381,-114.29466 0.49229,-0.51848 5.43756,-2.25669 9.91452,-4.65903 -0.5808,8.37929 2.67887,12.85688 9.77996,18.84574 2.42202,-0.72926 9.54207,-4.86976 14.57323,-10.06152 4.88127,-5.03709 6.58236,-10.03929 6.57997,-10.92348 1.6193,0.46415 18.23182,7.00546 18.7637,8.34782 0,0 23.13725,-5.1447 32.61632,27.29218 10.17964,42.51929 -12.9525,84.55599 -21.21989,118.44104 z" id="path3849-8" sodipodi:nodetypes="cccsssccccccscccc"/><path style="display:inline;fill-opacity:1;fill:#000000;opacity:1;stroke-dasharray:none;stroke-linecap:butt;stroke-linejoin:miter;stroke-miterlimit:4;stroke-opacity:1;stroke-width:0;stroke:#000000" d="m 275.66315,385.30704 c -3.37067,-27.44695 11.62557,-130.34179 20.16917,-165.30025 l 0.80611,0.10099 c 0.44243,13.37083 -23.43787,107.05921 -19.32049,169.18159 0.32638,0.0933 -1.36143,-3.9718 -1.65479,-3.9823 z" id="path3851-9" sodipodi:nodetypes="cccccc"/><path style="display:inline;fill-opacity:1;fill:#333333;stroke-dasharray:none;stroke-linecap:butt;stroke-linejoin:miter;stroke-miterlimit:4;stroke-opacity:1;stroke-width:0;stroke:#000000" d="m 224.05743,416.09574 c 0.7624,11.95002 31.24785,56.57108 51.26964,54.86889 13.4605,-1.86072 25.30644,-25.7986 87.63701,-51.04142 -5.52595,-11.9083 -21.17481,-23.69568 -27.71101,-35.02007 -45.102,11.9464 -91.4758,7.08435 -96.81614,-2.31943 0,0 -9.24651,21.79438 -14.3795,33.51203 z" id="path3855-4" sodipodi:nodetypes="ccccsc"/><path id="path3867-4" d="m 275.55831,326.20226 a 4.9538808,5.0687276 0 0 1 -4.95389,5.06874 4.9538808,5.0687276 0 0 1 -4.95389,-5.06874 4.9538808,5.0687276 0 0 1 4.95389,-5.06873 4.9538808,5.0687276 0 0 1 4.95389,5.06873 z" style="display:inline;fill-opacity:1;fill-rule:nonzero;fill:#000000;opacity:1;stroke-dasharray:none;stroke-linecap:butt;stroke-linejoin:round;stroke-miterlimit:4;stroke-opacity:1;stroke-width:0;stroke:#000000"/><path id="path3869-9" d="m 273.21301,357.31488 a 4.9538808,5.0687276 0 0 1 -4.95387,5.06873 4.9538808,5.0687276 0 0 1 -4.95389,-5.06873 4.9538808,5.0687276 0 0 1 4.95389,-5.06874 4.9538808,5.0687276 0 0 1 4.95387,5.06874 z" style="display:inline;fill-opacity:1;fill-rule:nonzero;fill:#000000;opacity:1;stroke-dasharray:none;stroke-linecap:butt;stroke-linejoin:round;stroke-miterlimit:4;stroke-opacity:1;stroke-width:0;stroke:#000000"/><path d="m 329.87921,425.70416 c -15.4791,1.19068 -42.03653,26.26041 -44.60913,30.99635 10.29989,-9.14088 29.75951,-26.28541 44.60913,-30.99635 z" class="shadow" id="path3871-9" sodipodi:nodetypes="ccc"/><path d="m 262.13712,457.55245 c -6.81704,-9.41592 -28.83006,-31.99347 -34.93819,-34.15183 5.05404,5.44075 26.5203,25.35081 34.93819,34.15183 z" class="shadow" id="path3873-2" sodipodi:nodetypes="ccc"/><path d="m 329.8875,425.70175 c -15.4791,1.19068 -42.03653,26.26041 -44.60913,30.99635 10.29989,-9.14088 29.75951,-26.28541 44.60913,-30.99635 z" class="shadow" id="path3875-2" sodipodi:nodetypes="ccc"/><path d="m 262.14541,457.55004 c -6.81704,-9.41592 -28.83006,-31.99347 -34.93819,-34.15183 5.05404,5.44075 26.5203,25.35081 34.93819,34.15183 z" class="shadow" id="path3877-7" sodipodi:nodetypes="ccc"/><path sodipodi:nodetypes="csscc" id="path3811-9-0" d="m 280.17134,425.98848 c 0.007,-0.14856 -4.47624,-37.37265 -4.53848,-37.5625 0,0 40.9305,1.90231 60.29792,-4.2718 0.29791,-0.095 26.93638,17.64072 26.839,17.73309 -0.0921,0.22131 -82.59844,24.10121 -82.59844,24.10121 z" style="display:inline;fill-opacity:1;fill:#000000;opacity:1;stroke-dasharray:none;stroke-linecap:butt;stroke-linejoin:miter;stroke-miterlimit:4;stroke-opacity:1;stroke-width:0;stroke:#000000"/><path sodipodi:nodetypes="csscc" id="path3813-3-8" d="m 271.88076,424.658 c -0.007,-0.59051 5.00259,-38.81886 5.06483,-39.00871 0,0 -28.64491,1.50646 -37.48108,-7.6364 -0.21729,-0.22483 -15.19625,32.30585 -15.09887,32.39822 0.0921,0.22131 47.51512,14.24689 47.51512,14.24689 z" style="display:inline;fill-opacity:1;fill:#000000;opacity:1;stroke-dasharray:none;stroke-linecap:butt;stroke-linejoin:miter;stroke-miterlimit:4;stroke-opacity:1;stroke-width:0;stroke:#000000"/><path sodipodi:nodetypes="csscc" id="path3815-9-9" d="m 270.52737,422.30507 c -0.007,-0.14856 5.08477,-37.14821 5.14701,-37.33806 0,0 -28.4888,-2.44958 -38.03208,-8.18948 -0.26794,-0.16115 -13.16493,32.66683 -13.06755,32.7592 0.0921,0.22131 45.95262,12.76834 45.95262,12.76834 z" style="display:inline;fill-opacity:1;fill:#333333;opacity:1;stroke-dasharray:none;stroke-linecap:butt;stroke-linejoin:miter;stroke-miterlimit:4;stroke-opacity:1;stroke-width:0;stroke:#000000"/><path sodipodi:nodetypes="csscc" id="path3817-4-3" d="m 281.58308,423.73 c 0.007,-0.14856 -4.09105,-35.68318 -4.15329,-35.87303 0,0 38.00166,0.80123 57.36908,-5.37288 0.29791,-0.095 27.17879,17.44785 27.08141,17.54022 -0.0921,0.22131 -80.2972,23.70569 -80.2972,23.70569 z" style="display:inline;fill-opacity:1;fill:#333333;opacity:1;stroke-dasharray:none;stroke-linecap:butt;stroke-linejoin:miter;stroke-miterlimit:4;stroke-opacity:1;stroke-width:0;stroke:#000000"/><path style="display:inline;fill-opacity:1;fill:#000000;opacity:1;stroke-dasharray:none;stroke-linecap:butt;stroke-linejoin:miter;stroke-miterlimit:4;stroke-opacity:1;stroke-width:0;stroke:#000000" d="m 296.62879,220.18919 c 1.06858,-0.83912 8.5308,-4.71832 13.55746,-9.55492 5.1177,-4.92419 6.74306,-10.74206 7.93422,-10.97277 0,0 12.60629,4.24062 12.6337,4.55667 0,0 -14.52805,5.95833 -13.99571,5.98076 0.27948,0.0112 -0.69114,5.29504 -0.69402,5.32749 0.002,0.01 -19.43565,4.66277 -19.43565,4.66277 z" id="path3214-39-0" sodipodi:nodetypes="csssscc"/><path style="display:inline;fill-opacity:1;fill:#333333;opacity:1;stroke-dasharray:none;stroke-linecap:butt;stroke-linejoin:miter;stroke-miterlimit:4;stroke-opacity:1;stroke-width:0;stroke:#000000" d="m 297.17958,220.06456 c 1.00862,-0.82608 7.51601,-3.32991 12.50512,-7.84755 4.65959,-4.21926 7.74274,-10.87414 8.36114,-12.61793 0,0 10.20394,4.09789 10.23022,4.41389 0,0 -11.98708,6.03414 -11.9004,6.0566 0.22667,0.0583 -0.91939,4.95712 -0.92215,4.98959 0.002,0.01 -18.27393,5.0054 -18.27393,5.0054 z" id="path3221-1-1" sodipodi:nodetypes="csssscc"/><path style="display:inline;fill-opacity:1;fill:#000000;opacity:1;stroke-dasharray:none;stroke-linecap:butt;stroke-linejoin:miter;stroke-miterlimit:4;stroke-opacity:1;stroke-width:0;stroke:#000000" d="m 296.82849,220.23453 c -0.36502,-0.60704 -4.86232,-3.87182 -7.56024,-8.73696 -2.57329,-4.6404 -3.03954,-10.19381 -3.158,-10.23388 0,0 -9.83812,3.10874 -9.86553,3.42474 0,0 3.69183,3.36251 3.75897,3.66998 0,0 1.53352,5.10831 1.61731,5.71468 0.10169,0.0853 15.20749,6.16144 15.20749,6.16144 z" id="path3223-7-28" sodipodi:nodetypes="csssscc"/><path style="display:inline;fill-opacity:1;fill:#333333;opacity:1;stroke-dasharray:none;stroke-linecap:butt;stroke-linejoin:miter;stroke-miterlimit:4;stroke-opacity:1;stroke-width:0;stroke:#000000" d="m 296.85558,220.4714 c -0.2026,-0.005 -6.20219,-4.1737 -8.77331,-9.15056 -2.46951,-4.78017 -1.52622,-10.37445 -1.16535,-10.47578 0,0 -8.901,3.8035 -9.05986,4.07535 0,0 3.3529,3.10962 3.41727,3.41722 0,0 1.10709,4.71681 1.25349,5.36732 0.0975,0.0854 14.32776,6.76645 14.32776,6.76645 z" id="path3225-5-9" sodipodi:nodetypes="csssscc"/><path style="display:inline;fill-opacity:1;fill:#c8c8c8;opacity:1;stroke-dasharray:none;stroke-linecap:butt;stroke-linejoin:miter;stroke-miterlimit:4;stroke-opacity:1;stroke-width:0;stroke:#000000" d="m 296.64318,220.20298 c 19.73971,-9.50851 20.70859,-20.85739 21.22937,-20.97751 0,0 7.65644,4.38886 7.68055,4.70497 0,0 -10.49608,5.94799 -10.41655,5.97046 0.20799,0.0582 -1.03938,4.18965 -1.04198,4.22205 -0.23539,0.0883 -17.46615,6.69246 -17.4514,6.08003 z" id="path3227-64-1" sodipodi:nodetypes="csssccc"/><path style="display:inline;fill-opacity:1;fill:#c8c8c8;opacity:1;stroke-dasharray:none;stroke-linecap:butt;stroke-linejoin:miter;stroke-miterlimit:4;stroke-opacity:1;stroke-width:0;stroke:#000000" d="m 296.83585,220.19366 c -12.64654,-8.32171 -9.82105,-19.35465 -9.95084,-19.37273 0,0 -6.62137,3.8232 -6.64549,4.13929 0,0 3.05282,2.98344 3.0456,3.05213 0,0 0.3767,4.02552 0.51419,5.02959 -0.0834,0.43129 12.63971,7.94539 13.03654,7.15172 z" id="path3229-9-7" sodipodi:nodetypes="ccsscc"/></svg>
