<svg viewBox="0 0 560 1000"><path style="display:inline;fill-opacity:1;fill-rule:evenodd;fill:#000000;opacity:1;stroke-dasharray:none;stroke-linecap:butt;stroke-linejoin:miter;stroke-miterlimit:4;stroke-opacity:1;stroke-width:0;stroke:#000000" d="m 364.81461,348.97428 c 9.37812,17.74099 12.26595,45.02108 3.97885,62.07037 -80.60316,32.22693 -104.3475,24.50576 -144.47985,4.31271 -15.74968,-36.38972 -1.84412,-59.61555 9.3411,-95.5656 -1.55265,-14.05743 -3.67483,-32.52596 -0.31452,-50.96562 5.69194,-25.41898 23.3793,-47.01014 41.07225,-61.44595 24.21273,17.59813 47.64655,3.58066 62.11281,-0.44111 18.69542,19.76167 33.41985,46.02578 34.18655,55.93963 2.81803,28.11497 1.30352,56.56128 -5.89722,86.09557 z" id="path7608-1-0-6" sodipodi:nodetypes="cccccccccc"/><path style="display:inline;fill-opacity:1;fill-rule:evenodd;fill:#d5d5ff;opacity:1;stroke-dasharray:none;stroke-linecap:butt;stroke-linejoin:miter;stroke-miterlimit:4;stroke-opacity:1;stroke-width:0;stroke:#000000" d="m 364.15216,348.95155 c 8.59317,19.13496 10.82139,49.09129 4.53911,60.56775 -83.44851,30.28854 -114.94353,21.70582 -143.16167,5.26116 -14.41273,-31.40432 -4.04291,-56.37101 9.182,-94.50872 -8.74947,-61.97016 6.05564,-105.87056 39.74929,-112.9463 15.0306,13.93374 36.95254,11.65454 59.99021,-0.38636 43.3149,1.76167 37.88676,52.01582 36.17147,60.35132 2.37693,36.25789 -3.77708,71.7447 -6.47041,81.66115 z" id="path7610-7-0-8" sodipodi:nodetypes="cccccccc"/><path style="display:inline;fill-opacity:1;fill-rule:evenodd;fill:#000000;opacity:1;stroke-dasharray:none;stroke-linecap:butt;stroke-linejoin:miter;stroke-miterlimit:4;stroke-opacity:1;stroke-width:0;stroke:#000000" d="m 369.89972,407.29193 c 0.8928,1.03783 -8.1848,9.6017 -8.1848,9.6017 -8.19048,4.90102 -48.3747,10.11596 -60.80969,20.61913 -4.31136,3.64157 -13.47661,8.29154 -16.37051,16.44054 -2.5916,7.29773 -3.38661,17.01008 -9.75403,14.37033 -0.12708,-0.0527 -0.25389,-0.22936 -0.38798,-0.17253 -3.64553,1.54503 -9.35333,-0.74065 -11.22863,-12.26551 -2.95293,-18.14755 -12.84146,-17.24873 -13.71165,-17.80621 -12.60056,-8.07247 -21.3889,-19.81687 -24.85362,-25.1259 0.0593,-0.70684 -4.26061,-10.88777 -4.26061,-10.88777 30.95156,34.29024 126.24144,11.4322 149.56152,5.22622 z" id="path7612-5-2-1" sodipodi:nodetypes="ccsssssscsc"/><path style="display:inline;fill-opacity:1;fill-rule:evenodd;fill:#5d536c;opacity:1;stroke-dasharray:none;stroke-linecap:butt;stroke-linejoin:miter;stroke-miterlimit:4;stroke-opacity:1;stroke-width:0;stroke:#000000" d="m 368.456,409.00621 c 0.8928,1.03783 -4.62414,7.74165 -4.62414,7.74165 4.3988,12.40592 6.9388,28.58282 6.04263,34.10838 -32.21061,23.53812 -57.79046,1.12223 -85.66347,5.94003 -0.27428,0.37469 -0.68811,0.67278 -0.81935,1.10672 -3.57923,11.83428 -8.32513,9.8537 -8.89431,9.63462 -0.17013,-0.0655 -6.10005,2.75363 -10.61356,-7.80676 -0.19489,-0.456 -0.68412,-0.47689 -1.06552,-0.9139 -21.02325,-6.57233 -38.22815,-25.43035 -39.04317,-45.1455 0.0593,-0.70684 -3.0428,-9.745 -3.0428,-9.745 28.02173,33.28135 125.52859,12.03574 147.72367,5.07976 z" id="path7614-7-8-5" sodipodi:nodetypes="ccccsssccscc"/><path style="display:inline;fill-opacity:1;fill-rule:evenodd;fill:#000000;opacity:1;stroke-dasharray:none;stroke-linecap:butt;stroke-linejoin:miter;stroke-miterlimit:4;stroke-opacity:0;stroke-width:4.54145336;stroke:#000000" d="m 337.15838,206.847 c -22.06732,35.70183 -29.96804,209.1616 -30.24901,210.80863 -1.17383,6.88082 -3.93177,9.74981 -4.67634,9.75528 -1.42095,0.0104 -3.66712,-1.64823 -5.93653,-7.68133 -0.10303,-1.33588 7.0047,-180.61676 30.97461,-214.20766 1.42104,0.18586 5.04226,-0.25248 9.88727,1.32508 z" id="path7616-7-1-6" sodipodi:nodetypes="cssccc"/><path style="display:inline;fill-opacity:1;fill-rule:evenodd;fill:#000000;opacity:1;stroke-dasharray:none;stroke-linecap:butt;stroke-linejoin:miter;stroke-miterlimit:4;stroke-opacity:0;stroke-width:4.55469275;stroke:#000000" d="m 282.81453,203.50461 c -20.78357,36.05283 -30.76313,213.58398 -31.28016,215.18002 -0.77958,2.40649 -4.81029,5.82508 -5.57566,5.6675 -0.86228,-0.17753 -2.77154,-3.92611 -3.25855,-8.45428 -0.10364,-1.33578 5.53771,-174.72948 29.64931,-208.31796 1.24001,-0.43907 5.84399,-4.21539 10.46506,-4.07528 z" id="path7620-5-0-8" sodipodi:nodetypes="cssccc"/><path sodipodi:nodetypes="csccc" id="path7528-9-9-0-0" d="m 312.26773,271.90694 c -33.08833,5.01045 -53.17387,-3.6678 -54.14317,-4.62274 -0.99591,-0.98114 1.66393,-11.93214 1.80895,-12.82401 1.34982,-0.0436 35.94167,-6.02144 54.8504,4.89087 0.47939,0.83622 -2.50374,9.47365 -2.51618,12.55588 z" style="display:inline;fill-opacity:1;fill-rule:evenodd;fill:#000000;opacity:1;stroke-dasharray:none;stroke-linecap:butt;stroke-linejoin:miter;stroke-miterlimit:4;stroke-opacity:0;stroke-width:3.74347663;stroke:#000000"/><path style="display:inline;fill-opacity:1;fill-rule:evenodd;fill:#5d536c;opacity:1;stroke-dasharray:none;stroke-linecap:butt;stroke-linejoin:miter;stroke-miterlimit:4;stroke-opacity:0;stroke-width:4.50546169;stroke:#000000" d="m 282.41143,203.56449 c -21.71476,35.70872 -30.69045,213.25563 -31.29123,214.7949 -1.31977,3.38144 -4.80639,5.74338 -5.25752,5.47871 -0.42693,-0.25046 -2.13796,-2.82905 -2.37092,-8.03762 -0.10139,-1.33614 6.08975,-174.65068 29.67668,-208.24804 1.21303,-0.4392 4.72247,-4.1281 9.24299,-3.98795 z" id="path7622-2-0-0" sodipodi:nodetypes="cssccc"/><path style="display:inline;fill-opacity:1;fill-rule:evenodd;fill:#5d536c;opacity:1;stroke-dasharray:none;stroke-linecap:butt;stroke-linejoin:miter;stroke-miterlimit:4;stroke-opacity:0;stroke-width:4.53160286;stroke:#000000" d="m 336.60459,206.77948 c -12.35942,30.9181 -15.87816,56.22993 -19.53398,85.26584 -7.40386,58.93911 -10.4479,124.74141 -10.62597,125.74809 -1.13142,6.39613 -3.56331,8.96113 -4.24282,8.98417 -0.64318,0.0218 -2.66824,-0.45003 -4.47552,-7.04271 -0.0631,-0.8212 2.58658,-68.88327 10.1808,-129.01245 4.70035,-24.84924 7.52621,-65.54732 20.65809,-85.20557 1.41482,0.18587 3.21562,-0.315 8.0394,1.26263 z" id="path7628-2-6-9" sodipodi:nodetypes="ccsscccc"/><path sodipodi:nodetypes="csccc" id="path7534-6-4-7-7" d="m 312.35504,270.92149 c -33.20006,4.4989 -53.35342,-3.29333 -54.32599,-4.15077 -0.99927,-0.88097 1.66954,-10.71393 1.81506,-11.51474 1.35437,-0.0391 36.06303,-5.40667 55.03562,4.39153 0.48101,0.75085 -2.5122,8.50643 -2.52469,11.27398 z" style="display:inline;fill-opacity:1;fill-rule:evenodd;fill:#5d536c;opacity:1;stroke-dasharray:none;stroke-linecap:butt;stroke-linejoin:miter;stroke-miterlimit:4;stroke-opacity:0;stroke-width:3.5532198;stroke:#000000"/><path style="display:inline;fill-opacity:1;fill-rule:evenodd;fill:#ffd42a;opacity:1;stroke-dasharray:none;stroke-linecap:butt;stroke-linejoin:miter;stroke-miterlimit:4;stroke-opacity:0;stroke-width:0.65154117;stroke:#000000" d="m 261.61363,263.76668 c 0.55747,-0.65406 1.65784,-2.59665 1.69344,-2.82023 0.0345,-0.21673 -0.93787,-3.18008 -0.94673,-3.11402 -0.32494,0.78536 -1.51778,2.84339 -1.52675,2.98528 -0.0109,0.1726 0.38506,2.38498 0.78004,2.94897 z" id="path7642-8-4-1" sodipodi:nodetypes="cscsc"/><path style="display:inline;fill-opacity:1;fill-rule:evenodd;fill:#ffd42a;opacity:1;stroke-dasharray:none;stroke-linecap:butt;stroke-linejoin:miter;stroke-miterlimit:4;stroke-opacity:0;stroke-width:0.65154117;stroke:#000000" d="m 258.16653,291.51375 c 0.55747,-0.65406 1.65784,-2.59665 1.69344,-2.82023 0.0345,-0.21673 -0.93787,-3.18008 -0.94673,-3.11402 -0.32494,0.78536 -1.51778,2.84339 -1.52675,2.98528 -0.0109,0.1726 0.38506,2.38498 0.78004,2.94897 z" id="path7644-4-8-5" sodipodi:nodetypes="cscsc"/><path style="display:inline;fill-opacity:1;fill-rule:evenodd;fill:#ffd42a;opacity:1;stroke-dasharray:none;stroke-linecap:butt;stroke-linejoin:miter;stroke-miterlimit:4;stroke-opacity:0;stroke-width:0.65154117;stroke:#000000" d="m 254.27745,319.44447 c 0.55747,-0.65406 1.65784,-2.59665 1.69344,-2.82023 0.0345,-0.21673 -0.93787,-3.18008 -0.94673,-3.11402 -0.32494,0.78536 -1.51778,2.84339 -1.52675,2.98528 -0.0109,0.1726 0.38506,2.38498 0.78004,2.94897 z" id="path7646-4-3-2" sodipodi:nodetypes="cscsc"/><path style="display:inline;fill-opacity:1;fill-rule:evenodd;fill:#ffd42a;opacity:1;stroke-dasharray:none;stroke-linecap:butt;stroke-linejoin:miter;stroke-miterlimit:4;stroke-opacity:0;stroke-width:0.65154117;stroke:#000000" d="m 251.62579,346.13775 c 0.55747,-0.65406 1.65784,-2.59665 1.69344,-2.82023 0.0345,-0.21673 -0.93787,-3.18008 -0.94673,-3.11402 -0.32494,0.78536 -1.51778,2.84339 -1.52675,2.98528 -0.0109,0.1726 0.38506,2.38498 0.78004,2.94897 z" id="path7648-3-4-2" sodipodi:nodetypes="cscsc"/><path style="display:inline;fill-opacity:1;fill-rule:evenodd;fill:#ffd42a;opacity:1;stroke-dasharray:none;stroke-linecap:butt;stroke-linejoin:miter;stroke-miterlimit:4;stroke-opacity:0;stroke-width:0.65154117;stroke:#000000" d="m 249.68125,371.24004 c 0.55747,-0.65406 1.65784,-2.59665 1.69344,-2.82023 0.0345,-0.21673 -0.93787,-3.18008 -0.94673,-3.11402 -0.32494,0.78536 -1.51778,2.84339 -1.52675,2.98528 -0.0109,0.1726 0.38506,2.38498 0.78004,2.94897 z" id="path7650-1-9-5" sodipodi:nodetypes="cscsc"/><path style="display:inline;fill-opacity:1;fill-rule:evenodd;fill:#ffd42a;opacity:1;stroke-dasharray:none;stroke-linecap:butt;stroke-linejoin:miter;stroke-miterlimit:4;stroke-opacity:0;stroke-width:0.65154117;stroke:#000000" d="m 247.38315,400.58498 c 0.55747,-0.65406 1.65784,-2.59665 1.69344,-2.82023 0.0345,-0.21673 -0.93787,-3.18008 -0.94673,-3.11402 -0.32494,0.78536 -1.51778,2.84339 -1.52675,2.98528 -0.0109,0.1726 0.38506,2.38498 0.78004,2.94897 z" id="path7652-1-9-9" sodipodi:nodetypes="cscsc"/><path style="display:inline;fill-opacity:1;fill-rule:evenodd;fill:#ffd42a;opacity:1;stroke-dasharray:none;stroke-linecap:butt;stroke-linejoin:miter;stroke-miterlimit:4;stroke-opacity:0;stroke-width:0.65154117;stroke:#000000" d="m 266.47503,236.00586 c 0.55747,-0.65406 1.65784,-2.59665 1.69344,-2.82023 0.0345,-0.21673 -0.93787,-3.18008 -0.94673,-3.11402 -0.32494,0.78536 -1.51778,2.84339 -1.52675,2.98528 -0.0109,0.1726 0.38506,2.38498 0.78004,2.94897 z" id="path7654-4-4-6" sodipodi:nodetypes="cscsc"/><path style="display:inline;fill-opacity:1;fill-rule:evenodd;fill:#ffd42a;opacity:1;stroke-dasharray:none;stroke-linecap:butt;stroke-linejoin:miter;stroke-miterlimit:4;stroke-opacity:0;stroke-width:0.65154117;stroke:#000000" d="m 315.35375,267.74416 c 0.55747,-0.65406 1.65784,-2.59665 1.69344,-2.82023 0.0345,-0.21673 -0.93787,-3.18008 -0.94673,-3.11402 -0.32494,0.78536 -1.51778,2.84339 -1.52675,2.98528 -0.0109,0.1726 0.38506,2.38498 0.78004,2.94897 z" id="path7656-3-5-9" sodipodi:nodetypes="cscsc"/><path style="display:inline;fill-opacity:1;fill-rule:evenodd;fill:#ffd42a;opacity:1;stroke-dasharray:none;stroke-linecap:butt;stroke-linejoin:miter;stroke-miterlimit:4;stroke-opacity:0;stroke-width:0.65154117;stroke:#000000" d="m 311.90665,293.72346 c 0.55747,-0.65406 1.65784,-2.59665 1.69344,-2.82023 0.0345,-0.21673 -0.93787,-3.18008 -0.94673,-3.11402 -0.32494,0.78536 -1.51778,2.84339 -1.52675,2.98528 -0.0109,0.1726 0.38506,2.38498 0.78004,2.94897 z" id="path7658-5-9-8" sodipodi:nodetypes="cscsc"/><path style="display:inline;fill-opacity:1;fill-rule:evenodd;fill:#ffd42a;opacity:1;stroke-dasharray:none;stroke-linecap:butt;stroke-linejoin:miter;stroke-miterlimit:4;stroke-opacity:0;stroke-width:0.65154117;stroke:#000000" d="m 309.07823,322.00773 c 0.55747,-0.65406 1.65784,-2.59665 1.69344,-2.82023 0.0345,-0.21673 -0.93787,-3.18008 -0.94673,-3.11402 -0.32494,0.78536 -1.51778,2.84339 -1.52675,2.98528 -0.0109,0.1726 0.38506,2.38498 0.78004,2.94897 z" id="path7660-9-9-0" sodipodi:nodetypes="cscsc"/><path style="display:inline;fill-opacity:1;fill-rule:evenodd;fill:#ffd42a;opacity:1;stroke-dasharray:none;stroke-linecap:butt;stroke-linejoin:miter;stroke-miterlimit:4;stroke-opacity:0;stroke-width:0.65154117;stroke:#000000" d="m 306.07302,346.93325 c 0.55747,-0.65406 1.65784,-2.59665 1.69344,-2.82023 0.0345,-0.21673 -0.93787,-3.18008 -0.94673,-3.11402 -0.32494,0.78536 -1.51778,2.84339 -1.52675,2.98528 -0.0109,0.1726 0.38506,2.38498 0.78004,2.94897 z" id="path7662-9-3-6" sodipodi:nodetypes="cscsc"/><path style="display:inline;fill-opacity:1;fill-rule:evenodd;fill:#ffd42a;opacity:1;stroke-dasharray:none;stroke-linecap:butt;stroke-linejoin:miter;stroke-miterlimit:4;stroke-opacity:0;stroke-width:0.65154117;stroke:#000000" d="m 304.48203,372.74264 c 0.55747,-0.65406 1.65784,-2.59665 1.69344,-2.82023 0.0345,-0.21673 -0.93787,-3.18008 -0.94673,-3.11402 -0.32494,0.78536 -1.51778,2.84339 -1.52675,2.98528 -0.0109,0.1726 0.38506,2.38498 0.78004,2.94897 z" id="path7664-1-7-9" sodipodi:nodetypes="cscsc"/><path style="display:inline;fill-opacity:1;fill-rule:evenodd;fill:#ffd42a;opacity:1;stroke-dasharray:none;stroke-linecap:butt;stroke-linejoin:miter;stroke-miterlimit:4;stroke-opacity:0;stroke-width:0.65154117;stroke:#000000" d="m 303.24459,402.44114 c 0.55747,-0.65406 1.65784,-2.59665 1.69344,-2.82023 0.0345,-0.21673 -0.93787,-3.18008 -0.94673,-3.11402 -0.32494,0.78536 -1.51778,2.84339 -1.52675,2.98528 -0.0109,0.1726 0.38506,2.38498 0.78004,2.94897 z" id="path7666-0-1-6" sodipodi:nodetypes="cscsc"/><path style="display:inline;fill-opacity:1;fill-rule:evenodd;fill:#ffd42a;opacity:1;stroke-dasharray:none;stroke-linecap:butt;stroke-linejoin:miter;stroke-miterlimit:4;stroke-opacity:0;stroke-width:0.65154117;stroke:#000000" d="m 320.92226,239.62978 c 0.55747,-0.65406 1.65784,-2.59665 1.69344,-2.82023 0.0345,-0.21673 -0.93787,-3.18008 -0.94673,-3.11402 -0.32494,0.78536 -1.51778,2.84339 -1.52675,2.98528 -0.0109,0.1726 0.38506,2.38498 0.78004,2.94897 z" id="path7668-0-7-7" sodipodi:nodetypes="cscsc"/><path style="display:inline;fill-opacity:1;fill-rule:evenodd;fill:#d4aa00;opacity:1;stroke-dasharray:none;stroke-linecap:butt;stroke-linejoin:miter;stroke-miterlimit:4;stroke-opacity:0;stroke-width:0.65154117;stroke:#000000" d="m 246.57249,421.7932 c 0.55747,-0.65406 1.40784,-1.22165 1.44344,-1.44523 0.0345,-0.21673 -1.37537,-1.49258 -1.38423,-1.42652 -0.32494,0.78536 -1.08028,1.15589 -1.08925,1.29778 -0.0109,0.1726 0.63506,1.00998 1.03004,1.57397 z" id="path7670-0-8-7" sodipodi:nodetypes="cscsc"/><path style="display:inline;fill-opacity:1;fill-rule:evenodd;fill:#d4aa00;opacity:1;stroke-dasharray:none;stroke-linecap:butt;stroke-linejoin:miter;stroke-miterlimit:4;stroke-opacity:0;stroke-width:0.65154117;stroke:#000000" d="m 302.37143,423.83686 c 0.55747,-0.65406 1.47034,-1.40915 1.50594,-1.63273 0.0345,-0.21673 -1.25037,-1.68008 -1.25923,-1.61402 -0.32494,0.78536 -1.20528,1.34339 -1.21425,1.48528 -0.0109,0.1726 0.57256,1.19748 0.96754,1.76147 z" id="path7672-0-6-9" sodipodi:nodetypes="cscsc"/><path sodipodi:nodetypes="ccssscscc" style="display:inline;fill-opacity:1;fill-rule:nonzero;fill:#d4aa00;opacity:1;stroke-dasharray:none;stroke-linecap:butt;stroke-linejoin:round;stroke-miterlimit:4;stroke-opacity:1;stroke-width:0;stroke:#000000" d="m 319.99559,283.93587 c -0.54258,5.32833 -1.03419,10.08676 -1.69126,16.23903 -0.56754,-0.0578 -7.78532,-0.36781 -7.72874,-0.78607 0.0161,-0.11855 -0.048,-1.78653 0.3445,-1.82994 0.42333,-0.0469 5.97308,0.91096 5.96824,0.32907 -0.004,-0.43834 0.92194,-9.37218 1.14628,-11.57526 0.0422,-0.41368 -6.20283,-0.72213 -6.19417,-1.0794 0.0445,-1.84816 0.17193,-2.12965 0.48754,-2.2752 4.99843,0.50902 7.68273,0.39339 7.66763,0.97777 z" id="path7674-0-6-6"/><path sodipodi:nodetypes="ccssscscc" style="display:inline;fill-opacity:1;fill-rule:nonzero;fill:#d4aa00;opacity:1;stroke-dasharray:none;stroke-linecap:butt;stroke-linejoin:round;stroke-miterlimit:4;stroke-opacity:1;stroke-width:0;stroke:#000000" d="m 306.51009,282.47947 c -0.5387,5.32871 -1.01294,10.0889 -1.60505,16.24777 0.56755,0.0579 7.70053,1.20348 7.72912,0.78238 0.008,-0.11934 0.40587,-1.74047 0.0297,-1.86184 -0.40529,-0.13091 -6.03433,-0.30739 -5.91271,-0.87645 0.0915,-0.42868 0.97939,-9.36635 1.20215,-11.56959 0.0417,-0.41374 6.22149,0.53821 6.28474,0.1868 0.32765,-1.81945 0.25933,-2.1208 -0.0206,-2.32676 -4.9988,-0.5054 -7.60516,-1.15783 -7.70776,-0.58235 z" id="path7676-5-5-3"/><path sodipodi:nodetypes="ccssscscc" style="display:inline;fill-opacity:1;fill-rule:nonzero;fill:#d4aa00;opacity:1;stroke-dasharray:none;stroke-linecap:butt;stroke-linejoin:round;stroke-miterlimit:4;stroke-opacity:1;stroke-width:0;stroke:#000000" d="m 265.82727,279.97381 c -0.61601,5.32034 -1.17321,10.07153 -1.91507,16.21416 -0.56669,-0.0656 -7.7795,-0.47515 -7.71716,-0.89259 0.0177,-0.11832 -0.0234,-1.78703 0.36971,-1.82502 0.42393,-0.0411 5.95994,0.99326 5.96313,0.41135 0.002,-0.43835 1.05112,-9.35857 1.30582,-11.55834 0.0479,-0.41306 -6.19228,-0.80762 -6.17869,-1.16473 0.07,-1.84737 0.20128,-2.12708 0.51887,-2.26826 4.99093,0.57791 7.67657,0.49931 7.65341,1.08343 z" id="path7678-6-5-3"/><path sodipodi:nodetypes="ccssscscc" style="display:inline;fill-opacity:1;fill-rule:nonzero;fill:#d4aa00;opacity:1;stroke-dasharray:none;stroke-linecap:butt;stroke-linejoin:round;stroke-miterlimit:4;stroke-opacity:1;stroke-width:0;stroke:#000000" d="m 252.36314,278.33155 c -0.61214,5.32077 -1.15199,10.07397 -1.82899,16.22409 0.5667,0.0657 7.6832,1.30957 7.7176,0.88891 0.01,-0.11922 0.42983,-1.73471 0.0554,-1.86126 -0.40344,-0.13648 -6.02951,-0.39058 -5.90006,-0.95791 0.0974,-0.42738 1.10848,-9.35195 1.36161,-11.55191 0.0474,-0.41313 6.21348,0.62396 6.28157,0.27346 0.35271,-1.81476 0.28855,-2.11702 0.0115,-2.32682 -4.99135,-0.5743 -7.58847,-1.26261 -7.699,-0.6886 z" id="path7680-1-1-2"/><ellipse style="display:inline;fill-opacity:1;fill-rule:evenodd;fill:#ffd42a;opacity:1;stroke-dasharray:none;stroke-dashoffset:0;stroke-linecap:butt;stroke-linejoin:miter;stroke-miterlimit:4;stroke-opacity:1;stroke-width:0;stroke:#212f3d;vector-effect:none" id="ellipse7682-4-8-2" cx="255.14452" cy="423.40643" rx="3.1445143" ry="2.5314598"/><ellipse style="display:inline;fill-opacity:1;fill-rule:evenodd;fill:#ffd42a;opacity:1;stroke-dasharray:none;stroke-dashoffset:0;stroke-linecap:butt;stroke-linejoin:miter;stroke-miterlimit:4;stroke-opacity:1;stroke-width:0;stroke:#212f3d;vector-effect:none" id="ellipse7684-5-1-8" cx="292.543" cy="424.65601" rx="3.1445143" ry="2.5314598"/><path style="display:inline;fill-opacity:1;fill-rule:evenodd;fill:#d4aa00;opacity:1;stroke-dasharray:none;stroke-dashoffset:0;stroke-linecap:butt;stroke-linejoin:miter;stroke-miterlimit:4;stroke-opacity:1;stroke-width:0;stroke:#212f3d;vector-effect:none" d="m 279.25199,431.10669 c -1.37002,0.64678 -5.67692,1.98282 -7.41359,1.98282 -1.73667,0 -6.49308,-1.2249 -7.46535,-2.62299 -0.19481,-0.28013 -6.077,-6.41699 2.99009,-6.52343 0.26453,-0.003 -7.82926,1.11591 -1.31964,6.12521 1.30256,1.00235 5.03332,1.93539 5.59982,1.93538 0.75212,0 4.56703,-0.72796 6.98966,-1.97266 1.72121,-0.88432 4.54744,-3.51685 -1.13108,-6.00108 8.7381,1.72082 2.07782,6.92202 1.75009,7.07675 z" id="path7686-4-7-3" sodipodi:nodetypes="ssssssscs"/><path style="display:inline;fill-opacity:1;fill-rule:evenodd;fill:#d4aa00;opacity:1;stroke-dasharray:none;stroke-dashoffset:0;stroke-linecap:butt;stroke-linejoin:miter;stroke-miterlimit:4;stroke-opacity:1;stroke-width:0;stroke:#212f3d;vector-effect:none" d="m 275.19158,431.20514 c -0.63435,0.34364 -2.62856,1.0535 -3.43268,1.0535 -0.80413,0 -3.00647,-0.65081 -3.45666,-1.39363 -0.0902,-0.14883 -2.81381,-3.40941 1.38449,-3.46596 0.12249,-0.002 -3.62515,0.59289 -0.61103,3.25438 0.60312,0.53256 2.33056,1.0283 2.59287,1.02829 0.34825,0 2.11465,-0.38677 3.2364,-1.04809 0.79696,-0.46985 2.10558,-1.86854 -0.52372,-3.18844 4.04597,0.91429 0.96208,3.67774 0.81033,3.75995 z" id="path7688-8-8-3" sodipodi:nodetypes="ssssssscs"/><path style="display:inline;fill-opacity:1;fill-rule:evenodd;fill:#d4aa00;opacity:1;stroke-dasharray:none;stroke-dashoffset:0;stroke-linecap:butt;stroke-linejoin:miter;stroke-miterlimit:4;stroke-opacity:1;stroke-width:0;stroke:#212f3d;vector-effect:none" d="m 268.0292,433.5141 c 0.6248,-0.36072 2.59902,-1.1244 3.40284,-1.14621 0.80384,-0.0218 3.02302,0.56902 3.49319,1.29937 0.0942,0.14632 2.90525,3.33183 -1.28998,3.50223 -0.12239,0.005 3.60774,-0.69099 0.52254,-3.26976 -0.61734,-0.516 -2.35759,-0.96471 -2.6198,-0.95758 -0.34813,0.009 -2.10338,0.44397 -3.20679,1.13548 -0.78392,0.49129 -2.05412,1.92496 0.61001,3.17306 -4.06928,-0.80422 -1.06148,-3.65029 -0.91201,-3.73659 z" id="path7690-9-8-3" sodipodi:nodetypes="ssssssscs"/><path style="display:inline;fill-opacity:1;fill-rule:evenodd;fill:#d4aa00;opacity:1;stroke-dasharray:none;stroke-dashoffset:0;stroke-linecap:butt;stroke-linejoin:miter;stroke-miterlimit:4;stroke-opacity:1;stroke-width:0;stroke:#212f3d;vector-effect:none" d="m 281.29101,430.63664 c -0.35546,-0.0898 -1.34603,-0.51319 -1.64741,-0.79282 -0.30139,-0.27964 -0.90394,-1.29317 -0.81825,-1.73241 0.0172,-0.088 0.11311,-2.27594 1.70603,-0.83749 0.0465,0.042 -1.56179,-1.03503 -1.34367,1.02596 0.0437,0.41239 0.52131,1.20176 0.61963,1.29298 0.13037,0.12127 0.92505,0.5882 1.572,0.72662 0.45963,0.0983 1.42917,0.0211 0.89577,-1.39546 1.2033,1.75492 -0.89906,1.7341 -0.9841,1.71262 z" id="path7692-1-0-4" sodipodi:nodetypes="ssssssscs"/><path style="display:inline;fill-opacity:1;fill-rule:evenodd;fill:#d4aa00;opacity:1;stroke-dasharray:none;stroke-dashoffset:0;stroke-linecap:butt;stroke-linejoin:miter;stroke-miterlimit:4;stroke-opacity:1;stroke-width:0;stroke:#212f3d;vector-effect:none" d="m 265.56777,428.01031 c -0.21502,0.29696 -0.97505,1.06039 -1.34639,1.23684 -0.37135,0.17644 -1.53594,0.36095 -1.91224,0.11873 -0.0754,-0.0486 -2.07235,-0.94767 -0.14638,-1.89486 0.0562,-0.0276 -1.53969,1.06763 0.45561,1.62802 0.39927,0.11208 1.30937,-0.0394 1.43051,-0.0969 0.16091,-0.0762 0.88887,-0.64156 1.25697,-1.19129 0.26148,-0.39058 0.54871,-1.31981 -0.96467,-1.34875 2.07571,-0.46809 1.27803,1.47718 1.22659,1.54822 z" id="path7694-9-2-2" sodipodi:nodetypes="ssssssscs"/><path sodipodi:nodetypes="ccc" id="path7536-8-5-6-3" d="m 305.52214,264.68859 c -7.23597,5.42794 -12.12222,-5.12131 -11.84038,-5.00792 5.2063,5.31348 6.7804,4.32151 11.84038,5.00792 z" style="display:inline;fill-opacity:1;fill-rule:evenodd;fill:#ffd42a;opacity:1;stroke-dasharray:none;stroke-linecap:butt;stroke-linejoin:miter;stroke-miterlimit:4;stroke-opacity:0;stroke-width:1.82207179;stroke:#000000"/><path sodipodi:nodetypes="ccc" id="path7540-8-5-6-4" d="m 301.54191,269.41023 c -8.48577,-3.13267 -2.27609,-12.96131 -2.2184,-12.66304 -1.6381,7.25639 0.0493,8.04032 2.2184,12.66304 z" style="display:inline;fill-opacity:1;fill-rule:evenodd;fill:#ffd42a;opacity:1;stroke-dasharray:none;stroke-linecap:butt;stroke-linejoin:miter;stroke-miterlimit:4;stroke-opacity:0;stroke-width:1.82207179;stroke:#000000"/><path sodipodi:nodetypes="ccc" id="path7542-9-2-3-0" d="m 294.57773,269.02066 c -0.46259,-9.03371 11.01732,-7.19687 10.76587,-7.02637 -7.31506,1.35218 -7.37106,3.21195 -10.76587,7.02637 z" style="display:inline;fill-opacity:1;fill-rule:evenodd;fill:#ffd42a;opacity:1;stroke-dasharray:none;stroke-linecap:butt;stroke-linejoin:miter;stroke-miterlimit:4;stroke-opacity:0;stroke-width:1.82207179;stroke:#000000"/><path sodipodi:nodetypes="ccc" id="path7544-5-4-9-4" d="m 266.43885,263.09473 c 7.23597,5.42794 12.12222,-5.12131 11.84038,-5.00792 -5.2063,5.31348 -6.7804,4.32151 -11.84038,5.00792 z" style="display:inline;fill-opacity:1;fill-rule:evenodd;fill:#ffd42a;opacity:1;stroke-dasharray:none;stroke-linecap:butt;stroke-linejoin:miter;stroke-miterlimit:4;stroke-opacity:0;stroke-width:1.82207179;stroke:#000000"/><path sodipodi:nodetypes="ccc" id="path7546-4-4-8-6" d="m 270.41908,267.81637 c 8.48577,-3.13267 2.27609,-12.96131 2.2184,-12.66304 1.6381,7.25639 -0.0493,8.04032 -2.2184,12.66304 z" style="display:inline;fill-opacity:1;fill-rule:evenodd;fill:#ffd42a;opacity:1;stroke-dasharray:none;stroke-linecap:butt;stroke-linejoin:miter;stroke-miterlimit:4;stroke-opacity:0;stroke-width:1.82207179;stroke:#000000"/><path sodipodi:nodetypes="ccc" id="path7548-4-7-1-5" d="m 277.38326,267.4268 c 0.46259,-9.03371 -11.01732,-7.19687 -10.76587,-7.02637 7.31506,1.35218 7.37106,3.21195 10.76587,7.02637 z" style="display:inline;fill-opacity:1;fill-rule:evenodd;fill:#ffd42a;opacity:1;stroke-dasharray:none;stroke-linecap:butt;stroke-linejoin:miter;stroke-miterlimit:4;stroke-opacity:0;stroke-width:1.82207179;stroke:#000000"/><path sodipodi:nodetypes="ccscccscc" id="path7550-4-3-8-3" d="m 284.46161,271.14962 c 0.7125,-0.78688 1.6443,-4.736 2.25881,-6.49558 1.60163,-0.89232 2.59833,-0.81476 2.62243,-1.15635 0.0287,-0.40677 -1.97943,-0.44574 -2.46443,-1.32429 -0.30811,-2.15488 -0.25141,-7.21636 -0.26447,-7.12474 -0.42034,0.9563 -0.94681,4.9062 -1.57514,6.78077 -1.45096,1.25949 -2.81138,1.10675 -2.82562,1.31895 -0.0163,0.24244 1.78437,0.50973 2.45458,1.35801 0.10918,1.47512 -0.26913,4.35839 -0.20616,6.64323 z" style="display:inline;fill-opacity:1;fill-rule:evenodd;fill:#d4aa00;opacity:1;stroke-dasharray:none;stroke-linecap:butt;stroke-linejoin:miter;stroke-miterlimit:4;stroke-opacity:0;stroke-width:1.82207179;stroke:#000000"/><path d="m 329.8875,425.70175 c -15.4791,1.19068 -42.03653,26.26041 -44.60913,30.99635 10.29989,-9.14088 29.75951,-26.28541 44.60913,-30.99635 z" class="shadow" id="path5772-6-5-0-5-7-7" sodipodi:nodetypes="ccc"/><path d="m 262.14541,457.55004 c -6.81704,-9.41592 -28.83006,-31.99347 -34.93819,-34.15183 5.05404,5.44075 26.5203,25.35081 34.93819,34.15183 z" class="shadow" id="path5774-7-1-4-0-5-4" sodipodi:nodetypes="ccc"/></svg>
