<svg viewBox="0 0 560 1000"><path style="display:inline;fill-opacity:1;fill-rule:evenodd;fill:#000000;opacity:1;stroke-dasharray:none;stroke-linecap:butt;stroke-linejoin:miter;stroke-miterlimit:4;stroke-opacity:1;stroke-width:0;stroke:#000000" d="m 356.60708,347.52451 c 10.84614,22.22517 23.75703,52.05353 7.6872,69.48219 0,0 -66.93364,-1.93603 -78.44286,26.40134 -2.06147,4.01155 -2.1084,11.81811 -3.46792,16.10443 -0.27859,0.87834 -1.00697,6.35332 -3.50565,8.26757 -0.26944,0.20641 -1.13656,1.14752 -4.58251,0.28177 -0.17413,-0.0437 -1.37345,0.71664 -3.61847,0.0361 -5.83439,-1.76869 -6.66978,-8.86034 -6.76649,-9.28816 -1.98539,-8.78313 -6.24957,-28.02971 -9.43291,-34.24779 -14.19124,-27.72004 -27.92284,-9.19794 -29.23068,-11.53427 -6.93346,-27.47608 -7.00154,-30.83032 5.09741,-70.6729 37.55587,-19.1934 95.76798,-7.07567 126.26288,5.16972 z" id="path5152-4-5" sodipodi:nodetypes="cccssssssccc"/><path style="display:inline;fill-opacity:1;fill-rule:evenodd;fill:#212f3d;opacity:1;stroke-dasharray:none;stroke-linecap:butt;stroke-linejoin:miter;stroke-miterlimit:4;stroke-opacity:1;stroke-width:0;stroke:#000000" d="m 355.43998,348.28482 c 10.13692,18.42587 22.54445,49.42271 8.68011,68.59126 -68.92849,36.56956 -78.67909,40.18293 -81.45076,41.5207 -0.78385,1.88787 -2.10386,7.06063 -4.60076,8.84104 -1.21712,0.86786 -3.67455,-0.009 -3.92649,-0.0331 -0.29397,-0.0276 -0.96836,0.96577 -3.15959,0.31564 -4.34231,-1.28834 -5.1677,-4.97917 -6.64606,-7.92987 -3.29983,-3.30516 -38.77356,-10.57882 -39.37854,-45.6127 -5.83733,-28.88769 -2.53346,-43.40427 6.0803,-71.50193 24.1792,-11.73096 71.36398,-15.69077 124.40179,5.80896 z" id="path5154-3-6" sodipodi:nodetypes="cccssscccc"/><path style="display:inline;fill-rule:evenodd;fill:none;opacity:1;stroke-dasharray:none;stroke-linecap:round;stroke-linejoin:miter;stroke-miterlimit:3;stroke-opacity:1;stroke-width:2;stroke:#212f3d" d="m 319.11173,200.11448 c -4.12562,6.10264 -23.52024,13.7416 -25.54211,20.47829 -6.88077,22.92615 -16.15822,45.34606 -18.52383,68.60571 -1.64704,16.19445 -7.93348,31.76683 -8.37146,50.25754 0.0409,-1.26589 12.55986,1.54689 12.63603,-0.40805 0.37779,-9.6961 -5.89853,-30.61811 -3.99773,-49.92912 2.33608,-23.73313 11.6097,-50.49224 18.08437,-68.19516 2.16789,-5.92742 -8.4146,-15.25736 -8.30597,-19.56074" id="path1860-6-0-3-8-7" sodipodi:nodetypes="csscsssc"/></svg>
