<svg viewBox="0 0 560 1000"><path style="display:inline;fill-opacity:1;fill-rule:evenodd;fill:#000000;opacity:1;stroke-dasharray:none;stroke-linecap:butt;stroke-linejoin:miter;stroke-miterlimit:4;stroke-opacity:1;stroke-width:0;stroke:#000000" d="m 362.09201,306.61521 c -3.17332,10.98206 -8.30362,33.00056 -11.74045,46.97326 18.12643,45.26165 18.48066,63.83055 5.06707,67.43333 0.0274,-0.17435 -48.65941,9.36855 -68.83936,30.31161 -4.92627,5.11256 -3.48792,15.45153 -7.05147,16.69466 -13.46483,4.69716 -17.71458,-10.66263 -17.71458,-10.66263 -6.67546,-8.9041 -31.17323,-37.74254 -36.54649,-43.43743 -9.78101,-31.06513 14.82798,-59.27712 11.21478,-123.62982 -0.41476,-12.83179 -1.48561,-23.24235 1.14408,-31.18674 10.85607,-32.79663 43.65754,-30.65315 39.10988,-53.47826 -0.63873,-0.33426 8.39821,-1.66517 11.86024,-12.19251 0.72296,1.09511 10.10133,-1.0257 8.84383,10.11159 1.09292,-12.82985 17.13877,-9.77547 18.48618,-10.46976 3.1819,9.61235 11.24168,12.41637 11.24168,12.41637 26.56852,48.52323 60.21296,31.04868 34.92461,101.11633 z" id="path7189-3-57" sodipodi:nodetypes="cccsssccscccccc"/><path style="display:inline;fill-opacity:1;fill-rule:evenodd;fill:#008000;opacity:1;stroke-dasharray:none;stroke-linecap:butt;stroke-linejoin:miter;stroke-miterlimit:4;stroke-opacity:1;stroke-width:0;stroke:#000000" d="m 360.51873,307.70681 c -2.53292,8.11918 -11.62497,46.19452 -11.62497,46.19452 3.96537,7.58726 23.09093,51.09684 11.16946,68.606 -31.72833,17.73093 -63.73449,15.32751 -79.093,45.02967 -0.34473,0.71459 -4.28479,1.02682 -6.08184,2.18944 -8.64043,5.59002 -13.52858,-12.764 -13.52858,-12.764 -12.68731,-6.25306 -39.24847,-28.74173 -36.13062,-42.49408 -7.37037,-30.73442 17.15257,-70.56314 13.20465,-121.78934 -6.62019,-43.36611 7.88432,-82.69503 38.28126,-87.0957 7.28553,-1.27853 10.37474,-6.78856 11.95132,-12.13247 1.08324,1.26797 8.87725,-0.33586 8.67517,10.21488 2.45278,-12.78085 18.51342,-10.1323 18.69168,-10.5508 0.72243,2.61789 2.00934,9.58128 11.30402,12.3265 7.00739,2.08643 18.51182,3.12161 19.52469,3.39309 38.24227,15.3092 24.65422,69.34419 13.65676,98.87229 z" id="path7191-7-07" sodipodi:nodetypes="ccccssccccccccc"/><path style="display:inline;fill-opacity:1;fill:#99ff55;opacity:1;stroke-width:0.91142344" inkscape:label="#PussyU" sodipodi:nodetypes="cscsc" id="path7197-9-0" d="m 242.56977,237.76567 c 32.93553,-28.40765 53.7143,-34.56657 54.55133,-34.71502 0.28735,-0.051 0.52518,0.97539 0.6987,1.08111 -0.40837,0.29152 -18.61827,3.53865 -56.46565,36.35863 -0.22561,0.19564 1.41568,-2.84573 1.21562,-2.72472 z"/><path style="display:inline;fill-opacity:1;fill:#99ff55;opacity:1;stroke-width:1.60637832" inkscape:label="#PussyU" sodipodi:nodetypes="csscscc" id="path7199-6-1" d="m 304.38992,204.50158 c -1.23533,0.0332 -7.02852,-0.37855 -7.45482,-0.47791 -0.4985,-0.11613 -6.40518,0.11179 -7.30701,-0.22153 -0.40649,-0.15014 -1.01888,-2.14439 0.38507,-2.49972 0.50635,-0.009 6.57661,1.67895 6.85933,1.74206 0.31919,0.0713 6.15088,-1.03088 7.40342,-1.25412 1.5094,0.82056 0.91004,2.45683 0.11399,2.71122 z"/><path style="display:inline;fill-opacity:1;fill:#99ff55;opacity:1;stroke-width:1.09277165" inkscape:label="#PussyU" sodipodi:nodetypes="csscscc" id="path7201-9-6" d="m 276.27981,219.85653 c -0.46763,-0.67641 -2.30821,-4.03241 -2.40076,-4.30174 -0.10825,-0.31494 -2.3872,-3.52676 -2.50651,-4.13644 -0.0538,-0.27477 0.96318,-1.26173 1.6919,-0.59592 0.18882,0.27875 1.33702,4.20247 1.40013,4.38019 0.0712,0.20066 2.86602,3.08742 3.45792,3.71182 0.0365,1.10556 -1.19662,1.30245 -1.64268,0.94208 z"/><path style="display:inline;fill-opacity:1;fill:#99ff55;opacity:1;stroke-width:1.09277165" inkscape:label="#PussyU" sodipodi:nodetypes="csscscc" id="path7203-2-7" d="m 270.24513,223.72541 c -0.46763,-0.67641 -2.30821,-4.03241 -2.40076,-4.30174 -0.10825,-0.31494 -2.3872,-3.52676 -2.50651,-4.13644 -0.0538,-0.27477 0.96318,-1.26173 1.6919,-0.59592 0.18882,0.27875 1.33702,4.20247 1.40013,4.38019 0.0712,0.20066 2.86602,3.08742 3.45792,3.71182 0.0365,1.10556 -1.19662,1.30245 -1.64268,0.94208 z"/><path style="display:inline;fill-opacity:1;fill:#99ff55;opacity:1;stroke-width:0.91142344" inkscape:label="#PussyU" sodipodi:nodetypes="cssssssssscsssssssssssssc" id="path7205-3-92" d="m 223.75039,399.05922 c 6.46559,-5.57672 23.23589,-16.47392 28.37131,-20.26961 0.44352,-0.32782 -2.17387,-6.70231 -0.85061,-13.31045 1.17884,-5.88691 6.31058,-12.08823 6.68931,-12.36036 0.37438,-0.269 -3.42764,8.73407 -3.88051,14.27292 -0.47868,5.85453 2.38876,8.26367 2.76817,7.99858 13.37625,-9.34563 21.56019,-12.65135 25.06985,-13.76489 0.29678,-0.0942 7.32185,-10.4257 7.5521,-10.49084 0.67293,-0.19037 -5.69867,9.98632 -5.58358,9.96591 0.15981,-0.0283 12.59027,-4.76165 12.7169,-4.46726 0.10107,0.23498 -12.09522,5.50144 -12.0182,5.54837 -0.0622,0.0444 5.2967,4.24498 4.6275,4.4077 -0.22009,0.0535 -6.17661,-4.03462 -6.46914,-3.95184 -2.03627,0.57622 -5.8682,1.96012 -12.06211,5.5262 -0.30555,0.17592 -0.8371,2.51656 1.23701,4.54479 2.58548,2.52828 7.90437,4.84805 7.49085,5.09813 -0.45512,0.27524 -4.95288,-0.42717 -8.23822,-2.29247 -3.06956,-1.74277 -4.93781,-4.65949 -5.40381,-4.36218 -5.11744,3.26497 -11.44001,7.74259 -19.15739,13.8932 -0.23512,0.18739 -0.11954,8.04989 3.13566,12.17786 3.52947,4.47577 10.22216,5.24415 9.96136,5.4544 -0.27741,0.22364 -7.6948,0.57452 -11.80497,-3.51426 -3.69456,-3.67535 -4.12293,-11.83739 -4.37824,-11.62913 -3.01704,2.46105 -17.21296,11.45898 -20.63531,14.42673 -0.22561,0.19564 1.06213,-3.02251 0.86207,-2.9015 z"/><path style="display:inline;fill-opacity:1;fill:#99ff55;opacity:1;stroke-width:0.91142344" inkscape:label="#PussyU" sodipodi:nodetypes="csssssssssssssscssssssssssssscc" id="path7207-4-4" d="m 355.79222,368.55767 c -3.03178,-2.11866 -28.76138,-21.95433 -31.69074,-24.53094 -0.17186,-0.15117 1.76567,-3.41168 2.32807,-7.23383 0.56231,-3.82156 -0.25052,-8.20476 -0.42268,-8.35356 -0.185,-0.1599 -0.11064,4.82119 -1.03324,8.34989 -0.91487,3.49916 -2.82674,5.54618 -3.01045,5.3903 -7.58055,-6.43247 -15.23966,-11.72783 -21.88067,-15.83688 -0.27415,-0.16963 1.72764,-2.99519 1.95109,-5.96044 0.19916,-2.64285 -1.37418,-5.46092 -1.61242,-5.60528 -0.2161,-0.13094 0.62361,3.13852 -0.0466,5.59791 -0.70489,2.58654 -2.9208,4.3699 -3.14258,4.23792 -7.46144,-4.44009 -13.27934,-7.21612 -15.64829,-8.24707 -0.13369,-0.0582 -2.51029,-8.68447 -2.62168,-8.73152 -0.43655,-0.18438 1.55447,8.29048 1.48479,8.27812 -0.14879,-0.0264 -18.75746,-7.9841 -18.87763,-7.7102 -0.11193,0.25512 18.26261,8.74033 18.17893,8.79131 0.0391,0.0278 -5.26377,5.92232 -4.79283,6.11275 0.21977,0.0889 6.05271,-5.59314 6.35975,-5.46629 4.06981,1.68128 15.61713,6.7707 29.62522,17.16894 0.2205,0.16368 -0.34296,2.855 -3.11509,4.21885 -3.38707,1.66639 -9.11646,2.05953 -8.84386,2.2667 0.26656,0.20258 4.90078,0.87282 8.67703,-0.32403 3.44039,-1.0904 6.05178,-4.05985 6.29733,-3.86863 4.13349,3.2189 9.53793,8.12345 18.16057,15.46486 0.28306,0.241 0.0507,4.27768 -2.17243,6.65282 -2.7123,2.8977 -7.5244,4.2289 -7.15986,4.53731 0.28371,0.24003 4.99783,0.35429 8.17816,-1.84884 3.01608,-2.08935 4.50596,-6.50303 4.7873,-6.26636 2.45265,2.06317 17.13631,12.54484 20.08429,14.95786 0.23108,0.18914 -0.10892,-1.2346 0.0469,-1.95328 z"/><path d="m 329.8875,425.70175 c -15.4791,1.19068 -42.03653,26.26041 -44.60913,30.99635 10.29989,-9.14088 29.75951,-26.28541 44.60913,-30.99635 z" class="shadow" id="path5772-6-5" sodipodi:nodetypes="ccc"/><path d="m 262.14541,457.55004 c -6.81704,-9.41592 -28.83006,-31.99347 -34.93819,-34.15183 5.05404,5.44075 26.5203,25.35081 34.93819,34.15183 z" class="shadow" id="path5774-7-1" sodipodi:nodetypes="ccc"/></svg>
