<svg viewBox="0 0 560 1000"><path sodipodi:nodetypes="ccssc" id="path7623" d="m 350.12931,407.62791 c 8.20773,0.68418 52.58486,39.49768 40.79106,79.64218 -7.65858,-3.48945 -18.25653,-15.9975 -18.25653,-15.9975 -7.73135,-16.84961 -23.08925,-47.00857 -21.13047,-60.16535 0.0246,-0.16538 -1.56383,-3.32192 -1.40406,-3.47933 z" style="display:inline;fill-opacity:1;fill-rule:evenodd;fill:#000000;stroke-dasharray:none;stroke-linecap:butt;stroke-linejoin:miter;stroke-miterlimit:4;stroke-opacity:0;stroke-width:3;stroke:#000000"/><path sodipodi:nodetypes="csssccscc" id="path7625" d="m 349.37494,406.96372 c 0.22265,0.0924 0.46533,0.23825 0.75647,0.37712 1.00485,0.47929 2.31731,1.34889 3.84105,2.57257 11.3192,9.09023 42.34754,40.45759 37.48328,73.77448 -0.18129,1.24172 -0.4043,2.49053 -0.67137,3.74568 -9.97109,-4.92696 -20.28253,-7.7881 -20.28253,-7.7881 -4.24176,-11.60618 -24.29363,-68.45386 -21.4806,-72.59506 0.0221,-0.0326 0.33583,-0.0799 0.3537,-0.0867 z" style="display:inline;fill-opacity:1;fill-rule:evenodd;fill:#8aa7ff;stroke-dasharray:none;stroke-linecap:butt;stroke-linejoin:miter;stroke-miterlimit:4;stroke-opacity:0;stroke-width:3;stroke:#000000"/><path sodipodi:nodetypes="ccssc" id="path7627" d="m 352.64445,408.89608 c 22.63426,15.11993 42.37839,46.07299 39.28846,70.89172 -7.65859,-3.48946 -21.08496,-7.77737 -21.08496,-7.77737 -7.73135,-16.84962 -22.38214,-48.59956 -20.42337,-61.75634 0.0246,-0.16538 2.0601,-1.2006 2.21987,-1.35801 z" style="display:inline;fill-opacity:1;fill-rule:evenodd;fill:#517cd3;stroke-dasharray:none;stroke-linecap:butt;stroke-linejoin:miter;stroke-miterlimit:4;stroke-opacity:0;stroke-width:3;stroke:#000000"/></svg>
