<svg viewBox="0 0 560 1000"><path sodipodi:nodetypes="cccssc" id="path3458" d="m 347.04161,402.77706 c 10.63176,7.73346 39.3969,21.83975 42.43004,64.79569 -1.51441,19.83995 -4.74958,30.21086 -22.15459,43.22353 -3.33339,0.85196 -12.24763,5.01268 -12.66743,4.26913 -0.13207,-0.23393 -2.19467,1.43762 -2.19467,1.43762 -8.96261,-21.73836 -1.87485,-109.72281 -5.41335,-113.72597 z" style="display:inline;fill-opacity:1;fill-rule:evenodd;fill:#000000;opacity:1;stroke-dasharray:none;stroke-linecap:butt;stroke-linejoin:miter;stroke-miterlimit:4;stroke-opacity:0;stroke-width:3.0649333;stroke:#000000"/><path sodipodi:nodetypes="cscssc" id="path3460" d="m 346.56325,402.19876 c 8.25676,6.69057 37.8969,22.21475 40.93004,65.17069 1.02624,14.53419 -2.99186,27.03139 -20.67383,42.9492 -0.0512,0.0738 -9.02467,3.39935 -10.56458,4.6892 -0.17143,0.14359 -0.46235,-0.0846 -0.50882,-0.24256 -6.98303,-23.7292 -4.66092,-107.45085 -9.18281,-112.56653 z" style="display:inline;fill-opacity:1;fill-rule:evenodd;fill:#c837ab;opacity:1;stroke-dasharray:none;stroke-linecap:butt;stroke-linejoin:miter;stroke-miterlimit:4;stroke-opacity:0;stroke-width:3.0649333;stroke:#000000"/><path style="display:inline;fill-opacity:1;fill-rule:evenodd;fill:#ffffff;opacity:1;stroke-dasharray:none;stroke-linecap:butt;stroke-linejoin:miter;stroke-miterlimit:4;stroke-opacity:1;stroke-width:0;stroke:#000000" d="m 355.68724,513.18106 c 0.45198,0.25988 -0.37988,0.83604 0.47334,1.49296 3.73817,-1.46913 10.24078,-3.87741 11.13622,-4.49445 -0.11728,-0.44549 0.005,0.01 0.005,0.01 -6.08076,1.54555 -6.00701,1.2514 -11.48253,3.21302 z" id="path3462" sodipodi:nodetypes="cccccc"/></svg>
