<svg viewBox="0 0 560 1000"><path d="m 277.92014,121.44347 c 0.15976,0.18735 0.98694,1.31953 -0.47682,1.07884 -0.37467,-0.17995 -0.77553,-0.32976 -1.19508,-0.45308 -0.22121,-0.065 -0.44762,-0.12267 -0.67812,-0.17352 -0.22144,-0.0488 -0.44666,-0.0914 -0.67468,-0.12807 -1.74463,-0.28088 -3.65312,-0.22077 -5.28783,-0.0329 -1.86304,0.21945 -4.20091,0.76296 -5.41721,1.39032 -0.11798,-0.55069 -0.2088,-0.80024 -0.23516,-1.22335 -0.007,-0.11999 -0.23947,0.007 -0.25786,-0.077 0.11859,-0.0947 0.81465,-0.39051 0.8952,-0.41521 0.13064,-0.0401 -0.28417,-0.11537 -0.15717,-0.16472 0.16014,-0.0623 0.8551,-0.11015 1.02202,-0.16708 0.4834,-0.16486 0.99374,-0.30749 1.52232,-0.42797 0.18647,-0.0425 -0.12475,-0.14053 0.0659,-0.17752 0.11719,-0.0227 0.73509,0.0139 0.85362,-0.007 0.52907,-0.0922 1.07059,-0.16362 1.61664,-0.21434 0.26197,-0.0243 -0.10001,-0.17215 0.16318,-0.18696 0.21942,-0.0123 1.06396,0.10689 1.28312,0.10116 0.38826,-0.0101 0.77532,-0.01 1.15835,7.2e-4 0.22176,0.006 -0.0109,-0.21743 0.20757,-0.20434 0.19835,0.0119 0.84827,0.25984 1.04308,0.27744 0.46541,0.0421 0.91958,0.10043 1.35695,0.1751 0.31406,0.0536 -0.0368,-0.19921 0.25788,-0.1288 0.19042,0.0455 1.0326,0.40929 1.21351,0.46177 0.64623,0.18752 1.22823,0.41969 1.72067,0.69637 z" id="path7259" sodipodi:nodetypes="ccsssccscssssssssssssssscc" class="eyebrow_hair"/><path d="m 298.42518,121.65731 c -1.09909,0.12632 -2.17175,0.31591 -3.24494,0.57073 -3.62966,0.88831 -2.64043,-0.25987 -2.59396,-0.6632 0.76259,-0.306 1.5142,-0.5617 2.26214,-0.77335 0.35009,-0.0991 1.60535,-0.52651 1.95457,-0.6069 0.3564,-0.082 -0.19319,0.18333 0.16384,0.11937 0.43341,-0.0776 0.86791,-0.14242 1.30492,-0.19562 0.393,-0.0479 1.45094,-0.25941 1.84903,-0.28936 0.28039,-0.0211 -0.10058,0.13518 0.18317,0.12222 0.49445,-0.0226 0.99461,-0.0333 1.5024,-0.0338 0.32118,-3.1e-4 1.42986,-0.11195 1.75763,-0.10449 0.27686,0.006 -0.2282,0.13066 0.054,0.14196 0.43475,0.0173 0.87618,0.0404 1.32536,0.0682 0.24725,0.0153 1.35864,-0.0917 1.61077,-0.0736 0.28945,0.0206 -0.27956,0.16669 0.0168,0.1905 0.70797,0.0569 1.43646,0.12206 2.18914,0.19242 0.28501,0.0477 1.32322,0.008 1.61271,0.065 0.21372,0.0426 -0.32185,0.18104 -0.10748,0.22857 0.84808,0.18801 1.29752,0.26435 2.09664,0.5115 0.38647,0.11954 1.19921,0.22098 1.55786,0.34937 0.0697,0.0249 -0.29877,0.0734 -0.23038,0.0986 0.65892,0.24284 1.65386,0.64565 2.15429,0.90097 0.001,0.19911 -2.42095,-0.47337 0.62293,0.68166 -6.02408,-1.15303 -12.24058,-2.14465 -18.04144,-1.50071 z" id="path7261" sodipodi:nodetypes="cccsssssssssssscssssscccc" class="eyebrow_hair"/></svg>
