<svg viewBox="0 0 560 1000"><path style="display:inline;fill-opacity:1;fill-rule:evenodd;fill:#000000;opacity:1;stroke-dasharray:none;stroke-linecap:butt;stroke-linejoin:miter;stroke-miterlimit:4;stroke-opacity:1;stroke-width:0;stroke:#000000" d="m 361.71215,307.35326 c -8.74284,18.45834 -10.01224,32.92683 -10.74411,45.64782 10.02584,23.09221 15.92325,48.51672 10.44821,66.65731 -40.98288,11.44456 -74.3952,36.08888 -75.18374,38.42665 -0.80097,1.88787 -4.89589,9.82211 -7.44735,11.60252 -1.24372,0.86786 -4.66399,-0.37235 -4.92144,-0.39645 -0.30038,-0.0276 -0.79229,0.50225 -3.05346,-0.0701 -5.77903,-1.4629 -10.45326,-5.40448 -11.03788,-7.35518 -18.83384,-29.49711 -30.60867,-45.3232 -35.43733,-46.51215 -4.41087,-30.8101 10.71753,-66.98319 15.22842,-92.215 0.33088,-1.85079 0.21804,-2.8986 0.21804,-2.8986 0,0 -1.79032,-18.74897 -2.28768,-25.61281 -2.85333,-13.17139 -2.51845,-58.72939 34.48113,-86.84083 13.97006,2.79845 -31.78912,41.18725 15.10904,41.66507 68.04792,5.8644 16.86141,-36.04718 49.19127,-43.01243 18.69542,19.76167 33.84662,47.40966 34.6121,57.32597 0.76548,9.91631 -2.79999,25.24943 -9.17522,43.58821 z" id="path6789-2" sodipodi:nodetypes="ccccsssccsccccccc"/><path style="display:inline;fill-opacity:1;fill-rule:evenodd;fill:#c8c8c8;opacity:1;stroke-dasharray:none;stroke-linecap:butt;stroke-linejoin:miter;stroke-miterlimit:4;stroke-opacity:1;stroke-width:0;stroke:#000000" d="m 359.37943,305.93904 c -10.56716,27.75002 -30.17458,36.66753 -33.04815,58.02719 -1.09644,9.03783 24.12932,44.01876 24.48908,48.81716 -39.71704,11.44456 -64.34445,42.96388 -65.10863,45.30165 -0.77623,1.88787 -4.74467,9.82211 -7.21732,11.60252 -1.2053,0.86786 -4.51993,-0.37235 -4.76943,-0.39645 -0.29111,-0.0276 -0.76782,0.50225 -2.95915,-0.0701 -5.60053,-1.4629 -10.13039,-5.40448 -10.69695,-7.35518 -18.25211,-29.49711 -30.39009,-46.0732 -35.06961,-47.26215 7.87069,-20.31139 14.39621,-34.53836 15.3704,-39.64488 2.38405,-12.49684 4.30431,-31.04582 4.47213,-33.91997 1.26467,-21.66848 -5.48295,-33.8742 -6.36335,-46.41156 -2.7652,-13.17139 -6.26733,-75.27489 33.21444,-87.63633 11.4792,3.04845 -30.84785,42.98275 14.60175,43.46057 67.64207,6.1144 23.84352,-35.04718 47.90646,-44.01243 44.09549,-5.13167 42.54592,68.85914 25.17833,99.49996 z" id="path6791-4" sodipodi:nodetypes="ccccsssccssccccc"/><path style="display:inline;fill-opacity:1;fill-rule:evenodd;fill:#000000;opacity:1;stroke-dasharray:none;stroke-linecap:butt;stroke-linejoin:miter;stroke-miterlimit:4;stroke-opacity:1;stroke-width:0;stroke:#000000" d="m 368.12317,268.02469 c -0.47693,3.71189 -1.71416,20.85866 -7.93772,39.24665 -9.39761,24.56576 -30.21747,34.9934 -33.11209,56.41038 -1.10447,9.06208 24.30602,44.13688 24.66842,48.94815 -40.0079,11.47527 -64.81566,43.07917 -65.58543,45.42321 -0.78192,1.89294 -4.77942,9.84847 -7.27018,11.63365 -1.21413,0.87019 -4.55303,-0.37335 -4.80435,-0.39751 -0.29325,-0.0277 -0.77345,0.5036 -2.98083,-0.0703 -5.64155,-1.46682 -10.20458,-5.41898 -10.77528,-7.37491 -18.38578,-29.57626 -30.61265,-46.19683 -35.32644,-47.38897 7.92832,-20.3659 14.50164,-34.63104 15.48296,-39.75126 2.40151,-12.53038 4.33583,-31.12913 4.50488,-34.01099 1.27393,-21.72663 -5.5231,-33.9651 -6.40994,-46.5361 -2.78546,-13.20673 -3.6874,-58.01688 32.43196,-86.20375 -5.45263,10.52167 -31.81147,50.82466 13.97097,51.30376 68.13743,6.13081 42.36624,-39.98467 50.27254,-52.228 1.50669,-0.37507 9.9127,-1.32436 11.53269,1.80729 13.51628,26.12871 23.27691,47.68728 21.33784,59.18871 z" id="path6793-7" sodipodi:nodetypes="cccccsssccssccccscc"/><path style="display:inline;fill-opacity:1;fill-rule:evenodd;fill:#800033;opacity:1;stroke-dasharray:none;stroke-linecap:butt;stroke-linejoin:miter;stroke-miterlimit:4;stroke-opacity:1;stroke-width:0;stroke:#000000" d="m 360.18545,307.70681 c -8.16784,16.81586 -9.32642,30.73689 -10.55694,44.40335 12.54618,25.77381 14.97055,57.14649 11.90921,67.91219 -40.0079,11.44456 -74.6116,35.72492 -75.38137,38.06269 -0.78192,1.88787 -4.77942,9.82211 -7.27018,11.60252 -1.21413,0.86786 -4.55303,-0.37235 -4.80435,-0.39645 -0.29325,-0.0276 -0.77345,0.50225 -2.98083,-0.0701 -5.64155,-1.4629 -10.20458,-5.40448 -10.77528,-7.35518 -18.38578,-29.49711 -30.61265,-46.0732 -35.32644,-47.26215 -3.44007,-26.73259 12.84928,-77.05131 17.05367,-92.69411 -1.8184,-9.53426 -3.4747,-20.3001 -4.0061,-27.81263 -3.53546,-26.67139 -2.84771,-57.77358 33.27165,-85.88502 -6.95263,10.11952 -32.12083,51.13094 13.66161,51.60876 68.13743,6.1144 43.49124,-39.67371 50.27254,-52.8816 1.50669,-0.37407 9.16703,-0.80131 11.53269,1.80245 20.56958,22.63988 24.34307,50.87537 23.83668,55.93932 0.31711,9.90591 -4.19519,24.72726 -10.43656,43.02596 z" id="path6795-1" sodipodi:nodetypes="ccccssscccccccscc"/><path style="display:inline;fill-opacity:1;fill:#000000;stroke-dasharray:none;stroke-linecap:butt;stroke-linejoin:miter;stroke-miterlimit:4;stroke-opacity:1;stroke-width:0;stroke:#000000" d="m 225.59803,414.50423 c 13.0124,5.20002 29.36397,56.66207 49.38576,54.95988 13.4605,-1.86072 14.12966,-32.15215 76.46023,-57.39497 -1.99871,-6.0195 -5.43162,-10.1057 -8.43549,-32.45297 -0.0357,-0.2652 -0.22374,-10.08855 -0.22374,-10.08855 -46.477,-3.6786 -87.13741,-1.11387 -101.22775,-2.01765 0,0 -10.82602,35.27661 -15.95901,46.99426 z" id="path6797-9" sodipodi:nodetypes="cccscsc"/><path style="display:inline;fill-opacity:1;fill:#800033;stroke-dasharray:none;stroke-linecap:butt;stroke-linejoin:miter;stroke-miterlimit:4;stroke-opacity:1;stroke-width:0;stroke:#000000" d="m 224.05743,416.09574 c 9.38848,13.42014 31.24785,56.57108 51.26964,54.86889 13.4605,-1.86072 24.68144,-26.2986 87.01201,-51.54142 -6.56121,-7.37887 -6.66036,-37.37975 -7.28923,-39.35202 -0.0813,-0.25494 -0.91016,-8.4395 -0.91016,-8.4395 -48.602,-2.4286 -103.31217,-3.40937 -117.65251,-3.18815 0,0 -4.64511,33.72484 -12.42975,47.6522 z" id="path6799-0" sodipodi:nodetypes="cccscsc"/><path style="display:inline;fill-opacity:1;fill-rule:evenodd;fill:#ff5599;opacity:1;stroke-dasharray:none;stroke-linecap:butt;stroke-linejoin:miter;stroke-miterlimit:4;stroke-opacity:0;stroke-width:2.46133304;stroke:#000000" d="m 267.99582,339.26245 c -2.45523,-23.38362 6.94216,-79.19252 7.15362,-80.43894 0.052,-0.30626 -2.57797,-0.88001 -2.96744,-0.86425 -0.19785,1.33724 -10.06764,57.9646 -7.03139,81.20004 0.0214,0.1639 2.48212,0.23986 2.84521,0.10315 z" id="path6801-4" sodipodi:nodetypes="cscsc"/><path style="display:inline;fill-opacity:1;fill-rule:evenodd;fill:#ff5599;opacity:1;stroke-dasharray:none;stroke-linecap:butt;stroke-linejoin:miter;stroke-miterlimit:4;stroke-opacity:0;stroke-width:2.46133304;stroke:#000000" d="m 302.25645,341.79169 c -2.45523,-23.38362 4.06456,-80.76184 4.27602,-82.00826 0.052,-0.30626 -2.54672,0.11999 -2.93619,0.13575 -0.19785,1.33724 -6.86774,58.62231 -3.83149,81.85775 0.0214,0.1639 2.12857,0.15147 2.49166,0.0148 z" id="path6803-3" sodipodi:nodetypes="cscscc"/><path style="display:inline;fill-opacity:1;fill-rule:evenodd;fill:#ff5599;opacity:1;stroke-dasharray:none;stroke-linecap:butt;stroke-linejoin:miter;stroke-miterlimit:4;stroke-opacity:0;stroke-width:1.43549109;stroke:#000000" d="m 269.10372,293.09595 c 10.87774,-6.7535 32.60156,-12.70391 33.27121,-12.86935 0.16451,-0.0407 -0.24282,-1.66668 -0.35278,-1.88439 -0.71082,0.19398 -22.96188,6.06347 -33.61416,13.11319 -0.0752,0.0498 0.5331,1.46553 0.69577,1.64053 z" id="path6805-4" sodipodi:nodetypes="cscsc"/><path style="display:inline;fill-opacity:1;fill-rule:evenodd;fill:#ff5599;opacity:1;stroke-dasharray:none;stroke-linecap:butt;stroke-linejoin:miter;stroke-miterlimit:4;stroke-opacity:0;stroke-width:1.43549109;stroke:#000000" d="m 267.5709,308.47921 c 10.87774,-6.7535 32.60156,-12.70391 33.27121,-12.86935 0.16451,-0.0407 -0.24282,-1.66668 -0.35278,-1.88439 -0.71082,0.19398 -22.96188,6.06347 -33.61416,13.11319 -0.0752,0.0498 0.5331,1.46553 0.69577,1.64053 z" id="path6807-7" sodipodi:nodetypes="cscsc"/><path style="display:inline;fill-opacity:1;fill-rule:evenodd;fill:#ff5599;opacity:1;stroke-dasharray:none;stroke-linecap:butt;stroke-linejoin:miter;stroke-miterlimit:4;stroke-opacity:0;stroke-width:1.43549109;stroke:#000000" d="m 267.5709,324.10421 c 10.87774,-6.7535 32.60156,-12.70391 33.27121,-12.86935 0.16451,-0.0407 -0.24282,-1.66668 -0.35278,-1.88439 -0.71082,0.19398 -22.96188,6.06347 -33.61416,13.11319 -0.0752,0.0498 0.5331,1.46553 0.69577,1.64053 z" id="path6809-2" sodipodi:nodetypes="cscsc"/><path style="display:inline;fill-opacity:1;fill-rule:evenodd;fill:#ff5599;opacity:1;stroke-dasharray:none;stroke-linecap:butt;stroke-linejoin:miter;stroke-miterlimit:4;stroke-opacity:0;stroke-width:1.43549109;stroke:#000000" d="m 270.9459,276.22921 c 10.87774,-6.7535 32.60156,-12.70391 33.27121,-12.86935 0.16451,-0.0407 -0.24282,-1.66668 -0.35278,-1.88439 -0.71082,0.19398 -22.96188,6.06347 -33.61416,13.11319 -0.0752,0.0498 0.5331,1.46553 0.69577,1.64053 z" id="path6811-0" sodipodi:nodetypes="cscsc"/><path style="display:inline;fill-opacity:1;fill-rule:evenodd;fill:#ff5599;opacity:1;stroke-dasharray:none;stroke-linecap:butt;stroke-linejoin:miter;stroke-miterlimit:4;stroke-opacity:0;stroke-width:1.39789593;stroke:#000000" d="m 300.49535,318.93754 c -12.07843,-0.69203 -32.12415,-8.27737 -32.73235,-8.526 -0.14944,-0.061 -0.71324,1.5113 -0.74581,1.75367 0.65553,0.24879 21.06589,8.20369 33.12987,8.52237 0.0852,0.002 0.37962,-1.51254 0.34826,-1.75004 z" id="path6813-7" sodipodi:nodetypes="cscsc"/><path style="display:inline;fill-opacity:1;fill-rule:evenodd;fill:#ff5599;opacity:1;stroke-dasharray:none;stroke-linecap:butt;stroke-linejoin:miter;stroke-miterlimit:4;stroke-opacity:0;stroke-width:1.39789593;stroke:#000000" d="m 301.14301,304.13752 c -12.07843,-0.69203 -32.12415,-8.27737 -32.73235,-8.526 -0.14944,-0.061 -0.71324,1.5113 -0.74581,1.75367 0.65553,0.24879 21.06589,8.20369 33.12987,8.52237 0.0852,0.002 0.37962,-1.51254 0.34826,-1.75004 z" id="path6815-3" sodipodi:nodetypes="cscsc"/><path style="display:inline;fill-opacity:1;fill-rule:evenodd;fill:#ff5599;opacity:1;stroke-dasharray:none;stroke-linecap:butt;stroke-linejoin:miter;stroke-miterlimit:4;stroke-opacity:0;stroke-width:1.39789593;stroke:#000000" d="m 303.518,288.01252 c -12.07843,-0.69203 -32.12415,-8.27737 -32.73235,-8.526 -0.14944,-0.061 -0.71324,1.5113 -0.74581,1.75367 0.65553,0.24879 21.06589,8.20369 33.12987,8.52237 0.0852,0.002 0.37962,-1.51254 0.34826,-1.75004 z" id="path6817-7" sodipodi:nodetypes="cscsc"/><path style="display:inline;fill-opacity:1;fill-rule:evenodd;fill:#ff5599;opacity:1;stroke-dasharray:none;stroke-linecap:butt;stroke-linejoin:miter;stroke-miterlimit:4;stroke-opacity:0;stroke-width:1.37863243;stroke:#000000" d="m 304.65264,270.26906 c -11.72521,-0.69337 -31.18472,-8.29334 -31.77514,-8.54245 -0.14506,-0.0611 -0.69238,1.51421 -0.72399,1.75705 0.63636,0.24927 20.44984,8.21952 32.16103,8.53881 0.0827,0.002 0.36852,-1.51546 0.33807,-1.75341 z" id="path6819-2" sodipodi:nodetypes="cscsc"/><path style="display:inline;fill-opacity:1;fill-rule:evenodd;fill:#ff5599;opacity:1;stroke-dasharray:none;stroke-linecap:butt;stroke-linejoin:miter;stroke-miterlimit:4;stroke-opacity:0;stroke-width:1.43549109;stroke:#000000" d="m 267.86704,339.2633 c 10.87774,-6.7535 32.60156,-12.70391 33.27121,-12.86935 0.16451,-0.0407 -0.24282,-1.66668 -0.35278,-1.88439 -0.71082,0.19398 -22.96188,6.06347 -33.61416,13.11319 -0.0752,0.0498 0.5331,1.46553 0.69577,1.64053 z" id="path6821-3" sodipodi:nodetypes="cscsc"/><path style="display:inline;fill-opacity:1;fill-rule:evenodd;fill:#ff5599;opacity:1;stroke-dasharray:none;stroke-linecap:butt;stroke-linejoin:miter;stroke-miterlimit:4;stroke-opacity:0;stroke-width:1.39789593;stroke:#000000" d="m 300.34955,334.09663 c -12.07843,-0.69203 -32.12415,-8.27737 -32.73235,-8.526 -0.14944,-0.061 -0.71324,1.5113 -0.74581,1.75367 0.65553,0.24879 21.06589,8.20369 33.12987,8.52237 0.0852,0.002 0.37962,-1.51254 0.34826,-1.75004 z" id="path6823-4" sodipodi:nodetypes="cscsc"/><path style="display:inline;fill-opacity:1;fill-rule:evenodd;fill:#d40055;opacity:1;stroke-dasharray:none;stroke-linecap:butt;stroke-linejoin:miter;stroke-miterlimit:4;stroke-opacity:0;stroke-width:4.53160286;stroke:#000000" d="m 356.92809,370.82818 c -65.95241,-2.59347 -127.49098,1.62658 -126.55386,-5.02118 2.07168,-14.6962 5.57939,-21.06931 5.63193,-22.4079 1.32,-0.22988 55.75471,-5.56506 114.52793,3.52814 -1.48971,7.30993 4.03227,15.82701 6.394,23.90094 z" id="path6825-6" sodipodi:nodetypes="csccc"/><path style="display:inline;fill-opacity:1;fill-rule:evenodd;fill:#ff5599;opacity:1;stroke-dasharray:none;stroke-linecap:butt;stroke-linejoin:miter;stroke-miterlimit:4;stroke-opacity:0;stroke-width:2.46133304;stroke:#000000" d="m 350.0438,347.1462 c -68.90704,-4.8523 -107.30739,-3.45183 -114.0685,-3.11312 -0.31025,0.0155 1.22953,-5.13014 1.28325,-5.51621 1.35017,-0.0663 56.30424,-1.70923 113.25705,4.45685 0.16433,0.0178 -0.30058,3.82448 -0.4718,4.17248 z" id="path6827-6" sodipodi:nodetypes="cscsc"/><path style="display:inline;fill-opacity:1;fill-rule:evenodd;fill:#ff5599;opacity:1;stroke-dasharray:none;stroke-linecap:butt;stroke-linejoin:miter;stroke-miterlimit:4;stroke-opacity:0;stroke-width:2.46133304;stroke:#000000" d="m 357.31797,373.40952 c -69.78204,-3.4773 -126.8371,-2.9487 -128.09821,-2.85999 -0.30987,0.0218 1.28131,-4.7507 1.33503,-5.13677 1.35017,-0.0663 66.86947,-0.54631 126.07228,4.99477 0.16457,0.0154 0.86212,2.65399 0.69091,3.00199 z" id="path6829-0" sodipodi:nodetypes="cscscc"/><path style="display:inline;fill-opacity:1;fill-rule:evenodd;fill:#000000;opacity:1;stroke-dasharray:none;stroke-linecap:butt;stroke-linejoin:miter;stroke-miterlimit:4;stroke-opacity:0;stroke-width:2.44557929;stroke:#000000" d="m 323.63316,408.87113 c -2.42339,-23.38853 3.89105,-53.95385 4.09976,-55.20053 0.0513,-0.30633 -2.54453,-0.8802 -2.92895,-0.86443 -0.19529,1.33751 -20.79446,59.22703 -17.79758,82.46735 0.0211,0.16394 16.2684,-26.26566 16.62677,-26.40239 z" id="path6831-0" sodipodi:nodetypes="cscsc"/><path style="display:inline;fill-opacity:1;fill-rule:evenodd;fill:#000000;opacity:1;stroke-dasharray:none;stroke-linecap:butt;stroke-linejoin:miter;stroke-miterlimit:4;stroke-opacity:0;stroke-width:2.53209019;stroke:#000000" d="m 331.70322,409.65466 c 4.14577,-23.16479 -0.59108,-54.03848 -0.73198,-55.29464 -0.0346,-0.30865 2.78358,-0.71632 3.19426,-0.67625 0.12049,1.34588 18.34534,60.36687 13.59519,83.34755 -0.0335,0.16211 -15.68269,-27.21762 -16.05747,-27.37666 z" id="path6833-8" sodipodi:nodetypes="cscsc"/><path style="display:inline;fill-opacity:1;fill-rule:evenodd;fill:#d40055;opacity:1;stroke-dasharray:none;stroke-linecap:butt;stroke-linejoin:miter;stroke-miterlimit:4;stroke-opacity:0;stroke-width:2.46133304;stroke:#000000" d="m 324.73849,408.86727 c -2.45523,-23.38362 3.94216,-53.94252 4.15362,-55.18894 0.052,-0.30626 -2.57797,-0.88001 -2.96744,-0.86425 -0.19785,1.33724 -21.06764,59.2146 -18.03139,82.45004 0.0214,0.1639 16.48212,-26.26014 16.84521,-26.39685 z" id="path6835-9" sodipodi:nodetypes="cscsc"/><path style="display:inline;fill-opacity:1;fill-rule:evenodd;fill:#d40055;opacity:1;stroke-dasharray:none;stroke-linecap:butt;stroke-linejoin:miter;stroke-miterlimit:4;stroke-opacity:0;stroke-width:2.46133304;stroke:#000000" d="m 332.6816,409.66695 c 3.91405,-23.18409 -0.55804,-54.0835 -0.69107,-55.34071 -0.0327,-0.30891 2.628,-0.71692 3.01572,-0.67681 0.11376,1.347 17.31995,60.41716 12.8353,83.41699 -0.0316,0.16224 -14.80612,-27.2403 -15.15995,-27.39947 z" id="path6837-7" sodipodi:nodetypes="cscsc"/><path sodipodi:nodetypes="csccscc" id="path6839-1" d="m 351.6975,372.30327 c -16.00196,-3.48943 -19.80532,-10.98513 -21.44427,-11.25907 -1.32418,-0.2214 -17.1967,3.27006 -23.11149,-0.0784 0.88116,-17.57612 5.48003,-22.50253 5.58861,-22.96198 8.16057,1.22158 17.14199,12.18968 20.08754,12.88564 1.96648,0.46465 19.40783,-5.06397 25.92815,-2.90711 0.30066,7.22248 -1.61012,17.53912 -7.04854,24.32098 z" style="display:inline;fill-opacity:1;fill-rule:evenodd;fill:#000000;opacity:1;stroke-dasharray:none;stroke-linecap:butt;stroke-linejoin:miter;stroke-miterlimit:4;stroke-opacity:1;stroke-width:0;stroke:#000000"/><path sodipodi:nodetypes="csccscc" id="path6841-3" d="m 351.42892,370.99263 c -15.58628,-3.32202 -19.35427,-10.16717 -20.94988,-10.43156 -1.28917,-0.21359 -16.68318,2.80674 -22.46387,-0.29125 1.1708,-16.30384 5.04988,-20.09247 5.15107,-20.50879 7.94322,1.18735 16.83932,10.93985 19.70886,11.60007 1.91572,0.44078 18.34937,-3.81178 24.70729,-1.79049 0.36098,6.56358 -0.93218,15.31333 -6.15347,21.42202 z" style="display:inline;fill-opacity:1;fill-rule:evenodd;fill:#d40055;opacity:1;stroke-dasharray:none;stroke-linecap:butt;stroke-linejoin:miter;stroke-miterlimit:4;stroke-opacity:1;stroke-width:0;stroke:#000000"/></svg>
