<svg viewBox="0 0 560 1000"><path sodipodi:nodetypes="ccccccccc" id="path3202" d="m 266.2,253.7 c -28.3,-5.9 -23.73622,54.91595 -30.63622,72.61595 4.3,15.6 16.93052,44.23553 29.63622,84.28405 0,0 36.2,-17.5 37.3,-2.1 3,38.7 -24.5,17.2 -41.7,9.6 C 250.1,413.3 211.93661,341.6754 209.07647,321 206.37647,310.1 229.7,236.8 245,219.9 c 6.9,-7.7 8.3,-4.7 14.3,-8.9 43,6 24.9,46 6.9,42.7" style="fill:#ffffff"/><path sodipodi:nodetypes="ccccc" id="path3000-1-9-4-4-1-7-8" d="m 263.45211,241.27393 c -8.84893,6.6342 -27.58995,18.39303 -38.71483,16.41934 0.38984,-1.28396 1.05736,-3.37376 1.45869,-3.88888 11.46956,2.57065 32.93224,-13.62333 36.34199,-14.58905 z" style="display:inline;fill-opacity:1;fill:#333333;stroke-dasharray:none;stroke-linecap:butt;stroke-linejoin:miter;stroke-miterlimit:4;stroke-opacity:1;stroke-width:0;stroke:#000000"/><path sodipodi:nodetypes="ccccc" id="path3000-1-9-4-9-0-5-9-00-0-61" d="m 208.76903,319.2224 c 8.71697,0.28663 17.88118,1.64621 27.34252,5.75477 -0.43939,0.87134 -0.20527,2.54788 -0.20527,2.54788 0,0 -18.29517,-5.44409 -26.43,-3.91174 -0.51894,-1.65243 -0.5037,-2.94874 -0.70725,-4.39091 z" style="display:inline;fill-opacity:1;fill:#333333;stroke-dasharray:none;stroke-linecap:butt;stroke-linejoin:miter;stroke-miterlimit:4;stroke-opacity:1;stroke-width:0;stroke:#000000"/><path sodipodi:nodetypes="ccccc" id="path3000-1-9-4-9-2-5-0-7-46" d="m 257.66731,374.93172 c -13.39734,-4.37473 -21.34735,-22.56182 -29.98781,-49.3069 -0.0587,-1.52053 0.75209,-0.95314 1.53843,-0.95298 12.39042,43.26563 24.70342,46.04553 27.56107,48.02279 z" style="display:inline;fill-opacity:1;fill:#333333;stroke-dasharray:none;stroke-linecap:butt;stroke-linejoin:miter;stroke-miterlimit:4;stroke-opacity:1;stroke-width:0;stroke:#000000"/><path sodipodi:nodetypes="ccccc" id="path3000-1-9-4-9-2-9-0-4-6-0" d="m 217.46637,321.10562 c 6.78834,-24.33289 8.77329,-29.82516 21.61735,-67.4536 0.59362,-0.53009 -0.0641,1.28771 0.95487,1.24782 -12.76477,36.16354 -21.26599,65.51844 -21.16209,66.60327 z" style="display:inline;fill-opacity:1;fill:#333333;stroke-dasharray:none;stroke-linecap:butt;stroke-linejoin:miter;stroke-miterlimit:4;stroke-opacity:1;stroke-width:0;stroke:#000000"/><path sodipodi:nodetypes="ccccc" id="path3000-1-9-4-9-2-5-0-8-5-9" d="m 217.99839,322.23553 c 1.91911,20.64874 20.05068,52.30464 46.4513,93.11342 1.92247,1.86653 1.7085,0.1934 2.21007,-0.78025 -45.79679,-66.72861 -47.17664,-90.63032 -46.96218,-91.8828 z" style="display:inline;fill-opacity:1;fill:#333333;stroke-dasharray:none;stroke-linecap:butt;stroke-linejoin:miter;stroke-miterlimit:4;stroke-opacity:1;stroke-width:0;stroke:#000000"/></svg>
