<svg viewBox="0 0 560 1000"><path d="m 277.92014,121.58316 c 0.15976,0.42943 0.98694,3.02459 -0.47682,2.4729 -0.37467,-0.41249 -0.77553,-0.75588 -1.19508,-1.03853 -0.22121,-0.149 -0.44762,-0.28122 -0.67812,-0.39774 -0.22144,-0.11182 -0.44666,-0.20944 -0.67468,-0.29357 -1.74463,-0.64383 -3.65312,-0.50604 -5.28783,-0.0756 -1.86304,0.50303 -4.20091,1.74885 -5.41721,3.18686 -0.11798,-1.26227 -0.2088,-1.8343 -0.23516,-2.80411 -0.007,-0.27504 -0.23947,0.0154 -0.25786,-0.17656 0.11859,-0.21716 0.81465,-0.8951 0.8952,-0.95172 0.13064,-0.0919 -0.28417,-0.26446 -0.15717,-0.37757 0.16014,-0.14266 0.8551,-0.25248 1.02202,-0.38297 0.4834,-0.37788 0.99374,-0.70484 1.52232,-0.98098 0.18647,-0.0976 -0.12475,-0.32215 0.0659,-0.40691 0.11719,-0.0521 0.73509,0.0318 0.85362,-0.0154 0.52907,-0.21129 1.07059,-0.37503 1.61664,-0.4913 0.26197,-0.0558 -0.10001,-0.39459 0.16318,-0.42853 0.21942,-0.0283 1.06396,0.24499 1.28312,0.23188 0.38826,-0.0232 0.77532,-0.0226 1.15835,10e-4 0.22176,0.0136 -0.0109,-0.49839 0.20757,-0.46839 0.19835,0.0273 0.84827,0.59559 1.04308,0.63594 0.46541,0.0964 0.91958,0.2302 1.35695,0.40135 0.31406,0.1228 -0.0368,-0.45662 0.25788,-0.29524 0.19042,0.10438 1.0326,0.93817 1.21351,1.05849 0.64623,0.42982 1.22823,0.96197 1.72067,1.59618 z" id="path7293" sodipodi:nodetypes="ccsssccscssssssssssssssscc" class="eyebrow_hair"/><path d="m 298.38099,122.23518 c -1.09909,0.28957 -2.17175,0.72415 -3.24494,1.30824 -3.62966,2.03615 -2.64043,-0.59568 -2.59396,-1.52018 0.76259,-0.70142 1.5142,-1.28751 2.26214,-1.77264 0.35009,-0.22707 1.60535,-1.20685 1.95457,-1.39114 0.3564,-0.18807 -0.19319,0.42023 0.16384,0.27365 0.43341,-0.17794 0.86791,-0.32648 1.30492,-0.4484 0.393,-0.10968 1.45094,-0.59463 1.84903,-0.66328 0.28039,-0.0485 -0.10058,0.30987 0.18317,0.28016 0.49445,-0.0519 0.99461,-0.0764 1.5024,-0.0775 0.32118,-6.9e-4 1.42986,-0.2566 1.75763,-0.2395 0.27686,0.0136 -0.2282,0.29949 0.054,0.3254 0.43475,0.0399 0.87618,0.0928 1.32536,0.15636 0.24725,0.0351 1.35864,-0.21011 1.61077,-0.16884 0.28945,0.0473 -0.27956,0.38209 0.0168,0.43666 0.70797,0.13034 1.43646,0.27979 2.18914,0.44107 0.28501,0.1093 1.32322,0.017 1.61271,0.14914 0.21372,0.0977 -0.32185,0.41499 -0.10748,0.52394 0.84808,0.43094 1.29752,0.60595 2.09664,1.17246 0.38647,0.27398 1.19921,0.50652 1.55786,0.8008 0.0697,0.0572 -0.29877,0.16814 -0.23038,0.22588 0.65892,0.55663 1.65386,1.47994 2.15429,2.06518 10e-4,0.4564 -2.42095,-1.08504 0.62293,1.5625 -6.02408,-2.64296 -12.24058,-4.91591 -18.04144,-3.4399 z" id="path7295" sodipodi:nodetypes="cccsssssssssssscssssscccc" class="eyebrow_hair"/></svg>
