<svg viewBox="0 0 560 1000"><path style="display:inline;fill-opacity:1;fill:#725d49" d="m 329.4487,205.93807 c 11.11065,51.50954 40.32045,65.66744 42.18303,68.27416 -27.11064,7.4526 -138.64471,5.23196 -136.92839,-1.61687 12.0188,-47.95979 38.03956,-64.5119 40.4328,-65.94118 15.05839,-8.33707 13.3784,-12.94965 13.79285,-22.78164 3.29208,0.8153 19.29858,-11.89223 25.62276,-10.94898 0.81111,21.85295 3.07174,29.46278 14.89695,33.01451 z" id="path4683-7-8-2" sodipodi:nodetypes="ccccccc"/><path style="display:inline;fill-opacity:1;fill:#000000;stroke-width:1.02959216" d="m 371.75346,274.29002 c 0,0 -0.61394,3.30034 -0.90704,3.52426 -79.7119,13.05338 -136.38467,0.55777 -136.2507,-1.69507 l 0.22027,-3.70397 c 1.42462,1.3586 48.5018,1.87478 136.93743,1.87478 z" id="path4694-1-5-9-2" sodipodi:nodetypes="ccscsc"/><path style="display:inline;fill-opacity:1;fill:#725d49" d="m 371.75346,273.95151 c 0,0 -0.48894,3.23835 -0.78204,3.44959 -79.7119,12.3138 -136.50967,0.38346 -136.3757,-1.74175 l 0.22027,-3.49411 c 21.95595,-16.09395 130.8157,1.78627 136.93743,1.78627 z" id="path4694-0-0-8" sodipodi:nodetypes="ccscsc"/><path style="display:inline;fill-opacity:1;fill:#000000" d="m 298.2496,505.91418 c -16.60261,4.7124 -46.21082,1.30232 -46.62477,-0.78649 -0.82681,-4.17215 0.1295,-181.8644 8.91481,-227.51481 17.31931,-3.59867 35.95172,-1.11615 49.6813,2.6291 -2.57598,4.26374 -2.27958,9.24815 -4.11611,15.70764 -15.70598,55.24147 -7.40372,208.07865 -7.85523,209.96456 z" id="path4696-8-0-2" sodipodi:nodetypes="csccsc"/><path style="display:inline;fill-opacity:1;fill:#725d49" d="m 297.17964,504.34814 c -16.60261,4.7124 -46.21082,1.30232 -46.62477,-0.78649 -0.82681,-4.17215 0.1295,-181.86441 8.91481,-227.51482 17.31931,-3.59867 38.4266,-1.64648 52.15618,2.09877 -24.6058,40.7272 -13.94191,224.09611 -14.44622,226.20254 z" id="path4698-7-9-0" sodipodi:nodetypes="csccc"/></svg>
