<svg viewBox="0 0 560 1000"><path d="m 263.75762,141.7576 c 0.95542,1.00652 6.20863,0.89186 16.24255,-1.737 21.97703,6.23482 38.03624,3.17534 50.12873,1.55279 l 0.55631,-2.21332 c -14.56411,2.53487 -37.20248,4.43516 -50.43574,-1.99523 -8.42229,3.15919 -15.47109,3.53737 -16.66533,2.39926 z" class="skin head" id="path3932-6" sodipodi:nodetypes="ccccccc"/><path d="m 273.03175,148.90007 c -6.26994,1.66022 -8.29867,-0.67853 -8.74521,-1.0392 0.13091,2.41928 0.88626,6.09404 1.15459,6.58418 0.64357,-0.45318 3.47314,0.2797 7.59062,-5.54498 z" class="skin head" id="path3932-6-2" sodipodi:nodetypes="cccc"/><path d="m 273.88891,160.77165 c -3.65867,0.84256 -5.92004,0.22203 -6.32507,-0.27167 0.28297,1.26273 1.26734,3.51424 1.6419,3.92145 0.27673,-0.12656 2.98449,-1.60751 4.68317,-3.64978 z" class="skin head" id="path3932-6-2-7" sodipodi:nodetypes="cccc"/><path d="m 292.65261,149.17521 c 12.27308,4.48658 34.78037,-1.47721 35.85191,-1.90033 -0.52866,2.9938 -3.13182,9.40838 -4.37243,12.19661 -0.26857,-0.14068 -19.86958,1.79989 -31.47948,-10.29628 z" class="skin head" id="path3932-6-2-5" sodipodi:nodetypes="cccc"/><path d="m 295.49551,161.12629 c 18.54386,3.8912 26.54949,1.10906 27.52904,0.92472 -0.90169,2.14661 -2.7629,5.4656 -5.92981,8.43792 -0.31779,0.20424 -12.69605,-0.45295 -21.59923,-9.36264 z" class="skin head" id="path3932-6-2-7-7" sodipodi:nodetypes="cccc"/></svg>
