<svg viewBox="0 0 560 1000"><path sodipodi:nodetypes="ccccc" id="path3135-2-9-0" d="m 344.30163,390.0989 c -40.86096,10.78471 -77.9004,9.52738 -110.59515,-1.622 l 1.48973,-5.81684 c 47.7592,14.94425 76.64153,7.03207 108.23231,1.24427 0.11976,0.26161 0.63612,4.46094 0.87311,6.19457 z" style="display:inline;fill-opacity:1;fill:#1c1f24;opacity:1;stroke-dasharray:none;stroke-linecap:butt;stroke-linejoin:miter;stroke-miterlimit:4;stroke-opacity:1;stroke-width:0;stroke:#000000"/><path style="display:inline;fill-opacity:1;fill-rule:evenodd;fill:#000000;opacity:1;stroke-dasharray:none;stroke-linecap:butt;stroke-linejoin:miter;stroke-miterlimit:4;stroke-opacity:1;stroke-width:0;stroke:#000000" d="m 370.07736,269.086 c 4.23885,21.43827 0.0951,48.67227 -5.26731,79.21045 0,0 20.88208,50.67629 -1.23373,68.68868 0,0 -66.21568,-1.91446 -77.7249,26.42291 -2.06147,4.01155 -2.1084,11.81811 -3.46792,16.10443 -0.27859,0.87834 -1.00697,6.35332 -3.50565,8.26757 -0.26944,0.20641 -1.13656,1.14752 -4.58251,0.28177 -0.17413,-0.0437 -1.37345,0.71664 -3.61847,0.0361 -5.83439,-1.76869 -6.66978,-8.86034 -6.76649,-9.28816 -1.98539,-8.78313 -6.33796,-18.83732 -9.5213,-25.0554 -14.19124,-27.72004 -28.09962,-14.67801 -29.40746,-17.01434 -19.07579,-35.45484 3.94842,-77.93551 8.77006,-97.83473 -2.10925,-34.28084 -5.87652,-101.28815 49.77735,-117.36381 2.47787,-1.91428 3.55938,-3.76798 5.02929,-7.59087 8.05292,4.57688 18.99158,0.58504 27.21157,-1.25346 0.71304,2.32502 2.46817,6.04939 2.46817,6.04939 0,0 8.96935,4.72042 7.75386,5.51937 -25.72677,16.91039 -30.9022,28.84774 -29.45936,29.06832 3.13994,1.52155 66.54554,33.43249 67.65165,34.25705 z" id="path3117-2-3-5" sodipodi:nodetypes="ccccssssssccccccsccc"/><path style="display:inline;fill-opacity:1;fill-rule:evenodd;fill:#c8c8c8;opacity:1;stroke-dasharray:none;stroke-linecap:butt;stroke-linejoin:miter;stroke-miterlimit:4;stroke-opacity:1;stroke-width:0;stroke:#000000" d="m 359.10452,307.53003 c -3.58791,11.27077 -13.20083,27.26932 -14.13594,31.76703 -0.19231,0.92498 -3.78859,24.43921 -3.59178,28.65293 0.73474,15.73079 0.19237,21.15651 1.96987,26.39685 1.40254,1.90805 3.6697,7.17284 6.68331,11.02798 34.58055,95.29315 -179.98991,135.2691 -118.28103,-7.56308 6.57635,-18.38141 7.72377,-25.36711 7.71079,-26.2117 -0.61985,-40.31794 4.75159,-49.21696 4.33921,-54.42606 -5.4176,-21.72981 -8.06451,-44.35402 -6.58716,-66.26815 3.08001,-24.09736 15.22678,-42.34829 46.26664,-48.92834 3.30015,-2.30372 4.15718,-5.29185 5.56014,-8.26452 4.84781,2.29581 10.96544,3.06148 26.11199,-1.96857 0.23809,-0.0791 2.76554,7.54927 2.9426,7.39421 1.48672,1.12706 17.92246,7.04963 18.45434,8.39199 10.94112,-0.42928 25.50214,5.68255 31.23355,24.77875 5.45886,28.93973 6.17379,36.85529 -8.67653,75.22068 z" id="path3119-9-9-8" sodipodi:nodetypes="csscccsccccscccc"/><path sodipodi:nodetypes="csssssssssssssssssssssssssscsccscc" id="path3121-4-8-6" d="m 389.75048,479.5035 c 0.0218,0.0352 1.0853,3.08403 1.00804,3.13019 -0.65016,0.38847 -2.25374,1.05942 -3.45208,1.4977 -0.11447,0.0419 -2.60411,-2.6977 -2.71885,-2.65607 -4.27881,1.55252 -8.73882,2.97465 -13.33844,4.27159 -0.14587,0.0411 -0.0106,6.20714 -0.15679,6.24802 -5.90081,1.65048 -8.17335,2.99738 -14.45125,4.011 -0.12954,0.0209 -4.38403,-5.7371 -4.51347,-5.71144 -6.02034,1.19334 -12.16746,2.20809 -18.3642,3.05386 -0.21287,0.0291 -0.98829,6.43291 -1.20127,6.46156 -6.3312,0.85182 -9.56248,1.27794 -15.87283,1.37345 -0.22843,0.003 -3.08247,-5.6736 -3.31214,-5.6555 -6.46262,0.50767 -12.8877,0.8439 -19.18837,1.01951 -0.17706,0.005 -1.41654,5.416 -1.59343,5.42068 -6.35406,0.16818 -10.09123,0.0167 -16.12724,-0.13068 -0.094,-0.002 -1.34423,-5.255 -1.43814,-5.257 -6.2547,-0.15783 -12.29156,-0.47926 -18.01651,-0.95187 -0.14841,-0.0123 -1.24639,3.491 -1.39361,3.48278 -5.44524,-0.30417 -8.924,-1.42407 -13.7992,-2.22416 -0.0778,-0.0128 -0.68588,-3.87031 -0.76355,-3.88283 -5.08329,-0.81964 -9.70966,-2.45079 -13.97008,-3.60642 -0.09,-0.0244 -1.68235,3.02261 -1.77192,2.99805 -4.68813,-1.28512 -7.67978,-2.31877 -11.06999,-4.13779 -0.0815,-0.0437 0.0834,-3.4682 0.001,-3.50886 -2.51321,-1.24065 -4.61555,-2.58593 -6.35499,-4.03294 -0.37587,-0.31268 -3.45047,-0.9982 -4.25668,-1.77098 -0.15151,-0.14522 -2.25898,3.02021 -2.41758,3.08855 0,0 -2.61914,-0.96421 -2.69519,-1.09059 2.59983,-19.37156 17.57319,-59.3804 33.95446,-88.37588 1.09608,-1.94011 1.27031,-4.13723 1.74035,-5.8536 60.81168,14.65699 68.7818,7.00312 109.53408,1.87894 0.72316,0.65561 1.83271,8.39288 1.83271,8.39288 10.21621,14.1931 30.66884,48.07818 44.16716,82.51787 z" style="display:inline;fill-opacity:1;fill:#17280b;opacity:1;stroke-dasharray:none;stroke-linecap:butt;stroke-linejoin:miter;stroke-miterlimit:4;stroke-opacity:1;stroke-width:0;stroke:#000000"/><path sodipodi:nodetypes="ccccc" id="path3123-4-3-7" d="m 203.55359,478.92173 c 8.51492,-28.38984 24.90566,-58.3362 35.05005,-89.27979 l 1.51993,0.57841 c -8.38453,32.41858 -18.87908,63.04264 -25.84818,94.53961 -4.19544,-1.96694 -6.85801,-3.20798 -10.7218,-5.83823 z" style="display:inline;fill-opacity:1;fill:#1c1f24;opacity:1;stroke-dasharray:none;stroke-linecap:butt;stroke-linejoin:miter;stroke-miterlimit:4;stroke-opacity:1;stroke-width:0;stroke:#000000"/><path sodipodi:nodetypes="ccccc" id="path3127-3-9-8" d="m 256.96016,495.62277 c 4.12528,-33.29707 11.21077,-67.27028 17.20686,-99.63194 l 1.98474,0.31888 c -1.1273,33.48562 1.58175,67.71877 -0.94699,100.73724 -5.90886,-0.17424 -12.66842,-0.58459 -18.24461,-1.42418 z" style="display:inline;fill-opacity:1;fill:#1c1f24;opacity:1;stroke-dasharray:none;stroke-linecap:butt;stroke-linejoin:miter;stroke-miterlimit:4;stroke-opacity:1;stroke-width:0;stroke:#000000"/><path sodipodi:nodetypes="ccccc" id="path3125-4-9-6" d="m 226.95769,489.464 c 7.24497,-32.07307 17.36955,-64.50147 26.93716,-96.11001 l 2.03771,0.43067 c -7.35074,32.55411 -9.7067,66.76448 -14.70238,99.31859 -4.43458,-0.94634 -9.83791,-2.1253 -14.27249,-3.63925 z" style="display:inline;fill-opacity:1;fill:#1c1f24;opacity:1;stroke-dasharray:none;stroke-linecap:butt;stroke-linejoin:miter;stroke-miterlimit:4;stroke-opacity:1;stroke-width:0;stroke:#000000"/><path sodipodi:nodetypes="ccccc" id="path3129-5-9-3" d="m 293.97995,497.23072 c -0.55795,-32.66775 1.13471,-66.01338 1.96298,-100.52941 l 2.53771,-0.0997 c 3.73482,35.86669 11.87469,67.7164 15.34931,99.64702 -6.4873,0.7737 -15.28559,1.51121 -19.85,0.98209 z" style="display:inline;fill-opacity:1;fill:#1c1f24;opacity:1;stroke-dasharray:none;stroke-linecap:butt;stroke-linejoin:miter;stroke-miterlimit:4;stroke-opacity:1;stroke-width:0;stroke:#000000"/><path sodipodi:nodetypes="ccccc" id="path3131-2-2-3" d="m 333.58147,494.15658 c -7.04711,-32.54953 -12.39888,-65.66548 -16.83289,-99.52156 l 1.96578,-0.25435 c 5.55226,34.08301 23.32978,64.51357 34.0336,96.4501 -5.88931,1.26555 -12.94565,2.47467 -19.16649,3.32581 z" style="display:inline;fill-opacity:1;fill:#1c1f24;opacity:1;stroke-dasharray:none;stroke-linecap:butt;stroke-linejoin:miter;stroke-miterlimit:4;stroke-opacity:1;stroke-width:0;stroke:#000000"/><path sodipodi:nodetypes="ccccc" id="path3133-8-5-5" d="m 371.13216,486.30077 c -15.12415,-30.24903 -25.05372,-61.32185 -35.32911,-95.09726 l 2.09577,-0.90902 c 5.05362,15.805 27.87694,64.14372 46.67297,91.17249 -4.07146,1.82226 -9.20346,3.50567 -13.43963,4.83379 z" style="display:inline;fill-opacity:1;fill:#1c1f24;opacity:1;stroke-dasharray:none;stroke-linecap:butt;stroke-linejoin:miter;stroke-miterlimit:4;stroke-opacity:1;stroke-width:0;stroke:#000000"/><path sodipodi:nodetypes="ccccc" id="path3137-1-7-0" d="m 356.82205,414.47941 c -63.82717,21.90257 -107.67255,10.35926 -135.57172,0.33646 1.76517,-4.76502 5.4945,-11.38273 8.38283,-14.17053 35.33835,11.44808 59.76698,17.09062 117.93982,-0.59678 4.10725,5.18477 9.11004,14.101 9.24907,14.43085 z" style="display:inline;fill-opacity:1;fill:#1c1f24;opacity:1;stroke-dasharray:none;stroke-linecap:butt;stroke-linejoin:miter;stroke-miterlimit:4;stroke-opacity:1;stroke-width:0;stroke:#000000"/><path sodipodi:nodetypes="ccccc" id="path3153-2-1-0" d="m 349.09317,417.01723 c -0.17346,-0.002 -3.93924,1.90229 -4.88399,1.43955 l -5.03629,-16.12571 c 0,0 3.01476,-0.81269 3.02351,-0.8428 -0.1896,0.57539 6.9339,15.42981 6.89677,15.52896 z" style="display:inline;fill-opacity:1;fill:#0b280b;opacity:1;stroke-dasharray:none;stroke-linecap:butt;stroke-linejoin:miter;stroke-miterlimit:4;stroke-opacity:1;stroke-width:0;stroke:#000000"/><path style="display:inline;fill-opacity:1;fill-rule:evenodd;fill:#0b1728;opacity:1;stroke-dasharray:none;stroke-linecap:butt;stroke-linejoin:miter;stroke-miterlimit:4;stroke-opacity:1;stroke-width:0;stroke:#000000" d="m 370.401,268.81517 c 3.7917,15.28829 -2.3772,60.50133 -7.01212,79.41755 5.02171,11.17803 17.75126,49.44638 0.18297,68.36093 -15.6007,11.79561 -139.67891,-5.76005 -142.35581,-16.55643 -10.09024,-20.12618 13.88509,-80.25005 13.88509,-80.25005 0,0 -4.42313,-34.16048 1.98811,-67.00738 14.23272,-11.14159 30.36025,-30.02542 41.9419,-49.52919 1.91832,-0.5271 3.49025,-1.14788 4.98584,-1.66681 -3.3876,14.74467 21.2699,21.46547 37.03004,-1.16355 1.49356,1.12704 15.11916,5.768 15.65345,7.11036 5.62277,13.25538 5.63445,25.94395 12.84849,37.87473 7.35938,13.63251 15.38696,21.56242 20.85204,23.40984 z" id="path3119-7-2-6-2" sodipodi:nodetypes="cccccccccccc"/><path sodipodi:nodetypes="ccccc" id="path3139-2-9-1" d="m 375.67723,448.31229 c -63.82716,21.90257 -140.5909,10.14561 -168.49008,0.12281 1.76517,-4.76502 4.17561,-10.87515 6.00328,-14.90039 35.33836,11.44808 97.58323,19.31289 155.75606,1.62549 3.46643,5.62672 6.59171,12.82224 6.73074,13.15209 z" style="display:inline;fill-opacity:1;fill:#1c1f24;opacity:1;stroke-dasharray:none;stroke-linecap:butt;stroke-linejoin:miter;stroke-miterlimit:4;stroke-opacity:1;stroke-width:0;stroke:#000000"/><path sodipodi:nodetypes="ccccc" id="path3141-7-8-2" d="m 389.51673,479.18301 c -52.86701,22.4329 -147.01541,25.5547 -190.47093,-2.85288 1.76517,-4.76502 2.17312,-10.01845 4.00079,-14.04369 39.05066,26.4741 112.4836,25.16905 181.43982,4.65322 3.41975,6.37227 4.89129,11.9135 5.03032,12.24335 z" style="display:inline;fill-opacity:1;fill:#1c1f24;opacity:1;stroke-dasharray:none;stroke-linecap:butt;stroke-linejoin:miter;stroke-miterlimit:4;stroke-opacity:1;stroke-width:0;stroke:#000000"/><path sodipodi:nodetypes="ccccc" id="path3143-3-0-3" d="m 232.17646,418.94752 c -0.17346,-0.002 -3.23213,-0.92613 -4.17688,-1.38887 l 6.18903,-15.4628 c 0,0 2.52863,0.8004 2.53738,0.77029 -0.1896,0.57539 -4.5124,15.98223 -4.54953,16.08138 z" style="display:inline;fill-opacity:1;fill:#0b280b;opacity:1;stroke-dasharray:none;stroke-linecap:butt;stroke-linejoin:miter;stroke-miterlimit:4;stroke-opacity:1;stroke-width:0;stroke:#000000"/><path sodipodi:nodetypes="ccccc" id="path3145-6-1-0" d="m 250.40744,423.81644 c -0.17346,-0.002 -4.39619,-0.78551 -5.34094,-1.24825 l 4.7485,-15.92777 c 0,0 3.34623,0.87774 3.35498,0.84763 -0.1896,0.57539 -2.72541,16.22924 -2.76254,16.32839 z" style="display:inline;fill-opacity:1;fill:#0b280b;opacity:1;stroke-dasharray:none;stroke-linecap:butt;stroke-linejoin:miter;stroke-miterlimit:4;stroke-opacity:1;stroke-width:0;stroke:#000000"/><path sodipodi:nodetypes="ccccc" id="path3147-5-6-7" d="m 276.00119,427.26956 c -0.17346,-0.002 -6.79463,-0.17613 -7.73938,-0.63887 l 3.10995,-16.04832 c 0,0 4.53947,0.42475 4.54822,0.39464 -0.1896,0.57539 0.11834,16.1934 0.0812,16.29255 z" style="display:inline;fill-opacity:1;fill:#0b280b;opacity:1;stroke-dasharray:none;stroke-linecap:butt;stroke-linejoin:miter;stroke-miterlimit:4;stroke-opacity:1;stroke-width:0;stroke:#000000"/><path sodipodi:nodetypes="ccccc" id="path3149-7-1-7" d="m 302.65744,426.67581 c -0.17346,-0.002 -6.82588,0.98012 -7.77063,0.51738 l 0.56403,-16.43155 c 0,0 4.77863,-0.35585 4.78738,-0.38596 -0.1896,0.57539 2.45635,16.20098 2.41922,16.30013 z" style="display:inline;fill-opacity:1;fill:#0b280b;opacity:1;stroke-dasharray:none;stroke-linecap:butt;stroke-linejoin:miter;stroke-miterlimit:4;stroke-opacity:1;stroke-width:0;stroke:#000000"/><path sodipodi:nodetypes="ccccc" id="path3151-5-4-5" d="m 326.12783,423.02113 c -0.17346,-0.002 -4.38118,1.48245 -5.32593,1.01971 l -2.31981,-16.68545 c 0,0 2.90363,-0.4496 2.91238,-0.47971 -0.1896,0.57539 4.77049,16.0463 4.73336,16.14545 z" style="display:inline;fill-opacity:1;fill:#0b280b;opacity:1;stroke-dasharray:none;stroke-linecap:butt;stroke-linejoin:miter;stroke-miterlimit:4;stroke-opacity:1;stroke-width:0;stroke:#000000"/><path sodipodi:nodetypes="ccccc" id="path3155-4-6-8" d="m 222.34662,453.61905 c -0.17346,-0.002 -7.60735,-2.11937 -8.5521,-2.58211 l 6.32161,-15.33022 c 0,0 6.28514,1.81687 6.64744,1.83095 -0.1896,0.57539 -4.37982,15.98223 -4.41695,16.08138 z" style="display:inline;fill-opacity:1;fill:#0b280b;opacity:1;stroke-dasharray:none;stroke-linecap:butt;stroke-linejoin:miter;stroke-miterlimit:4;stroke-opacity:1;stroke-width:0;stroke:#000000"/><path sodipodi:nodetypes="ccccc" id="path3157-0-4-7" d="m 245.93869,458.17581 c -0.17346,-0.002 -9.76338,-1.33238 -10.70813,-1.79512 l 4.40778,-15.8378 c 0,0 8.24738,1.64415 8.25613,1.61404 -0.1896,0.57539 -1.91865,15.91973 -1.95578,16.01888 z" style="display:inline;fill-opacity:1;fill:#0b280b;opacity:1;stroke-dasharray:none;stroke-linecap:butt;stroke-linejoin:miter;stroke-miterlimit:4;stroke-opacity:1;stroke-width:0;stroke:#000000"/><path sodipodi:nodetypes="ccccc" id="path3159-3-8-4" d="m 241.3254,493.12165 c -0.17346,-0.002 -13.13163,-2.6055 -14.51832,-3.73116 l 3.49319,-14.22536 c 0,0 13.13523,3.45205 13.14398,3.42194 -0.1896,0.57539 -2.08172,14.43543 -2.11885,14.53458 z" style="display:inline;fill-opacity:1;fill:#0b280b;opacity:1;stroke-dasharray:none;stroke-linecap:butt;stroke-linejoin:miter;stroke-miterlimit:4;stroke-opacity:1;stroke-width:0;stroke:#000000"/><path sodipodi:nodetypes="ccccc" id="path3161-6-3-3" d="m 214.34494,484.80081 c -0.17346,-0.002 -9.98213,-4.67613 -11.05188,-5.70137 l 4.84528,-13.86905 c 0,0 9.62238,5.14415 9.63113,5.11404 -0.1896,0.57539 -3.3874,14.35723 -3.42453,14.45638 z" style="display:inline;fill-opacity:1;fill:#0b280b;opacity:1;stroke-dasharray:none;stroke-linecap:butt;stroke-linejoin:miter;stroke-miterlimit:4;stroke-opacity:1;stroke-width:0;stroke:#000000"/><path sodipodi:nodetypes="ccccc" id="path3163-5-5-3" d="m 275.29767,497.03066 c -0.17346,-0.002 -11.23128,0.002 -18.49579,-1.52145 l 1.99058,-14.26956 c 0,0 16.80335,1.37493 17.25404,1.34482 -0.1896,0.57539 -0.7117,14.34704 -0.74883,14.44619 z" style="display:inline;fill-opacity:1;fill:#0b280b;opacity:1;stroke-dasharray:none;stroke-linecap:butt;stroke-linejoin:miter;stroke-miterlimit:4;stroke-opacity:1;stroke-width:0;stroke:#000000"/><path sodipodi:nodetypes="ccccc" id="path3165-8-4-8" d="m 313.99352,496.27936 c -0.17346,-0.002 -11.27547,1.54875 -20.26356,0.99762 l -0.0865,-14.84408 c 0,0 17.81982,-1.09995 18.40309,-1.08587 -0.1896,0.57539 1.98415,14.83318 1.94702,14.93233 z" style="display:inline;fill-opacity:1;fill:#0b280b;opacity:1;stroke-dasharray:none;stroke-linecap:butt;stroke-linejoin:miter;stroke-miterlimit:4;stroke-opacity:1;stroke-width:0;stroke:#000000"/><path sodipodi:nodetypes="ccccc" id="path3167-4-6-7" d="m 352.95062,490.80189 c -0.17346,-0.002 -18.6117,3.71426 -19.55645,3.25152 l -3.26852,-14.88828 c 0,0 17.37787,-3.0003 17.38662,-3.03041 -0.1896,0.57539 5.47548,14.56802 5.43835,14.66717 z" style="display:inline;fill-opacity:1;fill:#0b280b;opacity:1;stroke-dasharray:none;stroke-linecap:butt;stroke-linejoin:miter;stroke-miterlimit:4;stroke-opacity:1;stroke-width:0;stroke:#000000"/><path sodipodi:nodetypes="ccccc" id="path3169-8-4-2" d="m 384.80548,481.4167 c -0.17346,-0.002 -12.95485,5.21686 -13.8996,4.75412 l -6.45051,-13.87181 c 0,0 12.16296,-3.13288 12.17171,-3.16299 -0.1896,0.57539 8.21553,12.18153 8.1784,12.28068 z" style="display:inline;fill-opacity:1;fill:#0b280b;opacity:1;stroke-dasharray:none;stroke-linecap:butt;stroke-linejoin:miter;stroke-miterlimit:4;stroke-opacity:1;stroke-width:0;stroke:#000000"/><path sodipodi:nodetypes="ccccc" id="path3171-0-1-7" d="m 366.38881,451.33932 c -0.17346,-0.002 -9.45754,2.45704 -9.6068,2.55778 l -5.39367,-14.19796 c 0,0 7.84113,-1.5746 8.00613,-1.82346 -0.1896,0.57539 7.03147,13.36449 6.99434,13.46364 z" style="display:inline;fill-opacity:1;fill:#0b280b;opacity:1;stroke-dasharray:none;stroke-linecap:butt;stroke-linejoin:miter;stroke-miterlimit:4;stroke-opacity:1;stroke-width:0;stroke:#000000"/><path sodipodi:nodetypes="ccccc" id="path3173-2-7-9" d="m 339.81369,457.42581 c -0.17346,-0.002 -12.20088,2.32387 -13.14563,1.86113 l -2.65472,-14.93155 c 0,0 9.80988,-1.29335 9.81863,-1.32346 -0.1896,0.57539 6.01885,14.29473 5.98172,14.39388 z" style="display:inline;fill-opacity:1;fill:#0b280b;opacity:1;stroke-dasharray:none;stroke-linecap:butt;stroke-linejoin:miter;stroke-miterlimit:4;stroke-opacity:1;stroke-width:0;stroke:#000000"/><path sodipodi:nodetypes="ccccc" id="path3175-5-8-5" d="m 308.68416,460.95484 c -0.17346,-0.002 -13.79454,0.88583 -14.73929,0.42309 l 0.44379,-15.50699 c 0,0 11.58843,-0.17188 11.59718,-0.20199 -0.1896,0.57539 2.73545,15.18674 2.69832,15.28589 z" style="display:inline;fill-opacity:1;fill:#0b280b;opacity:1;stroke-dasharray:none;stroke-linecap:butt;stroke-linejoin:miter;stroke-miterlimit:4;stroke-opacity:1;stroke-width:0;stroke:#000000"/><path sodipodi:nodetypes="ccccc" id="path3177-8-3-0" d="m 276.51214,461.13162 c -0.17346,-0.002 -13.3526,-0.70516 -14.29735,-1.1679 l 2.78608,-15.4628 c 0,0 10.57197,0.7562 11.33202,0.81448 -0.1896,0.57539 0.21638,15.71707 0.17925,15.81622 z" style="display:inline;fill-opacity:1;fill:#0b280b;opacity:1;stroke-dasharray:none;stroke-linecap:butt;stroke-linejoin:miter;stroke-miterlimit:4;stroke-opacity:1;stroke-width:0;stroke:#000000"/><path style="display:inline;fill-opacity:1;fill:#000000;opacity:1;stroke-dasharray:none;stroke-linecap:butt;stroke-linejoin:miter;stroke-miterlimit:4;stroke-opacity:1;stroke-width:0;stroke:#000000" d="m 291.5592,206.29026 c -0.007,-0.15238 4.20976,-11.80321 4.27665,-11.99794 0,0 -6.84041,-2.15063 -6.98267,-1.95613 -0.86438,1.18176 -2.48505,4.21861 -3.88833,5.92157 0.099,0.227 6.59435,8.0325 6.59435,8.0325 z" id="path2246-4-41-0-9-4-9-2-8-6-8-4-1-4-1-6-7-3-9" sodipodi:nodetypes="csscc"/><path style="display:inline;fill-opacity:1;fill:#c8c8c8;opacity:1;stroke-dasharray:none;stroke-linecap:butt;stroke-linejoin:miter;stroke-miterlimit:4;stroke-opacity:1;stroke-width:0;stroke:#000000" d="m 291.33521,205.88691 c -0.007,-0.14941 4.05548,-11.5929 4.12046,-11.78384 0,0 -6.70562,-2.1112 -6.84382,-1.92049 -0.83967,1.15876 -2.41401,4.13649 -3.77718,5.8063 0.0962,0.22258 6.50054,7.89803 6.50054,7.89803 z" id="path2246-4-41-0-9-4-9-2-8-6-8-4-7-2-7-4-4-3" sodipodi:nodetypes="csscc"/><path style="display:inline;fill-opacity:1;fill:#000000;opacity:1;stroke-dasharray:none;stroke-linecap:butt;stroke-linejoin:miter;stroke-miterlimit:4;stroke-opacity:1;stroke-width:0;stroke:#000000" d="m 301.91631,206.61546 c 0.007,-0.15238 -3.55795,-12.3474 -3.62484,-12.54213 0,0 17.37271,-2.7418 17.4996,-2.53694 0.77063,1.24426 1.90692,5.43736 2.34145,6.10907 -0.099,0.227 -16.21621,8.97 -16.21621,8.97 z" id="path2246-4-41-0-9-4-9-2-8-6-8-4-2-7-4-5-3-6-7-0" sodipodi:nodetypes="csscc"/><path style="display:inline;fill-opacity:1;fill:#c8c8c8;opacity:1;stroke-dasharray:none;stroke-linecap:butt;stroke-linejoin:miter;stroke-miterlimit:4;stroke-opacity:1;stroke-width:0;stroke:#000000" d="m 301.8859,206.18086 c 0.007,-0.14856 -3.06366,-12.02772 -3.12956,-12.21757 0,0 16.39131,-2.72036 16.51237,-2.518 0.72664,1.21464 1.868,5.30264 2.29613,5.95751 -0.0975,0.22131 -15.67894,8.77806 -15.67894,8.77806 z" id="path2246-4-41-0-9-4-9-2-8-6-8-4-2-9-5-3-5-3-2" sodipodi:nodetypes="csscc"/><path sodipodi:nodetypes="ccc" id="path3280-7-2-6-6-6-5-6-7-5" class="shadow" d="m 329.87921,425.71197 c -15.4791,1.19068 -42.03653,26.26041 -44.60913,30.99635 10.29989,-9.14088 29.75951,-26.28541 44.60913,-30.99635 z"/><path sodipodi:nodetypes="ccc" id="path3282-5-4-0-8-6-46-4-8-5" class="shadow" d="m 262.13712,457.56026 c -6.81704,-9.41592 -28.83006,-31.99347 -34.93819,-34.15183 5.05404,5.44075 26.5203,25.35081 34.93819,34.15183 z"/><path style="display:inline;fill-opacity:1;fill:#214478;opacity:1;stroke-dasharray:none;stroke-linecap:butt;stroke-linejoin:miter;stroke-miterlimit:4;stroke-opacity:1;stroke-width:0;stroke:#000000" d="m 371.02991,273.12463 c -23.06236,-5.36348 -36.64015,-66.85148 -36.70605,-67.04133 0,0 1.9906,1.00368 2.18424,1.13825 1.9123,1.32892 14.99624,50.04864 34.33948,61.31011 -0.0975,0.22131 0.18233,4.59297 0.18233,4.59297 z" id="path2246-4-41-0-9-4-9-2-8-6-8-4-2-9-5-3-6-9-7-5" sodipodi:nodetypes="csscc"/><path style="display:inline;fill-opacity:1;fill:#214478;opacity:1;stroke-dasharray:none;stroke-linecap:butt;stroke-linejoin:miter;stroke-miterlimit:4;stroke-opacity:1;stroke-width:0;stroke:#000000" d="m 237.32534,251.86983 c 11.09862,-9.58054 41.65694,-48.71031 41.59104,-48.90016 0,0 4.29427,-1.51769 4.47852,-1.37053 1.58085,1.26263 -28.67466,39.76054 -47.10506,56.29108 -0.0975,0.22131 1.0355,-6.02039 1.0355,-6.02039 z" id="path2246-4-41-0-9-4-9-2-8-6-8-4-2-9-5-3-6-2-8-2-3" sodipodi:nodetypes="csscc"/><path style="display:inline;fill-opacity:1;fill:#214478;opacity:1;stroke-dasharray:none;stroke-linecap:butt;stroke-linejoin:miter;stroke-miterlimit:4;stroke-opacity:1;stroke-width:0;stroke:#000000" d="m 219.83033,392.78652 c 43.61544,16.95575 151.56437,7.03622 152.51494,6.49282 0,0 -1.5446,5.97339 -2.62111,7.52664 -6.02829,8.69798 -132.15135,8.54545 -148.882,-6.70726 -0.51056,-0.0541 -1.30119,-7.50511 -1.01183,-7.3122 z" id="path2246-4-41-0-9-4-9-2-8-6-8-4-2-9-5-3-6-2-4-5-8-3" sodipodi:nodetypes="csscc"/><path style="display:inline;fill-opacity:1;fill:#c8c8c8;opacity:1;stroke-dasharray:none;stroke-linecap:butt;stroke-linejoin:miter;stroke-miterlimit:4;stroke-opacity:1;stroke-width:0;stroke:#000000" d="m 220.89036,399.80111 c 43.61544,16.95575 148.98899,6.9879 148.92309,6.79805 0,0 -2.96564,6.85943 -6.16347,10.48981 -6.99509,7.94127 -122.69131,10.65129 -139.42196,-4.60142 -0.2225,-0.52869 -3.33766,-12.68644 -3.33766,-12.68644 z" id="path2246-4-41-0-9-4-9-2-8-6-8-4-2-9-5-3-6-2-4-5-0-0-3" sodipodi:nodetypes="csscc"/></svg>
