<svg viewBox="0 0 560 1000"><path sodipodi:nodetypes="csccccccccc" d="m 292.1589,124.27507 c -0.26909,0.0367 -0.53827,0.0717 -0.80756,0.10477 -0.42174,0.0518 -0.84375,0.099 -1.26613,0.14042 0.66356,-1.29344 1.12024,-2.18398 1.31052,-2.77485 1.28388,-0.53806 9.5202,-1.26097 14.98152,-1.26476 1.50772,-0.056 1.94447,-0.0326 2.79655,0.14987 0.55537,0.1189 1.38732,0.27049 1.84875,0.33686 0.90322,0.1299 0.89491,0.12796 2.98299,0.69367 l 1.36581,0.37003 c 0.0226,0.014 0.71038,0.19286 1.23922,0.64422 -16.05266,-1.43269 -14.09216,0.14615 -24.45167,1.59977 z" id="path2640" class="eyebrow_hair"/><path sodipodi:nodetypes="cccccsc" d="m 264.1942,121.66817 c 0.0514,-0.007 1.33147,-0.40811 1.41381,-0.44165 3.98184,-0.60819 7.33031,-0.42814 11.2025,0.58265 0.29115,0.5676 0.79541,1.64087 0.7714,2.47731 -2.4488,-0.61924 -11.46021,-1.98222 -13.21493,-1.91759 0.0186,-0.007 -0.19779,-0.69735 -0.17281,-0.70072 z" id="path2642" class="eyebrow_hair"/></svg>
