<svg viewBox="0 0 560 1000"><g data-transform="boob" id="g5014" transform="matrix(1.1247504,0,0,1.1247504,-26.347241,-34.609528)"><path style="fill-opacity:1;fill:#010101" id="path5113" d="m 271.51118,261.14089 c 0.0661,-0.75567 -15.55212,-23.85233 -20.78384,-21.10049 -1.52959,0.80455 -3.42058,1.9614 -5.76856,3.60973 -9.78469,6.69753 -21.31453,10.82141 -26.74443,14.7899 -0.54445,0.39791 -0.66828,2.70307 -0.76291,3.35152 -0.65836,4.51134 -1.66809,9.99655 -0.19947,14.9545 0.5788,2.79959 1.92116,5.11459 3.04085,7.21138 2.65234,4.96693 6.04765,7.87695 10.86115,8.57219 21.5829,3.2487 35.13223,-12.1343 39.18878,-20.05393 1.83647,8.16488 6.94853,14.47073 13.3338,17.64542 10.04423,4.99389 23.27331,3.62273 32.00152,-1.35019 14.24159,-8.46859 19.00686,-29.49472 0.12112,-46.95807 -1.24033,-1.44425 -2.4413,-2.70187 -3.54079,-3.8753 -0.36194,-0.36533 -0.83711,-0.69814 -1.41789,-0.98568 -0.3692,-0.18279 -0.78107,-0.34728 -1.23367,-0.49021 -4.17723,-1.31914 -18.96078,7.30779 -27.63663,14.95545 -5.29365,4.66629 -9.38919,8.82318 -10.45903,9.72378 z" sodipodi:nodetypes="cscsscsccscccsssc"/><path style="fill-opacity:1;fill:#ececec" id="path5119" d="m 250.80319,239.92519 c -2.11217,1.58135 -4.28508,3.11053 -5.92735,4.27017 -5.84025,4.87392 -21.34013,11.09517 -25.80979,13.9564 -0.39537,0.25308 -0.72231,2.6909 -0.84921,3.07294 -0.70752,5.13443 -0.92153,9.56442 -0.30576,13.2861 1.01337,6.12496 3.33372,10.46932 6.44535,13.29915 2.48992,2.26451 5.53985,3.63861 8.78962,4.08772 10.49581,1.51314 19.86794,-2.43574 27.29744,-8.48888 4.20537,-3.4345 7.18267,-7.02269 9.92412,-11.02226 0.12718,0.41876 1.87124,5.64497 5.46994,10.30596 2.123,2.74967 5.09638,5.02083 8.21123,6.75234 0.11303,0.0438 0.22593,0.0871 0.33871,0.12991 34.5912,13.12294 57.55039,-22.51578 31.08151,-47.52065 -1.21885,-1.39111 -4.20568,-5.32709 -4.35427,-5.6611 -0.6987,-2.75664 -9.8826,-9.0648 -16.06697,-9.45676 -9.71868,-0.61597 -21.08175,-0.60121 -21.2227,-0.21343 -0.22117,-0.36982 -16.14896,7.01755 -22.98077,13.1738 -0.0124,0.0112 -0.0411,0.0188 -0.0411,0.0289 z" sodipodi:nodetypes="ccscsscccscsccscssc"/><path id="path5010" class="shadow" d="m 272.19169,258.88792 c 0.80943,-1.48623 1.35838,-4.75934 1.75336,-6.96753 0.0755,-0.42195 0.14376,2.11164 -0.34789,3.72203 2.50484,-3.57809 5.36151,-7.40366 7.64284,-10.60934 0.11073,-0.1769 -0.23631,1.28365 5.6e-4,1.09001 -3.14159,4.2326 -6.6203,9.02137 -9.04922,12.76484 z" sodipodi:nodetypes="csccccc"/><path d="m 270.33492,269.98618 c -0.16754,2.01348 0.47911,3.25262 0.89408,5.36257 -0.66799,-1.59942 -1.31544,-3.72955 -0.89408,-5.36257 z" class="shadow" id="path5012" sodipodi:nodetypes="ccc"/><path style="display:inline;fill-opacity:1;fill-rule:nonzero;fill:#000000;opacity:1;stroke-dasharray:none;stroke-dashoffset:0;stroke-linecap:round;stroke-linejoin:bevel;stroke-miterlimit:4;stroke-opacity:1;stroke-width:0;stroke:#000000;vector-effect:none" d="m 320.66643,266.25428 c 0,12.05744 -9.65838,21.12482 -22.00872,21.12481 -12.35032,-1e-5 -19.88736,-8.1835 -19.88736,-20.24093 0,-12.05743 7.18349,-22.00869 19.53381,-22.0087 12.35034,-1e-5 22.36227,9.06737 22.36227,21.12482 z" id="path1626-9" sodipodi:nodetypes="sssss"/><path style="display:inline;fill-opacity:1;fill-rule:nonzero;fill:#800000;opacity:1;stroke-dasharray:none;stroke-dashoffset:0;stroke-linecap:round;stroke-linejoin:bevel;stroke-miterlimit:4;stroke-opacity:1;stroke-width:0;stroke:#000000;vector-effect:none" d="m 318.90755,266.10339 c 0,11.11008 -8.8643,19.46505 -20.19925,19.46504 -11.33492,-10e-6 -18.25229,-7.54053 -18.25229,-18.65061 0,-11.11007 6.59289,-20.27947 17.92781,-20.27948 11.33495,-1e-5 20.52373,8.35496 20.52373,19.46505 z" id="path1626-1-0" sodipodi:nodetypes="sssss"/><path style="display:inline;fill-opacity:1;fill-rule:nonzero;fill:#000000;opacity:1;stroke-dasharray:none;stroke-dashoffset:0;stroke-linecap:round;stroke-linejoin:bevel;stroke-miterlimit:4;stroke-opacity:1;stroke-width:0;stroke:#000000;vector-effect:none" d="m 315.15755,266.47839 c 0,1.07575 -0.1163,3.28388 -0.22379,4.24996 -4.84718,-0.34911 -11.93835,-0.85256 -13.51634,-0.93559 0.12383,0.70926 0.8116,7.39477 1.67901,12.94663 -0.74707,0.0528 -4.2098,0.079 -5.01313,0.079 -0.74773,0 -3.45666,-0.2094 -4.12864,-0.2536 0.72554,-4.50941 1.98264,-11.92327 1.97052,-12.70919 -0.86746,-0.004 -6.83155,0.66357 -11.67213,1.11013 -0.0324,-0.79201 0.078,-3.43283 0.078,-4.29795 0,-1.08475 0.0223,-3.42179 0.0732,-4.38754 3.97131,0.6151 10.06547,1.47574 11.16789,1.36756 -0.44591,-2.06727 -0.53984,-7.0986 -1.49337,-12.69678 0.90273,-0.0839 2.87765,-0.18772 3.9301,-0.18772 1.08,0 3.92238,0.1043 4.90189,0.18956 -0.48493,3.32213 -0.8388,10.9689 -1.0758,12.58219 2.08648,-0.3006 7.95423,-0.8584 13.18238,-1.44686 0.0518,0.68473 0.1403,3.64793 0.1403,4.39016 z" id="path1626-1-2-7" sodipodi:nodetypes="cccccccccccccccccc"/><path style="display:inline;fill-opacity:1;fill-rule:nonzero;fill:#ececec;opacity:1;stroke-dasharray:none;stroke-dashoffset:0;stroke-linecap:round;stroke-linejoin:bevel;stroke-miterlimit:4;stroke-opacity:1;stroke-width:0;stroke:#000000;vector-effect:none" d="m 314.00851,266.40895 c 0,1.0105 -0.23732,2.22232 -0.33744,3.12979 -0.40686,0.086 -0.65494,-0.86561 -1.0922,-0.86629 -4.32188,-0.007 -10.40707,0.23321 -11.74164,0.16229 0.10665,0.61614 -0.30227,6.684 -0.14503,11.64862 0.0128,0.40372 0.77813,0.80469 0.79361,1.20013 -0.69575,0.0495 -2.63052,0.0743 -3.37867,0.0743 -0.69637,0 -2.05814,-0.19671 -2.68395,-0.23821 0.0343,-0.38364 0.81933,-0.65826 0.85234,-1.08207 0.32779,-4.20795 0.6445,-11.02921 0.63423,-11.6999 -0.72233,-0.004 -5.99296,-0.14362 -10.14198,-0.25347 -0.49125,-0.013 -0.93459,0.77059 -1.41185,0.76022 -0.0301,-0.74396 -0.0564,-1.8448 -0.0564,-2.65745 0,-1.01894 -0.0223,-2.17936 0.0251,-3.08654 0.48622,0.0262 0.92982,0.97904 1.48839,1.0021 3.49265,0.1442 8.86322,0.0109 9.74835,-0.0767 -0.0648,-1.64989 -0.29294,-7.71904 -0.44407,-11.42887 -0.0149,-0.36563 -0.73657,-0.71532 -0.75065,-1.04397 0.84072,-0.0788 1.6909,-0.30569 2.67108,-0.30569 1.0058,0 2.70687,0.0548 3.61908,0.13494 -0.0129,0.37951 -0.64754,0.86406 -0.66542,1.34775 -0.13115,3.54845 0.0946,9.94717 0.16523,11.24286 1.79477,-0.0218 6.69443,0.29048 11.3364,0.0814 0.38375,-0.0173 0.92043,-0.98566 1.29879,-1.00482 0.0483,0.64319 0.21667,2.26244 0.21667,2.95965 z" id="path1626-1-2-0-4" sodipodi:nodetypes="ccccscccscscccscscccscsccc"/><path style="display:inline;fill-opacity:1;fill-rule:nonzero;fill:#000000;opacity:1;stroke-dasharray:none;stroke-dashoffset:0;stroke-linecap:round;stroke-linejoin:bevel;stroke-miterlimit:4;stroke-opacity:1;stroke-width:0;stroke:#000000;vector-effect:none" d="m 302.81719,266.27703 c -1.27548,1.74405 -2.39556,3.08262 -3.93289,4.49761 -1.7765,-1.68029 -2.29676,-2.34954 -3.85126,-4.31466 1.07619,-1.43453 2.21492,-2.91493 3.62931,-4.55558 1.89608,1.54764 2.48077,2.27482 4.15484,4.37263 z" id="path1626-1-7-0" sodipodi:nodetypes="ccccc"/><path style="display:inline;fill-opacity:1;fill-rule:nonzero;fill:#ffffff;opacity:1;stroke-dasharray:none;stroke-dashoffset:0;stroke-linecap:round;stroke-linejoin:bevel;stroke-miterlimit:4;stroke-opacity:1;stroke-width:0;stroke:#000000;vector-effect:none" d="m 302.28594,266.30939 c -1.09114,1.49521 -2.04934,2.64278 -3.36449,3.85587 -1.51975,-1.44053 -1.96482,-2.0143 -3.29467,-3.69904 0.92067,-1.22983 1.89482,-2.49901 3.1048,-3.90557 1.62205,1.32682 2.12224,1.95025 3.55436,3.74874 z" id="path1626-1-7-8-9" sodipodi:nodetypes="ccccc"/><path style="display:inline;fill-opacity:1;fill-rule:nonzero;fill:#800000;opacity:1;stroke-dasharray:none;stroke-dashoffset:0;stroke-linecap:round;stroke-linejoin:bevel;stroke-miterlimit:4;stroke-opacity:1;stroke-width:0;stroke:#000000;vector-effect:none" d="m 300.43278,267.03363 c 0,0.90125 -0.70487,1.57899 -1.6062,1.57899 -0.90133,0 -1.45138,-0.61168 -1.45138,-1.51293 0,-0.90124 0.34748,-2.57314 2.33156,-2.66153 -2.45743,2.43068 0.72602,1.69422 0.72602,2.59547 z" id="path1626-1-8-1" sodipodi:nodetypes="ssscs"/></g></svg>
