<svg viewBox="0 0 560 1000"><path sodipodi:nodetypes="cscc" id="path3290" d="m 283.36681,155.53041 c -1.4353,-1.6555 -2.21939,-0.65792 -2.52431,-0.13298 -0.0757,0.13034 0.0344,1.07529 0.0151,0.94326 0.33047,-0.82485 1.67017,-0.35221 2.5092,-0.81028 z" style="display:inline;fill:#000000;stroke-width:0.34515575"/><path style="fill:#000000;stroke-width:0.22309987" d="m 274.38663,152.06826 c -0.0973,-1.26649 1.24864,-2.72844 2.30968,-4.61927 1.31385,-2.18971 1.01312,-3.76257 2.21469,-5.61646 -1.14363,2.28878 -0.71914,3.78604 -1.85043,5.81715 -1.00513,1.80017 -2.33772,3.30886 -2.25268,4.34504 -0.10724,1.38642 2.00671,3.1117 3.93065,3.72838 0.84188,0.26986 1.35141,0.68996 0.79987,0.65951 -2.62264,-0.63096 -5.1349,-2.82574 -5.15178,-4.31435 z" id="path3847" sodipodi:nodetypes="cccccccc"/><path style="display:inline;fill:#000000;stroke-width:0.18142612" d="m 286.17062,154.72593 c 0.39995,-0.49865 0.60204,-1.23395 0.64008,-1.13747 0.038,0.0966 -0.0392,0.94194 -0.47719,1.34411 l -0.89008,0.69997 z" id="path7178-0" sodipodi:nodetypes="ccccc"/></svg>
