<svg viewBox="0 0 560 1000"><path d="m 313.19999,131.1733 c -0.41093,-3.77403 -18.66767,-6.29368 -19.73009,3.3679 7.72363,8.56642 18.96908,-0.79864 19.73009,-3.3679 z" id="path4059-2-1-0-5-5" sodipodi:nodetypes="ccc" class="sclera"/><path d="m 307.54423,130.60517 c 2.26855,4.21535 -4.15711,8.97534 -6.94632,5.16898 -1.00496,-0.84256 0.097,-2.59715 1.62912,-2.34492 1.62656,0.76102 3.34628,0.4194 3.24376,-3.7258 1.24229,3.8e-4 1.3943,0.4901 2.07344,0.90183 z" id="path4059-2-7" sodipodi:nodetypes="cccccc" class="eye"/><path d="m 265.37628,132.28711 c 0.25813,-3.77403 11.72648,-6.29368 12.39386,3.3679 -4.65792,5.85266 -11.90066,-1.01082 -12.39386,-3.3679 z" id="path4059-2-1-0-5-5-5" sodipodi:nodetypes="ccc" class="sclera"/><path d="m 274.77118,131.23599 c 2.93566,0.0948 2.94426,5.26355 0.0209,5.59517 -2.59923,1.00707 -4.53016,-1.18272 -3.02744,-2.67959 3.75713,0.9385 3.89993,-1.11827 1.79425,-2.04141 0.45721,-0.69955 0.75724,-0.62571 1.21231,-0.87415 z" id="path4059-2-1-3" sodipodi:nodetypes="cccccc" class="eye"/><path style="fill:#000000;stroke-width:0.18461411" d="m 265.34664,127.05373 c 0.15432,-0.1286 0.82854,0.048 1.37422,0.12696 0.82288,0.11267 1.74372,0.15047 2.04632,0.0841 0.50862,-0.11171 0.5283,-0.14502 0.26047,-0.44097 -0.54852,-0.60611 -0.32465,-0.77793 0.47924,-0.3678 0.42292,0.21575 1.68984,0.68207 2.81537,1.03626 3.30562,1.04022 4.05073,1.44048 4.53727,2.43739 0.7494,1.53551 1.29372,3.68612 1.29372,5.11145 0,1.2569 -0.0326,1.3631 -0.55284,1.80086 -0.30407,0.25586 -0.74022,0.5239 -0.96923,0.59565 -0.229,0.0718 -0.61451,0.28518 -0.85666,0.47429 -0.24215,0.18911 -0.60483,0.34383 -0.80597,0.34383 -0.20114,0 -0.75678,0.1389 -1.23475,0.30865 -1.22718,0.33268 -2.88216,-0.11134 -3.67051,-0.39089 -0.19671,-0.0741 -0.4039,-0.14266 -0.59,-0.25917 -0.43939,-0.27508 -1.65152,0.27796 -2.30965,-0.0191 -0.20199,-0.5754 1.63031,-0.29787 1.18867,-0.66907 -0.41067,-0.34517 -0.46084,-0.69376 -1.0106,-0.80947 -0.22495,-0.0473 -2.7198,0.22807 -2.90901,-0.2546 -0.15128,-0.68866 2.20255,-0.39021 1.75963,-1.06917 -0.22871,-0.35059 -0.39708,-0.78907 -0.73559,-1.07785 -0.17453,-0.14889 -1.66632,0.15887 -2.39235,-0.28522 0.21297,-0.66496 1.87832,-0.57925 1.46885,-1.50213 -0.18741,-0.42239 -0.29673,-0.84189 -0.3528,-1.21548 -0.2389,-1.17113 -0.0428,-1.54364 -1.2711,-2.64076 0.0481,-0.17161 3.67888,-0.22228 3.56425,-0.32348 -0.37565,-0.33147 -1.00482,-0.55429 -1.12695,-0.99441 z m 45.11417,8.99843 c -0.6813,0.60172 -0.78094,0.76588 -0.55384,0.91237 0.14396,0.0577 1.24005,0.29455 1.36566,0.94353 -0.32486,0.34348 -2.09114,-0.26752 -3.3039,-0.16695 -1.16039,0.0962 -1.34794,0.20721 -1.01929,0.60322 0.29558,0.30753 1.13251,0.41844 1.02692,0.99927 -0.67868,0.0579 -1.55641,-0.55554 -2.91357,-0.87954 -0.15683,-0.0315 -1.37979,0.25396 -3.0019,0.25396 -2.39498,0 -2.40325,-0.002 -3.96921,-0.71638 -0.86306,-0.39402 -2.05638,-1.03786 -2.65178,-1.43076 -0.59542,-0.39291 -1.15982,-0.71438 -1.25424,-0.71438 -0.0944,0 -0.14726,-0.14352 -0.11743,-0.31893 0.0299,-0.17542 -0.0563,-0.3208 -0.1914,-0.32308 -0.30317,-0.005 -0.76973,-0.61849 -0.76973,-1.01195 0,-0.1601 0.22165,-0.61726 0.49253,-1.01592 0.33047,-0.48631 0.41906,-0.74931 0.26922,-0.79926 -0.17051,-0.0569 -0.1725,-0.13567 -0.009,-0.33341 0.36016,-0.43396 0.48909,-0.29387 0.43128,0.46861 -0.0326,0.42951 -0.21089,0.88328 -0.43528,1.10768 -0.20908,0.20907 -0.38013,0.46317 -0.38013,0.56468 0,0.3534 2.00367,2.20156 2.5231,2.32728 0.28767,0.0696 0.73073,0.26784 0.98457,0.44046 0.60188,0.4093 4.43074,1.02113 4.43074,0.708 0,-0.084 -0.0803,-0.15263 -0.17847,-0.15263 -0.30459,0 -1.46204,-1.26578 -1.84643,-2.01926 -0.48556,-0.9518 -0.73469,-2.10535 -0.53264,-2.46639 0.0975,-0.17415 0.0796,-0.46798 -0.045,-0.74153 -0.19745,-0.43334 -0.11169,-1.15666 0.31849,-2.68612 0.12116,-0.43077 0.10984,-0.43471 -0.87351,-0.30414 -1.34353,0.17839 -2.07933,0.55033 -2.68499,1.35723 -0.62523,0.83298 -0.84253,0.98743 -1.0697,0.76025 -0.11283,-0.11283 -0.0966,-0.25719 0.0446,-0.39846 0.12185,-0.12184 0.22154,-0.29573 0.22154,-0.38642 0,-0.0907 -0.4187,0.18568 -0.93045,0.61415 -0.51176,0.42846 -0.98168,0.7278 -1.04427,0.66522 -0.14418,-0.14418 0.47255,-1.5283 0.80325,-1.80277 0.42053,-0.34901 0.27615,-0.51235 -0.30545,-0.34556 -0.43125,0.12368 -0.55383,0.1004 -0.55383,-0.10519 0,-0.38706 -0.49596,-0.32193 -0.94154,0.12366 -0.2578,0.25779 -0.44938,0.326 -0.57182,0.20354 -0.12246,-0.12244 0.24038,-0.43635 1.08297,-0.93692 2.83342,-1.68331 6.30863,-2.69056 10.14294,-2.93982 1.75373,-0.11401 2.80359,-0.26845 3.21295,-0.47267 0.81062,-0.40439 0.94767,-0.38335 0.81987,0.12587 -0.0986,0.39267 -0.0187,0.45055 0.93923,0.68034 0.86354,0.20716 1.27796,0.2101 2.36572,0.0167 0.72533,-0.12892 1.65109,-0.28109 2.05724,-0.33813 0.72389,-0.10169 0.73208,-0.0965 0.41539,0.26088 -0.4534,0.51171 -0.40823,0.61207 0.27691,0.6153 0.33,0.002 0.71079,0.073 0.8462,0.1589 0.16824,0.10664 0.0806,0.15794 -0.27691,0.162 -0.28773,0.003 -0.81106,0.08 -1.16297,0.17045 l -0.63985,0.16453 0.91677,0.38631 c 0.50421,0.21248 1.57646,0.44302 2.38277,0.51231 0.80631,0.0692 1.53726,0.17002 1.62434,0.22383 0.27823,0.17196 -0.24893,0.61003 -1.00766,0.83734 -0.68797,0.20613 -0.79002,0.33329 -1.59349,1.98547 -0.47213,0.97086 -0.92074,1.79291 -0.99689,1.82675 -0.26118,0.11608 -0.1385,0.72971 0.16951,0.84791 0.66681,0.47535 1.02199,0.68049 1.43315,1.01496 0.49667,0.54882 0.36488,0.80771 -0.34355,0.67481 -1.53867,-0.41723 -2.39386,-0.81086 -3.42774,0.0888 z m -5.63624,0.46472 c 1.18387,-0.49465 2.27551,-2.63815 1.49592,-2.9373 -0.32951,-0.12645 -0.735,0.33739 -0.60077,0.68719 0.22522,0.58693 -2.19793,0.52805 -3.85999,-0.0938 -0.87408,-0.32704 -0.97501,-0.41602 -0.81374,-0.71736 0.29926,-0.55919 0.21666,-1.26096 -0.17298,-1.46949 -0.51872,-0.27761 -0.64623,-0.24512 -1.19609,0.30474 -0.36342,0.36342 -0.48108,0.64693 -0.44055,1.06154 0.0507,0.51857 0.1099,0.5642 0.71092,0.54787 0.60561,-0.0164 0.681,0.0436 0.98832,0.78658 0.47018,1.13679 1.63457,2.09274 2.54903,2.09274 0.39113,0 0.9941,-0.11822 1.33993,-0.26271 z m 5.18618,-3.61223 0.47348,-0.82881 -0.40017,-0.32403 c -0.49159,-0.39807 -0.72956,-0.27601 -0.73531,0.37718 -0.002,0.27324 -0.20973,0.99525 -0.46069,1.60448 -0.25096,0.60922 -0.45445,1.14922 -0.45218,1.19999 0.009,0.19657 1.1252,-1.24167 1.57487,-2.02881 z m -7.81142,-2.0692 c 0.39756,-0.45978 0.40929,-0.76981 0.0407,-1.07572 -0.62909,-0.52209 -1.63294,0.55377 -1.30765,1.40145 0.14171,0.36929 0.81586,0.19596 1.26697,-0.32573 z m 1.58206,-0.65768 c 0.0443,-0.31072 -0.0333,-0.41351 -0.31218,-0.41351 -0.44188,0 -0.65161,0.27925 -0.50219,0.66864 0.15792,0.41153 0.74552,0.22743 0.81437,-0.25513 z m -28.80392,-3.18272 c -0.35733,-0.55846 -0.70837,-1.2023 -0.7801,-1.43076 -0.12637,-0.40246 -0.20321,-0.41521 -2.47181,-0.41001 -1.68736,0.004 -2.68948,0.10045 -3.58754,0.3457 -1.33185,0.36373 -1.57322,0.29098 -0.7155,-0.21569 1.29971,-0.76777 4.61532,-1.10506 6.18179,-0.62889 0.61832,0.18797 0.80952,0.39321 1.4468,1.55308 0.88939,1.6187 0.83443,2.20576 -0.0737,0.78657 z m 23.02188,-2.78279 c 0.60923,-0.29651 1.21154,-0.53937 1.33846,-0.53969 0.12692,-3.7e-4 0.23076,-0.12518 0.23076,-0.27749 0,-0.18627 -0.19643,-0.28186 -0.59999,-0.29198 l -0.6,-0.0151 0.64616,-0.29837 c 0.9976,-0.46066 6.59985,-0.55551 8.06016,-0.13648 1.10734,0.31776 2.64745,1.10894 2.64745,1.36005 0,0.0776 -0.76845,-0.0614 -1.70768,-0.30896 -2.17622,-0.5735 -6.62443,-0.67091 -7.70764,-0.16879 -1.14492,0.53073 -3.01164,1.24461 -3.21641,1.23004 -0.10942,-0.008 0.2995,-0.25675 0.90873,-0.55327 z m -26.68058,12.61771 c -0.67294,-0.47135 -1.27598,-1.20704 -1.28262,-1.56475 -0.003,-0.17292 -0.10326,-0.52824 -0.22237,-0.78962 -0.16562,-0.36352 -0.16562,-0.52613 0,-0.69176 0.34753,-0.34752 0.25165,-0.69231 -0.24499,-0.88113 -0.40679,-0.15467 -0.46154,-0.28423 -0.46154,-1.09222 0,-0.50422 -0.0821,-0.9675 -0.18249,-1.02953 -0.21435,-0.13248 -1.78474,0.53011 -2.24621,0.94773 -0.30129,0.27268 -0.29344,0.34704 0.14046,1.3314 0.898,2.03718 1.87991,3.04531 3.67284,3.77087 0.98997,0.40062 1.3996,0.40013 0.82692,-7.5e-4 z m 3.64088,-0.28114 c 0.55002,-0.60388 0.84103,-1.23652 0.93232,-2.02683 0.10222,-0.88489 -0.37528,-0.97287 -0.6713,-0.12371 -0.19455,0.55809 -0.22177,0.56958 -1.07959,0.45592 -1.10216,-0.14602 -1.33189,-0.19105 -1.85213,-0.36304 l -0.41827,-0.13827 0.37211,-0.47307 c 0.45166,-0.57418 0.46183,-0.75661 0.0666,-1.19336 -0.62999,-0.69613 -1.90984,-0.13145 -1.90984,0.84264 0,0.44821 0.30385,0.66589 0.9295,0.66589 0.23744,0 0.40098,0.20111 0.52306,0.64325 0.48107,1.74234 2.21119,2.69469 3.10755,1.71058 z m -2.56627,-4.97535 c 0.31206,-0.31205 0.27568,-1.06157 -0.0577,-1.18951 -0.38206,-0.14662 -0.82841,0.2611 -0.82841,0.75673 0,0.65967 0.44293,0.876 0.88615,0.43278 z m 1.32922,-0.79384 c 0.18336,-0.22093 0.18336,-0.33291 0,-0.55384 -0.31156,-0.37542 -0.50638,-0.34806 -0.64563,0.0906 -0.21069,0.66383 0.22168,0.97402 0.64563,0.46318 z" id="path6789" sodipodi:nodetypes="cccscccsccssccscsscsscsccsccccccccccsccscccccscsssccccccccsccccsccccccccccccccccccccccccccccccscccscccccccccccccccccccccccccccccccccsccccccccccscccsccccccccccsscccccccccccccccc"/></svg>
