<svg viewBox="0 0 560 1000"><path d="m 283.66521,456.38067 c -1.54841,0.73859 -1.78928,15.78672 -9.24659,11.14886 -5.5459,3.1603 -10.12915,-4.94173 -10.42429,-8.4126 -0.25114,-2.95343 3.37748,-7.20053 3.87403,-6.51846 2.14579,-0.003 16.30971,2.85987 15.79685,3.7822 z" class="shadow" id="path4197" sodipodi:nodetypes="ccscc" inkscape:label="#PussyshadowN"/><path d="m 274.36595,467.58332 c -3.81452,2.31718 -9.64064,-2.27902 -10.8644,-11.68664 5.95334,-21.67633 25.49385,-8.31185 20.23612,0.35499 -2.87984,4.74713 -3.52005,14.37508 -9.37172,11.33165 z" class="skin torso" id="path4199" sodipodi:nodetypes="ccsc" inkscape:label="#PussyN"/><path style="display:inline;fill-opacity:1;fill:#1a1a1a;stroke-dasharray:none;stroke-linecap:butt;stroke-linejoin:miter;stroke-miterlimit:4;stroke-opacity:1;stroke-width:0;stroke:#000000" d="m 268.15022,466.84042 c 1.97544,1.15064 3.44304,1.50895 6.29117,0.74829 1.48394,1.11892 3.67809,1.01117 5.52348,-0.15189 7.82224,-13.26047 17.50609,-22.59748 28.5432,-30.20656 15.92414,-7.32512 35.65563,-13.9168 53.63813,-16.61521 1.23117,-3.1619 1.68227,-3.76161 2.13393,-4.78976 -6.98714,2.20071 -22.51132,7.70378 -29.76675,10.33389 -24.29445,8.80678 -49.30882,19.5271 -67.78558,12.72247 -9.19987,1.7019 -17.1878,-0.81844 -23.32533,-3.95341 -4.55174,-2.32496 -10.86997,-4.23668 -19.09203,-20.26188 0.42664,8.69013 22.80751,34.79862 43.83979,52.17406 z" id="path4201" sodipodi:nodetypes="ccccccscsccc"/><path style="display:inline;fill-opacity:1;fill:#333333;stroke-dasharray:none;stroke-linecap:butt;stroke-linejoin:miter;stroke-miterlimit:4;stroke-opacity:1;stroke-width:0;stroke:#000000" d="m 275.25299,462.86252 c -6.58379,-2.05713 -8.97807,-13.24652 -9.4981,-23.86278 -1.07418,0.15185 -1.78047,0.0916 -3.12071,0.37515 0.10978,11.93368 2.68079,23.93364 12.61881,23.48763 z" id="path4203" sodipodi:nodetypes="cccc"/><path style="display:inline;fill-opacity:1;fill:#333333;stroke-dasharray:none;stroke-linecap:butt;stroke-linejoin:miter;stroke-miterlimit:4;stroke-opacity:1;stroke-width:0;stroke:#000000" d="m 232.01359,429.27083 c 0.26572,-0.3522 0.52338,-0.70987 0.7725,-1.07137 -0.29849,-0.3272 -0.7716,-0.94227 -0.7716,-0.94227 -0.30788,0.45912 -0.65581,0.94298 -1.00603,1.40214 0.31554,0.91926 0.31461,0.36013 1.00513,0.6115 z" id="path4205" sodipodi:nodetypes="ccccc"/><path sodipodi:nodetypes="cccc" id="path4207" class="shadow" d="m 308.2039,435.78241 c 0,0 -21.36416,18.05915 -22.90518,20.89604 6.85085,-6.07995 28.65766,-22.84858 28.65766,-22.84858 z"/><path sodipodi:nodetypes="ccc" id="path4209" class="shadow" d="m 262.16576,457.53039 c -6.81704,-9.41592 -28.83006,-31.99347 -34.93819,-34.15183 5.05404,5.44075 26.5203,25.35081 34.93819,34.15183 z"/><path d="m 262.98857,459.03749 c 4.57815,9.39542 7.95428,8.94718 11.45233,8.01034 0.29456,-0.0789 5.02218,4.77996 9.26343,-8.71666 -1.38475,8.70911 -4.94655,11.74021 -9.3291,9.59651 -0.0226,-0.0111 -2.82256,1.04466 -4.71233,0.003 -2.95847,-1.63089 -6.486,-5.681 -6.67433,-8.8931 z" class="shadow" id="path4211" sodipodi:nodetypes="cscsscc"/><path sodipodi:nodetypes="cccc" id="path4213" d="m 335.37111,425.83232 c 8.90478,-2.06457 25.79776,-6.87759 27.68022,-6.82607 0.17382,-1.68154 1.0928,-2.2079 0.8411,-3.10989 -1.75576,0.62762 -16.10436,3.44602 -28.52132,9.93596 z" style="display:inline;fill-opacity:1;fill:#333333;stroke-dasharray:none;stroke-linecap:butt;stroke-linejoin:miter;stroke-miterlimit:4;stroke-opacity:1;stroke-width:0;stroke:#000000"/><path sodipodi:nodetypes="ccccc" id="path4238-3-9-3" d="m 371.6898,270.22619 c 0.57746,9.24593 1.7189,28.50735 -1.40065,40.696 -66.74361,-8.03197 -132.02579,-8.49693 -137.54578,-6.0638 -1.10839,-21.54956 -0.12657,-32.63476 4.83014,-53.0977 50.54474,0.32853 93.53218,3.12206 134.11629,18.4655 z" style="display:inline;fill-opacity:1;fill-rule:evenodd;fill:#000000;opacity:1;stroke-dasharray:none;stroke-linecap:butt;stroke-linejoin:miter;stroke-miterlimit:4;stroke-opacity:1;stroke-width:0;stroke:#000000"/><path sodipodi:nodetypes="ccccc" id="path4240-6-2-0" d="m 369.51137,309.78263 c -55.12275,-8.36934 -126.64983,-8.64117 -135.76034,-6.26247 -1.34908,-23.52121 1.95145,-38.87779 4.68879,-50.90757 12.4531,0.21782 86.73913,0.93307 132.51692,18.25599 0.51622,10.00929 1.03619,29.36273 -1.44537,38.91405 z" style="display:inline;fill-opacity:1;fill-rule:evenodd;fill:#1a1a1a;opacity:1;stroke-dasharray:none;stroke-linecap:butt;stroke-linejoin:miter;stroke-miterlimit:4;stroke-opacity:1;stroke-width:0;stroke:#000000"/></svg>
