<svg viewBox="0 0 560 1000"><path style="fill:#000000;stroke-width:4.20342207" sodipodi:nodetypes="cscccc" id="path3910" d="m 191.9153,429.57119 c 0.48885,-0.20682 1.2805,0.0383 1.73427,-0.17259 21.5957,-10.01594 3.72396,-24.42853 -1.65721,-23.73918 -14.52201,5.18742 -8.9358,19.85286 -4.2043,20.66104 0.0678,0.0501 0.5649,1.28626 4.12724,3.2507 z"/><path style="fill:#000000;stroke-width:4.20342207" sodipodi:nodetypes="ccccssssssssscc" id="path3912" d="m 238.17537,463.36864 c 20.28882,5.75813 40.73354,12.42997 47.74381,-5.46728 2.1633,-6.18873 0.77434,-10.56761 -3.55845,-12.17302 -17.88676,-5.68637 -55.95103,-22.34539 -67.07357,-33.00162 -1.53564,-2.39487 -1.27728,-2.73999 -2.83927,-4.38357 -3.3118,-3.48474 -7.56925,-3.12919 -11.04876,-2.9352 -2.09694,0.11709 -7.5093,-0.54029 -9.19255,0.14256 -1.41392,0.57359 -2.64748,1.38724 -3.45191,2.4253 -0.24987,0.32266 1.66132,-0.70502 1.84076,-0.84274 5.0511,-3.87722 25.23042,12.43127 2.73965,21.98227 -2.08201,0.88415 -8.45992,-5.71408 -8.40298,-5.48903 0.36397,1.44048 2.79248,3.70809 4.92963,5.1592 1.27615,0.86644 2.728,1.1905 3.24502,2.12055 6.21543,11.17974 19.9189,23.4552 45.06862,32.46235 z"/><path class="areola" sodipodi:nodetypes="ccscccc" id="path3914" d="m 188.01485,424.72267 c 7.74073,4.72116 22.40932,-1.72967 26.09824,-10.72949 -0.92893,-2.6854 -4.11356,-7.87748 -7.84997,-7.75239 -10.66378,0.35682 -10.42638,-0.67901 -14.90756,0.65754 -8.96457,3.93003 -10.08317,12.1838 -5.23343,18.29139 0.47544,0.37158 1.09388,-0.28565 1.89272,-0.46726 z"/><path style="fill:#000000;stroke-width:4.20342207" sodipodi:nodetypes="ccscc" id="path3916" d="m 186.23662,419.65905 c 0.11,0.82052 1.10271,2.48369 2.17681,2.78342 -0.005,-0.0426 -0.26408,-1.45651 -0.27452,-1.49961 -0.34729,-1.45402 -1.88471,-5.7348 0.62339,-10.53942 -2.52316,2.90902 -2.97856,5.78932 -2.52587,9.25561 z"/><path sodipodi:nodetypes="cccccscccc" id="path3918" class="skin penis" d="m 239.46564,462.44508 c 20.09908,5.70439 39.41392,13.55864 47.279,-4.12276 2.14313,-6.13083 2.009,-9.61827 -2.28329,-11.20879 -18.6487,-4.55087 -58.00475,-21.80325 -69.02323,-32.35976 -5.18724,7.41975 -10.3137,11.49435 -21.29739,12.47831 -1.84915,-0.0227 -3.81499,-0.51967 -5.79478,-1.68075 -0.42886,-0.2517 -1.12683,0.23105 -1.42636,0.33662 -0.34407,0.23316 8.05846,5.2984 7.88068,5.69193 6.15731,11.07528 19.75084,21.94249 44.66534,30.86537 z"/></svg>
