<svg viewBox="0 0 560 1000"><path style="display:inline;fill-opacity:1;fill-rule:evenodd;fill:#000000;stroke-dasharray:none;stroke-linecap:butt;stroke-linejoin:miter;stroke-miterlimit:4;stroke-opacity:0;stroke-width:3;stroke:#000000" d="m 350.12931,407.06625 c 8.20773,3.77777 44.23238,26.04029 32.61536,77.49849 -7.65858,-3.48945 -10.08083,-13.85381 -10.08083,-13.85381 -7.73135,-16.84961 -23.08925,-47.00857 -21.13047,-60.16535 0.0246,-0.16538 -1.56383,-3.32192 -1.40406,-3.47933 z" id="path5784" sodipodi:nodetypes="ccssc"/><path style="display:inline;fill-opacity:1;fill-rule:evenodd;fill:#999999;stroke-dasharray:none;stroke-linecap:butt;stroke-linejoin:miter;stroke-miterlimit:4;stroke-opacity:0;stroke-width:3;stroke:#000000" d="m 349.37494,406.40206 c 0.22265,0.0924 0.46533,0.23825 0.75647,0.37712 1.00485,0.47929 2.31731,1.34889 3.84105,2.57257 11.3192,9.09023 34.29684,37.72015 29.43258,71.03704 -0.18129,1.24172 -0.5293,3.08428 -0.79637,4.33943 -10.07289,-4.66331 -11.49737,-4.64987 -12.76308,-5.39441 -4.24176,-11.60618 -23.63738,-68.70386 -20.82435,-72.84506 0.0221,-0.0326 0.33583,-0.0799 0.3537,-0.0867 z" id="path5786" sodipodi:nodetypes="csssccscc"/><path style="display:inline;fill-opacity:1;fill-rule:evenodd;fill:#4d4d4d;stroke-dasharray:none;stroke-linecap:butt;stroke-linejoin:miter;stroke-miterlimit:4;stroke-opacity:0;stroke-width:3;stroke:#000000" d="m 352.64445,408.33442 c 5.55607,4.13132 36.75598,21.99939 31.23776,68.15429 -7.65859,-3.48945 -13.19051,-4.38368 -13.19051,-4.38368 -7.73135,-16.84962 -31.21268,-54.2152 -20.29837,-61.81885 1.49335,-1.04037 2.09135,-1.79434 2.25112,-1.95176 z" id="path5788" sodipodi:nodetypes="ccssc"/></svg>
