<svg viewBox="0 0 560 1000"><path id="path6359" d="m 247.21096,437.19208 c -2.05081,-3.48515 -6.43112,-12.5398 -7.53942,-15.58494 -0.50044,-1.37504 -1.61593,-3.74097 -2.47885,-5.25762 -2.09004,-3.67351 -2.68632,-6.43413 -1.8604,-8.6131 1.37102,-3.61699 2.64252,-7.47967 3.10632,-9.43669 0.60171,-2.53886 1.3835,-3.41658 1.01782,-1.14273 -0.64249,3.99513 -2.33483,11.33549 -2.89303,12.54828 -0.5561,1.20818 -0.54569,1.56362 0.10768,3.674 0.39787,1.28501 1.13723,2.97254 1.64301,3.75003 0.50583,0.77749 2.74346,5.1015 4.97252,9.60892 2.22907,4.5074 4.42901,8.86917 4.88878,9.69285 2.13628,3.82721 1.25089,4.5258 -0.96445,0.761 z" style="display:inline;fill-opacity:1;fill:#464646;stroke-width:0.47898471"/><path id="path6363" d="m 242.07028,386.00001 c 0,-1.88731 1.90232,-8.98714 2.15362,-8.03776 0.0905,0.34192 -0.0816,2.66344 -0.38268,5.15897 -0.52254,4.33281 -1.77094,6.36215 -1.77094,2.87879 z" style="display:inline;fill-opacity:1;fill:#464646;stroke-width:0.88785607"/><path id="path6373" d="m 266.06399,317.79777 c 0.89046,-1.0408 5.34093,-2.46001 5.84967,-1.86538 0.26251,0.30697 -0.72106,0.99005 -2.18597,1.51795 -3.05698,1.10165 -4.41952,1.23086 -3.6637,0.34743 z" style="display:inline;fill-opacity:1;fill:#464646;stroke-width:0.71543431"/><path id="path6375" d="m 294.25904,316.22446 c -2.08333,-0.77691 -4.64016,-1.42386 -5.68182,-1.43764 -1.04167,-0.0133 -1.89396,-0.29869 -1.89396,-0.63313 0,-1.08519 3.37167,-0.6449 7.41382,0.96812 6.94544,2.77159 7.07923,3.68221 0.16204,1.10265 z" style="display:inline;fill-opacity:1;fill:#464646;stroke-width:0.71543431"/><path style="display:inline;fill-opacity:1;fill:#464646;opacity:1;stroke-width:0.54046547" d="m 314.28278,425.16635 c 0.47266,-0.69407 1.53246,-1.78738 2.35511,-2.42959 1.63824,-1.27888 5.78988,-7.56448 7.03453,-10.6503 0.64825,-1.6072 1.86075,-3.02317 1.09442,-6.85886 -1.25034,-6.25845 -1.26356,-6.53059 -0.31697,-6.53059 0.99936,0 2.73366,3.59933 3.79766,7.88148 0.77657,3.12531 -0.47352,3.45864 -2.41357,6.60692 -1.07861,1.75037 -2.95231,4.31645 -4.16374,5.70243 -2.45949,3.81 -7.85332,9.41626 -7.85332,9.41626 0,0 -7.09995,6.18491 0.46588,-3.13775 z" id="path4817-8-4-1" sodipodi:nodetypes="csscsscccc"/><path style="display:inline;fill-opacity:1;fill:#464646;opacity:1;stroke-width:0.71543431" d="m 316.23176,371.9755 c -0.96775,-1.86254 -2.28575,-7.98095 -2.04808,-9.50761 0.40922,-2.62859 1.76258,-1.15131 2.21211,2.41472 0.24733,1.96193 0.79308,4.67768 1.21282,6.03507 0.76629,2.47813 -0.23797,3.24968 -1.37685,1.05782 z" id="path4747-8-2-35"/><path style="display:inline;fill-opacity:1;fill:#464646;opacity:1;stroke-width:0.71543431" d="m 333.82151,325.82252 c 0,-0.31996 0.77922,-0.72891 1.73161,-0.90883 1.10148,-0.20808 1.61211,-0.068 1.4033,0.38514 -0.40311,0.87457 -3.13491,1.33098 -3.13491,0.52369 z" id="path4691-3-2-0"/><path style="display:inline;fill-opacity:1;fill:#464646;opacity:1;stroke-width:0.88785607" d="m 322.06917,390.7916 c -0.85654,-1.75357 -2.31123,-8.92328 -1.64687,-8.11685 0.23928,0.2904 1.13298,2.49926 1.98581,4.90864 1.48088,4.18318 1.24197,6.44475 -0.33894,3.20821 z" id="path4753-0-3-46-3"/><path style="display:inline;fill-opacity:1;fill:#464646;stroke-width:0.76042944" d="m 266.60342,419.55685 c -1.69242,-6.70782 -0.10105,-20.05559 3.50027,-29.36008 1.80476,-5.67255 1.54545,-10.55241 0.91924,-15.45589 -0.29708,-2.32628 -12.24832,-2.28749 -12.33525,-2.80262 -0.0466,-0.27645 2.36596,-1.1928 5.5352,-1.13478 2.75445,0.0504 6.32507,1.0815 6.28102,0.84 -0.97608,-5.35093 -2.2662,-10.89118 -2.06664,-17.61718 0.0336,-1.13101 0.10923,-2.29555 0.23561,-3.49836 0.12739,-1.21237 0.30628,-2.46361 0.54547,-3.75858 0.17577,-0.95168 0.38411,-1.92698 0.6285,-2.92782 0.6866,-1.72499 1.24834,-4.08041 1.24834,-5.23425 0,-2.92123 2.38679,-11.95425 3.28966,-12.45001 1.98595,-1.09046 2.08747,0.82982 0.28607,5.41078 -1.07987,2.74601 -1.92322,6.04644 -1.87416,7.33424 0.0491,1.28783 -0.48259,4.92187 -1.18142,8.07562 -0.28701,1.29528 -0.54251,2.49055 -0.76277,3.61792 -0.24435,1.25067 -0.44534,2.41776 -0.59789,3.54512 -0.73067,5.39989 -0.35002,9.88816 1.69966,18.2822 -0.0475,1.88236 2.02131,0.25561 4.95281,-0.0809 3.72724,-0.42789 8.78794,-0.19374 10.38603,1.29856 -0.22118,0.71722 -6.36968,-0.36031 -10.3635,0.97753 -2.50751,0.83997 -3.94229,3.2838 -3.22405,5.6893 0.33408,3.92792 0.0774,5.27754 -1.63611,8.6012 -5.28175,10.24501 -5.36506,19.63795 -4.24613,28.06938 0.6089,4.58799 -0.25324,6.41027 -1.21996,2.57865 z" id="path4767-2-2-1" sodipodi:nodetypes="ccssssssscsccccsscscsccccc"/><path style="display:inline;fill-opacity:1;fill:#464646;stroke-width:0.70040137" d="m 312.23662,334.51506 -3.37194,-4.68548 c -1.85458,-2.57699 -3.11973,-4.87287 -2.81148,-5.10192 0.64484,-0.47914 6.02736,4.09795 6.04541,5.14084 0.008,0.381 0.7011,1.33416 1.54338,2.11814 l 1.53137,1.42541 5.73102,-2.97831 c 3.15209,-1.63808 5.8907,-2.85801 6.08581,-2.71094 0.19514,0.14707 -1.94038,1.76546 -4.74557,3.59649 -2.80521,1.83101 -5.67077,4.03293 -6.36792,4.89316 -1.05104,1.2969 5.12808,-0.55381 5.79789,0.70971 -8.605,1.93342 -6.51523,6.91104 -7.20569,9.36996 -0.71512,2.88134 -1.08915,3.88435 -1.32818,3.82375 -1.2319,-0.31231 0.33633,-11.54264 -0.9041,-15.60081 z" id="path4735-6-5-7" sodipodi:nodetypes="ccccccccccccsc"/><path style="display:inline;fill-opacity:1;fill:#464646;stroke-width:1.45392561" d="m 326.60077,335.71769 c 4.39739,0.25999 14.29699,-5.15022 15.07828,-5.91899 -0.63103,4.01133 -14.72013,8.22908 -15.07828,5.91899 z" id="path4691-3-5-7-8" sodipodi:nodetypes="ccc"/><path sodipodi:nodetypes="scscscscs" id="path6562-0" d="m 249.38853,337.8833 c -0.0344,-0.91893 -2.28647,-1.83259 -3.64061,-5.43853 1.9705,1.6031 3.68005,2.32024 3.75787,1.74184 0.16217,-1.20526 0.4645,-2.77678 1.21372,-3.99501 1.38786,-2.25672 7.84401,-8.13299 8.93555,-8.13299 1.10459,0 0.0806,1.62314 -2.58181,4.0918 -4.35589,4.03916 -5.75202,6.75406 -6.63301,11.79604 l -0.86418,4.94575 z" style="display:inline;fill-opacity:1;fill:#464646;opacity:1;stroke-width:0.70841432"/></svg>
