<svg viewBox="0 0 560 1000"><path style="display:inline;fill-opacity:1;fill-rule:evenodd;fill:#000000;opacity:1;stroke-dasharray:none;stroke-linecap:butt;stroke-linejoin:miter;stroke-miterlimit:4;stroke-opacity:1;stroke-width:0;stroke:#000000" d="m 370.8969,268.8878 c 2.36849,23.60153 -3.24649,50.77091 -14.17047,77.92965 0.0897,2.34411 8.6595,18.11968 11.11537,30.07427 -36.77086,9.58655 -126.68446,13.76644 -145.55622,-5.09006 2.433,-12.49684 7.10305,-30.33653 14.9517,-51.41692 -2.13048,-7.70551 0.44816,-14.37237 -0.57531,-27.78473 0.40962,-35.13389 30.30326,-40.0847 52.38713,-59.43686 0.97617,-2.02088 2.05999,-19.89061 -11.85024,-27.17009 -0.63873,-0.33426 8.50117,-6.50561 11.05906,-11.16186 6.70597,3.4041 22.99454,0.85303 28.14609,-0.74716 2.50252,3.40831 10.8034,9.38293 9.58791,10.18188 -25.72677,16.91039 -30.9022,28.84774 -29.45936,29.06832 3.13994,1.52155 66.54554,33.43249 67.65165,34.25705 z" id="path5290" sodipodi:nodetypes="cccccccsccsccc"/><path style="display:inline;fill-opacity:1;fill-rule:evenodd;fill:#550000;opacity:1;stroke-dasharray:none;stroke-linecap:butt;stroke-linejoin:miter;stroke-miterlimit:4;stroke-opacity:1;stroke-width:0;stroke:#000000" d="m 355.86286,347.54922 c 0.49582,5.07437 8.15207,17.16139 10.52716,28.43074 -31.28229,8.06681 -129.76418,14.04864 -142.36655,-5.26211 1.76466,-12.54996 13.73275,-45.3843 14.32574,-50.33371 -3.0755,-26.84168 -3.64605,-47.62114 0.88756,-72.44709 4.39438,-23.68414 15.86738,-37.30901 37.69935,-41.95594 0.49229,-0.51848 8.77422,-5.79222 11.24034,-10.13911 10.29898,3.24942 24.87325,0.12383 27.81748,-0.74716 7.98672,7.65831 20.02168,11.09342 20.55356,12.43578 2.58742,0.19199 9.57783,0.93138 12.62329,2.06534 21.32697,11.58453 25.15316,34.74558 21.91064,58.57411 1.82371,35.69041 -9.90952,61.65738 -15.21857,79.37915 z" id="path5292" sodipodi:nodetypes="cccccccccccc"/><path d="m 283.66521,456.38067 c -1.54841,0.73859 -1.78928,15.78672 -9.24659,11.14886 -5.5459,3.1603 -10.12915,-4.94173 -10.42429,-8.4126 -0.25114,-2.95343 3.37748,-7.20053 3.87403,-6.51846 2.14579,-0.003 16.30971,2.85987 15.79685,3.7822 z" class="shadow" id="path2138-4" sodipodi:nodetypes="ccscc" inkscape:label="#PussyshadowN"/><path d="m 274.36595,467.58332 c -3.81452,2.31718 -9.64064,-2.27902 -10.8644,-11.68664 5.95334,-21.67633 25.49385,-8.31185 20.23612,0.35499 -2.87984,4.74713 -3.52005,14.37508 -9.37172,11.33165 z" class="skin torso" id="path2140-5" sodipodi:nodetypes="ccsc" inkscape:label="#PussyN"/><path style="display:inline;fill-opacity:1;fill:#4d4d4d;stroke-dasharray:none;stroke-linecap:butt;stroke-linejoin:miter;stroke-miterlimit:4;stroke-opacity:1;stroke-width:0;stroke:#000000" d="m 268.15022,466.84042 c 1.97544,1.15064 3.44304,1.50895 6.29117,0.74829 1.48394,1.11892 3.67809,1.01117 5.52348,-0.15189 7.82224,-13.26047 17.50609,-22.59748 28.5432,-30.20656 15.92414,-7.32512 35.65563,-13.9168 53.63813,-16.61521 1.23117,-3.1619 1.68227,-3.76161 2.13393,-4.78976 -6.98714,2.20071 -22.51132,7.70378 -29.76675,10.33389 -24.29445,8.80678 -49.30882,19.5271 -67.78558,12.72247 -9.19987,1.7019 -17.1878,-0.81844 -23.32533,-3.95341 -4.55174,-2.32496 -13.25646,-9.3632 -17.58943,-22.73675 0.42664,8.69013 21.30491,37.27349 42.33719,54.64893 z" id="path2144-8" sodipodi:nodetypes="ccccccscsccc"/><path style="display:inline;fill-opacity:1;fill:#999999;stroke-dasharray:none;stroke-linecap:butt;stroke-linejoin:miter;stroke-miterlimit:4;stroke-opacity:1;stroke-width:0;stroke:#000000" d="m 275.25299,462.86252 c -6.58379,-2.05713 -8.97807,-13.24652 -9.4981,-23.86278 -1.07418,0.15185 -1.78047,0.0916 -3.12071,0.37515 0.10978,11.93368 2.68079,23.93364 12.61881,23.48763 z" id="path2148-0" sodipodi:nodetypes="cccc"/><path style="display:inline;fill-opacity:1;fill:#999999;stroke-dasharray:none;stroke-linecap:butt;stroke-linejoin:miter;stroke-miterlimit:4;stroke-opacity:1;stroke-width:0;stroke:#000000" d="m 233.05215,427.945 c 0.26572,-0.3522 0.52338,-0.70987 0.7725,-1.07137 -0.29849,-0.3272 -0.7716,-0.94227 -0.7716,-0.94227 -0.30788,0.45912 -0.65581,0.94298 -1.00603,1.40214 0.31554,0.91926 0.31461,0.36013 1.00513,0.6115 z" id="path2152-3" sodipodi:nodetypes="ccccc"/><path sodipodi:nodetypes="cccc" id="path2155-5" class="shadow" d="m 308.2039,435.78241 c 0,0 -21.36416,18.05915 -22.90518,20.89604 6.85085,-6.07995 28.65766,-22.84858 28.65766,-22.84858 z"/><path sodipodi:nodetypes="ccc" id="path2157-2" class="shadow" d="m 262.16576,457.53039 c -6.81704,-9.41592 -28.83006,-31.99347 -34.93819,-34.15183 5.05404,5.44075 26.5203,25.35081 34.93819,34.15183 z"/><path d="m 262.98857,459.03749 c 4.57815,9.39542 7.95428,8.94718 11.45233,8.01034 0.29456,-0.0789 5.02218,4.77996 9.26343,-8.71666 -1.38475,8.70911 -4.94655,11.61521 -9.3291,9.47151 -0.0226,-0.0111 -2.82256,1.04466 -4.71233,0.003 -2.95847,-1.63089 -6.486,-5.556 -6.67433,-8.7681 z" class="shadow" id="path2159-6" sodipodi:nodetypes="cscsscc"/><path sodipodi:nodetypes="cccc" id="path2122-0-8" d="m 335.37111,425.83232 c 8.90478,-2.06457 25.79776,-6.87759 27.68022,-6.82607 0.17382,-1.68154 1.0928,-2.2079 0.8411,-3.10989 -1.75576,0.62762 -16.10436,3.44602 -28.52132,9.93596 z" style="display:inline;fill-opacity:1;fill:#999999;stroke-dasharray:none;stroke-linecap:butt;stroke-linejoin:miter;stroke-miterlimit:4;stroke-opacity:1;stroke-width:0;stroke:#000000"/></svg>
