<svg viewBox="0 0 560 1000"><path style="display:inline;fill-opacity:1;fill-rule:evenodd;fill:#000000;opacity:1;stroke-dasharray:none;stroke-linecap:butt;stroke-linejoin:miter;stroke-miterlimit:4;stroke-opacity:0;stroke-width:3.632617;stroke:#000000" d="m 347.35548,403.07035 c 24.16746,7.28071 64.23077,60.1691 41.85901,106.11434 -2.96531,0.534 -25.6236,4.59015 -33.76046,6.09078 -11.87155,-2.01142 -14.99988,-2.82208 -16.7378,-15.45839 -4.46703,-33.3742 12.70101,-93.50904 8.63925,-96.74673 z" id="path3434" sodipodi:nodetypes="ccccc"/><path style="display:inline;fill-opacity:1;fill-rule:evenodd;fill:#c837ab;opacity:1;stroke-dasharray:none;stroke-linecap:butt;stroke-linejoin:miter;stroke-miterlimit:4;stroke-opacity:0;stroke-width:3.632617;stroke:#000000" d="m 346.68004,402.49502 c 49.256,28.72812 53.16537,82.46081 42.1119,105.85821 -0.0505,0.0513 -24.17702,4.19785 -32.62491,6.11623 -8.7806,-1.06727 -9.47612,-3.72967 -10.98042,-9.79016 -6.04162,-31.86298 7.07415,-97.73582 1.49343,-102.18428 z" id="path3436" sodipodi:nodetypes="ccccc"/><path style="display:inline;fill-opacity:1;fill-rule:evenodd;fill:#ffffff;opacity:1;stroke-dasharray:none;stroke-linecap:butt;stroke-linejoin:miter;stroke-miterlimit:4;stroke-opacity:1;stroke-width:0;stroke:#000000" d="m 353.84683,512.76919 c 1.45319,0.27756 -1.02808,1.10559 1.74562,1.84079 11.35558,-2.29891 31.13581,-6.11087 33.80734,-6.9982 -0.44639,-0.55205 0.0181,0.0132 0.0181,0.0132 -18.62648,2.66759 -18.45108,2.28555 -35.11916,5.41126 z" id="path3438" sodipodi:nodetypes="cccccc"/></svg>
