<svg viewBox="0 0 560 1000"><path sodipodi:nodetypes="ccccc" d="m 280.21507,158.05707 c 6.25991,-1.57826 10.97517,3.24388 13.24314,5.64768 -0.62988,1.73131 1.1191,11.87454 -9.35182,12.21087 -6.72091,-1.67784 -4.32841,-10.80221 -4.53363,-11.02631 -1.04388,-2.61967 -5.44275,-8.33534 0.64231,-6.83224 z" id="path2558-9-2-4" class="areola"/><path sodipodi:nodetypes="csssccc" id="path2548-7" d="m 288.05804,164.78495 c 0.0269,0.0416 1.37215,-0.24543 2.50366,-0.13598 1.12277,0.10861 2.03196,0.61364 2.03396,0.67905 0.0166,0.54459 -0.3653,2.88338 -1.79549,3.69336 -1.90715,1.08009 -5.04603,0.58463 -5.47896,0.53695 -0.0273,-0.0846 -3.50937,0.25548 -3.91542,-1.55741 2.25062,-3.99692 6.09786,-3.1053 6.65225,-3.21597 z" style="display:inline;fill-opacity:1;fill-rule:nonzero;fill:#ff93b5;stroke-dasharray:none;stroke-linecap:butt;stroke-linejoin:miter;stroke-miterlimit:4;stroke-opacity:1;stroke-width:0;stroke:#000000"/><path sodipodi:nodetypes="ccsc" id="path2548-7-0" d="m 287.72891,162.42255 c -4.30333,1.8727 -8.39012,1.37324 -8.90862,0.2354 -0.003,-0.42168 0.0301,-0.53598 1.78861,-0.86827 2.15768,-0.40773 5.23464,-0.26623 7.12001,0.63287 z" style="display:inline;fill-opacity:1;fill-rule:nonzero;fill:#ffffff;stroke-dasharray:none;stroke-linecap:butt;stroke-linejoin:miter;stroke-miterlimit:4;stroke-opacity:1;stroke-width:0;stroke:#000000"/><path sodipodi:nodetypes="ccsssssc" id="path2548-7-0-6" d="m 290.9387,169.61142 c -2.05333,2.59145 -5.42137,2.31074 -8.15862,2.1104 -1.18134,-0.63229 -2.80387,-2.34308 -2.85053,-3.19189 -0.009,-0.16062 -0.0801,-2.90293 0.14727,-2.9521 0.12972,-0.0281 1.96735,-0.0217 1.95224,0.57911 -0.0109,0.43478 -0.96623,2.00215 -0.87827,1.99021 0.12841,-0.0174 1.14938,1.17609 1.31086,1.20999 2.51295,0.52746 6.04533,0.18877 8.47705,0.25428 z" style="display:inline;fill-opacity:1;fill-rule:nonzero;fill:#ffffff;stroke-dasharray:none;stroke-linecap:butt;stroke-linejoin:miter;stroke-miterlimit:4;stroke-opacity:1;stroke-width:0;stroke:#000000"/><path sodipodi:nodetypes="csscsssc" id="path2548-7-0-0" d="m 292.48991,164.50868 c -1.88125,0.81868 -5.88389,-0.26368 -7.95496,0.23099 -1.07582,0.25696 -1.65752,1.27631 -2.50617,1.24354 -1.47091,-0.0568 -2.5734,-1.68678 -2.33657,-2.25559 -0.003,-0.42168 2.74804,-0.0719 4.50655,-0.40423 1.26371,-0.2388 3.88531,-0.80682 5.6885,-0.46993 0.6407,0.1197 2.09168,0.37646 2.48648,0.71559 0.39122,0.33607 -0.27262,0.75422 0.11617,0.93963 z" style="display:inline;fill-opacity:1;fill-rule:nonzero;fill:#a47683;stroke-dasharray:none;stroke-linecap:butt;stroke-linejoin:miter;stroke-miterlimit:4;stroke-opacity:1;stroke-width:0;stroke:#000000"/><path style="fill:#000000;stroke-width:0.18461411" d="m 283.06504,176.00966 c -0.39549,-0.15162 -0.8312,-0.36874 -0.96825,-0.48248 -0.13705,-0.11375 -0.40957,-0.16486 -0.60558,-0.11361 -0.25393,0.0663 -0.32739,0.0176 -0.25552,-0.1697 0.0555,-0.14459 -0.0201,-0.40518 -0.16797,-0.5791 -0.14788,-0.17391 -0.46184,-0.6485 -0.69769,-1.05465 l -0.42883,-0.73846 0.81377,0.74478 c 1.36663,1.25079 1.52843,1.35274 2.58286,1.62738 1.59723,0.41603 3.78875,0.13239 5.41623,-0.70098 0.70272,-0.35985 1.30893,-0.62301 1.34712,-0.58482 0.15049,0.15049 -1.86034,1.46662 -2.76895,1.81234 -1.27561,0.48536 -3.32553,0.60031 -4.26719,0.2393 z m 0.47833,-3.97218 c -1.546,-0.35139 -2.2314,-0.76206 -3.2361,-1.93897 l -1.00998,-1.18312 0.0904,-1.71415 c 0.0498,-0.94278 0.0955,-1.9341 0.10164,-2.20294 0.011,-0.48042 -1.03492,-2.70432 -1.75034,-3.7218 -0.40521,-0.57629 -0.29358,-0.88552 0.19238,-0.53298 1.35234,0.98106 2.81302,1.07671 5.09988,0.33399 1.09085,-0.35429 1.52502,-0.42324 1.70813,-0.27126 0.13504,0.11206 0.72301,0.30754 1.3066,0.43439 0.5836,0.12685 2.18262,0.57341 3.55338,0.99237 1.37075,0.41897 2.71057,0.76176 2.97738,0.76178 0.72809,3e-5 0.96159,0.40561 0.82276,1.42909 -0.48721,3.59162 -1.68067,5.60838 -4.00785,6.77263 -0.70151,0.35095 -1.62714,0.68062 -2.05695,0.73261 -1.62914,0.19702 -3.20333,0.24202 -3.79141,0.10836 z m 4.67658,-1.01279 c 0.56037,-0.15851 1.14566,-0.49083 1.47692,-0.83857 l 0.54871,-0.576 -0.73845,0.15386 c -0.40615,0.0846 -1.85999,0.15216 -3.23075,0.15008 -2.16475,-0.003 -2.64484,-0.0611 -3.65307,-0.44048 -0.63843,-0.24019 -1.24189,-0.58827 -1.34103,-0.77351 -0.22969,-0.42919 0.0491,-1.73133 0.47033,-2.1968 0.29564,-0.32667 0.27363,-0.34945 -0.49104,-0.5083 -1.20327,-0.24996 -1.26207,-0.18631 -1.26207,1.36594 0,1.32008 0.0289,1.41109 0.7536,2.37092 0.82415,1.09157 1.25248,1.30416 3.15526,1.56599 1.39245,0.19161 3.03692,0.0874 4.31159,-0.27313 z m 1.11109,-1.77021 c 0.60043,-0.111 1.3088,-0.31407 1.57413,-0.45128 0.50338,-0.26031 1.11631,-1.55213 1.16636,-2.45829 0.0149,-0.26872 0.0961,-0.59796 0.18054,-0.73164 0.17988,-0.28473 0.20755,-0.26086 -0.63499,-0.5478 -1.45767,-0.49644 -3.10664,-0.18526 -4.28866,0.80935 -0.69338,0.58343 -0.93003,0.26844 -0.30118,-0.40093 0.464,-0.49389 0.46301,-0.49444 -0.81661,-0.45001 -1.63137,0.0566 -2.44909,0.42984 -3.63837,1.66043 -0.60272,0.62365 -1.09585,1.24038 -1.09585,1.3705 0,0.39946 0.6653,0.86637 1.60078,1.12346 1.10264,0.30303 4.78417,0.3479 6.25385,0.0762 z m -6.74694,-3.7578 c 0,-0.1253 0.43615,-0.46948 0.96922,-0.76485 l 0.96923,-0.53703 h 3.52544 c 2.58017,0 3.60127,0.0629 3.8082,0.23465 0.23575,0.19567 0.29821,0.17553 0.37579,-0.12113 0.11918,-0.45576 -0.61651,-0.84504 -2.29662,-1.21516 -1.14377,-0.25198 -1.33807,-0.24539 -2.6769,0.0907 -3.0049,0.75433 -5.56779,1.0461 -6.62494,0.75422 -0.38806,-0.10715 -0.72955,-0.17082 -0.75889,-0.1415 -0.0293,0.0293 0.043,0.30859 0.1608,0.62059 0.33345,0.8834 2.54867,1.82168 2.54867,1.0795 z m 2.30767,-2.59626 c 1.11692,-0.14948 2.05153,-0.27246 2.07691,-0.2733 0.0254,-7.6e-4 0.0461,-0.0809 0.0461,-0.17779 0,-0.0969 -0.31153,-0.22834 -0.6923,-0.29202 -0.38076,-0.0636 -1.1356,-0.23799 -1.6774,-0.38736 -0.92439,-0.25486 -1.05951,-0.24682 -2.19285,0.13031 -0.86133,0.28664 -1.45539,0.37259 -2.07112,0.29967 -0.47486,-0.0562 -0.9655,-0.0391 -1.09031,0.038 -0.32581,0.20136 -0.0692,0.72151 0.40118,0.81324 0.8949,0.17453 3.28771,0.10516 5.19974,-0.15074 z m -5.72304,-4.64188 c -0.20306,-0.0429 -0.55615,-0.11796 -0.7846,-0.16671 -0.22847,-0.0487 -0.41539,-0.19544 -0.41539,-0.32596 0,-0.18083 0.59531,-0.24135 2.50131,-0.25429 1.80412,-0.0123 2.48206,0.042 2.43226,0.19468 -0.16156,0.49536 -2.42173,0.82969 -3.73358,0.55228 z" id="path2705" sodipodi:nodetypes="ccccccccsscccccccccccccccccccccccccccsccccccccccccsscccccssccscccccccccccccccccccccccc"/></svg>
