<svg viewBox="0 0 560 1000"><path inkscape:label="#PussyshadowN" sodipodi:nodetypes="ccscc" id="path4697" class="shadow" d="m 283.66521,456.38067 c -1.54841,0.73859 -1.78928,15.78672 -9.24659,11.14886 -5.5459,3.1603 -10.12915,-4.94173 -10.42429,-8.4126 -0.25114,-2.95343 3.37748,-7.20053 3.87403,-6.51846 2.14579,-0.003 16.30971,2.85987 15.79685,3.7822 z"/><path inkscape:label="#PussyN" sodipodi:nodetypes="ccsc" id="path4699" class="skin torso" d="m 274.36595,467.58332 c -3.81452,2.31718 -9.64064,-2.27902 -10.8644,-11.68664 5.95334,-21.67633 25.49385,-8.31185 20.23612,0.35499 -2.87984,4.74713 -3.52005,14.37508 -9.37172,11.33165 z"/><path sodipodi:nodetypes="ccccccscsc" id="path4707" d="m 216.33481,465.20903 c 4.88391,-4.22638 38.52677,-4.01457 51.81541,1.63139 1.97544,1.15064 3.44304,1.50895 6.29117,0.74829 1.48394,1.11892 3.67809,1.01117 5.52348,-0.15189 69.74911,-5.15378 91.25981,5.37844 91.80614,4.82354 2.65835,-10.3326 -3.86195,-34.90398 -6.71279,-39.21891 -2.68621,-6.082 -14.36208,-21.59529 -14.99095,-23.56756 -0.0813,-0.25494 -1.22374,-2.21355 -1.22374,-2.21355 -45.10201,11.9464 -93.79805,12.4646 -120.26832,0.58222 -0.12493,-0.0561 -10.81972,13.82902 -12.2404,57.36647 z" style="display:inline;fill-opacity:1;fill:#1a1a1a;opacity:1;stroke-dasharray:none;stroke-linecap:butt;stroke-linejoin:miter;stroke-miterlimit:4;stroke-opacity:1;stroke-width:0;stroke:#000000"/><path sodipodi:nodetypes="ccccc" id="path4709" d="m 226.43714,411.39001 c 35.65478,14.81043 108.78953,7.12999 124.04699,-1.19349 -0.98086,-2.37283 -1.00632,-2.28871 -1.45689,-3.1686 -58.31295,15.78964 -104.54469,8.55584 -120.51489,0.71465 -0.32556,0.70561 -0.85233,0.93932 -2.07521,3.64744 z" style="display:inline;fill-opacity:1;fill:#8aa7ff;stroke-dasharray:none;stroke-linecap:butt;stroke-linejoin:miter;stroke-miterlimit:4;stroke-opacity:1;stroke-width:0;stroke:#000000"/><path sodipodi:nodetypes="cscsccc" id="path4711" d="m 275.25299,462.86252 c -12.30071,-3.84341 -9.97725,-39.56452 -8.12905,-43.86741 0.10337,-0.24065 6.70466,-0.007 6.80117,-0.0386 -0.14286,-0.008 -0.28501,-0.0153 -0.42641,-0.0219 -4.0967,-0.18979 -7.561,0.22503 -9.12434,-0.44654 -1.55247,9.38892 -6.14341,45.13839 10.87863,44.37445 z" style="display:inline;fill-opacity:1;fill:#8aa7ff;stroke-dasharray:none;stroke-linecap:butt;stroke-linejoin:miter;stroke-miterlimit:4;stroke-opacity:1;stroke-width:0;stroke:#000000"/><path d="m 329.90785,425.6821 c -15.4791,1.19068 -42.03653,26.26041 -44.60913,30.99635 10.29989,-9.14088 29.75951,-26.28541 44.60913,-30.99635 z" class="shadow" id="path4717" sodipodi:nodetypes="ccc"/><path d="m 262.16576,457.53039 c -6.81704,-9.41592 -28.83006,-31.99347 -34.93819,-34.15183 5.05404,5.44075 26.5203,25.35081 34.93819,34.15183 z" class="shadow" id="path4719" sodipodi:nodetypes="ccc"/><path sodipodi:nodetypes="cscsscc" id="path4721" class="shadow" d="m 262.98857,459.03749 c 4.57815,9.39542 7.95428,8.94718 11.45233,8.01034 0.29456,-0.0789 5.02218,4.77996 9.26343,-8.71666 -1.38475,8.70911 -4.94655,11.61521 -9.3291,9.47151 -0.0226,-0.0111 -2.82256,1.04466 -4.71233,0.003 -2.95847,-1.63089 -6.486,-5.556 -6.67433,-8.7681 z"/></svg>
