<svg viewBox="0 0 560 1000"><path d="m 262.58376,114.0127 c 0.21917,0.48832 2.31612,-1.93226 2.3643,-2.07079 4.38729,-4.75506 7.35197,-5.82228 14.85013,-7.3946 0.3433,-0.0174 6.24163,2.75103 6.59145,2.74513 0.23633,10.87737 10.65884,25.40386 24.35438,36.03372 0.20017,0.15536 0.27566,-0.16525 -0.0946,-0.63887 -12.5916,-16.10666 -14.21229,-25.03317 -12.64832,-23.99524 13.20185,14.1305 15.33012,26.00498 32.60237,36.07754 0.14864,-0.0141 -9.04274,-21.81414 -5.51856,-21.65624 2.11658,2.52119 5.15116,-0.95931 6.99189,1.46055 32.13954,-56.274313 -78.35232,-60.270711 -69.49304,-20.56119 z" class="hair" id="path8623" sodipodi:nodetypes="ccccsscccccc"/><path style="display:inline;fill-opacity:1;fill-rule:evenodd;fill:#800000;opacity:1;stroke-dasharray:none;stroke-linecap:butt;stroke-linejoin:miter;stroke-miterlimit:4;stroke-opacity:0;stroke-width:2.63688636;stroke:#000000" d="m 287.64153,105.53963 c -5.53712,-0.11481 -15.53443,0.5474 -25.38128,-0.008 0.17198,-4.23541 -0.73175,-30.601955 -3.27811,-36.785273 24.9489,-5.849378 48.75898,-6.214525 80.71224,4.508327 -10.47894,20.362496 -0.66552,27.246156 -2.41558,37.487486 -15.24022,-2.56556 -28.71159,-5.83999 -49.63727,-5.20209 z" id="path8625" sodipodi:nodetypes="ccccccc"/><path style="display:inline;fill-opacity:1;fill-rule:evenodd;fill:#ffffff;opacity:1;stroke-dasharray:none;stroke-linecap:butt;stroke-linejoin:miter;stroke-miterlimit:4;stroke-opacity:0;stroke-width:2.60880613;stroke:#000000" d="m 287.63633,104.61732 c -5.53878,-0.11235 -15.54027,0.5463 -25.39009,0.002 -5.21603,-11.106437 -2.60405,-31.372462 -2.52909,-33.071771 27.25388,-0.609379 32.51225,-5.345803 78.61723,4.004265 -0.0312,1.882335 -0.41703,21.394796 -1.04364,34.155396 -15.24482,-2.51046 -28.72241,-5.71455 -49.65441,-5.09036 z" id="path8631" sodipodi:nodetypes="ccccccc"/><ellipse ry="12.49299" rx="12.36194" cy="89.181564" cx="289.59634" id="ellipse8621" style="display:inline;fill-opacity:1;fill-rule:evenodd;fill:#800000;opacity:1;stroke-dasharray:none;stroke-dashoffset:0;stroke-linecap:butt;stroke-linejoin:miter;stroke-miterlimit:4;stroke-opacity:1;stroke-width:0;stroke:#212f3d;vector-effect:none"/><path sodipodi:nodetypes="ccccccccccccc" id="path4602-5-8-8-1-6" d="m 292.59441,78.632395 c -0.11803,1.871782 -0.62251,7.528261 -0.50981,7.897304 0.36236,0.199091 7.41444,-0.06824 7.94159,0.197344 0.0166,0.952908 0.1104,4.275168 0.119,5.332812 -2.18073,-0.03935 -7.35964,-0.29476 -8.20795,-0.255902 -0.0701,0.417637 -0.20501,6.888723 -0.33042,8.263397 -1.06943,0.0527 -4.98494,0.19716 -5.94605,0.19813 0.013,-0.621844 0.41417,-7.454588 0.51618,-7.82554 -0.49388,-0.190823 -7.10853,0.03007 -7.99546,-0.179919 0.009,-0.850705 0.005,-4.654977 0.1805,-5.495224 1.6397,-0.03035 7.89879,0.02699 8.33098,0.09426 0.31214,-0.246532 -0.0288,-6.72927 0.418,-8.620016 0.85477,-0.0052 3.70781,0.01948 5.48344,0.393354 z" style="display:inline;fill-opacity:1;fill:#ffffff;opacity:1;stroke-dasharray:none;stroke-linecap:butt;stroke-linejoin:miter;stroke-miterlimit:4;stroke-opacity:1;stroke-width:0;stroke:#000000"/></svg>
