<svg viewBox="0 0 560 1000"><path sodipodi:nodetypes="cscccscsccccccccccscsssccccsccccc" id="path7305" d="m 310.72651,123.71414 c -2.38526,-1.0648 -4.0352,-1.36165 -6.59715,-1.18697 -5.60387,0.38211 -8.57155,0.65974 -9.58481,0.89667 -1.19092,-0.1847 -2.95845,2.0515 -3.17461,1.57887 0.23021,-1.48598 0.34113,-2.23791 0.98346,-3.82389 0.039,0.1584 0.0727,0.8184 0.19165,0.73396 0.12501,-0.0887 0.18438,-1.21173 0.65919,-2.24754 0.17398,0.26589 0.1441,1.12641 0.24608,1.01455 0.10474,-0.11488 0.10119,-1.13819 0.8362,-2.32794 0.15542,0.85942 -0.17284,2.05278 -0.003,1.70222 0.55976,-1.16517 0.6976,-1.58677 1.57215,-2.02372 0.75976,-0.68418 7.6044,-1.05634 10.88624,-0.11571 0.78265,0.22433 1.93526,0.52759 2.56138,0.67393 1.28774,0.30101 2.8869,0.95904 2.97621,1.22466 0.0328,0.0972 5.35051,4.29118 7.16951,9.42437 -0.50223,0.24417 -7.83579,-5.12742 -8.72279,-5.52336 z m -39.5748,-5.34601 c 0.95011,0.14812 1.53809,0.64262 1.82228,0.89621 0.41926,0.37413 0.11727,-0.49766 0.11504,-1.02086 0.33375,-0.17982 0.94567,1.16384 1.23795,1.78254 0.21862,0.46276 0.016,-1.66994 0.22915,-1.13802 0.19805,0.49416 0.56923,2.14901 0.74455,2.646 0.16173,0.45848 -0.0276,-1.11325 0.16257,-0.74824 0.93885,1.802 0.72933,4.18994 0.81308,4.55598 -0.1404,0.30807 -1.00238,-1.56596 -2.77287,-1.28205 -2.59433,0.39135 -5.52625,0.80322 -7.8621,2.60326 -0.27606,0.29317 -0.6283,0.53303 -0.78276,0.53303 -0.23996,0 -0.2356,-0.0932 0.03,-0.6404 0.35168,-0.72459 0.29151,-0.76101 -0.5659,-0.34242 -5.33267,1.65128 -5.1805,5.06443 -4.83006,-0.93812 3.6611,-3.80621 6.98043,-5.97625 11.65911,-6.90691 z" class="eyebrow_hair"/></svg>
