<svg viewBox="0 0 560 1000"><g data-transform="boob" transform="matrix(1.1247504,0,0,1.1247504,-26.347241,-34.609528)" id="g2989"><path sodipodi:nodetypes="cscsscccccsssc" d="m 271.51118,261.14089 c 0.0661,-0.75567 -15.55212,-23.85233 -20.78384,-21.10049 -1.52959,0.80455 -3.42058,1.9614 -5.76856,3.60973 -9.78469,6.69753 -21.31453,10.82141 -26.74443,14.7899 -0.54445,0.39791 -0.66828,2.70307 -0.76291,3.35152 -0.41632,2.85279 -0.97314,6.095 -0.95493,9.34706 4.12531,3.92175 29.88969,7.82556 53.84624,1.33708 5.61362,1.12077 28.92278,7.42891 56.87753,1.46184 2.79031,-9.61882 0.039,-21.5277 -11.42109,-32.12468 -1.24033,-1.44425 -2.4413,-2.70187 -3.54079,-3.8753 -0.36194,-0.36533 -0.83711,-0.69814 -1.41789,-0.98568 -0.3692,-0.18279 -0.78107,-0.34728 -1.23367,-0.49021 -4.17723,-1.31914 -18.96078,7.30779 -27.63663,14.95545 -5.29365,4.66629 -9.38919,8.82318 -10.45903,9.72378 z" id="path2967" style="fill-opacity:1;fill:#010101"/><path sodipodi:nodetypes="ccsccccsccscssc" d="m 250.80319,239.92519 c -2.11217,1.58135 -4.28508,3.11053 -5.92735,4.27017 -5.84025,4.87392 -21.34013,11.09517 -25.80979,13.9564 -0.39537,0.25308 -0.72231,2.6909 -0.84921,3.07294 -0.43862,3.18303 -0.68757,6.09533 -0.66674,8.73597 1.18707,4.30561 24.83842,7.65317 52.81751,2.42586 32.17416,6.13719 55.43833,1.15373 55.43833,1.15373 0,0 0.0823,-0.22402 0.11033,-0.33985 2.28956,-9.46742 0.34134,-20.95443 -10.44727,-31.14632 -1.21885,-1.39111 -4.20568,-5.32709 -4.35427,-5.6611 -0.6987,-2.75664 -9.8826,-9.0648 -16.06697,-9.45676 -9.71868,-0.61597 -21.08175,-0.60121 -21.2227,-0.21343 -0.22117,-0.36982 -16.14896,7.01755 -22.98077,13.1738 -0.0124,0.0112 -0.0411,0.0188 -0.0411,0.0289 z" id="path2969" style="fill-opacity:1;fill:#800000"/><path sodipodi:nodetypes="csccccc" d="m 272.19169,258.88792 c 0.80943,-1.48623 1.35838,-4.75934 1.75336,-6.96753 0.0755,-0.42195 0.14376,2.11164 -0.34789,3.72203 2.50484,-3.57809 5.36151,-7.40366 7.64284,-10.60934 0.11073,-0.1769 -0.23631,1.28365 5.6e-4,1.09001 -3.14159,4.2326 -6.6203,9.02137 -9.04922,12.76484 z" class="shadow" id="path2971"/><path sodipodi:nodetypes="ccc" id="path2973" class="shadow" d="m 270.33492,269.98618 c -0.16754,2.01348 0.47911,3.25262 0.89408,5.36257 -0.66799,-1.59942 -1.31544,-3.72955 -0.89408,-5.36257 z"/></g></svg>
