<svg viewBox="0 0 560 1000"><path d="m 276.72125,132.68746 c -0.17524,2.25655 -0.88804,3.44018 -1.81078,4.03774 -1.54533,1.00075 -3.67948,0.35775 -4.86365,0.35774 -1.704,-0.29307 -3.13435,-0.86737 -3.8262,-1.92851 -1.40399,-2.15341 -1.39553,-4.7862 -1.06684,-6.81072 0,-0.5981 6.43935,0.22954 8.33054,0.22953 1.89125,-2e-5 3.23693,1.4536 3.23693,4.11422 z" id="path6897-7-8-1" sodipodi:nodetypes="cscsccc" class="sclera"/><path style="display:inline;fill:#000000;stroke-width:0.1622853" d="m 266.32747,135.14267 c 0.35331,0.32664 0.95888,1.0174 1.83455,1.33786 l 0.66604,0.24373 -0.32735,-0.43163 c -0.18003,-0.2374 -0.42779,-0.77468 -0.55056,-1.19396 -0.3402,-1.96815 -0.0475,0.33603 -0.50211,-4.82341 -0.076,-0.84672 -0.0524,-1.36781 0.0733,-1.61145 0.0606,-0.28164 -0.40956,-0.1726 -0.49867,-0.1726 h -1.74697 l -0.10618,0.88106 c -0.0583,0.48459 -0.0218,1.4578 0.0811,2.16271 -0.004,1.31161 0.51808,2.46017 1.07685,3.60769 z m -1.46407,-2.78847 c -0.0581,-0.24054 -0.27179,-0.66889 -0.47463,-0.9519 -0.20283,-0.28301 -0.66867,-1.11934 -1.03518,-1.85851 -0.56435,-1.13814 -0.79081,-1.42416 -1.47892,-1.86782 -1.36026,-0.87704 -1.12144,-0.92168 4.86032,-0.90847 6.06813,0.0139 8.69925,1.20987 10.56126,1.94556 0.0627,0.34147 0.77776,2.28066 1.70745,2.98367 0.0543,0.70956 -1.72077,-0.26118 -2.12761,-0.76768 -0.27852,-0.0405 -0.0484,0.0686 -0.14505,0.20551 0.21604,0.81019 0.18833,2.24916 -0.062,3.22399 -0.61054,2.37644 -1.58226,3.06439 -4.30495,3.04777 -0.88762,-0.006 -0.9576,0.0409 -1.37773,-0.0308 -1.03327,-0.1 -1.96226,0.21124 -2.29344,0.54481 0.009,-0.37948 0.0879,-0.55743 0.29071,-0.82629 -0.10607,-7.9e-4 -0.37897,-0.14 -0.65437,-0.26837 -0.0748,-0.0349 -1.72372,0.4017 -1.97372,0.67037 -0.26246,-0.38519 1.00855,-1.06265 0.91385,-1.10398 -0.26324,-0.11489 -0.15857,-0.0547 -0.27697,-0.0547 -0.43609,-0.0554 -2.13104,0.8035 -2.35204,0.94052 -0.1697,-0.3489 1.30921,-1.30839 1.65445,-1.7678 -0.63082,-1.05617 -1.18678,-2.23162 -1.43143,-3.15588 z" id="path6895" sodipodi:nodetypes="cccccccsccccccccccccccccccscscccc"/><path d="m 273.99736,137.0876 c 1.17765,-0.3405 1.99952,-1.993 2.14752,-4.31784 0.12427,-1.95316 0.004,-2.40698 -0.80988,-3.04784 -0.80226,-0.63192 -2.85428,-1.0355 -5.23866,-1.33033 -1.70016,-0.21021 -1.85828,-0.24917 -2.13985,0.1322 -0.22047,0.29863 -0.21639,0.70561 -0.19411,1.61477 0.11079,2.51181 -0.0641,2.09945 0.45123,5.01619 0.27594,0.90394 0.81443,1.64685 1.36992,1.81348 0.6865,0.20594 3.73183,0.31658 4.41388,0.11936 z" id="path6893" class="eye" sodipodi:nodetypes="cccccccccc"/><path d="m 309.88623,130.78617 c -0.17524,2.24868 -0.004,5.89444 -3.09241,6.62204 -2.32534,0.5704 -9.73008,0.95663 -10.94375,-0.11197 -2.15529,-0.73662 -4.35654,-3.62447 -4.02785,-5.64193 0,-0.59602 11.65426,-2.36963 13.54545,-2.36964 1.89125,-3e-5 4.51856,-1.14984 4.51856,1.5015 z" id="path6897-7-8-1-0" sodipodi:nodetypes="cccccc" class="sclera"/><path style="display:inline;fill:#000000;stroke-width:0.1622853" d="m 297.54958,137.73868 c -0.7971,-0.34694 -1.44924,-1.37071 -1.45216,-2.39653 -0.0975,-1.09796 -0.0777,-2.09384 -0.0797,-3.02545 v -1.75843 c -1.77539,0.38109 -0.89546,-0.10268 -2.50433,0.6527 -0.57154,0.27108 -0.74554,0.32743 -1.32679,0.48761 0.43307,5.22618 3.17437,4.93535 5.36297,6.0401 z m 11.64376,-7.48858 c -0.16309,-0.21442 -3.15772,-0.64881 -3.15746,-0.47538 5e-5,0.0283 0.14289,0.44115 0.31743,0.91748 0.65855,1.79716 0.5299,5.23343 -0.59844,6.45997 2.94689,-0.39974 4.52134,-4.50457 3.43847,-6.90207 z m -1.49163,7.02527 c 0.4248,0.73091 1.34143,1.08141 1.46191,2.19273 -0.38977,-0.25519 -2.06053,-1.5297 -2.57744,-1.46377 0.31882,0.30094 0.69381,1.48661 0.54309,1.48638 -0.89019,-0.57546 -0.65665,-0.68024 -1.76696,-1.18633 -0.18579,-0.16975 -1.62954,0.0449 -1.9025,-4.9e-4 -0.23093,-0.0385 0.23369,0.51068 0.23135,1.23406 -0.24951,0.007 -1.36094,-1.15382 -1.7094,-1.14107 -1.19399,0.0437 -2.0629,-0.0876 -3.72004,-0.26679 -3.19094,-0.34508 -6.43686,-1.68728 -6.64277,-6.27547 -0.6887,0.14887 -1.16698,0.22202 -1.50085,0.13146 v -4e-5 c -0.42507,-0.11526 -0.42031,-0.38035 0.007,-0.38035 0.45562,0 1.90674,-1.57626 2.28904,-2.48643 0.17014,-0.40505 0.32102,-0.75697 0.33526,-0.78205 0.21818,-0.38381 9.3924,-0.97377 16.48364,-1.06001 l 4.22272,-0.0513 -0.0297,0.45326 c -0.0429,0.65162 -1.91314,4.60543 -3.08123,6.51388 -0.8562,1.14621 -1.4307,2.59589 -2.64312,3.08233 z" id="path6891" sodipodi:nodetypes="cccccccccccccccccsccscccsccccccc"/><path d="m 302.57137,137.93233 c 1.98145,-0.22417 2.68481,-0.5761 3.25971,-1.63093 0.66446,-1.2192 0.63134,-3.8312 -0.0763,-6.01832 l -0.21609,-0.66779 -3.09099,0.0989 c -1.70005,0.0544 -3.65471,0.14135 -4.34375,0.19315 -0.74931,0.0563 -1.36984,0.14387 -1.5646,0.43589 -0.17339,0.25996 -0.0684,0.77081 -0.062,1.5798 -0.0261,1.88528 0.003,2.02379 0.19534,4.55601 0.91866,1.5007 2.33925,1.87001 3.59942,1.71738 0.27965,-0.0338 1.31439,-0.15277 2.2994,-0.26419 z" id="path6889" sodipodi:nodetypes="ccccccsccccc" class="eye"/><path style="display:inline;fill:#000000;stroke-width:0.1622853" d="m 275.1324,126.99427 c -0.39437,-0.15583 -1.27278,-0.42079 -1.95201,-0.5888 -1.43596,-0.35519 -1.64535,-0.65423 -0.34729,-0.49598 1.15591,0.1409 3.36536,1.07975 3.08541,1.31106 -0.038,0.0314 -0.39172,-0.0705 -0.78611,-0.22628 z" id="path6887"/><path style="display:inline;fill:#000000;stroke-width:0.1622853" d="m 292.82062,127.12771 c 3.1e-4,-0.1136 0.14196,-0.44705 0.31471,-0.74096 0.17278,-0.29391 0.27517,-0.63974 0.22752,-0.76851 -0.0581,-0.15738 0.0867,-0.2895 0.44217,-0.403 0.61012,-0.19483 6.7987,-0.36937 6.9028,-0.19469 0.0859,0.14436 -2.33939,0.33044 -4.30703,0.33044 -2.19008,0 -2.32443,0.0501 -2.92356,1.08899 -0.52755,0.91482 -0.65766,1.05111 -0.65661,0.68773 z" id="path6885"/><path style="display:inline;fill:#000000;stroke-width:0.1622853" d="m 263.5578,125.71827 c 0.0577,-0.0968 0.58818,-0.22131 1.17884,-0.27661 0.59065,-0.0553 1.45037,-0.14086 1.91048,-0.19015 0.48647,-0.0521 0.83659,-0.0234 0.83659,0.0685 0,0.157 -0.58834,0.25276 -2.852,0.4642 -0.81797,0.0764 -1.14671,0.0562 -1.07391,-0.066 z" id="path6883"/><path style="display:inline;fill:#000000;stroke-width:0.1622853" d="m 306.20525,125.1985 c -0.57907,-0.0534 -0.92209,-0.14411 -0.77795,-0.20582 0.31582,-0.13523 6.31432,0.0957 6.4619,0.2487 0.12383,0.12843 -4.17593,0.0961 -5.68395,-0.0429 z" id="path6847"/><path style="fill-opacity:1;fill-rule:nonzero;fill:#000000;opacity:1;stroke-dasharray:none;stroke-dashoffset:0;stroke-linecap:round;stroke-linejoin:bevel;stroke-miterlimit:4;stroke-opacity:1;stroke-width:0;stroke:#000000;vector-effect:none" d="m 276.31944,131.08996 c 0,1.59547 0.20611,4.32837 -4.10196,4.46551 -4.12321,-0.18795 -3.6997,-7.25523 0.32686,-7.18219 1.20962,0 3.7751,1.12122 3.7751,2.71668 z" id="path6897" sodipodi:nodetypes="cccc"/><path style="display:inline;fill-opacity:1;fill-rule:nonzero;fill:#000000;opacity:1;stroke-dasharray:none;stroke-dashoffset:0;stroke-linecap:round;stroke-linejoin:bevel;stroke-miterlimit:4;stroke-opacity:1;stroke-width:0;stroke:#000000;vector-effect:none" d="m 300.42082,136.74233 c -3.13593,-0.39423 -2.68332,-4.20285 -2.68332,-5.90213 2.02864,-2.19911 6.48372,-2.61261 7.13873,1.22536 0.71689,2.41801 -1.10304,5.45498 -4.45541,4.67677 z" id="path6897-4" sodipodi:nodetypes="cccc"/><path style="display:inline;fill-opacity:1;fill-rule:nonzero;fill:#ffffff;opacity:1;stroke-dasharray:none;stroke-dashoffset:0;stroke-linecap:round;stroke-linejoin:bevel;stroke-miterlimit:4;stroke-opacity:1;stroke-width:0;stroke:#000000;vector-effect:none" d="m 273.62865,134.96547 c 0.21737,-0.50754 1.45241,-2.17187 1.65945,-2.08319 0.20707,0.0887 0.19867,0.57199 -0.0187,1.07953 -0.33031,1.18034 -1.63908,1.00338 -1.64075,1.00366 z" id="path6897-7" sodipodi:nodetypes="cccc"/><path style="display:inline;fill-opacity:1;fill-rule:nonzero;fill:#ffffff;opacity:1;stroke-dasharray:none;stroke-dashoffset:0;stroke-linecap:round;stroke-linejoin:bevel;stroke-miterlimit:4;stroke-opacity:1;stroke-width:0;stroke:#000000;vector-effect:none" d="m 269.51092,130.65979 c -0.19081,0.36936 -0.96822,0.95828 -1.12519,0.87718 -0.15696,-0.0811 -0.12952,-0.44625 0.0613,-0.81561 0.19081,-0.36934 1.32711,-1.65297 1.48408,-1.57189 0.15697,0.0811 -0.22936,1.14096 -0.42018,1.51032 z" id="path6897-7-8" sodipodi:nodetypes="ccccc"/><path style="display:inline;fill-opacity:1;fill-rule:nonzero;fill:#ffffff;opacity:1;stroke-dasharray:none;stroke-dashoffset:0;stroke-linecap:round;stroke-linejoin:bevel;stroke-miterlimit:4;stroke-opacity:1;stroke-width:0;stroke:#000000;vector-effect:none" d="m 298.56726,131.86975 c -0.17106,0.26392 -1.06959,1.4147 -1.28756,1.27341 -0.21787,-0.14121 -0.4226,-1.49832 -0.25155,-1.76222 0.17104,-0.2639 2.07248,-1.29761 2.29037,-1.15638 0.21787,0.1412 -0.58022,1.3813 -0.75126,1.64519 z" id="path6897-7-7" sodipodi:nodetypes="ccccc"/><path style="display:inline;fill-opacity:1;fill-rule:nonzero;fill:#ffffff;opacity:1;stroke-dasharray:none;stroke-dashoffset:0;stroke-linecap:round;stroke-linejoin:bevel;stroke-miterlimit:4;stroke-opacity:1;stroke-width:0;stroke:#000000;vector-effect:none" d="m 305.14903,133.90272 c 0,0.34173 -0.54956,1.61282 -0.83581,1.6128 -0.28624,0 -0.51828,-0.27701 -0.51828,-0.61874 0,-0.34172 0.23204,-1.8116 0.51828,-1.8116 0.28624,-2e-5 0.83581,0.47581 0.83581,0.81754 z" id="path6897-7-83-1" sodipodi:nodetypes="ccccc"/></svg>
