<svg viewBox="0 0 560 1000"><g data-transform="boob" transform="matrix(1.1247504,0,0,1.1247504,-26.347241,-34.609528)" id="g5673"><path sodipodi:nodetypes="cscsscsccscccsssc" d="m 271.51118,261.14089 c 0.0661,-0.75567 -15.55212,-23.85233 -20.78384,-21.10049 -1.52959,0.80455 -3.42058,1.9614 -5.76856,3.60973 -9.78469,6.69753 -21.31453,10.82141 -26.74443,14.7899 -0.54445,0.39791 -0.66828,2.70307 -0.76291,3.35152 -0.65836,4.51134 -1.66809,9.99655 -0.19947,14.9545 0.5788,2.79959 1.92116,5.11459 3.04085,7.21138 2.65234,4.96693 6.04765,7.87695 10.86115,8.57219 21.5829,3.2487 35.13223,-12.1343 39.18878,-20.05393 1.83647,8.16488 6.94853,14.47073 13.3338,17.64542 10.04423,4.99389 23.27331,3.62273 32.00152,-1.35019 14.24159,-8.46859 19.00686,-29.49472 0.12112,-46.95807 -1.24033,-1.44425 -2.4413,-2.70187 -3.54079,-3.8753 -0.36194,-0.36533 -0.83711,-0.69814 -1.41789,-0.98568 -0.3692,-0.18279 -0.78107,-0.34728 -1.23367,-0.49021 -4.17723,-1.31914 -18.96078,7.30779 -27.63663,14.95545 -5.29365,4.66629 -9.38919,8.82318 -10.45903,9.72378 z" id="path5665" style="fill-opacity:1;fill:#010101"/><path sodipodi:nodetypes="ccscsscccscsccscssc" d="m 250.80319,239.92519 c -2.11217,1.58135 -4.28508,3.11053 -5.92735,4.27017 -5.84025,4.87392 -21.34013,11.09517 -25.80979,13.9564 -0.39537,0.25308 -0.72231,2.6909 -0.84921,3.07294 -0.70752,5.13443 -0.92153,9.56442 -0.30576,13.2861 1.01337,6.12496 3.33372,10.46932 6.44535,13.29915 2.48992,2.26451 5.53985,3.63861 8.78962,4.08772 10.49581,1.51314 19.86794,-2.43574 27.29744,-8.48888 4.20537,-3.4345 7.18267,-7.02269 9.92412,-11.02226 0.12718,0.41876 1.87124,5.64497 5.46994,10.30596 2.123,2.74967 5.09638,5.02083 8.21123,6.75234 0.11303,0.0438 0.22593,0.0871 0.33871,0.12991 34.5912,13.12294 57.55039,-22.51578 31.08151,-47.52065 -1.21885,-1.39111 -4.20568,-5.32709 -4.35427,-5.6611 -0.6987,-2.75664 -9.8826,-9.0648 -16.06697,-9.45676 -9.71868,-0.61597 -21.08175,-0.60121 -21.2227,-0.21343 -0.22117,-0.36982 -16.14896,7.01755 -22.98077,13.1738 -0.0124,0.0112 -0.0411,0.0188 -0.0411,0.0289 z" id="path5667" style="fill-opacity:1;fill:#1a1a1a"/><path sodipodi:nodetypes="cscsscssccc" d="m 244.59507,244.19181 c -5.84617,4.89639 -21.04708,11.22528 -25.52127,14.0997 -0.39577,0.25427 -0.72304,2.70331 -0.85007,3.08712 -0.70823,5.15811 -0.92247,9.60853 -0.30606,13.34738 1.01439,6.15319 3.33709,10.51759 6.45187,13.36048 2.49245,2.27495 5.54547,3.65538 8.79852,4.10657 10.77959,1.69228 20.64493,-3.34942 18.99782,-3.07865 -14.99642,2.46535 -22.88609,0.94442 -26.10385,-2.89198 -7.17339,-8.55253 -6.74098,-15.41465 -5.3541,-25.80217 27.97876,-16.87767 39.33463,-25.57206 39.27127,-26.79713 -0.0143,-0.86423 -13.74019,9.40368 -15.38413,10.56868 z" id="path5667-7" style="display:inline;fill-opacity:1;fill:#ffffff;stroke-width:1.0028106"/><path sodipodi:nodetypes="cccccc" d="m 297.50828,292.65793 c 0.77766,0.0318 1.54476,0.0376 2.30071,0.0182 -1.90714,-28.50697 10.27894,-43.92137 14.37798,-52.25654 -0.61416,-0.7799 -1.27633,-1.64449 -1.81988,-2.37058 -3.41098,6.16113 -18.41141,27.63352 -15.10911,54.66469 z" id="path5667-5" style="display:inline;fill-opacity:1;fill:#ffffff;stroke-width:1.0028106"/><path sodipodi:nodetypes="cccccccccc" id="path1686-2-6-4-7-1-7-6" d="m 306.92025,251.94587 c -0.10908,-1.20617 -0.7384,-1.44628 -0.78216,-2.46633 -4.78995,-1.89324 -23.29534,-1.36574 -28.73191,0.49661 -1.05189,-0.0571 -2.07343,-0.12684 -3.06697,-0.20717 -3.04689,-0.90631 -22.60866,-4.42148 -32.24241,-3.52992 0.12329,0.68243 -1.68699,1.07127 -1.82849,1.99188 5.28116,-0.8673 27.8724,1.34428 33.50498,4.25661 0.82465,0.0651 1.6449,0.12323 2.45857,0.17304 9.61507,-2.41343 23.38367,-2.25585 30.68848,-0.71472 z" style="display:inline;fill-opacity:1;fill:#ffffff;stroke-dasharray:none;stroke-linecap:butt;stroke-linejoin:miter;stroke-miterlimit:4;stroke-opacity:1;stroke-width:0;stroke:#83afc8"/><path sodipodi:nodetypes="cccccccc" id="path1686-2-6-4-7-1-7-1-1" d="m 301.12828,266.03819 c -0.0874,-1.20616 -0.5924,-1.44628 -0.62751,-2.46633 -5.30078,-0.61954 -21.38329,-1.72781 -28.93067,-1.14777 -18.56255,-2.39724 -49.20527,-2.71729 -51.55264,-2.88218 0.0989,0.68245 0.0981,1.38706 -0.0154,2.30768 6.44492,0.56954 32.79206,0.96997 50.87404,3.29479 11.41878,-0.54625 24.4374,0.19014 30.25226,0.89381 z" style="display:inline;fill-opacity:1;fill:#ffffff;stroke-dasharray:none;stroke-linecap:butt;stroke-linejoin:miter;stroke-miterlimit:4;stroke-opacity:1;stroke-width:0;stroke:#83afc8"/><path sodipodi:nodetypes="ccccc" id="path1686-2-6-4-7-1-7-9-1" d="m 299.08302,277.56449 c -0.0783,-1.20616 -0.52969,-1.44628 -0.5611,-2.46633 -13.79395,0.42158 -23.27155,-1.05422 -27.76794,-1.69771 0.14747,0.72192 0.69731,1.95943 0.94986,2.66293 7.34732,1.40175 17.20304,1.75708 27.37918,1.50111 z" style="display:inline;fill-opacity:1;fill:#ffffff;stroke-dasharray:none;stroke-linecap:butt;stroke-linejoin:miter;stroke-miterlimit:4;stroke-opacity:1;stroke-width:0;stroke:#83afc8"/><path sodipodi:nodetypes="ccccc" id="path1686-2-6-4-7-1-7-9-1-4" d="m 220.08348,275.16576 c -0.41221,-1.36407 -0.24258,-2.63049 -0.18701,-3.65054 5.61029,1.05315 41.97099,2.46816 49.92821,1.82467 -0.26098,0.72192 -1.28966,1.73614 -1.73657,2.43964 -10.79989,1.71753 -43.29027,-0.35781 -48.00463,-0.61377 z" style="display:inline;fill-opacity:1;fill:#ffffff;stroke-dasharray:none;stroke-linecap:butt;stroke-linejoin:miter;stroke-miterlimit:4;stroke-opacity:1;stroke-width:0;stroke:#83afc8"/><path sodipodi:nodetypes="csccccc" d="m 272.19169,258.88792 c 0.80943,-1.48623 1.35838,-4.75934 1.75336,-6.96753 0.0755,-0.42195 0.14376,2.11164 -0.34789,3.72203 2.50484,-3.57809 5.36151,-7.40366 7.64284,-10.60934 0.11073,-0.1769 -0.23631,1.28365 5.6e-4,1.09001 -3.14159,4.2326 -6.6203,9.02137 -9.04922,12.76484 z" class="shadow" id="path5669"/><path sodipodi:nodetypes="ccc" id="path5671" class="shadow" d="m 270.33492,269.98618 c -0.16754,2.01348 0.47911,3.25262 0.89408,5.36257 -0.66799,-1.59942 -1.31544,-3.72955 -0.89408,-5.36257 z"/></g></svg>
