<svg viewBox="0 0 560 1000"><path sodipodi:nodetypes="ccscccccsccccscccc" id="path2721" d="m 282.10498,155.68553 c -0.60044,-0.84901 -0.35031,-1.76738 0.48138,-1.76738 0.59844,0 2.17457,1.15856 1.93407,1.42169 -0.0894,0.0978 -0.47897,0.0954 -0.88747,-0.005 -0.79908,-0.19718 -1.0254,-0.12821 -1.0254,0.31243 0,0.3581 -0.26237,0.37822 -0.50258,0.0385 z m -4.80429,-0.88706 c -3.16954,-2.91631 -2.88317,-5.80797 -0.90356,-8.45484 0.61513,-0.70951 0.9847,-1.47763 1.6764,-3.48427 0.27764,-0.80543 0.58061,-1.46441 0.67327,-1.46441 0.20803,0 0.20792,0.008 -0.0222,1.61589 -0.2587,1.80858 -0.44962,2.28566 -1.65698,4.14075 -0.57844,0.88874 -1.14704,1.81443 -1.26359,2.05708 -0.56162,1.16935 0.0621,2.76414 1.86501,4.76877 0.68539,0.76205 1.24615,1.42405 1.24615,1.47107 0,0.28338 -0.78078,-0.031 -1.61459,-0.65004 z" style="fill:#000000;stroke-width:0.19310525"/></svg>
