<svg viewBox="0 0 560 1000"><path sodipodi:nodetypes="ccccsccccccsscccc" id="path1666" d="m 370.32736,269.21102 c 4.28577,34.66716 -3.44155,69.52568 -5.32092,79.54882 7.90451,19.87043 16.97791,51.46413 -1.74433,68.66291 -71.30488,20.12453 -75.39173,29.49551 -84.38426,50.35729 -0.26944,0.20641 -1.13656,1.14752 -4.58251,0.28177 -0.17413,-0.0437 -1.37345,0.71664 -3.61847,0.0361 -21.82469,-31.74709 -34.88407,-41.95307 -46.13719,-52.41857 -14.98732,-38.31436 2.40674,-70.61032 9.25045,-96.96415 -1.09392,-12.81831 -1.44271,-24.27588 -1.32943,-36.24472 0.28672,-28.50353 4.15159,-54.70322 44.00961,-75.6882 -0.63873,-0.33426 2.72387,-3.1709 7.2484,-5.57324 6.38934,-8.53563 5.53943,-17.91786 6.19018,-18.8806 3.41216,-5.04803 22.0725,-14.82189 24.51892,-9.29893 0.28194,0.63651 -0.0963,18.38259 4.92767,25.79025 1.50252,1.12706 7.85193,4.64722 6.63644,5.44617 -59.64798,34.7469 1.82837,42.20589 38.19229,63.32537 z" style="display:inline;fill-opacity:1;fill-rule:evenodd;fill:#000000;opacity:1;stroke-dasharray:none;stroke-linecap:butt;stroke-linejoin:miter;stroke-miterlimit:4;stroke-opacity:1;stroke-width:0;stroke:#000000"/><path sodipodi:nodetypes="cccsssccccsscccc" id="path1668" d="m 363.77156,348.47536 c 1.34356,7.732 19.51906,43.70131 0.31789,68.8284 9.76847,17.81956 -78.2481,39.32739 -79.01977,41.66516 -0.78385,1.88787 -3.29932,8.5329 -5.79622,10.31331 -1.21712,0.86786 -4.8236,-0.18577 -5.07554,-0.20987 -0.29397,-0.0276 -1.12355,0.44604 -3.33637,-0.1263 -5.65546,-1.4629 -9.47467,-5.19754 -10.04678,-7.14824 -28.68416,-20.30472 -36.21661,-33.10048 -35.28517,-48.25479 -15.86927,-39.48018 5.21871,-69.90344 10.26782,-95.41822 -9.73851,-74.31843 6.44578,-104.84684 49.55322,-116.55273 5.33294,-8.35978 4.47937,-16.82837 5.55606,-16.92645 10.85789,-0.98906 16.98793,-11.06455 22.37004,-11.2945 0.95246,-0.0407 -0.87894,16.73549 5.50706,26.58167 1.48672,1.12706 17.38807,5.34921 17.91995,6.69157 12.23055,1.62014 29.38973,10.12821 32.6923,22.75496 9.82839,56.90403 -2.75346,100.70563 -5.62449,119.09603 z" style="display:inline;fill-opacity:1;fill-rule:evenodd;fill:#550022;opacity:1;stroke-dasharray:none;stroke-linecap:butt;stroke-linejoin:miter;stroke-miterlimit:4;stroke-opacity:1;stroke-width:0;stroke:#000000"/><path sodipodi:nodetypes="ccsssccc" id="path1668-1" d="m 364.08945,417.43131 c 9.76847,18.79787 -78.2481,41.4865 -79.01977,43.95261 -0.78385,1.99152 -3.29932,9.00137 -5.79622,10.87952 -1.21712,0.91551 -4.8236,-0.19597 -5.07554,-0.22139 -0.29397,-0.0291 -1.12355,0.47053 -3.33637,-0.13323 -5.65546,-1.54322 -9.47467,-5.48289 -10.04678,-7.54069 -28.68416,-21.41947 -37.46661,-33.4013 -36.53517,-49.3876 18.51826,7.13307 74.7395,18.13652 139.80985,2.45078 z" style="display:inline;fill-opacity:1;fill-rule:evenodd;fill:#333333;opacity:1;stroke-dasharray:none;stroke-linecap:butt;stroke-linejoin:miter;stroke-miterlimit:4;stroke-opacity:1;stroke-width:0;stroke:#000000"/><path d="m 329.8875,425.70175 c -15.4791,1.19068 -42.03653,26.26041 -44.60913,30.99635 10.29989,-9.14088 29.75951,-26.28541 44.60913,-30.99635 z" class="shadow" id="path1670" sodipodi:nodetypes="ccc"/><path d="m 262.14541,457.55004 c -6.81704,-9.41592 -28.83006,-31.99347 -34.93819,-34.15183 5.05404,5.44075 26.5203,25.35081 34.93819,34.15183 z" class="shadow" id="path1672" sodipodi:nodetypes="ccc"/><path style="display:inline;fill:none;stroke-dasharray:none;stroke-linecap:butt;stroke-linejoin:miter;stroke-miterlimit:4;stroke-opacity:1;stroke-width:2.5;stroke:#000000" d="m 364.39776,417.404 c -47.6419,8.32523 -108.735,13.21262 -139.84597,-3.08969" id="path1693" sodipodi:nodetypes="cc"/></svg>
