<svg viewBox="0 0 560 1000"><path d="m 184.62409,426.91693 c 0.53289,-0.22251 1.39587,0.0412 1.89053,-0.18568 23.54139,-10.77559 4.05947,-26.2813 -1.80654,-25.53967 -15.83039,5.58086 -9.74088,21.3586 -4.58309,22.22807 0.0739,0.0539 0.61581,1.38382 4.4991,3.49725 z" id="path3922" sodipodi:nodetypes="cscccc" style="fill:#000000;stroke-width:4.55208445"/><path d="m 235.05205,463.27774 c 22.11677,6.19486 44.4035,13.37272 52.04537,-5.88195 2.3582,-6.6581 0.84411,-11.3691 -3.87905,-13.09628 -19.49831,-6.11764 -60.99204,-24.04016 -73.11669,-35.50461 -1.674,-2.57651 -1.39236,-2.9478 -3.09508,-4.71604 -3.61019,-3.74904 -8.25122,-3.36652 -12.04422,-3.15782 -2.28586,0.12597 -8.18587,-0.58127 -10.02077,0.15337 -1.54131,0.6171 -2.88602,1.49245 -3.76292,2.60925 -0.27237,0.34713 1.81101,-0.75849 2.00661,-0.90666 5.50619,-4.17129 27.5036,13.37412 2.98648,23.64951 -2.26959,0.95121 -9.22213,-6.14747 -9.16005,-5.90534 0.39675,1.54973 3.04407,3.98932 5.37377,5.5505 1.39113,0.93215 2.97378,1.28078 3.53739,2.28138 6.77541,12.02766 21.71353,25.23415 49.12916,34.92444 z" id="path3924" sodipodi:nodetypes="ccccssssssssscc" style="fill:#000000;stroke-width:4.55208445"/><path d="m 180.37222,421.70068 c 8.43815,5.07924 24.42833,-1.86086 28.44961,-11.54327 -1.01262,-2.88907 -4.48418,-8.47494 -8.55723,-8.34036 -11.62456,0.38388 -11.36576,-0.73052 -16.25068,0.7074 -9.77225,4.22811 -10.99164,13.10788 -5.70496,19.6787 0.51829,0.39977 1.19245,-0.30731 2.06326,-0.5027 z" id="path3926" sodipodi:nodetypes="ccscccc" class="areola"/><path d="m 178.43378,416.25301 c 0.11991,0.88275 1.20206,2.67206 2.37293,2.99453 -0.005,-0.0459 -0.28787,-1.56698 -0.29926,-1.61335 -0.37857,-1.5643 -2.05451,-6.16976 0.67956,-11.33878 -2.75049,3.12965 -3.24692,6.22841 -2.75344,9.9576 z" id="path3928" sodipodi:nodetypes="ccscc" style="fill:#000000;stroke-width:4.55208445"/><path d="m 236.45856,462.28413 c 21.90995,6.13704 42.96499,14.587 51.53869,-4.43545 2.33622,-6.59582 2.19001,-10.34776 -2.489,-12.05891 -20.32889,-4.89603 -63.2308,-23.45692 -75.242,-34.81408 -5.65461,7.9825 -11.24295,12.36613 -23.21623,13.42472 -2.01575,-0.0244 -4.15871,-0.55908 -6.31687,-1.80822 -0.4675,-0.27079 -1.22836,0.24858 -1.55488,0.36215 -0.37506,0.25084 8.78451,5.70025 8.59071,6.12363 6.71207,11.91528 21.53034,23.60672 48.68955,33.20634 z" class="skin penis" id="path3930" sodipodi:nodetypes="cccccscccc"/></svg>
