<svg viewBox="0 0 560 1000"><path sodipodi:nodetypes="ccccccccc" id="path4510-8-6" d="m 370.45236,272.58602 c -3.06155,32.80241 -11.78076,43.11756 -19.90025,81.23161 1.95915,5.74033 18.81048,39.25953 11.68125,62.37219 -26.83331,14.10151 -122.76541,23.0389 -139.03109,-0.60376 -3.61419,-35.95451 12.56673,-65.57166 17.22644,-94.59589 -1.87782,-10.29261 -3.19035,-20.34715 -3.76674,-28.39016 -5.66195,-68.91381 25.43595,-80.91093 50.18174,-91.89098 9.24713,11.38115 25.18214,3.12903 31.26177,-2.13928 0.12489,7.20108 47.20462,34.9752 52.34688,74.01627 z" style="display:inline;fill-opacity:1;fill-rule:evenodd;fill:#000000;opacity:1;stroke-dasharray:none;stroke-linecap:butt;stroke-linejoin:miter;stroke-miterlimit:4;stroke-opacity:1;stroke-width:0;stroke:#000000"/><path sodipodi:nodetypes="cccsccccccc" id="path4512-9-8" d="m 363.85542,299.71521 c -4.48796,17.83618 -10.83213,36.66476 -15.04845,53.39954 1.23702,4.41205 14.20661,32.62842 13.18813,50.28311 -21.01719,4.68261 -53.52062,14.54707 -87.63724,15.12023 -16.46013,0.27654 -33.64933,-3.02392 -49.75167,-8.69836 -5.05178,-23.4018 14.23669,-64.68616 17.1596,-88.84342 -5.96785,-40.25491 -15.76886,-106.49187 40.33974,-118.55701 3.12384,-2.05334 5.3098,-5.95602 6.93885,-10.38042 1.65753,5.04021 26.21695,0.68309 26.60293,0.54975 2.99455,5.49381 1.12395,6.57536 6.71301,7.72308 69.725,14.36119 51.09071,59.5419 41.4951,99.4035 z" style="display:inline;fill-opacity:1;fill-rule:evenodd;fill:#c8c8c8;opacity:1;stroke-dasharray:none;stroke-linecap:butt;stroke-linejoin:miter;stroke-miterlimit:4;stroke-opacity:1;stroke-width:0;stroke:#000000"/><path style="display:inline;fill-opacity:1;fill:#000000;opacity:1;stroke-dasharray:none;stroke-linecap:butt;stroke-linejoin:miter;stroke-miterlimit:4;stroke-opacity:1;stroke-width:0;stroke:#000000" d="m 288.65067,205.94096 c -0.008,-0.17 5.77348,-12.05234 5.84504,-12.26958 0,0 -5.0441,-2.25985 -5.19628,-2.04286 -0.92463,1.3184 -2.65827,4.70639 -4.15936,6.60625 0.1059,0.25324 3.5106,7.70619 3.5106,7.70619 z" id="path4514-0-2" sodipodi:nodetypes="csscc"/><path style="display:inline;fill-opacity:1;fill:#c8c8c8;opacity:1;stroke-dasharray:none;stroke-linecap:butt;stroke-linejoin:miter;stroke-miterlimit:4;stroke-opacity:1;stroke-width:0;stroke:#000000" d="m 288.66108,203.74098 c -0.008,-0.16669 5.35844,-10.06772 5.42795,-10.28074 0,0 -4.89991,-2.21585 -5.04775,-2.00309 -0.8982,1.29274 -2.58228,4.61477 -4.04047,6.47765 0.10291,0.24831 3.66027,5.80618 3.66027,5.80618 z" id="path4516-7-7" sodipodi:nodetypes="csscc"/><path style="display:inline;fill-opacity:1;fill:#000000;opacity:1;stroke-dasharray:none;stroke-linecap:butt;stroke-linejoin:miter;stroke-miterlimit:4;stroke-opacity:1;stroke-width:0;stroke:#000000" d="m 303.24206,205.47603 c 0.007,-0.15238 -3.99545,-11.03492 -4.06234,-11.22965 0,0 16.62296,-2.66894 16.76522,-2.47444 0.86438,1.18176 2.6413,5.37486 3.07583,6.04657 -0.099,0.227 -15.77871,7.65752 -15.77871,7.65752 z" id="path4518-2-6" sodipodi:nodetypes="csscc"/><path style="display:inline;fill-opacity:1;fill:#c8c8c8;opacity:1;stroke-dasharray:none;stroke-linecap:butt;stroke-linejoin:miter;stroke-miterlimit:4;stroke-opacity:1;stroke-width:0;stroke:#000000" d="m 303.64915,204.60393 c 0.007,-0.14856 -3.93866,-10.27774 -4.00456,-10.46759 0,0 15.63782,-2.64512 15.77799,-2.4555 0.85164,1.15214 2.60238,5.24014 3.03051,5.89501 -0.0975,0.22131 -14.80394,7.02808 -14.80394,7.02808 z" id="path4520-0-6" sodipodi:nodetypes="csscc"/><path style="display:inline;fill-opacity:1;fill:#000000;opacity:1;stroke-dasharray:none;stroke-linecap:butt;stroke-linejoin:miter;stroke-miterlimit:4;stroke-opacity:1;stroke-width:0;stroke:#000000" d="m 273.76587,419.87564 c -3.37067,-27.44695 2.70899,-95.34442 23.25259,-225.55289 l 0.80611,0.10099 c 0.44243,13.37084 -30.13893,182.40374 -21.77891,225.43423 0,0 -1.85534,0.73859 -2.27979,0.0177 z" id="path4522-4-8" sodipodi:nodetypes="cccccc"/><path style="display:inline;fill-opacity:1;fill-rule:nonzero;fill:#999999;opacity:1;stroke-dasharray:none;stroke-linecap:butt;stroke-linejoin:round;stroke-miterlimit:4;stroke-opacity:1;stroke-width:0;stroke:#000000" d="m 300.87394,220.43307 a 2.7544847,2.8454499 0 0 1 -2.75448,2.84545 2.7544847,2.8454499 0 0 1 -2.75449,-2.84545 2.7544847,2.8454499 0 0 1 2.75449,-2.84546 2.7544847,2.8454499 0 0 1 2.75448,2.84546 z" id="path4524-9-7"/><path style="display:inline;fill-opacity:1;fill-rule:nonzero;fill:#999999;opacity:1;stroke-dasharray:none;stroke-linecap:butt;stroke-linejoin:round;stroke-miterlimit:4;stroke-opacity:1;stroke-width:0;stroke:#000000" d="m 297.69369,242.50598 a 2.7544847,2.8454499 0 0 1 -2.75448,2.84545 2.7544847,2.8454499 0 0 1 -2.75449,-2.84545 2.7544847,2.8454499 0 0 1 2.75449,-2.84546 2.7544847,2.8454499 0 0 1 2.75448,2.84546 z" id="path4526-8-9"/><path style="display:inline;fill-opacity:1;fill-rule:nonzero;fill:#999999;opacity:1;stroke-dasharray:none;stroke-linecap:butt;stroke-linejoin:round;stroke-miterlimit:4;stroke-opacity:1;stroke-width:0;stroke:#000000" d="m 294.36894,266.99921 a 2.7544847,2.8454499 0 0 1 -2.75448,2.84545 2.7544847,2.8454499 0 0 1 -2.75449,-2.84545 2.7544847,2.8454499 0 0 1 2.75449,-2.84546 2.7544847,2.8454499 0 0 1 2.75448,2.84546 z" id="path4528-5-7"/><path style="display:inline;fill-opacity:1;fill-rule:nonzero;fill:#999999;opacity:1;stroke-dasharray:none;stroke-linecap:butt;stroke-linejoin:round;stroke-miterlimit:4;stroke-opacity:1;stroke-width:0;stroke:#000000" d="m 291.12262,291.4949 a 2.7544847,2.8454499 0 0 1 -2.75448,2.84545 2.7544847,2.8454499 0 0 1 -2.75449,-2.84545 2.7544847,2.8454499 0 0 1 2.75449,-2.84546 2.7544847,2.8454499 0 0 1 2.75448,2.84546 z" id="path4530-6-71"/><path style="display:inline;fill-opacity:1;fill-rule:nonzero;fill:#999999;opacity:1;stroke-dasharray:none;stroke-linecap:butt;stroke-linejoin:round;stroke-miterlimit:4;stroke-opacity:1;stroke-width:0;stroke:#000000" d="m 288.19248,313.4826 a 2.7544847,2.8454499 0 0 1 -2.75448,2.84545 2.7544847,2.8454499 0 0 1 -2.75449,-2.84545 2.7544847,2.8454499 0 0 1 2.75449,-2.84546 2.7544847,2.8454499 0 0 1 2.75448,2.84546 z" id="path4532-6-8"/><path style="display:inline;fill-opacity:1;fill-rule:nonzero;fill:#999999;opacity:1;stroke-dasharray:none;stroke-linecap:butt;stroke-linejoin:round;stroke-miterlimit:4;stroke-opacity:1;stroke-width:0;stroke:#000000" d="m 285.69616,337.78711 a 2.7544847,2.8454499 0 0 1 -2.75448,2.84545 2.7544847,2.8454499 0 0 1 -2.75449,-2.84545 2.7544847,2.8454499 0 0 1 2.75449,-2.84546 2.7544847,2.8454499 0 0 1 2.75448,2.84546 z" id="path4534-8-11"/><path style="display:inline;fill-opacity:1;fill-rule:nonzero;fill:#999999;opacity:1;stroke-dasharray:none;stroke-linecap:butt;stroke-linejoin:round;stroke-miterlimit:4;stroke-opacity:1;stroke-width:0;stroke:#000000" d="m 283.59261,360.44517 a 2.7544847,2.8454499 0 0 1 -2.75448,2.84545 2.7544847,2.8454499 0 0 1 -2.75449,-2.84545 2.7544847,2.8454499 0 0 1 2.75449,-2.84546 2.7544847,2.8454499 0 0 1 2.75448,2.84546 z" id="path4536-5-1"/><path style="display:inline;fill-opacity:1;fill-rule:nonzero;fill:#999999;opacity:1;stroke-dasharray:none;stroke-linecap:butt;stroke-linejoin:round;stroke-miterlimit:4;stroke-opacity:1;stroke-width:0;stroke:#000000" d="m 282.01878,380.39507 a 2.7544847,2.8454499 0 0 1 -2.75448,2.84545 2.7544847,2.8454499 0 0 1 -2.75449,-2.84545 2.7544847,2.8454499 0 0 1 2.75449,-2.84546 2.7544847,2.8454499 0 0 1 2.75448,2.84546 z" id="path4538-4-9"/><path style="display:inline;fill-opacity:1;fill-rule:nonzero;fill:#999999;opacity:1;stroke-dasharray:none;stroke-linecap:butt;stroke-linejoin:round;stroke-miterlimit:4;stroke-opacity:1;stroke-width:0;stroke:#000000" d="m 281.0045,400.49998 a 2.7544847,2.8454499 0 0 1 -2.75448,2.84545 2.7544847,2.8454499 0 0 1 -2.75449,-2.84545 2.7544847,2.8454499 0 0 1 2.75449,-2.84546 2.7544847,2.8454499 0 0 1 2.75448,2.84546 z" id="path4548-1-7"/><path sodipodi:nodetypes="csscscc" id="path4384-5" d="m 361.97664,404.39597 c 1.35149,1.92814 -0.005,18.10846 -0.005,18.10846 0.27389,-0.29673 -28.57991,0.16532 -52.32103,15.24977 0,0 -27.25743,36.34309 -35.46729,33.52591 -15.72485,1.8412 -51.89327,-54.06395 -52.1688,-53.9282 -0.66293,0.32662 2.38196,-5.95014 2.38196,-5.95014 36.42612,14.76968 91.19605,7.18498 137.58003,-7.0058 z" style="display:inline;fill-opacity:1;fill-rule:evenodd;fill:#333333;opacity:1;stroke-dasharray:none;stroke-linecap:butt;stroke-linejoin:miter;stroke-miterlimit:4;stroke-opacity:1;stroke-width:0;stroke:#000000"/><path sodipodi:nodetypes="ccc" id="path4386-3" class="shadow" d="m 328.65568,423.62719 c -15.47912,1.19068 -42.03655,26.26041 -44.60915,30.99635 10.29989,-9.14088 29.75953,-26.28541 44.60915,-30.99635 z"/><path sodipodi:nodetypes="ccc" id="path4388-4" class="shadow" d="m 260.91357,455.47548 c -6.81704,-9.41592 -28.83006,-31.99347 -34.93819,-34.15183 5.05404,5.44075 26.5203,25.35081 34.93819,34.15183 z"/><path sodipodi:nodetypes="cscssc" id="path4390-0" class="shadow" d="m 263.96084,458.59555 c 4.57815,9.39542 6.98201,9.38912 10.48006,8.45228 0.29456,-0.0789 4.22668,4.42641 8.46793,-9.07021 -1.38475,8.70911 -4.15105,11.96876 -8.5336,9.82506 -0.0226,-0.0111 -2.82256,1.04466 -4.71233,0.003 -2.95847,-1.63089 -5.51373,-5.99794 -5.70206,-9.21004 z"/></svg>
