<svg viewBox="0 0 560 1000"><path style="display:inline;fill-opacity:1;fill-rule:evenodd;fill:#000000;opacity:1;stroke-dasharray:none;stroke-linecap:butt;stroke-linejoin:miter;stroke-miterlimit:4;stroke-opacity:0;stroke-width:3.0649333;stroke:#000000" d="m 347.04161,402.77706 c 10.63176,7.73346 39.22012,21.30942 42.25326,64.26536 0.60691,7.46558 -1.39082,31.27152 -18.79583,43.22353 -3.33339,0.85196 -15.42961,5.54301 -15.84941,4.79946 -0.13207,-0.23393 -2.19467,1.43762 -2.19467,1.43762 -8.96261,-21.73836 -1.87485,-109.72281 -5.41335,-113.72597 z" id="path3026" sodipodi:nodetypes="cccssc"/><path style="display:inline;fill-opacity:1;fill-rule:evenodd;fill:#333333;opacity:1;stroke-dasharray:none;stroke-linecap:butt;stroke-linejoin:miter;stroke-miterlimit:4;stroke-opacity:0;stroke-width:3.0649333;stroke:#000000" d="m 346.56325,402.19876 c 22.99423,15.50567 43.31351,39.27632 40.70423,72.42768 -1.20344,15.28979 -6.82876,28.90126 -20.44802,35.69221 -0.0512,0.0738 -9.02467,3.39935 -10.56458,4.6892 -0.17143,0.14359 -0.46235,-0.0846 -0.50882,-0.24256 -6.98303,-23.7292 -4.66092,-107.45085 -9.18281,-112.56653 z" id="path3028" sodipodi:nodetypes="cscssc"/><path style="display:inline;fill-opacity:1;fill-rule:evenodd;fill:#ffffff;opacity:1;stroke-dasharray:none;stroke-linecap:butt;stroke-linejoin:miter;stroke-miterlimit:4;stroke-opacity:1;stroke-width:0;stroke:#000000" d="m 355.72167,513.16962 c 0.55826,0.20979 -0.39495,0.83565 0.6706,1.39134 4.36237,-1.7376 11.96116,-4.61883 12.98746,-5.28951 -0.17149,-0.41726 0.007,0.01 0.007,0.01 -7.15557,2.01627 -7.08818,1.72751 -13.49141,4.09004 z" id="path3030" sodipodi:nodetypes="cccccc"/></svg>
