<svg viewBox="0 0 560 1000"><path sodipodi:nodetypes="cscssccsssssscssccccc" id="path5861" d="m 368.45236,268.83602 c 0.40069,1.40387 0.82871,12.89967 -6.36035,37.77919 -5.42713,18.7819 -17.06882,33.73312 -17.6652,35.1912 -5.76961,8.24948 -14.92503,20.20843 -10.12382,30.19769 0.20871,0.43423 -0.88367,4.4158 2.20239,10.37819 5.12253,9.89693 11.7358,22.29153 12.56986,25.83552 0,0 -51.7146,6.85286 -63.22382,35.19023 -2.06147,4.01155 -2.1084,11.81811 -3.46792,16.10443 -0.27859,0.87834 -1.00697,6.35332 -3.50565,8.26757 -0.26944,0.20641 -1.13656,1.14752 -4.58251,0.28177 -0.17413,-0.0437 -1.37345,0.71664 -3.61847,0.0361 -5.83439,-1.76869 -6.66978,-8.86034 -6.76649,-9.28816 -1.98539,-8.78313 -6.24957,-28.02971 -9.43291,-34.24779 -14.19124,-27.72004 -27.97462,-8.06406 -29.28246,-10.40039 0.41618,-1.08804 4.02945,-13.36841 6.19444,-18.09893 11.62539,-25.40153 12.08709,-42.05871 12.25836,-57.26185 0.24452,-21.70551 -6.08737,-33.66342 -6.98584,-46.20078 -3.12591,-70.13568 30.30326,-40.0847 52.38713,-59.43686 4.62538,-2.28504 6.71006,1.05395 7.48346,0.17109 3.13994,1.52155 66.54554,33.43249 67.65165,34.25705 z" style="display:inline;fill-opacity:1;fill-rule:nonzero;fill:#000000;opacity:1;stroke-dasharray:none;stroke-linecap:butt;stroke-linejoin:miter;stroke-miterlimit:4;stroke-opacity:1;stroke-width:0;stroke:#000000"/><path sodipodi:nodetypes="csssccsssccssccccscc" id="path5863" d="m 368.47602,268.56519 c -0.47811,3.70196 -1.71839,20.80284 -7.95729,39.14162 -6.28969,18.48806 -13.77339,28.84126 -14.77871,30.05104 -8.36776,10.0696 -13.32538,17.02333 -14.66501,27.95838 -1.1072,9.03783 20.61594,42.26876 20.97923,47.06716 -40.10653,11.44456 -64.97545,42.96388 -65.74712,45.30165 -0.78385,1.88787 -4.7912,9.82211 -7.2881,11.60252 -1.21712,0.86786 -4.56426,-0.37235 -4.8162,-0.39645 -0.29397,-0.0276 -0.77535,0.50225 -2.98817,-0.0701 -5.65546,-1.4629 -10.22974,-5.40448 -10.80185,-7.35518 -18.43111,-29.49711 -30.68812,-46.0732 -35.41353,-47.26215 7.94787,-20.31139 14.53739,-34.53836 15.52113,-39.64488 2.40743,-12.49684 4.34652,-31.04582 4.51599,-33.91997 1.27707,-21.66848 -5.53672,-33.8742 -6.42575,-46.41156 -6.20108,-50.45733 18.32727,-82.76734 38.32548,-88.64617 5.65511,21.68836 47.15836,12.8615 59.61138,1.54951 0,0 25.14245,-4.0197 34.62152,28.41718 0.0476,0.44543 -1.73667,7.33167 -1.55036,15.79956 0.11811,5.36806 -0.44125,11.33436 -1.14264,16.81783 z" style="display:inline;fill-opacity:1;fill-rule:evenodd;fill:#1a1a1a;opacity:1;stroke-dasharray:none;stroke-linecap:butt;stroke-linejoin:miter;stroke-miterlimit:4;stroke-opacity:1;stroke-width:0;stroke:#000000"/><path sodipodi:nodetypes="ccccsssssssssssssssssssssssc" id="path5865" d="M 119.84262,559.24598 C 166.36276,448.57227 239.51913,374.77277 240.6226,367.10804 l 89.12794,1.58139 c 0,0 98.16088,120.46171 128.49438,195.05453 -1.10151,1.92828 -5.06784,1.45972 -7.90471,3.18731 -2.18445,1.33027 -2.90764,4.8982 -6.01064,6.10612 -3.42199,1.3321 -9.49466,-0.23953 -13.91095,0.94002 -3.45311,0.9223 -5.06915,4.62579 -9.05997,5.45269 -4.33285,0.89776 -10.55545,-0.73613 -15.44643,0.0469 -4.44375,0.71142 -7.51061,3.84984 -12.353,4.46464 -4.19467,0.53256 -12.59369,-1.44634 -17.04612,-0.98754 -6.63486,0.68369 -9.46872,3.75972 -16.56971,4.27639 -4.01891,0.29242 -8.98617,-2.27065 -13.1225,-2.03271 -4.24452,0.24418 -7.66091,3.28791 -12.00448,3.47398 -5.3052,0.22725 -11.55888,-2.77109 -16.97058,-2.63177 -4.63113,0.11923 -8.40907,3.38798 -13.08736,3.44187 -5.22866,0.0602 -11.00823,-3.98648 -16.25819,-4.00902 -4.89364,-0.021 -9.25757,3.98765 -14.13639,3.89373 -5.39388,-0.10384 -11.12244,-3.6113 -16.45684,-3.80553 -5.65945,-0.20606 -10.91963,2.89539 -16.46173,2.58606 -4.83115,-0.26966 -9.60786,-3.40728 -14.31295,-3.75654 -5.89246,-0.43739 -11.67259,1.89081 -17.30662,1.32672 -6.05625,-0.60636 -11.59014,-4.11494 -17.26684,-4.87017 -6.65645,-0.88556 -13.37669,0.95408 -19.38602,-0.13997 -6.5393,-1.19054 -11.06445,-5.8645 -16.67031,-7.30702 -5.60596,-1.44254 -12.29262,0.34636 -16.79089,-1.35347 -5.03288,-1.90184 -7.01983,-6.61804 -10.43502,-8.849 -3.15113,-2.05846 -7.85982,-1.60693 -9.43405,-3.95165 z" style="display:inline;fill-opacity:1;fill:#ffffff;stroke-dasharray:none;stroke-linecap:butt;stroke-linejoin:miter;stroke-miterlimit:4;stroke-opacity:1;stroke-width:0;stroke:#000000"/><path sodipodi:nodetypes="ccccc" id="path5867" d="M 119.84262,548.58883 C 166.36276,444.05376 239.51913,374.34764 240.6226,367.10804 l 89.12794,1.49367 c 0,0 98.16088,113.78016 128.49438,184.23561 6.49984,35.06417 -344.7519,33.37417 -338.4023,-4.24849 z" style="display:inline;fill-opacity:1;fill:#1a1a1a;stroke-dasharray:none;stroke-linecap:butt;stroke-linejoin:miter;stroke-miterlimit:4;stroke-opacity:1;stroke-width:0;stroke:#000000"/><path sodipodi:nodetypes="ccccsssssssssssssssssssssssc" id="path5869" d="m 122.61595,523.9989 c 0,0 46.40281,-76.62356 68.37955,-81.73343 l 192.53035,5.51991 c 37.6092,16.95787 48.73275,50.62346 66.65117,79.16257 -0.95842,1.3636 -6.21893,-0.24212 -10.54216,0.84653 -3.23791,0.81535 -4.86344,4.38393 -9.70467,5.05175 -4.32797,0.59702 -11.89966,-1.6922 -17.32483,-1.20876 -5.55931,0.4954 -8.99739,3.76068 -15.52399,4.14118 -3.81485,0.2224 -9.54673,-1.87254 -13.64142,-1.6882 -4.72707,0.21281 -7.8604,2.69864 -12.90678,2.86199 -5.0501,0.16347 -11.30636,-2.52592 -16.61865,-2.41063 -4.00428,0.0869 -7.01421,2.98873 -11.13877,3.04893 -5.05527,0.0738 -11.0755,-2.87746 -16.2702,-2.84281 -5.94483,0.0397 -11.0822,3.05923 -17.14584,3.04914 -6.09755,-0.0101 -12.59151,-2.34315 -18.74016,-2.40199 -5.18669,-0.0496 -10.0257,2.18181 -15.20335,2.09861 -5.56533,-0.0894 -10.93665,-3.0264 -16.44172,-3.15345 -4.57042,-0.10547 -9.28796,2.60472 -13.7843,2.47409 -5.19146,-0.15083 -11.20758,-3.14662 -16.25786,-3.32999 -4.42837,-0.16079 -7.90984,2.49455 -12.19686,2.30951 -5.00865,-0.21618 -9.73359,-3.9842 -14.50394,-4.2324 -4.73186,-0.24621 -9.51124,3.02765 -13.96075,2.75106 -5.4269,-0.33735 -9.56539,-3.70208 -14.49351,-4.08277 -5.07554,-0.39208 -10.92425,2.1986 -15.37755,1.76275 -5.4174,-0.53022 -8.92519,-4.45077 -13.2667,-5.04212 -4.52745,-0.61668 -9.95468,2.50422 -13.00618,1.41454 -1.58972,-0.56768 -2.86528,-3.51089 -4.13062,-3.92447 -3.30662,-1.08077 -5.51304,0.68724 -5.38026,-0.44154 z" style="display:inline;fill-opacity:1;fill:#ffffff;stroke-dasharray:none;stroke-linecap:butt;stroke-linejoin:miter;stroke-miterlimit:4;stroke-opacity:1;stroke-width:0;stroke:#000000"/><path sodipodi:nodetypes="ccccc" id="path5871" d="m 124.03011,516.43695 c 0,0 46.10232,-69.53437 67.93674,-74.17148 l 191.28352,5.00921 c 37.36564,15.38893 48.41716,45.9398 66.21954,71.83848 -12.29315,15.9754 -327.15492,10.64182 -325.4398,-2.67621 z" style="display:inline;fill-opacity:1;fill:#1a1a1a;stroke-dasharray:none;stroke-linecap:butt;stroke-linejoin:miter;stroke-miterlimit:4;stroke-opacity:1;stroke-width:0;stroke:#000000"/><path sodipodi:nodetypes="ccccssssssssssssssssscc" id="path5873" d="m 148.30205,479.76695 c 0,0 77.5338,-104.6772 96.12001,-109.57845 l 75.45367,0.30426 c 31.80691,16.26551 92.82364,82.83515 107.97763,110.20905 -0.58425,1.60742 -5.80534,0.23429 -10.01327,1.54147 -3.19545,0.99265 -4.68411,4.72831 -9.61747,5.55187 -2.96317,0.49467 -7.62665,-2.22283 -11.12913,-1.78816 -3.42689,0.42529 -5.68196,4.00403 -9.56283,4.37261 -3.23828,0.30756 -7.1542,-1.70261 -10.66921,-1.43409 -3.08218,0.23546 -5.73355,2.75408 -9.00267,2.95983 -18.54189,1.16693 -39.89648,1.85815 -61.86146,2.09906 -5.3073,0.0582 -9.65025,-2.4099 -14.99775,-2.4039 -4.33697,0.005 -9.67694,2.493 -14.00335,2.4636 -5.02648,-0.0338 -9.53465,-3.5903 -14.49851,-3.66932 -5.82679,-0.0927 -12.09252,3.28356 -17.75516,3.12938 -4.92504,-0.13409 -9.5221,-3.29123 -14.26352,-3.47111 -4.33856,-0.16459 -8.83867,2.65179 -12.97914,2.44937 -3.4161,-0.167 -6.50756,-3.8468 -9.76249,-4.03924 -4.59818,-0.27187 -9.27366,2.93101 -13.4929,2.60903 -4.30878,-0.32881 -6.90246,-4.43356 -10.74532,-4.81382 -4.52488,-0.44775 -10.20201,2.81911 -13.97304,2.30127 -16.59025,-2.2782 -25.32067,-5.22818 -21.22409,-8.79268 z" style="display:inline;fill-opacity:1;fill:#ffffff;stroke-dasharray:none;stroke-linecap:butt;stroke-linejoin:miter;stroke-miterlimit:4;stroke-opacity:1;stroke-width:0;stroke:#000000"/><path sodipodi:nodetypes="ccccc" id="path5875" d="m 152.17092,472.23567 c 0,0 71.51747,-101.01092 89.72892,-105.58598 l 86.60624,-0.046 c 31.16558,15.183 82.73107,80.95254 97.57951,106.50464 -6.86845,18.00222 -293.7434,15.56386 -273.91467,-0.87262 z" style="display:inline;fill-opacity:1;fill:#1a1a1a;stroke-dasharray:none;stroke-linecap:butt;stroke-linejoin:miter;stroke-miterlimit:4;stroke-opacity:1;stroke-width:0;stroke:#000000"/><path style="display:inline;fill-opacity:1;fill:#ffffff;stroke-dasharray:none;stroke-linecap:butt;stroke-linejoin:miter;stroke-miterlimit:4;stroke-opacity:1;stroke-width:0;stroke:#83afc8" d="m 368.60057,502.77966 c -1.26153,1.37587 -20.52337,-7.04823 -26.54903,-6.12525 -5.66018,0.86196 -8.68087,0.60179 -14.62943,1.44517 -5.86359,2.18144 -21.47335,15.22842 -24.35752,13.71199 -2.13813,-1.9649 -5.22711,-34.42852 -3.16868,-34.94516 1.59321,-2.5154 25.14175,4.912 26.73176,4.53843 6.27626,-3.93574 8.01153,-1.95263 12.41992,-1.47682 1.46718,0.0432 25.46431,-12.86542 28.36591,-10.74611 0,0 7.19205,24.82551 1.18715,33.59817 z" id="path5877" sodipodi:nodetypes="cccccccccc"/><path sodipodi:nodetypes="ccsssssssssccsssssssssc" id="path5879" d="m 332.37618,482.76264 c -0.80293,1.33144 -2.76337,5.12558 -3.58695,5.75201 -0.21885,-0.40326 0.19813,-10.20527 -3.31779,-23.16583 -0.85162,-3.13928 -4.28978,-6.00776 -5.2932,-9.54299 -0.93795,-3.3046 0.0897,-7.13442 -0.90403,-10.68762 -0.92791,-3.31796 -4.26865,-6.2181 -5.25776,-9.65889 -1.01324,-3.52471 0.72846,-8.34829 -0.26595,-11.92473 -0.87672,-3.15315 -3.77621,-5.66827 -4.6849,-8.76719 -1.06724,-3.63959 -0.47961,-7.86067 -1.47755,-11.36373 -0.66166,-2.32264 -3.32684,-4.22137 -3.98803,-6.43359 -0.98519,-3.2963 -0.26408,-6.96961 -1.0894,-9.97302 -3.51135,-12.77809 -7.22554,-21.98105 -8.1034,-24.99793 -0.18402,-0.63244 -0.78111,-2.92917 -0.85141,-3.00974 2.23215,-0.70699 8.31422,10.60034 13.674,27.26708 0.91498,2.84522 -0.25417,6.33205 0.74097,9.42241 0.72306,2.24547 3.32081,4.29841 4.03818,6.64479 1.05775,3.45973 0.63371,7.74897 1.72008,11.31856 0.9986,3.28122 3.98011,5.72442 4.93255,9.04398 1.02514,3.57293 -0.0827,8.38234 0.91722,11.88051 0.97209,3.40082 3.90934,6.61992 4.79967,9.86369 0.89888,3.27497 -0.48237,7.31579 0.34694,10.32634 0.95344,3.46113 3.96111,6.09752 4.7554,9.09014 2.77128,10.44126 2.53139,18.0661 2.89536,18.91575 z" style="display:inline;fill-opacity:1;fill:#ffffff;stroke-dasharray:none;stroke-linecap:butt;stroke-linejoin:miter;stroke-miterlimit:4;stroke-opacity:1;stroke-width:0;stroke:#83afc8"/><path sodipodi:nodetypes="cssssssssssccsssssssssscc" id="path5881" d="m 257.35232,363.0451 c -7.30723,7.67108 -16.34474,14.1102 -22.0958,20.83405 -2.94785,3.44647 -2.8166,7.61941 -5.75048,10.71723 -3.31142,3.49646 -8.66108,5.69289 -11.38803,9.15404 -2.46828,3.13285 -2.35093,7.61357 -4.6274,10.63597 -2.62202,3.48117 -7.61139,5.66638 -10.06374,9.06446 -2.40375,3.33074 -2.27292,7.8753 -4.59999,11.19081 -1.92424,2.74156 -5.80393,4.62826 -7.65479,7.43187 -2.34077,3.54571 -2.18716,8.13777 -4.58581,11.81428 -1.82031,2.79005 -5.52863,4.51398 -7.39212,7.4404 -1.73443,2.72375 -1.63232,6.50806 -3.45948,9.36686 -2.66411,4.16831 -7.79018,8.37147 -10.67102,12.90302 -1.2387,-0.7538 -5.78568,-3.05446 -5.966,-3.30551 2.41345,-3.76676 8.34883,-7.71909 11.24838,-12.01854 1.80304,-2.67355 1.30208,-6.30845 3.23463,-9.13337 2.02522,-2.96036 6.87545,-5.36318 9.0349,-8.43444 2.31267,-3.28917 2.17686,-7.6319 4.5757,-10.99811 1.84077,-2.58309 5.71225,-4.30089 7.6055,-6.89035 2.36561,-3.23551 2.27564,-7.70968 4.66489,-10.92105 2.54483,-3.42047 7.56947,-5.57474 10.10614,-8.90558 2.1937,-2.88049 1.90272,-7.12967 4.06516,-9.89835 3.24336,-4.15263 8.79928,-6.88286 12.01223,-10.60693 3.16175,-3.66473 3.19503,-8.02042 6.08343,-11.22741 12.61027,-14.00116 25.36522,-22.0709 30.02406,-19.99415 -0.30519,0.34784 -4.13144,1.49847 -4.40036,1.7808 z" style="display:inline;fill-opacity:1;fill:#ffffff;stroke-dasharray:none;stroke-linecap:butt;stroke-linejoin:miter;stroke-miterlimit:4;stroke-opacity:1;stroke-width:0;stroke:#83afc8"/><path id="path5883" d="m 327.75566,497.5022 c -5.75405,2.04024 -21.09882,14.31645 -23.89431,12.9683 -2.06119,-1.76286 -4.73997,-31.10708 -2.72333,-31.59694 1.58914,-2.30053 24.50853,3.83013 26.06582,3.47491 2.4369,-0.12387 1.17885,3.19412 2.88161,3.18461 -2.15381,0.3281 0.59812,11.55369 -2.32979,11.96912 z" style="display:inline;fill-opacity:1;fill:#1a1a1a;stroke-dasharray:none;stroke-linecap:butt;stroke-linejoin:miter;stroke-miterlimit:4;stroke-opacity:1;stroke-width:0;stroke:#83afc8"/><path id="path5885" d="m 339.34934,480.88191 c 1.43192,0.0245 25.10154,-11.55794 27.90592,-9.66239 0,0 6.60434,22.13997 0.62405,30.16755 l -2e-5,-10e-5 c -1.25011,1.26221 -19.92605,-6.2435 -25.8214,-5.34465 -2.75187,0.41431 -4.79415,-10.61371 -6.93084,-10.61076 1.93283,-0.3581 1.71489,-3.99743 4.22229,-4.54965 z" style="display:inline;fill-opacity:1;fill:#1a1a1a;stroke-dasharray:none;stroke-linecap:butt;stroke-linejoin:miter;stroke-miterlimit:4;stroke-opacity:1;stroke-width:0;stroke:#83afc8"/><path style="display:inline;fill-opacity:1;fill:#ffffff;stroke-dasharray:none;stroke-linecap:butt;stroke-linejoin:miter;stroke-miterlimit:4;stroke-opacity:1;stroke-width:0;stroke:#83afc8" d="m 341.93133,496.52125 c -5.74074,2.58063 -8.79759,3.2068 -15.16625,1.54363 -1.97937,-5.87249 -2.4931,-12.07106 -0.60615,-16.17811 5.53665,-0.27785 7.89336,-0.45282 12.87893,-1.55304 3.95799,2.11686 3.16717,11.89401 2.89338,16.18753 z" id="path5888" sodipodi:nodetypes="cccccc"/><path style="display:inline;fill-opacity:1;fill:#1a1a1a;stroke-dasharray:none;stroke-linecap:butt;stroke-linejoin:miter;stroke-miterlimit:4;stroke-opacity:1;stroke-width:0;stroke:#83afc8" d="m 340.9075,496.33137 c -5.01665,2.21109 -7.69852,3.11695 -12.95508,1.25279 -1.80875,-5.6361 -2.3688,-11.56212 -0.83311,-15.45619 6.30309,-3.6216 7.50325,-1.96967 10.99648,-1.2949 3.42982,2.07897 2.94264,11.4029 2.79161,15.49854 z" id="path5890" sodipodi:nodetypes="cccccc"/><path style="display:inline;fill-opacity:1;fill:#ffffff;stroke-dasharray:none;stroke-linecap:butt;stroke-linejoin:miter;stroke-miterlimit:4;stroke-opacity:1;stroke-width:0;stroke:#83afc8" d="m 313.77589,380.22484 c -1.85865,1.41416 -25.01635,-11.64879 -32.89198,-11.54545 -7.39707,0.0912 -11.21691,-0.70823 -18.97976,-0.68606 -7.89148,1.61159 -25.68408,14.42639 -29.10634,12.1701 -2.38789,-2.6626 -0.58221,-41.39188 2.14391,-41.66425 2.48529,-2.70179 26.8061,9.8872 28.90735,9.70684 8.73082,-3.60988 10.59989,-0.9916 16.15753,0.28816 1.87009,0.29032 34.8727,-10.99264 38.21031,-8.02362 0,0 4.80061,30.40526 -4.441,39.75478 z" id="path5892" sodipodi:nodetypes="cccccccccc"/><path sodipodi:nodetypes="ccsssssssscsssssssc" id="path5894" d="m 300.80935,365.37436 c -0.68836,0.9912 -4.22224,-0.0759 -4.78789,0.24306 -0.50867,-13.28222 4.17527,-22.13724 6.2854,-39.04797 0.63203,-5.06512 -0.63043,-13.45253 0.20548,-18.60802 0.75679,-4.66748 4.84419,-9.34979 5.7569,-14.00669 1.13267,-5.77919 -0.86868,-11.51927 0.4858,-17.14335 1.39159,-5.77817 5.39488,-10.68391 6.99887,-16.13386 1.52977,-5.19777 0.65113,-10.95835 2.35453,-15.70943 2.35574,-6.57057 6.86839,-11.1448 9.51268,-16.53141 3.90254,-7.94973 6.0918,-15.90176 10.48658,-20.2412 0.32438,-0.32029 0.64988,-0.62908 0.97647,-0.92611 -3.99674,7.04372 -5.58074,15.5956 -8.79425,22.63467 -2.49849,5.47287 -6.77301,9.43799 -8.84343,14.88554 -2.11435,5.56311 -1.51583,11.8579 -3.22561,17.37386 -1.57276,5.07396 -5.48331,9.37354 -6.74811,14.39058 -1.50068,5.95275 0.45383,11.85969 -0.66396,17.70718 -0.95524,4.9972 -5.03071,9.95097 -5.74355,14.85282 -0.70392,4.84044 1.70198,12.63024 1.20118,17.36121 -1.54631,14.6076 -5.20321,25.65435 -5.45709,38.89912 z" style="display:inline;fill-opacity:1;fill:#ffffff;stroke-dasharray:none;stroke-linecap:butt;stroke-linejoin:miter;stroke-miterlimit:4;stroke-opacity:1;stroke-width:0;stroke:#83afc8"/><path sodipodi:nodetypes="ccssssssscssssssscc" id="path5896" d="m 257.16054,362.75307 c -0.68836,0.9912 -2.82579,-1.73278 -3.39144,-1.41379 -0.37269,-9.73158 -0.70877,-20.69679 -0.8256,-32.21201 -0.0702,-6.9179 2.94392,-14.56464 3.0716,-21.73134 0.0808,-4.53327 -2.79617,-8.55634 -2.61037,-13.09234 0.20964,-5.11793 3.6745,-10.3905 4.04501,-15.41027 0.51355,-6.95766 -1.98652,-13.59248 -1.09792,-20.11455 0.65478,-4.8059 4.427,-10.51525 5.32158,-14.94932 1.02898,-5.10026 0.89976,-11.59034 1.91557,-15.90331 2.3965,-10.17515 6.32321,-16.30417 12.04737,-21.51028 -4.83912,7.49122 -8.15575,13.90871 -9.97772,23.04242 -0.87328,4.37786 -0.58619,10.74138 -1.49671,15.58304 -0.80025,4.25531 -4.46778,9.67523 -5.01405,14.10846 -0.80389,6.52387 1.82554,13.03115 1.45463,19.7799 -0.28688,5.21977 -3.64708,10.65501 -3.74888,15.90799 -0.087,4.49163 2.88699,8.44891 2.89154,12.90488 0.008,7.74657 -2.88142,15.92785 -2.76351,23.33804 0.17961,11.28706 0.36398,22.01553 0.17887,31.67248 z" style="display:inline;fill-opacity:1;fill:#ffffff;stroke-dasharray:none;stroke-linecap:butt;stroke-linejoin:miter;stroke-miterlimit:4;stroke-opacity:1;stroke-width:0;stroke:#83afc8"/><path id="path5898" d="m 263.00877,367.34438 c -6.86092,1.46321 -26.23427,13.41368 -29.19899,11.37002 -2.06484,-2.41214 -0.4866,-37.40147 1.88248,-37.64912 2.16849,-2.44945 27.25075,8.50997 29.07658,8.34588 2.78907,0.25188 0.83659,3.95341 2.77329,4.22012 -2.49951,0.0349 -1.14033,13.70181 -4.53336,13.7131 z" style="display:inline;fill-opacity:1;fill:#1a1a1a;stroke-dasharray:none;stroke-linecap:butt;stroke-linejoin:miter;stroke-miterlimit:4;stroke-opacity:1;stroke-width:0;stroke:#83afc8"/><path id="path5900" d="m 280.22357,349.66662 c 1.82829,0.26255 34.17646,-9.51233 37.42934,-6.82266 0,0 4.52487,27.1472 -4.55308,35.62342 v -1.3e-4 c -1.82387,1.28219 -24.39462,-10.60374 -32.09921,-10.50756 -3.59547,0.0388 -4.25287,-13.27984 -6.98802,-13.6251 2.53724,-0.10617 2.90394,-4.42699 6.21097,-4.66797 z" style="display:inline;fill-opacity:1;fill:#1a1a1a;stroke-dasharray:none;stroke-linecap:butt;stroke-linejoin:miter;stroke-miterlimit:4;stroke-opacity:1;stroke-width:0;stroke:#83afc8"/><path style="display:inline;fill-opacity:1;fill:#ffffff;stroke-dasharray:none;stroke-linecap:butt;stroke-linejoin:miter;stroke-miterlimit:4;stroke-opacity:1;stroke-width:0;stroke:#83afc8" d="m 278.75367,367.75297 c -7.80505,2.10166 -9.82842,3.09006 -17.68425,0.0923 -1.4915,-7.23777 -1.04937,-14.62028 2.09424,-19.14826 7.13533,0.57649 8.1826,0.005 14.75852,-0.47668 4.69006,3.13855 1.94346,14.52183 0.83138,19.53267 z" id="path5902" sodipodi:nodetypes="cccccc"/><path style="display:inline;fill-opacity:1;fill:#1a1a1a;stroke-dasharray:none;stroke-linecap:butt;stroke-linejoin:miter;stroke-miterlimit:4;stroke-opacity:1;stroke-width:0;stroke:#83afc8" d="m 277.10203,367.86229 c -6.81278,1.78473 -8.03087,2.66364 -14.42773,-0.3893 -1.31507,-6.93158 -0.98055,-14.00072 1.67569,-18.33526 8.70945,-3.23561 7.57743,-1.34461 11.9285,0.02 4.02082,3.00774 1.74324,13.90693 0.82336,18.70478 z" id="path5904" sodipodi:nodetypes="cccccc"/><path style="display:inline;fill-opacity:1;fill:#1a1a1a;stroke-dasharray:none;stroke-linecap:butt;stroke-linejoin:miter;stroke-miterlimit:4;stroke-opacity:1;stroke-width:0;stroke:#83afc8" d="m 305.87224,222.21733 c -0.45343,1.1261 -0.93755,1.64261 -1.30992,2.61597 -1.08472,-9.83839 -13.98297,-21.44959 -15.50771,-25.41569 0.30878,-0.3607 0.94227,-1.04539 1.36879,-1.63093 0.34127,1.91591 14.70506,16.00518 15.27204,23.37042 z" id="path5906" sodipodi:nodetypes="cccccc"/><path style="display:inline;fill-opacity:1;fill:#1a1a1a;stroke-dasharray:none;stroke-linecap:butt;stroke-linejoin:miter;stroke-miterlimit:4;stroke-opacity:1;stroke-width:0;stroke:#83afc8" d="m 284.7864,219.81889 c 0.89028,1.01267 1.34082,0.97715 2.07195,1.85246 2.12978,-8.84735 28.8713,-20.62478 31.0647,-22.15359 -0.53142,-0.54893 -1.02241,-1.16575 -1.60078,-2.02642 -1.82631,1.12917 -30.07551,14.7508 -31.18874,21.37412 z" id="path5908" sodipodi:nodetypes="cccccc"/><path sodipodi:nodetypes="cssssssscssssssscc" id="path5910" d="m 336.39247,207.55942 c -3.08103,2.5253 -5.59756,6.26249 -8.58715,8.06792 -2.60954,1.5759 -5.70579,1.30118 -8.21274,2.38327 -2.97468,1.28397 -5.42439,3.56407 -8.20739,4.23121 -3.05414,0.73213 -6.41937,-0.20739 -9.17792,-0.11065 -2.54037,0.0891 -5.38297,0.72809 -7.61746,0.36995 -3.00239,-0.48122 -5.32161,-2.35206 -7.61591,-3.53383 -2.76925,-1.42642 -6.81922,-0.72621 -8.39977,-2.74187 -2.16886,-2.76596 -1.65911,-7.43152 -1.20583,-10.25321 -0.16631,1.59936 1.26371,3.74817 4.45127,5.18615 1.65026,0.74448 4.38394,0.003 6.71108,0.55078 2.31024,0.54413 4.56314,1.93803 7.39169,2.18607 1.92312,0.16864 4.37778,-0.51493 6.4523,-0.46769 2.57061,0.0586 5.67806,1.34361 8.38559,1.18838 3.11822,-0.17878 5.85024,-1.8352 8.99918,-2.34077 2.49556,-0.40067 5.50573,0.67976 7.92966,0.0478 3.20681,-0.83609 5.78542,-3.47569 8.7034,-4.76349 z" style="display:inline;fill-opacity:1;fill:#ffffff;stroke-dasharray:none;stroke-linecap:butt;stroke-linejoin:miter;stroke-miterlimit:4;stroke-opacity:1;stroke-width:0;stroke:#83afc8"/><path style="display:inline;fill-opacity:1;fill:#ffffff;stroke-dasharray:none;stroke-linecap:butt;stroke-linejoin:miter;stroke-miterlimit:4;stroke-opacity:1;stroke-width:0;stroke:#83afc8" d="m 319.28311,252.17778 c -0.0967,-1.35041 -0.65455,-1.61923 -0.69335,-2.76127 -18.35158,-0.21551 -52.79273,-3.34505 -56.7681,-3.62799 0.1093,0.76405 0.10839,1.55293 -0.017,2.58364 11.40029,1.02084 39.20366,4.29703 57.47857,3.80562 z" id="path5912" sodipodi:nodetypes="ccccc"/><path style="display:inline;fill-opacity:1;fill:#ffffff;stroke-dasharray:none;stroke-linecap:butt;stroke-linejoin:miter;stroke-miterlimit:4;stroke-opacity:1;stroke-width:0;stroke:#83afc8" d="m 316.1339,264.24306 c -0.0983,-1.35041 -0.66562,-1.61923 -0.70508,-2.76127 -18.662,-0.21551 -53.68574,-3.34505 -57.72835,-3.62799 0.11114,0.76405 0.11022,1.55293 -0.0173,2.58364 11.59313,1.02084 39.8668,4.29703 58.45084,3.80562 z" id="path5914" sodipodi:nodetypes="ccccc"/><path style="display:inline;fill-opacity:1;fill:#ffffff;stroke-dasharray:none;stroke-linecap:butt;stroke-linejoin:miter;stroke-miterlimit:4;stroke-opacity:1;stroke-width:0;stroke:#83afc8" d="m 309.94673,277.32454 c -0.0879,-1.35041 -0.59517,-1.61923 -0.63045,-2.76127 -16.68657,-0.21551 -48.00295,-3.34505 -51.61764,-3.62799 0.0994,0.76405 0.0985,1.55293 -0.0155,2.58364 10.36596,1.02084 35.64679,4.29703 52.26366,3.80562 z" id="path5921" sodipodi:nodetypes="ccccc"/><path sodipodi:nodetypes="cccccccccc" id="path1674-1-4-3-7" d="m 174.95416,498.26644 c -0.94254,0.87836 -12.99463,-6.26384 -16.74654,-7.05301 -3.52369,-0.74575 -5.30858,-1.77924 -9.00349,-2.61814 -3.82139,0.36449 -14.237,6.13747 -15.77285,4.03174 -1.02695,-2.30291 2.57012,-25.69455 3.87855,-25.60263 1.29359,-1.79566 12.62509,6.53404 13.6324,6.62753 4.30287,-1.80268 5.08476,0.40909 7.67684,2.00219 0.87798,0.42859 17.04584,-4.57591 18.51215,-1.93356 0,0 2.60456,18.40313 -2.17709,24.54627 z" style="display:inline;fill-opacity:1;fill:#ffffff;stroke-dasharray:none;stroke-linecap:butt;stroke-linejoin:miter;stroke-miterlimit:4;stroke-opacity:1;stroke-width:0;stroke:#83afc8"/><path style="display:inline;fill-opacity:1;fill:#1a1a1a;stroke-dasharray:none;stroke-linecap:butt;stroke-linejoin:miter;stroke-miterlimit:4;stroke-opacity:1;stroke-width:0;stroke:#83afc8" d="m 149.48435,488.15692 c -3.73666,0.26902 -13.89032,5.43238 -15.39511,3.49876 -1.00743,-2.10415 2.42253,-22.63397 3.70224,-22.52954 1.26262,-1.60713 12.38734,5.41084 13.37249,5.51182 1.48424,0.53925 0.28593,3.13233 1.31282,3.5771 -1.34084,-0.28368 -1.17374,10.35449 -2.99244,9.94186 z" id="path5755-7-0-7" sodipodi:nodetypes="cccccc"/><path style="display:inline;fill-opacity:1;fill:#1a1a1a;stroke-dasharray:none;stroke-linecap:butt;stroke-linejoin:miter;stroke-miterlimit:4;stroke-opacity:1;stroke-width:0;stroke:#83afc8" d="m 158.67417,476.57616 c 0.85922,0.4027 16.65374,-3.51868 18.09119,-1.09966 0,0 2.60714,15.87691 -2.06075,21.36913 l 1e-5,-1e-4 c -0.92057,0.7811 -12.74168,-5.39476 -16.41192,-6.17054 -1.71252,-0.36676 -1.4784,-10.64174 -2.76577,-11.20777 1.21173,0.1984 1.56366,-3.07107 3.14724,-2.89106 z" id="path1682-7-73-9-4" sodipodi:nodetypes="ccccccc"/><path sodipodi:nodetypes="cccccc" id="path1684-01-7-6-1" d="m 158.11754,491.66876 c -3.80243,0.78402 -5.72647,0.51776 -9.33545,-2.74992 -0.40069,-5.91133 0.12461,-11.71863 1.81316,-14.95534 3.36959,1.26504 4.81151,1.75168 7.96013,2.11377 2.0971,3.02102 0.3049,11.74172 -0.4379,15.59147 z" style="display:inline;fill-opacity:1;fill:#ffffff;stroke-dasharray:none;stroke-linecap:butt;stroke-linejoin:miter;stroke-miterlimit:4;stroke-opacity:1;stroke-width:0;stroke:#83afc8"/><path sodipodi:nodetypes="cccccc" id="path1686-2-6-6-7" d="m 157.52691,491.21428 c -3.31689,0.64488 -5.05289,0.73717 -7.96553,-2.40913 -0.32982,-5.64843 0.13092,-11.21928 1.5794,-14.35767 4.28102,-1.58132 4.78092,0.2581 6.79243,1.83329 1.78433,2.84146 0.23589,11.23115 -0.40638,14.9337 z" style="display:inline;fill-opacity:1;fill:#1a1a1a;stroke-dasharray:none;stroke-linecap:butt;stroke-linejoin:miter;stroke-miterlimit:4;stroke-opacity:1;stroke-width:0;stroke:#83afc8"/></svg>
