<svg viewBox="0 0 560 1000"><path style="display:inline;fill-opacity:1;fill:#000000;opacity:1" sodipodi:nodetypes="cccccccccccccc" d="m 236.73004,270.99741 c -0.12551,1.89685 -0.19342,3.79183 -0.202,5.67824 -1.0239,15.07531 2.80819,29.67342 3.60488,40.56382 -3.86145,27.95678 -21.32026,66.46069 -15.28825,96.13701 16.36196,-0.34408 104.98705,6.63456 137.96167,6.61996 3.59719,-28.67922 -6.18662,-50.73071 -12.83359,-66.18321 2.96158,-22.13208 14.98372,-46.29708 16.88773,-72.24229 -20.00731,-23.65544 -37.44304,-58.20381 -37.48946,-76.57605 -5.0856,-1.53654 -9.2662,-4.20037 -11.97165,-6.99799 -0.44453,1.7818 -1.99968,15.88708 -2.14306,17.33056 -12.09829,5.75915 -27.87745,3.2969 -33.51216,-1.00011 0.88357,-3.08367 2.87976,-7.82151 6.26875,-14.36009 -2.95309,1.88608 -8.68497,4.12374 -12.65394,6.03362 -26.99954,15.36213 -36.49699,49.48545 -38.62892,64.99653 z" id="path11635-4"/><path sodipodi:nodetypes="cccsssccssccsssssccccc" id="path11637-0" d="m 341.20969,338.33628 c -29.21784,29.22016 4.58981,56.94846 10.84455,74.44711 -40.10653,11.44456 -68.87212,43.77714 -69.64379,46.11491 -0.78385,1.88787 -1.52083,7.17046 -4.01773,8.95087 -1.21712,0.86786 -3.81296,-0.28396 -4.0649,-0.30806 -0.29397,-0.0276 -0.90793,1.12097 -3.12075,0.54862 -5.65546,-1.4629 -6.42904,-6.68611 -7.00115,-8.63681 -17.98917,-22.24927 -34.48124,-43.66029 -39.20665,-44.84924 7.94787,-20.31139 14.53739,-34.53836 15.52113,-39.64488 2.40743,-12.49684 4.56181,-31.04119 4.51599,-33.91997 -0.31392,-19.72394 -6.06705,-33.34387 -6.95608,-45.88123 -2.57193,-41.40752 -2.02222,-78.72342 45.05802,-94.18908 1.01736,-0.38611 3.91029,-7.60359 4.38199,-7.58682 0.0625,0.002 0.87941,0.21258 1.09234,0.25439 0.10106,0.0198 1.21458,-8.19442 1.06573,-10.68266 -0.39821,-6.65664 17.38652,-8.92202 24.52461,-9.90337 0.0892,-0.0123 2.05342,20.69408 2.14258,20.68153 1.81469,-0.25539 1.49055,-0.38138 3.26317,-0.74859 0.97035,2.05878 1.7563,4.98559 2.89961,6.71944 1.48672,1.12706 13.50726,6.48585 14.03914,7.82821 25.85476,-7e-4 34.52747,29.08831 35.71943,48.98087 1.55035,31.27451 -15.4954,61.93175 -31.05724,81.82476 z" style="display:inline;fill-opacity:1;fill-rule:evenodd;fill:#333333;opacity:1;stroke-dasharray:none;stroke-linecap:butt;stroke-linejoin:miter;stroke-miterlimit:4;stroke-opacity:1;stroke-width:0;stroke:#000000"/><path sodipodi:nodetypes="cssccc" id="path11641-6" d="m 284.70103,205.89909 c 8.47908,3.49973 16.78281,4.10456 33.81887,1.06136 0,0 -1.86037,-13.36895 -2.09459,-13.34424 -11.75085,1.23945 -23.23623,0.32794 -27.85733,-0.2623 -0.14584,0.19372 -3.86695,12.54521 -3.86695,12.54521 z" style="display:inline;fill-opacity:1;fill:#c8c8c8;opacity:1;stroke-dasharray:none;stroke-linecap:butt;stroke-linejoin:miter;stroke-miterlimit:4;stroke-opacity:1;stroke-width:0;stroke:#000000"/><path sodipodi:nodetypes="ccccsssccsscsssscc" id="path11643-9" d="m 361.40261,305.97535 c -7.52713,18.00939 -19.1876,29.44411 -20.19292,30.66943 -29.21784,29.59557 4.58981,57.68011 10.84455,75.40358 -35.33356,15.83423 -68.06904,43.07392 -69.54782,47.1211 -0.78385,1.91213 -1.39675,7.02336 -3.89365,8.82664 -1.21712,0.87901 -4.18926,0.0916 -4.4412,0.0672 -0.29397,-0.0279 -1.1191,0.72745 -3.33192,0.14775 -5.65546,-1.48169 -6.14243,-6.77201 -6.71454,-8.74778 -17.10528,-23.95405 -37.31725,-43.48314 -39.12584,-45.57125 7.94787,-20.57234 14.53739,-34.98209 15.52113,-40.15422 2.40743,-12.65739 4.56181,-31.43999 4.51599,-34.35576 -0.31392,-19.97734 -5.53672,-34.3094 -6.42575,-47.00783 12.59934,-7.37331 22.6277,-11.7502 32.92035,-13.2011 2.27355,-0.3205 4.80632,-6.21689 7.13623,-6.25261 1.73702,-0.0266 3.36824,-0.0535 5.45588,0.26764 2.05379,0.31597 3.34168,5.89267 5.27067,6.26046 17.29016,3.29664 38.40933,11.75212 72.00885,26.52674 z" style="display:inline;fill-opacity:1;fill-rule:evenodd;fill:#000000;opacity:1;stroke-dasharray:none;stroke-linecap:butt;stroke-linejoin:miter;stroke-miterlimit:4;stroke-opacity:1;stroke-width:0;stroke:#000000"/><path sodipodi:nodetypes="ccccsssccccsssscc" id="path11645-6" d="m 360.51873,307.70681 c -6.81137,17.75953 -10.48575,32.26269 -11.565,45.60011 8.19359,21.82367 15.40737,39.88152 13.85051,66.97647 -40.10653,11.44456 -79.6317,36.58888 -80.40337,38.92665 -0.78385,1.88787 -1.2912,6.47836 -3.7881,8.25877 -1.21712,0.86786 -4.18926,0.0964 -4.4412,0.0723 -0.29397,-0.0276 -0.7441,0.846 -2.95692,0.27365 -5.65546,-1.4629 -6.01099,-5.87323 -6.5831,-7.82393 -33.43111,-16.74711 -34.90687,-44.1982 -39.63228,-45.38715 -3.15412,-31.84685 13.90784,-74.4148 16.29007,-97.51002 -0.34145,-5.66966 -3.09363,-17.68164 -3.56258,-23.35027 12.59934,-7.27978 23.51158,-10.71727 33.80423,-12.14977 2.27355,-0.31643 4.80632,-6.13803 7.13623,-6.1733 1.73702,-0.0263 3.36824,-0.0528 5.45588,0.26425 2.05379,0.31196 3.34168,5.81792 5.27067,6.18105 17.29016,3.25482 37.52545,11.25398 71.12497,25.84119 z" style="display:inline;fill-opacity:1;fill-rule:evenodd;fill:#c8c8c8;opacity:1;stroke-dasharray:none;stroke-linecap:butt;stroke-linejoin:miter;stroke-miterlimit:4;stroke-opacity:1;stroke-width:0;stroke:#000000"/><path style="display:inline;fill-opacity:1;fill-rule:evenodd;fill:#000000;opacity:1;stroke-dasharray:none;stroke-linecap:butt;stroke-linejoin:miter;stroke-miterlimit:4;stroke-opacity:1;stroke-width:0;stroke:#000000" d="m 282.45842,458.56662 c -0.27835,0.87834 -1.09442,7.30349 -3.59097,9.21774 -0.26922,0.20641 -1.13559,1.14752 -4.57861,0.28177 -0.17398,-0.0437 -1.37228,0.71664 -3.61539,0.0361 -5.82941,-1.76869 -6.22252,-8.10904 -6.31915,-8.53686 8.23205,-5.09165 11.4291,-4.00072 18.10412,-0.99875 z" id="path11647-8" sodipodi:nodetypes="cssscc"/><path style="display:inline;fill-opacity:1;fill-rule:evenodd;fill:#c8c8c8;opacity:1;stroke-dasharray:none;stroke-linecap:butt;stroke-linejoin:miter;stroke-miterlimit:4;stroke-opacity:1;stroke-width:0;stroke:#000000" d="m 282.65569,458.4011 c -0.78318,1.88787 -2.10206,7.06063 -4.59684,8.84104 -1.21608,0.86786 -3.67141,-0.009 -3.92314,-0.0331 -0.29372,-0.0276 -0.96753,0.96577 -3.15689,0.31564 -4.33861,-1.28834 -5.1633,-4.97917 -6.6404,-7.92987 7.24395,-6.87766 11.19968,-9.59173 18.31727,-1.19371 z" id="path11649-2" sodipodi:nodetypes="cssscc"/><path sodipodi:nodetypes="ccccc" id="path11651-4" d="m 264.82065,278.49107 c -0.0385,0.10483 -5.46248,3.46698 -5.52549,3.54379 3.92723,27.86177 -5.75934,106.08469 -15.35713,149.48007 0.14099,0.46278 0.14882,0.68187 0.54193,0.6861 10.44835,-26.60225 20.34069,-153.70996 20.34069,-153.70996 z" style="display:inline;fill-opacity:1;fill:#333333;opacity:1;stroke-dasharray:none;stroke-linecap:butt;stroke-linejoin:miter;stroke-miterlimit:4;stroke-opacity:1;stroke-width:0;stroke:#000000"/><path sodipodi:nodetypes="cccc" id="path11653-2" d="m 303.35029,280.35522 c 0.0385,0.10527 5.46248,3.48145 5.52549,3.55859 -7.78598,18.03785 -20.29212,104.09437 -2.94441,153.45275 -22.17556,-43.19241 -2.58108,-157.01134 -2.58108,-157.01134 z" style="display:inline;fill-opacity:1;fill:#333333;opacity:1;stroke-dasharray:none;stroke-linecap:butt;stroke-linejoin:miter;stroke-miterlimit:4;stroke-opacity:1;stroke-width:0;stroke:#000000"/><path sodipodi:nodetypes="cccsc" id="path11655-5" d="m 354.74028,324.76207 c 0.0385,0.10316 -1.25503,1.64384 -1.19202,1.71943 -24.98357,0.30989 -43.91864,-0.63546 -56.69441,8.89914 0.20285,-0.37473 0.17796,-2.72538 0.45322,-3.07491 8.90331,-11.30529 57.43321,-7.54366 57.43321,-7.54366 z" style="display:inline;fill-opacity:1;fill:#333333;opacity:1;stroke-dasharray:none;stroke-linecap:butt;stroke-linejoin:miter;stroke-miterlimit:4;stroke-opacity:1;stroke-width:0;stroke:#000000"/><path sodipodi:nodetypes="cccsc" id="path11657-5" d="m 239.06399,324.78554 c -0.0116,0.10316 0.37869,1.64384 0.35969,1.71943 7.5386,0.30989 16.22304,2.22957 20.07804,8.22864 -0.0612,-0.37473 0.0237,-2.75347 -0.13676,-3.07491 -3.12846,-6.26715 -20.30097,-6.87316 -20.30097,-6.87316 z" style="display:inline;fill-opacity:1;fill:#333333;opacity:1;stroke-dasharray:none;stroke-linecap:butt;stroke-linejoin:miter;stroke-miterlimit:4;stroke-opacity:1;stroke-width:0;stroke:#000000"/><path sodipodi:nodetypes="ccc" id="path4386-3-8-7-4-2" class="shadow" d="m 361.65568,418.87719 c -57.72912,16.19068 -75.03655,31.01041 -77.60915,35.74635 10.29989,-9.14088 62.75953,-31.03541 77.60915,-35.74635 z"/><path sodipodi:nodetypes="ccc" id="path4388-4-6-2-3-7" class="shadow" d="m 260.91357,455.47548 c -6.81704,-9.41592 -28.83006,-31.99347 -34.93819,-34.15183 5.05404,5.44075 26.5203,25.35081 34.93819,34.15183 z"/></svg>
