<svg viewBox="0 0 560 1000"><path d="m 225.8,413.1 c 0,0 -22.14852,39.87228 -23.29497,68.51492 C 198.70503,541.91492 215,608.9 237.1,664.9 c 7.5,61.7 14.8,123 17.3,185.1 l 11.5,-0.3 c 2.3,-52.9 39.2,-99.2 20.2,-160.8 13.6,-57.7 6.2,-71.9 1,-161 -5.4,94.3 4.4,110.4 14.2,154.8 -15.6,58 17.8,109.6 18.6,167.8 h 16.3 c 0.2,-58.5 16.4,-95.2 8.5,-169.5 23.8,-69.9 44.2747,-144.9934 39.4747,-208.3934 -3.35528,-37.31145 -32.71901,-66.98036 -40.61356,-74.13075 L 225.8,413.1" id="path2833" sodipodi:nodetypes="cccccccccccccc" style="fill-opacity:1;fill:#808080"/><path d="M 289.6,630.9 C 279.8,590.6 268.8,530 272.8,483.8 c -0.8,44.7 7.6,106.4 16.8,147.1 z" class="shadow" id="path2835"/><path d="m 226.3,412.5 c 27.9,-30 93.7,-36.4 123.8,-1.4 18.2,21.2 25.4,60.2 7,78.9 -8.2,8.3 -22.1,13.3 -35,11 -24.2,-4.4 -25.9,-31.9 -47.3,-34.5 C 256.7,464.3 248.5,483 231,478 220.9,475.1 221.28701,468.07973 218.48701,460.07973 216.5943,437.63189 223.7,415.2 226.3,412.5 Z" id="Stump_Normal-3-6" sodipodi:nodetypes="cccccccc" style="fill-opacity:1;fill:#808080"/><path d="m 226.3,412.5 c 20,-34.8 104.4,-37.1 124,-1.5 11.9,21.7 1.4,60.5 -22.3,72 -0.8,0.4 -20.2,9.5 -34,1 -9.5,-5.8 -10.3,-16.2 -19.3,-17.5 -6.4,-1 -8.4,3.9 -17.8,5.5 -9.2,1.5 -18.7,-1.3 -24,-5 -14.1,-9.8 -16,-38.2 -6.6,-54.5 z" id="Stump_Narrow-10-3" style="fill-opacity:1;fill:#808080"/><path style="display:inline;fill-opacity:1;fill:#b3b3b3;stroke-width:0.94552505" sodipodi:nodetypes="cssssccccssssssssccccssssssssccccsssssscccsc" id="path2496-4-8-3-3-1" d="m 333.83345,829.57196 c -0.14663,-9.66929 0.35555,-28.36645 0.94632,-49.37836 0.008,-0.27199 7.7397,0.2662 7.77299,-0.005 0.48863,-3.97529 1.23025,-8.4699 1.47091,-12.74908 0.014,-0.24939 -9.03788,-0.52095 -9.03094,-0.77088 0.92867,-33.42349 1.91472,-69.16605 0.67629,-82.22479 -0.0124,-0.13082 9.38388,-0.19198 9.37103,-0.31821 -0.12857,-1.01983 -0.18488,-2.52394 -0.23143,-2.77868 0.0562,-0.33413 1.34466,-4.32082 1.52046,-5.17952 -0.31027,0.031 -5.42083,0.16068 -10.49768,0.12598 -0.0571,-3.9e-4 0.47581,-21.35725 -4.90634,-51.35531 -0.0819,-0.4566 31.86736,-0.53335 31.98734,-0.98535 1.10649,-4.16901 3.55394,-11.46459 3.90423,-14.36685 0.0548,-0.45421 -38.24226,1.83151 -38.27301,1.37268 -1.4497,-21.63088 -6.65148,-52.40333 -8.05018,-73.01871 -0.0312,-0.45943 61.36585,0.068 61.40241,-0.38975 0.54054,-6.76801 2.17338,-14.9761 1.85365,-19.30214 -0.0432,-0.58461 -64.43071,0.093 -64.49453,-0.48573 -4.30542,-44.85649 14.60227,-65.15936 41.67673,-100.01164 -1.87036,-3.6521 -5.82394,-7.41913 -6.53849,-8.06776 -35.66653,39.36299 -58.92827,66.59486 -56.19049,108.95616 0.0315,0.32654 -24.52312,0.4614 -24.49106,0.78835 0.6152,6.27414 0.70276,13.19592 1.51057,19.57017 0.0404,0.31888 24.24247,-1.68175 24.2833,-1.36278 3.22921,25.22594 8.11642,51.41496 12.49448,73.35846 0.0521,0.2611 -26.09035,2.47165 -26.03828,2.73181 0.93429,4.66834 1.82646,9.00087 2.80504,13.3312 0.06,0.2656 26.02723,-2.1087 26.08318,-1.84366 6.354,30.09637 11.78578,51.00052 11.7006,50.99983 -6.89693,-0.0557 -25.81651,0.44173 -26.68317,0.52733 0.11519,0.90904 0.95291,4.79238 1.10496,5.22553 -0.0321,0.25866 -0.28734,1.68336 -0.50822,2.6519 -0.003,0.14114 26.79344,-0.0519 26.78998,0.10209 -0.22573,10.06683 -0.96754,47.2983 -1.60548,81.40691 -0.006,0.29528 -21.26607,0.32738 -21.22974,0.62004 0.57925,4.66593 2.841,11.75787 3.25145,13.6516 0.0814,0.37568 17.97361,-0.24866 17.96696,0.13377 -0.40944,23.55211 -1.02271,43.63116 -0.85286,48.89443 0.0115,0.35502 -5.8584,0.94802 -5.80737,1.30181 0.75002,5.19982 1.28341,15.05954 1.14876,19.76236 8.60784,0.43817 16.69164,-0.0977 16.69164,-0.0977 l 0.41703,-20.31547 c 0,0 -3.39525,-0.12455 -3.40103,-0.50581 z"/><path style="display:inline;fill-opacity:1;fill:#b3b3b3;stroke-width:0.94552505" sodipodi:nodetypes="csssscccssssssssccccsssssssscccsssssscccsc" id="path2496-4-8-1-5-6-0" d="m 261.34979,828.41197 c -0.14663,-9.66929 -0.43995,-27.92451 0.15082,-48.93642 0.008,-0.27199 20.38486,0.79168 20.43981,0.52403 0.79799,-3.8869 3.01058,-8.93774 3.47221,-12.37723 0.0332,-0.24756 -23.7855,-1.86378 -23.77856,-2.11371 0.92867,-33.42349 2.87811,-68.90088 1.63968,-81.95962 -0.0124,-0.13082 23.92707,1.09807 23.91422,0.97184 0.36305,-3.06002 1.48471,-5.51891 1.69972,-8.20452 -0.45962,0.0459 -15.65956,-0.9427 -24.88628,-1.13622 -0.13282,-0.003 -2.23467,-19.88171 -8.24509,-48.23447 -0.0524,-0.24702 32.91418,0.53126 32.90865,0.27748 -0.0191,-0.87711 -2.55925,-10.58476 -2.8654,-13.49065 -0.0376,-0.35668 -32.34852,-0.6052 -32.41884,-0.95884 -4.32175,-21.73601 -10.1397,-48.60806 -12.52649,-72.93168 -0.0693,-0.70655 33.05031,0.11576 32.98406,-0.58998 -0.61943,-6.59885 -1.08088,-12.49278 -1.57054,-19.8288 -0.0359,-0.53741 -32.55278,1.14971 -32.57649,0.61323 2.10374,-62.22402 -13.78389,-98.81426 -16.00302,-102.79575 0.32286,-2.75119 -6.75884,11.33453 -6.81635,13.73052 5.96498,25.16653 4.51371,43.7113 4.76783,89.55352 0.0172,0.26978 -19.03706,1.21944 -19.01952,1.48914 0.41576,6.3906 1.21577,13.34979 1.81582,19.65297 0.0261,0.27445 18.48829,-1.25431 18.51473,-0.98011 2.53365,26.27891 11.67996,51.62657 15.60393,72.81818 0.0348,0.18808 -18.90328,0.86645 -18.86845,1.05393 0.89561,4.82061 3.45072,11.55117 4.68678,14.97218 0.0866,0.23979 16.91409,-1.74582 16.9642,-1.49731 5.78934,28.70444 12.7545,46.96223 12.53788,46.95977 -2.97529,-0.0338 -15.00925,0.7282 -15.53521,0.7804 0.12826,1.42381 0.84039,7.3504 1.12708,8.76131 -0.003,0.14114 15.30694,-1.12955 15.30348,-0.97557 -0.22573,10.06683 0.90746,47.4233 0.26952,81.53191 -0.006,0.29528 -6.67794,0.36955 -6.66648,0.66424 0.1815,4.66593 1.03927,11.60699 1.2287,13.81008 0.0329,0.38299 4.96358,-0.66477 4.96566,-0.28229 0.0325,5.96283 0.92184,43.71955 1.09169,48.98282 0.0115,0.35502 -2.24256,1.17582 -2.22987,1.53305 0.1313,3.69722 0.88789,15.44702 0.75324,20.14984 8.60784,0.43817 12.00706,-0.36287 12.00706,-0.36287 0.21814,-6.83383 1.22923,-13.35915 2.1406,-19.96191 0,0 -6.97498,-0.83166 -6.98076,-1.21292 z"/></svg>
