<svg viewBox="0 0 560 1000"><path style="display:inline;fill-opacity:1;fill-rule:evenodd;fill:#000000;opacity:1;stroke-dasharray:none;stroke-linecap:butt;stroke-linejoin:miter;stroke-miterlimit:4;stroke-opacity:1;stroke-width:0;stroke:#000000" d="m 370.3969,269.0128 c 0.40069,1.40387 -1.11583,12.72289 -8.30489,37.60241 -5.42713,18.7819 -12.19382,45.10812 -12.7902,46.5662 0.0897,2.34411 6.53818,14.05382 8.99405,26.00841 -36.77086,9.58655 -110.59778,11.99867 -129.46954,-6.85783 2.433,-12.49684 9.93148,-36.52371 11.94649,-51.5937 -2.13048,-7.70551 -3.08737,-14.72592 -4.11084,-28.13828 0.40962,-35.13389 30.30326,-40.0847 52.38713,-59.43686 0.97617,-2.02088 2.05999,-19.89061 -11.85024,-27.17009 -0.63873,-0.33426 8.50566,-6.43477 11.03019,-11.08711 10.43463,3.8499 24.81641,-0.002 28.20854,-0.86431 2.73996,3.91129 10.76982,9.42533 9.55433,10.22428 -25.72677,16.91039 -30.9022,28.84774 -29.45936,29.06832 3.13994,1.52155 66.54554,33.43249 67.65165,34.25705 z" id="path4927" sodipodi:nodetypes="csccccccsccsccc"/><path style="display:inline;fill-opacity:1;fill-rule:evenodd;fill:#d4aa00;opacity:1;stroke-dasharray:none;stroke-linecap:butt;stroke-linejoin:miter;stroke-miterlimit:4;stroke-opacity:1;stroke-width:0;stroke:#000000" d="m 360.51873,307.70681 c -5.91469,18.86306 -11.3485,40.65759 -11.27871,44.67604 0.49582,5.07437 6.22897,14.87586 8.60406,26.14521 -31.28229,8.06681 -114.6775,12.03087 -127.27987,-7.27988 1.41111,-4.24145 10.72754,-45.56108 11.32053,-50.51049 -2.20191,-8.47425 -3.26007,-13.82305 -4.1491,-26.36041 -3.37265,-53.10898 5.76723,-81.27991 39.20048,-88.39617 0.49229,-0.51848 9.06754,-5.84416 11.38825,-10.15275 6.27493,2.2874 16.17671,2.37275 27.87993,-0.86431 3.74062,5.41389 19.81132,11.22421 20.3432,12.56657 2.58742,0.19199 9.57783,0.93138 12.62329,2.06534 33.53732,18.21703 23.79777,65.06109 11.34794,98.11085 z" id="path4929" sodipodi:nodetypes="cccccccccccc"/><path sodipodi:nodetypes="ccssssccccc" id="path1736-8" d="m 362.3043,413.36134 c -51.41983,14.7906 -68.20816,27.42745 -79.17838,44.98517 -1.04023,1.75909 -1.92047,7.35117 -4.50173,9.70959 -0.97785,0.89343 -3.70051,-0.0277 -4.03805,0.0431 -0.91345,0.19159 -2.09488,0.29968 -2.84109,0.24274 -1.3589,-0.10369 -3.10427,-0.97079 -4.62926,-2.64607 -1.15035,-1.26373 -2.1753,-2.98733 -2.81436,-5.19001 -7.02893,-7.18923 -29.10352,-25.91869 -38.34145,-47.86102 0.0176,-0.005 -0.05,-0.20603 0.59439,-1.93851 29.91996,7.91079 50.09635,9.90066 135.84413,-2.71761 0,0 -0.0757,5.36388 -0.0942,5.37262 z" style="display:inline;fill-opacity:1;fill-rule:evenodd;fill:#d4aa00;opacity:1;stroke-dasharray:none;stroke-linecap:butt;stroke-linejoin:miter;stroke-miterlimit:4;stroke-opacity:1;stroke-width:0;stroke:#000000"/><path sodipodi:nodetypes="cccccc" id="path1738-2" d="m 225.9378,412.66104 c 0.12717,-0.79329 0.24724,-0.90642 0.25482,-0.95601 23.02972,9.12926 67.15581,11.20593 136.30217,-3.19252 0.0291,0.083 -0.0614,2.65341 -0.12368,3.64552 -43.51258,9.82623 -92.34712,16.57336 -133.4589,6.0264 -0.19646,-0.18478 -2.83934,-5.37591 -2.97441,-5.52339 z" style="display:inline;fill-opacity:1;fill:#1a1a1a;stroke-dasharray:none;stroke-linecap:butt;stroke-linejoin:miter;stroke-miterlimit:4;stroke-opacity:1;stroke-width:0;stroke:#83afc8"/><path sodipodi:nodetypes="cssssccc" id="path1754-50" d="m 282.94456,458.76549 c -0.0483,0.15247 -0.11284,0.47208 -0.19954,0.90622 -0.41277,2.06685 -1.81439,6.53069 -3.87757,8.11265 -0.26921,0.20642 -1.13559,1.14752 -4.57861,0.28177 -0.17398,-0.0437 -2.18026,1.1699 -4.2783,0.12449 -4.65827,-2.32112 -6.22252,-8.10904 -6.31915,-8.53686 3.82592,9.08132 8.89939,9.3147 10.40315,7.55401 5.26837,2.79873 7.50839,-4.81217 8.85002,-8.44228 z" style="display:inline;fill-opacity:1;fill-rule:evenodd;fill:#000000;opacity:1;stroke-dasharray:none;stroke-linecap:butt;stroke-linejoin:miter;stroke-miterlimit:4;stroke-opacity:1;stroke-width:0;stroke:#000000"/><path style="display:inline;fill-opacity:1;fill:#1a1a1a;stroke-dasharray:none;stroke-linecap:butt;stroke-linejoin:miter;stroke-miterlimit:4;stroke-opacity:1;stroke-width:0;stroke:#83afc8" d="m 234.60256,427.93872 c 16.19921,3.4137 52.20455,5.49343 83.62918,1.15618 -1.10723,0.72649 -7.93695,3.83634 -12.55858,6.92817 -26.13262,3.68145 -53.86584,2.2702 -65.20689,-0.14293 -1.89388,-2.48871 -3.84503,-4.66458 -5.86371,-7.94142 z" id="path1180-5-1-9-1-3-2-0-9" sodipodi:nodetypes="ccccc"/><path style="display:inline;fill-opacity:1;fill:#1a1a1a;stroke-dasharray:none;stroke-linecap:butt;stroke-linejoin:miter;stroke-miterlimit:4;stroke-opacity:1;stroke-width:0;stroke:#83afc8" d="m 247.95327,444.36444 c 10.94342,1.31488 29.77745,1.94201 46.09521,0.52033 -1.56759,2.01272 -4.3557,4.42382 -6.01534,6.52233 -12.30604,1.16431 -24.74234,1.19698 -32.55913,0.50178 -2.13773,-1.85907 -5.40225,-4.9733 -7.52074,-7.54493 z" id="path1180-5-1-9-7-9-5-2-2" sodipodi:nodetypes="cccccc"/><path style="display:inline;fill-opacity:1;fill:#1a1a1a;stroke-dasharray:none;stroke-linecap:butt;stroke-linejoin:miter;stroke-miterlimit:4;stroke-opacity:1;stroke-width:0;stroke:#83afc8" d="m 262.53421,458.18295 c 6.22871,0.31514 13.08896,0.30377 20.72809,-0.0971 -0.87505,2.4389 -1.64015,4.66739 -2.42955,6.53665 -5.25319,0.34928 -9.97649,0.47387 -14.24234,0.41152 -1.68576,-1.69159 -2.0194,-4.59693 -4.0562,-6.85107 z" id="path1180-5-1-9-3-1-8-4-23" sodipodi:nodetypes="ccccc"/><path sodipodi:nodetypes="cscsssssssssccssssssssscscc" id="path1686-7-77-7" d="m 270.82274,435.43438 c -0.27348,0.009 -1.79592,0.25253 -2.79392,-0.37218 -2.81557,-1.76243 -4.25482,-2.94688 -4.60118,-2.94292 -1.31947,3.46278 0.95439,5.62557 0.35455,6.32275 -1.37181,1.59444 -1.79238,3.00827 -1.58396,5.50362 0.0171,0.20458 -3.58077,0.80557 -3.54542,1.00689 0.035,0.19926 3.703,-10e-4 3.75649,0.19384 0.0729,0.26588 0.16339,0.52725 0.27207,0.78268 0.073,0.17162 -5.09572,1.71557 -5.006,1.88142 0.0994,0.18367 5.45913,-1.01146 5.57958,-0.83598 0.18386,0.26785 0.39264,0.5255 0.62747,0.77089 0.0936,0.0978 -2.54862,1.85103 -2.44663,1.94485 0.0902,0.083 2.92371,-1.49299 3.02053,-1.41337 3.12217,2.74088 9.31924,2.71469 13.42438,0.023 0.11108,-0.0887 2.74498,1.74885 2.84737,1.65478 0.11009,-0.10113 -2.31201,-2.13427 -2.21182,-2.24122 0.23524,-0.25114 0.44336,-0.51778 0.62524,-0.79735 0.0907,-0.13937 4.70644,1.32919 4.78417,1.18372 0.10116,-0.18933 -4.34018,-1.99469 -4.26053,-2.19311 0.14306,-0.35634 0.2518,-0.7262 0.3276,-1.10547 0.0334,-0.16697 3.51968,4e-4 3.5404,-0.16988 0.0189,-0.15538 -3.42675,-0.64815 -3.41821,-0.80572 0.13599,-2.5067 0.25463,-3.8872 -1.41033,-5.45929 -0.81598,-0.77046 1.3846,-1.75153 0.59847,-5.81365 -0.91001,0.15641 -2.65721,1.16587 -5.86162,2.70862 -0.8909,0.42892 -2.16174,0.14007 -2.6189,0.17306 z" style="display:inline;fill-opacity:1;fill:#ffffff;stroke-dasharray:none;stroke-linecap:butt;stroke-linejoin:miter;stroke-miterlimit:4;stroke-opacity:1;stroke-width:0;stroke:#83afc8"/></svg>
