<svg viewBox="0 0 560 1000"><path style="display:inline;fill:#000000;stroke-width:0.24736041" d="m 283.16562,155.76076 c -1.02375,-1.19208 -1.58302,-0.47375 -1.80051,-0.0958 -0.054,0.0939 0.0245,0.77429 0.0107,0.67922 0.23572,-0.59395 1.7902,0.12826 2.38866,-0.20158 z" id="path3532" sodipodi:nodetypes="csccc"/><path sodipodi:nodetypes="csccsc" id="path3534" d="m 279.79488,139.35766 c -0.17293,1.42638 -1.25872,6.54294 -2.09074,7.41124 -3.58281,3.73903 -3.75472,8.89927 0.67234,9.24327 0.84188,0.25123 1.74472,0.46888 1.19318,0.44053 -5.94068,0.76128 -6.18928,-6.1222 -2.40859,-9.68251 1.13049,-1.06459 2.07822,-5.69784 2.63381,-7.41253 z" style="fill:#000000;stroke-width:0.2152606"/><path sodipodi:nodetypes="ccc" id="path3536" d="m 286.09838,151.99747 c 1.42462,2.1659 0.88348,3.61152 -1.49464,4.1654 2.11077,-0.86434 2.31825,-1.82091 1.49464,-4.1654 z" style="display:inline;fill:#000000;stroke-width:0.19613324"/></svg>
