<svg viewBox="0 0 560 1000"><path sodipodi:nodetypes="ccccccccc" id="path3697" d="m 353.4,255 c 28.88235,9.88235 29.01176,54.92353 36.91176,73.12353 -18.13795,26.66492 -21.57403,55.62619 -37.96378,83.87244 0,0 -39.74798,-13.49597 -41.14798,2.30403 -3.5,39.9 28.5,17.8 48.4,9.9 12.4,-4.9 45.77506,-58.82967 55.78235,-97.15882 C 418.48235,315.74118 395.7,237.4 378,220 c -8.1,-7.9 -9.6,-4.9 -16.6,-9.2 -50.1,6.3 -29,47.7 -8,44.2" style="fill-opacity:1;fill:#1a1a1a"/><path sodipodi:nodetypes="ccccc" id="path3699" d="m 357.77016,245.77955 c 9.66397,5.37809 29.8216,14.49762 40.57791,11.03928 -0.5597,-1.21954 -1.50339,-3.20001 -1.97062,-3.6562 -11.0172,4.09639 -34.47064,-9.05 -37.97959,-9.54629 z" style="display:inline;fill-opacity:1;fill:#aa8800;stroke-dasharray:none;stroke-linecap:butt;stroke-linejoin:miter;stroke-miterlimit:4;stroke-opacity:1;stroke-width:0;stroke:#000000"/><path sodipodi:nodetypes="ccccc" id="path3701" d="m 415.84824,322.86996 c -8.47394,0.19105 -17.25376,-0.40505 -26.15058,3.98307 0.42714,0.58078 0.0407,1.68197 0.62917,1.49206 7.9309,-3.01874 17.57028,-3.6287 25.47831,-2.60733 z" style="display:inline;fill-opacity:1;fill:#aa8800;stroke-dasharray:none;stroke-linecap:butt;stroke-linejoin:miter;stroke-miterlimit:4;stroke-opacity:1;stroke-width:0;stroke:#000000"/><path sodipodi:nodetypes="ccccc" id="path3703" d="m 368.1419,375.74089 c 13.39734,-4.37473 21.34735,-22.56182 29.98781,-49.3069 0.0587,-1.52053 -0.75209,-0.95314 -1.53843,-0.95298 -12.39042,43.26563 -24.70342,46.04553 -27.56107,48.02279 z" style="display:inline;fill-opacity:1;fill:#aa8800;stroke-dasharray:none;stroke-linecap:butt;stroke-linejoin:miter;stroke-miterlimit:4;stroke-opacity:1;stroke-width:0;stroke:#000000"/><path sodipodi:nodetypes="ccccc" id="path3705" d="m 409.13834,324.96419 c -6.78834,-24.33289 -9.56879,-32.87456 -22.41285,-70.503 -0.59362,-0.53009 0.0641,1.28771 -0.95487,1.24782 12.76477,36.16354 21.88471,67.59557 21.78081,68.6804 z" style="display:inline;fill-opacity:1;fill:#aa8800;stroke-dasharray:none;stroke-linecap:butt;stroke-linejoin:miter;stroke-miterlimit:4;stroke-opacity:1;stroke-width:0;stroke:#000000"/><path sodipodi:nodetypes="ccccc" id="path3707" d="m 407.81082,323.0447 c -1.91911,20.64874 -20.05068,52.30464 -46.4513,93.11342 -1.92247,1.86653 -1.7085,0.1934 -2.21007,-0.78025 45.79679,-66.72861 47.17664,-90.63032 46.96218,-91.8828 z" style="display:inline;fill-opacity:1;fill:#aa8800;stroke-dasharray:none;stroke-linecap:butt;stroke-linejoin:miter;stroke-miterlimit:4;stroke-opacity:1;stroke-width:0;stroke:#000000"/></svg>
