<svg viewBox="0 0 560 1000"><path sodipodi:nodetypes="ccccccccc" id="path9416" d="m 300.27148,120.36328 c -4.61537,0.004 -7.85482,0.89937 -9.52929,2.63086 -1.11533,1.1533 -2.50977,3.11938 -2.3711,3.34375 0.0887,0.14352 1.74874,-0.5119 5.25977,-2.07812 2.071,-0.92383 3.86634,-1.33984 7.32226,-1.69141 7.27906,-0.27556 11.9666,1.26049 17.14258,5.35547 0.48116,0.42269 0.94887,0.77334 1.03907,0.77734 0.43773,0.0219 0.0377,-0.4521 -1.25782,-1.49023 -4.86952,-4.20931 -12.19188,-7.18194 -17.60547,-6.84766 z" class="eyebrow_hair"/><path sodipodi:nodetypes="cccccc" id="path9418" d="m 260.88281,126.38867 c -0.0161,0.29695 0.23749,0.17894 2.41211,-1.13476 4.01771,-2.55502 7.88734,-2.33993 11.84961,-1.1211 1.21883,0.59568 3.91381,2.47367 4.00391,2.41797 0.50531,-0.3123 -1.4689,-3.75937 -2.76647,-4.67134 -5.70442,-2.29517 -11.13078,1.13001 -15.49916,4.50923 z" class="eyebrow_hair"/></svg>
