<svg viewBox="0 0 560 1000"><defs id="defs4360"><linearGradient id="linearGradient1767" osb:paint="solid"><stop style="stop-color:#969696;stop-opacity:1" offset="0" id="stop1765"/></linearGradient><filter style="color-interpolation-filters:sRGB" inkscape:label="Filter_Shine_Blur" id="Filter_Shine_Blur" width="4" x="-2" height="4" y="-2"><feGaussianBlur stdDeviation="1.5 1.5" result="blur" id="feGaussianBlur4091-3"/></filter><pattern y="0" x="0" height="6" width="6" patternUnits="userSpaceOnUse" id="EMFhbasepattern"/><filter y="-2" height="4" x="-2" width="4" id="Filter_Shine_Blur-1" inkscape:label="Filter_Shine_Blur" style="color-interpolation-filters:sRGB"><feGaussianBlur id="feGaussianBlur4091-3-4" result="blur" stdDeviation="1.5 1.5"/></filter><filter y="-2" height="4" x="-2" width="4" id="Filter_Shine_Blur-5" inkscape:label="Filter_Shine_Blur" style="color-interpolation-filters:sRGB"><feGaussianBlur id="feGaussianBlur4091-3-9" result="blur" stdDeviation="1.5 1.5"/></filter><filter y="-2" height="4" x="-2" width="4" id="Filter_Shine_Blur-51" inkscape:label="Filter_Shine_Blur" style="color-interpolation-filters:sRGB"><feGaussianBlur id="feGaussianBlur4091-3-91" result="blur" stdDeviation="1.5 1.5"/></filter><filter y="-2" height="4" x="-2" width="4" id="Filter_Shine_Blur-9" inkscape:label="Filter_Shine_Blur" style="color-interpolation-filters:sRGB"><feGaussianBlur id="feGaussianBlur4091-3-90" result="blur" stdDeviation="1.5 1.5"/></filter><filter style="color-interpolation-filters:sRGB" inkscape:label="Filter_Shine_Blur" id="Filter_Shine_Blur-11" width="4" x="-2" height="4" y="-2"><feGaussianBlur stdDeviation="1.5 1.5" result="blur" id="feGaussianBlur4091-3-40"/></filter><filter style="color-interpolation-filters:sRGB" inkscape:label="Filter_Shine_Blur" id="filter2732" width="4" x="-2" height="4" y="-2"><feGaussianBlur stdDeviation="1.5 1.5" result="blur" id="feGaussianBlur2730"/></filter><filter style="color-interpolation-filters:sRGB" inkscape:label="Filter_Shine_Blur" id="Filter_Shine_Blur-7" width="4" x="-2" height="4" y="-2"><feGaussianBlur stdDeviation="1.5 1.5" result="blur" id="feGaussianBlur4091-3-904"/></filter><filter style="color-interpolation-filters:sRGB" inkscape:label="Filter_Shine_Blur" id="filter2766" width="4" x="-2" height="4" y="-2"><feGaussianBlur stdDeviation="1.5 1.5" result="blur" id="feGaussianBlur2764"/></filter><filter style="color-interpolation-filters:sRGB" inkscape:label="Filter_Shine_Blur" id="Filter_Shine_Blur-3" width="4" x="-2" height="4" y="-2"><feGaussianBlur stdDeviation="1.5 1.5" result="blur" id="feGaussianBlur4091-3-5"/></filter><filter style="color-interpolation-filters:sRGB" inkscape:label="Filter_Shine_Blur" id="filter2800" width="4" x="-2" height="4" y="-2"><feGaussianBlur stdDeviation="1.5 1.5" result="blur" id="feGaussianBlur2798"/></filter><filter style="color-interpolation-filters:sRGB" inkscape:label="Filter_Shine_Blur" id="Filter_Shine_Blur-92" width="4" x="-2" height="4" y="-2"><feGaussianBlur stdDeviation="1.5 1.5" result="blur" id="feGaussianBlur4091-3-915"/></filter><filter style="color-interpolation-filters:sRGB" inkscape:label="Filter_Shine_Blur" id="Filter_Shine_Blur-93" width="4" x="-2" height="4" y="-2"><feGaussianBlur stdDeviation="1.5 1.5" result="blur" id="feGaussianBlur4091-3-46"/></filter><filter style="color-interpolation-filters:sRGB" inkscape:label="Filter_Shine_Blur" id="Filter_Shine_Blur-16" width="4" x="-2" height="4" y="-2"><feGaussianBlur stdDeviation="1.5 1.5" result="blur" id="feGaussianBlur4091-3-6"/></filter><filter style="color-interpolation-filters:sRGB" inkscape:label="Filter_Shine_Blur" id="Filter_Shine_Blur-96" width="4" x="-2" height="4" y="-2"><feGaussianBlur stdDeviation="1.5 1.5" result="blur" id="feGaussianBlur4091-3-43"/></filter><filter style="color-interpolation-filters:sRGB" inkscape:label="Filter_Shine_Blur" id="Filter_Shine_Blur-36" width="4" x="-2" height="4" y="-2"><feGaussianBlur stdDeviation="1.5 1.5" result="blur" id="feGaussianBlur4091-3-65"/></filter><filter style="color-interpolation-filters:sRGB" inkscape:label="Filter_Shine_Blur" id="Filter_Shine_Blur-36-5" width="4" x="-2" height="4" y="-2"><feGaussianBlur stdDeviation="1.5 1.5" result="blur" id="feGaussianBlur4091-3-65-8"/></filter><filter style="color-interpolation-filters:sRGB" inkscape:label="Filter_Shine_Blur" id="Filter_Shine_Blur-36-5-9" width="4" x="-2" height="4" y="-2"><feGaussianBlur stdDeviation="1.5 1.5" result="blur" id="feGaussianBlur4091-3-65-8-4"/></filter><filter style="color-interpolation-filters:sRGB" inkscape:label="Filter_Shine_Blur" id="Filter_Shine_Blur-16-5" width="4" x="-2" height="4" y="-2"><feGaussianBlur stdDeviation="1.5 1.5" result="blur" id="feGaussianBlur4091-3-6-1"/></filter><filter style="color-interpolation-filters:sRGB" inkscape:label="Filter_Shine_Blur" id="Filter_Shine_Blur-16-5-5" width="4" x="-2" height="4" y="-2"><feGaussianBlur stdDeviation="1.5 1.5" result="blur" id="feGaussianBlur4091-3-6-1-9"/></filter><filter style="color-interpolation-filters:sRGB" inkscape:label="Filter_Shine_Blur" id="Filter_Shine_Blur-16-5-5-3" width="4" x="-2" height="4" y="-2"><feGaussianBlur stdDeviation="1.5 1.5" result="blur" id="feGaussianBlur4091-3-6-1-9-3"/></filter><filter style="color-interpolation-filters:sRGB" inkscape:label="Filter_Shine_Blur" id="Filter_Shine_Blur-77" width="4" x="-2" height="4" y="-2"><feGaussianBlur stdDeviation="1.5 1.5" result="blur" id="feGaussianBlur4091-3-94"/></filter><filter style="color-interpolation-filters:sRGB" inkscape:label="Filter_Shine_Blur" id="Filter_Shine_Blur-77-8" width="4" x="-2" height="4" y="-2"><feGaussianBlur stdDeviation="1.5 1.5" result="blur" id="feGaussianBlur4091-3-94-4"/></filter><filter style="color-interpolation-filters:sRGB" inkscape:label="Filter_Shine_Blur" id="Filter_Shine_Blur-77-8-3" width="4" x="-2" height="4" y="-2"><feGaussianBlur stdDeviation="1.5 1.5" result="blur" id="feGaussianBlur4091-3-94-4-8"/></filter><filter style="color-interpolation-filters:sRGB" inkscape:label="Filter_Shine_Blur" id="Filter_Shine_Blur-6" width="4" x="-2" height="4" y="-2"><feGaussianBlur stdDeviation="1.5 1.5" result="blur" id="feGaussianBlur4091-3-654"/></filter><filter style="color-interpolation-filters:sRGB" inkscape:label="Filter_Shine_Blur" id="filter11049" width="4" x="-2" height="4" y="-2"><feGaussianBlur stdDeviation="1.5 1.5" result="blur" id="feGaussianBlur11047"/></filter><filter inkscape:collect="always" style="color-interpolation-filters:sRGB" id="filter8615" x="-0.55083606" width="2.1016721" y="-0.071901849" height="1.1438037"><feGaussianBlur inkscape:collect="always" stdDeviation="4.4237657" id="feGaussianBlur8617"/></filter><filter style="color-interpolation-filters:sRGB" inkscape:label="Filter_Shine_Blur" id="Filter_Shine_Blur-6-0" width="4" x="-2" height="4" y="-2"><feGaussianBlur stdDeviation="1.5 1.5" result="blur" id="feGaussianBlur4091-3-654-3"/></filter><filter style="color-interpolation-filters:sRGB" inkscape:label="Filter_Shine_Blur" id="Filter_Shine_Blur-6-8" width="4" x="-2" height="4" y="-2"><feGaussianBlur stdDeviation="1.5 1.5" result="blur" id="feGaussianBlur4091-3-654-1"/></filter><filter inkscape:collect="always" style="color-interpolation-filters:sRGB" id="filter8615-7-0" x="-0.55083609" width="2.1016722" y="-0.07190185" height="1.1438037"><feGaussianBlur inkscape:collect="always" stdDeviation="4.4237657" id="feGaussianBlur8617-9-5"/></filter><filter inkscape:collect="always" style="color-interpolation-filters:sRGB" id="filter8615-78" x="-0.55083609" width="2.1016722" y="-0.07190185" height="1.1438037"><feGaussianBlur inkscape:collect="always" stdDeviation="4.4237657" id="feGaussianBlur8617-0"/></filter><filter style="color-interpolation-filters:sRGB" inkscape:label="Filter_Shine_Blur" id="Filter_Shine_Blur-6-3" width="4" x="-2" height="4" y="-2"><feGaussianBlur stdDeviation="1.5 1.5" result="blur" id="feGaussianBlur4091-3-654-5"/></filter><filter inkscape:collect="always" style="color-interpolation-filters:sRGB" id="filter8615-4" x="-0.55083609" width="2.1016722" y="-0.07190185" height="1.1438037"><feGaussianBlur inkscape:collect="always" stdDeviation="4.4237657" id="feGaussianBlur8617-2"/></filter><filter style="color-interpolation-filters:sRGB" inkscape:label="Filter_Shine_Blur" id="Filter_Shine_Blur-6-1" width="4" x="-2" height="4" y="-2"><feGaussianBlur stdDeviation="1.5 1.5" result="blur" id="feGaussianBlur4091-3-654-4"/></filter><filter inkscape:collect="always" style="color-interpolation-filters:sRGB" id="filter8615-9" x="-0.55083609" width="2.1016722" y="-0.07190185" height="1.1438037"><feGaussianBlur inkscape:collect="always" stdDeviation="4.4237657" id="feGaussianBlur8617-8"/></filter><filter inkscape:collect="always" style="color-interpolation-filters:sRGB" id="filter8615-7-0-1" x="-0.55083609" width="2.1016722" y="-0.07190185" height="1.1438037"><feGaussianBlur inkscape:collect="always" stdDeviation="4.4237657" id="feGaussianBlur8617-9-5-6"/></filter><filter inkscape:collect="always" style="color-interpolation-filters:sRGB" id="filter8615-7-0-15" x="-0.55083609" width="2.1016722" y="-0.07190185" height="1.1438037"><feGaussianBlur inkscape:collect="always" stdDeviation="4.4237657" id="feGaussianBlur8617-9-5-3"/></filter><filter inkscape:collect="always" style="color-interpolation-filters:sRGB" id="filter8615-7-0-15-1" x="-0.55083609" width="2.1016722" y="-0.07190185" height="1.1438037"><feGaussianBlur inkscape:collect="always" stdDeviation="4.4237657" id="feGaussianBlur8617-9-5-3-9"/></filter></defs><path inkscape:label="#PussyshadowN" sodipodi:nodetypes="ccscc" id="path4298" class="shadow" d="m 283.66521,456.38067 c -1.54841,0.73859 -1.78928,15.78672 -9.24659,11.14886 -5.5459,3.1603 -10.12915,-4.94173 -10.42429,-8.4126 -0.25114,-2.95343 3.37748,-7.20053 3.87403,-6.51846 2.14579,-0.003 16.30971,2.85987 15.79685,3.7822 z"/><path sodipodi:nodetypes="csssccsssccccc" id="path4300" d="m 338.3575,841.60277 c 2.22085,-6.48168 2.39389,-23.88738 5.18311,-48.98913 3.235,-29.11351 9.23009,-70.7682 2.09774,-111.0184 -0.32901,-1.85668 15.63814,-45.44096 11.27711,-141.02252 -0.25839,-5.66319 -1.40475,-2.19834 -1.59364,-5.85976 -18.35816,5.1524 -64.27852,5.74594 -77.62644,2.38332 0.93627,6.39984 -3.79386,11.29263 -2.65491,17.47692 2.35463,12.78537 6.22047,23.42494 8.22336,32.62077 0.0425,0.19537 0.0873,0.38952 0.1244,0.58402 0.95096,4.98748 1.64899,6.14898 3.08327,11.76174 3.46039,22.89029 18.66659,61.42323 25.93951,81.54848 -16.39841,61.82149 0.19751,103.23603 6.12302,160.07459 6.77509,-2.15578 17.13652,-0.30077 19.82347,0.43993 z" style="baseline-shift:baseline;clip-rule:nonzero;color-interpolation-filters:linearRGB;color-interpolation:sRGB;color-rendering:auto;color:#000000;direction:ltr;display:inline;enable-background:accumulate;fill-opacity:1;fill-rule:evenodd;fill:#000000;image-rendering:auto;isolation:auto;mix-blend-mode:normal;opacity:1;overflow:visible;shape-rendering:auto;solid-color:#000000;solid-opacity:1;stroke-dasharray:none;stroke-dashoffset:0;stroke-linecap:butt;stroke-linejoin:miter;stroke-miterlimit:4;stroke-opacity:1;stroke-width:1.77035642;stroke:none;visibility:visible;white-space:normal;writing-mode:lr-tb"/><path sodipodi:nodetypes="ccsssccscccc" id="path4302" d="m 269.37825,838.94315 c 10.83339,-53.08194 33.49454,-99.41746 15.30434,-152.32447 -0.50064,-1.39178 8.0704,-62.82592 7.16821,-91.96966 -0.0185,-0.59897 1.54741,-2.89277 1.49723,-3.45798 -0.12842,-1.44489 -0.40044,-2.84549 -0.59652,-4.05342 -1.78565,-11.00008 -11.04331,-29.37927 -14.86188,-50.18047 -26.36653,9.36509 -60.85848,-55.27836 -63.75273,-54.21319 -0.91813,20.74228 -2.70999,91.47407 28.15769,181.12232 1.55134,4.50552 2.0997,14.18196 2.01111,15.64706 2.20237,5.96005 3.54791,108.98993 8.73542,159.46085 6.31619,-2.58038 12.72962,-0.91896 16.33713,-0.0311 z" style="baseline-shift:baseline;clip-rule:nonzero;color-interpolation-filters:linearRGB;color-interpolation:sRGB;color-rendering:auto;color:#000000;direction:ltr;display:inline;enable-background:accumulate;fill-opacity:1;fill-rule:evenodd;fill:#000000;image-rendering:auto;isolation:auto;mix-blend-mode:normal;opacity:1;overflow:visible;shape-rendering:auto;solid-color:#000000;solid-opacity:1;stroke-dasharray:none;stroke-dashoffset:0;stroke-linecap:butt;stroke-linejoin:miter;stroke-miterlimit:4;stroke-opacity:1;stroke-width:1.77084005;stroke:none;visibility:visible;white-space:normal;writing-mode:lr-tb"/><path sodipodi:nodetypes="cssssssccssssssccc" id="path4304" d="m 338.27734,841.54046 c 0.58817,-5.10668 0.96862,-22.66511 3.46053,-47.76686 2.89017,-29.11351 8.80445,-64.26817 3.32592,-112.0184 -0.0815,-0.71031 9.09907,-42.18011 10.73147,-87.25098 0.56277,-15.53831 1.31163,-39.22913 1.38523,-59.78018 0.02,-5.59679 0.3829,-11.1506 0.38548,-16.08694 0.008,-15.47907 -0.93381,-26.27125 -0.93381,-26.27125 33.72956,-32.16254 -0.81166,-77.9256 -6.0722,-81.60383 -13.38607,6.4024 -73.71854,27.83003 -78.83144,22.84245 0.83647,6.39984 7.79328,115.94444 8.81082,122.12873 2.10365,12.78537 5.55742,23.42494 7.34682,32.62077 0.038,0.19537 0.078,0.38952 0.11114,0.58402 0.84959,4.98748 1.47322,14.81104 2.75462,20.4238 4.18309,18.32272 6.88096,25.30567 7.63764,27.21176 8.0663,20.31924 14.76729,43.90236 14.64351,44.42466 -14.65047,61.82149 2.75181,96.10843 5.81219,159.69699 5.49186,-1.1532 19.55783,1.09499 19.43212,0.84526 z" style="baseline-shift:baseline;clip-rule:nonzero;color-interpolation-filters:linearRGB;color-interpolation:sRGB;color-rendering:auto;color:#000000;direction:ltr;display:inline;enable-background:accumulate;fill-opacity:1;fill-rule:evenodd;fill:#1a1a1a;image-rendering:auto;isolation:auto;mix-blend-mode:normal;opacity:1;overflow:visible;shape-rendering:auto;solid-color:#000000;solid-opacity:1;stroke-dasharray:none;stroke-dashoffset:0;stroke-linecap:butt;stroke-linejoin:miter;stroke-miterlimit:4;stroke-opacity:1;stroke-width:1.67334545;stroke:none;visibility:visible;white-space:normal;writing-mode:lr-tb"/><path inkscape:label="#PussyN" sodipodi:nodetypes="ccsc" id="path4306" class="skin torso" d="m 274.36595,467.58332 c -3.81452,2.31718 -9.64064,-2.27902 -10.8644,-11.68664 5.95334,-21.67633 25.49385,-8.31185 20.23612,0.35499 -2.87984,4.74713 -3.52005,14.37508 -9.37172,11.33165 z"/><path sodipodi:nodetypes="ccsssccscccc" id="path4308" d="m 268.92374,838.68262 c 10.33565,-52.16384 30.45815,-98.50928 14.46691,-150.90398 -0.44704,-1.39178 6.25913,-62.82592 5.45355,-91.96966 -0.0165,-0.59897 1.38171,-2.89277 1.33691,-3.45798 -0.11467,-1.44489 -0.35756,-2.84549 -0.53265,-4.05342 -1.59444,-11.00008 -15.39677,-127.57698 -18.80645,-148.37818 -23.71289,-13.25991 -41.34533,-28.17069 -44.48774,-27.79302 -23.22183,41.36664 -10.8994,174.21177 18.2402,252.89986 1.63965,4.42769 1.87486,14.18196 1.79576,15.64706 1.96654,5.96005 3.43573,97.207 7.02644,157.96713 9.34996,-1.38076 6.14335,-0.40361 15.50707,0.0422 z" style="baseline-shift:baseline;clip-rule:nonzero;color-interpolation-filters:linearRGB;color-interpolation:sRGB;color-rendering:auto;color:#000000;direction:ltr;display:inline;enable-background:accumulate;fill-opacity:1;fill-rule:evenodd;fill:#1a1a1a;image-rendering:auto;isolation:auto;mix-blend-mode:normal;opacity:1;overflow:visible;shape-rendering:auto;solid-color:#000000;solid-opacity:1;stroke-dasharray:none;stroke-dashoffset:0;stroke-linecap:butt;stroke-linejoin:miter;stroke-miterlimit:4;stroke-opacity:1;stroke-width:1.67334545;stroke:none;visibility:visible;white-space:normal;writing-mode:lr-tb"/><path style="display:inline;fill-opacity:1;fill:#000000;stroke-dasharray:none;stroke-linecap:butt;stroke-linejoin:miter;stroke-miterlimit:4;stroke-opacity:1;stroke-width:0;stroke:#000000" d="m 362.10234,431.42577 c -2.68621,-6.082 -11.77109,-19.93812 -12.39996,-21.91039 -0.0813,-0.25494 -0.70857,-2.49571 -0.70857,-2.49571 -22.65767,4.89275 -39.56413,7.60141 -60.05248,8.19626 -24.22046,0.7032 -47.2185,-2.20107 -60.45696,-7.53731 -0.0808,-0.0326 -3.03633,6.76559 -7.41427,26.11716 -6.70335,28.58133 102.72906,23.8945 141.03224,-2.37001 z" id="path4310" sodipodi:nodetypes="cscsscc"/><path sodipodi:nodetypes="ccccc" id="path4312" d="m 253.12727,838.8044 c 1.98426,-1.14318 12.79276,0.11289 15.99511,-0.0882 0.31096,-1.87322 0.32272,-2.60124 0.39507,-3.0857 -4.95577,-1.89222 -15.35446,-1.48324 -16.55142,-0.80312 -0.005,0.40677 0.21078,1.98204 0.16124,3.97694 z" style="display:inline;fill-opacity:1;fill:#333333;stroke-dasharray:none;stroke-linecap:butt;stroke-linejoin:miter;stroke-miterlimit:4;stroke-opacity:1;stroke-width:0;stroke:#000000"/><path sodipodi:nodetypes="ccccccscsc" id="path4314" d="m 216.33481,465.20903 c 4.88391,-4.22638 38.52677,-4.01457 51.81541,1.63139 1.97544,1.15064 3.44304,1.50895 6.29117,0.74829 1.48394,1.11892 3.67809,1.01117 5.52348,-0.15189 69.74911,-5.15378 88.50981,4.62844 89.05614,4.07354 5.65835,-10.0826 -1.11195,-34.15398 -3.96279,-38.46891 -2.68621,-6.082 -14.36208,-21.59529 -14.99095,-23.56756 -0.0813,-0.25494 -1.22374,-2.21355 -1.22374,-2.21355 -45.10201,11.9464 -93.79805,12.4646 -120.26832,0.58222 -0.12493,-0.0561 -10.81972,13.82902 -12.2404,57.36647 z" style="display:inline;fill-opacity:1;fill:#1a1a1a;stroke-dasharray:none;stroke-linecap:butt;stroke-linejoin:miter;stroke-miterlimit:4;stroke-opacity:1;stroke-width:0;stroke:#000000"/><path sodipodi:nodetypes="ccccc" id="path4316" d="m 226.43714,411.39001 c 35.65478,14.81043 108.78953,7.12999 124.04699,-1.19349 -0.98086,-2.37283 -1.00632,-2.28871 -1.45689,-3.1686 -58.31295,15.78964 -104.54469,8.55584 -120.51489,0.71465 -0.32556,0.70561 -0.85233,0.93932 -2.07521,3.64744 z" style="display:inline;fill-opacity:1;fill:#8aa7ff;stroke-dasharray:none;stroke-linecap:butt;stroke-linejoin:miter;stroke-miterlimit:4;stroke-opacity:1;stroke-width:0;stroke:#000000"/><path sodipodi:nodetypes="cscsccc" id="path4318" d="m 275.25299,462.86252 c -12.30071,-3.84341 -9.97725,-39.56452 -8.12905,-43.86741 0.10337,-0.24065 6.70466,-0.007 6.80117,-0.0386 -0.14286,-0.008 -0.28501,-0.0153 -0.42641,-0.0219 -4.0967,-0.18979 -7.561,0.22503 -9.12434,-0.44654 -1.55247,9.38892 -6.14341,45.13839 10.87863,44.37445 z" style="display:inline;fill-opacity:1;fill:#8aa7ff;stroke-dasharray:none;stroke-linecap:butt;stroke-linejoin:miter;stroke-miterlimit:4;stroke-opacity:1;stroke-width:0;stroke:#000000"/><path sodipodi:nodetypes="cccc" id="path4320" d="m 356.28203,444.8129 c -31.56327,-6.76001 -36.1698,-23.53296 -36.97785,-28.4296 -1.02422,-0.29348 -2.03709,0.77235 -2.39603,0.55362 -0.0837,1.32642 8.867,25.77488 39.37388,27.87598 z" style="display:inline;fill-opacity:1;fill:#333333;stroke-dasharray:none;stroke-linecap:butt;stroke-linejoin:miter;stroke-miterlimit:4;stroke-opacity:1;stroke-width:0;stroke:#000000"/><path sodipodi:nodetypes="cccc" id="path4322" d="m 222.23265,435.35375 c 9.31024,-1.01499 16.8449,-15.62419 16.03685,-20.52083 -1.02422,-0.29348 -0.41393,-0.14186 -0.77287,-0.36059 -0.0837,1.32642 -2.08336,14.40532 -15.26398,20.88142 z" style="display:inline;fill-opacity:1;fill:#333333;stroke-dasharray:none;stroke-linecap:butt;stroke-linejoin:miter;stroke-miterlimit:4;stroke-opacity:1;stroke-width:0;stroke:#000000"/><path d="m 329.90785,425.6821 c -15.4791,1.19068 -42.03653,26.26041 -44.60913,30.99635 10.29989,-9.14088 29.75951,-26.28541 44.60913,-30.99635 z" class="shadow" id="path4324" sodipodi:nodetypes="ccc"/><path d="m 262.16576,457.53039 c -6.81704,-9.41592 -28.83006,-31.99347 -34.93819,-34.15183 5.05404,5.44075 26.5203,25.35081 34.93819,34.15183 z" class="shadow" id="path4326" sodipodi:nodetypes="ccc"/><path sodipodi:nodetypes="cscsscc" id="path4328" class="shadow" d="m 262.98857,459.03749 c 4.57815,9.39542 7.95428,8.94718 11.45233,8.01034 0.29456,-0.0789 5.02218,4.77996 9.26343,-8.71666 -1.38475,8.70911 -4.94655,11.61521 -9.3291,9.47151 -0.0226,-0.0111 -2.82256,1.04466 -4.71233,0.003 -2.95847,-1.63089 -6.486,-5.556 -6.67433,-8.7681 z"/><path sodipodi:nodetypes="ccc" id="path4330" class="shadow" d="M 306.25237,658.37575 C 284.05575,618.9078 274.30467,520.03041 273.49983,475.7992 c 3.81661,43.09419 14.7887,152.91589 32.75254,182.57655 z"/><path sodipodi:nodetypes="ccccc" id="path4332" d="m 338.55822,842.45175 c -2.44297,-1.46673 -16.15649,-0.87894 -20.18841,-1.36185 -0.29084,-2.17162 -0.26615,-3.00701 -0.33118,-3.56802 6.35923,-1.77826 19.46496,-0.48985 20.93914,0.38406 -0.0161,0.46662 -0.37375,2.25524 -0.41955,4.54572 z" style="display:inline;fill-opacity:1;fill:#333333;stroke-dasharray:none;stroke-linecap:butt;stroke-linejoin:miter;stroke-miterlimit:4;stroke-opacity:1;stroke-width:0;stroke:#000000"/><path sodipodi:nodetypes="ccc" id="path4334" d="m 279.93066,691.78516 c 10.75918,48.71017 -13.21217,94.37122 -14.97363,147.66015 4.70837,-52.30259 28.97652,-98.35635 14.97363,-147.66015 z" style="baseline-shift:baseline;clip-rule:nonzero;color-interpolation-filters:linearRGB;color-interpolation:sRGB;color-rendering:auto;color:#000000;direction:ltr;display:inline;enable-background:accumulate;fill-opacity:1;fill-rule:evenodd;fill:#ffffff;filter:url(#filter8615);image-rendering:auto;isolation:auto;mix-blend-mode:normal;opacity:1;overflow:visible;shape-rendering:auto;solid-color:#000000;solid-opacity:1;stroke-dasharray:none;stroke-dashoffset:0;stroke-linecap:butt;stroke-linejoin:miter;stroke-miterlimit:4;stroke-opacity:1;stroke-width:3;stroke:none;visibility:visible;white-space:normal;writing-mode:lr-tb"/><path transform="rotate(-6.6441891,345.18635,591.65685)" sodipodi:nodetypes="ccc" id="path4336" d="m 350.52278,517.82677 c 10.75918,48.71017 -13.21217,94.37122 -14.97363,147.66015 4.70837,-52.30259 28.97652,-98.35635 14.97363,-147.66015 z" style="baseline-shift:baseline;clip-rule:nonzero;color-interpolation-filters:linearRGB;color-interpolation:sRGB;color-rendering:auto;color:#000000;direction:ltr;display:inline;enable-background:accumulate;fill-opacity:1;fill-rule:evenodd;fill:#ffffff;filter:url(#filter8615-7-0-1);image-rendering:auto;isolation:auto;mix-blend-mode:normal;opacity:1;overflow:visible;shape-rendering:auto;solid-color:#000000;solid-opacity:1;stroke-dasharray:none;stroke-dashoffset:0;stroke-linecap:butt;stroke-linejoin:miter;stroke-miterlimit:4;stroke-opacity:1;stroke-width:3;stroke:none;visibility:visible;white-space:normal;writing-mode:lr-tb"/></svg>
