<svg viewBox="0 0 560 1000"><path d="m 212.12439,438.23555 c 0.34801,-0.14448 0.91161,0.0267 1.23466,-0.12056 15.37457,-6.99681 2.65118,-17.06495 -1.17982,-16.5834 -10.33861,3.62377 -6.36162,13.86853 -2.99315,14.43311 0.0483,0.0349 0.40218,0.89852 2.93831,2.27083 z" id="path3848" sodipodi:nodetypes="cscccc" style="fill:#000000;stroke-width:2.96431565"/><path d="m 245.05818,461.84528 c 14.44416,4.02244 28.9993,8.68315 33.99011,-3.81926 1.54012,-4.32322 0.55127,-7.38215 -2.53335,-8.50363 -12.73408,-3.97233 -39.83307,-15.60973 -47.7515,-23.05381 -1.09326,-1.67299 -0.90932,-1.91406 -2.02135,-3.06223 -2.35775,-2.43432 -5.38877,-2.18592 -7.86592,-2.05042 -1.49287,0.0818 -5.34609,-0.37743 -6.54442,0.0996 -1.00661,0.40069 -1.88481,0.96907 -2.45751,1.69423 -0.17788,0.22538 1.18273,-0.4925 1.31048,-0.58873 3.59602,-2.70847 17.96224,8.68407 1.95044,15.35608 -1.48223,0.61761 -6.02284,-3.99167 -5.98232,-3.83445 0.25913,1.00625 1.98806,2.59035 3.50955,3.60402 0.90852,0.60527 1.94213,0.83166 2.31022,1.48135 4.42491,7.80979 14.1808,16.385 32.08557,22.67711 z" id="path3850" sodipodi:nodetypes="ccccssssssssscc" style="fill:#000000;stroke-width:2.96431565"/><path d="m 209.34755,434.84855 c 5.51082,3.29802 15.95381,-1.2083 18.58004,-7.49529 -0.66134,-1.87592 -2.92855,-5.50292 -5.58861,-5.41553 -7.59183,0.24925 -7.42282,-0.47434 -10.61311,0.45933 -6.38211,2.74537 -7.17847,8.51119 -3.7258,12.77774 0.33847,0.25959 0.77875,-0.19954 1.34748,-0.32641 z" id="path3852" sodipodi:nodetypes="ccscccc" class="areola"/><path d="m 208.08157,431.31127 c 0.0783,0.57318 0.78505,1.73503 1.54974,1.94439 -0.004,-0.0298 -0.18801,-1.01747 -0.19544,-1.04758 -0.24726,-1.01573 -1.3418,-4.00614 0.4438,-7.36248 -1.79631,2.03215 -2.12051,4.04422 -1.79823,6.46567 z" id="path3854" sodipodi:nodetypes="ccscc" style="fill:#000000;stroke-width:2.96431565"/><path d="m 245.97676,461.20012 c 14.30908,3.98489 28.05983,9.47162 33.6592,-2.88001 1.52575,-4.28279 1.43027,-6.719 -1.62553,-7.83008 -13.27653,-3.17909 -41.29517,-15.231 -49.13952,-22.60543 -3.69294,5.18319 -7.34259,8.02955 -15.1622,8.71692 -1.31644,-0.0159 -2.71597,-0.36303 -4.12544,-1.17412 -0.30533,-0.17583 -0.80222,0.16142 -1.01546,0.23515 -0.24496,0.16289 5.73702,3.70129 5.61046,3.97621 4.38355,7.73679 14.06116,15.32826 31.79846,21.56148 z" class="skin penis" id="path3856" sodipodi:nodetypes="cccccscccc"/></svg>
