<svg viewBox="0 0 560 1000"><path sodipodi:nodetypes="cccscccccsccccccccsc" d="m 315.34619,122.67741 c -0.11679,-0.0257 -0.42414,-0.0457 -0.8126,-0.063 l -0.80776,-0.0361 0.804,0.13744 c 1.14618,0.1959 0.83942,0.24065 -0.74523,0.10869 -1.89149,-0.13774 -3.74817,-0.36434 -5.87828,-0.53023 -6.11576,0.18925 -13.2975,1.07996 -15.9777,1.65122 -0.709,0.0424 -1.53853,0.10215 -1.84341,0.13279 -0.67495,-0.30575 -1.26258,-0.46736 -0.79073,-0.89419 0.0588,-0.17519 0.15308,-0.35661 0.23373,-0.5088 0.0811,-0.15293 0.14829,-0.27635 0.15173,-0.33428 l 0.74352,-0.0886 c 1.28388,-0.4211 10.49247,-1.33276 15.95379,-1.33572 1.50772,-0.0438 1.94447,-0.0256 2.79655,0.11729 0.55537,0.0931 1.38732,0.21169 1.84875,0.26364 0.90322,0.10166 0.89491,0.10014 2.98299,0.54289 l 1.36581,0.2896 c 0.0226,0.011 0.71038,0.15094 1.23922,0.50419 -0.14197,0.0951 -1.24762,0.0467 -1.26438,0.043 z" id="path2646" class="eyebrow_hair"/><path sodipodi:nodetypes="sccccccscs" d="m 264.1942,121.84615 c 0.0514,-0.005 1.33147,-0.3194 1.41381,-0.34565 3.47039,-0.66694 8.07315,0.11777 9.74787,0.4663 0.55179,-0.0528 2.25013,0.33559 2.25013,0.33559 0.144,0.14643 0.40356,0.42656 0.3965,1.17712 -0.1657,0.14923 -0.96713,0.52636 -1.63932,0.31801 -0.63331,-0.12357 -1.34513,-0.28261 -2.34765,-0.40989 -1.29486,-0.31243 -8.5864,-0.54391 -9.44043,-0.35883 -0.0495,0.0107 -0.19738,-0.63756 -0.2081,-0.63423 0.0186,-0.005 -0.19779,-0.54578 -0.17281,-0.54842 z" id="path2648" class="eyebrow_hair"/></svg>
