<svg viewBox="0 0 560 1000"><path sodipodi:nodetypes="cscssccsssssscsscccsscsccc" id="path6009" d="m 368.45236,268.83602 c 0.40069,1.40387 0.82871,12.89967 -6.36035,37.77919 -5.42713,18.7819 -20.56882,29.98312 -21.1652,31.4412 -5.76961,8.24948 -15.17503,22.20843 -10.37382,32.19769 0.20871,0.43423 2.86633,6.1658 5.95239,12.12819 5.12253,9.89693 11.7358,22.29153 12.56986,25.83552 0,0 -51.7146,6.85286 -63.22382,35.19023 -2.06147,4.01155 -2.1084,11.81811 -3.46792,16.10443 -0.27859,0.87834 -1.00697,6.35332 -3.50565,8.26757 -0.26944,0.20641 -1.13656,1.14752 -4.58251,0.28177 -0.17413,-0.0437 -1.37345,0.71664 -3.61847,0.0361 -5.83439,-1.76869 -6.66978,-8.86034 -6.76649,-9.28816 -1.98539,-8.78313 -6.24957,-28.02971 -9.43291,-34.24779 -14.19124,-27.72004 -27.97462,-8.06406 -29.28246,-10.40039 0.41618,-1.08804 4.02945,-13.36841 6.19444,-18.09893 11.62539,-25.40153 12.08709,-42.05871 12.25836,-57.26185 0.24452,-21.70551 -6.08737,-33.66342 -6.98584,-46.20078 -0.0198,-35.49113 4.45784,-54.24076 39.89672,-85.72935 -0.63873,-0.33426 5.76049,-3.75929 10.28502,-6.16163 8.14833,-12.70068 6.58972,-19.9665 7.42911,-19.7012 7.80794,2.46783 11.66265,-2.52162 18.04047,-7.12212 0.74373,-0.53648 -0.002,15.72836 5.79219,24.68404 1.50252,1.12706 9.10193,4.89722 7.88644,5.69617 -25.72677,16.91039 -30.9022,28.84774 -29.45936,29.06832 3.13994,1.52155 66.54554,33.43249 67.65165,34.25705 z" style="display:inline;fill-opacity:1;fill-rule:evenodd;fill:#000000;opacity:1;stroke-dasharray:none;stroke-linecap:butt;stroke-linejoin:miter;stroke-miterlimit:4;stroke-opacity:1;stroke-width:0;stroke:#000000"/><path sodipodi:nodetypes="cssssccsssccsscccssccccc" id="path6011" d="m 368.47602,268.56519 c -0.022,0.17059 -0.0457,0.36964 -0.0714,0.59595 -0.53166,4.68472 -1.93452,21.05197 -7.88592,38.54567 -6.28969,18.48806 -17.77339,26.59126 -18.77871,27.80104 -8.36776,10.0696 -13.07538,17.52333 -14.41501,28.45838 -1.1072,9.03783 24.36594,44.01876 24.72923,48.81716 -40.10653,11.44456 -64.97545,42.96388 -65.74712,45.30165 -0.78385,1.88787 -4.7912,9.82211 -7.2881,11.60252 -1.21712,0.86786 -4.56426,-0.37235 -4.8162,-0.39645 -0.29397,-0.0276 -0.77535,0.50225 -2.98817,-0.0701 -5.65546,-1.4629 -10.22974,-5.40448 -10.80185,-7.35518 -18.43111,-29.49711 -30.68812,-46.0732 -35.41353,-47.26215 7.94787,-20.31139 14.53739,-34.53836 15.52113,-39.64488 2.40743,-12.49684 4.34652,-31.04582 4.51599,-33.91997 1.27707,-21.66848 -5.53672,-33.8742 -6.42575,-46.41156 -6.62265,-51.35898 18.32727,-82.76734 38.32548,-88.64617 0.49229,-0.51848 5.43756,-2.25669 9.91452,-4.65903 6.67421,-5.15908 6.83554,-16.63841 7.30509,-16.68638 9.66279,-0.98707 12.18194,-7.30033 16.83937,-10.42453 1.18842,-0.79719 -0.15736,14.75347 6.7887,24.97163 1.48672,1.12706 18.54432,6.19296 19.0762,7.53532 0,0 22.53186,-3.73753 32.01093,28.69935 0.0476,0.44543 1.31272,7.24328 1.49903,15.71117 0.21526,6.04642 -0.68961,12.74307 -1.89391,17.43656 z" style="display:inline;fill-opacity:1;fill-rule:evenodd;fill:#ececec;opacity:1;stroke-dasharray:none;stroke-linecap:butt;stroke-linejoin:miter;stroke-miterlimit:4;stroke-opacity:1;stroke-width:0;stroke:#000000"/><path style="fill-opacity:1;fill-rule:nonzero;fill:#000000;opacity:1;stroke-dasharray:none;stroke-dashoffset:0;stroke-linecap:round;stroke-linejoin:bevel;stroke-miterlimit:4;stroke-opacity:1;stroke-width:0;stroke:#000000;vector-effect:none" d="m 337.64352,257.62623 c 0,12.05744 -9.65838,21.12482 -22.00872,21.12481 -12.35032,-10e-6 -19.88736,-8.1835 -19.88736,-20.24093 0,-12.05743 7.18349,-22.00869 19.53381,-22.0087 12.35034,-1e-5 22.36227,9.06737 22.36227,21.12482 z" id="path1626" sodipodi:nodetypes="sssss"/><path style="display:inline;fill-opacity:1;fill-rule:nonzero;fill:#800000;opacity:1;stroke-dasharray:none;stroke-dashoffset:0;stroke-linecap:round;stroke-linejoin:bevel;stroke-miterlimit:4;stroke-opacity:1;stroke-width:0;stroke:#000000;vector-effect:none" d="m 335.88464,257.47534 c 0,11.11008 -8.8643,19.46505 -20.19925,19.46504 -11.33492,-1e-5 -18.25229,-7.54053 -18.25229,-18.65061 0,-11.11007 6.59289,-20.27947 17.92781,-20.27948 11.33495,-1e-5 20.52373,8.35496 20.52373,19.46505 z" id="path1626-1" sodipodi:nodetypes="sssss"/><path style="display:inline;fill-opacity:1;fill-rule:nonzero;fill:#000000;opacity:1;stroke-dasharray:none;stroke-dashoffset:0;stroke-linecap:round;stroke-linejoin:bevel;stroke-miterlimit:4;stroke-opacity:1;stroke-width:0;stroke:#000000;vector-effect:none" d="m 332.13464,257.85034 c 0,1.07575 -0.1163,3.28388 -0.22379,4.24996 -4.84718,-0.34911 -11.93835,-0.85256 -13.51634,-0.93559 0.12383,0.70926 0.8116,7.39477 1.67901,12.94663 -0.74707,0.0528 -4.2098,0.079 -5.01313,0.079 -0.74773,0 -3.45666,-0.2094 -4.12864,-0.2536 0.72554,-4.50941 1.98264,-11.92327 1.97052,-12.70919 -0.86746,-0.004 -6.83155,0.66357 -11.67213,1.11013 -0.0324,-0.79201 0.078,-3.43283 0.078,-4.29795 0,-1.08475 0.0223,-3.42179 0.0732,-4.38754 3.97131,0.6151 10.06547,1.47574 11.16789,1.36756 -0.44591,-2.06727 -0.53984,-7.0986 -1.49337,-12.69678 0.90273,-0.0839 2.87765,-0.18772 3.9301,-0.18772 1.08,0 3.92238,0.1043 4.90189,0.18956 -0.48493,3.32213 -0.8388,10.9689 -1.0758,12.58219 2.08648,-0.3006 7.95423,-0.8584 13.18238,-1.44686 0.0518,0.68473 0.1403,3.64793 0.1403,4.39016 z" id="path1626-1-2" sodipodi:nodetypes="cccccccccccccccccc"/><path style="display:inline;fill-opacity:1;fill-rule:nonzero;fill:#ececec;opacity:1;stroke-dasharray:none;stroke-dashoffset:0;stroke-linecap:round;stroke-linejoin:bevel;stroke-miterlimit:4;stroke-opacity:1;stroke-width:0;stroke:#000000;vector-effect:none" d="m 330.9856,257.7809 c 0,1.0105 -0.23732,2.22232 -0.33744,3.12979 -0.40686,0.086 -0.65494,-0.86561 -1.0922,-0.86629 -4.32188,-0.007 -10.40707,0.23321 -11.74164,0.16229 0.10665,0.61614 -0.30227,6.684 -0.14503,11.64862 0.0128,0.40372 0.77813,0.80469 0.79361,1.20013 -0.69575,0.0495 -2.63052,0.0743 -3.37867,0.0743 -0.69637,0 -2.05814,-0.19671 -2.68395,-0.23821 0.0343,-0.38364 0.81933,-0.65826 0.85234,-1.08207 0.32779,-4.20795 0.6445,-11.02921 0.63423,-11.6999 -0.72233,-0.004 -5.99296,-0.14362 -10.14198,-0.25347 -0.49125,-0.013 -0.93459,0.77059 -1.41185,0.76022 -0.0301,-0.74396 -0.0564,-1.8448 -0.0564,-2.65745 0,-1.01894 -0.0223,-2.17936 0.0251,-3.08654 0.48622,0.0262 0.92982,0.97904 1.48839,1.0021 3.49265,0.1442 8.86322,0.0109 9.74835,-0.0767 -0.0648,-1.64989 -0.29294,-7.71904 -0.44407,-11.42887 -0.0149,-0.36563 -0.73657,-0.71532 -0.75065,-1.04397 0.84072,-0.0788 1.6909,-0.30569 2.67108,-0.30569 1.0058,0 2.70687,0.0548 3.61908,0.13494 -0.0129,0.37951 -0.64754,0.86406 -0.66542,1.34775 -0.13115,3.54845 0.0946,9.94717 0.16523,11.24286 1.79477,-0.0218 6.69443,0.29048 11.3364,0.0814 0.38375,-0.0173 0.92043,-0.98566 1.29879,-1.00482 0.0483,0.64319 0.21667,2.26244 0.21667,2.95965 z" id="path1626-1-2-0" sodipodi:nodetypes="ccccscccscscccscscccscsccc"/><path style="display:inline;fill-opacity:1;fill-rule:nonzero;fill:#000000;opacity:1;stroke-dasharray:none;stroke-dashoffset:0;stroke-linecap:round;stroke-linejoin:bevel;stroke-miterlimit:4;stroke-opacity:1;stroke-width:0;stroke:#000000;vector-effect:none" d="m 319.79428,257.64898 c -1.27548,1.74405 -2.39556,3.08262 -3.93289,4.49761 -1.7765,-1.68029 -2.29676,-2.34954 -3.85126,-4.31466 1.07619,-1.43453 2.21492,-2.91493 3.62931,-4.55558 1.89608,1.54764 2.48077,2.27482 4.15484,4.37263 z" id="path1626-1-7" sodipodi:nodetypes="ccccc"/><path style="display:inline;fill-opacity:1;fill-rule:nonzero;fill:#ffffff;opacity:1;stroke-dasharray:none;stroke-dashoffset:0;stroke-linecap:round;stroke-linejoin:bevel;stroke-miterlimit:4;stroke-opacity:1;stroke-width:0;stroke:#000000;vector-effect:none" d="m 319.26303,257.68134 c -1.09114,1.49521 -2.04934,2.64278 -3.36449,3.85587 -1.51975,-1.44053 -1.96482,-2.0143 -3.29467,-3.69904 0.92067,-1.22983 1.89482,-2.49901 3.1048,-3.90557 1.62205,1.32682 2.12224,1.95025 3.55436,3.74874 z" id="path1626-1-7-8" sodipodi:nodetypes="ccccc"/><path style="display:inline;fill-opacity:1;fill-rule:nonzero;fill:#800000;opacity:1;stroke-dasharray:none;stroke-dashoffset:0;stroke-linecap:round;stroke-linejoin:bevel;stroke-miterlimit:4;stroke-opacity:1;stroke-width:0;stroke:#000000;vector-effect:none" d="m 317.40987,258.40558 c 0,0.90125 -0.70487,1.57899 -1.6062,1.57899 -0.90133,0 -1.45138,-0.61168 -1.45138,-1.51293 0,-0.90124 0.34748,-2.57314 2.33156,-2.66153 -2.45743,2.43068 0.72602,1.69422 0.72602,2.59547 z" id="path1626-1-8" sodipodi:nodetypes="ssscs"/><path style="display:inline;fill-opacity:1;fill-rule:nonzero;fill:#000000;opacity:1;stroke-dasharray:none;stroke-dashoffset:0;stroke-linecap:round;stroke-linejoin:bevel;stroke-miterlimit:4;stroke-opacity:1;stroke-width:0;stroke:#000000;vector-effect:none" d="m 382.21983,224.55046 c -14.23499,0.57551 -57.00507,-1.5736 -65.88738,-29.04689 14.10051,27.98359 52.30865,26.19487 65.88738,29.04689 z" id="path1626-1-2-4" sodipodi:nodetypes="ccc"/><path style="display:inline;fill-opacity:1;fill-rule:nonzero;fill:#000000;opacity:1;stroke-dasharray:none;stroke-dashoffset:0;stroke-linecap:round;stroke-linejoin:bevel;stroke-miterlimit:4;stroke-opacity:1;stroke-width:0;stroke:#000000;vector-effect:none" d="m 240.17632,221.81958 c 11.065,0.57551 44.31061,-1.5736 51.21491,-29.04689 -10.96046,27.98359 -40.66003,26.19487 -51.21491,29.04689 z" id="path1626-1-2-4-1" sodipodi:nodetypes="ccc"/></svg>
