<svg viewBox="0 0 560 1000"><path style="display:inline;fill-opacity:1;fill-rule:evenodd;fill:#000000;opacity:1;stroke-dasharray:none;stroke-linecap:butt;stroke-linejoin:miter;stroke-miterlimit:4;stroke-opacity:1;stroke-width:0;stroke:#000000" d="m 370.51486,269.33602 c 0.23724,0.8312 -0.5766,5.28861 -2.26041,13.52511 -33.60787,-4.288 -103.68903,-11.96778 -131.86236,-5.34633 0.1469,-4.00388 0.13267,-11.53731 1.15586,-14.24717 0.24324,-0.11759 7.25265,-2.21917 7.67385,-2.50366 12.96984,-34.21324 14.33596,-34.51518 31.51367,-55.13078 -0.20578,-0.10769 0.98637,-0.32991 2.81284,-0.93373 -14.26623,35.27571 -10.07743,51.97809 -1.78824,61.45129 10.93146,-7.63158 34.10888,-19.71829 53.08715,-60.31847 2.65591,0.76603 5.77773,1.30178 5.77773,1.30178 1.90789,18.32918 -0.0619,41.08452 3.67362,52.92764 3.54725,3.99043 26.59816,6.10404 30.21629,9.27432 z" id="path2316" sodipodi:nodetypes="cccccccccccc"/><path style="display:inline;fill-opacity:1;fill-rule:evenodd;fill:#ffffff;opacity:1;stroke-dasharray:none;stroke-linecap:butt;stroke-linejoin:miter;stroke-miterlimit:4;stroke-opacity:1;stroke-width:0;stroke:#000000" d="m 370.53852,269.06519 c -0.23212,1.79731 -1.46179,6.53999 -2.59824,13.24253 -48.30237,-7.27876 -109.55684,-10.44159 -130.56058,-6.05551 -0.7082,-2.93964 0.3045,-12.75865 0.3045,-12.75865 0,0 7.0379,-2.10309 7.78836,-2.50793 11.82416,-30.55624 14.58742,-35.11847 31.24259,-55.40231 0.84544,-0.17546 1.70483,-0.38601 2.56536,-0.63893 -16.81405,40.48467 -8.02175,52.76388 -1.59072,61.62392 17.19358,-10.88851 38.35632,-25.50945 53.62911,-60.61021 1.9144,0.66913 3.96656,0.65204 5.47599,1.11851 -0.47031,15.65219 0.792,46.91864 3.02614,53.74685 3.55484,2.53922 23.78535,6.08886 30.71749,8.24173 z" id="path2318" sodipodi:nodetypes="cccccccccccc"/><path sodipodi:nodetypes="ccccc" id="path2320" d="m 369.22893,276.30359 c -0.36918,1.80415 -0.77195,3.88148 -1.16365,6.19163 -48.30237,-7.27876 -109.75712,-10.46683 -130.76086,-6.08075 -0.069,-0.4883 -0.34453,-4.39605 -0.1139,-6.11317 28.97645,-5.96462 109.56573,1.85208 132.03841,6.00229 z" style="display:inline;fill-opacity:1;fill-rule:evenodd;fill:#92b5c9;opacity:1;stroke-dasharray:none;stroke-linecap:butt;stroke-linejoin:miter;stroke-miterlimit:4;stroke-opacity:1;stroke-width:0;stroke:#000000"/><path sodipodi:nodetypes="ccccccccccccc" id="path2322" d="m 275.3075,263.17949 c -15.5547,-0.0617 -30.42964,1.24273 -38.15901,2.83939 0.005,-0.3433 0.14997,-1.96737 0.31884,-2.43564 1.96052,-0.81732 7.63798,-2.34161 7.99185,-2.72606 0.5763,-1.29429 0.72688,-1.72419 0.94882,-2.30238 7.24698,-0.76586 16.11763,-1.11114 25.86119,-1.06368 1.0929,2.28123 2.22717,4.5625 3.03831,5.68837 z m 64.55138,-2.47738 c 2.63643,2.29632 28.58714,7.33482 30.67091,8.37671 0,0 -0.15278,1.26516 -0.27245,1.96334 -27.74868,-4.13636 -61.7597,-7.21255 -87.50424,-7.76809 -0.23575,-0.005 7.90377,-5.4459 7.79093,-5.46476 16.90013,0.49494 34.58228,1.54368 49.31485,2.8928 z" style="display:inline;fill-opacity:1;fill-rule:evenodd;fill:#92b5c9;opacity:1;stroke-dasharray:none;stroke-linecap:butt;stroke-linejoin:miter;stroke-miterlimit:4;stroke-opacity:1;stroke-width:0;stroke:#000000"/><path sodipodi:nodetypes="cccccccccc" id="path2324" d="m 270.63031,252.56065 c -0.56129,-0.15591 -18.51769,0.13605 -22.19364,0.7143 0.5763,-1.29429 1.85188,-4.64338 2.07382,-5.22157 7.24698,-0.76586 9.47053,-0.85356 19.21409,-0.8061 0.0764,0.35878 0.73541,5.00509 0.90573,5.31337 z m 67.62414,-2.36916 c -0.004,0.15333 0.0494,1.14864 0.57402,5.4717 -28.42662,-2.24219 -41.70048,-1.66901 -42.88644,-1.99214 -0.23575,-0.005 5.69168,-4.89922 5.57884,-4.91808 0.52513,0.0574 27.18852,0.9019 36.73358,1.43852 z" style="display:inline;fill-opacity:1;fill-rule:evenodd;fill:#92b5c9;opacity:1;stroke-dasharray:none;stroke-linecap:butt;stroke-linejoin:miter;stroke-miterlimit:4;stroke-opacity:1;stroke-width:0;stroke:#000000"/><path sodipodi:nodetypes="cccccccccc" id="path2326" d="m 269.5915,242.39188 c -0.56129,-0.15591 -13.23644,-0.1452 -16.91239,0.43305 0.5763,-1.29429 1.85188,-4.64338 2.07382,-5.22157 7.24698,-0.76586 5.47053,-0.50981 15.21409,-0.46235 0.0764,0.35878 -0.54584,4.94259 -0.37552,5.25087 z m 67.90539,-2.71291 c -0.004,0.15333 -0.1381,1.08614 0.38652,5.4092 -28.42662,-2.24219 -29.88798,-1.35651 -31.07394,-1.67964 -0.23575,-0.005 4.50418,-4.83672 4.39134,-4.85558 0.52513,0.0574 16.75102,0.5894 26.29608,1.12602 z" style="display:inline;fill-opacity:1;fill-rule:evenodd;fill:#92b5c9;opacity:1;stroke-dasharray:none;stroke-linecap:butt;stroke-linejoin:miter;stroke-miterlimit:4;stroke-opacity:1;stroke-width:0;stroke:#000000"/><path sodipodi:nodetypes="cccccccccc" id="path2328" d="m 270.69848,232.49286 c -0.56129,-0.15591 -11.51287,-0.1231 -13.15589,0.0132 0.5763,-1.29429 2.77996,-4.97484 3.0019,-5.55303 0.63995,0.008 1.55935,-0.0458 11.30291,0.002 0.0764,0.35878 -1.31924,5.22985 -1.14892,5.53813 z m 66.2923,-3.39792 c -0.004,0.15333 0.14315,1.27364 0.23027,5.44045 -10.48912,-0.64844 -21.04423,-0.79401 -22.07394,-0.77339 0.70175,-1.13 3.91043,-5.08672 3.79759,-5.10558 0.52513,0.0574 8.50102,-0.0981 18.04608,0.43852 z" style="display:inline;fill-opacity:1;fill-rule:evenodd;fill:#92b5c9;opacity:1;stroke-dasharray:none;stroke-linecap:butt;stroke-linejoin:miter;stroke-miterlimit:4;stroke-opacity:1;stroke-width:0;stroke:#000000"/><path sodipodi:nodetypes="cccccccccccc" id="path2330" d="m 273.34372,221.57013 c -0.53311,-0.15591 -7.6224,-0.0762 -9.05794,-0.0649 0.813,-1.62241 3.67165,-4.81858 3.88245,-5.39677 0.60782,0.008 6.6217,0.0323 6.92298,0.0333 -0.0993,0.35878 -1.64364,5.01109 -1.74749,5.42875 z m 63.46431,-3.03854 c -0.004,0.15333 -0.006,1.14595 0.077,5.31276 -6.21255,-0.21094 -14.64291,-0.26007 -14.82405,-0.23945 0.66652,-1.13 3.15162,-5.11797 3.04445,-5.13683 0.49876,0.0574 6.1055,-0.0356 11.70263,0.0635 z" style="display:inline;fill-opacity:1;fill-rule:evenodd;fill:#92b5c9;opacity:1;stroke-dasharray:none;stroke-linecap:butt;stroke-linejoin:miter;stroke-miterlimit:4;stroke-opacity:1;stroke-width:0;stroke:#000000"/><path sodipodi:nodetypes="cccccccccccc" id="path2332" d="m 276.71307,211.63041 c -0.13998,3.4e-4 -4.61113,-0.0146 -4.87766,-0.0346 1.27715,-1.63804 3.89488,-4.88016 4.01421,-5.02085 0.36621,-0.0233 2.56186,-0.15517 2.84406,-0.15417 -0.093,0.35878 -1.88333,4.79234 -1.98061,5.21 z m 60.04588,-2.91354 c -0.004,0.15333 0.005,1.157 -0.0273,5.31276 -5.81924,-0.21094 -9.15338,-0.11944 -9.32305,-0.0988 0.62432,-1.13 2.60834,-5.14922 2.50796,-5.16808 0.46718,0.0574 1.59965,-0.14498 6.84243,-0.0459 z" style="display:inline;fill-opacity:1;fill-rule:evenodd;fill:#92b5c9;opacity:1;stroke-dasharray:none;stroke-linecap:butt;stroke-linejoin:miter;stroke-miterlimit:4;stroke-opacity:1;stroke-width:0;stroke:#000000"/><path style="display:inline;fill-opacity:1;fill-rule:evenodd;fill:#ffffff;opacity:1;stroke-dasharray:none;stroke-linecap:butt;stroke-linejoin:miter;stroke-miterlimit:4;stroke-opacity:1;stroke-width:0;stroke:#000000" d="m 362.3043,413.36134 c -51.41983,14.7906 -68.20816,27.42745 -79.17838,44.98517 -1.04023,1.75909 -1.92047,7.35117 -4.50173,9.70959 -0.97785,0.89343 -3.70051,-0.0277 -4.03805,0.0431 -0.91345,0.19159 -2.09488,0.29968 -2.84109,0.24274 -1.3589,-0.10369 -3.10427,-0.97079 -4.62926,-2.64607 -1.15035,-1.26373 -2.1753,-2.98733 -2.81436,-5.19001 -7.02893,-7.18923 -29.10352,-25.91869 -38.34145,-47.86102 0.0176,-0.005 -0.05,-0.20603 0.59439,-1.93851 29.91996,7.91079 50.09635,9.90066 135.84413,-2.71761 0,0 -0.0757,5.36388 -0.0942,5.37262 z" id="path2360-8-9-4-5-1" sodipodi:nodetypes="ccssssccccc"/><path style="display:inline;fill-opacity:1;fill:#92b5c9;stroke-dasharray:none;stroke-linecap:butt;stroke-linejoin:miter;stroke-miterlimit:4;stroke-opacity:1;stroke-width:0;stroke:#83afc8" d="m 225.9378,412.66104 c 0.12717,-0.79329 0.24724,-0.90642 0.25482,-0.95601 23.02972,9.12926 67.15581,11.20593 136.30217,-3.19252 0.0291,0.083 -0.0614,2.65341 -0.12368,3.64552 -25.76312,6.9173 -52.8305,12.31041 -79.13649,13.45614 -16.60478,-0.20862 -38.99345,-1.46893 -53.91616,-6.38286 -0.19646,-0.18478 -3.24559,-6.42279 -3.38066,-6.57027 z" id="path1180-5-1-9-6-3-3-58" sodipodi:nodetypes="ccccccc"/><path style="display:inline;fill-opacity:1;fill:#000000;stroke-dasharray:none;stroke-linecap:butt;stroke-linejoin:miter;stroke-miterlimit:4;stroke-opacity:1;stroke-width:0;stroke:#83afc8" d="m 273.84597,422.32819 c -0.2328,0.22148 -3.10989,-1.76118 -4.05675,-1.7506 -0.88928,0.009 -1.34282,-0.11971 -2.27558,-0.12183 -0.9589,0.24822 -3.85377,1.69706 -4.24975,1.33907 -0.26898,-0.42126 1.04376,-6.70708 1.3731,-6.74802 0.31674,-0.42391 2.98965,2.31946 3.2433,2.29256 0.82267,0.0992 1.17444,0.13057 1.9392,0.0571 0.22272,0.0471 4.30259,-2.4827 4.68361,-2.01247 0,0 0.51598,5.4778 -0.65713,6.94427 z" id="path1180-5-1-2-5-5-0" sodipodi:nodetypes="ccccccccc"/><path style="display:inline;fill-opacity:1;fill:#92b5c9;stroke-dasharray:none;stroke-linecap:butt;stroke-linejoin:miter;stroke-miterlimit:4;stroke-opacity:1;stroke-width:0;stroke:#83afc8" d="m 234.60256,427.93872 c 16.19921,3.4137 52.20455,5.49343 83.62918,1.15618 -1.10723,0.72649 -7.93695,3.83634 -12.55858,6.92817 -26.13262,3.68145 -53.86584,2.2702 -65.20689,-0.14293 -1.89388,-2.48871 -3.84503,-4.66458 -5.86371,-7.94142 z" id="path1180-5-1-9-1-3-2-0-1" sodipodi:nodetypes="ccccc"/><path style="display:inline;fill-opacity:1;fill:#92b5c9;stroke-dasharray:none;stroke-linecap:butt;stroke-linejoin:miter;stroke-miterlimit:4;stroke-opacity:1;stroke-width:0;stroke:#83afc8" d="m 247.95327,444.36444 c 10.94342,1.31488 29.77745,1.94201 46.09521,0.52033 -1.56759,2.01272 -4.3557,4.42382 -6.01534,6.52233 -12.30604,1.16431 -24.74234,1.19698 -32.55913,0.50178 -2.13773,-1.85907 -5.40225,-4.9733 -7.52074,-7.54493 z" id="path1180-5-1-9-7-9-5-2-1" sodipodi:nodetypes="cccccc"/><path style="display:inline;fill-opacity:1;fill:#92b5c9;stroke-dasharray:none;stroke-linecap:butt;stroke-linejoin:miter;stroke-miterlimit:4;stroke-opacity:1;stroke-width:0;stroke:#83afc8" d="m 262.53421,458.18295 c 6.22871,0.31514 13.08896,0.30377 20.72809,-0.0971 -0.87505,2.4389 -1.64015,4.66739 -2.42955,6.53665 -5.25319,0.34928 -9.97649,0.47387 -14.24234,0.41152 -1.68576,-1.69159 -2.0194,-4.59693 -4.0562,-6.85107 z" id="path1180-5-1-9-3-1-8-4-2" sodipodi:nodetypes="ccccc"/><path style="display:inline;fill-opacity:1;fill:#92b5c9;stroke-dasharray:none;stroke-linecap:butt;stroke-linejoin:miter;stroke-miterlimit:4;stroke-opacity:1;stroke-width:0;stroke:#83afc8" d="m 273.77656,422.05078 c -0.22773,0.20071 -3.04222,-1.59607 -3.96848,-1.58649 -0.86995,0.007 -1.31362,-0.10844 -2.22606,-0.1104 -0.93805,0.22496 -3.76994,1.53796 -4.1573,1.21353 -0.26314,-0.38175 1.02105,-6.0783 1.34323,-6.11539 0.30984,-0.38418 2.9246,2.10201 3.17272,2.07764 0.80478,0.0899 1.1489,0.11833 1.89701,0.0517 0.21788,0.0427 4.20899,-2.24995 4.58171,-1.8238 0,0 0.50475,4.96424 -0.64283,6.29323 z" id="path1180-5-1-3-6-5-3-8" sodipodi:nodetypes="ccccccccc"/><path style="display:inline;fill-opacity:1;fill:#000000;stroke-dasharray:none;stroke-linecap:butt;stroke-linejoin:miter;stroke-miterlimit:4;stroke-opacity:1;stroke-width:0;stroke:#83afc8" d="m 269.77476,420.5497 c -0.92245,0.007 -1.3929,-0.11578 -2.36041,-0.11788 -0.13054,-1.1415 -0.0278,-2.30441 0.3803,-3.01559 0.85335,0.096 1.21824,0.12635 2.0115,0.0552 0.54236,0.49792 0.13588,2.28954 -0.0314,3.07827 z" id="path1180-5-1-3-0-1-1-0-9" sodipodi:nodetypes="ccccc"/><path style="display:inline;fill-opacity:1;fill:#92b5c9;stroke-dasharray:none;stroke-linecap:butt;stroke-linejoin:miter;stroke-miterlimit:4;stroke-opacity:1;stroke-width:0;stroke:#83afc8" d="m 269.62401,420.48722 c -0.78722,0.007 -1.18868,-0.11089 -2.01435,-0.11289 -0.1114,-1.09313 -0.0237,-2.20674 0.32455,-2.88779 0.72823,0.0919 1.03962,0.121 1.71658,0.0529 0.46284,0.47682 0.11596,2.19251 -0.0268,2.94782 z" id="path1180-5-1-3-0-4-7-4-3-2" sodipodi:nodetypes="ccccc"/><path style="display:inline;fill-opacity:1;fill-rule:evenodd;fill:#000000;opacity:1;stroke-dasharray:none;stroke-linecap:butt;stroke-linejoin:miter;stroke-miterlimit:4;stroke-opacity:1;stroke-width:0;stroke:#000000" d="m 282.94456,458.76549 c -0.0483,0.15247 -0.11284,0.47208 -0.19954,0.90622 -0.41277,2.06685 -1.81439,6.53069 -3.87757,8.11265 -0.26921,0.20642 -1.13559,1.14752 -4.57861,0.28177 -0.17398,-0.0437 -2.18026,1.1699 -4.2783,0.12449 -4.65827,-2.32112 -6.22252,-8.10904 -6.31915,-8.53686 3.82592,9.08132 8.89939,9.3147 10.40315,7.55401 5.26837,2.79873 7.50839,-4.81217 8.85002,-8.44228 z" id="path6986-5-1-2-3-6-7" sodipodi:nodetypes="cssssccc"/></svg>
