<svg viewBox="0 0 560 1000"><path sodipodi:nodetypes="ccccsccccccsscccc" id="path6021-0-3" d="m 370.32736,269.21102 c 4.28577,34.66716 -11.3965,68.46502 -13.27587,78.48816 7.90451,19.87043 24.93286,52.52479 6.21062,69.72357 -71.30488,20.12453 -75.39173,29.49551 -84.38426,50.35729 -0.26944,0.20641 -1.13656,1.14752 -4.58251,0.28177 -0.17413,-0.0437 -1.37345,0.71664 -3.61847,0.0361 -21.82469,-31.74709 -33.64663,-44.60472 -44.89975,-55.07022 -14.98732,-38.31436 4.70483,-66.54446 11.54854,-92.89829 -0.10903,-0.84586 -2.00634,-16.72794 -2.03869,-27.65439 -0.1106,-32.76834 -3.78232,-62.01862 41.18334,-85.69274 -0.63873,-0.33426 2.72387,-3.1709 7.2484,-5.57324 6.38934,-8.53563 5.53943,-17.91786 6.19018,-18.8806 3.41216,-5.04803 22.0725,-14.82189 24.51892,-9.29893 0.28194,0.63651 -0.0963,18.38259 4.92767,25.79025 1.50252,1.12706 7.85193,4.64722 6.63644,5.44617 -59.64798,34.7469 1.82837,42.20589 38.19229,63.32537 z" style="display:inline;fill-opacity:1;fill-rule:evenodd;fill:#000000;opacity:1;stroke-dasharray:none;stroke-linecap:butt;stroke-linejoin:miter;stroke-miterlimit:4;stroke-opacity:1;stroke-width:0;stroke:#000000"/><path sodipodi:nodetypes="cccsssccccsscccc" id="path6023-6-1" d="m 355.63983,346.88437 c 1.34356,7.732 25.65079,47.5423 8.44962,70.41939 9.76847,17.81956 -78.2481,39.32739 -79.01977,41.66516 -0.78385,1.88787 -3.29932,8.5329 -5.79622,10.31331 -1.21712,0.86786 -4.8236,-0.18577 -5.07554,-0.20987 -0.29397,-0.0276 -1.12355,0.44604 -3.33637,-0.1263 -5.65546,-1.4629 -9.47467,-5.19754 -10.04678,-7.14824 -28.68416,-20.30472 -36.21661,-33.10048 -35.28517,-48.25479 -12.33374,-38.77307 8.04714,-68.31245 13.09625,-93.82723 -10.09207,-76.26297 3.61735,-106.43783 46.72479,-118.14372 5.33294,-8.35978 4.47937,-16.82837 5.55606,-16.92645 10.85789,-0.98906 16.98793,-11.06455 22.37004,-11.2945 0.95246,-0.0407 -0.87894,16.73549 5.50706,26.58167 1.48672,1.12706 17.38807,5.34921 17.91995,6.69157 12.23055,1.62014 28.38973,10.37821 31.6923,23.00496 15.66202,45.7671 -8.82453,104.16794 -12.75622,117.25504 z" style="display:inline;fill-opacity:1;fill-rule:evenodd;fill:#ececec;opacity:1;stroke-dasharray:none;stroke-linecap:butt;stroke-linejoin:miter;stroke-miterlimit:4;stroke-opacity:1;stroke-width:0;stroke:#000000"/><path d="m 329.8875,425.70175 c -15.4791,1.19068 -42.03653,26.26041 -44.60913,30.99635 10.29989,-9.14088 29.75951,-26.28541 44.60913,-30.99635 z" class="shadow" id="path5772-6-5-0-04-3" sodipodi:nodetypes="ccc"/><path d="m 262.14541,457.55004 c -6.81704,-9.41592 -28.83006,-31.99347 -34.93819,-34.15183 5.05404,5.44075 26.5203,25.35081 34.93819,34.15183 z" class="shadow" id="path5774-7-1-4-05-1" sodipodi:nodetypes="ccc"/><path style="display:inline;fill-opacity:1;fill-rule:nonzero;fill:#000000;opacity:1;stroke-dasharray:none;stroke-dashoffset:0;stroke-linecap:round;stroke-linejoin:bevel;stroke-miterlimit:4;stroke-opacity:1;stroke-width:0;stroke:#000000;vector-effect:none" d="m 337.64352,257.62623 c 0,12.05744 -9.65838,21.12482 -22.00872,21.12481 -12.35032,-10e-6 -19.88736,-8.1835 -19.88736,-20.24093 0,-12.05743 7.18349,-22.00869 19.53381,-22.0087 12.35034,-1e-5 22.36227,9.06737 22.36227,21.12482 z" id="path1626-11-9" sodipodi:nodetypes="sssss"/><path style="display:inline;fill-opacity:1;fill-rule:nonzero;fill:#800000;opacity:1;stroke-dasharray:none;stroke-dashoffset:0;stroke-linecap:round;stroke-linejoin:bevel;stroke-miterlimit:4;stroke-opacity:1;stroke-width:0;stroke:#000000;vector-effect:none" d="m 335.88464,257.47534 c 0,11.11008 -8.8643,19.46505 -20.19925,19.46504 -11.33492,-1e-5 -18.25229,-7.54053 -18.25229,-18.65061 0,-11.11007 6.59289,-20.27947 17.92781,-20.27948 11.33495,-1e-5 20.52373,8.35496 20.52373,19.46505 z" id="path1626-1-24-4" sodipodi:nodetypes="sssss"/><path style="display:inline;fill-opacity:1;fill-rule:nonzero;fill:#000000;opacity:1;stroke-dasharray:none;stroke-dashoffset:0;stroke-linecap:round;stroke-linejoin:bevel;stroke-miterlimit:4;stroke-opacity:1;stroke-width:0;stroke:#000000;vector-effect:none" d="m 332.13464,257.85034 c 0,1.07575 -0.1163,3.28388 -0.22379,4.24996 -4.84718,-0.34911 -11.93835,-0.85256 -13.51634,-0.93559 0.12383,0.70926 0.8116,7.39477 1.67901,12.94663 -0.74707,0.0528 -4.2098,0.079 -5.01313,0.079 -0.74773,0 -3.45666,-0.2094 -4.12864,-0.2536 0.72554,-4.50941 1.98264,-11.92327 1.97052,-12.70919 -0.86746,-0.004 -6.83155,0.66357 -11.67213,1.11013 -0.0324,-0.79201 0.078,-3.43283 0.078,-4.29795 0,-1.08475 0.0223,-3.42179 0.0732,-4.38754 3.97131,0.6151 10.06547,1.47574 11.16789,1.36756 -0.44591,-2.06727 -0.53984,-7.0986 -1.49337,-12.69678 0.90273,-0.0839 2.87765,-0.18772 3.9301,-0.18772 1.08,0 3.92238,0.1043 4.90189,0.18956 -0.48493,3.32213 -0.8388,10.9689 -1.0758,12.58219 2.08648,-0.3006 7.95423,-0.8584 13.18238,-1.44686 0.0518,0.68473 0.1403,3.64793 0.1403,4.39016 z" id="path1626-1-2-21-7" sodipodi:nodetypes="cccccccccccccccccc"/><path style="display:inline;fill-opacity:1;fill-rule:nonzero;fill:#ececec;opacity:1;stroke-dasharray:none;stroke-dashoffset:0;stroke-linecap:round;stroke-linejoin:bevel;stroke-miterlimit:4;stroke-opacity:1;stroke-width:0;stroke:#000000;vector-effect:none" d="m 330.9856,257.7809 c 0,1.0105 -0.23732,2.22232 -0.33744,3.12979 -0.40686,0.086 -0.65494,-0.86561 -1.0922,-0.86629 -4.32188,-0.007 -10.40707,0.23321 -11.74164,0.16229 0.10665,0.61614 -0.30227,6.684 -0.14503,11.64862 0.0128,0.40372 0.77813,0.80469 0.79361,1.20013 -0.69575,0.0495 -2.63052,0.0743 -3.37867,0.0743 -0.69637,0 -2.05814,-0.19671 -2.68395,-0.23821 0.0343,-0.38364 0.81933,-0.65826 0.85234,-1.08207 0.32779,-4.20795 0.6445,-11.02921 0.63423,-11.6999 -0.72233,-0.004 -5.99296,-0.14362 -10.14198,-0.25347 -0.49125,-0.013 -0.93459,0.77059 -1.41185,0.76022 -0.0301,-0.74396 -0.0564,-1.8448 -0.0564,-2.65745 0,-1.01894 -0.0223,-2.17936 0.0251,-3.08654 0.48622,0.0262 0.92982,0.97904 1.48839,1.0021 3.49265,0.1442 8.86322,0.0109 9.74835,-0.0767 -0.0648,-1.64989 -0.29294,-7.71904 -0.44407,-11.42887 -0.0149,-0.36563 -0.73657,-0.71532 -0.75065,-1.04397 0.84072,-0.0788 1.6909,-0.30569 2.67108,-0.30569 1.0058,0 2.70687,0.0548 3.61908,0.13494 -0.0129,0.37951 -0.64754,0.86406 -0.66542,1.34775 -0.13115,3.54845 0.0946,9.94717 0.16523,11.24286 1.79477,-0.0218 6.69443,0.29048 11.3364,0.0814 0.38375,-0.0173 0.92043,-0.98566 1.29879,-1.00482 0.0483,0.64319 0.21667,2.26244 0.21667,2.95965 z" id="path1626-1-2-0-8-1" sodipodi:nodetypes="ccccscccscscccscscccscsccc"/><path style="display:inline;fill-opacity:1;fill-rule:nonzero;fill:#000000;opacity:1;stroke-dasharray:none;stroke-dashoffset:0;stroke-linecap:round;stroke-linejoin:bevel;stroke-miterlimit:4;stroke-opacity:1;stroke-width:0;stroke:#000000;vector-effect:none" d="m 319.79428,257.64898 c -1.27548,1.74405 -2.39556,3.08262 -3.93289,4.49761 -1.7765,-1.68029 -2.29676,-2.34954 -3.85126,-4.31466 1.07619,-1.43453 2.21492,-2.91493 3.62931,-4.55558 1.89608,1.54764 2.48077,2.27482 4.15484,4.37263 z" id="path1626-1-7-05-7" sodipodi:nodetypes="ccccc"/><path style="display:inline;fill-opacity:1;fill-rule:nonzero;fill:#ffffff;opacity:1;stroke-dasharray:none;stroke-dashoffset:0;stroke-linecap:round;stroke-linejoin:bevel;stroke-miterlimit:4;stroke-opacity:1;stroke-width:0;stroke:#000000;vector-effect:none" d="m 319.26303,257.68134 c -1.09114,1.49521 -2.04934,2.64278 -3.36449,3.85587 -1.51975,-1.44053 -1.96482,-2.0143 -3.29467,-3.69904 0.92067,-1.22983 1.89482,-2.49901 3.1048,-3.90557 1.62205,1.32682 2.12224,1.95025 3.55436,3.74874 z" id="path1626-1-7-8-90-5" sodipodi:nodetypes="ccccc"/><path style="display:inline;fill-opacity:1;fill-rule:nonzero;fill:#800000;opacity:1;stroke-dasharray:none;stroke-dashoffset:0;stroke-linecap:round;stroke-linejoin:bevel;stroke-miterlimit:4;stroke-opacity:1;stroke-width:0;stroke:#000000;vector-effect:none" d="m 317.40987,258.40558 c 0,0.90125 -0.70487,1.57899 -1.6062,1.57899 -0.90133,0 -1.45138,-0.61168 -1.45138,-1.51293 0,-0.90124 0.34748,-2.57314 2.33156,-2.66153 -2.45743,2.43068 0.72602,1.69422 0.72602,2.59547 z" id="path1626-1-8-93-6" sodipodi:nodetypes="ssscs"/></svg>
