<svg viewBox="0 0 560 1000"><path sodipodi:nodetypes="ccccscccccc" id="path9703-9-3" d="m 370.51486,269.71102 c 3.68877,26.22449 -3.95607,48.35059 -12.37668,76.95637 -0.42144,2.61443 0.37551,4.15303 1.69348,7.78038 -71.19648,5.79431 -118.05346,4.86188 -133.70897,0.331 3.42127,-14.67122 10.55787,-28.86421 10.98438,-33.47887 0.4213,-4.55817 0.45337,-16.16253 -0.4451,-28.69989 -3.93289,-35.5451 10.87515,-60.07425 40.78061,-86.70162 -0.63873,-0.33426 5.05338,-3.31735 9.40113,-5.18936 9.24713,11.38115 25.18214,3.92453 31.26177,-1.34378 1.50252,1.12706 19.53176,7.19531 18.31627,7.99426 3.53155,18.54525 11.55105,45.3329 34.09311,62.35151 z" style="display:inline;fill-opacity:1;fill-rule:evenodd;fill:#000000;opacity:1;stroke-dasharray:none;stroke-linecap:butt;stroke-linejoin:miter;stroke-miterlimit:4;stroke-opacity:1;stroke-width:0;stroke:#000000"/><path sodipodi:nodetypes="ccccccccsssssccc" id="path9705-6-7" d="m 371.06885,270.10624 c 0.60272,29.11793 -7.40177,54.11496 -14.30327,76.06204 -0.40621,2.49083 0.46326,4.40397 1.39929,7.01237 -53.39723,3.67123 -108.72241,5.75033 -129.71391,-0.17886 2.6806,-12.68336 9.98865,-31.06704 10.04469,-32.64582 -1.93529,-7.30805 -5.80102,-48.66377 1.95846,-70.8153 14.91222,-23.62457 30.15253,-37.63745 36.48201,-43.55956 0.49229,-0.51848 3.07328,-2.55533 7.55024,-4.95767 0.95941,-0.26505 3.61081,-7.68059 3.84355,-7.63285 2.02768,0.4159 6.58378,0.8444 9.47441,0.78072 0.11348,-0.002 1.86216,8.03808 1.97611,8.03508 0.10646,-0.003 1.93661,-7.87239 2.04328,-7.87561 6.31966,-0.19114 14.0431,-1.61187 14.30139,-1.7011 0.25091,-0.0867 3.1587,7.11562 3.1587,7.11562 0,0 16.73182,6.44296 17.2637,7.78532 2.48078,22.71729 16.9552,53.16112 34.52135,62.57562 z" style="display:inline;fill-opacity:1;fill-rule:evenodd;fill:#214478;opacity:1;stroke-dasharray:none;stroke-linecap:butt;stroke-linejoin:miter;stroke-miterlimit:4;stroke-opacity:1;stroke-width:0;stroke:#000000"/><path style="display:inline;fill-opacity:1;fill-rule:evenodd;fill:#000000;opacity:1;stroke-dasharray:none;stroke-linecap:butt;stroke-linejoin:miter;stroke-miterlimit:4;stroke-opacity:1;stroke-width:0;stroke:#000000" d="m 366.51802,371.59175 c 12.51139,34.4336 -5.07658,46.67003 -5.07658,46.67003 -58.07715,-8e-4 -89.51395,21.07324 -135.68675,-5.86853 -6.82606,-18.39134 -5.96117,-33.4088 -2.00821,-43.72858 15.21292,8.75927 97.44822,12.34485 142.77154,2.92705 z" id="path9707-5-2" sodipodi:nodetypes="cccccc"/><path style="display:inline;fill-opacity:1;fill-rule:evenodd;fill:#214478;opacity:1;stroke-dasharray:none;stroke-linecap:butt;stroke-linejoin:miter;stroke-miterlimit:4;stroke-opacity:1;stroke-width:0;stroke:#000000" d="m 365.42639,372.64419 c 10.68512,31.07763 -1.7083,48.54069 -1.7083,48.54069 0.27389,-0.29673 -30.32623,1.48487 -54.06735,16.56932 0,0 -27.25743,36.34309 -35.46729,33.52591 -15.72485,1.8412 -48.39797,-48.77236 -48.95281,-58.31989 -7.53788,-21.38994 -0.97115,-43.79032 -0.97115,-43.79032 15.21292,8.75927 95.84358,12.89209 141.1669,3.47429 z" id="path9709-8-5" sodipodi:nodetypes="csscccc"/><path d="m 328.65568,423.62719 c -15.47912,1.19068 -42.03655,26.26041 -44.60915,30.99635 10.29989,-9.14088 29.75953,-26.28541 44.60915,-30.99635 z" class="shadow" id="path9711-1-1" sodipodi:nodetypes="ccc"/><path d="m 260.91357,455.47548 c -6.81704,-9.41592 -28.83006,-31.99347 -34.93819,-34.15183 5.05404,5.44075 26.5203,25.35081 34.93819,34.15183 z" class="shadow" id="path9713-8-2" sodipodi:nodetypes="ccc"/><path style="display:inline;fill-opacity:1;fill:#c8c8c8;opacity:1;stroke-dasharray:none;stroke-linecap:butt;stroke-linejoin:miter;stroke-miterlimit:4;stroke-opacity:1;stroke-width:0;stroke:#000000" d="m 358.15418,353.70219 c 0.61171,-0.9449 -1.56294,-4.36154 -1.49796,-4.55248 0,0 -53.54122,5.43181 -76.84351,5.02676 -0.50133,-0.009 -0.4391,-15.39372 -0.93818,-15.40508 -0.78533,0.021 -1.71213,-0.29659 -2.2885,0.11037 -0.20179,0.14248 -0.87147,18.72005 -1.14766,18.72537 -0.62137,0.012 0.28704,-18.71786 -0.0481,-18.75209 -0.67748,-0.0692 -1.73329,-0.0269 -1.95551,-0.0382 -0.71275,-0.0292 -1.546,15.6259 -2.24889,15.5902 -11.87397,-0.60361 -36.19226,-1.83315 -42.26685,-4.28999 0.0241,0.35776 -0.75752,2.2194 -0.9077,3.23676 15.40185,6.16924 77.12984,4.74643 130.09864,0.34842 z" id="path9715-9-1" sodipodi:nodetypes="csscssscscccc"/><path style="display:inline;fill-opacity:1;fill:#c8c8c8;opacity:1;stroke-dasharray:none;stroke-linecap:butt;stroke-linejoin:miter;stroke-miterlimit:4;stroke-opacity:1;stroke-width:0;stroke:#000000" d="m 330.29003,203.96327 c 0.007,-0.14856 6.1493,2.39678 6.18294,2.59491 4.90263,28.87403 20.99958,53.20588 34.55008,63.48265 0.0186,1.50531 -0.34963,3.78303 -0.29715,5.01243 -22.08333,-4.52994 -42.33262,-58.08038 -40.43587,-71.08999 z" id="path9717-8-1" sodipodi:nodetypes="csccc"/><path style="display:inline;fill-opacity:1;fill:#c8c8c8;opacity:1;stroke-dasharray:none;stroke-linecap:butt;stroke-linejoin:miter;stroke-miterlimit:4;stroke-opacity:1;stroke-width:0;stroke:#000000" d="m 277.5944,205.54042 c -0.0555,-0.89856 6.469,-4.54181 6.49544,-4.34259 -19.5967,18.22954 -40.98409,49.16675 -45.79924,54.63498 0.17744,-0.35399 1.6614,-5.34967 2.57626,-7.24402 2.64044,-5.46741 22.46556,-31.87443 36.72754,-43.04837 z" id="path9719-8-2" sodipodi:nodetypes="cccsc"/><path style="display:inline;fill-opacity:1;fill:#c8c8c8;opacity:1;stroke-dasharray:none;stroke-linecap:butt;stroke-linejoin:miter;stroke-miterlimit:4;stroke-opacity:1;stroke-width:0;stroke:#000000" d="m 283.14035,224.29799 c -1.08045,9.12176 5.59895,9.40419 2.07723,26.2948 4.67642,2.76651 3.70561,-4.1417 5.72322,-8.88211 0.83714,-8.86661 -5.46651,-12.10922 -7.80045,-17.41269 z" id="path9721-2-6" sodipodi:nodetypes="cccc"/><path style="display:inline;fill-opacity:1;fill:#c8c8c8;opacity:1;stroke-dasharray:none;stroke-linecap:butt;stroke-linejoin:miter;stroke-miterlimit:4;stroke-opacity:1;stroke-width:0;stroke:#000000" d="m 296.02078,224.37323 c -5.81536,7.11023 -0.33538,10.93958 -12.38609,23.28768 2.45556,4.84693 5.35124,-1.49979 9.60113,-4.41196 5.47302,-7.02592 1.90141,-13.14917 2.78496,-18.87572 z" id="path9723-9-7" sodipodi:nodetypes="cccc"/><path style="display:inline;fill-opacity:1;fill:#c8c8c8;opacity:1;stroke-dasharray:none;stroke-linecap:butt;stroke-linejoin:miter;stroke-miterlimit:4;stroke-opacity:1;stroke-width:0;stroke:#000000" d="m 308.27067,228.67404 c -8.60244,3.22054 -5.79206,9.2865 -22.41821,13.89803 -0.31546,5.42429 5.37946,1.39518 10.51739,1.0157 8.26414,-3.31985 8.25693,-10.40861 11.90082,-14.91373 z" id="path9725-7-1" sodipodi:nodetypes="cccc"/><path style="display:inline;fill-opacity:1;fill:#c8c8c8;opacity:1;stroke-dasharray:none;stroke-linecap:butt;stroke-linejoin:miter;stroke-miterlimit:4;stroke-opacity:1;stroke-width:0;stroke:#000000" d="m 314.79914,237.57066 c -9.13962,-0.91727 -9.30263,5.76612 -26.25348,2.54682 -2.68251,4.72511 4.20725,3.63099 8.98297,5.56358 8.88015,0.67854 12.0096,-5.68206 17.27051,-8.1104 z" id="path9727-6-7" sodipodi:nodetypes="cccc"/><path style="display:inline;fill-opacity:1;fill:#c8c8c8;opacity:1;stroke-dasharray:none;stroke-linecap:butt;stroke-linejoin:miter;stroke-miterlimit:4;stroke-opacity:1;stroke-width:0;stroke:#000000" d="m 314.69906,251.50152 c -7.02854,-5.91386 -10.93386,-0.48774 -23.11288,-12.70929 -4.88068,2.38779 1.4251,5.3716 4.27778,9.66166 6.94899,5.57036 13.12141,2.0844 18.8351,3.04763 z" id="path9729-8-0" sodipodi:nodetypes="cccc"/><path style="display:inline;fill-opacity:1;fill:#c8c8c8;opacity:1;stroke-dasharray:none;stroke-linecap:butt;stroke-linejoin:miter;stroke-miterlimit:4;stroke-opacity:1;stroke-width:0;stroke:#000000" d="m 310.41638,262.25626 c -4.03545,-8.25162 -9.80199,-4.86912 -15.99602,-20.97281 -5.42943,0.20931 -0.86968,5.48896 0.004,10.56632 4.10164,7.90531 11.15665,7.21424 15.99231,10.40649 z" id="path9731-8-0" sodipodi:nodetypes="cccc"/><path style="display:inline;fill-opacity:1;fill:#c8c8c8;opacity:1;stroke-dasharray:none;stroke-linecap:butt;stroke-linejoin:miter;stroke-miterlimit:4;stroke-opacity:1;stroke-width:0;stroke:#000000" d="m 299.08797,268.57958 c 0.82188,-9.14869 -5.86285,-9.24199 -2.82052,-26.22549 -4.75283,-2.63308 -3.58691,4.2449 -5.46933,9.04067 -0.5859,8.88673 5.807,11.94967 8.2901,17.18497 z" id="path9733-6-1" sodipodi:nodetypes="cccc"/><path style="display:inline;fill-opacity:1;fill:#c8c8c8;opacity:1;stroke-dasharray:none;stroke-linecap:butt;stroke-linejoin:miter;stroke-miterlimit:4;stroke-opacity:1;stroke-width:0;stroke:#000000" d="m 288.21745,268.1471 c 4.7449,-7.86512 -1.22406,-10.87608 8.94777,-24.81268 -3.12,-4.44839 -5.0835,2.24569 -8.87582,5.73299 -4.41803,7.73293 -0.0118,13.28592 -0.0718,19.07993 z" id="path9735-6-5" sodipodi:nodetypes="cccc"/><path style="display:inline;fill-opacity:1;fill:#c8c8c8;opacity:1;stroke-dasharray:none;stroke-linecap:butt;stroke-linejoin:miter;stroke-miterlimit:4;stroke-opacity:1;stroke-width:0;stroke:#000000" d="m 277.91262,264.57818 c 7.88316,-4.71486 4.02785,-10.17663 19.55382,-17.70253 -0.66502,-5.39262 -5.54265,-0.40517 -10.52859,0.89227 -7.5325,4.75169 -6.25077,11.72364 -9.02521,16.81055 z" id="path9737-8-1" sodipodi:nodetypes="cccc"/><path style="display:inline;fill-opacity:1;fill:#c8c8c8;opacity:1;stroke-dasharray:none;stroke-linecap:butt;stroke-linejoin:miter;stroke-miterlimit:4;stroke-opacity:1;stroke-width:0;stroke:#000000" d="m 270.58269,255.34575 c 9.15487,0.75003 9.19568,-5.93523 26.20255,-3.02632 2.59568,-4.77336 -4.27293,-3.55348 -9.08334,-5.3982 -8.89105,-0.51611 -11.90371,5.90065 -17.11936,8.42476 z" id="path9739-0-1" sodipodi:nodetypes="cccc"/><path style="display:inline;fill-opacity:1;fill:#c8c8c8;opacity:1;stroke-dasharray:none;stroke-linecap:butt;stroke-linejoin:miter;stroke-miterlimit:4;stroke-opacity:1;stroke-width:0;stroke:#000000" d="m 269.50955,245.82629 c 8.40563,3.704 10.63145,-2.59998 25.7506,5.71307 4.01455,-3.66141 -2.87515,-4.75591 -6.81727,-8.07295 -8.23286,-3.39664 -13.17912,1.6813 -18.93355,2.36006 z" id="path9741-8-5" sodipodi:nodetypes="cccc"/><path style="display:inline;fill-opacity:1;fill:#c8c8c8;opacity:1;stroke-dasharray:none;stroke-linecap:butt;stroke-linejoin:miter;stroke-miterlimit:4;stroke-opacity:1;stroke-width:0;stroke:#000000" d="m 271.47638,235.43299 c 6.24397,6.73699 10.78983,1.83499 21.36541,15.46776 5.13831,-1.76644 -0.75045,-5.50654 -3.05148,-10.11613 -6.20744,-6.3863 -12.76331,-3.68971 -18.31421,-5.35155 z" id="path9743-2-9" sodipodi:nodetypes="cccc"/><path style="display:inline;fill-opacity:1;fill:#c8c8c8;opacity:1;stroke-dasharray:none;stroke-linecap:butt;stroke-linejoin:miter;stroke-miterlimit:4;stroke-opacity:1;stroke-width:0;stroke:#000000" d="m 298.49337,312.10909 c -0.64507,5.41387 3.34279,5.5815 1.24019,15.60628 2.792,1.64195 2.21239,-2.45815 3.41699,-5.27164 0.4998,-5.26244 -3.26373,-7.18697 -4.65718,-10.33464 z" id="path9745-7-4" sodipodi:nodetypes="cccc"/><path style="display:inline;fill-opacity:1;fill:#c8c8c8;opacity:1;stroke-dasharray:none;stroke-linecap:butt;stroke-linejoin:miter;stroke-miterlimit:4;stroke-opacity:1;stroke-width:0;stroke:#000000" d="m 306.1835,312.15375 c -3.47201,4.22 -0.20024,6.49277 -7.39499,13.82151 1.46607,2.87671 3.1949,-0.89014 5.73225,-2.61855 3.26761,-4.16997 1.13522,-7.80419 1.66274,-11.20296 z" id="path9747-8-1" sodipodi:nodetypes="cccc"/><path style="display:inline;fill-opacity:1;fill:#c8c8c8;opacity:1;stroke-dasharray:none;stroke-linecap:butt;stroke-linejoin:miter;stroke-miterlimit:4;stroke-opacity:1;stroke-width:0;stroke:#000000" d="m 313.49716,314.70633 c -5.13599,1.91143 -3.45808,5.51165 -13.38455,8.24864 -0.18835,3.21938 3.21175,0.82806 6.27929,0.60283 4.93402,-1.97037 4.92972,-6.17763 7.10526,-8.85147 z" id="path9749-2-9" sodipodi:nodetypes="cccc"/><path style="display:inline;fill-opacity:1;fill:#c8c8c8;opacity:1;stroke-dasharray:none;stroke-linecap:butt;stroke-linejoin:miter;stroke-miterlimit:4;stroke-opacity:1;stroke-width:0;stroke:#000000" d="m 317.39492,319.98658 c -5.45672,-0.54441 -5.55404,3.42226 -15.67437,1.51157 -1.60156,2.8044 2.5119,2.15503 5.36319,3.30205 5.3018,0.40272 7.17021,-3.37237 10.31118,-4.81362 z" id="path9751-4-4" sodipodi:nodetypes="cccc"/><path style="display:inline;fill-opacity:1;fill:#c8c8c8;opacity:1;stroke-dasharray:none;stroke-linecap:butt;stroke-linejoin:miter;stroke-miterlimit:4;stroke-opacity:1;stroke-width:0;stroke:#000000" d="m 317.33517,328.25471 c -4.19632,-3.50995 -6.52795,-0.28948 -13.79931,-7.54312 -2.91396,1.41719 0.85084,3.18811 2.55401,5.73431 4.14882,3.30608 7.834,1.23712 11.2453,1.80881 z" id="path9753-2-2" sodipodi:nodetypes="cccc"/><path style="display:inline;fill-opacity:1;fill:#c8c8c8;opacity:1;stroke-dasharray:none;stroke-linecap:butt;stroke-linejoin:miter;stroke-miterlimit:4;stroke-opacity:1;stroke-width:0;stroke:#000000" d="m 314.77824,334.63777 c -2.40932,-4.89743 -5.85218,-2.88988 -9.55026,-12.44761 -3.24158,0.12423 -0.51923,3.25777 0.002,6.27124 2.44884,4.69189 6.66096,4.28174 9.54804,6.17637 z" id="path9755-9-4" sodipodi:nodetypes="cccc"/><path style="display:inline;fill-opacity:1;fill:#c8c8c8;opacity:1;stroke-dasharray:none;stroke-linecap:butt;stroke-linejoin:miter;stroke-miterlimit:4;stroke-opacity:1;stroke-width:0;stroke:#000000" d="m 308.01473,338.39074 c 0.49069,-5.42986 -3.50035,-5.48523 -1.68396,-15.56514 -2.83763,-1.56276 -2.14153,2.5194 -3.26541,5.36575 -0.34981,5.27438 3.46701,7.09227 4.94952,10.19948 z" id="path9757-4-8" sodipodi:nodetypes="cccc"/><path style="display:inline;fill-opacity:1;fill:#c8c8c8;opacity:1;stroke-dasharray:none;stroke-linecap:butt;stroke-linejoin:miter;stroke-miterlimit:4;stroke-opacity:1;stroke-width:0;stroke:#000000" d="m 301.5246,338.13406 c 2.83289,-4.66804 -0.73081,-6.45508 5.34217,-14.72662 -1.86276,-2.64018 -3.03505,1.33284 -5.29921,3.4026 -2.63774,4.58958 -0.007,7.88535 -0.0429,11.32416 z" id="path9759-1-5" sodipodi:nodetypes="cccc"/><path style="display:inline;fill-opacity:1;fill:#c8c8c8;opacity:1;stroke-dasharray:none;stroke-linecap:butt;stroke-linejoin:miter;stroke-miterlimit:4;stroke-opacity:1;stroke-width:0;stroke:#000000" d="m 295.37221,336.01586 c 4.70656,-2.79832 2.40478,-6.03995 11.6744,-10.50666 -0.39704,-3.20058 -3.30918,-0.24047 -6.28598,0.52957 -4.4972,2.82019 -3.73196,6.95812 -5.38841,9.97726 z" id="path9761-5-1" sodipodi:nodetypes="cccc"/><path style="display:inline;fill-opacity:1;fill:#c8c8c8;opacity:1;stroke-dasharray:none;stroke-linecap:butt;stroke-linejoin:miter;stroke-miterlimit:4;stroke-opacity:1;stroke-width:0;stroke:#000000" d="m 290.99595,330.5363 c 5.46582,0.44516 5.49018,-3.52262 15.64396,-1.79615 1.54972,-2.83305 -2.55111,-2.10903 -5.42312,-3.2039 -5.3083,-0.30632 -7.10698,3.50211 -10.22093,5.0002 z" id="path9763-2-3" sodipodi:nodetypes="cccc"/><path style="display:inline;fill-opacity:1;fill:#c8c8c8;opacity:1;stroke-dasharray:none;stroke-linecap:butt;stroke-linejoin:miter;stroke-miterlimit:4;stroke-opacity:1;stroke-width:0;stroke:#000000" d="m 290.35524,324.88639 c 5.01849,2.19837 6.3474,-1.54312 15.37413,3.39078 2.39684,-2.17309 -1.71658,-2.82269 -4.07018,-4.7914 -4.91534,-2.01594 -7.86846,0.99788 -11.30408,1.40073 z" id="path9765-5-3" sodipodi:nodetypes="cccc"/><path style="display:inline;fill-opacity:1;fill:#c8c8c8;opacity:1;stroke-dasharray:none;stroke-linecap:butt;stroke-linejoin:miter;stroke-miterlimit:4;stroke-opacity:1;stroke-width:0;stroke:#000000" d="m 291.52952,318.71784 c 3.72789,3.99849 6.44195,1.08909 12.75599,9.1803 3.06778,-1.0484 -0.44805,-3.26819 -1.82185,-6.00404 -3.70609,-3.79034 -7.6202,-2.18989 -10.93431,-3.17621 z" id="path9767-8-1" sodipodi:nodetypes="cccc"/><path style="display:inline;fill-opacity:1;fill:#c8c8c8;opacity:1;stroke-dasharray:none;stroke-linecap:butt;stroke-linejoin:miter;stroke-miterlimit:4;stroke-opacity:1;stroke-width:0;stroke:#000000" d="m 262.16323,310.8591 c 0.48404,5.31087 -2.50832,5.47531 -0.9306,15.30938 -2.09503,1.61071 -1.66011,-2.41139 -2.564,-5.17135 -0.37503,-5.16233 2.449,-7.05024 3.4946,-10.13803 z" id="path9769-8-4" sodipodi:nodetypes="cccc"/><path style="display:inline;fill-opacity:1;fill:#c8c8c8;opacity:1;stroke-dasharray:none;stroke-linecap:butt;stroke-linejoin:miter;stroke-miterlimit:4;stroke-opacity:1;stroke-width:0;stroke:#000000" d="m 256.3928,310.90291 c 2.60529,4.13972 0.15026,6.36925 5.54897,13.55856 -1.1001,2.82198 -2.39735,-0.8732 -4.3013,-2.56873 -2.45191,-4.09064 -0.85183,-7.65572 -1.24767,-10.98983 z" id="path9771-0-2" sodipodi:nodetypes="cccc"/><path style="display:inline;fill-opacity:1;fill:#c8c8c8;opacity:1;stroke-dasharray:none;stroke-linecap:butt;stroke-linejoin:miter;stroke-miterlimit:4;stroke-opacity:1;stroke-width:0;stroke:#000000" d="m 250.90486,313.40693 c 3.85389,1.87506 2.59484,5.40679 10.04334,8.09171 0.14134,3.15813 -2.40999,0.81231 -4.71178,0.59136 -3.70233,-1.93288 -3.6991,-6.0601 -5.33156,-8.68307 z" id="path9773-6-5" sodipodi:nodetypes="cccc"/><path style="display:inline;fill-opacity:1;fill:#c8c8c8;opacity:1;stroke-dasharray:none;stroke-linecap:butt;stroke-linejoin:miter;stroke-miterlimit:4;stroke-opacity:1;stroke-width:0;stroke:#000000" d="m 247.98011,318.58672 c 4.09455,-0.53405 4.16757,3.35716 11.76155,1.48282 1.20176,2.75104 -1.88485,2.11403 -4.02437,3.23923 -3.9783,0.39505 -5.3803,-3.30822 -7.73718,-4.72205 z" id="path9775-7-0" sodipodi:nodetypes="cccc"/><path style="display:inline;fill-opacity:1;fill:#c8c8c8;opacity:1;stroke-dasharray:none;stroke-linecap:butt;stroke-linejoin:miter;stroke-miterlimit:4;stroke-opacity:1;stroke-width:0;stroke:#000000" d="m 248.02494,326.69756 c 3.14879,-3.44318 4.89837,-0.28398 10.35457,-7.39962 2.18654,1.39023 -0.63845,3.12746 -1.91645,5.62522 -3.11314,3.24318 -5.87838,1.21358 -8.43812,1.7744 z" id="path9777-8-1" sodipodi:nodetypes="cccc"/><path style="display:inline;fill-opacity:1;fill:#c8c8c8;opacity:1;stroke-dasharray:none;stroke-linecap:butt;stroke-linejoin:miter;stroke-miterlimit:4;stroke-opacity:1;stroke-width:0;stroke:#000000" d="m 249.94358,332.95918 c 1.80788,-4.80426 4.39129,-2.8349 7.16621,-12.2108 2.43238,0.12187 0.38962,3.19579 -10e-4,6.15193 -1.83753,4.60263 -4.99817,4.20029 -7.16454,6.05887 z" id="path9779-4-2" sodipodi:nodetypes="cccc"/><path style="display:inline;fill-opacity:1;fill:#c8c8c8;opacity:1;stroke-dasharray:none;stroke-linecap:butt;stroke-linejoin:miter;stroke-miterlimit:4;stroke-opacity:1;stroke-width:0;stroke:#000000" d="m 255.01871,336.64075 c -0.3682,-5.32656 2.62655,-5.38087 1.26358,-15.26902 2.12927,-1.53303 1.60694,2.47147 2.45026,5.26367 0.26249,5.17404 -2.60153,6.95734 -3.71396,10.00544 z" id="path9781-0-0" sodipodi:nodetypes="cccc"/><path style="display:inline;fill-opacity:1;fill:#c8c8c8;opacity:1;stroke-dasharray:none;stroke-linecap:butt;stroke-linejoin:miter;stroke-miterlimit:4;stroke-opacity:1;stroke-width:0;stroke:#000000" d="m 259.88869,336.38896 c -2.12571,-4.57924 0.54838,-6.33228 -4.00859,-14.44646 1.39775,-2.58995 2.2774,1.30749 3.97636,3.33787 1.97927,4.50227 0.005,7.73533 0.0322,11.10872 z" id="path9783-5-1" sodipodi:nodetypes="cccc"/><path style="display:inline;fill-opacity:1;fill:#c8c8c8;opacity:1;stroke-dasharray:none;stroke-linecap:butt;stroke-linejoin:miter;stroke-miterlimit:4;stroke-opacity:1;stroke-width:0;stroke:#000000" d="m 264.50525,334.31105 c -3.53165,-2.74508 -1.80447,-5.92504 -8.7601,-10.30677 0.29793,-3.13969 2.4831,-0.2359 4.7168,0.51949 3.37456,2.76654 2.80034,6.82575 4.04329,9.78745 z" id="path9785-2-3" sodipodi:nodetypes="cccc"/><path style="display:inline;fill-opacity:1;fill:#c8c8c8;opacity:1;stroke-dasharray:none;stroke-linecap:butt;stroke-linejoin:miter;stroke-miterlimit:4;stroke-opacity:1;stroke-width:0;stroke:#000000" d="m 267.78905,328.93574 c -4.10137,0.43669 -4.11965,-3.4556 -11.73872,-1.76198 -1.16286,-2.77915 1.91427,-2.06891 4.06933,-3.14295 3.98318,-0.30049 5.33285,3.43549 7.66946,4.90508 z" id="path9787-4-2" sodipodi:nodetypes="cccc"/><path style="display:inline;fill-opacity:1;fill:#c8c8c8;opacity:1;stroke-dasharray:none;stroke-linecap:butt;stroke-linejoin:miter;stroke-miterlimit:4;stroke-opacity:1;stroke-width:0;stroke:#000000" d="m 268.26982,323.39332 c -3.76571,2.15654 -4.76288,-1.51377 -11.53625,3.32627 -1.79852,-2.13175 1.28806,-2.76899 3.05413,-4.70025 3.68831,-1.97758 5.90424,0.9789 8.48222,1.37408 z" id="path9789-4-9" sodipodi:nodetypes="cccc"/><path style="display:inline;fill-opacity:1;fill:#c8c8c8;opacity:1;stroke-dasharray:none;stroke-linecap:butt;stroke-linejoin:miter;stroke-miterlimit:4;stroke-opacity:1;stroke-width:0;stroke:#000000" d="m 267.38868,317.34212 c -2.79729,3.92242 -4.83383,1.06837 -9.57169,9.00565 -2.30196,-1.02846 0.33621,-3.20601 1.36706,-5.88982 2.78093,-3.71823 5.71796,-2.14822 8.20476,-3.11578 z" id="path9791-3-1" sodipodi:nodetypes="cccc"/><path style="display:inline;fill-opacity:1;fill-rule:evenodd;fill:#214478;opacity:1;stroke-dasharray:none;stroke-linecap:butt;stroke-linejoin:miter;stroke-miterlimit:4;stroke-opacity:1;stroke-width:0;stroke:#000000" d="m 342.98358,377.48284 c 0.65831,1.63237 3.67927,15.11566 5.76921,18.21554 -34.53844,7.30149 -91.52184,13.65121 -117.02441,1.27442 1.23075,-3.80036 5.45913,-22.1061 5.45913,-22.1061 16.02542,7.75927 59.78525,11.28394 105.79607,2.61614 z" id="path9793-9-6" sodipodi:nodetypes="ccccc"/><path style="display:inline;fill-opacity:1;fill-rule:evenodd;fill:#c8c8c8;opacity:1;stroke-dasharray:none;stroke-linecap:butt;stroke-linejoin:miter;stroke-miterlimit:4;stroke-opacity:1;stroke-width:0;stroke:#000000" d="m 364.71365,370.07556 c 0.28266,1.65447 1.74957,6.10257 2.16718,6.93024 -38.11615,6.94372 -124.35355,9.24888 -144.11493,-2.55379 1.23075,-3.80036 1.77607,-6.6686 1.77607,-6.6686 12.4945,7.75927 89.70075,10.95995 140.17168,2.29215 z" id="path9795-8-2" sodipodi:nodetypes="ccccc"/><path style="display:inline;fill-opacity:1;fill-rule:evenodd;fill:#c8c8c8;opacity:1;stroke-dasharray:none;stroke-linecap:butt;stroke-linejoin:miter;stroke-miterlimit:4;stroke-opacity:1;stroke-width:0;stroke:#000000" d="m 369.83814,394.16197 c 0.87928,1.88058 -0.0877,6.86688 0.008,8.07722 -34.53844,7.30149 -122.07725,10.72519 -147.57982,-1.6516 -0.94418,-3.21825 -0.54661,-6.43376 -0.54661,-6.43376 15.09982,9.37906 101.14777,10.35576 148.11848,0.008 z" id="path9797-4-0" sodipodi:nodetypes="cccccc"/><path style="display:inline;fill-opacity:1;fill:#ffffff;opacity:1;stroke-dasharray:none;stroke-linecap:butt;stroke-linejoin:miter;stroke-miterlimit:4;stroke-opacity:1;stroke-width:0;stroke:#000000" d="m 238.14291,382.95377 c -0.25442,2.45271 1.31844,2.52865 0.48915,7.0703 1.10119,0.74388 0.87259,-1.11364 1.3477,-2.38827 0.19713,-2.38411 -1.28726,-3.256 -1.83685,-4.68203 z" id="path9799-2-4" sodipodi:nodetypes="cccc"/><path style="display:inline;fill-opacity:1;fill:#ffffff;opacity:1;stroke-dasharray:none;stroke-linecap:butt;stroke-linejoin:miter;stroke-miterlimit:4;stroke-opacity:1;stroke-width:0;stroke:#000000" d="m 241.17599,382.974 c -1.3694,1.91184 -0.079,2.9415 -2.91667,6.26173 0.57823,1.30327 1.2601,-0.40327 2.26086,-1.18631 1.28878,-1.88918 0.44775,-3.53563 0.65581,-5.07542 z" id="path9801-6-0" sodipodi:nodetypes="cccc"/><path style="display:inline;fill-opacity:1;fill:#ffffff;opacity:1;stroke-dasharray:none;stroke-linecap:butt;stroke-linejoin:miter;stroke-miterlimit:4;stroke-opacity:1;stroke-width:0;stroke:#000000" d="m 244.06058,384.13043 c -2.0257,0.86596 -1.36391,2.49701 -5.27902,3.73698 -0.0743,1.45852 1.26675,0.37515 2.47662,0.27311 1.94603,-0.89266 1.94434,-2.79873 2.8024,-4.01009 z" id="path9803-8-1" sodipodi:nodetypes="cccc"/><path style="display:inline;fill-opacity:1;fill:#ffffff;opacity:1;stroke-dasharray:none;stroke-linecap:butt;stroke-linejoin:miter;stroke-miterlimit:4;stroke-opacity:1;stroke-width:0;stroke:#000000" d="m 245.5979,386.52261 c -2.15219,-0.24665 -2.19057,1.55042 -6.18215,0.6848 -0.63168,1.27051 0.99072,0.97632 2.1153,1.49597 2.0911,0.18245 2.82801,-1.52783 4.06685,-2.18077 z" id="path9805-1-8" sodipodi:nodetypes="cccc"/><path style="display:inline;fill-opacity:1;fill:#ffffff;opacity:1;stroke-dasharray:none;stroke-linecap:butt;stroke-linejoin:miter;stroke-miterlimit:4;stroke-opacity:1;stroke-width:0;stroke:#000000" d="m 245.57434,390.26842 c -1.65508,-1.59016 -2.57471,-0.13115 -5.44261,-3.41735 -1.1493,0.64204 0.33558,1.44434 1.00733,2.59788 1.63634,1.4978 3.08981,0.56047 4.43528,0.81947 z" id="path9807-7-2" sodipodi:nodetypes="cccc"/><path style="display:inline;fill-opacity:1;fill:#ffffff;opacity:1;stroke-dasharray:none;stroke-linecap:butt;stroke-linejoin:miter;stroke-miterlimit:4;stroke-opacity:1;stroke-width:0;stroke:#000000" d="m 244.56585,393.16021 c -0.95026,-2.21874 -2.30816,-1.30923 -3.76673,-5.63929 -1.27851,0.0563 -0.20479,1.47591 7.9e-4,2.84114 0.96585,2.12562 2.62716,1.93981 3.76586,2.79815 z" id="path9809-4-6" sodipodi:nodetypes="cccc"/><path style="display:inline;fill-opacity:1;fill:#ffffff;opacity:1;stroke-dasharray:none;stroke-linecap:butt;stroke-linejoin:miter;stroke-miterlimit:4;stroke-opacity:1;stroke-width:0;stroke:#000000" d="m 241.89825,394.86047 c 0.19353,-2.45996 -1.38058,-2.48504 -0.66417,-7.05167 -1.1192,-0.70799 -0.84465,1.1414 -1.28792,2.43091 -0.13797,2.38952 1.36743,3.2131 1.95215,4.6208 z" id="path9811-1-8" sodipodi:nodetypes="cccc"/><path style="display:inline;fill-opacity:1;fill:#ffffff;opacity:1;stroke-dasharray:none;stroke-linecap:butt;stroke-linejoin:miter;stroke-miterlimit:4;stroke-opacity:1;stroke-width:0;stroke:#000000" d="m 239.33846,394.74418 c 1.11733,-2.11482 -0.28823,-2.92442 2.10702,-6.67178 -0.73469,-1.19611 -1.19706,0.60383 -2.09007,1.54152 -1.04035,2.07928 -0.003,3.5724 -0.0169,5.13033 z" id="path9813-5-7" sodipodi:nodetypes="cccc"/><path style="display:inline;fill-opacity:1;fill:#ffffff;opacity:1;stroke-dasharray:none;stroke-linecap:butt;stroke-linejoin:miter;stroke-miterlimit:4;stroke-opacity:1;stroke-width:0;stroke:#000000" d="m 236.91189,393.78455 c 1.85632,-1.26776 0.94847,-2.73636 4.60452,-4.75996 -0.1566,-1.45 -1.30518,-0.10895 -2.47926,0.23991 -1.77375,1.27767 -1.47194,3.15233 -2.12526,4.52013 z" id="path9815-4-0" sodipodi:nodetypes="cccc"/><path style="display:inline;fill-opacity:1;fill:#ffffff;opacity:1;stroke-dasharray:none;stroke-linecap:butt;stroke-linejoin:miter;stroke-miterlimit:4;stroke-opacity:1;stroke-width:0;stroke:#000000" d="m 235.18585,391.30208 c 2.15578,0.20167 2.16539,-1.5959 6.17016,-0.81374 0.61122,-1.28349 -1.00619,-0.95548 -2.13895,-1.4515 -2.09365,-0.13877 -2.80308,1.58661 -4.03125,2.2653 z" id="path9817-2-1" sodipodi:nodetypes="cccc"/><path style="display:inline;fill-opacity:1;fill:#ffffff;opacity:1;stroke-dasharray:none;stroke-linecap:butt;stroke-linejoin:miter;stroke-miterlimit:4;stroke-opacity:1;stroke-width:0;stroke:#000000" d="m 234.93314,388.74243 c 1.97935,0.99595 2.50349,-0.6991 6.06373,1.53616 0.94535,-0.9845 -0.67703,-1.27879 -1.60532,-2.1707 -1.93867,-0.91331 -3.10341,0.45208 -4.45846,0.63459 z" id="path9819-0-8" sodipodi:nodetypes="cccc"/><path style="display:inline;fill-opacity:1;fill:#ffffff;opacity:1;stroke-dasharray:none;stroke-linecap:butt;stroke-linejoin:miter;stroke-miterlimit:4;stroke-opacity:1;stroke-width:0;stroke:#000000" d="m 235.39629,385.94781 c 1.47032,1.81149 2.54078,0.49341 5.03111,4.15907 1.20997,-0.47497 -0.17672,-1.48063 -0.71856,-2.72009 -1.46173,-1.71718 -3.00549,-0.99211 -4.31261,-1.43895 z" id="path9821-2-8" sodipodi:nodetypes="cccc"/><path style="display:inline;fill-opacity:1;fill:#ffffff;opacity:1;stroke-dasharray:none;stroke-linecap:butt;stroke-linejoin:miter;stroke-miterlimit:4;stroke-opacity:1;stroke-width:0;stroke:#000000" d="m 259.35651,386.76627 c -0.28126,2.45271 1.45751,2.52865 0.54074,7.0703 1.21736,0.74388 0.96464,-1.11364 1.48987,-2.38827 0.21792,-2.38411 -1.42305,-3.256 -2.03061,-4.68203 z" id="path9823-8-4" sodipodi:nodetypes="cccc"/><path style="display:inline;fill-opacity:1;fill:#ffffff;opacity:1;stroke-dasharray:none;stroke-linecap:butt;stroke-linejoin:miter;stroke-miterlimit:4;stroke-opacity:1;stroke-width:0;stroke:#000000" d="m 262.70953,386.7865 c -1.51385,1.91184 -0.0873,2.9415 -3.22434,6.26173 0.63923,1.30327 1.39303,-0.40327 2.49936,-1.18631 1.42473,-1.88918 0.49498,-3.53563 0.72498,-5.07542 z" id="path9825-6-2" sodipodi:nodetypes="cccc"/><path style="display:inline;fill-opacity:1;fill:#ffffff;opacity:1;stroke-dasharray:none;stroke-linecap:butt;stroke-linejoin:miter;stroke-miterlimit:4;stroke-opacity:1;stroke-width:0;stroke:#000000" d="m 265.89841,387.94293 c -2.23938,0.86596 -1.50778,2.49701 -5.83589,3.73698 -0.0821,1.45852 1.40038,0.37515 2.73788,0.27311 2.15131,-0.89266 2.14944,-2.79873 3.09801,-4.01009 z" id="path9827-9-9" sodipodi:nodetypes="cccc"/><path style="display:inline;fill-opacity:1;fill:#ffffff;opacity:1;stroke-dasharray:none;stroke-linecap:butt;stroke-linejoin:miter;stroke-miterlimit:4;stroke-opacity:1;stroke-width:0;stroke:#000000" d="m 267.5979,390.33511 c -2.37922,-0.24665 -2.42165,1.55042 -6.83429,0.6848 -0.69831,1.27051 1.09523,0.97632 2.33844,1.49597 2.31168,0.18245 3.12633,-1.52783 4.49585,-2.18077 z" id="path9829-4-7" sodipodi:nodetypes="cccc"/><path style="display:inline;fill-opacity:1;fill:#ffffff;opacity:1;stroke-dasharray:none;stroke-linecap:butt;stroke-linejoin:miter;stroke-miterlimit:4;stroke-opacity:1;stroke-width:0;stroke:#000000" d="m 267.57185,394.08092 c -1.82967,-1.59016 -2.8463,-0.13115 -6.01673,-3.41735 -1.27054,0.64204 0.37098,1.44434 1.11359,2.59788 1.80895,1.4978 3.41575,0.56047 4.90314,0.81947 z" id="path9831-5-7" sodipodi:nodetypes="cccc"/><path style="display:inline;fill-opacity:1;fill:#ffffff;opacity:1;stroke-dasharray:none;stroke-linecap:butt;stroke-linejoin:miter;stroke-miterlimit:4;stroke-opacity:1;stroke-width:0;stroke:#000000" d="m 266.45698,396.97271 c -1.0505,-2.21874 -2.55164,-1.30923 -4.16407,-5.63929 -1.41338,0.0563 -0.22639,1.47591 8.7e-4,2.84114 1.06774,2.12562 2.90429,1.93981 4.16311,2.79815 z" id="path9833-4-2" sodipodi:nodetypes="cccc"/><path style="display:inline;fill-opacity:1;fill:#ffffff;opacity:1;stroke-dasharray:none;stroke-linecap:butt;stroke-linejoin:miter;stroke-miterlimit:4;stroke-opacity:1;stroke-width:0;stroke:#000000" d="m 263.50798,398.67297 c 0.21395,-2.45996 -1.52621,-2.48504 -0.73423,-7.05167 -1.23726,-0.70799 -0.93375,1.1414 -1.42378,2.43091 -0.15252,2.38952 1.51168,3.2131 2.15808,4.6208 z" id="path9835-4-1" sodipodi:nodetypes="cccc"/><path style="display:inline;fill-opacity:1;fill:#ffffff;opacity:1;stroke-dasharray:none;stroke-linecap:butt;stroke-linejoin:miter;stroke-miterlimit:4;stroke-opacity:1;stroke-width:0;stroke:#000000" d="m 260.67817,398.55668 c 1.23519,-2.11482 -0.31864,-2.92442 2.32928,-6.67178 -0.81219,-1.19611 -1.32333,0.60383 -2.31054,1.54152 -1.1501,2.07928 -0.003,3.5724 -0.0187,5.13033 z" id="path9837-4-1" sodipodi:nodetypes="cccc"/><path style="display:inline;fill-opacity:1;fill:#ffffff;opacity:1;stroke-dasharray:none;stroke-linecap:butt;stroke-linejoin:miter;stroke-miterlimit:4;stroke-opacity:1;stroke-width:0;stroke:#000000" d="m 257.99563,397.59705 c 2.05214,-1.26776 1.04852,-2.73636 5.09023,-4.75996 -0.17311,-1.45 -1.44285,-0.10895 -2.74079,0.23991 -1.96085,1.27767 -1.6272,3.15233 -2.34944,4.52013 z" id="path9839-7-8" sodipodi:nodetypes="cccc"/><path style="display:inline;fill-opacity:1;fill:#ffffff;opacity:1;stroke-dasharray:none;stroke-linecap:butt;stroke-linejoin:miter;stroke-miterlimit:4;stroke-opacity:1;stroke-width:0;stroke:#000000" d="m 256.08751,395.11458 c 2.38319,0.20167 2.39381,-1.5959 6.82103,-0.81374 0.6757,-1.28349 -1.11233,-0.95548 -2.36458,-1.4515 -2.3145,-0.13877 -3.09876,1.58661 -4.45649,2.2653 z" id="path9841-0-5" sodipodi:nodetypes="cccc"/><path style="display:inline;fill-opacity:1;fill:#ffffff;opacity:1;stroke-dasharray:none;stroke-linecap:butt;stroke-linejoin:miter;stroke-miterlimit:4;stroke-opacity:1;stroke-width:0;stroke:#000000" d="m 255.80815,392.55493 c 2.18814,0.99595 2.76757,-0.6991 6.70337,1.53616 1.04507,-0.9845 -0.74845,-1.27879 -1.77466,-2.1707 -2.14317,-0.91331 -3.43078,0.45208 -4.92877,0.63459 z" id="path9843-0-6" sodipodi:nodetypes="cccc"/><path style="display:inline;fill-opacity:1;fill:#ffffff;opacity:1;stroke-dasharray:none;stroke-linecap:butt;stroke-linejoin:miter;stroke-miterlimit:4;stroke-opacity:1;stroke-width:0;stroke:#000000" d="m 256.32015,389.76031 c 1.62542,1.81149 2.8088,0.49341 5.56183,4.15907 1.3376,-0.47497 -0.19536,-1.48063 -0.79436,-2.72009 -1.61592,-1.71718 -3.32253,-0.99211 -4.76754,-1.43895 z" id="path9845-3-5" sodipodi:nodetypes="cccc"/><path style="display:inline;fill-opacity:1;fill:#ffffff;opacity:1;stroke-dasharray:none;stroke-linecap:butt;stroke-linejoin:miter;stroke-miterlimit:4;stroke-opacity:1;stroke-width:0;stroke:#000000" d="m 289.27853,387.2966 c -0.28126,2.45271 1.45751,2.52865 0.54074,7.0703 1.21736,0.74388 0.96464,-1.11364 1.48987,-2.38827 0.21792,-2.38411 -1.42305,-3.256 -2.03061,-4.68203 z" id="path9847-3-7" sodipodi:nodetypes="cccc"/><path style="display:inline;fill-opacity:1;fill:#ffffff;opacity:1;stroke-dasharray:none;stroke-linecap:butt;stroke-linejoin:miter;stroke-miterlimit:4;stroke-opacity:1;stroke-width:0;stroke:#000000" d="m 292.63155,387.31683 c -1.51385,1.91184 -0.0873,2.9415 -3.22434,6.26173 0.63923,1.30327 1.39303,-0.40327 2.49936,-1.18631 1.42473,-1.88918 0.49498,-3.53563 0.72498,-5.07542 z" id="path9849-7-6" sodipodi:nodetypes="cccc"/><path style="display:inline;fill-opacity:1;fill:#ffffff;opacity:1;stroke-dasharray:none;stroke-linecap:butt;stroke-linejoin:miter;stroke-miterlimit:4;stroke-opacity:1;stroke-width:0;stroke:#000000" d="m 295.82043,388.47326 c -2.23938,0.86596 -1.50778,2.49701 -5.83589,3.73698 -0.0821,1.45852 1.40038,0.37515 2.73788,0.27311 2.15131,-0.89266 2.14944,-2.79873 3.09801,-4.01009 z" id="path9851-9-6" sodipodi:nodetypes="cccc"/><path style="display:inline;fill-opacity:1;fill:#ffffff;opacity:1;stroke-dasharray:none;stroke-linecap:butt;stroke-linejoin:miter;stroke-miterlimit:4;stroke-opacity:1;stroke-width:0;stroke:#000000" d="m 297.51992,390.86544 c -2.37922,-0.24665 -2.42165,1.55042 -6.83429,0.6848 -0.69831,1.27051 1.09523,0.97632 2.33844,1.49597 2.31168,0.18245 3.12633,-1.52783 4.49585,-2.18077 z" id="path9853-6-1" sodipodi:nodetypes="cccc"/><path style="display:inline;fill-opacity:1;fill:#ffffff;opacity:1;stroke-dasharray:none;stroke-linecap:butt;stroke-linejoin:miter;stroke-miterlimit:4;stroke-opacity:1;stroke-width:0;stroke:#000000" d="m 297.49387,394.61125 c -1.82967,-1.59016 -2.8463,-0.13115 -6.01673,-3.41735 -1.27054,0.64204 0.37098,1.44434 1.11359,2.59788 1.80895,1.4978 3.41575,0.56047 4.90314,0.81947 z" id="path9855-9-7" sodipodi:nodetypes="cccc"/><path style="display:inline;fill-opacity:1;fill:#ffffff;opacity:1;stroke-dasharray:none;stroke-linecap:butt;stroke-linejoin:miter;stroke-miterlimit:4;stroke-opacity:1;stroke-width:0;stroke:#000000" d="m 296.379,397.50304 c -1.0505,-2.21874 -2.55164,-1.30923 -4.16407,-5.63929 -1.41338,0.0563 -0.22639,1.47591 8.7e-4,2.84114 1.06774,2.12562 2.90429,1.93981 4.16311,2.79815 z" id="path9857-2-6" sodipodi:nodetypes="cccc"/><path style="display:inline;fill-opacity:1;fill:#ffffff;opacity:1;stroke-dasharray:none;stroke-linecap:butt;stroke-linejoin:miter;stroke-miterlimit:4;stroke-opacity:1;stroke-width:0;stroke:#000000" d="m 293.43,399.2033 c 0.21395,-2.45996 -1.52621,-2.48504 -0.73423,-7.05167 -1.23726,-0.70799 -0.93375,1.1414 -1.42378,2.43091 -0.15252,2.38952 1.51168,3.2131 2.15808,4.6208 z" id="path9859-2-2" sodipodi:nodetypes="cccc"/><path style="display:inline;fill-opacity:1;fill:#ffffff;opacity:1;stroke-dasharray:none;stroke-linecap:butt;stroke-linejoin:miter;stroke-miterlimit:4;stroke-opacity:1;stroke-width:0;stroke:#000000" d="m 290.60019,399.08701 c 1.23519,-2.11482 -0.31864,-2.92442 2.32928,-6.67178 -0.81219,-1.19611 -1.32333,0.60383 -2.31054,1.54152 -1.1501,2.07928 -0.003,3.5724 -0.0187,5.13033 z" id="path9861-2-3" sodipodi:nodetypes="cccc"/><path style="display:inline;fill-opacity:1;fill:#ffffff;opacity:1;stroke-dasharray:none;stroke-linecap:butt;stroke-linejoin:miter;stroke-miterlimit:4;stroke-opacity:1;stroke-width:0;stroke:#000000" d="m 287.91765,398.12738 c 2.05214,-1.26776 1.04852,-2.73636 5.09023,-4.75996 -0.17311,-1.45 -1.44285,-0.10895 -2.74079,0.23991 -1.96085,1.27767 -1.6272,3.15233 -2.34944,4.52013 z" id="path9863-4-1" sodipodi:nodetypes="cccc"/><path style="display:inline;fill-opacity:1;fill:#ffffff;opacity:1;stroke-dasharray:none;stroke-linecap:butt;stroke-linejoin:miter;stroke-miterlimit:4;stroke-opacity:1;stroke-width:0;stroke:#000000" d="m 286.00953,395.64491 c 2.38319,0.20167 2.39381,-1.5959 6.82103,-0.81374 0.6757,-1.28349 -1.11233,-0.95548 -2.36458,-1.4515 -2.3145,-0.13877 -3.09876,1.58661 -4.45649,2.2653 z" id="path9865-1-5" sodipodi:nodetypes="cccc"/><path style="display:inline;fill-opacity:1;fill:#ffffff;opacity:1;stroke-dasharray:none;stroke-linecap:butt;stroke-linejoin:miter;stroke-miterlimit:4;stroke-opacity:1;stroke-width:0;stroke:#000000" d="m 285.73017,393.08526 c 2.18814,0.99595 2.76757,-0.6991 6.70337,1.53616 1.04507,-0.9845 -0.74845,-1.27879 -1.77466,-2.1707 -2.14317,-0.91331 -3.43078,0.45208 -4.92877,0.63459 z" id="path9867-4-0" sodipodi:nodetypes="cccc"/><path style="display:inline;fill-opacity:1;fill:#ffffff;opacity:1;stroke-dasharray:none;stroke-linecap:butt;stroke-linejoin:miter;stroke-miterlimit:4;stroke-opacity:1;stroke-width:0;stroke:#000000" d="m 286.24217,390.29064 c 1.62542,1.81149 2.8088,0.49341 5.56183,4.15907 1.3376,-0.47497 -0.19536,-1.48063 -0.79436,-2.72009 -1.61592,-1.71718 -3.32253,-0.99211 -4.76754,-1.43895 z" id="path9869-6-4" sodipodi:nodetypes="cccc"/><path style="display:inline;fill-opacity:1;fill:#ffffff;opacity:1;stroke-dasharray:none;stroke-linecap:butt;stroke-linejoin:miter;stroke-miterlimit:4;stroke-opacity:1;stroke-width:0;stroke:#000000" d="m 316.58551,384.69305 c -0.28126,2.45271 1.45751,2.52865 0.54074,7.0703 1.21736,0.74388 0.96464,-1.11364 1.48987,-2.38827 0.21792,-2.38411 -1.42305,-3.256 -2.03061,-4.68203 z" id="path9871-2-3" sodipodi:nodetypes="cccc"/><path style="display:inline;fill-opacity:1;fill:#ffffff;opacity:1;stroke-dasharray:none;stroke-linecap:butt;stroke-linejoin:miter;stroke-miterlimit:4;stroke-opacity:1;stroke-width:0;stroke:#000000" d="m 319.93853,384.71328 c -1.51385,1.91184 -0.0873,2.9415 -3.22434,6.26173 0.63923,1.30327 1.39303,-0.40327 2.49936,-1.18631 1.42473,-1.88918 0.49498,-3.53563 0.72498,-5.07542 z" id="path9873-7-5" sodipodi:nodetypes="cccc"/><path style="display:inline;fill-opacity:1;fill:#ffffff;opacity:1;stroke-dasharray:none;stroke-linecap:butt;stroke-linejoin:miter;stroke-miterlimit:4;stroke-opacity:1;stroke-width:0;stroke:#000000" d="m 323.12741,385.86971 c -2.23938,0.86596 -1.50778,2.49701 -5.83589,3.73698 -0.0821,1.45852 1.40038,0.37515 2.73788,0.27311 2.15131,-0.89266 2.14944,-2.79873 3.09801,-4.01009 z" id="path9875-1-9" sodipodi:nodetypes="cccc"/><path style="display:inline;fill-opacity:1;fill:#ffffff;opacity:1;stroke-dasharray:none;stroke-linecap:butt;stroke-linejoin:miter;stroke-miterlimit:4;stroke-opacity:1;stroke-width:0;stroke:#000000" d="m 324.8269,388.26189 c -2.37922,-0.24665 -2.42165,1.55042 -6.83429,0.6848 -0.69831,1.27051 1.09523,0.97632 2.33844,1.49597 2.31168,0.18245 3.12633,-1.52783 4.49585,-2.18077 z" id="path9877-3-9" sodipodi:nodetypes="cccc"/><path style="display:inline;fill-opacity:1;fill:#ffffff;opacity:1;stroke-dasharray:none;stroke-linecap:butt;stroke-linejoin:miter;stroke-miterlimit:4;stroke-opacity:1;stroke-width:0;stroke:#000000" d="m 324.80085,392.0077 c -1.82967,-1.59016 -2.8463,-0.13115 -6.01673,-3.41735 -1.27054,0.64204 0.37098,1.44434 1.11359,2.59788 1.80895,1.4978 3.41575,0.56047 4.90314,0.81947 z" id="path9879-3-9" sodipodi:nodetypes="cccc"/><path style="display:inline;fill-opacity:1;fill:#ffffff;opacity:1;stroke-dasharray:none;stroke-linecap:butt;stroke-linejoin:miter;stroke-miterlimit:4;stroke-opacity:1;stroke-width:0;stroke:#000000" d="m 323.68598,394.89949 c -1.0505,-2.21874 -2.55164,-1.30923 -4.16407,-5.63929 -1.41338,0.0563 -0.22639,1.47591 8.7e-4,2.84114 1.06774,2.12562 2.90429,1.93981 4.16311,2.79815 z" id="path9881-3-8" sodipodi:nodetypes="cccc"/><path style="display:inline;fill-opacity:1;fill:#ffffff;opacity:1;stroke-dasharray:none;stroke-linecap:butt;stroke-linejoin:miter;stroke-miterlimit:4;stroke-opacity:1;stroke-width:0;stroke:#000000" d="m 320.73698,396.59975 c 0.21395,-2.45996 -1.52621,-2.48504 -0.73423,-7.05167 -1.23726,-0.70799 -0.93375,1.1414 -1.42378,2.43091 -0.15252,2.38952 1.51168,3.2131 2.15808,4.6208 z" id="path9883-9-6" sodipodi:nodetypes="cccc"/><path style="display:inline;fill-opacity:1;fill:#ffffff;opacity:1;stroke-dasharray:none;stroke-linecap:butt;stroke-linejoin:miter;stroke-miterlimit:4;stroke-opacity:1;stroke-width:0;stroke:#000000" d="m 317.90717,396.48346 c 1.23519,-2.11482 -0.31864,-2.92442 2.32928,-6.67178 -0.81219,-1.19611 -1.32333,0.60383 -2.31054,1.54152 -1.1501,2.07928 -0.003,3.5724 -0.0187,5.13033 z" id="path9885-3-6" sodipodi:nodetypes="cccc"/><path style="display:inline;fill-opacity:1;fill:#ffffff;opacity:1;stroke-dasharray:none;stroke-linecap:butt;stroke-linejoin:miter;stroke-miterlimit:4;stroke-opacity:1;stroke-width:0;stroke:#000000" d="m 315.22463,395.52383 c 2.05214,-1.26776 1.04852,-2.73636 5.09023,-4.75996 -0.17311,-1.45 -1.44285,-0.10895 -2.74079,0.23991 -1.96085,1.27767 -1.6272,3.15233 -2.34944,4.52013 z" id="path9887-2-5" sodipodi:nodetypes="cccc"/><path style="display:inline;fill-opacity:1;fill:#ffffff;opacity:1;stroke-dasharray:none;stroke-linecap:butt;stroke-linejoin:miter;stroke-miterlimit:4;stroke-opacity:1;stroke-width:0;stroke:#000000" d="m 313.31651,393.04136 c 2.38319,0.20167 2.39381,-1.5959 6.82103,-0.81374 0.6757,-1.28349 -1.11233,-0.95548 -2.36458,-1.4515 -2.3145,-0.13877 -3.09876,1.58661 -4.45649,2.2653 z" id="path9889-8-8" sodipodi:nodetypes="cccc"/><path style="display:inline;fill-opacity:1;fill:#ffffff;opacity:1;stroke-dasharray:none;stroke-linecap:butt;stroke-linejoin:miter;stroke-miterlimit:4;stroke-opacity:1;stroke-width:0;stroke:#000000" d="m 313.03715,390.48171 c 2.18814,0.99595 2.76757,-0.6991 6.70337,1.53616 1.04507,-0.9845 -0.74845,-1.27879 -1.77466,-2.1707 -2.14317,-0.91331 -3.43078,0.45208 -4.92877,0.63459 z" id="path9891-9-2" sodipodi:nodetypes="cccc"/><path style="display:inline;fill-opacity:1;fill:#ffffff;opacity:1;stroke-dasharray:none;stroke-linecap:butt;stroke-linejoin:miter;stroke-miterlimit:4;stroke-opacity:1;stroke-width:0;stroke:#000000" d="m 313.54915,387.68709 c 1.62542,1.81149 2.8088,0.49341 5.56183,4.15907 1.3376,-0.47497 -0.19536,-1.48063 -0.79436,-2.72009 -1.61592,-1.71718 -3.32253,-0.99211 -4.76754,-1.43895 z" id="path9893-0-6" sodipodi:nodetypes="cccc"/></svg>
