<svg viewBox="0 0 560 1000"><path style="display:inline;fill-opacity:1;fill-rule:evenodd;fill:#000000;opacity:1;stroke-dasharray:none;stroke-linecap:butt;stroke-linejoin:miter;stroke-miterlimit:4;stroke-opacity:1;stroke-width:0;stroke:#000000" d="m 362.42477,411.03291 c 0.17662,0.30015 0.49841,0.63145 0.38799,0.66682 -14.42053,4.62011 -42.66379,8.39569 -66.70079,29.90394 -6.90461,6.17822 -12.84524,16.10688 -13.05843,16.76233 -1.04426,1.79208 -1.92791,7.48902 -4.51916,9.89166 -0.98164,0.91018 -3.71484,-0.0282 -4.05368,0.0439 -0.91699,0.19518 -2.10299,0.3053 -2.85209,0.24729 -2.39319,-0.18531 -5.60399,-2.76424 -7.09599,-7.98302 -2.95846,-2.85539 -25.93037,-39.14149 -39.21142,-47.38954 0.11156,-0.0322 0.41858,-0.91827 0.52192,-1.08247 0.0915,-0.14527 0.2803,0.0882 0.40855,0.19853 53.30499,21.47903 42.62075,21.97592 128.49041,-0.17682 3.20855,-0.82775 4.72924,-0.86026 7.68269,-1.08263 z" id="path2360-86-1-5-0" sodipodi:nodetypes="csscsssccscsc"/><path style="display:inline;fill-opacity:1;fill-rule:evenodd;fill:#00a883;opacity:1;stroke-dasharray:none;stroke-linecap:butt;stroke-linejoin:miter;stroke-miterlimit:4;stroke-opacity:1;stroke-width:0;stroke:#000000" d="m 362.42477,412.09357 c 0.17662,0.29463 0.49841,0.61983 0.38799,0.65455 -14.42053,4.53507 -42.66379,8.24115 -66.70079,29.35351 -6.90461,6.06451 -12.84524,15.81041 -13.05843,16.4538 -1.04426,1.75909 -1.92791,7.35117 -4.51916,9.70959 -0.98164,0.89343 -3.71484,-0.0277 -4.05368,0.0431 -0.91699,0.19159 -2.10299,0.29968 -2.85209,0.24274 -2.39319,-0.1819 -5.60399,-2.71336 -7.09599,-7.83608 -2.95846,-2.80283 -25.93037,-38.42104 -39.21142,-46.51727 0.11156,-0.0316 0.41858,-0.90137 0.52192,-1.06255 0.0915,-0.14259 0.2803,0.0866 0.40855,0.19488 53.30499,21.08368 42.62075,21.57142 128.49041,-0.17357 3.20855,-0.81251 4.72924,-0.84442 7.68269,-1.0627 z" id="path2360-86-1-5" sodipodi:nodetypes="csscsssccscsc"/><path style="display:inline;fill-opacity:1;fill-rule:evenodd;fill:#000000;opacity:1;stroke-dasharray:none;stroke-linecap:butt;stroke-linejoin:miter;stroke-miterlimit:4;stroke-opacity:1;stroke-width:0;stroke:#000000" d="m 370.74379,268.90802 c -0.47811,3.70196 -3.53859,21.23486 -9.85006,39.54879 0,0 -60.34257,-24.72728 -61.43367,-4.26877 -0.69727,13.07402 -8.86808,189.99423 0.066,204.46732 -1.46254,2.04111 -47.48061,3.55731 -56.53595,-2.11146 -7.49207,-23.10344 26.66715,-200.10073 27.00217,-202.96031 1.77707,-15.16848 -29.77474,-5.70421 -31.72443,-5.8672 -3.86707,-13.63683 -1.79046,-35.25352 0.4586,-44.28813 7.90614,-13.05062 36.33752,-35.68612 37.87631,-48.02616 -0.63201,-0.33426 5.6939,-3.30631 8.84504,-5.53187 4.11179,9.34821 22.98745,8.86453 32.62709,-2.06063 5.02226,4.22066 9.11609,5.43069 9.06243,5.7435 -4.97608,21.29673 16.63368,47.35194 43.60651,65.35492 z" id="path3956-4-9" sodipodi:nodetypes="cssccscccccccc"/><path style="display:inline;fill-opacity:1;fill-rule:evenodd;fill:#00a883;opacity:1;stroke-dasharray:none;stroke-linecap:butt;stroke-linejoin:miter;stroke-miterlimit:4;stroke-opacity:1;stroke-width:0;stroke:#000000" d="m 370.24379,269.09552 c -0.47811,3.70196 -2.08776,21.26963 -9.72506,38.61129 0,0 -60.46757,-24.47728 -61.55867,-4.01877 -0.69727,13.07402 -9.07519,190.14068 -0.14115,204.61377 -1.46254,2.04111 -46.24317,3.55731 -55.29851,-2.11146 -7.49207,-23.10344 26.63682,-200.12218 26.97184,-202.98176 1.77707,-15.16848 -30.46224,-5.76671 -32.41193,-5.9297 -3.86707,-13.63683 -1.79046,-33.87852 0.4586,-42.91313 7.90614,-13.05062 36.83752,-36.49862 38.37631,-48.83866 -0.63201,-0.33426 5.3189,-3.11881 8.47004,-5.34437 4.11179,9.34821 23.11245,8.86453 32.75209,-2.06063 5.02226,4.22066 8.74109,5.11819 8.68743,5.431 -4.97608,21.29673 16.44618,47.53944 43.41901,65.54242 z" id="path3956-2" sodipodi:nodetypes="cssccsccccccc"/></svg>
