<svg viewBox="0 0 560 1000"><path style="baseline-shift:baseline;clip-rule:nonzero;color-interpolation-filters:linearRGB;color-interpolation:sRGB;color-rendering:auto;color:#000000;direction:ltr;display:inline;enable-background:accumulate;fill-opacity:1;fill-rule:evenodd;fill:#000000;image-rendering:auto;isolation:auto;mix-blend-mode:normal;opacity:1;overflow:visible;shape-rendering:auto;solid-color:#000000;solid-opacity:1;stroke-dasharray:none;stroke-dashoffset:0;stroke-linecap:butt;stroke-linejoin:miter;stroke-miterlimit:4;stroke-opacity:1;stroke-width:1.77084005;stroke:none;visibility:visible;white-space:normal;writing-mode:lr-tb" d="m 357.01686,514.23639 c 0.0629,-0.70192 -6.72046,-12.77635 -16.76173,-13.72785 -23.96125,-2.27055 -65.00685,6.27868 -65.25827,4.90911 -26.36653,9.36509 -48.06621,-92.94696 -50.96046,-91.88179 -4.77629,4.71327 -17.79837,33.17177 -8.55746,94.93269 3.09773,4.37925 50.02459,9.59316 59.86517,5.19704 7.21406,4.17114 58.45672,2.05375 64.06294,-5.66857 5.29798,7.06758 17.35718,9.05676 17.60981,6.23937 z" id="path2910" sodipodi:nodetypes="sscccccs"/><path style="baseline-shift:baseline;clip-rule:nonzero;color-interpolation-filters:linearRGB;color-interpolation:sRGB;color-rendering:auto;color:#000000;direction:ltr;display:inline;enable-background:accumulate;fill-opacity:1;fill-rule:evenodd;fill:#333333;image-rendering:auto;isolation:auto;mix-blend-mode:normal;opacity:1;overflow:visible;shape-rendering:auto;solid-color:#000000;solid-opacity:1;stroke-dasharray:none;stroke-dashoffset:0;stroke-linecap:butt;stroke-linejoin:miter;stroke-miterlimit:4;stroke-opacity:1;stroke-width:1.67334545;stroke:none;visibility:visible;white-space:normal;writing-mode:lr-tb" d="m 357.06026,514.2138 c -0.0195,-1.66 -0.0411,-3.25356 -0.0638,-4.77042 -0.15456,-10.31083 -0.36428,-17.07753 -0.36428,-17.07753 33.72956,-32.16254 -3.24916,-78.8631 -4.5722,-81.91633 -13.38607,6.4024 -79.46854,27.89253 -84.58144,22.90495 0.50811,3.88758 5.22282,45.55465 7.54457,79.27476 0,0 39.21312,4.39319 64.61109,-6.39474 5.34381,4.54352 11.92433,8.2356 17.42604,7.97931 z" id="path2912" sodipodi:nodetypes="csscccccc"/><path style="baseline-shift:baseline;clip-rule:nonzero;color-interpolation-filters:linearRGB;color-interpolation:sRGB;color-rendering:auto;color:#000000;direction:ltr;display:inline;enable-background:accumulate;fill-opacity:1;fill-rule:evenodd;fill:#333333;image-rendering:auto;isolation:auto;mix-blend-mode:normal;opacity:1;overflow:visible;shape-rendering:auto;solid-color:#000000;solid-opacity:1;stroke-dasharray:none;stroke-dashoffset:0;stroke-linecap:butt;stroke-linejoin:miter;stroke-miterlimit:4;stroke-opacity:1;stroke-width:1.67334545;stroke:none;visibility:visible;white-space:normal;writing-mode:lr-tb" d="m 275.34181,512.58094 c -3.8517,-31.22025 2.60452,-62.24917 1.0002,-72.03654 -23.71289,-13.25991 -49.34533,-27.54569 -52.48774,-27.16802 -8.81018,14.48276 -13.02463,49.39153 -8.41245,95.0887 0.37516,0.054 30.51369,7.47343 59.89999,4.11586 z" id="path2914" sodipodi:nodetypes="ccccc"/><path d="m 288.02597,588.23056 c -11.75243,-41.06824 -15.69672,-67.97588 -12.62579,-106.99548 -1.12241,39.83531 4.47046,70.61731 12.62579,106.99548 z" class="shadow" id="path2916" sodipodi:nodetypes="ccc"/><path d="m 329.46037,425.76321 c -15.4791,1.19068 -42.03653,26.26041 -44.60913,30.99635 10.29989,-9.14088 29.75951,-26.28541 44.60913,-30.99635 z" class="shadow" id="path2918" sodipodi:nodetypes="ccc"/><path d="m 261.71828,457.6115 c -6.81704,-9.41592 -28.83006,-31.99347 -34.93819,-34.15183 5.05404,5.44075 26.5203,25.35081 34.93819,34.15183 z" class="shadow" id="path2920" sodipodi:nodetypes="ccc"/><path inkscape:label="#PussyshadowN" sodipodi:nodetypes="ccscc" id="path2922" class="shadow" d="m 283.66521,456.38067 c -1.54841,0.73859 -1.78928,15.78672 -9.24659,11.14886 -5.5459,3.1603 -10.12915,-4.94173 -10.42429,-8.4126 -0.25114,-2.95343 3.37748,-7.20053 3.87403,-6.51846 2.14579,-0.003 16.30971,2.85987 15.79685,3.7822 z"/><path inkscape:label="#PussyN" sodipodi:nodetypes="ccsc" id="path2924" class="skin torso" d="m 274.36595,467.58332 c -3.81452,2.31718 -9.64064,-2.27902 -10.8644,-11.68664 5.95334,-21.67633 25.49385,-8.31185 20.23612,0.35499 -2.87984,4.74713 -3.52005,14.37508 -9.37172,11.33165 z"/><path style="display:inline;fill-opacity:1;fill-rule:evenodd;fill:#ffffff;opacity:1;stroke-dasharray:none;stroke-linecap:butt;stroke-linejoin:miter;stroke-miterlimit:4;stroke-opacity:1;stroke-width:0;stroke:#000000" d="m 274.47931,509.82515 c -9.47722,3.32694 -54.42356,-1.09046 -59.31311,-4.06648 0.0156,0.36181 0.0501,0.92235 0.25601,2.69939 16.52371,5.43081 49.86142,5.59585 59.07477,4.23807 -0.0374,-0.79532 -0.0236,-2.59976 -0.0177,-2.87098 z" id="path2926" sodipodi:nodetypes="cccccc"/><path style="display:inline;fill-opacity:1;fill-rule:evenodd;fill:#ffffff;opacity:1;stroke-dasharray:none;stroke-linecap:butt;stroke-linejoin:miter;stroke-miterlimit:4;stroke-opacity:1;stroke-width:0;stroke:#000000" d="m 275.78131,509.66853 c 0.0204,0.36181 0.0162,1.14379 0.16501,3.05341 15.23297,4.03939 57.16032,0.7558 63.76707,-6.28349 2.54519,4.26609 13.60649,9.35994 17.30984,7.83942 0.13929,-0.75768 0.0454,-1.05234 0.0503,-1.32411 -2.24029,1.41082 -13.7801,-3.57983 -17.00321,-9.26712 -5.95619,8.79549 -51.13744,10.80875 -64.28896,5.99752 z" id="path2928" sodipodi:nodetypes="cccccccc"/><path style="display:inline;fill-opacity:1;fill-rule:evenodd;fill:#ffffff;opacity:1;stroke-dasharray:none;stroke-linecap:butt;stroke-linejoin:miter;stroke-miterlimit:4;stroke-opacity:1;stroke-width:0;stroke:#000000" d="m 336.18565,421.8999 c 4.3624,12.79607 4.98159,76.66552 2.56903,84.00697 0.35782,-0.0789 0.91102,-0.2158 2.65404,-0.78531 3.55549,-24.08049 0.004,-70.96344 -2.37195,-83.69902 -0.7862,0.17793 -2.58093,0.44294 -2.85112,0.47741 z" id="path2930" sodipodi:nodetypes="cccccc"/></svg>
