<svg viewBox="0 0 560 1000"><path class="eyebrow_hair" sodipodi:nodetypes="ccsssccscssssssssssssssscc" id="path7299" d="m 278.3492,122.04728 c 0.18394,0.63572 1.13631,4.47755 -0.54899,3.66084 -0.43138,-0.61065 -0.89291,-1.119 -1.37596,-1.53743 -0.25469,-0.22059 -0.51537,-0.4163 -0.78075,-0.5888 -0.25496,-0.16554 -0.51427,-0.31004 -0.7768,-0.43459 -2.00868,-0.95311 -4.20602,-0.74913 -6.08815,-0.11197 -2.14501,0.74467 -4.83672,2.58895 -6.23711,4.71775 -0.13584,-1.86862 -0.2404,-2.71545 -0.27075,-4.15114 -0.008,-0.40716 -0.27572,0.0228 -0.29689,-0.26136 0.13654,-0.3215 0.93795,-1.3251 1.03069,-1.40891 0.15041,-0.136 -0.32718,-0.39151 -0.18096,-0.55894 0.18438,-0.21122 0.98452,-0.37377 1.17671,-0.56695 0.55656,-0.5594 1.14414,-1.04342 1.75272,-1.45223 0.21469,-0.14447 -0.14363,-0.47691 0.0759,-0.60238 0.13492,-0.0771 0.84634,0.0471 0.98281,-0.0228 0.60915,-0.31278 1.23263,-0.55517 1.86132,-0.72729 0.30162,-0.0826 -0.11514,-0.58415 0.18788,-0.63438 0.25263,-0.0419 1.22499,0.36267 1.47732,0.34326 0.44703,-0.0343 0.89267,-0.0335 1.33367,9.6e-4 0.25532,0.0201 -0.0125,-0.73783 0.23899,-0.6934 0.22837,0.0404 0.97665,0.88169 1.20095,0.94142 0.53585,0.14271 1.05876,0.34078 1.56232,0.59414 0.3616,0.1818 -0.0424,-0.67597 0.29692,-0.43705 0.21924,0.15451 1.18888,1.38883 1.39717,1.56697 0.74404,0.63628 1.41413,1.42405 1.9811,2.36294 z"/><path class="eyebrow_hair" sodipodi:nodetypes="cccsssssssssssscssssscccc" id="path7301" d="m 297.58384,122.71202 c -1.2365,0.39507 -2.44327,0.98797 -3.65063,1.78484 -4.08344,2.77792 -2.97054,-0.81269 -2.91826,-2.07396 0.85793,-0.95696 1.70351,-1.75656 2.54496,-2.41842 0.39385,-0.30978 1.80605,-1.64649 2.19893,-1.89792 0.40096,-0.25658 -0.21734,0.57331 0.18432,0.37333 0.4876,-0.24274 0.97642,-0.44542 1.46806,-0.61174 0.44214,-0.14968 1.63234,-0.81125 2.0802,-0.90493 0.31545,-0.0661 -0.11315,0.42277 0.20607,0.38225 0.55627,-0.0708 1.11896,-0.10421 1.69023,-0.10574 0.36134,-8.7e-4 1.60863,-0.35008 1.97737,-0.32674 0.31148,0.0185 -0.25673,0.40859 0.0607,0.44394 0.48911,0.0543 0.98573,0.12662 1.49106,0.21333 0.27816,0.0478 1.5285,-0.28667 1.81215,-0.23036 0.32564,0.0645 -0.31451,0.52129 0.0189,0.59575 0.79648,0.17781 1.61605,0.38171 2.46283,0.60174 0.32064,0.14906 1.48865,0.0233 1.81433,0.20347 0.24044,0.13329 -0.36208,0.56618 -0.12091,0.71481 0.9541,0.58793 1.45973,0.82669 2.35876,1.59959 0.43479,0.37379 1.34914,0.69103 1.75263,1.09252 0.0784,0.078 -0.33613,0.22939 -0.25919,0.30818 0.7413,0.7594 1.86063,2.01905 2.42362,2.81752 10e-4,0.62265 -2.72361,-1.48033 0.70081,2.1317 -6.77721,-3.60577 -13.77091,-6.70676 -20.29699,-4.69304 z"/></svg>
