<svg viewBox="0 0 560 1000"><path d="m 192.1653,430.00327 c 0.48885,-0.202 1.2805,0.0374 1.73426,-0.16856 21.59572,-9.78221 3.72396,-23.85845 -1.6572,-23.18519 -14.52201,5.06637 -8.9358,19.38956 -4.2043,20.17888 0.0679,0.0489 0.5649,1.25624 4.12724,3.17484 z" id="path3872" sodipodi:nodetypes="cscccc" style="fill:#000000;stroke-width:4.15408516"/><path d="m 238.42537,463.01199 c 20.28882,5.62375 40.73353,12.13989 47.74381,-5.3397 2.16331,-6.04429 0.77434,-10.32098 -3.55845,-11.88892 -17.88676,-5.55368 -55.95102,-21.82392 -67.07357,-32.23147 -1.53564,-2.33899 -1.27727,-2.67604 -2.83927,-4.28128 -3.31179,-3.40342 -7.56926,-3.05615 -11.04876,-2.8667 -2.09695,0.11436 -7.50931,-0.52768 -9.19255,0.13924 -1.41392,0.56021 -2.64747,1.35486 -3.45191,2.36871 -0.24987,0.31511 1.66133,-0.68857 1.84075,-0.82309 5.0511,-3.78673 25.23043,12.14117 2.73966,21.46928 -2.08199,0.8635 -8.45991,-5.58074 -8.40299,-5.36093 0.36399,1.40685 2.79249,3.62155 4.92964,5.03879 1.27615,0.84622 2.728,1.16272 3.24502,2.07106 6.21542,10.91885 19.91889,22.90783 45.06862,31.70479 z" id="path3874" sodipodi:nodetypes="ccccssssssssscc" style="fill:#000000;stroke-width:4.15408516"/><path d="m 188.26484,425.26791 c 7.74075,4.61097 22.40934,-1.68931 26.09825,-10.47912 -0.92893,-2.62273 -4.11355,-7.69364 -7.84997,-7.57146 -10.66377,0.34848 -10.42638,-0.66317 -14.90757,0.64219 -8.96456,3.83831 -10.08315,11.89947 -5.23341,17.86453 0.47543,0.36292 1.09387,-0.27898 1.8927,-0.45635 z" id="path3876" sodipodi:nodetypes="ccscccc" class="areola"/><path d="m 186.48662,420.32245 c 0.11005,0.80137 1.1027,2.42573 2.17682,2.71846 -0.005,-0.0416 -0.26409,-1.42252 -0.27452,-1.46462 -0.34731,-1.42009 -1.88474,-5.60097 0.6234,-10.29346 -2.52318,2.84113 -2.97858,5.65421 -2.52589,9.03962 z" id="path3878" sodipodi:nodetypes="ccscc" style="fill:#000000;stroke-width:4.15408516"/><path d="m 239.71565,462.10998 c 20.09908,5.57127 39.41391,13.24224 47.27899,-4.02654 2.14313,-5.98775 2.00901,-9.39381 -2.28329,-10.94721 -18.6487,-4.44467 -58.00475,-21.29443 -69.02324,-31.60459 -5.18723,7.2466 -10.31368,11.2261 -21.29738,12.1871 -1.84916,-0.0222 -3.81499,-0.50754 -5.79477,-1.64153 -0.42887,-0.24582 -1.12683,0.22567 -1.42636,0.32877 -0.34408,0.22773 8.05844,5.17475 7.88067,5.55911 6.15731,10.81681 19.75084,21.43042 44.66534,30.14506 z" class="skin penis" id="path3880" sodipodi:nodetypes="cccccscccc"/></svg>
