<svg viewBox="0 0 560 1000"><path d="m 310.01478,121.61299 c -2.34062,-0.24271 -3.95967,-0.31037 -6.47367,-0.27055 -5.49897,0.0871 -8.41111,0.15037 -9.4054,0.20438 -1.16863,-0.0421 -2.90307,0.4676 -3.11519,0.35988 0.2259,-0.33871 0.33475,-0.5101 0.96505,-0.8716 0.0383,0.0361 0.0713,0.18654 0.18807,0.1673 0.12267,-0.0202 0.18093,-0.27621 0.64685,-0.5123 0.17072,0.0606 0.1414,0.25675 0.24147,0.23125 0.10278,-0.0262 0.0993,-0.25943 0.82055,-0.53061 0.15251,0.19588 -0.1696,0.46789 -0.003,0.38799 0.54928,-0.26559 0.68454,-0.36168 1.54272,-0.46127 0.74554,-0.15595 7.46206,-0.24079 10.68247,-0.0264 0.768,0.0511 1.89904,0.12026 2.51344,0.15362 1.26363,0.0686 2.83286,0.2186 2.9205,0.27913 0.0322,0.0221 5.25036,0.97812 7.03531,2.14815 -0.49283,0.0557 -7.68912,-1.16871 -8.55952,-1.25897 z m -38.77154,-1.40514 c 0.93232,0.0338 1.5093,0.14648 1.78817,0.20429 0.41141,0.0853 0.11507,-0.11344 0.11288,-0.2327 0.32751,-0.041 0.92797,0.26529 1.21478,0.40631 0.21453,0.10547 0.0157,-0.38064 0.22486,-0.2594 0.19435,0.11263 0.55858,0.48984 0.73062,0.60312 0.1587,0.1045 -0.0271,-0.25375 0.15952,-0.17055 0.92128,0.41074 0.71568,0.95504 0.79786,1.03847 -0.13777,0.0702 -0.98361,-0.35694 -2.72096,-0.29222 -2.54577,0.0892 -5.42281,0.18307 -7.71494,0.59336 -0.27089,0.0669 -0.61654,0.1215 -0.76811,0.1215 -0.23547,0 -0.23119,-0.0212 0.0294,-0.14596 0.3451,-0.16516 0.28605,-0.17346 -0.55531,-0.0781 -5.23285,0.37639 -5.08353,1.15437 -4.73965,-0.21383 3.59257,-0.86757 6.84977,-1.3622 11.44088,-1.57433 z" id="path7255" sodipodi:nodetypes="cscccscsccccccccccscsssccccsccccc" class="eyebrow_hair"/></svg>
