<svg viewBox="0 0 560 1000"><path style="display:inline;fill-opacity:1;fill-rule:evenodd;fill:#ffffff;opacity:1;stroke-dasharray:none;stroke-linecap:butt;stroke-linejoin:miter;stroke-miterlimit:4;stroke-opacity:1;stroke-width:0;stroke:#000000" d="m 350.44891,411.28161 c -41.34356,12.40411 -56.35277,29.50718 -67.32299,47.0649 -1.04023,1.75909 -1.92047,7.35117 -4.50173,9.70959 -0.97785,0.89343 -3.70051,-0.0277 -4.03805,0.0431 -0.91345,0.19159 -2.09488,0.29968 -2.84109,0.24274 -1.3589,-0.10369 -3.10427,-0.97079 -4.62926,-2.64607 -1.15035,-1.26373 -2.1753,-2.98733 -2.81436,-5.19001 -8.27893,-10.93923 -27.60352,-39.54369 -38.34145,-47.86102 0.0176,-0.005 -0.05,-0.20603 0.59439,-1.93851 29.91996,7.91079 37.53385,11.40066 123.28163,-1.21761 0,0 0.63138,1.78415 0.61291,1.79289 z" id="path2360-8-9-6" sodipodi:nodetypes="ccssssccccc"/><path style="display:inline;fill-opacity:1;fill:#808080;stroke-dasharray:none;stroke-linecap:butt;stroke-linejoin:miter;stroke-miterlimit:4;stroke-opacity:1;stroke-width:0;stroke:#83afc8" d="m 225.9378,412.66104 c 0.12717,-0.79329 0.24724,-0.90642 0.25482,-0.95601 23.02972,9.12926 54.6817,12.66174 123.82806,-1.73671 0.0291,0.083 0.24793,0.57628 0.45084,1.30322 -7.49448,2.32559 -13.58511,4.61432 -22.50451,8.15633 -65.22375,12.79983 -85.05836,5.29979 -97.57663,-2.66633 -1.68147,-1.78024 -2.87542,-3.01265 -4.45258,-4.1005 z" id="path1180-5-1-9-6-2" sodipodi:nodetypes="ccccccc"/><path sodipodi:nodetypes="cscccscccccccc" id="path3867" d="m 368.45236,268.83602 c 0.40069,1.40387 0.82872,12.89967 -6.36035,37.77919 -2.69071,9.31187 -7.76934,16.76035 -12.27935,22.08191 -16.17797,31.44438 -21.55472,39.45678 -0.0793,78.7427 -11.01368,5.816 -42.24427,23.63486 -73.16599,24.19117 -0.35362,0.006 -1.23746,-10.72732 -1.59083,-10.72267 -0.3241,0.004 -1.53197,10.65859 -1.50226,10.92655 -18.42789,0.15907 -35.85789,-12.98257 -48.76072,-19.24875 19.95436,-40.12386 18.76709,-58.94719 18.93425,-73.78533 -0.79492,-25.08977 -9.37492,-40.35794 -6.12315,-64.92252 4.1474,-34.69597 22.3671,-60.53584 49.31905,-73.16924 9.24713,11.38115 23.32598,3.04064 29.40561,-2.22767 -6.61256,40.32716 -0.39811,42.2337 47.93489,69.10993 z" style="display:inline;fill-opacity:1;fill-rule:evenodd;fill:#000000;opacity:1;stroke-dasharray:none;stroke-linecap:butt;stroke-linejoin:miter;stroke-miterlimit:4;stroke-opacity:1;stroke-width:0;stroke:#000000"/><path sodipodi:nodetypes="ccccsccsscccssccsc" id="path3869" d="m 369.22602,268.81519 c -4.68348,22.64568 -5.85009,40.51404 -21.08544,60.43479 -20.02172,35.0767 -18.08348,43.1827 -0.7965,78.02808 -3.69358,2.81839 -32.96148,18.96853 -69.89204,23.62648 -0.85433,0.0232 -1.88601,-11.84703 -2.74101,-11.83449 -0.8545,0.0125 -1.53233,11.90788 -2.38655,11.9093 -16.07251,0.0269 -35.81502,-11.84293 -45.63987,-18.76686 0.0345,-0.17931 5.71754,-10.4447 9.44846,-20.50588 3.58228,-9.66037 5.96851,-19.75746 6.00023,-19.93248 2.23784,-12.34683 2.73839,-27.94198 2.90309,-30.73529 0.91633,-13.31264 -6.23585,-36.85045 -6.79758,-54.14945 -1.3291,-28.43727 7.83268,-72.44432 48.43505,-86.05345 0.95941,-0.26505 5.83183,-7.60855 5.90605,-7.38285 1.65753,5.04021 20.47171,-0.37757 20.85769,-0.51091 0.2509,-0.0867 2.50701,5.35888 3.9712,6.42812 7.44197,4.05923 13.93327,5.85108 22.31675,8.30582 23.76123,1.93056 29.55708,22.24878 30.19439,39.69264 0.31573,8.6417 -0.94946,16.63435 -0.69392,21.44643 z" style="display:inline;fill-opacity:1;fill-rule:evenodd;fill:#ececec;opacity:1;stroke-dasharray:none;stroke-linecap:butt;stroke-linejoin:miter;stroke-miterlimit:4;stroke-opacity:1;stroke-width:0;stroke:#000000"/><path style="display:inline;fill-opacity:1;fill:#000000;opacity:1;stroke-dasharray:none;stroke-linecap:butt;stroke-linejoin:miter;stroke-miterlimit:4;stroke-opacity:1;stroke-width:0;stroke:#000000" d="m 291.59482,204.8803 c -0.007,-0.15238 5.39726,-10.80323 5.46415,-10.99796 0,0 -4.71541,-2.02563 -4.85767,-1.83113 -0.86438,1.18176 -2.48505,4.21861 -3.88833,5.92157 0.099,0.227 3.28185,6.90752 3.28185,6.90752 z" id="path3871" sodipodi:nodetypes="csscc"/><path style="display:inline;fill-opacity:1;fill:#ececec;opacity:1;stroke-dasharray:none;stroke-linecap:butt;stroke-linejoin:miter;stroke-miterlimit:4;stroke-opacity:1;stroke-width:0;stroke:#000000" d="m 291.55833,203.28945 c -0.007,-0.14941 5.05548,-9.40542 5.12046,-9.59636 0,0 -4.58062,-1.9862 -4.71882,-1.79549 -0.83967,1.15876 -2.41401,4.13649 -3.77718,5.8063 0.0962,0.22258 3.37554,5.58555 3.37554,5.58555 z" id="path3873" sodipodi:nodetypes="csscc"/><path style="display:inline;fill-opacity:1;fill:#000000;opacity:1;stroke-dasharray:none;stroke-linecap:butt;stroke-linejoin:miter;stroke-miterlimit:4;stroke-opacity:1;stroke-width:0;stroke:#000000" d="m 302.35818,205.29925 c 0.007,-0.15238 -3.99545,-11.03492 -4.06234,-11.22965 0,0 16.62296,-2.66894 16.76522,-2.47444 0.86438,1.18176 2.6413,5.37486 3.07583,6.04657 -0.099,0.227 -15.77871,7.65752 -15.77871,7.65752 z" id="path3875" sodipodi:nodetypes="csscc"/><path style="display:inline;fill-opacity:1;fill:#ececec;opacity:1;stroke-dasharray:none;stroke-linecap:butt;stroke-linejoin:miter;stroke-miterlimit:4;stroke-opacity:1;stroke-width:0;stroke:#000000" d="m 302.82777,204.42715 c 0.007,-0.14856 -4.00116,-10.27774 -4.06706,-10.46759 0,0 15.63782,-2.64512 15.77799,-2.4555 0.85164,1.15214 2.60238,5.24014 3.03051,5.89501 -0.0975,0.22131 -14.74144,7.02808 -14.74144,7.02808 z" id="path3877" sodipodi:nodetypes="csscc"/><path style="display:inline;fill-opacity:1;fill-rule:nonzero;fill:#808080;opacity:1;stroke-dasharray:none;stroke-linecap:butt;stroke-linejoin:round;stroke-miterlimit:4;stroke-opacity:1;stroke-width:0;stroke:#000000" d="m 300.87394,220.43307 a 2.7544847,2.8454499 0 0 1 -2.75448,2.84545 2.7544847,2.8454499 0 0 1 -2.75449,-2.84545 2.7544847,2.8454499 0 0 1 2.75449,-2.84546 2.7544847,2.8454499 0 0 1 2.75448,2.84546 z" id="path3879"/><path style="display:inline;fill-opacity:1;fill-rule:nonzero;fill:#808080;opacity:1;stroke-dasharray:none;stroke-linecap:butt;stroke-linejoin:round;stroke-miterlimit:4;stroke-opacity:1;stroke-width:0;stroke:#000000" d="m 297.69369,242.50598 a 2.7544847,2.8454499 0 0 1 -2.75448,2.84545 2.7544847,2.8454499 0 0 1 -2.75449,-2.84545 2.7544847,2.8454499 0 0 1 2.75449,-2.84546 2.7544847,2.8454499 0 0 1 2.75448,2.84546 z" id="path3881"/><path style="display:inline;fill-opacity:1;fill-rule:nonzero;fill:#808080;opacity:1;stroke-dasharray:none;stroke-linecap:butt;stroke-linejoin:round;stroke-miterlimit:4;stroke-opacity:1;stroke-width:0;stroke:#000000" d="m 294.36894,266.99921 a 2.7544847,2.8454499 0 0 1 -2.75448,2.84545 2.7544847,2.8454499 0 0 1 -2.75449,-2.84545 2.7544847,2.8454499 0 0 1 2.75449,-2.84546 2.7544847,2.8454499 0 0 1 2.75448,2.84546 z" id="path3883"/><path style="display:inline;fill-opacity:1;fill-rule:nonzero;fill:#808080;opacity:1;stroke-dasharray:none;stroke-linecap:butt;stroke-linejoin:round;stroke-miterlimit:4;stroke-opacity:1;stroke-width:0;stroke:#000000" d="m 291.12262,291.4949 a 2.7544847,2.8454499 0 0 1 -2.75448,2.84545 2.7544847,2.8454499 0 0 1 -2.75449,-2.84545 2.7544847,2.8454499 0 0 1 2.75449,-2.84546 2.7544847,2.8454499 0 0 1 2.75448,2.84546 z" id="path3885"/><path style="display:inline;fill-opacity:1;fill-rule:nonzero;fill:#808080;opacity:1;stroke-dasharray:none;stroke-linecap:butt;stroke-linejoin:round;stroke-miterlimit:4;stroke-opacity:1;stroke-width:0;stroke:#000000" d="m 288.19248,313.4826 a 2.7544847,2.8454499 0 0 1 -2.75448,2.84545 2.7544847,2.8454499 0 0 1 -2.75449,-2.84545 2.7544847,2.8454499 0 0 1 2.75449,-2.84546 2.7544847,2.8454499 0 0 1 2.75448,2.84546 z" id="path3887"/><path style="display:inline;fill-opacity:1;fill-rule:nonzero;fill:#808080;opacity:1;stroke-dasharray:none;stroke-linecap:butt;stroke-linejoin:round;stroke-miterlimit:4;stroke-opacity:1;stroke-width:0;stroke:#000000" d="m 285.69616,337.78711 a 2.7544847,2.8454499 0 0 1 -2.75448,2.84545 2.7544847,2.8454499 0 0 1 -2.75449,-2.84545 2.7544847,2.8454499 0 0 1 2.75449,-2.84546 2.7544847,2.8454499 0 0 1 2.75448,2.84546 z" id="path3889"/><path style="display:inline;fill-opacity:1;fill-rule:nonzero;fill:#808080;opacity:1;stroke-dasharray:none;stroke-linecap:butt;stroke-linejoin:round;stroke-miterlimit:4;stroke-opacity:1;stroke-width:0;stroke:#000000" d="m 283.59261,360.44517 a 2.7544847,2.8454499 0 0 1 -2.75448,2.84545 2.7544847,2.8454499 0 0 1 -2.75449,-2.84545 2.7544847,2.8454499 0 0 1 2.75449,-2.84546 2.7544847,2.8454499 0 0 1 2.75448,2.84546 z" id="path3891"/><path style="display:inline;fill-opacity:1;fill-rule:nonzero;fill:#808080;opacity:1;stroke-dasharray:none;stroke-linecap:butt;stroke-linejoin:round;stroke-miterlimit:4;stroke-opacity:1;stroke-width:0;stroke:#000000" d="m 282.01878,380.39507 a 2.7544847,2.8454499 0 0 1 -2.75448,2.84545 2.7544847,2.8454499 0 0 1 -2.75449,-2.84545 2.7544847,2.8454499 0 0 1 2.75449,-2.84546 2.7544847,2.8454499 0 0 1 2.75448,2.84546 z" id="path3893"/><path style="display:inline;fill-opacity:1;fill-rule:nonzero;fill:#808080;opacity:1;stroke-dasharray:none;stroke-linecap:butt;stroke-linejoin:round;stroke-miterlimit:4;stroke-opacity:1;stroke-width:0;stroke:#000000" d="m 281.0045,400.49998 a 2.7544847,2.8454499 0 0 1 -2.75448,2.84545 2.7544847,2.8454499 0 0 1 -2.75449,-2.84545 2.7544847,2.8454499 0 0 1 2.75449,-2.84546 2.7544847,2.8454499 0 0 1 2.75448,2.84546 z" id="path3895"/><path sodipodi:nodetypes="ccccsscc" id="path3897" d="m 273.76587,419.87564 c -3.37067,-27.44695 2.70899,-95.34442 23.25259,-225.55289 l 0.80611,0.10099 c 0.44243,13.37084 -30.13893,182.40374 -21.77891,225.43423 0,0 1.53867,11.36972 1.32589,11.43584 -0.28317,0.088 -2.37336,-11.11982 -2.75006,-11.10422 -0.3681,0.0152 -0.43845,2.24234 -0.59045,1.98418 z" style="display:inline;fill-opacity:1;fill:#000000;opacity:1;stroke-dasharray:none;stroke-linecap:butt;stroke-linejoin:miter;stroke-miterlimit:4;stroke-opacity:1;stroke-width:0;stroke:#000000"/><path style="display:inline;fill-opacity:1;fill:#808080;stroke-dasharray:none;stroke-linecap:butt;stroke-linejoin:miter;stroke-miterlimit:4;stroke-opacity:1;stroke-width:0;stroke:#83afc8" d="m 241.44907,429.61473 c 16.19921,3.4137 37.32679,4.09867 68.75142,-0.23858 -1.10723,0.72649 -4.9682,3.64884 -9.02733,7.02192 -26.13262,3.68145 -42.62028,3.1439 -53.96133,0.73077 -1.89388,-2.48871 -3.25794,-4.54662 -5.76276,-7.51411 z" id="path1180-5-1-9-1-3-7" sodipodi:nodetypes="ccccc"/><path style="display:inline;fill-opacity:1;fill:#808080;stroke-dasharray:none;stroke-linecap:butt;stroke-linejoin:miter;stroke-miterlimit:4;stroke-opacity:1;stroke-width:0;stroke:#83afc8" d="m 252.70414,444.58541 c 10.94342,1.31488 24.01095,1.50229 40.32871,0.0811 -1.56759,2.01272 -3.58281,4.56444 -5.24245,6.66295 -12.30604,1.16431 -22.00263,1.20882 -29.81942,0.51362 -2.04934,-2.61037 -3.63449,-4.68604 -5.26684,-7.25767 z" id="path1180-5-1-9-7-9-4" sodipodi:nodetypes="ccccc"/><path style="display:inline;fill-opacity:1;fill:#808080;stroke-dasharray:none;stroke-linecap:butt;stroke-linejoin:miter;stroke-miterlimit:4;stroke-opacity:1;stroke-width:0;stroke:#83afc8" d="m 262.53421,458.18295 c 6.22871,0.31514 13.08896,0.30377 20.72809,-0.0971 -0.87505,2.4389 -1.64015,4.66739 -2.42955,6.53665 -5.25319,0.34928 -9.97649,0.47387 -14.24234,0.41152 -1.68576,-1.69159 -2.0194,-4.59693 -4.0562,-6.85107 z" id="path1180-5-1-9-3-1-0" sodipodi:nodetypes="ccccc"/><path style="display:inline;fill-opacity:1;fill-rule:evenodd;fill:#000000;opacity:1;stroke-dasharray:none;stroke-linecap:butt;stroke-linejoin:miter;stroke-miterlimit:4;stroke-opacity:1;stroke-width:0;stroke:#000000" d="m 282.94456,458.76549 c -0.0483,0.15247 -0.11284,0.47208 -0.19954,0.90622 -0.41277,2.06685 -1.81439,6.53069 -3.87757,8.11265 -0.26921,0.20642 -1.13559,1.14752 -4.57861,0.28177 -0.17398,-0.0437 -2.18026,1.1699 -4.2783,0.12449 -4.65827,-2.32112 -6.22252,-8.10904 -6.31915,-8.53686 3.82592,9.08132 8.89939,9.3147 10.40315,7.55401 5.26837,2.79873 7.50839,-4.81217 8.85002,-8.44228 z" id="path6986-5-1-2-2" sodipodi:nodetypes="cssssccc"/></svg>
