<svg viewBox="0 0 560 1000"><path id="path2865" d="m 225.9,413.1 c 0,0 -10.3,43.4 -10.6,67.8 -0.5,43.2 14.3,129.1 30.4,183.7 7.5,61.7 6.2,123.3 8.8,185.4 l 11.5,-0.3 c 2.2,-51.3 34,-103.9 16.3,-161.5 2.3,-46.1 10,-72.4 5,-160.3 -5.4,94.3 16.6,109.2 26.4,153.6 -15.6,58 5.7,110.8 6.5,168.9 h 16.3 c 0.2,-58.5 15.6,-94.6 7.7,-168.9 12.4,-64.5 12.4,-139.3 11.6,-205.6 -0.3,-26 -5.4,-64.7 -5.4,-64.7 l -124.5,1.9" style="fill-opacity:1;fill:#808080"/><path id="path2867" class="shadow" d="m 288,588.6 c -9.8,-40.3 -16.6,-61.7 -12.6,-107.8 -0.7,44.5 3.5,67.1 12.6,107.8 z"/><path d="m 226.3,412.5 c 27.9,-30 93.7,-36.4 123.8,-1.4 18.2,21.2 25.4,60.2 7,78.9 -8.2,8.3 -22.1,13.3 -35,11 -24.2,-4.4 -25.9,-31.9 -47.3,-34.5 C 256.7,464.3 248.5,483 231,478 220.9,475.1 221.28701,468.07973 218.48701,460.07973 216.5943,437.63189 223.7,415.2 226.3,412.5 Z" id="Stump_Normal-3-6-5-3-5" sodipodi:nodetypes="cccccccc" style="fill-opacity:1;fill:#808080"/><path d="m 226.3,412.5 c 20,-34.8 104.4,-37.1 124,-1.5 11.9,21.7 1.4,60.5 -22.3,72 -0.8,0.4 -20.2,9.5 -34,1 -9.5,-5.8 -10.3,-16.2 -19.3,-17.5 -6.4,-1 -8.4,3.9 -17.8,5.5 -9.2,1.5 -18.7,-1.3 -24,-5 -14.1,-9.8 -16,-38.2 -6.6,-54.5 z" id="Stump_Narrow-10-3-0-1-8" style="fill-opacity:1;fill:#808080"/><path style="display:inline;fill-opacity:1;fill:#b3b3b3;stroke-width:0.94552505" sodipodi:nodetypes="cssssccccssssssssccccssssssssccccsssssscccsc" id="path2496-4-8" d="m 333.83345,829.57196 c -0.14663,-9.66929 0.35555,-28.36645 0.94632,-49.37836 0.008,-0.27199 7.7397,0.2662 7.77299,-0.005 0.48863,-3.97529 1.23025,-8.4699 1.47091,-12.74908 0.014,-0.24939 -9.03788,-0.52095 -9.03094,-0.77088 0.92867,-33.42349 1.91472,-69.16605 0.67629,-82.22479 -0.0124,-0.13082 8.85263,-0.0201 8.83978,-0.14633 -0.12857,-1.01983 -0.18488,-2.52394 -0.23143,-2.77868 0.0562,-0.33413 0.8563,-4.32082 0.9071,-5.17952 -0.31027,0.031 -4.27622,-0.0112 -9.35307,-0.0459 -0.0571,-3.9e-4 -4.47394,-21.7108 -9.85609,-51.70886 -0.0819,-0.4566 26.47965,-0.65843 26.50358,-1.12552 0.22261,-4.34579 0.92635,-9.35843 0.74631,-13.49813 -0.0199,-0.45707 -29.90651,1.09726 -29.98488,0.64413 -3.92457,-22.69154 -8.06569,-48.8678 -11.23216,-73.37227 -0.059,-0.45669 44.63231,-0.78781 44.57398,-1.24331 -0.6969,-5.44218 0.15562,-12.42171 -0.42928,-17.63164 -0.0654,-0.58254 -46.38001,0.33673 -46.44383,-0.24211 -4.30542,-44.85649 20.34751,-62.50771 47.42197,-97.35999 -1.87036,-3.6521 -4.94006,-7.41913 -5.65461,-8.06776 -35.66653,39.36299 -56.01145,63.58966 -53.27367,105.95096 0.0315,0.32654 -22.21062,0.21136 -22.17856,0.53835 0.6152,6.27414 1.51526,13.07092 2.32307,19.44517 0.0404,0.31888 21.11747,-1.30675 21.1583,-0.98778 3.22921,25.22594 8.11642,51.41496 12.49448,73.35846 0.0521,0.2611 -20.02785,1.59665 -19.97578,1.85681 0.93429,4.66834 2.38896,10.06337 3.74254,14.3937 0.0812,0.25991 19.02723,-2.2962 19.08318,-2.03116 6.354,30.09637 11.78578,51.00052 11.7006,50.99983 -6.89693,-0.0557 -13.26536,-0.0886 -14.13202,-0.003 0.11519,0.90904 0.95291,4.79238 1.10496,5.22553 -0.0321,0.25866 -0.28734,1.68336 -0.50822,2.6519 -0.003,0.14114 14.24229,0.47847 14.23883,0.63242 -0.22573,10.06683 -0.96754,47.2983 -1.60548,81.40691 -0.006,0.29528 -14.87724,-0.0282 -14.86578,0.26649 0.1815,4.66593 1.69195,11.66948 1.88143,13.87257 0.0329,0.38299 12.97967,-0.11608 12.97302,0.26635 -0.40944,23.55211 -1.02271,43.63116 -0.85286,48.89443 0.0115,0.35502 -5.8584,0.94802 -5.80737,1.30181 0.75002,5.19982 1.28341,15.05954 1.14876,19.76236 8.60784,0.43817 16.69164,-0.0977 16.69164,-0.0977 l 0.41703,-20.31547 c 0,0 -3.39525,-0.12455 -3.40103,-0.50581 z"/><path style="display:inline;fill-opacity:1;fill:#b3b3b3;stroke-width:0.94552505" sodipodi:nodetypes="csssscccssssssssccccsssssssscccsssssscccsc" id="path2496-4-8-1" d="m 261.34979,828.41197 c -0.14663,-9.66929 -0.43995,-27.92451 0.15082,-48.93642 0.008,-0.27199 18.2852,0.57426 18.31849,0.30306 0.48863,-3.97529 2.48025,-8.40741 2.72091,-12.68659 0.014,-0.24939 -20.91288,-1.33345 -20.90594,-1.58338 0.92867,-33.42349 2.87811,-68.90088 1.63968,-81.95962 -0.0124,-0.13082 19.31907,0.55388 19.30622,0.42765 0.36305,-3.06002 0.42405,-5.75819 0.63906,-8.4438 -0.45962,0.0459 -9.9909,-0.15923 -19.21762,-0.35275 -0.13282,-0.003 -5.60967,-19.75671 -11.62009,-48.10947 -0.0524,-0.24702 34.97332,0.22948 34.96779,-0.0243 -0.0191,-0.87711 0.92374,-10.49637 0.86761,-13.96476 -0.006,-0.3586 -38.51565,0.0457 -38.58597,-0.30795 -4.32175,-21.73601 -7.98069,-48.60806 -10.36748,-72.93168 -0.0693,-0.70655 37.5163,0.17826 37.45005,-0.52748 -0.61943,-6.59885 -1.45588,-12.80528 -1.94554,-20.1413 -0.0359,-0.53741 -36.29022,1.39971 -36.31393,0.86323 2.10374,-62.22402 -12.28128,-98.37232 -14.50041,-102.35381 0.32286,-2.75119 -4.28397,13.19069 -4.34148,15.58668 5.96498,25.16653 8.49118,40.70609 8.7453,86.54831 0.0172,0.26978 -10.71545,0.91452 -10.69791,1.18422 0.41576,6.3906 1.6836,13.31946 2.28365,19.62264 0.0261,0.27445 10.05241,-0.38873 10.07885,-0.11453 2.53365,26.27891 6.48389,51.42835 10.40786,72.61996 0.0348,0.18808 -7.66432,0.33167 -7.62949,0.51915 0.89561,4.82061 2.23473,9.53157 3.11724,13.92485 0.0502,0.24997 6.99467,-0.16371 7.04478,0.0848 5.78934,28.70444 11.08191,47.47026 10.91288,47.33477 -3.01948,-2.42027 -6.69675,-0.0843 -7.22271,-0.0321 0.12826,1.42381 0.84039,7.3504 1.12708,8.76131 -0.003,0.14114 6.99444,-0.31705 6.99098,-0.16307 -0.22573,10.06683 0.90746,47.4233 0.26952,81.53191 -0.006,0.29528 -2.87724,-0.0282 -2.86578,0.26649 0.1815,4.66593 0.067,11.60699 0.25643,13.81008 0.0329,0.38299 2.13515,-0.26702 2.13723,0.11546 0.0325,5.96283 0.92184,43.71955 1.09169,48.98282 0.0115,0.35502 -1.97739,1.22001 -1.9647,1.57724 0.1313,3.69722 0.62272,15.40283 0.48807,20.10565 8.60784,0.43817 12.00706,-0.36287 12.00706,-0.36287 0.21814,-6.83383 1.09665,-13.44754 2.00802,-20.0503 0,0 -6.8424,-0.74327 -6.84818,-1.12453 z"/></svg>
