<svg viewBox="0 0 560 1000"><path id="path6106-5-0" d="m 236.26799,275.03201 c 0.0502,13.91321 -2.43957,32.45436 1.39701,45.73533 -15.744,41.04598 -22.32292,63.0969 -12.665,92.53266 7.25733,16.23416 21.05049,35.60775 38.63571,45.72577 4.49692,-8.41639 7.13441,-6.5938 19.16009,-0.74579 44.07165,-29.89332 48.81305,-33.25075 80.48854,-38.93176 18.17655,-20.44479 2.20919,-52.10188 -6.85478,-71.35188 8.10119,-25.67976 11.75282,-32.35045 14.67097,-60.99997 2.78996,-27.57405 2.67947,-66.75235 -24.38694,-78.13486 -11.87802,-1.91625 -24.24303,-2.06144 -29.61419,-12.83595 -12.45597,5.13207 -25.22879,2.90105 -29.62457,0.47363 -1.99902,6.18991 -13.48133,10.90101 -13.80922,10.96913 -33.38194,6.93465 -37.39566,51.14403 -37.39762,67.56369 z" sodipodi:nodetypes="cccccccccccsc" style="display:inline;fill-opacity:0.39215686;fill:#ff5599;opacity:1"/></svg>
