<svg viewBox="0 0 560 1000"><path sodipodi:nodetypes="ccccc" id="path4421" d="m 371.6898,270.22619 c -0.54754,11.74593 -0.0311,30.00735 -4.02565,40.321 -66.74361,-8.03197 -126.3072,-8.47548 -131.82719,-6.04235 -2.34582,-12.00362 -2.24789,-32.28121 2.70882,-52.74415 50.54474,0.32853 92.55991,3.12206 133.14402,18.4655 z" style="display:inline;fill-opacity:1;fill-rule:evenodd;fill:#000000;opacity:1;stroke-dasharray:none;stroke-linecap:butt;stroke-linejoin:miter;stroke-miterlimit:4;stroke-opacity:1;stroke-width:0;stroke:#000000"/><path sodipodi:nodetypes="ccccc" id="path4423" d="m 367.38637,309.53263 c -55.12275,-8.36934 -121.51963,-8.65634 -130.63014,-6.27764 -2.94007,-14.4172 0.0953,-36.66808 2.47909,-50.6424 12.4531,0.21782 85.94363,0.93307 131.72142,18.25599 -1.23378,12.50929 -0.21381,28.11273 -3.57037,38.66405 z" style="display:inline;fill-opacity:1;fill-rule:evenodd;fill:#221c24;opacity:1;stroke-dasharray:none;stroke-linecap:butt;stroke-linejoin:miter;stroke-miterlimit:4;stroke-opacity:1;stroke-width:0;stroke:#000000"/><path sodipodi:nodetypes="ccssssccsccc" id="path1853-4" d="m 298.46108,438.89935 c -6.48422,6.26583 -11.19704,12.82415 -15.33516,19.44716 -1.04023,1.75909 -1.92047,7.35117 -4.50173,9.70959 -0.97785,0.89343 -3.70051,-0.0277 -4.03805,0.0431 -0.91345,0.19159 -2.09488,0.29968 -2.84109,0.24274 -1.3589,-0.10369 -3.10427,-0.97079 -4.62926,-2.64607 -1.15035,-1.26373 -2.1753,-2.98733 -2.81436,-5.19001 -3.99405,-5.27747 -10.5589,-14.66641 -17.49018,-23.90539 4.48963,1.85597 9.35646,2.79339 14.73041,2.73225 1.76498,-0.0201 3.58467,-0.14788 5.46366,-0.38622 9.80224,3.87793 21.03947,2.36746 31.45576,-0.0471 z" style="display:inline;fill-opacity:1;fill-rule:evenodd;fill:#221c24;opacity:1;stroke-dasharray:none;stroke-linecap:butt;stroke-linejoin:miter;stroke-miterlimit:4;stroke-opacity:1;stroke-width:0;stroke:#000000"/><path sodipodi:nodetypes="cssssccc" id="path1855-48" d="m 282.94456,458.76549 c -0.0483,0.15247 -0.11284,0.47208 -0.19954,0.90622 -0.41277,2.06685 -1.81439,6.53069 -3.87757,8.11265 -0.26921,0.20642 -1.13559,1.14752 -4.57861,0.28177 -0.17398,-0.0437 -2.18026,1.1699 -4.2783,0.12449 -4.65827,-2.32112 -6.22252,-8.10904 -6.31915,-8.53686 3.82592,9.08132 8.89939,9.3147 10.40315,7.55401 5.26837,2.79873 7.50839,-4.81217 8.85002,-8.44228 z" style="display:inline;fill-opacity:1;fill-rule:evenodd;fill:#000000;opacity:1;stroke-dasharray:none;stroke-linecap:butt;stroke-linejoin:miter;stroke-miterlimit:4;stroke-opacity:1;stroke-width:0;stroke:#000000"/></svg>
