<svg viewBox="0 0 560 1000"><path style="display:inline;fill:#000000;stroke-width:0.15514293" d="m 276.07156,136.1121 c 1.20623,-1.01195 0.89479,-0.4216 1.55696,-0.98553 0.45337,0.024 0.68555,-0.44968 0.61045,-1.24536 -0.51704,-2.67005 -1.21959,-4.58243 -2.88748,-5.49078 -1.53928,-0.83448 -3.03862,-1.26809 -4.95055,-1.43165 l -1.37416,-0.11756 -0.76192,-0.7364 c -0.41903,-0.40502 -0.83664,-0.97488 -0.92799,-1.2664 -0.12684,-0.40468 -0.20068,-0.48349 -0.31228,-0.33335 -0.13579,0.18286 0.1982,1.01916 0.82247,2.05892 l 0.26383,0.43935 -1.43476,0.48108 c -0.14591,0.0488 -1.69978,-1.83337 -1.91305,-2.57324 -0.48769,0.50545 1.19668,2.83113 1.06612,2.88336 -0.41628,0.16654 -0.73036,0.31704 -0.80421,0.39272 -0.11895,0.122 -0.28618,0.19786 -0.37154,0.1686 -0.32285,-0.11064 -1.63142,-1.47195 -1.91515,-1.99231 -0.16272,-0.29846 -0.35801,-0.52366 -0.43391,-0.50044 -0.23673,0.0724 0.96993,2.19577 1.43151,2.51917 0.38708,0.27119 0.40791,0.34634 0.17901,0.64535 -0.13129,0.17152 -0.26518,0.37835 -0.39501,0.60509 -0.074,0.12919 -1.99314,-0.90672 -2.94454,-1.58399 0.1439,0.69899 2.5982,2.2532 2.5378,2.38819 -0.27294,0.60998 -0.47903,1.23684 -0.52388,1.66196 -0.0749,0.71041 -0.027,0.87083 0.33761,1.12619 0.23376,0.16378 0.40922,0.35837 0.38994,0.43244 -0.019,0.0743 0.076,0.0126 0.21168,-0.13656 l 0.24679,-0.27123 0.11026,0.41223 c 0.15094,0.56411 1.29502,2.02041 2.19405,2.79282 3.48932,1.70004 7.63137,1.4635 9.99195,-0.34267 z" id="path3400-1" sodipodi:nodetypes="cccccccccccccsccccccscscccccccc"/><path sodipodi:nodetypes="cccc" style="display:inline;fill:#000000;stroke-width:0.141739" d="m 268.57752,125.86376 c -1.36358,-0.28533 -1.56242,-0.52555 -0.32979,-0.39843 3.44775,0.36171 8.33822,3.53296 8.07239,3.71877 -2.13455,-0.68278 -4.42711,-2.92626 -7.7426,-3.32034 z" id="path3301"/><path sodipodi:nodetypes="ccccc" style="display:inline;fill:#000000;stroke-width:0.16125156" d="m 291.15517,128.57559 c 3.6e-4,-0.0984 0.16185,-0.38711 0.35881,-0.64162 1.03516,-2.24812 6.80776,-2.44732 9.63137,-2.69846 -3.87008,1.03149 -7.93894,1.04824 -9.24155,2.74455 -0.60148,0.79218 -0.74983,0.9102 -0.74863,0.59553 z" id="path3303"/><path style="display:inline;fill:#000000;stroke-width:0.141739" d="m 264.58251,127.9773 c 0.0548,-0.0777 0.55853,-0.17777 1.11942,-0.2222 0.56087,-0.0445 1.37725,-0.11316 1.81417,-0.15274 0.46194,-0.0419 0.79441,-0.0188 0.79441,0.055 0,0.12612 -0.55868,0.20306 -2.70823,0.3729 -0.77673,0.0614 -1.0889,0.0452 -1.01977,-0.053 z" id="path3305"/><path sodipodi:nodetypes="ccc" style="display:inline;fill:#000000;stroke-width:0.1496281" d="m 303.99914,125.2655 c 0.31004,-0.11709 7.30319,0.73233 8.67519,2.38022 -1.68114,-1.00199 -6.27657,-1.56732 -8.67519,-2.38022 z" id="path3307"/><path style="display:inline;fill-opacity:1;fill-rule:nonzero;fill:#ffffff;opacity:1;stroke-dasharray:none;stroke-dashoffset:0;stroke-linecap:round;stroke-linejoin:bevel;stroke-miterlimit:4;stroke-opacity:1;stroke-width:0;stroke:#000000;vector-effect:none" d="m 295.58538,134.88309 c 0.0707,-1.10738 1.58606,-5.10396 2.17584,-5.08183 0.58987,0.0222 1.01051,0.9377 0.93973,2.0451 0.26608,2.45279 -3.11178,3.03505 -3.11563,3.03674 z" id="path3309" sodipodi:nodetypes="cccc"/><path style="display:inline;fill-opacity:1;fill-rule:nonzero;fill:#ffffff;opacity:1;stroke-dasharray:none;stroke-dashoffset:0;stroke-linecap:round;stroke-linejoin:bevel;stroke-miterlimit:4;stroke-opacity:1;stroke-width:0;stroke:#000000;vector-effect:none" d="m 308.21037,132.20648 c 0.31073,0.64057 0.12166,3.40597 -0.57889,3.6053 -0.7005,0.19937 -1.52023,-0.15827 -1.83098,-0.79884 -0.31072,-0.64054 -1.07945,-3.55742 -0.37895,-3.75679 0.70046,-0.19939 2.47809,0.30976 2.78882,0.95033 z" id="path3315" sodipodi:nodetypes="ccccc"/><path style="fill:#000000;stroke-width:0.19091532" d="m 292.306,134.98356 c -0.63364,0.026 -0.95816,-0.48723 -0.85319,-1.34933 0.72262,-2.89293 1.70455,-4.96494 4.03568,-5.94914 2.15137,-0.90412 4.2469,-1.37392 6.91912,-1.55113 l 1.92059,-0.12738 1.06489,-0.79788 c 0.58567,-0.43883 1.16933,-1.05627 1.29701,-1.37212 0.17727,-0.43848 0.28048,-0.52385 0.43646,-0.36117 0.18978,0.19812 -0.27702,1.10423 -1.14952,2.23078 l -0.36874,0.47604 2.00527,0.52123 c 0.25526,0.0664 2.36827,-2.06754 3.04047,-2.9935 0.35832,0.47449 -1.93358,3.30511 -1.76964,3.35674 0.5382,0.16949 0.93887,0.32042 1.03689,0.39827 0.16624,0.13219 0.39999,0.21439 0.51928,0.18268 0.45124,-0.11987 2.28015,-1.59483 2.6767,-2.15864 0.22743,-0.32336 0.50038,-0.56735 0.60647,-0.54221 0.33084,0.0784 -1.35563,2.37908 -2.00075,2.72947 -0.54101,0.29383 -0.57012,0.37525 -0.25021,0.69922 0.44483,0.73895 2.47611,-0.17584 3.91802,-0.95734 -0.35039,1.0282 -3.17598,1.87635 -3.05671,2.06053 0.50563,0.78071 0.91522,1.66424 0.99147,2.22445 0.10468,0.7697 0.0376,0.94353 -0.47186,1.22019 -0.32672,0.17747 -0.57195,0.38829 -0.545,0.46855 0.0267,0.0804 -0.10615,0.0136 -0.29587,-0.14795 l -0.3449,-0.29388 -0.15413,0.44663 c -0.21097,0.61122 -1.80997,2.18908 -3.06652,3.02597 -6.37414,3.85855 -12.23417,0.40839 -16.14128,-1.43908 z" id="path3400" sodipodi:nodetypes="ccccccccccccscccccccscccccccc"/><path d="m 306.13529,137.16754 c 1.94587,-0.65445 3.10795,-1.39721 4.17657,-2.66953 2.20764,-1.70532 -1.29024,-4.5088 -4.21082,-5.32533 -1.9734,-0.40568 -3.50143,-0.31946 -6.2143,0.35068 -3.25651,0.80514 -4.93789,1.85806 -6.04363,3.78766 -0.28373,0.4951 -0.25025,0.62418 0.36439,1.40545 3.09305,2.66659 5.94237,3.54107 10.04272,3.037 0.26118,-0.0616 1.10959,-0.3251 1.88507,-0.58593 z" id="path3398" sodipodi:nodetypes="cccccccc" class="sclera"/><path style="fill:#000000;stroke-width:0.23606861" d="m 302.85629,138.23726 c -1.77405,0.0627 -3.37816,-0.37345 -4.30776,-1.02883 -1.26924,-0.8949 -2.51932,-4.01504 -2.19832,-5.26725 0.37037,-1.44539 1.02577,-2.01701 3.22699,-2.81445 2.41549,-0.8752 3.93275,-0.9525 5.59745,-0.2857 3.30553,1.32406 4.49659,4.83845 2.43216,7.17659 -1.23504,1.39878 -2.84828,2.15261 -4.75041,2.21962 z" id="path3396" sodipodi:nodetypes="cccccccc"/><path d="m 306.81845,136.24995 c 1.6114,-1.42522 1.85217,-2.70137 0.87687,-4.6475 -0.60308,-1.20343 -0.89613,-1.52441 -1.85819,-2.03579 -1.94097,-1.03165 -2.66329,-1.0764 -5.24904,-0.32529 -2.79805,0.81277 -3.52385,1.50033 -3.7639,3.16571 -0.1852,1.61523 1.03656,3.94735 2.50748,4.78626 2.23647,1.2756 5.43342,0.87273 7.48678,-0.94339 z" id="path3394" sodipodi:nodetypes="cccsccc" class="eye"/><path style="fill:#000000;stroke-width:0.62665313" d="m 300.06475,136.68088 c -2.05657,-0.96332 -2.15303,-1.75298 -2.08932,-4.1955 1.37713,-3.50756 7.47766,-3.90094 9.07293,-0.58496 0.79316,1.64872 -0.90535,4.42223 -3.09263,5.04993 -1.00991,0.28981 -2.66555,0.17517 -3.89094,-0.26947 z" id="path3392" sodipodi:nodetypes="cccccc"/><path style="fill:#ffffff;stroke-width:0.30623198" d="m 301.38941,132.4303 c 0.80843,-1.03481 -0.50542,-2.26992 -1.97099,-1.85282 -0.73125,0.20813 -1.38379,1.32122 -1.10785,1.89002 0.22292,0.45953 1.48312,0.81923 2.17757,0.6216 0.27342,-0.0779 0.67899,-0.37428 0.90127,-0.6588 z" id="path3390"/><path d="m 267.92658,136.90909 c -1.39225,-0.61222 -2.2237,-1.30709 -2.98829,-2.49734 -0.75393,-1.17368 -0.8859,-2.19804 -0.37614,-2.91935 0.49079,-0.69439 2.22448,-1.7495 3.38893,-2.06251 1.41195,-0.37952 2.50523,-0.29884 4.44626,0.32806 2.33,0.75321 3.53302,1.73822 4.32415,3.54336 0.20301,0.46318 0.17905,0.58392 -0.26071,1.31481 -2.1447,3.04275 -4.74966,3.0381 -8.5342,2.29297 z" id="path3398-7" sodipodi:nodetypes="cccccccc" class="sclera"/><path style="display:inline;fill:#000000;stroke-width:0.20054673" d="m 271.73464,137.52393 c 1.44756,0.0553 2.75648,-0.33031 3.51502,-0.90997 1.03566,-0.79148 2.05572,-3.55113 1.79377,-4.65868 -0.30222,-1.27838 -0.83701,-1.78396 -2.63313,-2.48924 -1.97099,-0.77409 -3.20901,-0.84248 -4.56739,-0.25273 -2.69724,1.1711 -3.66912,4.27944 -1.98456,6.34742 1.00776,1.23719 2.3241,1.90391 3.8762,1.96316 z" id="path3396-1" sodipodi:nodetypes="cccccccc"/><path d="m 268.77227,135.78124 c -1.34007,-1.29201 -1.5403,-2.44887 -0.7292,-4.21306 0.50149,-1.09095 0.74522,-1.3819 1.54527,-1.8455 0.59061,-0.34216 2.02072,-0.48275 2.46551,-0.59387 4.2317,0.66617 5.20869,5.10934 3.85355,6.65769 -0.27663,0.35323 -0.58553,0.64889 -0.90891,0.84994 -1.85993,1.15637 -4.51858,0.79116 -6.22622,-0.8552 z" id="path3394-8" sodipodi:nodetypes="ccccccc" class="eye"/><path style="display:inline;fill:#000000;stroke-width:0.50803548" d="m 270.26108,130.33666 c -1.43389,1.30473 -2.03089,2.93158 -0.45866,4.89681 2.25782,2.82215 7.16659,1.23174 6.99399,-1.94221 -0.0855,-1.57809 -1.24918,-3.31033 -2.96751,-3.47648 -0.79338,-0.0768 -2.90597,-0.0805 -3.56781,0.52188 z" id="path3392-8" sodipodi:nodetypes="cccccc"/><path style="display:inline;fill:#ffffff;stroke-width:0.25772637" d="m 270.90986,130.75497 c 0.67843,-0.95367 2.37949,-0.88304 2.55183,0.10601 0.086,0.49351 -0.72867,1.40418 -1.3833,1.54627 -0.52893,0.11471 -1.36756,-0.37137 -1.44922,-0.84002 -0.0321,-0.18455 0.0942,-0.55004 0.28069,-0.81226 z" id="path3390-8"/><path style="display:inline;fill:#ffffff;stroke-width:0.17876253" d="m 305.95905,135.58674 c 0.47191,-0.60407 -0.29504,-1.32506 -1.15056,-1.08158 -0.42688,0.12149 -0.80779,0.77126 -0.64671,1.10329 0.13013,0.26825 0.86578,0.47823 1.27114,0.36286 0.15963,-0.0455 0.39637,-0.21849 0.52613,-0.38457 z" id="path3390-3"/><path style="display:inline;fill:#ffffff;stroke-width:0.14563826" d="m 274.66495,135.11151 c -0.33765,-0.56038 0.21109,-1.22923 0.8232,-1.00335 0.30543,0.11271 0.57797,0.71548 0.46272,1.02349 -0.0931,0.24884 -0.61944,0.44364 -0.90948,0.33663 -0.11421,-0.0421 -0.2836,-0.20269 -0.37644,-0.35677 z" id="path3390-8-9"/></svg>
