<svg viewBox="0 0 560 1000"><path sodipodi:nodetypes="cccccccccccc" id="path3747" d="m 354.7,252.8 c 16.27647,11.07059 4.68823,71.22941 12.58823,89.42941 13.9,6.4 33.92941,0.006 56.67647,-23.61764 0,0 15.25922,-35.57988 8.05922,-38.57988 C 430.32392,279.33189 424.8,278 424.8,278 c 0,-7.6 0.50588,-22.97754 -2.39412,-23.20146 -2.4,0.4 -1.10588,15.70146 -2.60588,23.10146 -16.91162,-0.17973 -7.6,20.6 -6.9,30.8 -9.3,8 -15.3,8.15294 -24.4,12.1 3.1,-11.3 8.6,-85.7 -9.2,-103 -8.1,-7.9 -9.6,-4.9 -16.6,-9.2 -50,6.3 -29,47.6 -8,44.2" style="fill-opacity:1;fill:#1a1a1a"/><path sodipodi:nodetypes="ccccc" id="path3749" d="m 363.8542,250.62827 c 6.10615,10.8072 21.18797,19.67691 27.88096,18.73411 0.31376,-1.49081 -0.16725,-4.21492 -0.13413,-4.72832 -6.78889,1.47722 -25.21324,-14.67935 -27.59142,-15.87135 z" style="display:inline;fill-opacity:1;fill:#aa8800;stroke-dasharray:none;stroke-linecap:butt;stroke-linejoin:miter;stroke-miterlimit:4;stroke-opacity:1;stroke-width:0;stroke:#000000"/><path sodipodi:nodetypes="ccccc" id="path3751" d="m 388.81844,319.4934 c -10.7583,4.15468 -16.22934,9.84772 -22.33745,20.45658 0.005,0.51581 0.40692,1.75812 0.88746,2.40263 8.08462,-18.66244 19.93892,-19.7387 21.2866,-21.60714 z" style="display:inline;fill-opacity:1;fill:#aa8800;stroke-dasharray:none;stroke-linecap:butt;stroke-linejoin:miter;stroke-miterlimit:4;stroke-opacity:1;stroke-width:0;stroke:#000000"/><path sodipodi:nodetypes="ccccc" id="path3753" d="m 412.64969,308.91262 c 5.85005,4.64679 8.52935,4.93952 13.50163,4.26808 0.18704,-0.21937 0.56681,-0.9891 0.71453,-1.55667 -8.26475,2.82674 -13.14911,-3.83556 -14.07412,-3.88549 z" style="display:inline;fill-opacity:1;fill:#aa8800;stroke-dasharray:none;stroke-linecap:butt;stroke-linejoin:miter;stroke-miterlimit:4;stroke-opacity:1;stroke-width:0;stroke:#000000"/><path sodipodi:nodetypes="ccccc" id="path3755" d="m 420.36163,273.19203 c 2.21784,1.54015 3.04686,1.17944 4.46181,-0.1955 0.0334,-0.16446 0.0684,-0.68677 0.0548,-1.04569 -2.17784,3.27899 -4.31265,0.37689 -4.59367,0.53112 z" style="display:inline;fill-opacity:1;fill:#aa8800;stroke-dasharray:none;stroke-linecap:butt;stroke-linejoin:miter;stroke-miterlimit:4;stroke-opacity:1;stroke-width:0;stroke:#000000"/><path sodipodi:nodetypes="ccccc" id="path3757" d="m 420.66541,264.28494 c 2.00461,1.54015 2.75393,1.17944 4.03284,-0.1955 0.0302,-0.16446 0.0619,-0.68677 0.0495,-1.04569 -1.96846,3.27899 -3.89803,0.37689 -4.15202,0.53112 z" style="display:inline;fill-opacity:1;fill:#aa8800;stroke-dasharray:none;stroke-linecap:butt;stroke-linejoin:miter;stroke-miterlimit:4;stroke-opacity:1;stroke-width:0;stroke:#000000"/><path sodipodi:nodetypes="ccccc" id="path3759" d="m 426.8015,278.43151 c -5.39369,13.09558 -5.78012,21.26754 -5.78578,33.97784 0.19212,0.54447 0.90356,-0.0953 1.44601,0.46948 -1.68564,-21.71138 5.57482,-31.69404 5.74912,-33.99881 z" style="display:inline;fill-opacity:1;fill:#aa8800;stroke-dasharray:none;stroke-linecap:butt;stroke-linejoin:miter;stroke-miterlimit:4;stroke-opacity:1;stroke-width:0;stroke:#000000"/><path sodipodi:nodetypes="ccccc" id="path3761" d="m 377.5128,327.05187 c 14.79744,2.61131 25.84408,-4.05454 39.33577,-15.37551 0.31257,-0.80474 -1.00297,0.0538 -1.15175,-1.35107 -22.58343,20.90537 -36.6653,15.78114 -37.5382,15.60854 z" style="display:inline;fill-opacity:1;fill:#aa8800;stroke-dasharray:none;stroke-linecap:butt;stroke-linejoin:miter;stroke-miterlimit:4;stroke-opacity:1;stroke-width:0;stroke:#000000"/><path sodipodi:nodetypes="ccccc" id="path3763" d="m 383.04659,322.51848 c 1.06866,-19.93762 0.95343,-25.08031 -0.42821,-57.11483 -0.55311,-0.66285 -0.4381,0.90383 -1.73962,0.35444 1.87188,31.00311 0.70005,57.59884 0.12673,58.27932 z" style="display:inline;fill-opacity:1;fill:#aa8800;stroke-dasharray:none;stroke-linecap:butt;stroke-linejoin:miter;stroke-miterlimit:4;stroke-opacity:1;stroke-width:0;stroke:#000000"/></svg>
