<svg viewBox="0 0 560 1000"><path sodipodi:nodetypes="ccsccc" id="path5105" d="m 308.63678,276.12486 c -11.17521,-9.01494 -12.4097,-15.14101 -7.89117,-19.74018 4.39197,-3.8424 6.88957,2.34093 7.73764,2.30651 0.91083,-0.037 3.81637,-6.6957 8.90989,-1.10433 1.95047,3.23747 3.85989,8.22888 -8.75638,18.538 z" class="areola"/><path sodipodi:nodetypes="cccssssscc" id="path5108" class="areola" d="m 223.24984,254.45266 c 2.28202,2.6761 1.612,5.55421 -0.26878,7.86689 -1.84685,3.40501 -9.37408,6.21028 -13.66565,9.23938 -0.3346,-0.55716 -0.46047,-2.47417 -0.18814,-4.79682 0.37815,-3.22643 1.08172,-7.23796 1.66337,-9.5373 0.0267,-0.10505 0.0189,-0.23741 0.10495,-0.29698 0.43405,-0.30031 2.75069,-1.51344 4.01287,-2.33095 1.8533,-1.20038 2.79046,-1.64926 2.99088,-1.71122 1.40431,-0.43417 -1.08481,1.53799 -0.96295,1.68651 0.17494,0.0878 4.83692,-1.72749 6.31345,-0.11951 z"/></svg>
