<svg viewBox="0 0 560 1000"><path id="path7111" class="shadow" d="m 293.9,619.8 c -9.8,-40.3 -22.5,-96.7 -18.5,-142.8 -0.8,44.7 9.4,102.1 18.5,142.8 z"/><path style="display:inline;fill-opacity:1;fill:#464646;stroke-width:0.50372928" d="m 258.58934,693.40309 c -0.6419,-1.34888 -1.23702,-1.83415 -2.5525,-2.08142 -1.42544,-0.26795 -2.07948,-0.887 -3.86876,-3.66154 -1.18429,-1.83651 -2.77146,-3.90636 -3.52696,-4.59968 -2.62911,-2.41256 -3.51039,-4.85214 -3.46099,-9.58045 0.0248,-2.35727 0.1398,-5.19358 0.25613,-6.30291 0.24458,-2.33341 0.95125,-5.66682 1.60887,-17.40447 0.24926,-9.7e-4 1.31706,11.99272 1.12904,13.74879 -0.87692,8.19026 -0.91402,9.60718 -0.32423,12.39175 0.54433,2.57029 0.84361,3.05772 2.38927,3.89178 2.00811,1.08361 4.55566,4.1131 5.82649,6.92882 0.75595,1.67484 0.98456,1.84242 1.86762,1.36889 0.74869,-0.96456 4.30591,-4.47781 6.07745,-8.91932 0.10493,3.12298 -2.41499,7.15626 -3.86546,10.21927 -0.78222,1.65162 -0.77124,2.93977 0.0412,4.87704 0.71244,1.69831 -0.75522,0.89292 -1.59737,-0.87655 z" id="path1257-6" sodipodi:nodetypes="cccccccccsccccccc"/><path style="display:inline;fill-opacity:1;fill:#464646;stroke-width:0.45230833" d="m 328.02709,694.755 c -9.23844,-2.43257 -8.89747,-19.93254 -4.49296,-28.65051 -0.18729,-0.21743 0.26349,-1.13497 1.00169,-2.03899 1.39706,-1.7109 4.62961,-3.13316 6.52552,-2.8711 0.53746,0.0742 1.83513,1.22757 2.89356,2.57162 1.05547,1.34033 2.1479,2.43034 2.42763,2.42225 2.67047,-2.02013 4.78167,-6.86875 5.64051,-10.72685 1.46409,-2.55591 2.25544,-2.10921 1.22447,0.69115 -0.42681,1.15912 -1.48697,4.0756 -2.35603,6.48106 -1.51912,4.20482 -3.32684,6.92211 -4.60863,6.92763 -1.37841,0.006 -3.01791,-1.42644 -3.12844,-2.73318 -0.13381,-1.58169 -1.64646,-3.3951 -2.83206,-3.3951 -0.46194,0 -1.62415,0.38568 -2.58268,0.85705 -5.26018,2.12469 -7.48789,13.68293 -3.47095,18.68408 2.424,-0.003 9.59855,3.7706 8.84115,4.65012 -0.22414,0.26028 -3.23833,-0.27091 -5.69568,-1.00378 -0.69541,-0.20739 -3.83982,-0.75862 -3.83032,-0.22889 1.26814,2.7472 7.73107,8.49911 11.07706,6.57581 0.73021,-0.52407 1.42927,-0.53066 1.42927,-0.0136 0,0.9089 -3.65952,2.66624 -5.55222,2.66624 -0.38325,0 -1.51316,-0.38931 -2.51091,-0.86514 z" id="path1255-4" sodipodi:nodetypes="cccccccccccsccccccsscc"/><path style="display:inline;fill-opacity:1;fill:#464646;stroke-width:1.17794561" d="m 312.28064,648.91903 c -3.80536,-16.75708 -3.0814,-20.53856 0.84391,-4.40827 3.18688,13.09516 4.60399,16.52952 8.8485,21.44179 1.82301,2.10991 2.02358,2.72857 0.95609,2.94823 -5.29576,-2.21782 -10.05329,-17.40382 -10.6485,-19.98175 z" id="path1177-6" sodipodi:nodetypes="ccccc"/><path style="display:inline;fill-opacity:1;fill:#464646;stroke-width:0.59579951" d="m 317.86873,783.88243 c -0.65716,-4.96482 -1.40151,-9.36547 -1.65416,-9.77921 -0.25262,-0.41374 -0.41441,-2.25319 -0.35952,-4.08766 0.0799,-2.67334 -0.50873,-11.58005 -1.28729,-19.47588 -0.0625,-0.63377 0.12082,-1.22887 0.4074,-1.32236 0.5175,-0.16882 0.68003,0.93453 1.86742,12.67733 l 0.61831,6.11501 1.70895,-2.5849 c 1.30598,-1.97543 2.45499,-5.51365 4.87292,-15.00539 4.5639,-17.91586 7.80297,-27.6401 4.43494,-13.31442 -4.90072,20.84494 -6.62857,27.207 -8.09899,29.82135 -0.8722,1.55077 -1.83034,2.81959 -2.12914,2.81959 -0.67145,0 -0.14769,8.02086 0.92584,14.17885 0.83135,4.76876 0.981,8.98464 0.31891,8.98464 -0.23692,0 -0.96845,-4.06212 -1.62559,-9.02695 z" id="path1291-3"/><path style="display:inline;fill-opacity:1;fill:#464646;stroke-width:0.65084839" d="m 269.10163,794.70484 c 0.004,-1.67988 0.71008,-6.00783 1.50902,-9.24779 1.59164,-6.45499 3.26972,-22.6868 2.60155,-25.16436 -1.29875,-4.81579 -1.84045,-26.32817 -0.693,-27.52113 0.35427,-0.36831 0.62989,-0.5151 0.61248,-0.32617 -0.10498,1.13972 0.45434,21.60824 0.62338,22.81226 0.11311,0.80527 0.51998,2.23955 0.90421,3.18728 l 0.69866,1.72319 1.34582,-1.75434 c 0.74019,-0.96489 1.5898,-1.73642 1.88804,-1.71455 0.98421,0.0723 0.37426,2.10003 -0.91512,3.04224 -1.40248,1.02484 -2.49929,5.00188 -3.9579,14.35117 -1.57074,10.06791 -4.62432,23.69996 -4.61714,20.6122 z" id="path1283-6"/></svg>
