<svg viewBox="0 0 560 1000"><path style="display:inline;fill-opacity:1;fill-rule:evenodd;fill:#000000;opacity:1;stroke-dasharray:none;stroke-linecap:butt;stroke-linejoin:miter;stroke-miterlimit:4;stroke-opacity:1;stroke-width:0;stroke:#000000" d="m 370.8969,268.8878 c 2.36849,23.60153 1.75351,51.52091 -5.54547,78.55465 0.0897,2.34411 4.6595,17.11968 7.11537,29.07427 -36.77086,9.58655 -135.02177,13.96466 -153.89353,-4.89184 2.433,-12.49684 7.69036,-32.03475 15.53901,-53.11514 -2.13048,-7.70551 3.57316,-12.49737 2.54969,-25.90973 0.40962,-35.13389 30.30326,-40.0847 52.38713,-59.43686 0.97617,-2.02088 2.05999,-19.89061 -11.85024,-27.17009 -0.63873,-0.33426 8.75566,-6.74727 11.06144,-11.24336 6.49713,3.88115 24.41016,0.43525 28.14604,-0.67681 2.53377,3.43956 10.80107,9.39408 9.58558,10.19303 -25.72677,16.91039 -30.9022,28.84774 -29.45936,29.06832 3.13994,1.52155 66.54554,33.43249 67.65165,34.25705 z" id="path4939" sodipodi:nodetypes="cccccccsccsccc"/><path style="display:inline;fill-opacity:1;fill-rule:evenodd;fill:#d4aa00;opacity:1;stroke-dasharray:none;stroke-linecap:butt;stroke-linejoin:miter;stroke-miterlimit:4;stroke-opacity:1;stroke-width:0;stroke:#000000" d="m 364.11286,347.17422 c 0.49582,5.07437 4.52707,17.16139 6.90216,28.43074 -31.28229,8.06681 -138.10149,14.24686 -150.70386,-5.06389 1.76466,-12.54996 14.32006,-47.08252 14.91305,-52.03193 -3.0755,-26.84168 -0.52105,-45.74614 4.01256,-70.57209 4.39438,-23.68414 15.86738,-37.30901 37.69935,-41.95594 0.49229,-0.51848 9.49968,-5.98747 11.50789,-10.26481 8.58743,3.94365 25.14546,-0.0648 27.81743,-0.67681 6.45547,6.68956 19.75418,11.14877 20.28606,12.49113 2.58742,0.19199 9.57783,0.93138 12.62329,2.06534 21.32697,11.58453 25.15316,34.74558 21.91064,58.57411 1.82371,35.69041 -1.65952,61.28238 -6.96857,79.00415 z" id="path4941" sodipodi:nodetypes="cccccccccccc"/><path sodipodi:nodetypes="ccssssccsccc" id="path1758-9" d="m 298.46108,438.89935 c -6.48422,6.26583 -11.19704,12.82415 -15.33516,19.44716 -1.04023,1.75909 -1.92047,7.35117 -4.50173,9.70959 -0.97785,0.89343 -3.70051,-0.0277 -4.03805,0.0431 -0.91345,0.19159 -2.09488,0.29968 -2.84109,0.24274 -1.3589,-0.10369 -3.10427,-0.97079 -4.62926,-2.64607 -1.15035,-1.26373 -2.1753,-2.98733 -2.81436,-5.19001 -3.99405,-5.27747 -10.5589,-14.66641 -17.49018,-23.90539 4.48963,1.85597 9.35646,2.79339 14.73041,2.73225 1.76498,-0.0201 3.58467,-0.14788 5.46366,-0.38622 9.80224,3.87793 21.03947,2.36746 31.45576,-0.0471 z" style="display:inline;fill-opacity:1;fill-rule:evenodd;fill:#d4aa00;opacity:1;stroke-dasharray:none;stroke-linecap:butt;stroke-linejoin:miter;stroke-miterlimit:4;stroke-opacity:1;stroke-width:0;stroke:#000000"/><path sodipodi:nodetypes="cssssccc" id="path1764-0" d="m 282.94456,458.76549 c -0.0483,0.15247 -0.11284,0.47208 -0.19954,0.90622 -0.41277,2.06685 -1.81439,6.53069 -3.87757,8.11265 -0.26921,0.20642 -1.13559,1.14752 -4.57861,0.28177 -0.17398,-0.0437 -2.18026,1.1699 -4.2783,0.12449 -4.65827,-2.32112 -6.22252,-8.10904 -6.31915,-8.53686 3.82592,9.08132 8.89939,9.3147 10.40315,7.55401 5.26837,2.79873 7.50839,-4.81217 8.85002,-8.44228 z" style="display:inline;fill-opacity:1;fill-rule:evenodd;fill:#000000;opacity:1;stroke-dasharray:none;stroke-linecap:butt;stroke-linejoin:miter;stroke-miterlimit:4;stroke-opacity:1;stroke-width:0;stroke:#000000"/><path style="display:inline;fill-opacity:1;fill:#1a1a1a;stroke-dasharray:none;stroke-linecap:butt;stroke-linejoin:miter;stroke-miterlimit:4;stroke-opacity:1;stroke-width:0;stroke:#83afc8" d="m 252.70414,444.58541 c 10.94342,1.31488 24.01095,1.50229 40.32871,0.0811 -1.56759,2.01272 -3.58281,4.56444 -5.24245,6.66295 -12.30604,1.16431 -22.00263,1.20882 -29.81942,0.51362 -2.04934,-2.61037 -3.63449,-4.68604 -5.26684,-7.25767 z" id="path1180-5-1-9-7-9-6-53" sodipodi:nodetypes="ccccc"/><path style="display:inline;fill-opacity:1;fill:#1a1a1a;stroke-dasharray:none;stroke-linecap:butt;stroke-linejoin:miter;stroke-miterlimit:4;stroke-opacity:1;stroke-width:0;stroke:#83afc8" d="m 262.53421,458.18295 c 6.22871,0.31514 13.08896,0.30377 20.72809,-0.0971 -0.87505,2.4389 -1.64015,4.66739 -2.42955,6.53665 -5.25319,0.34928 -9.97649,0.47387 -14.24234,0.41152 -1.68576,-1.69159 -2.0194,-4.59693 -4.0562,-6.85107 z" id="path1180-5-1-9-3-1-2-0" sodipodi:nodetypes="ccccc"/><path sodipodi:nodetypes="cssssssssccssssssssccc" id="path1686-7-77-5" d="m 263.13996,439.28084 c -0.85904,1.29146 -1.11317,2.61227 -0.94173,4.66481 0.0171,0.20458 -3.58077,0.80557 -3.54542,1.00689 0.035,0.19926 3.703,-10e-4 3.75649,0.19384 0.0729,0.26588 0.16339,0.52725 0.27207,0.78268 0.073,0.17162 -5.09572,1.71557 -5.006,1.88142 0.0994,0.18367 5.45913,-1.01146 5.57958,-0.83598 0.18386,0.26785 0.39264,0.5255 0.62747,0.77089 0.0936,0.0978 -2.54862,1.85103 -2.44663,1.94485 0.0902,0.083 2.92371,-1.49299 3.02053,-1.41337 3.12217,2.74088 9.31924,2.71469 13.42438,0.023 0.11108,-0.0887 2.74498,1.74885 2.84737,1.65478 0.11009,-0.10113 -2.31201,-2.13427 -2.21182,-2.24122 0.23524,-0.25114 0.44336,-0.51778 0.62524,-0.79735 0.0907,-0.13937 4.70644,1.32919 4.78417,1.18372 0.10116,-0.18933 -4.34018,-1.99469 -4.26053,-2.19311 0.14306,-0.35634 0.2518,-0.7262 0.3276,-1.10547 0.0334,-0.16697 3.51968,4e-4 3.5404,-0.16988 0.0189,-0.15538 -3.42676,-0.64815 -3.41821,-0.80572 0.0528,-0.97311 0.10297,-1.7765 0.0472,-2.48726 -5.52966,0.0456 -10.83717,-1.69364 -13.16236,-2.40644 -1.01259,0.1092 -2.44063,0.27102 -3.8598,0.34892 z" style="display:inline;fill-opacity:1;fill:#ffffff;stroke-dasharray:none;stroke-linecap:butt;stroke-linejoin:miter;stroke-miterlimit:4;stroke-opacity:1;stroke-width:0;stroke:#83afc8"/></svg>
