<svg viewBox="0 0 560 1000"><path inkscape:label="#PussyshadowN" sodipodi:nodetypes="ccscc" id="path3238" class="shadow" d="m 283.66521,456.38067 c -1.54841,0.73859 -1.78928,15.78672 -9.24659,11.14886 -5.5459,3.1603 -10.12915,-4.94173 -10.42429,-8.4126 -0.25114,-2.95343 3.37748,-7.20053 3.87403,-6.51846 2.14579,-0.003 16.30971,2.85987 15.79685,3.7822 z"/><path inkscape:label="#PussyN" sodipodi:nodetypes="ccsc" id="path3240" class="skin torso" d="m 274.36595,467.58332 c -3.81452,2.31718 -9.64064,-2.27902 -10.8644,-11.68664 5.95334,-21.67633 25.49385,-8.31185 20.23612,0.35499 -2.87984,4.74713 -3.52005,14.37508 -9.37172,11.33165 z"/><path sodipodi:nodetypes="ccsssssscsc" id="path3242" d="m 368.67614,407.53 c 0.8928,1.03783 -5.37284,9.27719 -5.37284,9.27719 -8.19048,4.90102 -49.96568,10.20435 -62.40067,20.70752 -4.31136,3.64157 -13.47661,8.29154 -16.37051,16.44054 -2.5916,7.29773 -3.32032,16.98798 -9.68774,14.34823 -0.12708,-0.0527 -0.25389,-0.22936 -0.38798,-0.17253 -3.64553,1.54503 -9.41962,-0.71855 -11.29492,-12.24341 -2.95293,-18.14755 -12.84146,-17.24873 -13.71165,-17.80621 -12.60056,-8.07247 -21.38891,-19.81687 -24.85363,-25.1259 0.0593,-0.70684 -0.14438,-7.38126 -0.14438,-7.38126 30.95157,34.29024 120.90424,8.16181 144.22432,1.95583 z" style="display:inline;fill-opacity:1;fill-rule:evenodd;fill:#000000;opacity:1;stroke-dasharray:none;stroke-linecap:butt;stroke-linejoin:miter;stroke-miterlimit:4;stroke-opacity:1;stroke-width:0;stroke:#000000"/><path sodipodi:nodetypes="cccsssccsc" id="path3244" d="m 367.93194,408.743 c 0.8928,1.03783 -4.0572,8.30164 -4.0572,8.30164 -26.45516,18.17615 -63.03106,39.13132 -79.66632,39.75358 -0.27428,0.37469 -0.68811,0.67278 -0.81935,1.10672 -3.57923,11.83428 -8.32513,9.8537 -8.89431,9.63462 -0.17013,-0.0655 -5.98956,2.88621 -10.50307,-7.67418 -0.19489,-0.456 -0.68412,-0.47689 -1.06552,-0.9139 -16.27203,-7.95813 -36.45881,-24.8256 -39.15367,-45.27808 0.0593,-0.70684 1.06207,-7.18932 1.06207,-7.18932 29.78951,36.10978 120.90229,9.2149 143.09737,2.25892 z" style="display:inline;fill-opacity:1;fill-rule:evenodd;fill:#c837ab;opacity:1;stroke-dasharray:none;stroke-linecap:butt;stroke-linejoin:miter;stroke-miterlimit:4;stroke-opacity:1;stroke-width:0;stroke:#000000"/><path d="m 329.90806,425.67038 c -15.4791,1.19068 -42.03653,26.26041 -44.60913,30.99635 10.29989,-9.14088 29.75951,-26.28541 44.60913,-30.99635 z" class="shadow" id="path3246" sodipodi:nodetypes="ccc"/><path d="m 262.16597,457.51867 c -6.81704,-9.41592 -28.83006,-31.99347 -34.93819,-34.15183 5.05404,5.44075 26.5203,25.35081 34.93819,34.15183 z" class="shadow" id="path3248" sodipodi:nodetypes="ccc"/><path style="display:inline;fill-opacity:1;fill-rule:evenodd;fill:#ffffff;opacity:1;stroke-dasharray:none;stroke-linecap:butt;stroke-linejoin:miter;stroke-miterlimit:4;stroke-opacity:1;stroke-width:0;stroke:#000000" d="m 338.29776,434.04193 c 0.52476,-0.48256 0.98857,-0.69312 2.2213,-1.56586 -0.92815,-4.82319 -3.72367,-14.0004 -4.33199,-15.21669 -0.68659,0.0383 -1.69936,0.42929 -1.69936,0.42929 2.5209,7.79761 2.7276,9.33225 3.81005,16.35326 z" id="path3250" sodipodi:nodetypes="ccccc"/><path sodipodi:nodetypes="cccccccsccsccc" id="path2288-2-7" d="m 370.8969,268.8878 c 2.36849,23.60153 -3.24649,50.77091 -14.17047,77.92965 0.0897,2.34411 8.6595,18.11968 11.11537,30.07427 -36.77086,9.58655 -126.68446,13.76644 -145.55622,-5.09006 2.433,-12.49684 7.10305,-30.33653 14.9517,-51.41692 -2.13048,-7.70551 0.44816,-14.37237 -0.57531,-27.78473 0.40962,-35.13389 30.30326,-40.0847 52.38713,-59.43686 0.97617,-2.02088 2.05999,-19.89061 -11.85024,-27.17009 -0.63873,-0.33426 3.66191,-3.80977 8.18644,-6.21211 9.24713,11.38115 27.34766,3.74775 33.42729,-1.52056 1.50252,1.12706 8.39482,5.20658 7.17933,6.00553 -25.72677,16.91039 -30.9022,28.84774 -29.45936,29.06832 3.13994,1.52155 66.54554,33.43249 67.65165,34.25705 z" style="display:inline;fill-opacity:1;fill-rule:evenodd;fill:#000000;opacity:1;stroke-dasharray:none;stroke-linecap:butt;stroke-linejoin:miter;stroke-miterlimit:4;stroke-opacity:1;stroke-width:0;stroke:#000000"/><path sodipodi:nodetypes="cccccccccccc" id="path2290-3-0" d="m 355.86286,347.54922 c 0.49582,5.07437 8.15207,17.16139 10.52716,28.43074 -31.28229,8.06681 -129.76418,14.04864 -142.36655,-5.26211 1.76466,-12.54996 13.73275,-45.3843 14.32574,-50.33371 -3.0755,-26.84168 -3.64605,-47.62114 0.88756,-72.44709 4.39438,-23.68414 15.86738,-37.30901 37.69935,-41.95594 0.49229,-0.51848 3.97915,-3.18477 8.45611,-5.58711 9.14993,11.38115 27.08296,3.74775 33.09868,-1.52056 1.48672,1.12706 17.52471,7.31482 18.05659,8.65718 2.58742,0.19199 9.57783,0.93138 12.62329,2.06534 21.32697,11.58453 25.15316,34.74558 21.91064,58.57411 1.82371,35.69041 -9.90952,61.65738 -15.21857,79.37915 z" style="display:inline;fill-opacity:1;fill-rule:evenodd;fill:#c837ab;opacity:1;stroke-dasharray:none;stroke-linecap:butt;stroke-linejoin:miter;stroke-miterlimit:4;stroke-opacity:1;stroke-width:0;stroke:#000000"/></svg>
