<svg viewBox="0 0 560 1000"><path style="fill:#000000;stroke-width:0.18142612" d="m 278.94709,155.71201 c -0.31236,-0.29661 -0.81977,-0.58713 -1.12757,-0.64558 -0.30781,-0.0585 -0.59589,-0.23345 -0.6402,-0.38886 -0.0443,-0.15542 -0.34733,-0.40871 -0.67335,-0.56287 -0.71,-0.3357 -1.47352,-1.33098 -1.97502,-2.5745 -0.43128,-1.06942 -0.31583,-1.70574 0.55046,-3.03368 0.9334,-1.4308 1.52265,-2.55236 2.06139,-3.92354 0.45976,-1.17016 0.52191,-1.25325 0.52898,-0.70717 0.0148,1.14974 -0.93464,3.59192 -2.04016,5.24725 -0.79829,1.1953 -0.84841,1.66132 -0.30087,2.797 0.63331,1.3136 2.35897,2.80311 3.4848,3.00791 0.51226,0.0932 0.91431,0.53449 0.91431,1.00356 0,0.43986 -0.12541,0.40469 -0.78277,-0.21952 z m 2.27221,-0.39601 c 0,-0.28685 0.77111,-1.0094 1.07723,-1.0094 0.29303,0 2.27403,0.83966 2.27403,0.96386 0,0.0547 -0.57202,0.0489 -1.27114,-0.0128 -0.82821,-0.0731 -1.41207,-0.0405 -1.67562,0.0934 -0.32311,0.16421 -0.4045,0.15714 -0.4045,-0.035 z m 4.95132,-0.59007 c 0.39995,-0.49865 0.75829,-0.8277 0.79633,-0.73122 0.038,0.0966 -0.28922,0.50444 -0.72719,0.90661 l -0.79633,0.73122 z m -6.25458,-4.03315 c 0,-0.23737 0.0686,-0.47183 0.15249,-0.52105 0.0839,-0.0492 0.11626,0.14497 0.0719,0.43156 -0.0977,0.63183 -0.22445,0.68238 -0.22445,0.0894 z" id="path7178" sodipodi:nodetypes="ssccsccsscccscccccsccccccccccc"/></svg>
