<svg viewBox="0 0 560 1000"><path sodipodi:nodetypes="cccccc" id="path3543" d="m 364.50628,290.99038 c -15.00939,38.8522 -19.3981,80.4877 -17.1988,112.36607 -39.63585,8.44961 -72.83686,0.84982 -74.09168,-1.06835 -1.64009,0.741 -42.94886,4.06031 -44.2567,1.72398 10.81817,-37.96775 13.79961,-78.96898 9.86892,-113.88694 31.55028,3.86008 90.6252,6.27153 125.67826,0.86524 z" style="display:inline;fill-opacity:1;fill-rule:evenodd;fill:#000000;opacity:1;stroke-dasharray:none;stroke-linecap:butt;stroke-linejoin:miter;stroke-miterlimit:4;stroke-opacity:1;stroke-width:0;stroke:#000000"/><path sodipodi:nodetypes="cccccc" id="path3545" d="m 363.37733,292.32865 c -9.62253,27.96577 -23.93599,68.77846 -15.11512,112.86939 -57.84776,18.23932 -76.17133,14.78267 -76.51147,14.78064 -0.27158,-0.0147 -28.33572,0.16877 -42.89271,-15.77449 16.85376,-48.20911 13.10561,-95.24471 10.09728,-113.9856 26.56853,7.31487 109.35297,6.35942 124.42202,2.11006 z" style="display:inline;fill-opacity:1;fill-rule:evenodd;fill:#800000;opacity:1;stroke-dasharray:none;stroke-linecap:butt;stroke-linejoin:miter;stroke-miterlimit:4;stroke-opacity:1;stroke-width:0;stroke:#000000"/><path sodipodi:nodetypes="ccsscc" id="path3547" d="m 271.82541,419.82176 c -2.96459,-1.35508 3.16858,-85.1952 9.82717,-125.46235 0.0421,-0.18953 -0.065,-0.55474 0.12551,-0.56351 0.81123,-0.0373 0.77997,0.3603 2.32799,0.0884 0.20144,-0.0354 -0.067,0.40493 -0.1009,0.60937 -10.12688,61.2283 -12.03723,125.13323 -12.17977,125.32806 z" style="display:inline;fill-opacity:1;fill:#000000"/><path sodipodi:nodetypes="sccs" id="path3549" d="m 277.26367,407.09589 c 0,0.86028 -3.76472,3.3125 -6.25,3.3125 l 0.28125,-6.65625 c 2.48528,0 5.96875,2.60847 5.96875,3.34375 z" style="display:inline;fill:#000000"/><path sodipodi:nodetypes="sccs" id="path3551" d="m 277.90626,391.4531 c 0,0.86028 -3.76472,3.3125 -6.25,3.3125 l 0.28125,-6.65625 c 2.48528,0 5.96875,2.60847 5.96875,3.34375 z" style="display:inline;fill:#000000"/><path sodipodi:nodetypes="sccs" id="path3553" d="m 279.12501,376.4531 c 0,0.86028 -4.04597,3 -6.53125,3 l 0.46875,-6.65625 c 2.48528,0 6.0625,2.92097 6.0625,3.65625 z" style="display:inline;fill:#000000"/><path sodipodi:nodetypes="sccs" id="path3555" d="m 280.18751,363.2656 c 0,0.86028 -4.20222,2.6875 -6.6875,2.6875 l 0.59375,-6.65625 c 2.48528,0 6.09375,3.23347 6.09375,3.96875 z" style="display:inline;fill:#000000"/><path sodipodi:nodetypes="sccs" id="path3557" d="m 281.25001,348.5781 c 0,0.86028 -3.95222,2.875 -6.4375,2.875 l 0.625,-6.59375 c 2.48528,0 5.8125,2.98347 5.8125,3.71875 z" style="display:inline;fill:#000000"/><path sodipodi:nodetypes="sccs" id="path3559" d="m 283.00001,332.92185 c 0,0.86028 -4.13972,2.65625 -6.625,2.65625 l 0.6875,-6.59375 c 2.48528,0 5.9375,3.20222 5.9375,3.9375 z" style="display:inline;fill:#000000"/><path sodipodi:nodetypes="sccs" id="path3561" d="m 284.7206,318.33666 c 0,0.86028 -4.29597,2.28125 -6.78125,2.28125 l 0.8125,-6.5 c 2.48528,0 5.96875,3.48347 5.96875,4.21875 z" style="display:inline;fill:#000000"/><path sodipodi:nodetypes="sccs" id="path3563" d="m 286.3358,302.31061 c 0,0.86028 -3.98347,3 -6.46875,3 l 0.9375,-6.3125 c 2.48528,0 5.53125,2.57722 5.53125,3.3125 z" style="display:inline;fill:#000000"/><path sodipodi:nodetypes="sccs" id="path3569" d="m 277.18902,406.27379 c 0,0.86028 -3.76472,3.3125 -6.25,3.3125 l 0.28125,-6.65625 c 2.48528,0 5.96875,2.60847 5.96875,3.34375 z" style="display:inline;fill:#787878"/><path sodipodi:nodetypes="sccs" id="path3571" d="m 277.83161,390.631 c 0,0.86028 -3.76472,3.3125 -6.25,3.3125 l 0.28125,-6.65625 c 2.48528,0 5.96875,2.60847 5.96875,3.34375 z" style="display:inline;fill:#787878"/><path sodipodi:nodetypes="sccs" id="path3573" d="m 279.05036,375.631 c 0,0.86028 -4.04597,3 -6.53125,3 l 0.46875,-6.65625 c 2.48528,0 6.0625,2.92097 6.0625,3.65625 z" style="display:inline;fill:#787878"/><path sodipodi:nodetypes="sccs" id="path3575" d="m 280.11286,362.4435 c 0,0.86028 -4.20222,2.6875 -6.6875,2.6875 l 0.59375,-6.65625 c 2.48528,0 6.09375,3.23347 6.09375,3.96875 z" style="display:inline;fill:#787878"/><path sodipodi:nodetypes="sccs" id="path3577" d="m 281.17536,347.756 c 0,0.86028 -3.95222,2.875 -6.4375,2.875 l 0.625,-6.59375 c 2.48528,0 5.8125,2.98347 5.8125,3.71875 z" style="display:inline;fill:#787878"/><path sodipodi:nodetypes="sccs" id="path3583" d="m 282.92536,332.09975 c 0,0.86028 -4.13972,2.65625 -6.625,2.65625 l 0.6875,-6.59375 c 2.48528,0 5.9375,3.20222 5.9375,3.9375 z" style="display:inline;fill:#787878"/><path sodipodi:nodetypes="sccs" id="path3585" d="m 284.64595,317.51456 c 0,0.86028 -4.29597,2.28125 -6.78125,2.28125 l 0.8125,-6.5 c 2.48528,0 5.96875,3.48347 5.96875,4.21875 z" style="display:inline;fill:#787878"/><path sodipodi:nodetypes="sccs" id="path3587" d="m 286.26115,301.48851 c 0,0.86028 -3.98347,3 -6.46875,3 l 0.9375,-6.3125 c 2.48528,0 5.53125,2.57722 5.53125,3.3125 z" style="display:inline;fill:#787878"/><path style="display:inline;fill-opacity:1;fill-rule:evenodd;fill:#000000;opacity:1;stroke-dasharray:none;stroke-linecap:butt;stroke-linejoin:miter;stroke-miterlimit:4;stroke-opacity:1;stroke-width:0;stroke:#000000" d="m 347.68789,403.23716 c 2.80181,5.33577 25.09174,44.29249 18.90133,70.64555 -20.82093,14.76257 -101.55407,3.60363 -151.95195,0.28076 0.0585,-1.03765 0.0424,-2.07139 0.18689,-3.07673 6.24071,-43.42968 12.60903,-64.76949 14.40806,-68.70446 0.20972,-0.4587 0.34723,-0.67416 0.34723,-0.67416 31.73404,35.14115 95.91336,8.94544 118.10844,1.52904 z" id="path3581-6-5-2-4" sodipodi:nodetypes="cccsssc"/><path style="display:inline;fill-opacity:1;fill-rule:evenodd;fill:#800000;opacity:1;stroke-dasharray:none;stroke-linecap:butt;stroke-linejoin:miter;stroke-miterlimit:4;stroke-opacity:1;stroke-width:0;stroke:#000000" d="m 348.31718,404.36732 c 8.55181,12.27339 25.02702,41.61625 18.83661,66.33328 -20.82093,13.84609 -101.99157,3.49714 -152.38945,0.38057 0.55367,-47.38146 14.62968,-68.13309 14.62968,-68.13309 29.7895,36.10978 96.72808,8.37522 118.92316,1.41924 z" id="path3581-6-5-2" sodipodi:nodetypes="cccsc"/><path sodipodi:nodetypes="ccc" id="path3401-2" class="shadow" d="m 329.90806,425.67038 c -15.4791,1.19068 -42.03653,26.26041 -44.60913,30.99635 10.29989,-9.14088 29.75951,-26.28541 44.60913,-30.99635 z"/><path sodipodi:nodetypes="ccc" id="path3406-2" class="shadow" d="m 262.16597,457.51867 c -6.81704,-9.41592 -28.83006,-31.99347 -34.93819,-34.15183 5.05404,5.44075 26.5203,25.35081 34.93819,34.15183 z"/></svg>
