<svg viewBox="0 0 560 1000"><path sodipodi:nodetypes="csccc" d="m 266.49997,479.72152 c -0.75726,0.23851 -1.62496,0.12972 -2.16768,0.12087 -0.87058,-0.0137 -2.58026,-1.33662 -2.72746,-1.74031 0.22472,-1.73814 4.72523,-4.11548 8.07489,-1.88455 -1.08923,2.46638 -1.83549,2.76844 -3.17975,3.50399 z" id="path3712" style="fill:#000000;stroke-width:1.54810905"/><path sodipodi:nodetypes="cccscsscssc" d="m 263.05282,454.42613 c 2.07772,-3.79093 9.50404,-6.27366 10.21207,2.42502 0.23464,0.48958 -0.31659,2.68872 -0.9792,5.45446 -0.75885,2.70023 -1.36052,5.77014 -1.6557,8.82905 -0.23119,2.39568 -0.29911,4.74378 -1.82054,6.2419 -1.08214,0.8935 -2.83491,1.2165 -4.32424,1.19426 -0.87516,-0.0138 -2.40619,-0.0517 -2.67449,-0.25392 -1.06787,-0.8045 -1.67435,-1.61251 -2.56184,-2.78989 -0.11072,-0.51921 0.11936,-0.77834 0.0711,-0.97512 -0.60519,-2.47557 -0.4191,-6.1883 0.36166,-10.32836 0.6696,-3.55062 1.81451,-7.13518 3.37106,-9.7974 z" id="path3714" style="fill:#000000;stroke-width:1.54810905"/><path sodipodi:nodetypes="cccccc" d="m 269.49755,475.33492 c -0.0108,0.4171 -0.5592,1.88401 -1.08427,2.58066 -1.19569,1.36703 -2.62442,1.97525 -4.30495,1.4419 -0.78574,-0.0138 -3.3003,-1.9718 -4.50277,-3.9635 0.5118,-1.73157 7.65321,0.99684 9.89199,-0.059 z" id="path3716" class="areola"/><path sodipodi:nodetypes="ccccccscc" class="skin penis" d="m 263.56044,453.68581 c 1.85797,-3.87515 8.4989,-6.41305 9.13204,2.47889 0.20982,0.50046 -0.2831,2.74844 -0.87564,5.57566 -0.67858,2.76019 -1.47022,5.84694 -1.7342,8.97382 -0.0326,1.74869 -0.19336,2.88913 -0.35223,3.96037 -1.16505,1.40744 -7.52369,-0.55707 -9.73624,-0.36448 -0.54119,-2.53057 -0.14653,-6.37715 0.55166,-10.60919 0.59875,-3.6295 1.62258,-7.29369 3.01451,-10.01507 z" id="path3718"/></svg>
