<svg viewBox="0 0 560 1000"><path style="display:inline;fill-opacity:1;fill-rule:evenodd;fill:#000000;opacity:1;stroke-dasharray:none;stroke-linecap:butt;stroke-linejoin:miter;stroke-miterlimit:4;stroke-opacity:1;stroke-width:0;stroke:#000000" d="m 282.94456,458.76549 c -0.0483,0.15247 -0.11284,0.47208 -0.19954,0.90622 -0.41277,2.06685 -1.81439,6.53069 -3.87757,8.11265 -0.26921,0.20642 -1.13559,1.14752 -4.57861,0.28177 -0.17398,-0.0437 -2.18026,1.1699 -4.2783,0.12449 -4.65827,-2.32112 -6.22252,-8.10904 -6.31915,-8.53686 3.82592,9.08132 8.89939,9.3147 10.40315,7.55401 5.26837,2.79873 7.50839,-4.81217 8.85002,-8.44228 z" id="path5166" sodipodi:nodetypes="cssssccc"/><path style="display:inline;fill-opacity:1;fill-rule:evenodd;fill:#917c6f;opacity:1;stroke-dasharray:none;stroke-linecap:butt;stroke-linejoin:miter;stroke-miterlimit:4;stroke-opacity:1;stroke-width:0;stroke:#000000" d="m 361.63641,418.84411 c -26.82642,-1.40287 -67.54027,21.94468 -78.51049,39.5024 -1.04023,1.75909 -1.92047,7.35117 -4.50173,9.70959 -0.97785,0.89343 -3.70051,-0.0277 -4.03805,0.0431 -0.91345,0.19159 -2.80735,0.34793 -3.55356,0.29099 -1.3589,-0.10369 -3.01052,-1.81454 -4.53551,-3.48982 -1.15035,-1.26373 -2.1753,-2.98733 -2.81436,-5.19001 -8.77373,-7.86601 -26.29026,-23.86431 -37.72273,-47.06552 0.0176,-0.005 -0.20468,-0.75846 -0.17901,-2.20368 16.3118,24.34925 24.23707,27.1224 43.30386,28.66939 25.02987,0.6346 42.5883,-20.51507 92.56367,-22.37183 0,0 0.006,2.09665 -0.0121,2.10539 z" id="path5168" sodipodi:nodetypes="ccssssccccccc"/><path style="display:inline;fill-opacity:1;fill-rule:evenodd;fill:#000000;opacity:1;stroke-dasharray:none;stroke-linecap:butt;stroke-linejoin:miter;stroke-miterlimit:4;stroke-opacity:1;stroke-width:0;stroke:#000000" d="m 282.94456,458.76549 c -0.0483,0.15247 -0.11284,0.47208 -0.19954,0.90622 -0.41277,2.06685 -1.81439,6.53069 -3.87757,8.11265 -0.26921,0.20642 -1.13559,1.14752 -4.57861,0.28177 -0.17398,-0.0437 -2.18026,1.1699 -4.2783,0.12449 -4.65827,-2.32112 -6.22252,-8.10904 -6.31915,-8.53686 3.82592,9.08132 8.89939,9.3147 10.40315,7.55401 5.26837,2.79873 7.50839,-4.81217 8.85002,-8.44228 z" id="path5170" sodipodi:nodetypes="cssssccc"/><path style="display:inline;fill-opacity:1;fill-rule:evenodd;fill:#000000;opacity:1;stroke-dasharray:none;stroke-linecap:butt;stroke-linejoin:miter;stroke-miterlimit:4;stroke-opacity:1;stroke-width:0;stroke:#000000" d="m 293.87419,593.8061 c -2.17664,0.39051 -23.36622,7.99058 -36.62914,-0.96416 -8.54249,-85.93506 -5.55366,-156.89151 -5.55366,-156.89151 0,0 10.88736,3.48996 17.18634,3.74806 6.31633,0.53943 22.29169,-4.96947 22.29169,-4.96947 0,0 -3.36028,86.03954 2.70477,159.07708 z" id="path5148-6-1-6" sodipodi:nodetypes="cccccc"/><path style="display:inline;fill-opacity:1;fill-rule:evenodd;fill:#917c6f;opacity:1;stroke-dasharray:none;stroke-linecap:butt;stroke-linejoin:miter;stroke-miterlimit:4;stroke-opacity:1;stroke-width:0;stroke:#000000" d="m 292.81353,592.76366 c -2.09846,0.38841 -22.52701,7.94751 -35.31359,-0.95897 -8.2381,-85.49687 -5.2264,-155.63507 -5.2264,-155.63507 0,0 10.32898,3.07418 16.44129,3.31717 6.42693,0.55804 21.4828,-4.41472 21.4828,-4.41472 0,0 -3.22893,85.07741 2.6159,157.69159 z" id="path5148-6-2" sodipodi:nodetypes="cccccc"/></svg>
