<svg viewBox="0 0 560 1000"><path sodipodi:nodetypes="ccccscc" d="m 274.93237,166.08259 -5e-5,-5e-5 c -0.64515,-0.37341 -0.22979,-0.95124 0.48732,-0.67794 1.41051,-1.13078 0.85662,-4.71566 5.72351,-3.41421 8.18916,-2.06473 14.07197,3.68 14.21541,4.23346 0.254,0.98002 -7.9849,5.81994 -12.35702,6.11208 -5.70445,-1.45687 -7.86395,-6.02924 -8.06917,-6.25334 z" id="path2558-9" class="areola"/><path sodipodi:nodetypes="scccccccccscccccscscsccccccccccccscscccccscscsc" d="m 279.64852,171.98808 c 0.62806,-0.42932 0.10547,-0.7828 -0.39085,-1.32489 -0.48823,-0.55313 -0.94513,-0.83866 -0.91035,-0.87323 0.0348,-0.0345 0.60815,0.26408 1.27417,0.66364 1.73099,1.03849 2.77547,1.30281 4.5361,1.14792 0.78844,-0.0694 1.97989,-0.31078 2.64763,-0.5365 0.66776,-0.22571 1.16635,-0.33359 1.10796,-0.23972 -0.1986,0.31932 -1.8428,1.04619 -2.95728,1.30733 -1.08113,0.25333 -2.46722,0.10658 -3.34047,-0.0974 -0.87326,-0.20399 -1.21097,-0.29812 -1.96691,-0.0471 z m 14.31406,-5.35779 c -0.0721,-0.0726 -1.0223,-0.2195 -2.11174,-0.32633 -2.22376,-0.10242 -6.01541,-0.40714 -7.36097,-0.18687 -0.0857,0.014 -0.16151,0.0302 -0.22634,0.0487 0.7512,-0.51391 5.21556,-0.11753 7.57782,-0.0821 1.22762,-0.0161 2.25313,-0.12471 2.71831,-0.28783 0.81659,-0.28632 1.48939,-0.11215 1.31467,0.34037 -0.16615,0.4303 -1.60604,0.80231 -1.91175,0.49392 z m -17.47346,-0.65834 c -0.25125,0.30086 -0.83128,0.33334 -1.28303,0.0719 l -5e-5,-5e-5 c -0.64515,-0.37341 -0.22979,-0.95124 0.48732,-0.67794 0.19492,0.0742 0.50293,0.18208 0.68449,0.23954 0.0863,0.0273 1.98403,-0.12754 2.65631,-0.16398 0.62172,0.0499 1.10632,0.24358 1.04513,0.13458 -0.34377,-0.61121 -0.28694,-0.61445 0.7339,-0.0419 1.30506,0.73197 2.45806,0.85175 3.55539,0.36936 0.69408,-0.30513 0.80385,-0.31987 0.60515,-0.0812 -0.34879,0.41889 -1.57055,0.93384 -2.19202,0.92391 -0.2924,-0.005 -0.95334,-0.15125 -1.46877,-0.32575 v -5e-5 c -0.51542,-0.17449 -0.95402,-0.34725 -0.97465,-0.38389 -0.009,-0.0159 -0.88249,-0.31153 -1.2757,-0.3485 -0.60888,-0.0728 -2.54404,0.24871 -2.57347,0.28397 z m 4.25467,-3.70044 c -0.34112,-0.13056 -0.92397,-0.2434 -1.29521,-0.25077 -0.89452,-0.0177 -0.67485,-0.36563 0.23091,-0.36563 0.37776,0 0.89621,0.0791 1.15208,0.1758 0.33772,0.1276 0.81453,0.0969 1.73914,-0.11216 1.70188,-0.38468 3.40942,-0.38925 4.19819,-0.0117 l 0.62023,0.29726 -1.50627,-0.0973 c -1.21934,-0.0788 -1.7257,-0.0287 -2.65815,0.26317 -1.32565,0.4149 -1.62825,0.42719 -2.48092,0.10083 z" style="display:inline;fill:#000000;stroke-width:0.1766593" id="path2558"/></svg>
