<svg viewBox="0 0 560 1000"><path style="display:inline;fill-opacity:1;fill-rule:evenodd;fill:#000000;opacity:1;stroke-dasharray:none;stroke-linecap:butt;stroke-linejoin:miter;stroke-miterlimit:4;stroke-opacity:1;stroke-width:0;stroke:#000000" d="m 368.45236,268.83602 c 0.40069,1.40387 0.82871,12.89967 -6.36035,37.77919 -7.32948,25.39302 -46.25579,50.21893 -32.10865,72.69961 -32.89181,6.65266 -76.33001,11.61922 -90.69809,-5.38372 2.433,-12.49684 4.19127,-19.92717 4.36254,-35.13031 0.24452,-21.70551 -6.08737,-33.66342 -6.98584,-46.20078 0.40962,-35.13389 30.30326,-40.0847 52.38713,-59.43686 0.97617,-2.02088 2.08274,-20.02947 -11.82749,-27.30895 -0.63873,-0.33426 10.75442,-5.48287 13.95313,-9.34362 3.89963,2.05618 13.42649,1.97998 24.05812,-1.34378 1.50252,1.12706 11.97455,8.30017 10.75906,9.09912 -25.72677,16.91039 -30.9022,28.84774 -29.45936,29.06832 3.13994,1.52155 66.54554,33.43249 67.65165,34.25705 z" id="path4906" sodipodi:nodetypes="ccccsccsccsccc"/><path style="display:inline;fill-opacity:1;fill-rule:evenodd;fill:#d4aa00;opacity:1;stroke-dasharray:none;stroke-linecap:butt;stroke-linejoin:miter;stroke-miterlimit:4;stroke-opacity:1;stroke-width:0;stroke:#000000" d="m 368.47602,268.56519 c -0.47811,3.70196 -1.71839,20.80284 -7.95729,39.14162 -5.70331,22.34363 -45.52558,47.64607 -32.17465,70.44625 -31.15729,6.94181 -77.3071,10.62018 -87.90947,-4.94057 2.40743,-12.49684 4.43231,-29.2995 4.60178,-32.17365 1.27707,-21.66848 -5.53672,-33.8742 -6.42575,-46.41156 -3.49765,-53.35898 12.93818,-79.84335 38.32548,-88.64617 0.49229,-0.51848 11.13861,-4.73157 14.37813,-8.50393 3.75824,1.65843 12.98501,1.80321 23.72951,-1.34378 7.98672,5.87706 20.97186,10.05486 21.50374,11.39722 40.52013,0.35863 36.88575,49.2706 31.92852,61.03457 z" id="path4908" sodipodi:nodetypes="ccccscccccc"/><path sodipodi:nodetypes="ccssssccccc" id="path1664-8" d="m 350.44891,411.28161 c -41.34356,12.40411 -56.35277,29.50718 -67.32299,47.0649 -1.04023,1.75909 -1.92047,7.35117 -4.50173,9.70959 -0.97785,0.89343 -3.70051,-0.0277 -4.03805,0.0431 -0.91345,0.19159 -2.09488,0.29968 -2.84109,0.24274 -1.3589,-0.10369 -3.10427,-0.97079 -4.62926,-2.64607 -1.15035,-1.26373 -2.1753,-2.98733 -2.81436,-5.19001 -8.27893,-10.93923 -27.60352,-39.54369 -38.34145,-47.86102 0.0176,-0.005 -0.05,-0.20603 0.59439,-1.93851 29.91996,7.91079 37.53385,11.40066 123.28163,-1.21761 0,0 0.63138,1.78415 0.61291,1.79289 z" style="display:inline;fill-opacity:1;fill-rule:evenodd;fill:#d4aa00;opacity:1;stroke-dasharray:none;stroke-linecap:butt;stroke-linejoin:miter;stroke-miterlimit:4;stroke-opacity:1;stroke-width:0;stroke:#000000"/><path sodipodi:nodetypes="ccccccc" id="path1667-0" d="m 225.9378,412.66104 c 0.12717,-0.79329 0.24724,-0.90642 0.25482,-0.95601 23.02972,9.12926 54.6817,12.66174 123.82806,-1.73671 0.0291,0.083 0.24793,0.57628 0.45084,1.30322 -7.49448,2.32559 -13.58511,4.61432 -22.50451,8.15633 -60.49161,9.75774 -83.56164,4.33761 -97.57663,-2.66633 -1.68147,-1.78024 -2.87542,-3.01265 -4.45258,-4.1005 z" style="display:inline;fill-opacity:1;fill:#1a1a1a;stroke-dasharray:none;stroke-linecap:butt;stroke-linejoin:miter;stroke-miterlimit:4;stroke-opacity:1;stroke-width:0;stroke:#83afc8"/><path sodipodi:nodetypes="ccccc" id="path1676-2" d="m 241.44907,429.61473 c 16.19921,3.4137 37.32679,4.09867 68.75142,-0.23858 -1.10723,0.72649 -4.9682,3.64884 -9.02733,7.02192 -26.13262,3.68145 -42.62028,3.1439 -53.96133,0.73077 -1.89388,-2.48871 -3.25794,-4.54662 -5.76276,-7.51411 z" style="display:inline;fill-opacity:1;fill:#1a1a1a;stroke-dasharray:none;stroke-linecap:butt;stroke-linejoin:miter;stroke-miterlimit:4;stroke-opacity:1;stroke-width:0;stroke:#83afc8"/><path sodipodi:nodetypes="ccccc" id="path1678-02" d="m 252.70414,444.58541 c 10.94342,1.31488 24.01095,1.50229 40.32871,0.0811 -1.56759,2.01272 -3.58281,4.56444 -5.24245,6.66295 -12.30604,1.16431 -22.00263,1.20882 -29.81942,0.51362 -2.04934,-2.61037 -3.63449,-4.68604 -5.26684,-7.25767 z" style="display:inline;fill-opacity:1;fill:#1a1a1a;stroke-dasharray:none;stroke-linecap:butt;stroke-linejoin:miter;stroke-miterlimit:4;stroke-opacity:1;stroke-width:0;stroke:#83afc8"/><path sodipodi:nodetypes="ccccc" id="path1680-7" d="m 262.53421,458.18295 c 6.22871,0.31514 13.08896,0.30377 20.72809,-0.0971 -0.87505,2.4389 -1.64015,4.66739 -2.42955,6.53665 -5.25319,0.34928 -9.97649,0.47387 -14.24234,0.41152 -1.68576,-1.69159 -2.0194,-4.59693 -4.0562,-6.85107 z" style="display:inline;fill-opacity:1;fill:#1a1a1a;stroke-dasharray:none;stroke-linecap:butt;stroke-linejoin:miter;stroke-miterlimit:4;stroke-opacity:1;stroke-width:0;stroke:#83afc8"/><path sodipodi:nodetypes="cssssccc" id="path1688-0" d="m 282.94456,458.76549 c -0.0483,0.15247 -0.11284,0.47208 -0.19954,0.90622 -0.41277,2.06685 -1.81439,6.53069 -3.87757,8.11265 -0.26921,0.20642 -1.13559,1.14752 -4.57861,0.28177 -0.17398,-0.0437 -2.18026,1.1699 -4.2783,0.12449 -4.65827,-2.32112 -6.22252,-8.10904 -6.31915,-8.53686 3.82592,9.08132 8.89939,9.3147 10.40315,7.55401 5.26837,2.79873 7.50839,-4.81217 8.85002,-8.44228 z" style="display:inline;fill-opacity:1;fill-rule:evenodd;fill:#000000;opacity:1;stroke-dasharray:none;stroke-linecap:butt;stroke-linejoin:miter;stroke-miterlimit:4;stroke-opacity:1;stroke-width:0;stroke:#000000"/><path sodipodi:nodetypes="cscsssssssssccssssssssscscc" id="path1686-7-77" d="m 270.82275,435.43438 c -0.27348,0.009 -1.79592,0.25253 -2.79392,-0.37218 -2.81558,-1.76243 -4.25483,-2.94688 -4.60119,-2.94292 -1.31947,3.46278 0.95439,5.62557 0.35455,6.32275 -1.37181,1.59444 -1.79238,3.00827 -1.58396,5.50362 0.0171,0.20458 -3.58077,0.80557 -3.54542,1.00689 0.035,0.19926 3.703,-10e-4 3.75649,0.19384 0.0729,0.26588 0.16339,0.52725 0.27207,0.78268 0.073,0.17162 -5.09572,1.71557 -5.006,1.88142 0.0994,0.18367 5.45913,-1.01146 5.57958,-0.83598 0.18386,0.26785 0.39264,0.5255 0.62747,0.77089 0.0936,0.0978 -2.54862,1.85103 -2.44663,1.94485 0.0902,0.083 2.92371,-1.49299 3.02053,-1.41337 3.12217,2.74088 9.31925,2.71469 13.42439,0.023 0.11108,-0.0887 2.74498,1.74885 2.84737,1.65478 0.11009,-0.10113 -2.31201,-2.13427 -2.21182,-2.24122 0.23524,-0.25114 0.44336,-0.51778 0.62524,-0.79735 0.0907,-0.13937 4.70644,1.32919 4.78417,1.18372 0.10116,-0.18933 -4.34018,-1.99469 -4.26053,-2.19311 0.14306,-0.35634 0.2518,-0.7262 0.3276,-1.10547 0.0334,-0.16697 3.51968,4e-4 3.5404,-0.16988 0.0189,-0.15538 -3.42675,-0.64815 -3.41821,-0.80572 0.13599,-2.5067 0.25463,-3.8872 -1.41033,-5.45929 -0.81598,-0.77046 1.3846,-1.75153 0.59847,-5.81365 -0.91001,0.15641 -2.65721,1.16587 -5.86162,2.70862 -0.8909,0.42892 -2.16174,0.14007 -2.6189,0.17306 z" style="display:inline;fill-opacity:1;fill:#ffffff;stroke-dasharray:none;stroke-linecap:butt;stroke-linejoin:miter;stroke-miterlimit:4;stroke-opacity:1;stroke-width:0;stroke:#83afc8"/></svg>
