<svg viewBox="0 0 560 1000"><path style="display:inline;fill-rule:evenodd;fill:none;stroke-dasharray:none;stroke-linecap:round;stroke-linejoin:miter;stroke-miterlimit:3.85714293;stroke-opacity:1;stroke-width:3;stroke:#c8c8c8" d="m 279.35226,205.15766 c 3.5539,9.14818 39.71477,9.14596 44.82378,-1.44292" id="path4778-4-8-3" sodipodi:nodetypes="cc"/><path style="display:inline;fill:none;stroke-dasharray:none;stroke-linecap:butt;stroke-linejoin:miter;stroke-miterlimit:4;stroke-opacity:1;stroke-width:3;stroke:#c8c8c8" d="m 283.20928,457.85928 c -10.24818,-3.65074 -12.19771,-8.47811 -13.14205,-9.13293 -3.48868,-2.41906 -25.29434,-31.62162 -35.93034,-37.68891" id="path4780-4-7-6" sodipodi:nodetypes="csc"/><path style="display:inline;fill:none;stroke-dasharray:none;stroke-linecap:butt;stroke-linejoin:miter;stroke-miterlimit:4;stroke-opacity:1;stroke-width:3;stroke:#c8c8c8" d="m 262.61151,457.66092 c 0.0971,-0.0743 0.39896,-0.14737 0.48137,-0.44924 0.65805,-2.41031 8.31304,-12.2898 15.48987,-17.60178 0.1214,-0.0898 31.92814,-23.95594 52.99724,-31.64452" id="path4782-9-0-1" sodipodi:nodetypes="cssc"/><path style="display:inline;fill:none;stroke-dasharray:none;stroke-linecap:round;stroke-linejoin:miter;stroke-miterlimit:4;stroke-opacity:1;stroke-width:3;stroke:#c8c8c8" d="m 372.81074,388.12247 c -27.24807,14.19379 -83.0552,35.13336 -105.3475,33.38492 -12.10128,-0.94914 -28.37784,-7.78298 -45.92497,-15.66227" id="path4784-9-8-5" sodipodi:nodetypes="csc"/><path style="display:inline;fill:none;stroke-dasharray:none;stroke-linecap:round;stroke-linejoin:miter;stroke-miterlimit:4;stroke-opacity:1;stroke-width:3;stroke:#c8c8c8" d="M 339.64498,404.35656 C 325.39506,375.35781 296.94233,371.095 282.67078,320.00663" id="path4786-6-9-9" sodipodi:nodetypes="cc"/><path style="display:inline;fill:none;stroke-dasharray:none;stroke-linecap:round;stroke-linejoin:miter;stroke-miterlimit:4;stroke-opacity:1;stroke-width:3;stroke:#c8c8c8" d="m 218.79074,393.30063 c 0.39694,-0.61873 23.23312,-20.83835 23.79607,-21.84141 6.74872,-12.02481 24.26959,-49.12713 24.81539,-50.42401" id="path4788-1-8-2" sodipodi:nodetypes="csc"/><path style="display:inline;fill:none;stroke-dasharray:none;stroke-linecap:round;stroke-linejoin:miter;stroke-miterlimit:4;stroke-opacity:1;stroke-width:3;stroke:#c8c8c8" d="m 312.23886,372.94157 c -5.95666,8.4575 -23.51421,11.68169 -33.39131,2.81793" id="path4790-9-1-0" sodipodi:nodetypes="cc"/><path style="display:inline;fill:none;stroke-dasharray:none;stroke-linecap:round;stroke-linejoin:miter;stroke-miterlimit:3.85714293;stroke-opacity:1;stroke-width:3;stroke:#c8c8c8" d="m 298.13357,211.59436 c -7.44225,19.17136 -32.15183,16.3733 -46.0788,43.24406" id="path4792-8-9-8" sodipodi:nodetypes="cc"/><path style="display:inline;fill:none;stroke-dasharray:none;stroke-linecap:round;stroke-linejoin:miter;stroke-miterlimit:4;stroke-opacity:1;stroke-width:3;stroke:#c8c8c8" d="m 299.24081,212.29201 c -0.75475,3.85886 -14.89245,14.64367 -18.59792,35.90804" id="path4794-9-9-8" sodipodi:nodetypes="cc"/><path style="display:inline;fill:none;stroke-dasharray:none;stroke-linecap:round;stroke-linejoin:miter;stroke-miterlimit:3.85714293;stroke-opacity:1;stroke-width:3;stroke:#c8c8c8" d="m 280.38871,304.77319 c 0.006,-1.50878 22.27835,-17.45073 31.40589,-48.11945" id="path4796-9-1-0" sodipodi:nodetypes="cc"/><path style="display:inline;fill:none;stroke-dasharray:none;stroke-linecap:round;stroke-linejoin:miter;stroke-miterlimit:3.85714293;stroke-opacity:1;stroke-width:3;stroke:#c8c8c8" d="m 370.49432,260.65774 c -7.79427,1.12077 -50.56746,6.517 -58.76404,-3.99915" id="path4798-6-2-6" sodipodi:nodetypes="cc"/><path style="display:inline;fill:none;stroke-dasharray:none;stroke-linecap:round;stroke-linejoin:miter;stroke-miterlimit:3.85714293;stroke-opacity:1;stroke-width:3;stroke:#c8c8c8" d="M 267.84592,303.48244 C 252.53908,269.79445 251.91518,258.2834 251.85032,255.72218" id="path4800-7-7-9" sodipodi:nodetypes="cc"/><path style="display:inline;fill:none;stroke-dasharray:none;stroke-linecap:round;stroke-linejoin:miter;stroke-miterlimit:4;stroke-opacity:1;stroke-width:3;stroke:#c8c8c8" d="m 258.17821,457.64074 c 0.21772,-2.84247 0.63992,-27.22453 2.93504,-36.30361" id="path4802-3-1-8" sodipodi:nodetypes="cc"/><path style="display:inline;fill:none;stroke-dasharray:none;stroke-linecap:round;stroke-linejoin:miter;stroke-miterlimit:4;stroke-opacity:1;stroke-width:3;stroke:#c8c8c8" d="m 251.85499,446.80191 c 0.21772,-2.84247 0.46314,-18.3857 2.75826,-27.46478" id="path4804-1-8-8" sodipodi:nodetypes="cc"/><path style="display:inline;fill:none;stroke-dasharray:none;stroke-linecap:round;stroke-linejoin:miter;stroke-miterlimit:4;stroke-opacity:1;stroke-width:3;stroke:#c8c8c8" d="m 246.45854,438.03262 c 0.21772,-2.84247 0.10959,-11.49141 2.40471,-20.57049" id="path4806-9-5-3" sodipodi:nodetypes="cc"/><path style="display:inline;fill:none;stroke-dasharray:none;stroke-linecap:round;stroke-linejoin:miter;stroke-miterlimit:4;stroke-opacity:1;stroke-width:3;stroke:#c8c8c8" d="m 303.75404,435.52678 c 0.21772,-2.84247 -0.0735,-10.57656 2.22165,-19.65564" id="path4808-2-3-9" sodipodi:nodetypes="cc"/><path style="display:inline;fill:none;stroke-dasharray:none;stroke-linecap:round;stroke-linejoin:miter;stroke-miterlimit:4;stroke-opacity:1;stroke-width:3;stroke:#c8c8c8" d="m 294.6416,446.8186 c 0.21772,-2.84247 0.58186,-19.79516 2.87698,-28.87424" id="path4810-6-9-9" sodipodi:nodetypes="cc"/><path style="display:inline;fill:none;stroke-dasharray:none;stroke-linecap:round;stroke-linejoin:miter;stroke-miterlimit:4;stroke-opacity:1;stroke-width:3;stroke:#c8c8c8" d="m 286.41304,457.93884 c 0.21772,-2.84247 0.90509,-27.77263 3.20021,-36.85171" id="path4812-7-9-7" sodipodi:nodetypes="cc"/><path style="display:inline;fill:none;stroke-dasharray:none;stroke-linecap:round;stroke-linejoin:miter;stroke-miterlimit:4;stroke-opacity:1;stroke-width:3;stroke:#c8c8c8" d="m 279.22999,467.29652 c 0.21772,-2.84247 0.46314,-36.50531 2.75826,-45.58439" id="path4814-4-8-8" sodipodi:nodetypes="cc"/><path style="display:inline;fill:none;stroke-dasharray:none;stroke-linecap:round;stroke-linejoin:miter;stroke-miterlimit:4;stroke-opacity:1;stroke-width:3;stroke:#c8c8c8" d="m 264.69966,467.31797 c 0.21772,-2.84247 0.99347,-36.15176 3.28859,-45.23084" id="path4816-9-2-2" sodipodi:nodetypes="cc"/><path style="display:inline;fill:none;stroke-dasharray:none;stroke-linecap:round;stroke-linejoin:miter;stroke-miterlimit:4;stroke-opacity:1;stroke-width:3;stroke:#c8c8c8" d="m 272.03804,474.07209 c 0.21772,-2.84247 0.90509,-42.78088 3.20021,-51.85996" id="path4818-8-5-0" sodipodi:nodetypes="cc"/><path style="display:inline;fill:none;stroke-dasharray:none;stroke-linecap:round;stroke-linejoin:miter;stroke-miterlimit:4;stroke-opacity:1;stroke-width:3;stroke:#c8c8c8" d="m 314.79428,425.8223 c 0.21772,-2.84247 -2.26436,-10.72301 -1.59421,-12.30209" id="path4820-5-4-5" sodipodi:nodetypes="cc"/><path style="display:inline;fill:none;stroke-dasharray:none;stroke-linecap:round;stroke-linejoin:miter;stroke-miterlimit:4;stroke-opacity:1;stroke-width:3;stroke:#c8c8c8" d="m 241.25615,426.62407 c 0.21772,-2.84247 1.05778,-5.87313 2.10293,-10.45221" id="path4822-8-0-6" sodipodi:nodetypes="cc"/><path style="display:inline;fill:none;stroke-dasharray:none;stroke-linecap:round;stroke-linejoin:miter;stroke-miterlimit:4;stroke-opacity:1;stroke-width:3;stroke:#c8c8c8" d="m 338.29252,405.41213 c 1.28198,2.54627 4.1796,10.41472 4.42155,12.11297" id="path4824-4-1-5" sodipodi:nodetypes="cc"/><path style="display:inline;fill:none;stroke-dasharray:none;stroke-linecap:round;stroke-linejoin:miter;stroke-miterlimit:4;stroke-opacity:1;stroke-width:3;stroke:#c8c8c8" d="m 224.29488,420.9774 c 0.59863,-2.78723 3.27714,-10.73293 4.15389,-12.20735" id="path4826-9-0-8" sodipodi:nodetypes="cc"/><path style="display:inline;fill:none;stroke-dasharray:none;stroke-linecap:round;stroke-linejoin:miter;stroke-miterlimit:4;stroke-opacity:1;stroke-width:3;stroke:#c8c8c8" d="m 232.04488,423.72739 c 0.59863,-2.78723 3.27716,-10.73293 4.15391,-12.20735" id="path4828-8-6-0" sodipodi:nodetypes="cc"/><path style="display:inline;fill:none;stroke-dasharray:none;stroke-linecap:round;stroke-linejoin:miter;stroke-miterlimit:4;stroke-opacity:1;stroke-width:3;stroke:#c8c8c8" d="m 330.45803,407.43588 c 0.93383,2.6935 2.76495,10.87614 2.78008,12.59148" id="path4830-5-3-4" sodipodi:nodetypes="cc"/><path style="display:inline;fill:none;stroke-dasharray:none;stroke-linecap:round;stroke-linejoin:miter;stroke-miterlimit:4;stroke-opacity:1;stroke-width:3;stroke:#c8c8c8" d="m 320.79016,411.23766 c 0.93383,2.6935 2.76493,10.87614 2.78006,12.59148" id="path4832-7-2-1" sodipodi:nodetypes="cc"/><path style="display:inline;fill:none;stroke-dasharray:none;stroke-linecap:round;stroke-linejoin:miter;stroke-miterlimit:4;stroke-opacity:1;stroke-width:3;stroke:#c8c8c8" d="m 344.65597,402.2889 c 1.70188,2.28705 5.91301,9.5379 6.4442,11.169" id="path4834-7-9-5" sodipodi:nodetypes="cc"/><path style="display:inline;fill:none;stroke-dasharray:none;stroke-linecap:round;stroke-linejoin:miter;stroke-miterlimit:4;stroke-opacity:1;stroke-width:3;stroke:#c8c8c8" d="m 262.04278,374.33434 c -5.5121,7.48155 -19.16909,4.38252 -19.4071,-2.82223" id="path4836-5-3-1" sodipodi:nodetypes="cc"/><path style="display:inline;fill:none;stroke-dasharray:none;stroke-linecap:round;stroke-linejoin:miter;stroke-miterlimit:4;stroke-opacity:1;stroke-width:3;stroke:#c8c8c8" d="m 268.50594,407.75218 c -0.5898,-6.26843 1.12708,-22.36639 1.71841,-23.77145" id="path4838-5-6-0" sodipodi:nodetypes="cc"/><path style="display:inline;fill:none;stroke-dasharray:none;stroke-linecap:round;stroke-linejoin:miter;stroke-miterlimit:4;stroke-opacity:1;stroke-width:3;stroke:#c8c8c8" d="m 262.94978,396.78351 c -0.5898,-6.26843 1.12708,-14.76499 1.71841,-16.17005" id="path4840-0-5-8" sodipodi:nodetypes="cc"/><path style="display:inline;fill:none;stroke-dasharray:none;stroke-linecap:round;stroke-linejoin:miter;stroke-miterlimit:4;stroke-opacity:1;stroke-width:3;stroke:#c8c8c8" d="m 275.76044,397.29607 c -0.5898,-6.26843 0.0664,-13.52755 0.65775,-14.93261" id="path4842-0-4-9" sodipodi:nodetypes="cc"/><path style="display:inline;fill:none;stroke-dasharray:none;stroke-linecap:round;stroke-linejoin:miter;stroke-miterlimit:4;stroke-opacity:1;stroke-width:3;stroke:#c8c8c8" d="m 270.37523,365.58931 c -0.5898,-6.26843 1.65741,-38.80662 2.24874,-40.21168" id="path4844-2-5-3" sodipodi:nodetypes="cc"/><path style="display:inline;fill:none;stroke-dasharray:none;stroke-linecap:round;stroke-linejoin:miter;stroke-miterlimit:4;stroke-opacity:1;stroke-width:3;stroke:#c8c8c8" d="m 369.13985,308.38629 c -11.95666,5.4575 -75.45657,8.75491 -85.08367,3.14115" id="path4846-4-2-8" sodipodi:nodetypes="cc"/><path style="display:inline;fill:none;stroke-dasharray:none;stroke-linecap:round;stroke-linejoin:miter;stroke-miterlimit:4;stroke-opacity:1;stroke-width:3;stroke:#c8c8c8" d="m 263.69521,311.06719 c -7.45666,4.9575 -27.96396,1.75491 -29.34106,0.64115" id="path4848-9-3-9" sodipodi:nodetypes="cc"/><path style="display:inline;fill:none;stroke-dasharray:none;stroke-linecap:round;stroke-linejoin:miter;stroke-miterlimit:4;stroke-opacity:1;stroke-width:3;stroke:#969696" d="m 264.44391,380.21249 c -6.89282,-6.74541 4.70409,-19.32187 12.11963,-11.75287 7.09509,7.60069 -2.40288,21.26182 -12.11963,11.75287 z" id="path4850-7-2-4" sodipodi:nodetypes="scs"/><path style="display:inline;fill:none;stroke-dasharray:none;stroke-linecap:round;stroke-linejoin:miter;stroke-miterlimit:3.85714293;stroke-opacity:1;stroke-width:3;stroke:#c8c8c8" d="m 271.42048,255.48644 c -7.42366,3.76671 -15.02623,2.26335 -19.34899,0.41778" id="path4852-7-8-7" sodipodi:nodetypes="cc"/><path style="display:inline;fill:none;stroke-dasharray:none;stroke-linecap:round;stroke-linejoin:miter;stroke-miterlimit:3.85714293;stroke-opacity:1;stroke-width:3;stroke:#c8c8c8" d="m 311.70762,256.81266 c -7.17366,2.39171 -15.6235,4.54843 -23.86155,-0.14073" id="path4854-4-1-6" sodipodi:nodetypes="cc"/><path style="display:inline;fill:none;stroke-dasharray:none;stroke-linecap:round;stroke-linejoin:miter;stroke-miterlimit:3.85714293;stroke-opacity:1;stroke-width:3;stroke:#c8c8c8" d="m 298.91148,213.25876 c -14.26547,16.1107 9.3684,22.60445 12.71804,42.94856" id="path4856-6-3-2" sodipodi:nodetypes="cc"/><path style="display:inline;fill:none;stroke-dasharray:none;stroke-linecap:round;stroke-linejoin:miter;stroke-miterlimit:4;stroke-opacity:1;stroke-width:3;stroke:#c8c8c8" d="m 251.86561,255.56135 c -3.40749,1.54328 -13.99537,3.13727 -15.62247,2.52351" id="path4858-4-9-7" sodipodi:nodetypes="cc"/><path style="display:inline;fill:none;stroke-dasharray:none;stroke-linecap:round;stroke-linejoin:miter;stroke-miterlimit:4;stroke-opacity:1;stroke-width:3;stroke:#c8c8c8" d="m 273.92549,301.85502 c -0.30879,-6.18197 1.84396,-25.58576 4.24874,-35.96168" id="path4860-7-4-9" sodipodi:nodetypes="cc"/><path style="display:inline;fill:none;stroke-dasharray:none;stroke-linecap:round;stroke-linejoin:miter;stroke-miterlimit:4;stroke-opacity:1;stroke-width:3.76864791;stroke:#969696" d="m 266.04772,320.09918 c -8.69315,-8.44027 5.93275,-24.17671 15.28516,-14.70591 8.94826,9.51045 -3.03049,26.60409 -15.28516,14.70591 z" id="path4862-6-5-2" sodipodi:nodetypes="scs"/><path style="display:inline;fill:none;stroke-dasharray:none;stroke-linecap:round;stroke-linejoin:miter;stroke-miterlimit:4;stroke-opacity:1;stroke-width:3;stroke:#969696" d="m 273.10803,262.60272 c -6.89282,-6.74542 4.70409,-19.32188 12.11963,-11.75288 7.09509,7.6007 -2.40288,21.26183 -12.11963,11.75288 z" id="path4864-0-6-0" sodipodi:nodetypes="scs"/><path style="display:inline;fill-rule:evenodd;fill:none;stroke-dasharray:none;stroke-linecap:round;stroke-linejoin:miter;stroke-miterlimit:3.85714293;stroke-opacity:1;stroke-width:2.34078074;stroke:#c8c8c8" d="m 282.46121,202.34516 c 3.25263,7.26728 33.17987,7.35623 37.35494,-0.62964" id="path4866-8-0-8" sodipodi:nodetypes="cc"/><path style="display:inline;fill:none;stroke-dasharray:none;stroke-linecap:round;stroke-linejoin:miter;stroke-miterlimit:4;stroke-opacity:1;stroke-width:3;stroke:#c8c8c8" d="m 351.92534,398.14611 c 1.70188,2.28705 5.91301,9.5379 6.4442,11.169" id="path4834-7-1-2-2" sodipodi:nodetypes="cc"/><path style="display:inline;fill:none;stroke-dasharray:none;stroke-linecap:round;stroke-linejoin:miter;stroke-miterlimit:4;stroke-opacity:1;stroke-width:3;stroke:#c8c8c8" d="m 360.76417,394.25702 c 1.70188,2.28705 2.90781,10.24501 3.439,11.87611" id="path4834-7-6-9-8" sodipodi:nodetypes="cc"/><path style="display:inline;fill:none;stroke-dasharray:none;stroke-linecap:round;stroke-linejoin:miter;stroke-miterlimit:4;stroke-opacity:1;stroke-width:3;stroke:#c8c8c8" d="m 368.63074,390.54471 c 1.70188,2.28705 2.90781,10.24501 3.439,11.87611" id="path4834-7-6-9-8-6" sodipodi:nodetypes="cc"/></svg>
