<svg viewBox="0 0 560 1000"><path sodipodi:nodetypes="ccccccccccccc" id="path2511" d="m 371.32736,269.11727 c 0.23724,0.8312 0.8609,7.69486 -0.0417,14.27511 -33.60787,-4.288 -107.68903,-11.96778 -135.86236,-5.34633 0.1469,-5.03513 0.75767,-11.97481 1.78086,-14.68467 0.24324,-0.11759 7.5964,-2.31292 8.0176,-2.59741 12.96984,-34.21324 14.33596,-34.51518 31.51367,-55.13078 -0.20578,-0.10769 0.98637,-0.32991 2.81284,-0.93373 -14.26623,35.27571 -10.07743,51.97809 -1.78824,61.45129 10.93146,-7.63158 34.10888,-19.71829 53.08715,-60.31847 2.65591,0.76603 5.77773,1.30178 5.77773,1.30178 1.90789,18.32918 -0.0619,41.08452 3.67362,52.92764 3.54725,3.99043 27.41066,5.88529 31.02879,9.05557 z" style="display:inline;fill-opacity:1;fill-rule:evenodd;fill:#000000;opacity:1;stroke-dasharray:none;stroke-linecap:butt;stroke-linejoin:miter;stroke-miterlimit:4;stroke-opacity:1;stroke-width:0;stroke:#000000"/><path sodipodi:nodetypes="cccccccccccc" id="path2513" d="m 370.62182,268.85749 c 0.0772,0.34995 0.89241,7.56019 0.34971,13.98148 -48.30237,-7.27876 -113.61934,-10.19159 -134.62308,-5.80551 -0.36445,-3.75214 0.992,-13.44615 0.992,-13.44615 0,0 7.38165,-2.19684 8.13211,-2.60168 11.82416,-30.55624 14.58742,-35.11847 31.24259,-55.40231 0.84544,-0.17546 1.70483,-0.38601 2.56536,-0.63893 -16.81405,40.48467 -8.02175,52.76388 -1.59072,61.62392 17.19358,-10.88851 38.35632,-25.50945 53.62911,-60.61021 1.9144,0.66913 3.96656,0.65204 5.47599,1.11851 -0.47031,15.65219 0.792,46.91864 3.02614,53.74685 3.55484,2.53922 23.86865,5.88116 30.80079,8.03403 z" style="display:inline;fill-opacity:1;fill-rule:evenodd;fill:#ffaaee;opacity:1;stroke-dasharray:none;stroke-linecap:butt;stroke-linejoin:miter;stroke-miterlimit:4;stroke-opacity:1;stroke-width:0;stroke:#000000"/></svg>
