<svg viewBox="0 0 560 1000"><path style="display:inline;fill-opacity:1;fill-rule:evenodd;fill:#000000;opacity:1;stroke-dasharray:none;stroke-linecap:butt;stroke-linejoin:miter;stroke-miterlimit:4;stroke-opacity:0;stroke-width:2.46809793;stroke:#000000" d="m 346.15334,145.28857 c -0.34101,-1.06451 -15.269,34.57303 -17.20968,36.02065 -2.73019,2.03655 -6.71576,5.79808 -9.48632,3.15978 -2.23974,-2.13282 8.25054,-57.93887 8.06171,-58.46876 -0.83509,-2.34327 -31.11384,-39.89225 -44.00588,-36.882555 -8.56588,1.999729 -20.94668,19.867095 -19.17175,31.815885 0,0 1.51651,8.55891 1.47444,9.30443 -0.13886,2.4613 -1.51336,19.51755 -1.7406,18.20487 -0.16301,-0.94162 -8.19302,-19.61687 -8.36026,-20.33583 -0.21284,-0.93702 1.18131,-50.142091 41.13104,-53.627401 44.69168,-5.613155 51.614,56.439181 49.3073,70.808931 z" id="path2376-6-3-0-6-0" sodipodi:nodetypes="csssssssccc"/><path style="display:inline;fill-opacity:1;fill-rule:evenodd;fill:#333333;opacity:1;stroke-dasharray:none;stroke-linecap:butt;stroke-linejoin:miter;stroke-miterlimit:4;stroke-opacity:0;stroke-width:2.46133304;stroke:#000000" d="m 344.93995,145.51461 c -0.33912,-1.06457 -15.18449,34.57515 -17.11442,36.02286 -2.71508,2.03667 -6.6786,5.79843 -9.43382,3.15997 -2.22734,-2.13296 8.20488,-57.9424 8.01709,-58.47233 -0.83046,-2.34342 -30.94162,-39.894674 -43.76231,-36.884803 -8.51847,1.999853 -20.83074,19.868303 -19.06564,31.817823 0,0 1.50812,8.55944 1.46629,9.305 -0.1381,2.46145 -1.38068,17.26861 -1.60666,15.95585 -0.16211,-0.94168 -6.53167,-17.36794 -6.69798,-18.08694 -0.21167,-0.93708 0.1803,-47.895008 39.16307,-53.630668 44.44431,-5.613497 51.32832,56.442618 49.03438,70.813238 z" id="path2376-6-3-0-6" sodipodi:nodetypes="csssssssccc"/><path style="display:inline;fill-opacity:1;fill-rule:evenodd;fill:#333333;stroke-dasharray:none;stroke-linecap:butt;stroke-linejoin:miter;stroke-miterlimit:4;stroke-opacity:0;stroke-width:3;stroke:#000000" d="m 264.71052,135.9707 c -0.9748,2.37762 54.2672,9.37809 60.70907,-9.39567 0.36797,-1.07239 -33.48248,-12.894 -61.28864,-3.586 -0.50379,0.16864 -3.05176,-15.55458 0.62317,-25.284728 3.34237,-8.849586 9.71263,-13.476798 11.43851,-14.663555 2.29582,-1.578667 24.5619,-14.636429 43.91259,-3.132662 15.81173,9.399898 14.81653,33.965345 14.89595,34.482775 0.14445,0.94108 -3.68192,25.2679 -3.9569,26.36036 -5.67311,22.53843 -16.20159,44.36344 -44.30424,43.64635 -5.65582,0.35593 -15.32472,-10.67738 -20.34254,-24.61069 -3.32294,-9.22705 -4.95971,-14.51099 -1.68697,-23.81618 z" id="path2376" sodipodi:nodetypes="cssssssscsc"/><path style="display:inline;fill-opacity:1;fill-rule:evenodd;fill:#000000;stroke-dasharray:none;stroke-linecap:butt;stroke-linejoin:miter;stroke-miterlimit:4;stroke-opacity:0;stroke-width:2.46133304;stroke:#000000" d="m 331.49874,182.80449 c -0.52767,0.848 -31.68195,16.73909 -41.5416,17.05131 -10.30877,0.32644 -28.02277,-8.64106 -30.00546,-16.78502 10.25011,-12.51565 4.50502,-22.09793 3.29842,-34.64776 -0.91626,-9.53012 1.10204,-11.83659 1.43277,-11.75662 5.47794,1.32454 11.40282,1.63262 28.62813,2.09244 12.50709,0.33388 26.91082,-5.44173 39.62291,-10.2688 -0.65144,17.68961 -11.17878,41.24214 -1.43517,54.31445 z" id="path2376-6" sodipodi:nodetypes="cscssscc"/><path style="display:inline;fill-opacity:1;fill-rule:evenodd;fill:#333333;opacity:1;stroke-dasharray:none;stroke-linecap:butt;stroke-linejoin:miter;stroke-miterlimit:4;stroke-opacity:0;stroke-width:2.46133304;stroke:#000000" d="m 330.5533,182.02517 c -0.52767,0.848 -30.43195,16.61409 -40.2916,16.92631 -10.30877,0.32644 -27.52277,-8.14106 -29.50546,-16.28502 10.25011,-12.51565 4.50502,-22.09793 3.29842,-34.64776 -0.91626,-9.53012 0.46187,-11.58724 0.7926,-11.50727 5.47794,1.32454 12.48493,1.47166 29.71024,1.93148 12.50709,0.33388 25.70862,-5.70062 38.42071,-10.52769 -1.71395,17.50211 -12.16852,41.03764 -2.42491,54.10995 z" id="path2376-6-3" sodipodi:nodetypes="cscssscc"/><path style="display:inline;fill-opacity:1;fill-rule:evenodd;fill:#000000;opacity:1;stroke-dasharray:none;stroke-linecap:butt;stroke-linejoin:miter;stroke-miterlimit:4;stroke-opacity:0;stroke-width:2.46133304;stroke:#000000" d="m 333.46909,124.78369 c -13.07882,-15.0619 -29.16995,-23.11314 -45.21577,-22.92536 -26.2327,0.307 -24.64149,19.40255 -25.37418,17.50859 0.0535,-9.1572 -3.53508,-37.081038 33.19771,-43.066698 41.19431,-3.363497 39.68618,34.112848 37.39224,48.483468 z" id="path2376-6-3-0-3" sodipodi:nodetypes="csccc"/><path style="display:inline;fill-opacity:1;fill-rule:evenodd;fill:#333333;opacity:1;stroke-dasharray:none;stroke-linecap:butt;stroke-linejoin:miter;stroke-miterlimit:4;stroke-opacity:0;stroke-width:2.46133304;stroke:#000000" d="M 333.69662,124.79882 C 323.09267,109.38336 303.11245,98.768863 287.06663,98.956643 260.83393,99.263639 263.4858,120.12696 262.75311,118.233 c 0.0535,-9.1572 -3.53508,-37.081038 33.19771,-43.066698 41.19431,-3.363497 40.03974,35.261898 37.7458,49.632518 z" id="path2376-6-3-0" sodipodi:nodetypes="csccc"/></svg>
