<svg viewBox="0 0 560 1000"><path style="display:inline;fill-opacity:1;fill:#464646;stroke-width:0.54959524" d="m 310.98489,427.23479 c 0.453,-0.74885 1.46873,-1.92846 2.25717,-2.62137 1.57012,-1.37983 5.54912,-8.16158 6.74202,-11.49099 0.62129,-1.73406 0.59739,-2.9757 -0.13708,-7.11416 -1.19834,-6.75247 -1.21101,-7.04609 -0.30379,-7.04609 0.95781,0 2.61999,3.88345 3.63975,8.50361 0.74427,3.37201 0.73215,3.44555 -1.12723,6.84234 -1.03376,1.88854 -2.82954,4.65717 -3.9906,6.15255 -2.35721,4.11075 -7.52675,10.15954 -7.52675,10.15954 0,0 -6.80471,6.67312 0.44651,-3.38543 z" id="path4817-8-0" sodipodi:nodetypes="csscsscccc"/><path style="display:inline;fill-opacity:1;fill:#464646;stroke-width:0.49682742" d="m 248.13959,437.19208 c -2.20644,-3.48515 -6.91916,-12.5398 -8.11158,-15.58494 -0.53842,-1.37504 -1.73856,-3.74097 -2.66696,-5.25762 -2.24866,-3.67351 -2.89019,-6.43413 -2.00159,-8.6131 1.47506,-3.61699 2.84306,-7.47967 3.34206,-9.43669 0.64737,-2.53886 1.48849,-3.41658 1.09506,-1.14273 -0.69125,3.99513 -2.51202,11.33549 -3.11258,12.54828 -0.59831,1.20818 -0.58711,1.56362 0.11585,3.674 0.42806,1.28501 1.22353,2.97254 1.7677,3.75003 0.54422,0.77749 2.95165,5.1015 5.34988,9.60892 2.39823,4.5074 4.76513,8.86917 5.25978,9.69285 2.29841,3.82721 1.34583,4.5258 -1.03764,0.761 z" id="path4809-8-9"/><path style="display:inline;fill-opacity:1;fill:#464646;stroke-width:0.76042944" d="m 263.40368,424.45482 c -1.69242,-6.70782 -0.10105,-20.05559 3.50027,-29.36008 1.80476,-5.67255 1.54545,-10.55241 0.91924,-15.45589 -0.29708,-2.32628 -12.24832,-2.28749 -12.33525,-2.80262 -0.0466,-0.27645 2.36596,-1.1928 5.5352,-1.13478 2.75445,0.0504 6.32507,1.0815 6.28102,0.84 -0.97608,-5.35093 -2.2662,-10.89118 -2.06664,-17.61718 0.0336,-1.13101 0.10923,-2.29555 0.23561,-3.49836 0.12739,-1.21237 0.30628,-2.46361 0.54547,-3.75858 0.17577,-0.95168 0.38411,-1.92698 0.6285,-2.92782 0.6866,-1.72499 1.24834,-4.08041 1.24834,-5.23425 0,-2.92123 2.38679,-11.95425 3.28966,-12.45001 1.98595,-1.09046 2.08747,0.82982 0.28607,5.41078 -1.07987,2.74601 -1.92322,6.04644 -1.87416,7.33424 0.0491,1.28783 -0.48259,4.92187 -1.18142,8.07562 -0.28701,1.29528 -0.54251,2.49055 -0.76277,3.61792 -0.24435,1.25067 -0.44534,2.41776 -0.59789,3.54512 -0.73067,5.39989 -0.35002,9.88816 1.69966,18.2822 -0.0475,1.88236 2.02131,0.25561 4.95281,-0.0809 3.72724,-0.42789 8.78794,-0.19374 10.38603,1.29856 -0.22118,0.71722 -6.36968,-0.36031 -10.3635,0.97753 -2.50751,0.83997 -3.94229,3.2838 -3.22405,5.6893 0.33408,3.92792 0.0774,5.27754 -1.63611,8.6012 -5.28175,10.24501 -5.36506,19.63795 -4.24613,28.06938 0.6089,4.58799 -0.25324,6.41027 -1.21996,2.57865 z" id="path4767-2-2" sodipodi:nodetypes="ccssssssscsccccsscscsccccc"/><path style="display:inline;fill-opacity:1;fill:#464646;stroke-width:0.86920017" d="m 241.77521,386.00001 c 0,-1.88731 1.82321,-8.98714 2.06406,-8.03776 0.0867,0.34192 -0.0782,2.66344 -0.36676,5.15897 -0.50082,4.33281 -1.6973,6.36215 -1.6973,2.87879 z" id="path4753-0-9"/><path style="display:inline;fill-opacity:1;fill:#464646;stroke-width:0.70040137" d="m 311.27008,372.07243 c -1.19106,-1.69151 -3.34125,-7.53435 -3.34125,-9.0794 0,-2.66026 1.49944,-1.40874 2.45089,2.0457 0.52347,1.90053 1.44069,4.50001 2.0383,5.77668 1.09103,2.33076 0.25374,3.2476 -1.14794,1.25702 z" id="path4747-8-1"/><path style="display:inline;fill-opacity:1;fill:#464646;stroke-width:0.70040137" d="m 306.33823,347.90096 c -0.0151,-1.6722 0.54748,-5.39622 1.24861,-8.27563 l 1.27478,-5.23527 -3.37194,-4.68548 c -1.85458,-2.57699 -3.11973,-4.87287 -2.81148,-5.10192 0.64484,-0.47914 6.02736,4.09795 6.04541,5.14084 0.008,0.381 0.7011,1.33416 1.54338,2.11814 l 1.53137,1.42541 5.73102,-2.97831 c 3.15209,-1.63808 5.8907,-2.85801 6.08581,-2.71094 0.19514,0.14707 -1.94038,1.76546 -4.74557,3.59649 -2.80521,1.83101 -5.67077,4.03293 -6.36792,4.89316 -1.05104,1.2969 5.12808,-0.55381 5.79789,0.70971 -8.605,1.93342 -9.83217,7.92751 -10.08069,9.36996 -0.75205,4.36487 -1.84931,5.37645 -1.88067,1.73384 z" id="path4735-6-5" sodipodi:nodetypes="csccccccccccccc"/><path style="display:inline;fill-opacity:1;fill:#464646;stroke-width:0.70040137" d="m 329.71114,325.82252 c 0,-0.31996 0.74681,-0.72891 1.6596,-0.90883 1.05568,-0.20808 1.54507,-0.068 1.34495,0.38514 -0.38635,0.87457 -3.00455,1.33098 -3.00455,0.52369 z" id="path4691-3-5"/><path style="display:inline;fill-opacity:1;fill:#464646;stroke-width:0.70040137" d="m 264.77118,317.79777 c 0.85344,-1.0408 5.11884,-2.46001 5.60643,-1.86538 0.25159,0.30697 -0.69108,0.99005 -2.09507,1.51795 -2.92987,1.10165 -4.23575,1.23086 -3.51136,0.34743 z" id="path4685-3-5"/><path style="display:inline;fill-opacity:1;fill:#464646;stroke-width:0.70040137" d="m 291.7938,316.22446 c -1.9967,-0.77691 -4.44721,-1.42386 -5.44556,-1.43764 -0.99835,-0.0133 -1.8152,-0.29869 -1.8152,-0.63313 0,-1.08519 3.23147,-0.6449 7.10553,0.96812 6.65663,2.77159 6.78485,3.68221 0.1553,1.10265 z" id="path4683-0"/><path style="display:inline;fill-opacity:1;fill:#464646;stroke-width:0.86920017" d="m 317.26151,390.87999 c -0.82092,-1.75357 -2.21512,-8.92328 -1.57839,-8.11685 0.22933,0.2904 1.08587,2.49926 1.90324,4.90864 1.4193,4.18318 1.19032,6.44475 -0.32485,3.20821 z" id="path4753-0-3-4"/><path style="display:inline;fill-opacity:1;fill:#464646;opacity:1;stroke-width:1.45392561" d="m 326.60077,335.71769 c 4.39739,0.25999 14.29699,-5.15022 15.07828,-5.91899 -0.63103,4.01133 -14.72013,8.22908 -15.07828,5.91899 z" id="path4691-3-5-7-8-7" sodipodi:nodetypes="ccc"/><path sodipodi:nodetypes="scscscscs" id="path6562-0-1" d="m 250.31194,337.07765 c -0.0314,-0.87214 -2.08925,-1.73929 -3.32658,-5.16165 1.80053,1.52148 3.36262,2.20211 3.43373,1.65316 0.14818,-1.1439 0.42443,-2.63541 1.10902,-3.79162 1.26815,-2.14183 7.16742,-7.71893 8.1648,-7.71893 1.00931,0 0.0737,1.54051 -2.3591,3.88348 -3.98017,3.83353 -5.25588,6.41021 -6.06088,11.19549 l -0.78963,4.69396 z" style="display:inline;fill-opacity:1;fill:#464646;opacity:1;stroke-width:0.65970981"/></svg>
