<svg viewBox="0 0 560 1000"><path sodipodi:nodetypes="ccccc" id="path4415" d="m 370.45236,269.96102 c -0.72431,13.77887 -3.2131,24.26211 -9.15217,38.64163 -66.74361,-8.03197 -118.17547,-6.70772 -123.69546,-4.27459 -2.92035,-11.95942 -4.01566,-32.10443 0.94105,-52.56737 50.54474,0.32853 91.32247,2.85689 131.90658,18.20033 z" style="display:inline;fill-opacity:1;fill-rule:evenodd;fill:#000000;opacity:1;stroke-dasharray:none;stroke-linecap:butt;stroke-linejoin:miter;stroke-miterlimit:4;stroke-opacity:1;stroke-width:0;stroke:#000000"/><path sodipodi:nodetypes="ccccc" id="path4417" d="m 361.02241,307.58809 c -55.12275,-8.36934 -113.3879,-6.88858 -122.49841,-4.50988 -3.69137,-14.28461 -1.67245,-36.4913 0.71132,-50.46562 12.4531,0.21782 84.70619,0.6679 130.48398,17.99082 -1.49894,15.86805 -3.83773,23.0746 -8.69689,36.98468 z" style="display:inline;fill-opacity:1;fill-rule:evenodd;fill:#221c24;opacity:1;stroke-dasharray:none;stroke-linecap:butt;stroke-linejoin:miter;stroke-miterlimit:4;stroke-opacity:1;stroke-width:0;stroke:#000000"/><path sodipodi:nodetypes="cssssccc" id="path1833-3" d="m 282.94456,458.76549 c -0.0483,0.15247 -0.11284,0.47208 -0.19954,0.90622 -0.41277,2.06685 -1.81439,6.53069 -3.87757,8.11265 -0.26921,0.20642 -1.13559,1.14752 -4.57861,0.28177 -0.17398,-0.0437 -2.18026,1.1699 -4.2783,0.12449 -4.65827,-2.32112 -6.22252,-8.10904 -6.31915,-8.53686 3.82592,9.08132 8.89939,9.3147 10.40315,7.55401 5.26837,2.79873 7.50839,-4.81217 8.85002,-8.44228 z" style="display:inline;fill-opacity:1;fill-rule:evenodd;fill:#000000;opacity:1;stroke-dasharray:none;stroke-linecap:butt;stroke-linejoin:miter;stroke-miterlimit:4;stroke-opacity:1;stroke-width:0;stroke:#000000"/><path sodipodi:nodetypes="ccssssccccccc" id="path1760-5-4-2-51" d="m 361.63641,418.84411 c -26.82642,-1.40287 -67.54027,21.94468 -78.51049,39.5024 -1.04023,1.75909 -1.92047,7.35117 -4.50173,9.70959 -0.97785,0.89343 -3.70051,-0.0277 -4.03805,0.0431 -0.91345,0.19159 -2.80735,0.34793 -3.55356,0.29099 -1.3589,-0.10369 -3.01052,-1.81454 -4.53551,-3.48982 -1.15035,-1.26373 -2.1753,-2.98733 -2.81436,-5.19001 -8.77373,-7.86601 -26.29026,-23.86431 -37.72273,-47.06552 0.0176,-0.005 -0.20468,-0.75846 -0.17901,-2.20368 16.3118,24.34925 24.23707,27.1224 43.30386,28.66939 25.02987,0.6346 42.5883,-20.51507 92.56367,-22.37183 0,0 0.006,2.09665 -0.0121,2.10539 z" style="display:inline;fill-opacity:1;fill-rule:evenodd;fill:#221c24;opacity:1;stroke-dasharray:none;stroke-linecap:butt;stroke-linejoin:miter;stroke-miterlimit:4;stroke-opacity:1;stroke-width:0;stroke:#000000"/><path sodipodi:nodetypes="cssssccc" id="path1781-9-7-8-8" d="m 282.94456,458.76549 c -0.0483,0.15247 -0.11284,0.47208 -0.19954,0.90622 -0.41277,2.06685 -1.81439,6.53069 -3.87757,8.11265 -0.26921,0.20642 -1.13559,1.14752 -4.57861,0.28177 -0.17398,-0.0437 -2.18026,1.1699 -4.2783,0.12449 -4.65827,-2.32112 -6.22252,-8.10904 -6.31915,-8.53686 3.82592,9.08132 8.89939,9.3147 10.40315,7.55401 5.26837,2.79873 7.50839,-4.81217 8.85002,-8.44228 z" style="display:inline;fill-opacity:1;fill-rule:evenodd;fill:#000000;opacity:1;stroke-dasharray:none;stroke-linecap:butt;stroke-linejoin:miter;stroke-miterlimit:4;stroke-opacity:1;stroke-width:0;stroke:#000000"/></svg>
