<svg viewBox="0 0 560 1000"><path d="m 290.14844,122.32751 c -0.2823,0.3203 -1.35966,2.35217 -0.70508,2.88876 2.071,-0.69713 13.11634,-3.7937 16.57226,-4.059 0.75808,-0.0887 8.06607,3.39824 7.48626,2.96359 -0.28278,-0.21197 -3.75707,-3.17816 -7.34451,-4.03555 -4.56178,0.93421 -12.97098,1.34506 -16.00893,2.2422 z" id="path2686" sodipodi:nodetypes="cccscc" class="eyebrow_hair"/><path d="m 277.24499,122.38594 c 0.18157,0.32029 0.8745,2.35216 0.45349,2.88875 -1.332,-0.69714 -8.43604,-3.79369 -10.6588,-4.05899 -0.0391,-0.007 -0.10867,0.009 -0.20291,0.044 -1.07857,0.40233 -4.25982,2.75239 -4.61204,2.91962 -0.22939,0.10889 2.25287,-2.94912 4.4604,-3.92813 0.0875,-0.0388 0.17537,-0.0747 0.26338,-0.10743 2.934,0.93422 8.34256,1.34505 10.29648,2.2422 z" id="path2688" sodipodi:nodetypes="cccsssccc" class="eyebrow_hair"/></svg>
