<svg viewBox="0 0 560 1000"><path inkscape:label="#PussyshadowN" sodipodi:nodetypes="ccscc" id="path4558-0" class="shadow" d="m 283.66521,456.38067 c -1.54841,0.73859 -1.78928,15.78672 -9.24659,11.14886 -5.5459,3.1603 -10.12915,-4.94173 -10.42429,-8.4126 -0.25114,-2.95343 3.37748,-7.20053 3.87403,-6.51846 2.14579,-0.003 16.30971,2.85987 15.79685,3.7822 z"/><path inkscape:label="#PussyN" sodipodi:nodetypes="ccsc" id="path4560-7" class="skin torso" d="m 274.36595,467.58332 c -3.81452,2.31718 -9.64064,-2.27902 -10.8644,-11.68664 5.95334,-21.67633 25.49385,-8.31185 20.23612,0.35499 -2.87984,4.74713 -3.52005,14.37508 -9.37172,11.33165 z"/><path style="display:inline;fill-opacity:1;fill:#000000;stroke-dasharray:none;stroke-linecap:butt;stroke-linejoin:miter;stroke-miterlimit:4;stroke-opacity:1;stroke-width:0;stroke:#000000" d="m 349.70238,409.51538 c -0.0813,-0.25494 -0.70857,-2.49571 -0.70857,-2.49571 -22.65767,4.89275 -39.56413,7.60141 -60.05248,8.19626 -24.22046,0.7032 -47.22387,-2.18776 -60.45696,-7.53731 -0.0404,-0.0164 -0.80202,1.68077 -2.10224,5.81027 30.89873,13.95984 100.6663,9.88312 123.32025,-3.97351 z" id="path4562-2" sodipodi:nodetypes="ccsscc"/><path sodipodi:nodetypes="ccccscscc" id="path4564-0" d="m 268.15022,466.84042 c 1.97544,1.15064 3.44304,1.50895 6.29117,0.74829 1.48394,1.11892 3.67809,1.01117 5.52348,-0.15189 18.69419,-31.69091 44.8542,-43.45488 76.35811,-48.40572 -3.14828,-4.6033 -5.95606,-8.61745 -6.25571,-9.55721 -0.0813,-0.25494 -1.22374,-2.21355 -1.22374,-2.21355 -45.10201,11.9464 -93.79959,12.46804 -120.26832,0.58222 -0.0636,-0.0285 -2.86516,3.55419 -5.78851,12.81957 13.67372,9.43951 30.44627,25.13128 45.36352,46.17829 z" style="display:inline;fill-opacity:1;fill:#1a1a1a;opacity:1;stroke-dasharray:none;stroke-linecap:butt;stroke-linejoin:miter;stroke-miterlimit:4;stroke-opacity:1;stroke-width:0;stroke:#000000"/><path style="display:inline;fill-opacity:1;fill-rule:evenodd;fill:#000000;opacity:1;stroke-dasharray:none;stroke-linecap:butt;stroke-linejoin:miter;stroke-miterlimit:4;stroke-opacity:1;stroke-width:0;stroke:#000000" d="m 368.45236,268.83602 c -3.78105,51.36502 14.51516,123.15223 17.281,189.4788 -32.89181,6.65266 -156.08001,-14.88078 -170.44809,-31.88372 9.47567,-30.08684 23.78843,-106.12537 21.3767,-133.83109 -7.61264,-56.03183 59.72762,-64.38255 127.52224,-25.00872 z" id="path4747" sodipodi:nodetypes="cccccc"/><path sodipodi:nodetypes="ccccc" id="path4566-0" d="m 226.43714,411.39001 c 35.65478,14.81043 108.78953,7.12999 124.04699,-1.19349 -0.98086,-2.37283 -1.00632,-2.28871 -1.45689,-3.1686 -58.31295,15.78964 -105.07502,8.24648 -121.04522,0.40529 -0.32556,0.70561 -0.67555,1.24868 -1.54488,3.9568 z" style="display:inline;fill-opacity:1;fill:#000000;stroke-dasharray:none;stroke-linecap:butt;stroke-linejoin:miter;stroke-miterlimit:4;stroke-opacity:1;stroke-width:0;stroke:#000000"/><path style="display:inline;fill-opacity:1;fill-rule:evenodd;fill:#ffffff;opacity:1;stroke-dasharray:none;stroke-linecap:butt;stroke-linejoin:miter;stroke-miterlimit:4;stroke-opacity:1;stroke-width:0;stroke:#000000" d="m 368.47602,268.56519 c -6.37431,49.66799 15.54581,141.02982 15.61806,188.58787 -31.15729,6.94181 -157.0571,-15.87982 -167.65947,-31.44057 9.46931,-28.80012 24.35529,-106.18694 22.17603,-131.08521 -3.65952,-28.78802 3.64782,-52.36416 12.94107,-67.02519 23.68181,-11.79761 49.15589,-1.19687 66.23209,-28.41929 1.48672,1.12706 18.23182,7.00546 18.7637,8.34782 40.52013,0.35863 36.88575,49.2706 31.92852,61.03457 z" id="path4749" sodipodi:nodetypes="cccccccc"/><path sodipodi:nodetypes="cscsscc" id="path4578-4" class="shadow" d="m 262.98857,459.03749 c 4.57815,9.39542 7.95428,8.94718 11.45233,8.01034 0.29456,-0.0789 5.02218,4.77996 9.26343,-8.71666 -1.38475,8.70911 -4.94655,11.61521 -9.3291,9.47151 -0.0226,-0.0111 -2.82256,1.04466 -4.71233,0.003 -2.95847,-1.63089 -6.486,-5.556 -6.67433,-8.7681 z"/></svg>
