<svg viewBox="0 0 560 1000"><path style="display:inline;fill-opacity:1;fill-rule:evenodd;fill:#000000;opacity:1;stroke-dasharray:none;stroke-linecap:butt;stroke-linejoin:miter;stroke-miterlimit:4;stroke-opacity:1;stroke-width:0;stroke:#000000" d="m 370.40947,252.58602 c 0.23724,0.8312 4.22106,29.07672 0.77209,49.07884 -33.60788,-4.288 -110.48877,-12.88893 -138.66209,-6.26748 -1.4156,-20.50388 6.27544,-46.75787 7.29863,-49.46773 17.34142,-11.82315 26.69725,-27.37566 36.91736,-40.29646 -0.20578,-0.10769 0.98637,-0.32991 2.81284,-0.93373 -3.68896,22.23095 44.18084,11.81257 51.29891,1.13282 2.65591,0.76603 5.77774,1.30178 5.77774,1.30178 -2.50818,38.73816 14.52142,35.96141 33.78452,45.45196 z" id="path3178" sodipodi:nodetypes="ccccccccc"/><path style="display:inline;fill-opacity:1;fill-rule:evenodd;fill:#333333;opacity:1;stroke-dasharray:none;stroke-linecap:butt;stroke-linejoin:miter;stroke-miterlimit:4;stroke-opacity:1;stroke-width:0;stroke:#000000" d="m 370.43313,252.31519 c -0.23212,1.79731 2.89394,28.05038 0.43426,48.79626 -48.30238,-7.27876 -116.35658,-11.36274 -137.36031,-6.97666 -1.0832,-17.06464 6.44727,-47.97921 6.44727,-47.97921 17.76843,-9.12056 26.17066,-26.39457 36.76079,-40.57226 0.84544,-0.17546 1.70483,-0.38601 2.56536,-0.63893 -4.82898,22.98057 45.03234,14.37734 52.03839,1.01371 1.9144,0.66913 3.96656,0.65204 5.476,1.11851 -2.5296,33.39255 5.80802,36.93935 33.63824,45.23858 z" id="path3180" sodipodi:nodetypes="ccccccccc"/></svg>
