<svg viewBox="0 0 560 1000"><path sodipodi:nodetypes="cscscsccscc" id="path5916" d="m 262.71477,96.656443 c 0.14629,-0.0058 3.03618,-3.974749 1.44308,-5.906876 -0.18548,-0.224951 -0.45851,-2.246039 -1.78111,-1.955182 -4.40064,-1.844839 -8.31344,-6.064115 -7.23688,-13.522018 2.61002,-18.080954 25.47508,-34.2427 35.03838,-33.006111 14.49071,0.03099 35.43171,20.246397 49.80375,31.107602 7.03819,5.318885 11.82395,8.777161 12.16512,12.866989 0.5329,8.917079 -8.48841,7.537854 -12.00883,8.795745 -0.90693,0.173071 -0.57867,1.511409 -0.62199,1.860196 -0.14352,1.155563 0.83979,9.131932 0.96972,9.190892 -14.20908,21.57445 -123.93705,10.95537 -77.77124,-9.431237 z" style="display:inline;fill-opacity:1;fill-rule:evenodd;fill:#000000;opacity:1;stroke-dasharray:none;stroke-linecap:butt;stroke-linejoin:miter;stroke-miterlimit:4;stroke-opacity:0;stroke-width:2.75447464;stroke:#000000"/><path sodipodi:nodetypes="ccccsscccccc" id="path5918" class="hair" d="m 262.58376,114.0127 c 0.21917,0.48832 2.31612,-1.93226 2.3643,-2.07079 4.38729,-4.75506 7.35197,-5.82228 14.85013,-7.3946 0.3433,-0.0174 6.24163,2.75103 6.59145,2.74513 0.23633,10.87737 10.65884,25.40386 24.35438,36.03372 0.20017,0.15536 0.27566,-0.16525 -0.0946,-0.63887 -12.5916,-16.10666 -14.21229,-25.03317 -12.64832,-23.99524 13.20185,14.1305 15.33012,26.00498 32.60237,36.07754 0.14864,-0.0141 -9.04274,-21.81414 -5.51856,-21.65624 2.11658,2.52119 5.15116,-0.95931 6.99189,1.46055 32.13954,-56.274313 -78.35232,-60.270711 -69.49304,-20.56119 z"/><path sodipodi:nodetypes="cscscsccscc" id="path5920" d="m 262.71477,97.556399 c 0.14629,-0.0058 3.03618,-3.974749 1.44308,-5.906876 -0.18548,-0.224951 -0.45851,-2.246039 -1.78111,-1.955182 -4.40064,-1.844839 -8.31344,-6.064115 -7.23688,-13.522018 2.61002,-18.080954 25.47508,-34.2427 35.03838,-33.006111 14.49071,0.03099 35.43171,20.246397 49.80375,31.107602 7.03819,5.318885 11.82395,8.777161 12.16512,12.866989 0.5329,8.917079 -8.48841,7.537854 -12.00883,8.795745 -0.90693,0.173071 -0.57867,1.511409 -0.62199,1.860196 -0.14352,1.155563 0.83979,9.131966 0.96972,9.190926 -11.40695,20.42812 -121.56108,9.98338 -77.77124,-9.431271 z" style="display:inline;fill-opacity:1;fill-rule:evenodd;fill:#0b1728;opacity:1;stroke-dasharray:none;stroke-linecap:butt;stroke-linejoin:miter;stroke-miterlimit:4;stroke-opacity:0;stroke-width:2.75447464;stroke:#000000"/><path sodipodi:nodetypes="ccc" id="path5924" d="m 262.49037,89.372303 c 0,0 5.68801,-8.116071 18.68276,-7.150688 -11.84243,2.331682 -16.22043,6.766644 -18.68276,7.150688 z" style="display:inline;fill-opacity:1;fill-rule:evenodd;fill:#000000;opacity:1;stroke-dasharray:none;stroke-linecap:butt;stroke-linejoin:miter;stroke-miterlimit:4;stroke-opacity:0;stroke-width:2.46133304;stroke:#000000"/><path sodipodi:nodetypes="cscsc" id="path5926" d="m 264.5419,92.318514 c 0,0 31.77899,4.671899 74.68244,5.473788 0.34681,0.0066 2.20654,2.259388 0.6269,5.443168 -23.75229,1.08126 -64.65117,-0.46167 -77.07141,-5.694389 -0.16616,-0.06999 -0.95883,-3.658692 1.76207,-5.222567 z" style="display:inline;fill-opacity:1;fill-rule:evenodd;fill:#000000;opacity:1;stroke-dasharray:none;stroke-linecap:butt;stroke-linejoin:miter;stroke-miterlimit:4;stroke-opacity:0;stroke-width:2.75447464;stroke:#000000"/><path sodipodi:nodetypes="ccc" id="path5928" d="m 339.57248,96.118428 c 0,0 -32.18827,-14.236314 -45.18302,-13.270931 11.84243,2.331682 42.72069,12.886887 45.18302,13.270931 z" style="display:inline;fill-opacity:1;fill-rule:evenodd;fill:#000000;opacity:1;stroke-dasharray:none;stroke-linecap:butt;stroke-linejoin:miter;stroke-miterlimit:4;stroke-opacity:0;stroke-width:2.46133304;stroke:#000000"/><path style="display:inline;fill-opacity:1;fill-rule:nonzero;fill:#666666;opacity:1;stroke-dasharray:none;stroke-linecap:butt;stroke-linejoin:round;stroke-miterlimit:4;stroke-opacity:1;stroke-width:0;stroke:#000000" d="m 287.10688,78.427462 c -14.83783,-3.701385 -9.79031,-7.346065 -7.9601,-14.960736 0.39565,-5.273835 -0.43031,-7.949425 -1.95885,-10.279489 1.35305,-1.339797 2.51381,-2.655077 3.57526,-3.906554 1.51617,-1.787586 3.53281,2.647074 7.45366,-0.305626 3.77632,3.266985 6.02564,-1.207803 7.2299,0.473177 0.95729,1.336246 2.05056,2.824041 3.43568,4.372538 -1.93424,1.587319 -2.9663,6.332971 -1.86417,11.106216 1.52577,6.608059 3.71623,10.421597 -9.91138,13.500474 z" id="path6212-7" sodipodi:nodetypes="cccccccsc"/><path style="display:inline;fill-opacity:1;fill-rule:nonzero;fill:#c8c8c8;opacity:1;stroke-dasharray:none;stroke-linecap:butt;stroke-linejoin:round;stroke-miterlimit:4;stroke-opacity:1;stroke-width:0;stroke:#000000" d="m 287.3677,76.099263 c -12.44834,-3.170161 -8.21369,-6.291763 -6.67821,-12.813581 0.33193,-4.516936 -0.361,-6.808525 -1.6434,-8.804174 1.13515,-1.147519 2.10899,-2.274029 2.99951,-3.345891 1.27199,-1.531033 2.96387,2.267166 6.25332,-0.261762 3.16816,2.798111 5.05526,-1.034459 6.06558,0.405265 0.80311,1.144469 1.72034,2.418732 2.88239,3.744996 -1.62276,1.35951 -2.23925,5.420114 -1.31373,9.512259 1.27725,5.647244 2.86754,8.925893 -8.56546,11.562888 z" id="path6212-7-8" sodipodi:nodetypes="cccccccsc"/></svg>
