<svg viewBox="0 0 560 1000"><path sodipodi:nodetypes="scscs" id="path4071-3" d="m 316.59488,194.29685 c 0.29213,-0.0359 0.8391,8.39122 12.85382,11.64122 -25.34363,22.57098 -62.62807,5.80197 -50.89942,-1.20255 4.6613,-2.7838 8.10561,-6.3268 9.57115,-10.75388 1.42462,1.28163 21.43186,1.18043 28.47445,0.31521 z" style="display:inline;fill-opacity:1;fill:#c8c8c8"/><path sodipodi:nodetypes="ccscc" id="path4075-4" d="m 367.59098,283.53406 c 0.44962,0.65974 0.12328,2.82207 -0.01,2.91934 -78.61746,12.3138 -129.78832,1.04714 -129.95418,-1.0757 l -0.28276,-3.61911 c 28.44661,9.35844 81.57671,6.97928 130.24677,1.77547 z" style="display:inline;fill:#d4aa00;stroke-width:0.99311125"/><path sodipodi:nodetypes="csccsc" id="path3864-8-2-6-4-6" d="m 298.41896,487.41378 c -16.37465,4.7124 -45.57634,1.30232 -45.98461,-0.78649 -0.81546,-4.17215 -0.85855,-153.3644 7.80614,-199.01481 17.08152,-3.59867 36.67855,-3.23747 50.21962,0.50778 -2.54061,4.26374 -3.46873,11.36947 -5.28004,17.82896 -15.49034,55.24147 -6.3158,179.57865 -6.76111,181.46456 z" style="display:inline;fill-opacity:1;fill:#000000;stroke-width:0.99311125"/><path sodipodi:nodetypes="csccc" id="path4077-7" d="m 297.36369,485.84774 c -16.37465,4.7124 -45.57634,1.30232 -45.98461,-0.78649 -0.81546,-4.17215 -0.85855,-153.36441 7.80614,-199.01482 17.08152,-3.59867 37.899,-1.64648 51.44007,2.09877 -24.26796,40.7272 -12.76421,195.59611 -13.2616,197.70254 z" style="display:inline;fill-opacity:1;fill:#c8c8c8;stroke-width:0.99311125"/></svg>
