<svg viewBox="0 0 560 1000"><path style="display:inline;fill-opacity:1;fill-rule:evenodd;fill:#917c6f;opacity:1;stroke-dasharray:none;stroke-linecap:butt;stroke-linejoin:miter;stroke-miterlimit:4;stroke-opacity:1;stroke-width:0;stroke:#000000" d="m 350.44891,411.28161 c -41.34356,12.40411 -56.35277,29.50718 -67.32299,47.0649 -1.04023,1.75909 -1.92047,7.35117 -4.50173,9.70959 -0.97785,0.89343 -3.70051,-0.0277 -4.03805,0.0431 -0.91345,0.19159 -2.09488,0.29968 -2.84109,0.24274 -1.3589,-0.10369 -3.10427,-0.97079 -4.62926,-2.64607 -1.15035,-1.26373 -2.1753,-2.98733 -2.81436,-5.19001 -8.27893,-10.93923 -27.60352,-39.54369 -38.34145,-47.86102 0.0176,-0.005 -0.05,-0.20603 0.59439,-1.93851 16.6623,12.87869 26.04641,28.55393 42.32336,28.99216 18.31235,-0.0725 28.69369,-13.91735 80.95827,-30.20977 0,0 0.63138,1.78415 0.61291,1.79289 z" id="path5148" sodipodi:nodetypes="ccsssscccccc"/><path style="display:inline;fill-opacity:1;fill-rule:evenodd;fill:#000000;opacity:1;stroke-dasharray:none;stroke-linecap:butt;stroke-linejoin:miter;stroke-miterlimit:4;stroke-opacity:1;stroke-width:0;stroke:#000000" d="m 282.94456,458.76549 c -0.0483,0.15247 -0.11284,0.47208 -0.19954,0.90622 -0.41277,2.06685 -1.81439,6.53069 -3.87757,8.11265 -0.26921,0.20642 -1.13559,1.14752 -4.57861,0.28177 -0.17398,-0.0437 -2.18026,1.1699 -4.2783,0.12449 -4.65827,-2.32112 -6.22252,-8.10904 -6.31915,-8.53686 3.82592,9.08132 8.89939,9.3147 10.40315,7.55401 5.26837,2.79873 7.50839,-4.81217 8.85002,-8.44228 z" id="path5150" sodipodi:nodetypes="cssssccc"/><path style="display:inline;fill-opacity:1;fill-rule:evenodd;fill:#000000;opacity:1;stroke-dasharray:none;stroke-linecap:butt;stroke-linejoin:miter;stroke-miterlimit:4;stroke-opacity:1;stroke-width:0;stroke:#000000" d="m 293.87419,593.8061 c -2.17664,0.39051 -23.36622,7.99058 -36.62914,-0.96416 -8.80924,-88.61849 -9.274,-130.11308 -5.19579,-159.60457 5.11909,3.77266 10.44345,6.28921 16.82847,6.46112 7.65152,-0.0303 13.91841,-2.46503 22.43448,-6.47811 -7.20208,75.75742 -3.54383,87.05732 2.56198,160.58572 z" id="path5148-6-1" sodipodi:nodetypes="cccccc"/><path style="display:inline;fill-opacity:1;fill-rule:evenodd;fill:#917c6f;opacity:1;stroke-dasharray:none;stroke-linecap:butt;stroke-linejoin:miter;stroke-miterlimit:4;stroke-opacity:1;stroke-width:0;stroke:#000000" d="m 292.81353,592.76366 c -2.09846,0.38841 -22.52701,7.94751 -35.31359,-0.95897 -8.49285,-88.14076 -8.81592,-128.97417 -4.88418,-158.30668 4.93524,3.75232 9.94337,5.8178 16.09907,5.98878 7.37671,-0.0301 13.41852,-2.01424 21.62873,-6.00569 -6.94341,75.34904 -3.41654,86.15053 2.46997,159.28256 z" id="path5148-6" sodipodi:nodetypes="cccccc"/></svg>
