<svg viewBox="0 0 560 1000"><path d="m 290.14844,121.99414 c -0.2823,0.42445 -1.35966,3.11705 -0.70508,3.82813 2.071,-0.92383 13.11634,-5.02734 16.57226,-5.37891 0.75808,-0.1176 8.06607,4.50328 7.48626,3.9273 -0.28278,-0.28091 -3.75707,-4.21166 -7.34451,-5.34785 -4.56178,1.23801 -12.97098,1.78245 -16.00893,2.97133 z" id="path2650" sodipodi:nodetypes="cccscc" class="eyebrow_hair"/><path d="m 277.24499,122.07156 c 0.18157,0.42445 0.8745,3.11705 0.45349,3.82813 -1.332,-0.92383 -8.43604,-5.02734 -10.6588,-5.37891 -0.0391,-0.009 -0.10867,0.0117 -0.20291,0.0583 -1.07857,0.53317 -4.25982,3.64742 -4.61204,3.86902 -0.22939,0.14431 2.25287,-3.90811 4.4604,-5.20548 0.0875,-0.0515 0.17537,-0.099 0.26338,-0.14237 2.934,1.23801 8.34256,1.78245 10.29648,2.97133 z" id="path2650-4" sodipodi:nodetypes="cccsssccc" class="eyebrow_hair"/></svg>
