<svg viewBox="0 0 560 1000"><path style="fill:#070505;stroke-width:0.96642131" d="M 271.23692,168.72266 267.88051,162 c 6.3905,2.77321 23.36704,3.06872 55.00978,0 -1.51044,3.733 -3.33075,5.65096 -5.09588,7.81161 -16.36437,-1.63908 -45.79039,-5.74992 -46.55749,-1.08895 z" id="path4803" sodipodi:nodetypes="ccccc"/><path style="display:inline;fill:#000000;stroke-width:0.98997682" d="m 294.49081,162.81944 c 0,0 -0.0659,5.61199 -0.38498,5.97295 -0.4942,-0.014 -19.06203,-0.92077 -19.06203,-0.92077 0,0 0.0838,-5.22963 0.41876,-5.11114 0.3894,0.18516 18.48588,0.0127 19.02825,0.059 z" id="path4805-9" sodipodi:nodetypes="cccccc"/><path style="display:inline;fill:#999999;stroke-width:0.98997682" d="m 294.54919,162.97569 c 0,0 -0.083,5.10219 -0.40208,5.46315 -0.49421,-0.014 -18.85564,-0.92077 -18.85564,-0.92077 0,0 0.10095,-4.71983 0.43585,-4.60134 0.3894,0.18516 18.27949,0.0127 18.82187,0.059 z" id="path4805" sodipodi:nodetypes="ccccc"/></svg>
