<svg viewBox="0 0 560 1000"><path style="display:inline;fill-opacity:1;fill-rule:evenodd;fill:#ffffff;opacity:1;stroke-dasharray:none;stroke-linecap:butt;stroke-linejoin:miter;stroke-miterlimit:4;stroke-opacity:1;stroke-width:0;stroke:#000000" d="m 350.44891,411.28161 c -41.34356,12.40411 -56.35277,29.50718 -67.32299,47.0649 -1.04023,1.75909 -1.92047,7.35117 -4.50173,9.70959 -0.97785,0.89343 -3.70051,-0.0277 -4.03805,0.0431 -0.91345,0.19159 -2.09488,0.29968 -2.84109,0.24274 -1.3589,-0.10369 -3.10427,-0.97079 -4.62926,-2.64607 -1.15035,-1.26373 -2.1753,-2.98733 -2.81436,-5.19001 -8.27893,-10.93923 -27.60352,-39.54369 -38.34145,-47.86102 0.0176,-0.005 -0.05,-0.20603 0.59439,-1.93851 29.91996,7.91079 37.53385,11.40066 123.28163,-1.21761 0,0 0.63138,1.78415 0.61291,1.79289 z" id="path2360-8-8" sodipodi:nodetypes="ccssssccccc"/><path style="display:inline;fill-opacity:1;fill:#808080;stroke-dasharray:none;stroke-linecap:butt;stroke-linejoin:miter;stroke-miterlimit:4;stroke-opacity:1;stroke-width:0;stroke:#83afc8" d="m 225.9378,412.66104 c 0.12717,-0.79329 0.24724,-0.90642 0.25482,-0.95601 23.02972,9.12926 54.6817,12.66174 123.82806,-1.73671 0.0291,0.083 0.24793,0.57628 0.45084,1.30322 -7.49448,2.32559 -13.58511,4.61432 -22.50451,8.15633 -65.22375,12.79983 -85.05836,5.29979 -97.57663,-2.66633 -1.68147,-1.78024 -2.87542,-3.01265 -4.45258,-4.1005 z" id="path1180-5-1-9-0" sodipodi:nodetypes="ccccccc"/><path style="display:inline;fill-opacity:1;fill-rule:evenodd;fill:#000000;opacity:1;stroke-dasharray:none;stroke-linecap:butt;stroke-linejoin:miter;stroke-miterlimit:4;stroke-opacity:1;stroke-width:0;stroke:#000000" d="m 368.45236,268.83602 c 0.40069,1.40387 0.82871,12.89967 -6.36035,37.77919 -5.42713,18.7819 -20.56882,29.98312 -21.1652,31.4412 -2.88475,4.63162 -4.57729,5.99939 -6.42705,9.48318 -13.13334,24.73507 -7.63498,24.70657 15.2336,59.90023 -25.8532,9.51497 -51.53554,23.9456 -73.11008,24.34018 -0.71231,0.013 -1.29527,-10.35294 -1.99876,-10.34783 -0.37609,0.003 -0.87591,10.37934 -1.24943,10.37984 -22.09068,0.0294 -39.51256,-14.20643 -48.32139,-19.91192 0,0 0.44625,-0.90554 0.66532,-1.35422 18.90868,-38.72636 17.76449,-57.16074 17.92879,-71.74508 0.24452,-21.70551 -6.08737,-33.66342 -6.98584,-46.20078 -3.73179,-44.54825 18.17921,-77.96777 50.18174,-91.89098 9.24713,11.38115 23.27589,1.97278 29.35552,-3.29553 -0.32987,32.01707 -7.67778,52.6152 52.25313,71.42252 z" id="path3833" sodipodi:nodetypes="cscsccsccsscccc"/><path style="display:inline;fill-opacity:1;fill-rule:evenodd;fill:#ececec;opacity:1;stroke-dasharray:none;stroke-linecap:butt;stroke-linejoin:miter;stroke-miterlimit:4;stroke-opacity:1;stroke-width:0;stroke:#000000" d="m 369.22602,268.69019 c -10.52126,71.13498 -30.62472,55.5723 -42.96537,93.12884 -3.19645,9.72782 2.28681,21.51526 21.08343,44.45903 -2.08346,1.75242 -40.84433,20.20801 -70.20137,24.42903 -0.39717,0.007 -2.03261,-11.21338 -2.43143,-11.20985 -0.5876,0.005 -1.57473,11.36475 -2.16592,11.36272 -14.11888,-0.0485 -38.49103,-11.79786 -45.11075,-19.27247 41.81147,-92.93422 -2.51381,-98.87567 14.34659,-157.50912 4.95512,-25.94069 19.05277,-46.18887 44.89266,-53.24243 0.95941,-0.26505 5.83183,-7.60855 5.90605,-7.38285 1.65753,5.04021 20.47171,-0.37757 20.85769,-0.51091 7.83112,13.51631 21.33617,13.52486 23.1099,14.58844 26.97619,0.32338 32.77629,22.27233 33.28341,40.71368 0.22567,8.20653 -0.8493,15.84345 -0.60489,20.44589 z" id="path3835" sodipodi:nodetypes="csccsccccsccsc"/><path sodipodi:nodetypes="csscc" id="path3837" d="m 291.59482,204.8803 c -0.007,-0.15238 5.39726,-10.80323 5.46415,-10.99796 0,0 -4.71541,-2.02563 -4.85767,-1.83113 -0.86438,1.18176 -2.48505,4.21861 -3.88833,5.92157 0.099,0.227 3.28185,6.90752 3.28185,6.90752 z" style="display:inline;fill-opacity:1;fill:#000000;opacity:1;stroke-dasharray:none;stroke-linecap:butt;stroke-linejoin:miter;stroke-miterlimit:4;stroke-opacity:1;stroke-width:0;stroke:#000000"/><path sodipodi:nodetypes="csscc" id="path3839" d="m 291.55833,202.78945 c -0.007,-0.14941 5.05548,-8.90542 5.12046,-9.09636 0,0 -4.58062,-1.9862 -4.71882,-1.79549 -0.83967,1.15876 -2.41401,4.13649 -3.77718,5.8063 0.0962,0.22258 3.37554,5.08555 3.37554,5.08555 z" style="display:inline;fill-opacity:1;fill:#ececec;opacity:1;stroke-dasharray:none;stroke-linecap:butt;stroke-linejoin:miter;stroke-miterlimit:4;stroke-opacity:1;stroke-width:0;stroke:#000000"/><path sodipodi:nodetypes="csscc" id="path3841" d="m 302.35818,205.29925 c 0.007,-0.15238 -3.99545,-11.03492 -4.06234,-11.22965 0,0 16.62296,-2.66894 16.76522,-2.47444 0.86438,1.18176 2.6413,5.37486 3.07583,6.04657 -0.099,0.227 -15.77871,7.65752 -15.77871,7.65752 z" style="display:inline;fill-opacity:1;fill:#000000;opacity:1;stroke-dasharray:none;stroke-linecap:butt;stroke-linejoin:miter;stroke-miterlimit:4;stroke-opacity:1;stroke-width:0;stroke:#000000"/><path sodipodi:nodetypes="csscc" id="path3843" d="m 303.01527,204.17715 c 0.007,-0.14856 -4.18866,-10.02774 -4.25456,-10.21759 0,0 15.63782,-2.64512 15.77799,-2.4555 0.85164,1.15214 2.60238,5.24014 3.03051,5.89501 -0.0975,0.22131 -14.55394,6.77808 -14.55394,6.77808 z" style="display:inline;fill-opacity:1;fill:#ececec;opacity:1;stroke-dasharray:none;stroke-linecap:butt;stroke-linejoin:miter;stroke-miterlimit:4;stroke-opacity:1;stroke-width:0;stroke:#000000"/><path id="path3845" d="m 300.87394,220.43307 a 2.7544847,2.8454499 0 0 1 -2.75448,2.84545 2.7544847,2.8454499 0 0 1 -2.75449,-2.84545 2.7544847,2.8454499 0 0 1 2.75449,-2.84546 2.7544847,2.8454499 0 0 1 2.75448,2.84546 z" style="display:inline;fill-opacity:1;fill-rule:nonzero;fill:#808080;opacity:1;stroke-dasharray:none;stroke-linecap:butt;stroke-linejoin:round;stroke-miterlimit:4;stroke-opacity:1;stroke-width:0;stroke:#000000"/><path id="path3847" d="m 297.69369,242.50598 a 2.7544847,2.8454499 0 0 1 -2.75448,2.84545 2.7544847,2.8454499 0 0 1 -2.75449,-2.84545 2.7544847,2.8454499 0 0 1 2.75449,-2.84546 2.7544847,2.8454499 0 0 1 2.75448,2.84546 z" style="display:inline;fill-opacity:1;fill-rule:nonzero;fill:#808080;opacity:1;stroke-dasharray:none;stroke-linecap:butt;stroke-linejoin:round;stroke-miterlimit:4;stroke-opacity:1;stroke-width:0;stroke:#000000"/><path id="path3849" d="m 294.36894,266.99921 a 2.7544847,2.8454499 0 0 1 -2.75448,2.84545 2.7544847,2.8454499 0 0 1 -2.75449,-2.84545 2.7544847,2.8454499 0 0 1 2.75449,-2.84546 2.7544847,2.8454499 0 0 1 2.75448,2.84546 z" style="display:inline;fill-opacity:1;fill-rule:nonzero;fill:#808080;opacity:1;stroke-dasharray:none;stroke-linecap:butt;stroke-linejoin:round;stroke-miterlimit:4;stroke-opacity:1;stroke-width:0;stroke:#000000"/><path id="path3851" d="m 291.12262,291.4949 a 2.7544847,2.8454499 0 0 1 -2.75448,2.84545 2.7544847,2.8454499 0 0 1 -2.75449,-2.84545 2.7544847,2.8454499 0 0 1 2.75449,-2.84546 2.7544847,2.8454499 0 0 1 2.75448,2.84546 z" style="display:inline;fill-opacity:1;fill-rule:nonzero;fill:#808080;opacity:1;stroke-dasharray:none;stroke-linecap:butt;stroke-linejoin:round;stroke-miterlimit:4;stroke-opacity:1;stroke-width:0;stroke:#000000"/><path id="path3853" d="m 288.19248,313.4826 a 2.7544847,2.8454499 0 0 1 -2.75448,2.84545 2.7544847,2.8454499 0 0 1 -2.75449,-2.84545 2.7544847,2.8454499 0 0 1 2.75449,-2.84546 2.7544847,2.8454499 0 0 1 2.75448,2.84546 z" style="display:inline;fill-opacity:1;fill-rule:nonzero;fill:#808080;opacity:1;stroke-dasharray:none;stroke-linecap:butt;stroke-linejoin:round;stroke-miterlimit:4;stroke-opacity:1;stroke-width:0;stroke:#000000"/><path id="path3855" d="m 285.69616,337.78711 a 2.7544847,2.8454499 0 0 1 -2.75448,2.84545 2.7544847,2.8454499 0 0 1 -2.75449,-2.84545 2.7544847,2.8454499 0 0 1 2.75449,-2.84546 2.7544847,2.8454499 0 0 1 2.75448,2.84546 z" style="display:inline;fill-opacity:1;fill-rule:nonzero;fill:#808080;opacity:1;stroke-dasharray:none;stroke-linecap:butt;stroke-linejoin:round;stroke-miterlimit:4;stroke-opacity:1;stroke-width:0;stroke:#000000"/><path id="path3857" d="m 283.59261,360.44517 a 2.7544847,2.8454499 0 0 1 -2.75448,2.84545 2.7544847,2.8454499 0 0 1 -2.75449,-2.84545 2.7544847,2.8454499 0 0 1 2.75449,-2.84546 2.7544847,2.8454499 0 0 1 2.75448,2.84546 z" style="display:inline;fill-opacity:1;fill-rule:nonzero;fill:#808080;opacity:1;stroke-dasharray:none;stroke-linecap:butt;stroke-linejoin:round;stroke-miterlimit:4;stroke-opacity:1;stroke-width:0;stroke:#000000"/><path id="path3859" d="m 282.01878,380.39507 a 2.7544847,2.8454499 0 0 1 -2.75448,2.84545 2.7544847,2.8454499 0 0 1 -2.75449,-2.84545 2.7544847,2.8454499 0 0 1 2.75449,-2.84546 2.7544847,2.8454499 0 0 1 2.75448,2.84546 z" style="display:inline;fill-opacity:1;fill-rule:nonzero;fill:#808080;opacity:1;stroke-dasharray:none;stroke-linecap:butt;stroke-linejoin:round;stroke-miterlimit:4;stroke-opacity:1;stroke-width:0;stroke:#000000"/><path id="path3861" d="m 281.0045,400.49998 a 2.7544847,2.8454499 0 0 1 -2.75448,2.84545 2.7544847,2.8454499 0 0 1 -2.75449,-2.84545 2.7544847,2.8454499 0 0 1 2.75449,-2.84546 2.7544847,2.8454499 0 0 1 2.75448,2.84546 z" style="display:inline;fill-opacity:1;fill-rule:nonzero;fill:#808080;opacity:1;stroke-dasharray:none;stroke-linecap:butt;stroke-linejoin:round;stroke-miterlimit:4;stroke-opacity:1;stroke-width:0;stroke:#000000"/><path sodipodi:nodetypes="ccccsscc" id="path3863" d="m 273.76587,419.87564 c -3.37067,-27.44695 2.70899,-95.34442 23.25259,-225.55289 l 0.80611,0.10099 c 0.44243,13.37084 -30.13893,182.40374 -21.77891,225.43423 0,0 1.27189,11.23622 1.1016,11.22329 -0.40792,-0.031 -2.18842,-13.77461 -2.96486,-8.74113 -0.016,0.10395 -0.36273,-2.37309 -0.41653,-2.46446 z" style="display:inline;fill-opacity:1;fill:#000000;opacity:1;stroke-dasharray:none;stroke-linecap:butt;stroke-linejoin:miter;stroke-miterlimit:4;stroke-opacity:1;stroke-width:0;stroke:#000000"/><path style="display:inline;fill-opacity:1;fill:#808080;stroke-dasharray:none;stroke-linecap:butt;stroke-linejoin:miter;stroke-miterlimit:4;stroke-opacity:1;stroke-width:0;stroke:#83afc8" d="m 241.44907,429.61473 c 16.19921,3.4137 37.32679,4.09867 68.75142,-0.23858 -1.10723,0.72649 -4.9682,3.64884 -9.02733,7.02192 -26.13262,3.68145 -42.62028,3.1439 -53.96133,0.73077 -1.89388,-2.48871 -3.25794,-4.54662 -5.76276,-7.51411 z" id="path1180-5-1-9-1-2" sodipodi:nodetypes="ccccc"/><path style="display:inline;fill-opacity:1;fill:#808080;stroke-dasharray:none;stroke-linecap:butt;stroke-linejoin:miter;stroke-miterlimit:4;stroke-opacity:1;stroke-width:0;stroke:#83afc8" d="m 252.70414,444.58541 c 10.94342,1.31488 24.01095,1.50229 40.32871,0.0811 -1.56759,2.01272 -3.58281,4.56444 -5.24245,6.66295 -12.30604,1.16431 -22.00263,1.20882 -29.81942,0.51362 -2.04934,-2.61037 -3.63449,-4.68604 -5.26684,-7.25767 z" id="path1180-5-1-9-7-4" sodipodi:nodetypes="ccccc"/><path style="display:inline;fill-opacity:1;fill:#808080;stroke-dasharray:none;stroke-linecap:butt;stroke-linejoin:miter;stroke-miterlimit:4;stroke-opacity:1;stroke-width:0;stroke:#83afc8" d="m 262.53421,458.18295 c 6.22871,0.31514 13.08896,0.30377 20.72809,-0.0971 -0.87505,2.4389 -1.64015,4.66739 -2.42955,6.53665 -5.25319,0.34928 -9.97649,0.47387 -14.24234,0.41152 -1.68576,-1.69159 -2.0194,-4.59693 -4.0562,-6.85107 z" id="path1180-5-1-9-3-12" sodipodi:nodetypes="ccccc"/><path style="display:inline;fill-opacity:1;fill-rule:evenodd;fill:#000000;opacity:1;stroke-dasharray:none;stroke-linecap:butt;stroke-linejoin:miter;stroke-miterlimit:4;stroke-opacity:1;stroke-width:0;stroke:#000000" d="m 282.94456,458.76549 c -0.0483,0.15247 -0.11284,0.47208 -0.19954,0.90622 -0.41277,2.06685 -1.81439,6.53069 -3.87757,8.11265 -0.26921,0.20642 -1.13559,1.14752 -4.57861,0.28177 -0.17398,-0.0437 -2.18026,1.1699 -4.2783,0.12449 -4.65827,-2.32112 -6.22252,-8.10904 -6.31915,-8.53686 3.82592,9.08132 8.89939,9.3147 10.40315,7.55401 5.26837,2.79873 7.50839,-4.81217 8.85002,-8.44228 z" id="path6986-5-1-1" sodipodi:nodetypes="cssssccc"/></svg>
