<svg viewBox="0 0 560 1000"><path d="m 283.66521,456.38067 c -1.54841,0.73859 -1.78928,15.78672 -9.24659,11.14886 -5.5459,3.1603 -10.12915,-4.94173 -10.42429,-8.4126 -0.25114,-2.95343 3.37748,-7.20053 3.87403,-6.51846 2.14579,-0.003 16.30971,2.85987 15.79685,3.7822 z" class="shadow" id="path4631" sodipodi:nodetypes="ccscc" inkscape:label="#PussyshadowN"/><path d="m 274.36595,467.58332 c -3.81452,2.31718 -9.64064,-2.27902 -10.8644,-11.68664 5.95334,-21.67633 25.49385,-8.31185 20.23612,0.35499 -2.87984,4.74713 -3.52005,14.37508 -9.37172,11.33165 z" class="skin torso" id="path4633" sodipodi:nodetypes="ccsc" inkscape:label="#PussyN"/><path sodipodi:nodetypes="cccccc" id="path4635" d="m 362.4682,408.66378 c -0.0813,-0.25494 -0.0369,-3.51911 -0.0369,-3.51911 -37.18529,8.22641 -89.79761,14.83384 -136.88585,1.62797 -0.0404,-0.0164 0.30283,2.189 0.12956,6.49528 30.89873,13.95984 114.13923,9.25249 136.79318,-4.60414 z" style="display:inline;fill-opacity:1;fill:#000000;stroke-dasharray:none;stroke-linecap:butt;stroke-linejoin:miter;stroke-miterlimit:4;stroke-opacity:1;stroke-width:0;stroke:#000000"/><path style="display:inline;fill-opacity:1;fill:#1a1a1a;opacity:1;stroke-dasharray:none;stroke-linecap:butt;stroke-linejoin:miter;stroke-miterlimit:4;stroke-opacity:1;stroke-width:0;stroke:#000000" d="m 268.15022,466.84042 c 1.97544,1.15064 3.44304,1.50895 6.29117,0.74829 1.48394,1.11892 3.67809,1.01117 5.52348,-0.15189 12.34413,-20.92611 29.1042,-34.50275 48.97711,-41.71628 10.223,-3.71078 22.67972,-3.07023 33.381,-4.75194 0.78922,-5.4158 0.35644,-11.80495 0.0568,-12.74471 -24.81426,5.52337 -96.69219,15.64041 -136.71081,-1.10008 -0.0611,0.72891 0.0943,3.49625 0.19492,4.48571 -1.01232,2.05127 -1.8005,5.00623 -3.07718,9.05261 4.22581,2.42316 7.46382,4.97797 10.27417,7.74862 0.42664,8.69013 14.05707,21.05423 35.08935,38.42967 z" id="path4637" sodipodi:nodetypes="cccsccccccc"/><path style="display:inline;fill-opacity:1;fill:#000000;stroke-dasharray:none;stroke-linecap:butt;stroke-linejoin:miter;stroke-miterlimit:4;stroke-opacity:1;stroke-width:0;stroke:#000000" d="m 225.81842,411.58888 c 35.65478,14.81043 121.42276,5.37241 136.68022,-2.95107 0.17382,-1.68154 0.2178,-2.5829 -0.0339,-3.48489 -58.31295,15.78964 -120.9211,9.70164 -136.8913,1.86045 -0.19298,1.12545 0.0537,2.37563 0.24498,4.57551 z" id="path4639" sodipodi:nodetypes="ccccc"/><path sodipodi:nodetypes="ccc" id="path4647" class="shadow" d="m 329.90785,425.6821 c -15.4791,1.19068 -42.03653,26.26041 -44.60913,30.99635 10.29989,-9.14088 29.75951,-26.28541 44.60913,-30.99635 z"/><path sodipodi:nodetypes="ccc" id="path4649" class="shadow" d="m 262.16576,457.53039 c -6.81704,-9.41592 -28.83006,-31.99347 -34.93819,-34.15183 5.05404,5.44075 26.5203,25.35081 34.93819,34.15183 z"/><path d="m 262.98857,459.03749 c 4.57815,9.39542 7.95428,8.94718 11.45233,8.01034 0.29456,-0.0789 5.02218,4.77996 9.26343,-8.71666 -1.38475,8.70911 -4.94655,11.61521 -9.3291,9.47151 -0.0226,-0.0111 -2.82256,1.04466 -4.71233,0.003 -2.95847,-1.63089 -6.486,-5.556 -6.67433,-8.7681 z" class="shadow" id="path4651" sodipodi:nodetypes="cscsscc"/></svg>
