<svg viewBox="0 0 560 1000"><path sodipodi:nodetypes="cssssssssscccscccc" id="path1867" d="m 346.15334,145.28857 c -0.34101,-1.06451 -15.269,34.57303 -17.20968,36.02065 -2.73019,2.03655 -6.71576,5.79808 -9.48632,3.15978 -2.23974,-2.13282 8.25054,-57.93887 8.06171,-58.46876 -0.83509,-2.34327 -31.11384,-39.892253 -44.00588,-36.882558 -8.56588,1.999729 -20.94668,19.867098 -19.17175,31.815888 0,0 1.51651,8.55891 1.47444,9.30443 -0.13886,2.4613 -1.51335,19.51755 -1.7406,18.20487 -0.0121,-0.07 1.0261,5.63718 0.93358,5.38607 -0.49779,-1.35113 5.84354,24.42256 20.81846,30.37626 0.0494,0.0197 15.22397,-1.58591 23.71109,-7.37919 -0.0235,0.28247 8.50348,-6.7954 10.39196,-9.91857 -0.0864,0.21939 22.01573,-14.92189 26.28938,-21.62287 3.52449,65.92013 -24.90349,78.25658 -25.08641,78.35241 -27.71125,14.51779 -30.92742,19.48253 -56.75444,-0.41147 -11.25228,-29.05409 -9.65455,-81.50107 -8.66388,-95.11847 -0.21284,-0.93702 1.18131,-50.142094 41.13104,-53.627404 44.69168,-5.613155 51.614,56.439184 49.3073,70.808934 z" style="display:inline;fill-opacity:1;fill-rule:nonzero;fill:#000000;opacity:1;stroke-dasharray:none;stroke-linecap:butt;stroke-linejoin:miter;stroke-miterlimit:4;stroke-opacity:0;stroke-width:2.46809793;stroke:#000000"/><path sodipodi:nodetypes="cssssssscscccsccc" id="path1869" d="m 344.93995,145.51461 c -0.33912,-1.06457 -15.18449,34.57515 -17.11442,36.02286 -2.71508,2.03667 -6.6786,5.79843 -9.43382,3.15997 -2.22734,-2.13296 8.20488,-57.9424 8.01709,-58.47233 -0.83046,-2.34342 -30.94162,-39.894677 -43.76231,-36.884806 -8.51847,1.999853 -20.83074,19.868306 -19.06564,31.817826 0,0 1.50812,8.55944 1.46629,9.305 -0.1381,2.46145 -1.38067,17.26861 -1.60666,15.95585 -0.0677,-0.39313 4.05399,30.36394 22.28247,38.57857 0.011,0.44892 12.85047,-0.34152 25.90636,-8.3656 7.67594,-4.71759 28.1767,-29.56055 33.43925,-40.49708 2.61083,34.15322 -1.31753,68.32926 -21.19331,84.7518 -17.24552,9.56284 -23.7885,13.95249 -33.40922,14.88927 -11.28972,-1.58095 -25.54335,-12.57506 -25.84475,-13.5246 -13.54248,-42.66401 -7.85222,-93.80447 -7.87878,-93.9193 -0.21167,-0.93708 0.1803,-47.895011 39.16307,-53.630671 44.44431,-5.613497 51.32832,56.442621 49.03438,70.813241 z" style="display:inline;fill-opacity:1;fill-rule:nonzero;fill:#550022;opacity:1;stroke-dasharray:none;stroke-linecap:butt;stroke-linejoin:miter;stroke-miterlimit:4;stroke-opacity:0;stroke-width:2.46133304;stroke:#000000"/><path sodipodi:nodetypes="csssscc" id="path1871" d="m 264.13095,122.98903 c -0.50379,0.16864 -3.05176,-15.55458 0.62317,-25.284731 3.34237,-8.849586 9.71263,-13.476798 11.43851,-14.663555 2.29582,-1.578667 24.5619,-14.636429 43.91259,-3.132662 15.81173,9.399898 14.81653,33.965348 14.89595,34.482778 0.081,0.52745 -1.08545,8.40115 -2.17483,15.41295 -21.65049,-18.50763 -58.92141,-29.70895 -68.69539,-6.81478 z" style="display:inline;fill-opacity:1;fill-rule:evenodd;fill:#550022;opacity:1;stroke-dasharray:none;stroke-linecap:butt;stroke-linejoin:miter;stroke-miterlimit:4;stroke-opacity:0;stroke-width:3;stroke:#000000"/><path sodipodi:nodetypes="csccc" id="path1873" d="m 333.46909,124.78369 c -13.07882,-15.0619 -29.16995,-23.11314 -45.21577,-22.92536 -26.2327,0.307 -24.64149,19.40255 -25.37418,17.50859 0.0535,-9.1572 -3.53508,-37.081041 33.19771,-43.066701 41.19431,-3.363497 39.68618,34.112851 37.39224,48.483471 z" style="display:inline;fill-opacity:1;fill-rule:evenodd;fill:#000000;opacity:1;stroke-dasharray:none;stroke-linecap:butt;stroke-linejoin:miter;stroke-miterlimit:4;stroke-opacity:0;stroke-width:2.46133304;stroke:#000000"/><path sodipodi:nodetypes="csccc" id="path1875" d="m 333.69662,124.79882 c -10.60395,-15.41546 -30.58417,-26.02996 -46.62999,-25.84218 -26.2327,0.306996 -23.58083,21.17032 -24.31352,19.27636 0.0535,-9.1572 -3.53508,-37.081041 33.19771,-43.066701 41.19431,-3.363497 40.03974,35.261901 37.7458,49.632521 z" style="display:inline;fill-opacity:1;fill-rule:evenodd;fill:#550022;opacity:1;stroke-dasharray:none;stroke-linecap:butt;stroke-linejoin:miter;stroke-miterlimit:4;stroke-opacity:0;stroke-width:2.46133304;stroke:#000000"/></svg>
