<svg viewBox="0 0 560 1000"><path d="m 361.3,240.3 c 9.9,3.7 9.74165,11.18206 39.84165,25.68206 28.20186,16.59843 39.42329,23.06542 61.83652,29.41206 21.41162,8.84351 33.73778,1.29722 40.93778,11.59722 3.9,5.5 4.48405,6.60866 4.48405,6.60866 1.8,3.2 3.7,7.7 4.7,13.4 0.9,5.3 0.4,8.9 1.3,9.1 1.1,0.2 3.7,-4.2 3.9,-9.1 0.2,-5.5 -2.7,-8.8 -1.3,-10.3 1.3,-1.3 3.7,1 6.5,0.1 5.7,-1.8 9.04118,-14.01176 9.14118,-15.51176 C 532.74118,296.58824 530,290.1 526.4,286.7 c -4.4,-4.1 -10.6,-1 -20,-0.7 -9.4,0.4 -22.56378,-7.71162 -45.46378,-17.91162 -10.4,-4.6 -15.01269,-4.87073 -22.01269,-8.97073 C 425.52353,251.31765 416.9,243.9 410.6,238 384.4,219 375,213.3 372.3,212.6 c -0.4,-0.1 -3.1,-0.8 -6.5,-2.3 -0.9,-0.4 -2,-0.9 -3.2,-1.6 -11.7,3 -19,6.2 -23.5,9.2 -3.9,2.7 -6.8,5.7 -6.5,8.7 0.5,5.6 11.9,7.3 28.7,13.7 z" id="path3453" sodipodi:nodetypes="cccccccccccccccccccccc" class="skin"/><path style="display:inline;fill-opacity:1;fill:#333333;stroke-dasharray:none;stroke-linecap:butt;stroke-linejoin:miter;stroke-miterlimit:4;stroke-opacity:1;stroke-width:0;stroke:#000000" d="m 367.93309,244.87786 c 9.09918,-2.20391 26.51803,-8.19656 29.45921,-16.43798 -1.08467,-0.93806 -2.6925,-1.76495 -3.06125,-2.21734 -2.59084,8.78096 -25.5232,15.27936 -27.7188,16.97226 z" id="path3455" sodipodi:nodetypes="ccccc"/><path style="display:inline;fill-opacity:1;fill:#333333;stroke-dasharray:none;stroke-linecap:butt;stroke-linejoin:miter;stroke-miterlimit:4;stroke-opacity:1;stroke-width:0;stroke:#000000" d="m 440.32481,259.77488 c -7.53,5.03819 -10.86783,10.53536 -14.29852,20.30316 0.0565,0.43114 0.98088,0.66299 1.40219,1.13295 4.06782,-16.79722 13.0984,-19.04189 13.90368,-20.80162 z" id="path3457" sodipodi:nodetypes="ccccc"/><path style="display:inline;fill-opacity:1;fill:#333333;stroke-dasharray:none;stroke-linecap:butt;stroke-linejoin:miter;stroke-miterlimit:4;stroke-opacity:1;stroke-width:0;stroke:#000000" d="m 502.77555,285.52988 c -4.76818,7.15208 -5.1169,10.47546 -4.54965,16.67463 0.21541,0.23825 0.97703,0.73041 1.54138,0.92884 -2.65319,-10.34857 4.10984,-16.24762 4.17912,-17.39633 z" id="path3459" sodipodi:nodetypes="ccccc"/><path style="display:inline;fill-opacity:1;fill:#333333;stroke-dasharray:none;stroke-linecap:butt;stroke-linejoin:miter;stroke-miterlimit:4;stroke-opacity:1;stroke-width:0;stroke:#000000" d="m 531.67794,305.55556 c -11.26246,-8.58738 -19.05857,-10.89068 -31.3378,-14.17282 -0.57559,0.0453 -0.14085,0.89758 -0.82638,1.2761 21.41206,3.96847 29.36236,13.60121 31.54429,14.36378 z" id="path3461" sodipodi:nodetypes="ccccc"/><path style="display:inline;fill-opacity:1;fill:#333333;stroke-dasharray:none;stroke-linecap:butt;stroke-linejoin:miter;stroke-miterlimit:4;stroke-opacity:1;stroke-width:0;stroke:#000000" d="m 480.89155,300.07282 c -4.79525,-13.25264 -23.22412,-20.62486 -50.2285,-28.41718 -1.52163,-0.0107 -0.92894,0.78179 -0.90397,1.56774 48.43196,12.43101 48.63596,25.86927 48.88819,26.65685 z" id="path3463" sodipodi:nodetypes="ccccc"/><path style="display:inline;fill-opacity:1;fill:#333333;stroke-dasharray:none;stroke-linecap:butt;stroke-linejoin:miter;stroke-miterlimit:4;stroke-opacity:1;stroke-width:0;stroke:#000000" d="m 433.85474,266.21701 c -14.76586,-11.97929 -19.28825,-15.26171 -44.70725,-32.07147 -0.81273,0.0648 0.45634,0.84961 -0.67821,1.56662 24.89293,15.84786 44.35351,31.06551 44.56397,31.89671 z" id="path3465" sodipodi:nodetypes="ccccc"/><path style="display:inline;fill-opacity:1;fill:#333333;stroke-dasharray:none;stroke-linecap:butt;stroke-linejoin:miter;stroke-miterlimit:4;stroke-opacity:1;stroke-width:0;stroke:#000000" d="m 517.12101,316.71186 c -3.4715,-2.82215 -5.96294,-3.6896 -9.74785,-4.76824 -0.17741,0.0149 -0.0375,0.64756 0.29772,0.72874 6.5386,1.58347 8.49812,4.16053 9.17067,4.41114 z" id="path3467" sodipodi:nodetypes="ccscc"/><path style="display:inline;fill-opacity:1;fill:#333333;stroke-dasharray:none;stroke-linecap:butt;stroke-linejoin:miter;stroke-miterlimit:4;stroke-opacity:1;stroke-width:0;stroke:#000000" d="m 518.28644,325.08832 c -2.30491,-0.26436 -3.37582,0.0641 -5.2867,1.39824 -0.0698,0.11569 -0.0378,0.64743 0.10994,0.8397 3.15835,-2.79457 4.81434,-1.58384 5.17165,-1.77305 z" id="path3469" sodipodi:nodetypes="ccccc"/><path style="display:inline;fill-opacity:1;fill:#333333;stroke-dasharray:none;stroke-linecap:butt;stroke-linejoin:miter;stroke-miterlimit:4;stroke-opacity:1;stroke-width:0;stroke:#000000" d="m 500.19275,291.37054 c -21.92341,-9.56291 -28.63797,-12.18322 -66.3785,-25.60224 -1.20669,0.0517 0.67755,0.67823 -1.00696,1.25061 36.95945,12.65115 65.85329,24.79919 66.16576,25.46273 z" id="path3471" sodipodi:nodetypes="ccccc"/></svg>
