<svg viewBox="0 0 560 1000"><path sodipodi:nodetypes="ccccsccccccccc" d="m 307.96882,121.55328 c -6.11576,0.24181 -13.36,2.06739 -16.0402,2.79731 -0.709,0.0542 -1.53853,0.13052 -1.84341,0.16967 -0.67495,-0.39067 -1.26258,-0.59716 -0.79073,-1.14253 0.0588,-0.22385 0.15308,-0.45565 0.23373,-0.6501 0.0811,-0.19541 0.14829,-0.35311 0.15173,-0.42712 l 0.74352,-0.11316 c 1.28388,-0.53806 10.49247,-1.70291 15.95379,-1.7067 1.50772,-0.056 1.94447,-0.0326 2.79655,0.14987 0.55537,0.1189 1.38732,0.27049 1.84875,0.33686 0.90322,0.1299 0.77338,0.10586 2.86146,0.67157 l 1.36581,0.37003 c 0.0226,0.014 0.71038,0.12657 1.23922,0.57793 -6.19147,-1.02244 -7.82522,-1.01243 -8.52022,-1.03363 z" id="path2634" class="eyebrow_hair"/><path sodipodi:nodetypes="scccccccs" d="m 264.1942,121.66817 c 0.0514,-0.007 1.33147,-0.40811 1.41381,-0.44165 3.47039,-0.85217 8.07315,0.15047 9.74787,0.5958 0.55179,-0.0674 2.25013,0.42879 2.25013,0.42879 0.144,0.1871 0.40356,0.54503 0.3965,1.50404 -0.1657,0.19068 -0.96713,0.67255 -1.63932,0.40633 -0.63331,-0.15789 -1.34513,-0.3611 -2.34765,-0.52373 -0.58581,-0.17973 -5.45345,-1.91253 -9.64853,-1.26886 0.0186,-0.007 -0.19779,-0.69735 -0.17281,-0.70072 z" id="path2636" class="eyebrow_hair"/></svg>
