<svg viewBox="0 0 560 1000"><path style="display:inline;fill-opacity:1;fill-rule:evenodd;fill:#000000;opacity:1;stroke-dasharray:none;stroke-linecap:butt;stroke-linejoin:miter;stroke-miterlimit:4;stroke-opacity:1;stroke-width:0;stroke:#000000" d="m 370.92186,272.92333 c -1.04417,0.19236 -75.21098,-5.26614 -135.86453,-4.73524 3.08213,-21.15597 13.01956,-37.87069 39.12636,-61.06743 -0.63873,-0.33426 5.63549,-4.38429 10.16002,-6.78663 8.14833,-12.70068 4.46472,-19.8415 5.30411,-19.5762 7.80794,2.46783 17.91265,-3.14662 24.29047,-7.74712 0.74373,-0.53648 -0.752,16.60336 5.04219,25.55904 1.50252,1.12706 8.22693,4.89722 7.01144,5.69617 -25.72677,16.91039 -30.9022,28.84774 -29.45936,29.06832 3.13994,1.52155 73.52821,36.79124 74.63432,37.6158 z" id="path2662-8-4-7-7-0" sodipodi:nodetypes="ccccsscsccc"/><path style="display:inline;fill-opacity:1;fill-rule:evenodd;fill:#800000;opacity:1;stroke-dasharray:none;stroke-linecap:butt;stroke-linejoin:miter;stroke-miterlimit:4;stroke-opacity:1;stroke-width:0;stroke:#000000" d="m 371.17186,271.39361 c -0.022,0.17059 -0.0457,0.36964 -0.0714,0.59595 -76.50814,-6.11786 -114.97805,-5.0591 -135.98606,-4.94968 6.23266,-46.96362 23.43144,-56.10081 39.44669,-60.80878 0.49229,-0.51848 5.31256,-2.88169 9.78952,-5.28403 5.73671,-6.84658 5.96054,-16.38841 6.43009,-16.43638 9.66279,-0.98707 17.18194,-8.05033 21.83937,-11.17453 1.18842,-0.79719 -0.90736,15.62847 6.0387,25.84663 1.48672,1.12706 17.66932,6.19296 18.2012,7.53532 0,0 22.53186,-3.73753 32.01093,28.69935 0.0476,0.44543 1.31272,7.24328 1.49903,15.71117 0.21526,6.04642 1.12235,14.42244 0.80193,20.26498 z" id="path2664-3-9-7-8-0" sodipodi:nodetypes="cccccssccccc"/><path sodipodi:nodetypes="cssssccc" id="path1863-7" d="m 282.94456,458.76549 c -0.0483,0.15247 -0.11284,0.47208 -0.19954,0.90622 -0.41277,2.06685 -1.81439,6.53069 -3.87757,8.11265 -0.26921,0.20642 -1.13559,1.14752 -4.57861,0.28177 -0.17398,-0.0437 -2.18026,1.1699 -4.2783,0.12449 -4.65827,-2.32112 -6.22252,-8.10904 -6.31915,-8.53686 3.82592,9.08132 8.89939,9.3147 10.40315,7.55401 5.26837,2.79873 7.50839,-4.81217 8.85002,-8.44228 z" style="display:inline;fill-opacity:1;fill-rule:evenodd;fill:#000000;opacity:1;stroke-dasharray:none;stroke-linecap:butt;stroke-linejoin:miter;stroke-miterlimit:4;stroke-opacity:1;stroke-width:0;stroke:#000000"/><path sodipodi:nodetypes="ccssssccsccc" id="path1865-4" d="m 298.46108,438.89935 c -6.48422,6.26583 -11.19704,12.82415 -15.33516,19.44716 -1.04023,1.75909 -1.92047,7.35117 -4.50173,9.70959 -0.97785,0.89343 -3.70051,-0.0277 -4.03805,0.0431 -0.91345,0.19159 -2.09488,0.29968 -2.84109,0.24274 -1.3589,-0.10369 -3.10427,-0.97079 -4.62926,-2.64607 -1.15035,-1.26373 -2.1753,-2.98733 -2.81436,-5.19001 -3.99405,-5.27747 -10.5589,-14.66641 -17.49018,-23.90539 4.48963,1.85597 9.35646,2.79339 14.73041,2.73225 1.76498,-0.0201 3.58467,-0.14788 5.46366,-0.38622 9.80224,3.87793 21.03947,2.36746 31.45576,-0.0471 z" style="display:inline;fill-opacity:1;fill-rule:evenodd;fill:#800000;opacity:1;stroke-dasharray:none;stroke-linecap:butt;stroke-linejoin:miter;stroke-miterlimit:4;stroke-opacity:1;stroke-width:0;stroke:#000000"/><path sodipodi:nodetypes="cssssccc" id="path1868-2" d="m 282.94456,458.76549 c -0.0483,0.15247 -0.11284,0.47208 -0.19954,0.90622 -0.41277,2.06685 -1.81439,6.53069 -3.87757,8.11265 -0.26921,0.20642 -1.13559,1.14752 -4.57861,0.28177 -0.17398,-0.0437 -2.18026,1.1699 -4.2783,0.12449 -4.65827,-2.32112 -6.22252,-8.10904 -6.31915,-8.53686 3.82592,9.08132 8.89939,9.3147 10.40315,7.55401 5.26837,2.79873 7.50839,-4.81217 8.85002,-8.44228 z" style="display:inline;fill-opacity:1;fill-rule:evenodd;fill:#000000;opacity:1;stroke-dasharray:none;stroke-linecap:butt;stroke-linejoin:miter;stroke-miterlimit:4;stroke-opacity:1;stroke-width:0;stroke:#000000"/></svg>
