<svg viewBox="0 0 560 1000"><path sodipodi:nodetypes="cscssc" id="path5792" d="m 350.02985,408.21382 c 0.4129,0.3082 0.48952,0.2044 0.99977,0.54713 12.79275,8.59259 37.34908,36.23366 27.97798,73.84972 -1.65859,-0.42695 -7.68537,-3.25592 -7.68537,-3.25592 -4.35635,-19.09962 -20.89871,-53.11062 -18.93994,-66.2674 0.0246,-0.16537 -2.51221,-4.71611 -2.35244,-4.87353 z" style="display:inline;fill-opacity:1;fill-rule:evenodd;fill:#000000;stroke-dasharray:none;stroke-linecap:butt;stroke-linejoin:miter;stroke-miterlimit:4;stroke-opacity:0;stroke-width:3;stroke:#000000"/><path sodipodi:nodetypes="cccc" id="path5794" d="m 349.26166,407.20981 c 4.28127,2.5952 36.85324,35.70231 29.75727,75.71526 -1.65859,-0.42696 -8.53919,-3.2575 -8.53919,-3.2575 -4.43195,-12.12656 -24.54075,-76.3939 -21.21808,-72.45776 z" style="display:inline;fill-opacity:1;fill-rule:evenodd;fill:#999999;stroke-dasharray:none;stroke-linecap:butt;stroke-linejoin:miter;stroke-miterlimit:4;stroke-opacity:0;stroke-width:3;stroke:#000000"/><path sodipodi:nodetypes="cscssc" id="path5796" d="m 351.6353,409.52376 c 0.41291,0.3082 0.82573,0.6978 1.30913,1.07746 11.41775,8.96759 31.58499,33.17408 26.96389,64.79014 -1.65859,-0.42695 -9.06037,-3.38092 -9.06037,-3.38092 -7.73135,-16.84962 -22.39871,-48.61062 -20.43994,-61.7674 0.0246,-0.16537 1.06752,-0.56186 1.22729,-0.71928 z" style="display:inline;fill-opacity:1;fill-rule:evenodd;fill:#4d4d4d;stroke-dasharray:none;stroke-linecap:butt;stroke-linejoin:miter;stroke-miterlimit:4;stroke-opacity:0;stroke-width:3;stroke:#000000"/></svg>
