<svg viewBox="0 0 560 1000"><path sodipodi:nodetypes="cccccccc" id="path3194" d="m 359.7,208 c 33,6 74.74118,-36.21176 87.44118,-39.01176 -28.1,-11.8 -29.70929,-25.61284 -76.40929,-57.11284 0,0 -42.83189,13.4246 -44.23189,-2.3754 C 323,69.600003 357.6,87.000003 374.9,99.600003 389.7,100.8 486.3,157.4 482.3,170.9 c -6.1,20.6 -84.8,65.8 -114.7,81.4 -49.9,-6.5 -28.8,-47.8 -7.9,-44.3" style="fill:#ffffff"/><path sodipodi:nodetypes="ccccc" id="path3000-1-9-4-4-1-7-9" d="m 360.91787,231.89578 c 10.03602,-5.4893 29.21013,-18.24916 32.46115,-30.25493 -1.34269,-0.24898 -4.5153,1.58822 -5.16502,1.73115 -2.24645,9.54935 -26.32837,23.69628 -28.75111,26.59868 z" style="display:inline;fill-opacity:1;fill:#333333;stroke-dasharray:none;stroke-linecap:butt;stroke-linejoin:miter;stroke-miterlimit:4;stroke-opacity:1;stroke-width:0;stroke:#000000"/><path sodipodi:nodetypes="ccccc" id="path3000-1-9-4-9-0-5-9-00-0-6" d="m 482.28948,168.49276 c -11.70038,-1.21465 -23.73501,-3.26192 -36.4838,-0.37749 0.52428,0.64771 -0.13049,1.67754 0.70163,1.58642 11.26561,-1.68424 24.86179,-0.47159 35.64771,1.85364 0.43839,-0.92246 0.40116,-1.96383 0.13446,-3.06257 z" style="display:inline;fill-opacity:1;fill:#333333;stroke-dasharray:none;stroke-linecap:butt;stroke-linejoin:miter;stroke-miterlimit:4;stroke-opacity:1;stroke-width:0;stroke:#000000"/><path sodipodi:nodetypes="ccccc" id="path3000-1-9-4-9-2-5-0-7-4" d="m 405.40511,138.60323 c 13.80591,-2.83269 29.71808,9.03217 50.46753,27.9905 0.80387,1.29199 -0.18149,1.20048 -0.86476,1.58969 -32.18739,-31.45487 -44.26155,-27.77346 -47.72333,-28.0764 z" style="display:inline;fill-opacity:1;fill:#333333;stroke-dasharray:none;stroke-linecap:butt;stroke-linejoin:miter;stroke-miterlimit:4;stroke-opacity:1;stroke-width:0;stroke:#000000"/><path sodipodi:nodetypes="ccccc" id="path3000-1-9-4-9-2-9-0-4-6-2" d="m 478.25133,168.39039 c -29.9273,-23.48312 -44.98489,-37.99439 -103.15632,-66.48868 -0.55856,0.42274 -0.45155,0.92727 -0.60443,1.65079 58.42097,27.62541 100.03506,64.1511 101.00239,65.60071 z" style="display:inline;fill-opacity:1;fill:#333333;stroke-dasharray:none;stroke-linecap:butt;stroke-linejoin:miter;stroke-miterlimit:4;stroke-opacity:1;stroke-width:0;stroke:#000000"/><path sodipodi:nodetypes="ccccc" id="path3000-1-9-4-9-2-5-0-8-5-3" d="m 456.04934,168.39473 c -11.47383,16.23719 -39.75267,32.23212 -78.33773,51.07887 -2.26792,0.44322 -1.29708,-0.8382 -1.17268,-1.95067 64.9416,-29.27802 77.63077,-48.56618 78.0939,-49.74489 z" style="display:inline;fill-opacity:1;fill:#333333;stroke-dasharray:none;stroke-linecap:butt;stroke-linejoin:miter;stroke-miterlimit:4;stroke-opacity:1;stroke-width:0;stroke:#000000"/><path sodipodi:nodetypes="ccccc" id="path3000-1-9-4-9-0-5-9-00-0-6-7" d="m 371.10554,112.9196 c 2.04044,-4.52513 4.60476,-9.16132 4.3727,-14.188029 -0.43762,0.189218 -0.964,-0.08908 -1.00554,0.236793 -0.29943,4.422156 -2.55448,9.685036 -5.13888,13.828986 0.48836,0.19165 1.10025,0.20094 1.77172,0.12225 z" style="display:inline;fill-opacity:1;fill:#333333;stroke-dasharray:none;stroke-linecap:butt;stroke-linejoin:miter;stroke-miterlimit:4;stroke-opacity:1;stroke-width:0;stroke:#000000"/><path sodipodi:nodetypes="ccccc" id="path3000-1-9-4-9-2-9-0-4-6-2-58" d="m 374.85625,101.73793 c -14.42553,-5.057922 -22.18036,-9.677021 -47.05997,-6.312783 -0.11057,0.56805 0.0184,0.909727 0.10016,1.532833 24.80373,-4.141228 45.57601,5.87114 46.16953,6.56592 z" style="display:inline;fill-opacity:1;fill:#333333;stroke-dasharray:none;stroke-linecap:butt;stroke-linejoin:miter;stroke-miterlimit:4;stroke-opacity:1;stroke-width:0;stroke:#000000"/></svg>
