<svg viewBox="0 0 560 1000"><path sodipodi:nodetypes="ccssc" id="path5760" d="m 350.12931,407.62791 c 8.20773,0.68418 55.20986,40.37268 43.41606,80.51718 -7.65858,-3.48945 -20.88153,-16.8725 -20.88153,-16.8725 -7.73135,-16.84961 -23.08925,-47.00857 -21.13047,-60.16535 0.0246,-0.16538 -1.56383,-3.32192 -1.40406,-3.47933 z" style="display:inline;fill-opacity:1;fill-rule:evenodd;fill:#000000;stroke-dasharray:none;stroke-linecap:butt;stroke-linejoin:miter;stroke-miterlimit:4;stroke-opacity:0;stroke-width:3;stroke:#000000"/><path sodipodi:nodetypes="csssccscc" id="path5762" d="m 349.37494,406.96372 c 0.22265,0.0924 0.46533,0.23825 0.75647,0.37712 1.00485,0.47929 2.31731,1.34889 3.84105,2.57257 11.3192,9.09023 44.97254,41.33259 40.10828,74.64948 -0.18129,1.24172 -0.4043,2.49053 -0.67137,3.74568 -9.97109,-4.92696 -22.90753,-8.6631 -22.90753,-8.6631 -4.24176,-11.60618 -24.29363,-68.45386 -21.4806,-72.59506 0.0221,-0.0326 0.33583,-0.0799 0.3537,-0.0867 z" style="display:inline;fill-opacity:1;fill-rule:evenodd;fill:#999999;stroke-dasharray:none;stroke-linecap:butt;stroke-linejoin:miter;stroke-miterlimit:4;stroke-opacity:0;stroke-width:3;stroke:#000000"/><path sodipodi:nodetypes="ccssc" id="path5764" d="m 352.64445,408.89608 c 22.63426,15.11993 45.00339,46.94798 41.91346,71.76672 -7.65858,-3.48946 -23.70996,-8.65237 -23.70996,-8.65237 -7.73135,-16.84962 -22.38214,-48.59956 -20.42337,-61.75634 0.0246,-0.16538 2.0601,-1.2006 2.21987,-1.35801 z" style="display:inline;fill-opacity:1;fill-rule:evenodd;fill:#4d4d4d;stroke-dasharray:none;stroke-linecap:butt;stroke-linejoin:miter;stroke-miterlimit:4;stroke-opacity:0;stroke-width:3;stroke:#000000"/></svg>
