<svg viewBox="0 0 560 1000"><path d="m 283.66521,456.38067 c -1.54841,0.73859 -1.78928,15.78672 -9.24659,11.14886 -5.5459,3.1603 -10.12915,-4.94173 -10.42429,-8.4126 -0.25114,-2.95343 3.37748,-7.20053 3.87403,-6.51846 2.14579,-0.003 16.30971,2.85987 15.79685,3.7822 z" class="shadow" id="path3198" sodipodi:nodetypes="ccscc" inkscape:label="#PussyshadowN"/><path d="m 274.36595,467.58332 c -3.81452,2.31718 -9.64064,-2.27902 -10.8644,-11.68664 5.95334,-21.67633 25.49385,-8.31185 20.23612,0.35499 -2.87984,4.74713 -3.52005,14.37508 -9.37172,11.33165 z" class="skin torso" id="path3200" sodipodi:nodetypes="ccsc" inkscape:label="#PussyN"/><path sodipodi:nodetypes="ccsssssscsc" id="path3202" d="m 348.04007,404.56705 c 0.8928,1.03783 2.36114,4.19485 2.36114,4.19485 -8.19048,4.90102 -37.06099,18.24769 -49.49598,28.75086 -4.31136,3.64157 -13.47661,8.29154 -16.37051,16.44054 -2.5916,7.29773 -3.38661,17.01008 -9.75403,14.37033 -0.12708,-0.0527 -0.25389,-0.22936 -0.38798,-0.17253 -3.64553,1.54503 -9.35333,-0.74065 -11.22863,-12.26551 -2.95293,-18.14755 -12.84146,-17.24873 -13.71165,-17.80621 -12.60056,-8.07247 -21.3889,-19.81687 -24.85362,-25.1259 0.0593,-0.70684 4.38552,-10.43066 4.38552,-10.43066 30.95156,34.29024 95.73566,8.25021 119.05574,2.04423 z" style="display:inline;fill-opacity:1;fill-rule:evenodd;fill:#000000;opacity:1;stroke-dasharray:none;stroke-linecap:butt;stroke-linejoin:miter;stroke-miterlimit:4;stroke-opacity:1;stroke-width:0;stroke:#000000"/><path sodipodi:nodetypes="ccssssssscsc" id="path3204" d="m 348.09137,404.41002 c 0.8928,1.03783 7.65296,10.61427 7.65296,10.61427 -8.19048,4.90102 -42.72781,14.82827 -55.1628,25.33144 -4.31136,3.64157 -11.26256,9.46273 -16.37051,16.44054 -0.27428,0.37469 -0.68811,0.67278 -0.81935,1.10672 -3.57923,11.83428 -8.32513,9.8537 -8.89431,9.63462 -0.17013,-0.0655 -6.10005,2.75363 -10.61356,-7.80676 -0.19489,-0.456 -0.68412,-0.47689 -1.06552,-0.9139 -12.08963,-13.85259 -12.81936,-17.33712 -13.68955,-17.8946 -12.60056,-8.07247 -21.8889,-21.94187 -25.35362,-27.2509 0.0593,-0.70684 5.26052,-10.68066 5.26052,-10.68066 29.7895,36.10978 96.86066,8.37521 119.05574,1.41923 z" style="display:inline;fill-opacity:1;fill-rule:evenodd;fill:#c837ab;opacity:1;stroke-dasharray:none;stroke-linecap:butt;stroke-linejoin:miter;stroke-miterlimit:4;stroke-opacity:1;stroke-width:0;stroke:#000000"/><path style="display:inline;fill-opacity:1;fill-rule:evenodd;fill:#ffffff;opacity:1;stroke-dasharray:none;stroke-linecap:butt;stroke-linejoin:miter;stroke-miterlimit:4;stroke-opacity:1;stroke-width:0;stroke:#000000" d="m 336.64967,423.6121 c 0.60089,-0.41225 1.13199,-0.59213 2.54356,-1.3377 -1.0628,-4.12041 -4.37123,-12.28078 -5.0678,-13.31985 -0.7862,0.0327 -1.83855,0.6871 -1.83855,0.6871 2.88662,6.66143 3.12331,7.97246 4.36279,13.97045 z" id="path3206" sodipodi:nodetypes="ccccc"/><path style="display:inline;fill-opacity:1;fill-rule:evenodd;fill:#000000;opacity:1;stroke-dasharray:none;stroke-linecap:butt;stroke-linejoin:miter;stroke-miterlimit:4;stroke-opacity:1;stroke-width:0;stroke:#000000" d="m 368.45236,268.83602 c 0.40069,1.40387 0.82871,12.89967 -6.36035,37.77919 -5.42713,18.7819 -17.12167,31.6625 -17.71805,33.12058 -6.03534,8.96911 -15.45846,21.82266 -9.52924,38.69515 -33.59892,9.83464 -85.2698,13.19244 -93.43445,-5.62484 2.433,-12.49684 2.06627,-18.80217 2.23754,-34.00531 0.24452,-21.70551 -6.08737,-33.66342 -6.98584,-46.20078 0.40962,-35.13389 30.30326,-40.0847 52.38713,-59.43686 0.97617,-2.02088 1.87249,-19.70311 -12.03774,-26.98259 -0.63873,-0.33426 5.30782,-3.06919 9.83235,-5.47153 9.24713,11.38115 25.18214,3.12903 31.26177,-2.13928 1.50252,1.12706 9.10193,4.89722 7.88644,5.69617 -25.72677,16.91039 -30.9022,28.84774 -29.45936,29.06832 3.13994,1.52155 66.54554,33.43249 67.65165,34.25705 z" id="path2268-8" sodipodi:nodetypes="cscccsccsccsccc"/><path style="display:inline;fill-opacity:1;fill-rule:evenodd;fill:#c837ab;opacity:1;stroke-dasharray:none;stroke-linecap:butt;stroke-linejoin:miter;stroke-miterlimit:4;stroke-opacity:1;stroke-width:0;stroke:#000000" d="m 368.47602,268.56519 c -0.47811,3.70196 -1.71839,20.80284 -7.95729,39.14162 -6.28969,18.48806 -15.58504,28.98279 -16.48061,30.27591 -7.21871,10.42316 -10.74943,15.63218 -11.76336,26.60223 -0.75365,8.15394 0.0371,7.00194 1.81456,13.74489 -31.15729,6.94181 -79.55234,13.8184 -92.15471,-5.49235 2.40743,-12.49684 2.93231,-28.9245 3.10178,-31.79865 1.27707,-21.66848 -5.53672,-33.8742 -6.42575,-46.41156 -3.37265,-53.10898 11.96331,-79.40858 38.32548,-88.64617 0.49229,-0.51848 5.43756,-2.25669 9.91452,-4.65903 9.14993,11.38115 24.91744,3.12903 30.93316,-2.13928 1.48672,1.12706 18.23182,7.00546 18.7637,8.34782 44.27723,0.50597 34.15478,57.22035 31.92852,61.03457 z" id="path2270-2" sodipodi:nodetypes="csssccscccccc"/></svg>
