<svg viewBox="0 0 560 1000"><path id="path2855" d="m 226,413.2 c 0,0 -17.1,47.4 -18.7,71.7 -3.8,60.3 16.3,123.8 38.4,179.8 7.5,61.7 6.2,123.3 8.8,185.4 l 11.5,-0.3 c 2.2,-51.3 34,-103.9 16.3,-161.5 12.8,-54.2 10,-72.4 5,-160.3 -5.4,94.3 16.6,109.1 26.4,153.5 -15.6,58 5.6,110.9 6.4,169 h 16.3 c 0.2,-58.5 15.6,-94.7 7.8,-169 23.8,-69.9 25.5,-131.2 20.7,-194.7 -2,-26 -14.5,-75.6 -14.5,-75.6 l -124.4,2" style="fill-opacity:1;fill:#808080"/><path id="path2857" class="shadow" d="m 293.9,619.8 c -9.8,-40.3 -22.5,-96.7 -18.5,-142.8 -0.8,44.7 9.4,102.1 18.5,142.8 z"/><path d="m 226.3,412.5 c 27.9,-30 93.7,-36.4 123.8,-1.4 18.2,21.2 25.4,60.2 7,78.9 -8.2,8.3 -22.1,13.3 -35,11 -24.2,-4.4 -25.9,-31.9 -47.3,-34.5 C 256.7,464.3 248.5,483 231,478 220.9,475.1 221.28701,468.07973 218.48701,460.07973 216.5943,437.63189 223.7,415.2 226.3,412.5 Z" id="Stump_Normal-3-6-5-3" sodipodi:nodetypes="cccccccc" style="fill-opacity:1;fill:#808080"/><path d="m 226.3,412.5 c 20,-34.8 104.4,-37.1 124,-1.5 11.9,21.7 1.4,60.5 -22.3,72 -0.8,0.4 -20.2,9.5 -34,1 -9.5,-5.8 -10.3,-16.2 -19.3,-17.5 -6.4,-1 -8.4,3.9 -17.8,5.5 -9.2,1.5 -18.7,-1.3 -24,-5 -14.1,-9.8 -16,-38.2 -6.6,-54.5 z" id="Stump_Narrow-10-3-0-1" style="fill-opacity:1;fill:#808080"/><path style="display:inline;fill-opacity:1;fill:#b3b3b3;stroke-width:0.94552505" sodipodi:nodetypes="cssssccccssssssssccccssssssssccccsssssscccsc" id="path2496-4-8-3" d="m 333.83345,829.57196 c -0.14663,-9.66929 0.35555,-28.36645 0.94632,-49.37836 0.008,-0.27199 7.7397,0.2662 7.77299,-0.005 0.48863,-3.97529 1.23025,-8.4699 1.47091,-12.74908 0.014,-0.24939 -9.03788,-0.52095 -9.03094,-0.77088 0.92867,-33.42349 1.91472,-69.16605 0.67629,-82.22479 -0.0124,-0.13082 8.85263,-0.0201 8.83978,-0.14633 -0.12857,-1.01983 -0.18488,-2.52394 -0.23143,-2.77868 0.0562,-0.33413 1.56341,-4.32082 1.61421,-5.17952 -0.31027,0.031 -4.98333,-0.0112 -10.06018,-0.0459 -0.0571,-3.9e-4 -4.47394,-21.7108 -9.85609,-51.70886 -0.0819,-0.4566 33.36628,-0.23153 33.48626,-0.68358 1.10649,-4.16901 2.16378,-10.86103 2.51407,-13.76329 0.0548,-0.45421 -38.65695,0.92048 -38.73532,0.46735 -3.92457,-22.69154 -8.06569,-48.8678 -11.23216,-73.37227 -0.059,-0.45669 55.50731,-0.53781 55.44898,-0.99331 -0.6969,-5.44218 -0.21938,-12.92171 -0.80428,-18.13164 -0.0654,-0.58254 -56.88001,0.58673 -56.94383,0.008 -4.30542,-44.85649 20.34751,-62.50771 47.42197,-97.35999 -1.87036,-3.6521 -4.94006,-7.41913 -5.65461,-8.06776 -35.66653,39.36299 -56.01145,63.58966 -53.27367,105.95096 0.0315,0.32654 -21.21062,0.0864 -21.17856,0.41335 0.6152,6.27414 1.57776,13.19592 2.38557,19.57017 0.0404,0.31888 20.05497,-1.30675 20.0958,-0.98778 3.22921,25.22594 8.11642,51.41496 12.49448,73.35846 0.0521,0.2611 -20.02785,1.59665 -19.97578,1.85681 0.93429,4.66834 2.38896,10.06337 3.74254,14.3937 0.0812,0.25991 19.02723,-2.2962 19.08318,-2.03116 6.354,30.09637 11.78578,51.00052 11.7006,50.99983 -6.89693,-0.0557 -13.26536,-0.0886 -14.13202,-0.003 0.11519,0.90904 0.95291,4.79238 1.10496,5.22553 -0.0321,0.25866 -0.28734,1.68336 -0.50822,2.6519 -0.003,0.14114 14.24229,0.47847 14.23883,0.63242 -0.22573,10.06683 -0.96754,47.2983 -1.60548,81.40691 -0.006,0.29528 -14.87724,-0.0282 -14.86578,0.26649 0.1815,4.66593 1.69195,11.66948 1.88143,13.87257 0.0329,0.38299 12.97967,-0.11608 12.97302,0.26635 -0.40944,23.55211 -1.02271,43.63116 -0.85286,48.89443 0.0115,0.35502 -5.8584,0.94802 -5.80737,1.30181 0.75002,5.19982 1.28341,15.05954 1.14876,19.76236 8.60784,0.43817 16.69164,-0.0977 16.69164,-0.0977 l 0.41703,-20.31547 c 0,0 -3.39525,-0.12455 -3.40103,-0.50581 z"/><path style="display:inline;fill-opacity:1;fill:#b3b3b3;stroke-width:0.94552505" sodipodi:nodetypes="csssscccssssssssccccsssssssscccsssssscccsc" id="path2496-4-8-1-5" d="m 261.34979,828.41197 c -0.14663,-9.66929 -0.43995,-27.92451 0.15082,-48.93642 0.008,-0.27199 18.2852,0.57426 18.31849,0.30306 0.48863,-3.97529 2.48025,-8.40741 2.72091,-12.68659 0.014,-0.24939 -20.91288,-1.33345 -20.90594,-1.58338 0.92867,-33.42349 2.87811,-68.90088 1.63968,-81.95962 -0.0124,-0.13082 20.11457,0.59807 20.10172,0.47184 0.36305,-3.06002 1.48471,-5.58141 1.69972,-8.26702 -0.45962,0.0459 -11.84706,-0.3802 -21.07378,-0.57372 -0.13282,-0.003 -5.60967,-19.75671 -11.62009,-48.10947 -0.0524,-0.24702 39.03918,0.40626 39.03365,0.15248 -0.0191,-0.87711 0.12825,-10.58476 0.0721,-14.05315 -0.006,-0.3586 -41.78602,-0.0427 -41.85634,-0.39634 -4.32175,-21.73601 -7.98069,-48.60806 -10.36748,-72.93168 -0.0693,-0.70655 38.7663,0.11576 38.70005,-0.58998 -0.61943,-6.59885 -1.76838,-12.68028 -2.25804,-20.0163 -0.0359,-0.53741 -37.22772,1.33721 -37.25143,0.80073 2.10374,-62.22402 -12.28128,-98.37232 -14.50041,-102.35381 0.32286,-2.75119 -4.28397,13.19069 -4.34148,15.58668 5.96498,25.16653 8.49118,40.70609 8.7453,86.54831 0.0172,0.26978 -20.79172,1.17969 -20.77418,1.44939 0.41576,6.3906 1.6836,13.84979 2.28365,20.15297 0.0261,0.27445 20.12868,-1.18423 20.15512,-0.91003 2.53365,26.27891 6.48389,51.42835 10.40786,72.61996 0.0348,0.18808 -12.96762,1.03878 -12.93279,1.22626 0.89561,4.82061 3.207,10.23867 4.44306,13.65968 0.0866,0.23979 10.97215,-0.60565 11.02226,-0.35714 5.78934,28.70444 11.1295,47.33723 10.91288,47.33477 -2.97529,-0.0338 -6.69675,-0.0843 -7.22271,-0.0321 0.12826,1.42381 0.84039,7.3504 1.12708,8.76131 -0.003,0.14114 6.99444,-0.31705 6.99098,-0.16307 -0.22573,10.06683 0.90746,47.4233 0.26952,81.53191 -0.006,0.29528 -2.87724,-0.0282 -2.86578,0.26649 0.1815,4.66593 0.067,11.60699 0.25643,13.81008 0.0329,0.38299 2.13515,-0.26702 2.13723,0.11546 0.0325,5.96283 0.92184,43.71955 1.09169,48.98282 0.0115,0.35502 -1.97739,1.22001 -1.9647,1.57724 0.1313,3.69722 0.62272,15.40283 0.48807,20.10565 8.60784,0.43817 12.00706,-0.36287 12.00706,-0.36287 0.21814,-6.83383 1.09665,-13.44754 2.00802,-20.0503 0,0 -6.8424,-0.74327 -6.84818,-1.12453 z"/></svg>
