<svg viewBox="0 0 560 1000"><path sodipodi:nodetypes="cscccsssssscscccscsscsccc" id="path6021" d="m 368.45236,268.83602 c 0.40069,1.40387 0.82871,12.89967 -6.36035,37.77919 -5.42713,18.7819 -14.38164,31.75089 -14.97802,33.20897 -8.09549,12.99543 0.20494,58.31464 1.6077,65.38842 0,0 -51.36105,9.85807 -62.87027,38.19544 -2.06147,4.01155 -2.1084,11.81811 -3.46792,16.10443 -0.27859,0.87834 -1.00697,6.35332 -3.50565,8.26757 -0.26944,0.20641 -1.13656,1.14752 -4.58251,0.28177 -0.17413,-0.0437 -1.37345,0.71664 -3.61847,0.0361 -5.83439,-1.76869 -6.66978,-8.86034 -6.76649,-9.28816 -1.98539,-8.78313 -6.24957,-28.02971 -9.43291,-34.24779 -14.19124,-27.72004 -27.39251,-9.19794 -28.70035,-11.53427 0.30582,-1.66444 7.73907,-25.86552 11.14917,-45.31899 3.69422,-21.07431 2.75764,-39.45668 5.3073,-51.005 -0.10903,-0.84586 -3.78927,-7.67724 -5.57162,-24.10369 0.40962,-35.13389 30.30326,-40.0847 52.38713,-59.43686 0.97617,-2.02088 1.33144,-19.1014 -12.57879,-26.38088 -0.63873,-0.33426 5.84887,-3.6709 10.3734,-6.07324 6.38934,-8.53563 6.28943,-17.66786 6.94018,-18.6306 3.41216,-5.04803 16.1975,-13.69689 18.64392,-8.17393 0.28194,0.63651 0.65372,17.25759 5.67767,24.66525 1.50252,1.12706 9.10193,4.89722 7.88644,5.69617 -25.72677,16.91039 -30.9022,28.84774 -29.45936,29.06832 3.13994,1.52155 66.54554,33.43249 67.65165,34.25705 z" style="display:inline;fill-opacity:1;fill-rule:evenodd;fill:#000000;opacity:1;stroke-dasharray:none;stroke-linecap:butt;stroke-linejoin:miter;stroke-miterlimit:4;stroke-opacity:1;stroke-width:0;stroke:#000000"/><path sodipodi:nodetypes="cssssccsssccsscssccssccscsc" id="path6023" d="m 368.55336,268.57624 c -0.008,0.0651 -0.0944,0.12326 -0.10329,0.19656 -0.49732,4.09604 -1.80213,20.91765 -7.93134,38.93401 -6.28969,18.48806 -13.44374,28.43697 -15.0664,32.92756 -1.49967,4.15024 -4.23654,10.9826 -3.98518,21.38732 0.2199,9.10274 7.74892,46.49363 9.7032,50.85009 -40.10653,11.44456 -65.329,43.75937 -66.10067,46.09714 -0.78385,1.88787 -3.29932,8.5329 -5.79622,10.31331 -1.21712,0.86786 -4.8236,-0.18577 -5.07554,-0.20987 -0.29397,-0.0276 -1.12355,0.44604 -3.33637,-0.1263 -5.65546,-1.4629 -9.47467,-5.19754 -10.04678,-7.14824 -18.43111,-29.49711 -30.55976,-47.06584 -35.28517,-48.25479 6.35688,-20.66495 13.89397,-45.93932 14.10692,-51.13537 0.81644,-19.92146 3.469,-42.18238 3.6321,-45.0569 0.21641,-3.81403 -3.76895,-10.18612 -4.65798,-22.72348 -1.84282,-29.01893 6.12989,-55.53045 15.23671,-70.20607 3.56218,-5.74045 12.34388,-12.87297 12.49602,-13.03103 0.38744,-0.40252 10.4025,-5.23785 10.59275,-5.40907 0.49229,-0.51848 5.43756,-2.25669 9.91452,-4.65903 7.20794,-6.48478 6.35437,-16.82837 7.43106,-16.92645 10.85789,-0.98906 11.61293,-7.93955 16.99504,-8.1695 0.95246,-0.0407 0.12106,13.11049 6.50706,22.95667 1.48672,1.12706 18.38807,6.09921 18.91995,7.44157 0.16579,0.0672 10.36774,1.98587 11.99832,2.67358 10.59091,4.46683 18.74373,19.37238 18.69398,19.83138 1.76822,2.98105 2.39976,13.65864 2.50353,22.43206 0.1031,8.7164 -1.23817,16.79895 -1.34622,17.01485 z" style="display:inline;fill-opacity:1;fill-rule:evenodd;fill:#ececec;opacity:1;stroke-dasharray:none;stroke-linecap:butt;stroke-linejoin:miter;stroke-miterlimit:4;stroke-opacity:1;stroke-width:0;stroke:#000000"/><path style="display:inline;fill-opacity:1;fill-rule:nonzero;fill:#000000;opacity:1;stroke-dasharray:none;stroke-dashoffset:0;stroke-linecap:round;stroke-linejoin:bevel;stroke-miterlimit:4;stroke-opacity:1;stroke-width:0;stroke:#000000;vector-effect:none" d="m 337.64352,257.62623 c 0,12.05744 -9.65838,21.12482 -22.00872,21.12481 -12.35032,-10e-6 -19.88736,-8.1835 -19.88736,-20.24093 0,-12.05743 7.18349,-22.00869 19.53381,-22.0087 12.35034,-1e-5 22.36227,9.06737 22.36227,21.12482 z" id="path1626-5" sodipodi:nodetypes="sssss"/><path style="display:inline;fill-opacity:1;fill-rule:nonzero;fill:#800000;opacity:1;stroke-dasharray:none;stroke-dashoffset:0;stroke-linecap:round;stroke-linejoin:bevel;stroke-miterlimit:4;stroke-opacity:1;stroke-width:0;stroke:#000000;vector-effect:none" d="m 335.88464,257.47534 c 0,11.11008 -8.8643,19.46505 -20.19925,19.46504 -11.33492,-1e-5 -18.25229,-7.54053 -18.25229,-18.65061 0,-11.11007 6.59289,-20.27947 17.92781,-20.27948 11.33495,-1e-5 20.52373,8.35496 20.52373,19.46505 z" id="path1626-1-9" sodipodi:nodetypes="sssss"/><path style="display:inline;fill-opacity:1;fill-rule:nonzero;fill:#000000;opacity:1;stroke-dasharray:none;stroke-dashoffset:0;stroke-linecap:round;stroke-linejoin:bevel;stroke-miterlimit:4;stroke-opacity:1;stroke-width:0;stroke:#000000;vector-effect:none" d="m 332.13464,257.85034 c 0,1.07575 -0.1163,3.28388 -0.22379,4.24996 -4.84718,-0.34911 -11.93835,-0.85256 -13.51634,-0.93559 0.12383,0.70926 0.8116,7.39477 1.67901,12.94663 -0.74707,0.0528 -4.2098,0.079 -5.01313,0.079 -0.74773,0 -3.45666,-0.2094 -4.12864,-0.2536 0.72554,-4.50941 1.98264,-11.92327 1.97052,-12.70919 -0.86746,-0.004 -6.83155,0.66357 -11.67213,1.11013 -0.0324,-0.79201 0.078,-3.43283 0.078,-4.29795 0,-1.08475 0.0223,-3.42179 0.0732,-4.38754 3.97131,0.6151 10.06547,1.47574 11.16789,1.36756 -0.44591,-2.06727 -0.53984,-7.0986 -1.49337,-12.69678 0.90273,-0.0839 2.87765,-0.18772 3.9301,-0.18772 1.08,0 3.92238,0.1043 4.90189,0.18956 -0.48493,3.32213 -0.8388,10.9689 -1.0758,12.58219 2.08648,-0.3006 7.95423,-0.8584 13.18238,-1.44686 0.0518,0.68473 0.1403,3.64793 0.1403,4.39016 z" id="path1626-1-2-2" sodipodi:nodetypes="cccccccccccccccccc"/><path style="display:inline;fill-opacity:1;fill-rule:nonzero;fill:#ececec;opacity:1;stroke-dasharray:none;stroke-dashoffset:0;stroke-linecap:round;stroke-linejoin:bevel;stroke-miterlimit:4;stroke-opacity:1;stroke-width:0;stroke:#000000;vector-effect:none" d="m 330.9856,257.7809 c 0,1.0105 -0.23732,2.22232 -0.33744,3.12979 -0.40686,0.086 -0.65494,-0.86561 -1.0922,-0.86629 -4.32188,-0.007 -10.40707,0.23321 -11.74164,0.16229 0.10665,0.61614 -0.30227,6.684 -0.14503,11.64862 0.0128,0.40372 0.77813,0.80469 0.79361,1.20013 -0.69575,0.0495 -2.63052,0.0743 -3.37867,0.0743 -0.69637,0 -2.05814,-0.19671 -2.68395,-0.23821 0.0343,-0.38364 0.81933,-0.65826 0.85234,-1.08207 0.32779,-4.20795 0.6445,-11.02921 0.63423,-11.6999 -0.72233,-0.004 -5.99296,-0.14362 -10.14198,-0.25347 -0.49125,-0.013 -0.93459,0.77059 -1.41185,0.76022 -0.0301,-0.74396 -0.0564,-1.8448 -0.0564,-2.65745 0,-1.01894 -0.0223,-2.17936 0.0251,-3.08654 0.48622,0.0262 0.92982,0.97904 1.48839,1.0021 3.49265,0.1442 8.86322,0.0109 9.74835,-0.0767 -0.0648,-1.64989 -0.29294,-7.71904 -0.44407,-11.42887 -0.0149,-0.36563 -0.73657,-0.71532 -0.75065,-1.04397 0.84072,-0.0788 1.6909,-0.30569 2.67108,-0.30569 1.0058,0 2.70687,0.0548 3.61908,0.13494 -0.0129,0.37951 -0.64754,0.86406 -0.66542,1.34775 -0.13115,3.54845 0.0946,9.94717 0.16523,11.24286 1.79477,-0.0218 6.69443,0.29048 11.3364,0.0814 0.38375,-0.0173 0.92043,-0.98566 1.29879,-1.00482 0.0483,0.64319 0.21667,2.26244 0.21667,2.95965 z" id="path1626-1-2-0-43" sodipodi:nodetypes="ccccscccscscccscscccscsccc"/><path style="display:inline;fill-opacity:1;fill-rule:nonzero;fill:#000000;opacity:1;stroke-dasharray:none;stroke-dashoffset:0;stroke-linecap:round;stroke-linejoin:bevel;stroke-miterlimit:4;stroke-opacity:1;stroke-width:0;stroke:#000000;vector-effect:none" d="m 319.79428,257.64898 c -1.27548,1.74405 -2.39556,3.08262 -3.93289,4.49761 -1.7765,-1.68029 -2.29676,-2.34954 -3.85126,-4.31466 1.07619,-1.43453 2.21492,-2.91493 3.62931,-4.55558 1.89608,1.54764 2.48077,2.27482 4.15484,4.37263 z" id="path1626-1-7-38" sodipodi:nodetypes="ccccc"/><path style="display:inline;fill-opacity:1;fill-rule:nonzero;fill:#ffffff;opacity:1;stroke-dasharray:none;stroke-dashoffset:0;stroke-linecap:round;stroke-linejoin:bevel;stroke-miterlimit:4;stroke-opacity:1;stroke-width:0;stroke:#000000;vector-effect:none" d="m 319.26303,257.68134 c -1.09114,1.49521 -2.04934,2.64278 -3.36449,3.85587 -1.51975,-1.44053 -1.96482,-2.0143 -3.29467,-3.69904 0.92067,-1.22983 1.89482,-2.49901 3.1048,-3.90557 1.62205,1.32682 2.12224,1.95025 3.55436,3.74874 z" id="path1626-1-7-8-7" sodipodi:nodetypes="ccccc"/><path style="display:inline;fill-opacity:1;fill-rule:nonzero;fill:#800000;opacity:1;stroke-dasharray:none;stroke-dashoffset:0;stroke-linecap:round;stroke-linejoin:bevel;stroke-miterlimit:4;stroke-opacity:1;stroke-width:0;stroke:#000000;vector-effect:none" d="m 317.40987,258.40558 c 0,0.90125 -0.70487,1.57899 -1.6062,1.57899 -0.90133,0 -1.45138,-0.61168 -1.45138,-1.51293 0,-0.90124 0.34748,-2.57314 2.33156,-2.66153 -2.45743,2.43068 0.72602,1.69422 0.72602,2.59547 z" id="path1626-1-8-3" sodipodi:nodetypes="ssscs"/></svg>
