<svg viewBox="0 0 560 1000"><path style="display:inline;fill-opacity:1;fill-rule:evenodd;fill:#eeaaff;opacity:1;stroke-dasharray:none;stroke-linecap:butt;stroke-linejoin:miter;stroke-miterlimit:4;stroke-opacity:1;stroke-width:0;stroke:#000000" d="m 362.3043,413.36134 c -51.41983,14.7906 -68.20816,27.42745 -79.17838,44.98517 -1.04023,1.75909 -1.92047,7.35117 -4.50173,9.70959 -0.97785,0.89343 -3.70051,-0.0277 -4.03805,0.0431 -0.91345,0.19159 -2.09488,0.29968 -2.84109,0.24274 -1.3589,-0.10369 -3.10427,-0.97079 -4.62926,-2.64607 -1.15035,-1.26373 -2.1753,-2.98733 -2.81436,-5.19001 -7.02893,-7.18923 -29.10352,-25.91869 -38.34145,-47.86102 0.0176,-0.005 -0.05,-0.20603 0.59439,-1.93851 29.91996,7.91079 50.09635,9.90066 135.84413,-2.71761 0,0 -0.0757,5.36388 -0.0942,5.37262 z" id="path5930" sodipodi:nodetypes="ccssssccccc"/><path style="display:inline;fill-opacity:1;fill:#eeaaff;stroke-dasharray:none;stroke-linecap:butt;stroke-linejoin:miter;stroke-miterlimit:4;stroke-opacity:1;stroke-width:0;stroke:#83afc8" d="m 225.9378,412.66104 c 0.12717,-0.79329 0.24724,-0.90642 0.25482,-0.95601 23.02972,9.12926 67.15581,11.20593 136.30217,-3.19252 0.0291,0.083 -0.0614,2.65341 -0.12368,3.64552 -43.51258,9.82623 -92.34712,16.57336 -133.4589,6.0264 -0.19646,-0.18478 -2.83934,-5.37591 -2.97441,-5.52339 z" id="path5932" sodipodi:nodetypes="cccccc"/><path style="display:inline;fill-opacity:1;fill-rule:evenodd;fill:#000000;opacity:1;stroke-dasharray:none;stroke-linecap:butt;stroke-linejoin:miter;stroke-miterlimit:4;stroke-opacity:1;stroke-width:0;stroke:#000000" d="m 282.94456,458.76549 c -0.0483,0.15247 -0.11284,0.47208 -0.19954,0.90622 -0.41277,2.06685 -1.81439,6.53069 -3.87757,8.11265 -0.26921,0.20642 -1.13559,1.14752 -4.57861,0.28177 -0.17398,-0.0437 -2.18026,1.1699 -4.2783,0.12449 -4.65827,-2.32112 -6.22252,-8.10904 -6.31915,-8.53686 3.82592,9.08132 8.89939,9.3147 10.40315,7.55401 5.26837,2.79873 7.50839,-4.81217 8.85002,-8.44228 z" id="path5934" sodipodi:nodetypes="cssssccc"/><path sodipodi:nodetypes="ccccc" id="path5936" d="m 234.60256,427.93872 c 16.19921,3.4137 52.20455,5.49343 83.62918,1.15618 -1.10723,0.72649 -7.93695,3.83634 -12.55858,6.92817 -26.13262,3.68145 -53.86584,2.2702 -65.20689,-0.14293 -1.89388,-2.48871 -3.84503,-4.66458 -5.86371,-7.94142 z" style="display:inline;fill-opacity:1;fill:#eeaaff;stroke-dasharray:none;stroke-linecap:butt;stroke-linejoin:miter;stroke-miterlimit:4;stroke-opacity:1;stroke-width:0;stroke:#83afc8"/><path sodipodi:nodetypes="cccccc" id="path5938" d="m 247.95327,444.36444 c 10.94342,1.31488 29.77745,1.94201 46.09521,0.52033 -1.56759,2.01272 -4.3557,4.42382 -6.01534,6.52233 -12.30604,1.16431 -24.74234,1.19698 -32.55913,0.50178 -2.13773,-1.85907 -5.40225,-4.9733 -7.52074,-7.54493 z" style="display:inline;fill-opacity:1;fill:#eeaaff;stroke-dasharray:none;stroke-linecap:butt;stroke-linejoin:miter;stroke-miterlimit:4;stroke-opacity:1;stroke-width:0;stroke:#83afc8"/><path sodipodi:nodetypes="ccccc" id="path5940" d="m 262.53421,458.18295 c 6.22871,0.31514 13.08896,0.30377 20.72809,-0.0971 -0.87505,2.4389 -1.64015,4.66739 -2.42955,6.53665 -5.25319,0.34928 -9.97649,0.47387 -14.24234,0.41152 -1.68576,-1.69159 -2.0194,-4.59693 -4.0562,-6.85107 z" style="display:inline;fill-opacity:1;fill:#eeaaff;stroke-dasharray:none;stroke-linecap:butt;stroke-linejoin:miter;stroke-miterlimit:4;stroke-opacity:1;stroke-width:0;stroke:#83afc8"/><path style="display:inline;fill-opacity:1;fill:#eeaaff;stroke-dasharray:none;stroke-linecap:butt;stroke-linejoin:miter;stroke-miterlimit:4;stroke-opacity:1;stroke-width:0;stroke:#83afc8" d="m 271.02081,416.82683 c -0.40499,0.0203 -2.65956,0.56808 -4.1375,-0.83724 -4.16958,-3.96471 -10.17596,-9.87921 -10.68888,-9.8703 -4.579,14.03976 6.16335,16.1551 5.27505,17.72345 2.40799,0.6564 7.98463,6.14075 21.22352,-0.42033 -1.20838,-1.7332 10.55044,-3.69019 5.51126,-16.9532 -1.34763,0.35186 -8.56003,6.49771 -13.30543,9.96822 -1.31933,0.96489 -3.20132,0.3151 -3.87831,0.38931 z" id="path5853-4" sodipodi:nodetypes="csccccscc"/><path style="display:inline;fill-opacity:1;fill:#000000;stroke-dasharray:none;stroke-linecap:butt;stroke-linejoin:miter;stroke-miterlimit:4;stroke-opacity:1;stroke-width:0;stroke:#000000" d="m 369.9838,421.84455 c 0,0 0.90522,-3.71477 1.23561,-3.80327 -1.21534,-3.75726 -8.84438,-7.8256 -8.90737,-7.95693 -10.52727,-21.94918 14.2534,-0.93604 1.17112,0.59258 0.0295,-0.17605 0.20585,0.63851 0.20585,0.63851 18.06723,-2.3882 -15.05115,-26.45838 -1.90037,-1.10352 0.0103,0.0448 6.48299,6.86889 8.19516,11.63263 z" id="path4332-3-5" sodipodi:nodetypes="ccscccc"/><path style="display:inline;fill-opacity:1;fill:#eeaaff;stroke-dasharray:none;stroke-linecap:butt;stroke-linejoin:miter;stroke-miterlimit:4;stroke-opacity:1;stroke-width:0;stroke:#000000" d="m 370.22685,421.61734 c 0,0 0.90522,-3.71476 1.2356,-3.80326 -1.21533,-3.75726 -8.84466,-7.82546 -8.90736,-7.95694 -10.51953,-22.05892 14.79918,-0.81495 1.17111,0.59259 0.0295,-0.17605 0.20585,0.63851 0.20585,0.63851 18.59901,-2.19315 -16.36615,-26.99934 -1.90036,-1.10352 0.0103,0.0448 6.48298,6.86889 8.19516,11.63262 z" id="path4334-7-3" sodipodi:nodetypes="ccscccc"/><path style="display:inline;fill-opacity:1;fill:#000000;stroke-dasharray:none;stroke-linecap:butt;stroke-linejoin:miter;stroke-miterlimit:4;stroke-opacity:1;stroke-width:0;stroke:#000000" d="m 363.38338,411.57416 c 0,0 -0.0402,-0.24272 -0.17351,-0.71431 -20.6074,7.681 -6.89527,-22.17686 -0.16577,-1.60176 0.0252,0.077 -3.37763,8.23048 -2.89317,10.45879 0.66187,-0.20196 3.10181,4.16632 3.10181,4.16632 -1.2295,-5.89337 0.27249,-14.69057 0.24656,-14.77148 -8.33078,-25.98859 -23.21991,14.23924 -0.11586,2.46243 z" id="path4336-6-1" sodipodi:nodetypes="ccsccscc"/><path style="display:inline;fill-opacity:1;fill:#eeaaff;stroke-dasharray:none;stroke-linecap:butt;stroke-linejoin:miter;stroke-miterlimit:4;stroke-opacity:1;stroke-width:0;stroke:#000000" d="m 363.62643,411.34697 c 0,0 -0.0402,-0.24273 -0.17352,-0.71432 -20.56708,7.61314 -6.91981,-22.94111 -0.16578,-1.60175 0.0244,0.0772 -3.37763,8.23048 -2.89316,10.45878 0.66187,-0.20195 3.10181,4.16632 3.10181,4.16632 -1.22951,-5.89336 0.27401,-14.69108 0.24655,-14.77148 -9.06764,-26.54947 -23.333,14.16775 -0.11586,2.46243 z" id="path4338-4-5" sodipodi:nodetypes="ccsccscc"/><path style="display:inline;fill-opacity:1;fill:#000000;stroke-dasharray:none;stroke-linecap:butt;stroke-linejoin:miter;stroke-miterlimit:4;stroke-opacity:1;stroke-width:0;stroke:#000000" d="m 221.6569,423.82583 c 0,0 -1.4474,-3.53892 -1.78727,-3.57732 0.64327,-3.89619 7.58295,-9.05339 7.6255,-9.19269 5.56195,-18.20892 -10.27027,2.44141 -1.07001,0.76009 -0.0553,-0.16971 -0.10864,0.66202 -0.10864,0.66202 -12.47444,1.36473 9.0497,-22.8518 1.7152,-1.37377 -0.004,0.0458 -5.38981,7.75633 -6.37478,12.72167 z" id="path4332-3-9-2" sodipodi:nodetypes="ccscccc"/><path style="display:inline;fill-opacity:1;fill:#eeaaff;stroke-dasharray:none;stroke-linecap:butt;stroke-linejoin:miter;stroke-miterlimit:4;stroke-opacity:1;stroke-width:0;stroke:#000000" d="m 221.38278,423.63728 c 0,0 -1.4474,-3.53891 -1.78727,-3.57732 0.64327,-3.89618 7.57588,-9.05573 7.6255,-9.1927 6.47204,-17.86415 -10.93432,2.02596 -1.07,0.76011 -0.0554,-0.16971 -0.10864,0.66201 -0.10864,0.66201 -13.43477,2.55476 10.70651,-23.48257 1.71519,-1.37376 -0.004,0.0458 -5.38981,7.75633 -6.37478,12.72166 z" id="path4334-7-2-2" sodipodi:nodetypes="ccscccc"/><path style="display:inline;fill-opacity:1;fill:#000000;stroke-dasharray:none;stroke-linecap:butt;stroke-linejoin:miter;stroke-miterlimit:4;stroke-opacity:1;stroke-width:0;stroke:#000000" d="m 226.65718,412.68834 c 0,0 0.004,-0.246 0.0654,-0.73217 21.72011,4.11951 2.88094,-20.98739 -0.0742,-1.6086 -0.0122,0.0801 4.56365,7.6369 4.41583,9.91247 -0.68454,-0.10132 -2.44797,4.58114 -2.44797,4.58114 0.33972,-6.01066 -2.45857,-14.48783 -2.43976,-14.57069 5.31968,-23.43106 25.32651,10.578 0.48063,2.41785 z" id="path4336-6-6-7" sodipodi:nodetypes="ccsccscc"/><path style="display:inline;fill-opacity:1;fill:#eeaaff;stroke-dasharray:none;stroke-linecap:butt;stroke-linejoin:miter;stroke-miterlimit:4;stroke-opacity:1;stroke-width:0;stroke:#000000" d="m 226.38305,412.4998 c 0,0 0.004,-0.246 0.0654,-0.73217 21.825,4.21533 4.23573,-21.26198 -0.0742,-1.6086 -0.0173,0.0791 4.56365,7.6369 4.41583,9.91246 -0.68454,-0.10131 -2.44798,4.58115 -2.44798,4.58115 0.33974,-6.01066 -2.45828,-14.48778 -2.43975,-14.57069 5.43171,-24.30662 25.31159,10.66734 0.48064,2.41784 z" id="path4338-4-4-0" sodipodi:nodetypes="ccsccscc"/><path style="display:inline;fill-opacity:1;fill-rule:evenodd;fill:#ffffff;opacity:1;stroke-dasharray:none;stroke-linecap:butt;stroke-linejoin:miter;stroke-miterlimit:4;stroke-opacity:1;stroke-width:0;stroke:#000000" d="m 367.75885,281.798 c -0.33634,1.07095 0.008,2.03659 -0.34043,2.87146 -3.46661,-0.44813 -4.68866,1.98352 -8.20642,1.58066 -2.48965,-0.28511 -5.12455,-2.88572 -7.62885,-3.14801 -2.46502,-0.25819 -4.66373,1.93793 -7.13424,1.70195 -2.60679,-0.24898 -5.48542,-2.92878 -8.08839,-3.15292 -3.34007,-0.28761 -6.13034,1.77215 -9.44502,1.52569 -2.90024,-0.21563 -6.32913,-2.74232 -9.19452,-2.92627 -2.82918,-0.18162 -6.04477,2.79351 -8.82605,2.64297 -2.49159,-0.13486 -4.55431,-3.39849 -6.99692,-3.50829 -2.78207,-0.12506 -5.39352,2.4421 -8.09821,2.34971 -3.09652,-0.10575 -6.27314,-2.86593 -9.24757,-2.92858 -3.24909,-0.0684 -6.55434,2.68116 -9.63017,2.66449 -3.31401,-0.018 -6.38346,-2.79803 -9.46164,-2.75548 -2.48175,0.0343 -4.74542,2.53159 -7.05277,2.60551 -3.00662,0.0963 -5.99279,-2.21689 -8.66636,-2.05288 -2.7258,0.16721 -4.5895,2.69662 -6.9253,2.93472 -2.80639,0.2861 -3.24353,-1.89084 -5.41672,-1.50154 -0.28425,-0.78022 -0.0688,-1.6429 -0.23554,-2.57421 13.92719,-3.29884 51.83669,-6.42454 130.59512,3.67102 z" id="path3088-3-0-0-0-2-6-7-4-6" sodipodi:nodetypes="ccsssssssssssssssccc"/><path style="display:inline;fill-opacity:1;fill-rule:evenodd;fill:#ffffff;opacity:1;stroke-dasharray:none;stroke-linecap:butt;stroke-linejoin:miter;stroke-miterlimit:4;stroke-opacity:1;stroke-width:0;stroke:#000000" d="m 370.97758,249.23632 -0.27554,6.65854 -130.6915,-5.76138 0.93623,-5.57161 c 2.77707,-1.35916 3.84102,-4.26144 7.13431,-5.20827 3.86041,-1.10988 4.91095,1.43324 9.30891,0.81708 4.43144,-0.62084 4.90565,-3.74216 9.69392,-3.94185 4.5349,-0.18913 5.49537,1.39878 10.18472,1.51717 1.1464,0.0289 3.8191,-2.1004 7.00049,-2.44417 3.1538,-0.34078 5.93251,2.81672 9.09479,2.95397 3.21425,0.13951 4.49768,-2.65607 7.95361,-2.66372 3.02477,-0.007 4.35719,3.07175 7.2456,3.04709 2.4614,-0.021 5.35274,-2.29174 7.6317,-1.72729 3.03139,0.75082 4.48679,2.99269 6.25862,3.18373 4.26592,0.45995 5.87768,-1.66487 9.89634,-1.09895 4.26088,0.60003 4.01494,2.9234 7.84621,3.57825 4.07352,0.69626 5.56199,-1.68879 8.96783,-1.00774 3.73837,0.74755 5.78747,3.92003 8.72688,4.99337 2.10551,0.76885 4.84148,0.11176 6.56056,0.43594 2.94435,0.55525 6.57093,2.12088 6.52632,2.23984 z" id="path3180-8-0-7-5" sodipodi:nodetypes="ccccsssssssssssssssc"/><path style="display:inline;fill-opacity:1;fill-rule:evenodd;fill:#eeaaff;opacity:1;stroke-dasharray:none;stroke-linecap:butt;stroke-linejoin:miter;stroke-miterlimit:4;stroke-opacity:1;stroke-width:0;stroke:#000000" d="m 371.15436,251.00409 c -0.22975,1.20922 0.72791,15.86681 -3.56282,31.76896 -47.80933,-4.89707 -109.40294,-7.3019 -130.19228,-4.35099 -1.07215,-11.48092 3.19396,-32.09242 3.19396,-32.09242 35.4828,-12.61017 74.84935,-6.7319 130.56114,4.67445 z" id="path3180-8-2-7" sodipodi:nodetypes="ccccc"/><path sodipodi:nodetypes="cscsssssssssccssssssssscscc" id="path1686-7-77-70-6-0-7-3-8-7-7-1-1" d="m 290.14177,246.27599 c -0.43658,-0.0293 -2.89403,0.0864 -4.39545,-0.96712 -4.23584,-2.97227 -6.36151,-4.89988 -6.9134,-4.94764 -2.58381,4.78237 0.73382,8.24751 -0.31835,9.15879 -2.40628,2.0841 -3.27314,4.05494 -3.28975,7.68013 -0.001,0.29722 -5.81241,0.60726 -5.78424,0.9026 0.0279,0.29232 5.8946,0.57053 5.95259,0.8589 0.0789,0.39408 0.18647,0.78439 0.32381,1.16896 0.0922,0.25838 -8.35098,1.68375 -8.23132,1.9364 0.13259,0.27981 8.83117,-0.61381 8.9984,-0.34255 0.25529,0.41405 0.55165,0.81726 0.89119,1.20684 0.13535,0.15527 -4.31537,2.27192 -4.16611,2.42276 0.13199,0.13343 4.86246,-1.6985 5.00546,-1.56891 4.58727,4.42846 14.45557,5.34722 21.366,2.1051 0.18921,-0.11057 4.12536,2.94182 4.30148,2.82217 0.18936,-0.12863 -3.38234,-3.42996 -3.20792,-3.56848 0.40952,-0.32531 0.77804,-0.67713 1.10658,-1.0516 0.16384,-0.18668 7.30624,2.64029 7.45029,2.44283 0.18746,-0.25701 -6.63031,-3.54202 -6.47582,-3.81542 0.27748,-0.49102 0.5022,-1.00679 0.67582,-1.5412 0.0765,-0.23526 5.60264,0.54382 5.6594,0.30183 0.0517,-0.22082 -5.36428,-1.46216 -5.32869,-1.68773 0.56643,-3.58837 0.94802,-5.55783 -1.48281,-8.07844 -1.19133,-1.23532 2.44857,-2.30831 1.76431,-8.27865 -1.47041,0.0848 -4.39258,1.2686 -9.7088,2.99542 -1.47803,0.48009 -3.46066,-0.13197 -4.19298,-0.15503 z" class="skin"/></svg>
