<svg viewBox="0 0 560 1000"><path sodipodi:nodetypes="ccccsssssscccccsccc" id="path2965-9" d="m 370.75046,265.47726 c -2.02855,38.48379 -17.80157,57.49537 -20.45449,89.19616 10.99639,22.54137 16.99872,51.0668 11.86075,61.85289 0,0 -64.79608,-1.45564 -76.3053,26.88173 -2.06147,4.01155 -2.1084,11.81811 -3.46792,16.10443 -0.27859,0.87834 -1.00697,6.35332 -3.50565,8.26757 -0.26944,0.20641 -1.13656,1.14752 -4.58251,0.28177 -0.17413,-0.0437 -1.37345,0.71664 -3.61847,0.0361 -5.83439,-1.76869 -6.66978,-8.86034 -6.76649,-9.28816 -1.98539,-8.78313 -6.24957,-28.02971 -9.43291,-34.24779 -14.19124,-27.72004 -28.62995,-9.19794 -29.93779,-11.53427 -7.14104,-18.67037 11.19969,-59.53147 15.74937,-92.16974 -0.10903,-0.84586 -1.84473,-11.83149 -3.62708,-28.25794 0.006,-35.01018 -3.95608,-60.6294 40.47125,-86.61323 -0.63873,-0.33426 4.96499,-3.49413 8.64983,-6.73616 3.28532,4.0435 10.83699,13.55034 12.30951,13.62094 1.27588,0.0612 15.96068,-12.45203 19.88034,-15.84861 2.34221,3.38097 9.23451,6.44402 8.01902,7.24297 28.55661,37.1561 47.21584,24.1433 44.75854,61.21134 z" style="display:inline;fill-opacity:1;fill-rule:evenodd;fill:#000000;opacity:1;stroke-dasharray:none;stroke-linecap:butt;stroke-linejoin:miter;stroke-miterlimit:4;stroke-opacity:1;stroke-width:0;stroke:#000000"/><path sodipodi:nodetypes="ccccsssccccccccccc" id="path2967-1" d="m 369.3599,269.09552 c -0.77497,28.13444 -16.83018,54.38709 -20.64491,84.79445 5.4707,10.63545 19.62227,43.27631 12.75866,66.15217 -40.10653,11.44456 -73.79001,38.8453 -78.80432,38.35464 -0.78385,1.88787 -2.10386,7.06063 -4.60076,8.84104 -1.21712,0.86786 -3.67455,-0.009 -3.92649,-0.0331 -0.29397,-0.0276 -0.96836,0.96577 -3.15959,0.31564 -4.34231,-1.28834 -5.1677,-4.97917 -6.64606,-7.92987 -3.42483,-1.93016 -39.56734,-12.17375 -40.79275,-45.6127 -1.81945,-33.99191 13.75702,-57.78206 18.13395,-93.17989 0,0 -3.15023,-14.8707 -4.03926,-27.40806 -12.62265,-70.10898 22.68779,-83.12099 39.29775,-87.40873 0.49229,-0.51848 4.48804,-2.99727 8.47886,-5.92994 3.23382,4.0224 11.38129,13.71561 12.45235,14.29157 1.35851,-0.4798 16.33178,-13.11289 20.22139,-16.51924 1.35413,2.27611 17.9269,7.73976 18.45878,9.08212 24.59696,0.63038 30.73363,23.56895 32.6646,29.12473 2.95065,8.88251 -0.54224,32.84275 0.1478,33.06517 z" style="display:inline;fill-opacity:1;fill-rule:evenodd;fill:#008080;opacity:1;stroke-dasharray:none;stroke-linecap:butt;stroke-linejoin:miter;stroke-miterlimit:4;stroke-opacity:1;stroke-width:0;stroke:#000000"/><path sodipodi:nodetypes="cccccc" id="path2985-7-6-6-2-1" class="shadow" d="m 362.9883,414.6333 c -0.49174,-0.13304 0.57927,-1.26373 -0.15245,-1.39173 -80.97016,6.44386 -138.60671,3.43663 -139.40403,-0.0472 -0.44764,0.27471 0.079,0.81398 -0.0315,1.1183 2.66613,9.32661 138.32487,2.4047 139.58803,0.32061 z"/><path d="m 329.8875,425.70175 c -15.4791,1.19068 -42.03653,26.26041 -44.60913,30.99635 10.29989,-9.14088 29.75951,-26.28541 44.60913,-30.99635 z" class="shadow" id="path5772-6-0-1" sodipodi:nodetypes="ccc"/><path d="m 262.14541,457.55004 c -6.81704,-9.41592 -28.83006,-31.99347 -34.93819,-34.15183 5.05404,5.44075 26.5203,25.35081 34.93819,34.15183 z" class="shadow" id="path5774-7-9-5" sodipodi:nodetypes="ccc"/></svg>
