<svg viewBox="0 0 560 1000"><path sodipodi:nodetypes="cscccsssssscccccc" id="path2558-9" d="m 370.26486,269.14852 c 0.40069,1.40387 0.34204,11.96845 -6.84702,36.84797 -5.42713,18.7819 -10.58095,32.36961 -11.17733,33.82769 -5.44384,24.83947 18.41294,43.64217 10.26976,75.28792 0,0 -65.14963,-0.0414 -76.65885,28.29594 -2.06147,4.01155 -2.1084,11.81811 -3.46792,16.10443 -0.27859,0.87834 -1.00697,6.35332 -3.50565,8.26757 -0.26944,0.20641 -1.13656,1.14752 -4.58251,0.28177 -0.17413,-0.0437 -1.37345,0.71664 -3.61847,0.0361 -5.83439,-1.76869 -6.66978,-8.86034 -6.76649,-9.28816 -1.98539,-8.78313 -6.24957,-28.02971 -9.43291,-34.24779 -14.19124,-27.72004 -31.76751,-23.57294 -33.07535,-25.90927 7.35991,-26.33641 13.70218,-57.00816 18.53337,-78.59023 -3.76103,-19.56254 -6.93224,-45.76251 -1.959,-67.02357 14.56506,-0.6654 72.92031,-7.17066 96.82823,0.27115 10.74133,2.58221 31.96088,12.89422 33.06699,13.71878 z" style="display:inline;fill-opacity:1;fill-rule:evenodd;fill:#000000;opacity:1;stroke-dasharray:none;stroke-linecap:butt;stroke-linejoin:miter;stroke-miterlimit:4;stroke-opacity:1;stroke-width:0;stroke:#000000"/><path sodipodi:nodetypes="cscccsssccccsc" id="path2560-4" d="m 370.60102,269.06519 c -0.47811,3.70196 -2.51756,19.68412 -8.75646,38.0229 -6.28969,18.48806 -9.64305,29.05569 -11.26571,33.54628 -3.13712,30.86889 16.13724,35.48301 11.55166,74.00518 -40.10653,11.44456 -76.28916,41.9916 -77.06083,44.32937 -0.78385,1.88787 -3.29932,8.5329 -5.79622,10.31331 -1.21712,0.86786 -4.8236,-0.18577 -5.07554,-0.20987 -0.29397,-0.0276 -1.12355,0.44604 -3.33637,-0.1263 -5.65546,-1.4629 -9.47467,-5.19754 -10.04678,-7.14824 -18.43111,-29.49711 -34.93476,-61.44084 -39.66017,-62.62979 6.07562,-24.2828 17.13249,-54.17885 19.81592,-78.45851 -2.67333,-21.55783 -6.38725,-47.07577 -1.78881,-66.78083 20.93782,-0.29266 64.31561,-5.51245 84.95638,-2.15674 20.57738,3.34541 45.30886,17.04982 46.46293,17.29324 z" style="display:inline;fill-opacity:1;fill-rule:evenodd;fill:#c8c8c8;opacity:1;stroke-dasharray:none;stroke-linecap:butt;stroke-linejoin:miter;stroke-miterlimit:4;stroke-opacity:1;stroke-width:0;stroke:#000000"/><path sodipodi:nodetypes="ccccsc" id="path2562-5" d="m 220.76191,399.9227 c 13.0124,5.20002 34.23897,71.22457 54.26076,69.52238 13.4605,-1.86072 24.62966,-28.83965 86.96023,-54.08247 5.06207,-14.62186 -1.03568,-31.43839 -3.95894,-40.9879 -45.102,11.9464 -124.30001,7.76938 -129.64035,-1.6344 0,0 -6.98871,26.58974 -7.6217,27.18239 z" style="display:inline;fill-opacity:1;fill:#000000;opacity:1;stroke-dasharray:none;stroke-linecap:butt;stroke-linejoin:miter;stroke-miterlimit:4;stroke-opacity:1;stroke-width:0;stroke:#000000"/><path sodipodi:nodetypes="ccccscc" id="path2564-7" d="m 225.10519,414.36072 c 13.0124,5.20002 30.23897,58.28707 50.26076,56.58488 13.4605,-1.86072 24.87966,-26.27715 87.21023,-51.51997 1.52475,-20.21591 -1.69129,-32.98434 -4.86589,-43.91598 -45.102,11.9464 -124.12162,7.76243 -129.46196,-1.6414 0,0 0.36485,29.71227 -3.14314,40.49242 z" style="display:inline;fill-opacity:1;fill:#4d4d4d;opacity:1;stroke-dasharray:none;stroke-linecap:butt;stroke-linejoin:miter;stroke-miterlimit:4;stroke-opacity:1;stroke-width:0;stroke:#000000"/><path style="display:inline;fill-opacity:1;fill:#000000;opacity:0.97000002;stroke-dasharray:none;stroke-linecap:butt;stroke-linejoin:miter;stroke-miterlimit:4;stroke-opacity:1;stroke-width:0;stroke:#000000" d="m 221.30697,398.80531 c -3.13392,21.58364 4.93602,53.00375 11.95171,70.42547 1.37187,3.40671 82.62927,6.52701 84.41648,2.68792 7.90056,-16.97113 30.97996,-51.3867 44.83722,-78.29828 -0.54031,-6.464 -4.21047,-17.21401 -4.69282,-18.52083 -45.10199,11.9464 -124.6593,8.44196 -129.99964,-0.96187 -0.0402,0.57637 -5.06591,21.88256 -6.51295,24.66759 z" id="path2246-4-41-0-9-4-9-20-3-9" sodipodi:nodetypes="csscccc"/><path sodipodi:nodetypes="csscscc" id="path2568-5" d="m 358.13806,379.73859 c -0.0508,-0.13663 -0.32934,-1.79746 -0.28921,-1.76865 2.4837,1.78281 12.51773,2.24849 13.79677,0.81029 4.76421,-5.35705 -12.89361,-17.4965 -13.66653,-1.39538 -0.0727,-0.19109 -0.008,-1.52879 -0.0247,-1.80177 -1.4607,-23.95073 33.04893,10.48248 1.74614,4.51489 z" style="display:inline;fill-opacity:1;fill:#000000;opacity:1;stroke-dasharray:none;stroke-linecap:butt;stroke-linejoin:miter;stroke-miterlimit:4;stroke-opacity:1;stroke-width:0;stroke:#000000"/><path sodipodi:nodetypes="csscsc" id="path2570-5" d="m 358.21163,379.53528 c -0.0508,-0.13663 -0.23362,-1.66958 -0.19408,-1.63996 2.2962,1.72031 12.28978,2.08855 13.56882,0.65035 4.76421,-5.35705 -12.85197,-17.39004 -13.62489,-1.28892 -0.0727,-0.19109 -0.19351,-1.5285 -0.20898,-1.80154 -1.35419,-23.8996 34.44063,11.33344 0.45913,4.08007 z" style="display:inline;fill-opacity:1;fill:#e1e1ff;opacity:1;stroke-dasharray:none;stroke-linecap:butt;stroke-linejoin:miter;stroke-miterlimit:4;stroke-opacity:1;stroke-width:0;stroke:#000000"/><path sodipodi:nodetypes="cscsscc" id="path2572-0" d="m 360.66961,379.85654 c 6.55752,2.66278 9.90514,4.04885 13.0944,3.0818 10.92536,-3.3128 -2.18327,-20.91676 -15.60976,-7.54261 0.0803,-0.0665 0.0174,0.13508 0.10062,0.0746 17.69527,-12.8555 29.88422,14.78059 2.41414,3.75995 -0.0573,-0.023 6e-4,0.62627 6e-4,0.62627 z" style="display:inline;fill-opacity:1;fill:#000000;opacity:1;stroke-dasharray:none;stroke-linecap:butt;stroke-linejoin:miter;stroke-miterlimit:4;stroke-opacity:1;stroke-width:0;stroke:#000000"/><path sodipodi:nodetypes="csscccc" id="path2566-0" d="m 221.5925,398.34677 c -3.13392,21.58364 5.99363,52.31212 13.00932,69.73384 1.37187,3.40671 80.62927,6.27701 82.41648,2.43792 7.90056,-16.97113 30.30769,-50.33661 44.16495,-77.24819 -0.0586,-0.91628 -1.07858,-6.01978 -3.40284,-17.93428 -45.10199,11.9464 -124.30061,8.23026 -129.64095,-1.17357 -3.84094,12.86235 -2.44827,11.41137 -6.54696,24.18428 z" style="display:inline;fill-opacity:1;fill:#e1e1ff;opacity:1;stroke-dasharray:none;stroke-linecap:butt;stroke-linejoin:miter;stroke-miterlimit:4;stroke-opacity:1;stroke-width:0;stroke:#000000"/><path sodipodi:nodetypes="cscssc" id="path2574-4" d="m 360.17427,379.65567 c 6.55752,2.66278 10.15514,4.11135 13.3444,3.1443 10.92536,-3.3128 -1.7917,-21.42732 -15.59319,-7.27192 0.0803,-0.0665 0.0316,0.2 0.11167,0.13536 17.29752,-13.96036 29.8566,14.44913 2.38652,3.42849 -0.0573,-0.023 -0.2494,0.56377 -0.2494,0.56377 z" style="display:inline;fill-opacity:1;fill:#e1e1ff;opacity:1;stroke-dasharray:none;stroke-linecap:butt;stroke-linejoin:miter;stroke-miterlimit:4;stroke-opacity:1;stroke-width:0;stroke:#000000"/></svg>
