<svg viewBox="0 0 560 1000"><path style="display:inline;fill-opacity:1;fill-rule:evenodd;fill:#000000;stroke-dasharray:none;stroke-linecap:butt;stroke-linejoin:miter;stroke-miterlimit:4;stroke-opacity:0;stroke-width:3.02935934;stroke:#000000" d="m 300.39582,218.87955 c 2.88085,-3.50481 6.15719,-4.57678 3.22635,-5.38665 -7.83122,-2.16398 -6.65602,-5.15553 -29.53589,-8.46494 0.072,0.004 -5.49099,-0.47931 -14.42275,-6.81166 -2.16372,0.95706 -7.40385,14.80489 -14.8766,34.48937 12.73181,10.61386 25.20781,20.2427 35.78931,27.24412 9.89979,-18.57727 19.44175,-40.69055 19.81958,-41.07024 z" id="path4044" sodipodi:nodetypes="csccccc"/><path style="display:inline;fill-opacity:1;fill-rule:evenodd;fill:#aaffaa;stroke-dasharray:none;stroke-linecap:butt;stroke-linejoin:miter;stroke-miterlimit:4;stroke-opacity:0;stroke-width:3;stroke:#000000" d="m 300.48783,216.69956 c 2.82896,-3.50026 6.04627,-4.57084 3.16823,-5.37966 -7.69014,-2.16117 -6.53612,-5.14882 -29.00381,-8.45395 0.0707,0.004 -5.39207,-0.47868 -14.16293,-6.80281 -4.85837,5.43601 -9.70028,26.42178 -14.12849,34.85128 12.33576,10.43922 24.40662,19.89927 34.66446,26.80207 9.72145,-18.55316 19.09151,-40.63773 19.46254,-41.01693 z" id="path4046" sodipodi:nodetypes="csccccc"/></svg>
