<svg viewBox="0 0 560 1000"><path style="fill:#000000" id="path3672" d="m 266.59037,471.64263 c -0.48224,0.15628 -1.03481,0.085 -1.38042,0.0792 -0.5544,-0.009 -1.64316,-0.87577 -1.7369,-1.14027 0.14311,-1.13885 3.00912,-2.69651 5.14224,-1.23478 -0.69365,1.616 -1.16887,1.81391 -2.02492,2.29585 z" sodipodi:nodetypes="csccc"/><path style="fill:#000000" id="path3676" d="m 264.39516,455.0688 c 1.32312,-2.48386 6.05235,-4.11057 6.50323,1.5889 0.14942,0.32078 -0.20161,1.76168 -0.62357,3.57383 -0.48325,1.76922 -0.8664,3.78066 -1.05438,5.78489 -0.14723,1.56968 -0.19048,3.10818 -1.15936,4.08977 -0.68912,0.58543 -1.80532,0.79706 -2.75375,0.78249 -0.55731,-0.009 -1.53231,-0.0339 -1.70316,-0.16637 -0.68004,-0.52712 -1.06626,-1.05654 -1.63143,-1.82797 -0.0705,-0.34019 0.076,-0.50998 0.0453,-0.63891 -0.3854,-1.62202 -0.26689,-4.05464 0.23031,-6.76726 0.42641,-2.3264 1.15551,-4.67505 2.14676,-6.41937 z" sodipodi:nodetypes="cccscsscssc"/><path class="areola" id="path3674" d="m 268.49928,468.76848 c -0.007,0.27329 -0.35611,1.23443 -0.69048,1.69088 -0.76144,0.89569 -1.67128,1.2942 -2.74147,0.94475 -0.50038,-0.009 -2.10169,-1.29195 -2.86745,-2.59693 0.32593,-1.13455 4.8737,0.65314 6.2994,-0.0387 z" sodipodi:nodetypes="cccccc"/><path id="path3678" d="m 264.71842,454.58373 c 1.18319,-2.53904 5.41225,-4.2019 5.81545,1.6242 0.13361,0.32791 -0.18028,1.80081 -0.55762,3.65324 -0.43214,1.80851 -0.93627,3.83098 -1.10437,5.87975 -0.0208,1.14576 -0.12314,1.89299 -0.22431,2.59488 -0.74193,0.92217 -4.79122,-0.365 -6.20022,-0.23881 -0.34463,-1.65806 -0.0933,-4.17838 0.35131,-6.95127 0.3813,-2.37808 1.03329,-4.77891 1.9197,-6.56199 z" class="skin penis" sodipodi:nodetypes="ccccccscc"/></svg>
