<svg viewBox="0 0 560 1000"><path sodipodi:nodetypes="cccccccccccc" id="path1960" d="m 370.51486,269.33602 c 0.23724,0.8312 -0.5766,5.28861 -2.26041,13.52511 -33.60787,-4.288 -103.68903,-11.96778 -131.86236,-5.34633 0.1469,-4.00388 0.13267,-11.53731 1.15586,-14.24717 0.24324,-0.11759 7.25265,-2.21917 7.67385,-2.50366 12.96984,-34.21324 14.33596,-34.51518 31.51367,-55.13078 -0.20578,-0.10769 0.98637,-0.32991 2.81284,-0.93373 -14.26623,35.27571 -10.07743,51.97809 -1.78824,61.45129 10.93146,-7.63158 34.10888,-19.71829 53.08715,-60.31847 2.65591,0.76603 5.77773,1.30178 5.77773,1.30178 1.90789,18.32918 -0.0619,41.08452 3.67362,52.92764 3.54725,3.99043 26.59816,6.10404 30.21629,9.27432 z" style="display:inline;fill-opacity:1;fill-rule:evenodd;fill:#000000;opacity:1;stroke-dasharray:none;stroke-linecap:butt;stroke-linejoin:miter;stroke-miterlimit:4;stroke-opacity:1;stroke-width:0;stroke:#000000"/><path sodipodi:nodetypes="cccccccccccc" id="path1962" d="m 370.53852,269.06519 c -0.23212,1.79731 -1.46179,6.53999 -2.59824,13.24253 -48.30237,-7.27876 -109.55684,-10.44159 -130.56058,-6.05551 -0.7082,-2.93964 0.3045,-12.75865 0.3045,-12.75865 0,0 7.0379,-2.10309 7.78836,-2.50793 11.82416,-30.55624 14.58742,-35.11847 31.24259,-55.40231 0.84544,-0.17546 1.70483,-0.38601 2.56536,-0.63893 -16.81405,40.48467 -8.02175,52.76388 -1.59072,61.62392 17.19358,-10.88851 38.35632,-25.50945 53.62911,-60.61021 1.9144,0.66913 3.96656,0.65204 5.47599,1.11851 -0.47031,15.65219 0.792,46.91864 3.02614,53.74685 3.55484,2.53922 23.78535,6.08886 30.71749,8.24173 z" style="display:inline;fill-opacity:1;fill-rule:evenodd;fill:#ffffff;opacity:1;stroke-dasharray:none;stroke-linecap:butt;stroke-linejoin:miter;stroke-miterlimit:4;stroke-opacity:1;stroke-width:0;stroke:#000000"/><path style="display:inline;fill-opacity:1;fill-rule:evenodd;fill:#92b5c9;opacity:1;stroke-dasharray:none;stroke-linecap:butt;stroke-linejoin:miter;stroke-miterlimit:4;stroke-opacity:1;stroke-width:0;stroke:#000000" d="m 369.22893,276.30359 c -0.36918,1.80415 -0.77195,3.88148 -1.16365,6.19163 -48.30237,-7.27876 -109.75712,-10.46683 -130.76086,-6.08075 -0.069,-0.4883 -0.34453,-4.39605 -0.1139,-6.11317 28.97645,-5.96462 109.56573,1.85208 132.03841,6.00229 z" id="path1944-5-2-8-6" sodipodi:nodetypes="ccccc"/><path style="display:inline;fill-opacity:1;fill-rule:evenodd;fill:#92b5c9;opacity:1;stroke-dasharray:none;stroke-linecap:butt;stroke-linejoin:miter;stroke-miterlimit:4;stroke-opacity:1;stroke-width:0;stroke:#000000" d="m 275.3075,263.17949 c -15.5547,-0.0617 -30.42964,1.24273 -38.15901,2.83939 0.005,-0.3433 0.14997,-1.96737 0.31884,-2.43564 1.96052,-0.81732 7.63798,-2.34161 7.99185,-2.72606 0.5763,-1.29429 0.72688,-1.72419 0.94882,-2.30238 7.24698,-0.76586 16.11763,-1.11114 25.86119,-1.06368 1.0929,2.28123 2.22717,4.5625 3.03831,5.68837 z m 64.55138,-2.47738 c 2.63643,2.29632 28.58714,7.33482 30.67091,8.37671 0,0 -0.15278,1.26516 -0.27245,1.96334 -27.74868,-4.13636 -61.7597,-7.21255 -87.50424,-7.76809 -0.23575,-0.005 7.90377,-5.4459 7.79093,-5.46476 16.90013,0.49494 34.58228,1.54368 49.31485,2.8928 z" id="path1944-5-5-2-3-5" sodipodi:nodetypes="ccccccccccccc"/><path style="display:inline;fill-opacity:1;fill-rule:evenodd;fill:#92b5c9;opacity:1;stroke-dasharray:none;stroke-linecap:butt;stroke-linejoin:miter;stroke-miterlimit:4;stroke-opacity:1;stroke-width:0;stroke:#000000" d="m 270.63031,252.56065 c -0.56129,-0.15591 -18.51769,0.13605 -22.19364,0.7143 0.5763,-1.29429 1.85188,-4.64338 2.07382,-5.22157 7.24698,-0.76586 9.47053,-0.85356 19.21409,-0.8061 0.0764,0.35878 0.73541,5.00509 0.90573,5.31337 z m 67.62414,-2.36916 c -0.004,0.15333 0.0494,1.14864 0.57402,5.4717 -28.42662,-2.24219 -41.70048,-1.66901 -42.88644,-1.99214 -0.23575,-0.005 5.69168,-4.89922 5.57884,-4.91808 0.52513,0.0574 27.18852,0.9019 36.73358,1.43852 z" id="path1944-5-5-4-6-1-4" sodipodi:nodetypes="cccccccccc"/><path style="display:inline;fill-opacity:1;fill-rule:evenodd;fill:#92b5c9;opacity:1;stroke-dasharray:none;stroke-linecap:butt;stroke-linejoin:miter;stroke-miterlimit:4;stroke-opacity:1;stroke-width:0;stroke:#000000" d="m 269.5915,242.39188 c -0.56129,-0.15591 -13.23644,-0.1452 -16.91239,0.43305 0.5763,-1.29429 1.85188,-4.64338 2.07382,-5.22157 7.24698,-0.76586 5.47053,-0.50981 15.21409,-0.46235 0.0764,0.35878 -0.54584,4.94259 -0.37552,5.25087 z m 67.90539,-2.71291 c -0.004,0.15333 -0.1381,1.08614 0.38652,5.4092 -28.42662,-2.24219 -29.88798,-1.35651 -31.07394,-1.67964 -0.23575,-0.005 4.50418,-4.83672 4.39134,-4.85558 0.52513,0.0574 16.75102,0.5894 26.29608,1.12602 z" id="path1944-5-5-4-0-5-4-8" sodipodi:nodetypes="cccccccccc"/><path style="display:inline;fill-opacity:1;fill-rule:evenodd;fill:#92b5c9;opacity:1;stroke-dasharray:none;stroke-linecap:butt;stroke-linejoin:miter;stroke-miterlimit:4;stroke-opacity:1;stroke-width:0;stroke:#000000" d="m 270.69848,232.49286 c -0.56129,-0.15591 -11.51287,-0.1231 -13.15589,0.0132 0.5763,-1.29429 2.77996,-4.97484 3.0019,-5.55303 0.63995,0.008 1.55935,-0.0458 11.30291,0.002 0.0764,0.35878 -1.31924,5.22985 -1.14892,5.53813 z m 66.2923,-3.39792 c -0.004,0.15333 0.14315,1.27364 0.23027,5.44045 -10.48912,-0.64844 -21.04423,-0.79401 -22.07394,-0.77339 0.70175,-1.13 3.91043,-5.08672 3.79759,-5.10558 0.52513,0.0574 8.50102,-0.0981 18.04608,0.43852 z" id="path1944-5-5-4-0-1-4-7-0" sodipodi:nodetypes="cccccccccc"/><path style="display:inline;fill-opacity:1;fill-rule:evenodd;fill:#92b5c9;opacity:1;stroke-dasharray:none;stroke-linecap:butt;stroke-linejoin:miter;stroke-miterlimit:4;stroke-opacity:1;stroke-width:0;stroke:#000000" d="m 273.34372,221.57013 c -0.53311,-0.15591 -7.6224,-0.0762 -9.05794,-0.0649 0.813,-1.62241 3.67165,-4.81858 3.88245,-5.39677 0.60782,0.008 6.6217,0.0323 6.92298,0.0333 -0.0993,0.35878 -1.64364,5.01109 -1.74749,5.42875 z m 63.46431,-3.03854 c -0.004,0.15333 -0.006,1.14595 0.077,5.31276 -6.21255,-0.21094 -14.64291,-0.26007 -14.82405,-0.23945 0.66652,-1.13 3.15162,-5.11797 3.04445,-5.13683 0.49876,0.0574 6.1055,-0.0356 11.70263,0.0635 z" id="path1944-5-5-4-0-1-7-7-2-8" sodipodi:nodetypes="cccccccccccc"/><path style="display:inline;fill-opacity:1;fill-rule:evenodd;fill:#92b5c9;opacity:1;stroke-dasharray:none;stroke-linecap:butt;stroke-linejoin:miter;stroke-miterlimit:4;stroke-opacity:1;stroke-width:0;stroke:#000000" d="m 276.71307,211.63041 c -0.13998,3.4e-4 -4.61113,-0.0146 -4.87766,-0.0346 1.27715,-1.63804 3.89488,-4.88016 4.01421,-5.02085 0.36621,-0.0233 2.56186,-0.15517 2.84406,-0.15417 -0.093,0.35878 -1.88333,4.79234 -1.98061,5.21 z m 60.04588,-2.91354 c -0.004,0.15333 0.005,1.157 -0.0273,5.31276 -5.81924,-0.21094 -9.15338,-0.11944 -9.32305,-0.0988 0.62432,-1.13 2.60834,-5.14922 2.50796,-5.16808 0.46718,0.0574 1.59965,-0.14498 6.84243,-0.0459 z" id="path1944-5-5-4-0-1-7-5-8-0-0" sodipodi:nodetypes="cccccccccccc"/></svg>
