<svg viewBox="0 0 560 1000"><path sodipodi:nodetypes="ccccccccc" id="path9422" d="m 301.54167,117.19155 c -4.73386,0.006 -9.29392,1.61013 -11.01138,3.85915 -1.14396,1.49802 -2.22066,5.28917 -2.07843,5.58061 0.0909,0.18642 1.79364,-0.6649 5.39482,-2.69926 2.12416,-1.19995 3.9656,-1.7403 7.51025,-2.19696 7.46595,-0.35792 12.27384,1.63724 17.58271,6.95619 0.49352,0.54902 0.97324,1.00448 1.06576,1.00967 0.44896,0.0284 0.0387,-0.58723 -1.29012,-1.93564 -4.99454,-5.46744 -11.62103,-11.00794 -17.17361,-10.57376 z" class="eyebrow_hair"/><path sodipodi:nodetypes="cccccc" id="path9424" d="m 260.25783,126.69727 c -0.0165,0.3857 0.24359,0.23242 2.47404,-1.47393 4.12086,-3.3187 8.08984,-3.03932 12.15385,-1.45619 1.25012,0.77372 4.01429,3.21303 4.1067,3.14068 0.51829,-0.40565 -1.68339,-6.47401 -3.01428,-7.65856 -7.62501,-3.76968 -11.34645,3.01135 -15.72031,7.448 z" class="eyebrow_hair"/></svg>
