<svg viewBox="0 0 560 1000"><path style="display:inline;fill:#000000;stroke-width:0.24761665" d="m 276.53178,155.35314 c -1.57579,-1.11695 -2.57302,-4.11668 -1.92766,-5.79847 0.2591,-0.6752 4.34654,-5.02332 4.46423,-8.94445 0.9143,3.77856 -3.64442,7.76586 -4.03922,9.93162 -0.30472,1.67159 1.68367,4.63067 2.65927,4.9403 0.53078,0.16847 0.65832,0.6205 0.17015,0.60308 -0.17024,-0.006 -0.76729,-0.33552 -1.32677,-0.73208 z" id="path8762-7" sodipodi:nodetypes="cccsccc"/><path style="display:inline;fill:#000000;stroke-width:0.34515575" d="m 283.36681,155.53041 c -1.4353,-1.6555 -2.21939,-0.65792 -2.52431,-0.13298 -0.0757,0.13034 0.0344,1.07529 0.0151,0.94326 0.33047,-0.82485 1.67017,-0.35221 2.5092,-0.81028 z" id="path8762-7-6" sodipodi:nodetypes="cscc"/><path style="display:inline;fill:#000000;stroke-width:0.18142612" d="m 286.39159,154.72593 c 0.39995,-0.49865 0.40317,-1.32234 0.44121,-1.22586 0.038,0.0966 0.0492,1.00823 -0.3888,1.4104 -0.27012,0.22193 -0.36471,0.34339 -1.00057,0.72207 z" id="path7178-0-4" sodipodi:nodetypes="ccccc"/></svg>
