<svg viewBox="0 0 560 1000"><path sodipodi:nodetypes="cccscsccc" id="path2276-4-9-0-5-8" d="m 275.1906,478.61218 c 27.3515,-5.55275 92.06765,-1.73779 99.36977,1.22489 2.65835,-10.3326 -9.60719,-44.09637 -12.45803,-48.4113 -2.68621,-6.082 -11.77109,-19.93812 -12.39996,-21.91039 -0.0813,-0.25494 -0.70857,-2.49571 -0.70857,-2.49571 -22.65767,4.89275 -39.56413,7.60141 -60.05248,8.19626 -24.22046,0.7032 -47.2185,-2.20107 -60.45696,-7.53731 -6.53457,6.49136 -22.38319,44.47423 -22.96535,69.93094 14.45962,-2.80233 41.96297,-5.5511 69.67158,1.00262 z" style="display:inline;fill-opacity:1;fill:#000000;stroke-dasharray:none;stroke-linecap:butt;stroke-linejoin:miter;stroke-miterlimit:4;stroke-opacity:1;stroke-width:0;stroke:#000000"/><path style="display:inline;fill-opacity:1;fill:#800000;stroke-dasharray:none;stroke-linecap:butt;stroke-linejoin:miter;stroke-miterlimit:4;stroke-opacity:1;stroke-width:0;stroke:#000000" d="m 209.5091,468.99804 c 2.76219,-2.4133 6.2829,-3.61362 7.01445,-3.93454 1.28162,-11.75969 3.06884,-31.65281 5.73201,-42.53007 -0.8429,2.00417 -12.58424,41.81194 -12.74646,46.46461 z" id="path2246-7-1-4-9" sodipodi:nodetypes="cccc"/><path d="m 283.66521,456.38067 c -1.54841,0.73859 -1.78928,15.78672 -9.24659,11.14886 -5.5459,3.1603 -10.12915,-4.94173 -10.42429,-8.4126 -0.25114,-2.95343 3.37748,-7.20053 3.87403,-6.51846 2.14579,-0.003 16.30971,2.85987 15.79685,3.7822 z" class="shadow" id="Body_Normal_Pussyshadow-8-2-5" sodipodi:nodetypes="ccscc" inkscape:label="#PussyshadowN"/><path style="display:inline;fill-opacity:1;fill:#517cd3;stroke-dasharray:none;stroke-linecap:butt;stroke-linejoin:miter;stroke-miterlimit:4;stroke-opacity:1;stroke-width:0;stroke:#000000" d="m 207.10549,465.88581 c 9.85266,-3.69513 47.75609,-4.69135 61.04473,0.95461 1.97544,1.15064 3.44304,1.50895 6.29117,0.74829 1.48394,1.11892 3.67809,1.01117 5.52348,-0.15189 69.74911,-5.15378 94.03906,5.30522 94.58539,4.75032 0.41173,-29.71194 -17.83367,-55.5064 -24.48299,-62.71325 -0.0813,-0.25494 -1.22374,-2.21355 -1.22374,-2.21355 -45.10201,11.9464 -93.79805,12.4646 -120.26832,0.58222 -0.12493,-0.0561 -12.69549,18.40009 -21.46972,58.04325 z" id="path2246-5-3" sodipodi:nodetypes="cccccccsc"/><path d="m 274.36595,467.58332 c -3.81452,2.31718 -9.64064,-2.27902 -10.8644,-11.68664 5.95334,-21.67633 25.49385,-8.31185 20.23612,0.35499 -2.87984,4.74713 -3.52005,14.37508 -9.37172,11.33165 z" class="skin torso" id="Body_Normal_Pussy-8-2-5" sodipodi:nodetypes="ccsc" inkscape:label="#PussyN"/><path style="display:inline;fill-opacity:1;fill:#8aa7ff;stroke-dasharray:none;stroke-linecap:butt;stroke-linejoin:miter;stroke-miterlimit:4;stroke-opacity:1;stroke-width:0;stroke:#000000" d="m 205.21091,477.84133 c 20.47367,-7.92632 64.65632,-3.16443 70.03361,0.87542 0.0798,-4.49415 1.05695,-10.70077 1.29388,-11.83066 -42.61622,-7.91998 -65.47543,-2.72107 -69.39547,-1.13479 -0.0162,0.94868 -1.7698,7.43736 -1.93202,12.09003 z" id="path2246-7-8-2" sodipodi:nodetypes="ccccc"/><path style="display:inline;fill-opacity:1;fill:#8aa7ff;stroke-dasharray:none;stroke-linecap:butt;stroke-linejoin:miter;stroke-miterlimit:4;stroke-opacity:1;stroke-width:0;stroke:#000000" d="m 275.2174,478.60926 c 20.47367,-7.92632 94.14193,-2.75671 99.51922,1.28314 0.97885,-4.40576 -0.0681,-7.94556 0.16888,-9.07545 -45.09109,-9.06903 -95.20617,-4.13573 -99.12621,-2.54945 -0.0162,0.94868 -0.53225,5.73329 -0.56189,10.34176 z" id="path2246-7-7-8-0" sodipodi:nodetypes="ccccc"/><path style="display:inline;fill-opacity:1;fill:#8aa7ff;stroke-dasharray:none;stroke-linecap:butt;stroke-linejoin:miter;stroke-miterlimit:4;stroke-opacity:1;stroke-width:0;stroke:#000000" d="m 226.43714,411.39001 c 35.65478,14.81043 108.78953,7.12999 124.04699,-1.19349 -0.98086,-2.37283 -1.00632,-2.28871 -1.45689,-3.1686 -58.31295,15.78964 -104.54469,8.55584 -120.51489,0.71465 -0.32556,0.70561 -0.85233,0.93932 -2.07521,3.64744 z" id="path2246-7-9-4-6" sodipodi:nodetypes="ccccc"/><path style="display:inline;fill-opacity:1;fill:#8aa7ff;stroke-dasharray:none;stroke-linecap:butt;stroke-linejoin:miter;stroke-miterlimit:4;stroke-opacity:1;stroke-width:0;stroke:#000000" d="m 275.25299,462.86252 c -12.30071,-3.84341 -9.97725,-39.56452 -8.12905,-43.86741 0.10337,-0.24065 6.70466,-0.007 6.80117,-0.0386 -0.14286,-0.008 -0.28501,-0.0153 -0.42641,-0.0219 -4.0967,-0.18979 -7.561,0.22503 -9.12434,-0.44654 -1.55247,9.38892 -6.14341,45.13839 10.87863,44.37445 z" id="path2246-7-9-5-2-1" sodipodi:nodetypes="cscsccc"/><path style="display:inline;fill-opacity:1;fill:#8aa7ff;stroke-dasharray:none;stroke-linecap:butt;stroke-linejoin:miter;stroke-miterlimit:4;stroke-opacity:1;stroke-width:0;stroke:#000000" d="m 356.28203,444.8129 c -31.56327,-6.76001 -36.1698,-23.53296 -36.97785,-28.4296 -1.02422,-0.29348 -2.03709,0.77235 -2.39603,0.55362 -0.0837,1.32642 8.867,25.77488 39.37388,27.87598 z" id="path2246-7-9-5-3-1-8" sodipodi:nodetypes="cccc"/><path style="display:inline;fill-opacity:1;fill:#8aa7ff;stroke-dasharray:none;stroke-linecap:butt;stroke-linejoin:miter;stroke-miterlimit:4;stroke-opacity:1;stroke-width:0;stroke:#000000" d="m 222.23265,435.35375 c 9.31024,-1.01499 16.8449,-15.62419 16.03685,-20.52083 -1.02422,-0.29348 -0.41393,-0.14186 -0.77287,-0.36059 -0.0837,1.32642 -2.08336,14.40532 -15.26398,20.88142 z" id="path2246-7-9-5-3-5-1-0" sodipodi:nodetypes="cccc"/><path sodipodi:nodetypes="ccc" id="path3280-7-2-6-6-5-5-2" class="shadow" d="m 329.90785,425.6821 c -15.4791,1.19068 -42.03653,26.26041 -44.60913,30.99635 10.29989,-9.14088 29.75951,-26.28541 44.60913,-30.99635 z"/><path sodipodi:nodetypes="ccc" id="path3282-5-4-0-8-1-3-6" class="shadow" d="m 262.16576,457.53039 c -6.81704,-9.41592 -28.83006,-31.99347 -34.93819,-34.15183 5.05404,5.44075 26.5203,25.35081 34.93819,34.15183 z"/><path d="m 262.98857,459.03749 c 4.57815,9.39542 7.95428,8.94718 11.45233,8.01034 0.29456,-0.0789 5.02218,4.77996 9.26343,-8.71666 -1.38475,8.70911 -4.94655,11.61521 -9.3291,9.47151 -0.0226,-0.0111 -2.82256,1.04466 -4.71233,0.003 -2.95847,-1.63089 -6.486,-5.556 -6.67433,-8.7681 z" class="shadow" id="path4347-6-8-3-9" sodipodi:nodetypes="cscsscc"/><path d="m 274.84429,467.66511 c -0.33521,1.70859 0.19151,9.15085 0.3994,10.94825 -1.47124,-0.0994 -1.90021,-9.61487 -0.3994,-10.94825 z" class="shadow" id="path4347-6-8-2-5-2" sodipodi:nodetypes="ccc"/></svg>
