<svg viewBox="0 0 560 1000"><path class="areola" id="path8199" d="m 275.70571,164.95554 c 1.23915,-0.50574 2.77388,-6.22503 6.05616,-4.11424 4.91199,-2.10859 8.69916,3.68583 11.71843,4.10088 -1.09392,1.46615 -1.00221,4.84767 -9.97053,6.22256 -7.43009,-1.6132 -7.24539,-3.73592 -7.80406,-6.2092 z" sodipodi:nodetypes="ccccc"/><path style="fill:#000000;stroke-width:0.18142612" d="m 282.12199,171.2464 c -2.55182,-0.65008 -4.19446,-1.35621 -5.49602,-3.33993 2.64837,2.31716 3.80554,2.36922 5.64034,2.85426 2.48293,-0.21787 3.79716,-0.25778 6.7196,-1.2599 0.79699,-0.29142 2.62634,-1.6079 2.66083,-1.57516 -1.54467,2.36243 -6.839,3.26583 -9.52475,3.32073 z m 0.73741,-5.77596 c -0.52786,0.35108 -1.11083,0.29327 -1.64618,-0.0378 -0.78948,-0.2502 -1.68856,-0.18487 -3.56619,-0.0969 -1.40273,-0.15576 -1.76563,1.6203 -2.01971,-0.28743 -0.28007,-0.58992 0.86746,-0.52083 2.40967,-0.30878 1.5384,0.21152 2.78295,-0.74827 3.89917,0.35909 1.50282,-1.23244 5.63839,-0.30266 7.59827,-0.14267 3.39375,0.16221 2.67611,-0.4527 4.03043,-0.0387 0.27715,1.76977 -0.5111,0.67589 -4.00258,0.77605 -2.6402,0.0757 -5.77381,-0.48784 -6.70288,-0.22278 z m -1.97162,-4.53477 c -0.47318,-0.19524 -0.71453,-0.20711 -1.07132,-0.0528 -0.6288,0.27204 -0.80453,0.0378 -0.31814,-0.42408 0.36098,-0.34278 0.46951,-0.3593 1.12834,-0.17188 0.96786,0.27537 1.5279,0.26148 2.33264,-0.0578 0.96869,-0.38434 1.3749,-0.33538 2.82513,0.34038 1.45436,0.67771 1.26815,0.81557 -0.37606,0.2784 -0.59527,-0.19447 -1.24008,-0.3536 -1.43292,-0.3536 -0.19285,0 -0.67908,0.15913 -1.08052,0.3536 -0.85547,0.41442 -1.18089,0.42864 -2.00715,0.0877 z" id="path8201" sodipodi:nodetypes="ccccccccccscccscccsccccscscc"/></svg>
