<svg viewBox="0 0 560 1000"><g data-transform="boob" transform="matrix(1.1247504,0,0,1.1247504,-26.347241,-34.609528)" id="g6679"><path sodipodi:nodetypes="ccsscccccccc" d="m 271.51118,261.14089 c -9.88855,-10.66632 -27.12155,-12.70439 -26.5524,-17.49076 -9.78469,6.69753 -21.31453,10.82141 -26.74443,14.7899 -0.54445,0.39791 -0.66828,2.70307 -0.76291,3.35152 -0.65836,4.51134 -0.19947,14.9545 -0.19947,14.9545 l 49.87161,0.72917 c 0,0 2.46829,-3.53357 3.21917,-4.99953 0.42207,1.87653 1.76098,5.31955 1.76098,5.31955 l 51.93351,3.02446 c 0,0 6.2155,-22.93943 -4.64742,-35.32989 3.43233,7.33006 -25.01476,-4.28683 -37.41961,5.9273 -5.29365,4.66629 -9.38919,8.82318 -10.45903,9.72378 z" id="path6671" style="fill-opacity:1;fill:#010101"/><path style="display:inline;fill-opacity:1;fill:#ffffff;stroke-width:1.09247315" d="m 267.06723,276.54842 -49.00658,-1.71432 c 0,0 -0.20004,1.57906 0.31356,2.03368 1.23006,1.08881 3.22828,2.32556 4.8702,2.37699 1.90886,0.0598 3.87328,-2.10315 5.78214,-2.04337 2.2217,0.0696 4.55453,2.08403 6.77623,2.15362 1.98172,0.0621 3.83264,-2.52522 5.83402,-1.75868 2.00138,0.76654 2.38913,2.38779 6.00414,2.29962 4.2707,-0.10416 4.0892,-1.89596 6.2765,-1.91501 2.04962,-0.0179 3.44016,2.02927 5.94858,2.24406 3.37407,0.28892 4.01403,-1.39345 6.04822,-1.86833 z" id="path6673-6" sodipodi:nodetypes="ccsssssssscc"/><path style="display:inline;fill-opacity:1;fill:#ffffff;stroke-width:1.09078646" d="m 322.21181,281.64151 c 0.49366,-0.94023 1.35443,-2.91339 1.35443,-2.91339 l -51.26849,-1.82531 0.57504,1.45596 c 0.80474,0.0218 2.59952,1.85122 5.06293,2.00524 1.51568,0.0948 3.28447,-1.51909 5.23151,-1.38973 2.04768,0.13606 4.05676,2.3312 6.41166,2.49218 1.98699,0.13583 4.28808,-1.76512 6.37947,-1.62053 2.16245,0.1495 3.95981,2.58044 6.12011,2.73035 2.34235,0.16256 5.04237,-1.95628 7.2405,-1.80437 2.41324,0.16677 4.22363,2.13109 6.27666,2.27038 2.41924,0.16414 4.99217,-1.50357 6.61618,-1.40078 z" id="path5968" sodipodi:nodetypes="ccccccsssssc"/><path sodipodi:nodetypes="ccccsssssssssc" d="m 245.89744,243.40951 -3.41612,2.53195 78.68798,2.68128 -1.47787,-1.9863 c -1.50475,-0.82044 -3.82117,-4.16994 -6.38175,-4.55343 -2.85409,-0.42744 -5.81624,1.65377 -8.86231,1.36326 -3.09088,-0.29479 -6.34676,-2.56647 -9.58524,-2.73713 -3.01984,-0.15914 -6.01431,1.77521 -9.12013,1.70974 -3.24652,-0.0684 -4.64281,-1.42539 -7.93757,-1.40686 -3.11236,0.0175 -5.52857,1.64201 -8.64345,1.72348 -2.97233,0.0777 -5.38674,-1.62587 -8.32633,-1.50169 -2.24596,0.0949 -5.10606,1.77335 -7.31529,1.88942 -0.86541,0.0455 -2.90619,-1.55792 -3.76433,-1.50975 -0.84443,0.0474 -3.02107,1.74631 -3.85759,1.79603 z" id="path6673-3" style="display:inline;fill-opacity:1;fill:#ffffff;stroke-width:1"/><path sodipodi:nodetypes="cscsccccccc" d="m 244.87584,244.19536 c -5.84025,4.87392 -21.34013,11.09517 -25.80979,13.9564 -0.39537,0.25308 -0.72231,2.6909 -0.84921,3.07294 -0.70752,5.13443 -0.92151,9.56442 -0.30576,13.2861 0.095,0.574 0.31892,1.67531 0.31892,1.67531 l 48.31874,1.2378 c 0,0 2.61884,-3.28663 3.81887,-5.03738 0.0779,0.25635 0.76162,2.31424 2.10583,4.94117 4.44199,0.0456 38.94721,2.20827 50.34825,2.79093 5.9521,-9.15339 5.98455,-22.00482 -3.13025,-33.48219 -20.221,-4.48518 -55.91459,-3.33286 -74.8156,-2.44108 z" id="path6673" style="fill-opacity:1;fill:#eeaaff"/><path sodipodi:nodetypes="cscsssssssssccssssssssscscc" id="path1686-7-77-70-6-0" d="m 273.94985,248.77729 c -0.33416,-0.0229 -2.21512,0.0677 -3.36432,-0.75808 -3.24216,-2.32983 -4.86917,-3.8408 -5.29159,-3.87824 -1.97767,3.74869 0.56167,6.46487 -0.24367,7.17918 -1.84179,1.63364 -2.50529,3.17849 -2.518,6.02012 -6.7e-4,0.23298 -4.44888,0.47601 -4.42732,0.70751 0.0214,0.22913 4.51178,0.44722 4.55617,0.67325 0.0604,0.30891 0.14273,0.61485 0.24785,0.9163 0.0706,0.20253 -6.39193,1.31982 -6.30034,1.51786 0.10149,0.21933 6.75947,-0.48113 6.88747,-0.26851 0.1954,0.32456 0.42224,0.64061 0.68213,0.94599 0.1036,0.12171 -3.30303,1.78086 -3.18879,1.8991 0.10103,0.10458 3.72178,-1.33138 3.83123,-1.2298 3.51115,3.47128 11.06445,4.19145 16.35376,1.65009 0.14482,-0.0867 3.15759,2.30597 3.29239,2.21218 0.14494,-0.10082 -2.58887,-2.6886 -2.45537,-2.79717 0.31345,-0.255 0.59552,-0.53078 0.84699,-0.82431 0.1254,-0.14633 5.59227,2.06961 5.70253,1.91483 0.14348,-0.20146 -5.07491,-2.77644 -4.95666,-2.99074 0.21239,-0.38489 0.38439,-0.78918 0.51728,-1.20808 0.0586,-0.18441 4.28832,0.42627 4.33176,0.23659 0.0395,-0.17309 -4.10587,-1.14613 -4.07864,-1.32294 0.43355,-2.81277 0.72563,-4.35654 -1.13495,-6.33234 -0.91186,-0.96831 1.87416,-1.80938 1.35042,-6.48928 -1.12546,0.0664 -3.36213,0.9944 -7.43121,2.34798 -1.1313,0.37633 -2.64883,-0.10344 -3.20936,-0.12152 z" class="skin"/><path sodipodi:nodetypes="csccccc" d="m 272.19169,258.88792 c 0.80943,-1.48623 1.35838,-4.75934 1.75336,-6.96753 0.0755,-0.42195 0.14376,2.11164 -0.34789,3.72203 2.50484,-3.57809 5.36151,-7.40366 7.64284,-10.60934 0.11073,-0.1769 -0.23631,1.28365 5.6e-4,1.09001 -3.14159,4.2326 -6.6203,9.02137 -9.04922,12.76484 z" class="shadow" id="path6675"/><path sodipodi:nodetypes="ccc" id="path6677" class="shadow" d="m 270.33492,269.98618 c -0.16754,2.01348 0.47911,3.25262 0.89408,5.36257 -0.66799,-1.59942 -1.31544,-3.72955 -0.89408,-5.36257 z"/></g></svg>
