<svg viewBox="0 0 560 1000"><path class="eyebrow_hair" id="path2520" d="m 315.34619,122.73029 c -0.11679,-0.0329 -0.42414,-0.0583 -0.8126,-0.0804 l -0.80776,-0.0461 0.804,0.1756 c 1.14618,0.25032 0.83942,0.30749 -0.74523,0.13889 -1.89149,-0.176 -3.74817,-0.46554 -5.87828,-0.6775 -6.11576,0.24181 -13.2975,1.37989 -15.9777,2.10981 -0.709,0.0542 -1.53853,0.13052 -1.84341,0.16967 -0.67495,-0.39067 -1.26258,-0.59716 -0.79073,-1.14253 0.0588,-0.22385 0.15308,-0.45565 0.23373,-0.6501 0.0811,-0.19541 0.14829,-0.35311 0.15173,-0.42712 l 0.74352,-0.11316 c 1.28388,-0.53806 10.49247,-1.70291 15.95379,-1.7067 1.50772,-0.056 1.94447,-0.0326 2.79655,0.14987 0.55537,0.1189 1.38732,0.27049 1.84875,0.33686 0.90322,0.1299 0.89491,0.12796 2.98299,0.69367 l 1.36581,0.37003 c 0.0226,0.014 0.71038,0.19286 1.23922,0.64422 -0.14197,0.12151 -1.24762,0.0597 -1.26438,0.055 z" sodipodi:nodetypes="cccscccccsccccccccsc"/><path class="eyebrow_hair" id="path2530" d="m 264.1942,121.66817 c 0.0514,-0.007 1.33147,-0.40811 1.41381,-0.44165 3.47039,-0.85217 8.07315,0.15047 9.74787,0.5958 0.55179,-0.0674 2.25013,0.42879 2.25013,0.42879 0.144,0.1871 0.40356,0.54503 0.3965,1.50404 -0.1657,0.19068 -0.96713,0.67255 -1.63932,0.40633 -0.63331,-0.15789 -1.34513,-0.3611 -2.34765,-0.52373 -1.29486,-0.3992 -8.5864,-0.69497 -9.44043,-0.45848 -0.0495,0.0137 -0.19738,-0.81463 -0.2081,-0.81038 0.0186,-0.007 -0.19779,-0.69735 -0.17281,-0.70072 z" sodipodi:nodetypes="sccccccscs"/></svg>
