<svg viewBox="0 0 560 1000"><path style="display:inline;fill-opacity:1;fill:#ffffff;stroke-dasharray:none;stroke-linecap:butt;stroke-linejoin:miter;stroke-miterlimit:4;stroke-opacity:1;stroke-width:0;stroke:#83afc8" d="m 335.6962,105.16029 c -1.85865,1.41416 -25.01635,-11.64879 -32.89198,-11.54545 -7.39707,0.0912 -11.21691,-0.70823 -18.97976,-0.68606 -7.89148,1.61159 -25.68408,14.42639 -29.10634,12.1701 -2.38789,-2.6626 -0.58221,-41.39188 2.14391,-41.66425 2.48529,-2.70179 26.8061,9.8872 28.90735,9.70684 8.73082,-3.60988 10.59989,-0.9916 16.15753,0.28816 1.87009,0.29032 34.8727,-10.99264 38.21031,-8.02362 0,0 4.80061,30.40526 -4.441,39.75478 z" id="path6277-1" sodipodi:nodetypes="cccccccccc"/><path id="path6285-4" d="m 284.92908,92.27983 c -6.86092,1.46321 -26.23427,13.41368 -29.19899,11.37002 -2.06484,-2.41214 -0.4866,-37.40147 1.88248,-37.64912 2.16849,-2.44945 27.25075,8.50997 29.07658,8.34588 2.78907,0.25188 0.83659,3.95341 2.77329,4.22012 -2.49951,0.0349 -1.14033,13.70181 -4.53336,13.7131 z" style="display:inline;fill-opacity:1;fill:#1a1a1a;stroke-dasharray:none;stroke-linecap:butt;stroke-linejoin:miter;stroke-miterlimit:4;stroke-opacity:1;stroke-width:0;stroke:#83afc8"/><path id="path6287-8" d="m 302.14388,74.60207 c 1.82829,0.26255 34.17646,-9.51233 37.42934,-6.82266 0,0 4.52487,27.1472 -4.55308,35.62342 v -1.3e-4 c -1.82387,1.28219 -24.39462,-10.60374 -32.09921,-10.50756 -3.59547,0.0388 -4.25287,-13.27984 -6.98802,-13.6251 2.53724,-0.10617 2.90394,-4.42699 6.21097,-4.66797 z" style="display:inline;fill-opacity:1;fill:#1a1a1a;stroke-dasharray:none;stroke-linecap:butt;stroke-linejoin:miter;stroke-miterlimit:4;stroke-opacity:1;stroke-width:0;stroke:#83afc8"/><path style="display:inline;fill-opacity:1;fill:#ffffff;stroke-dasharray:none;stroke-linecap:butt;stroke-linejoin:miter;stroke-miterlimit:4;stroke-opacity:1;stroke-width:0;stroke:#83afc8" d="m 300.67398,92.68842 c -7.80505,2.10166 -9.82842,3.09006 -17.68425,0.0923 -1.4915,-7.23777 -1.04937,-14.62028 2.09424,-19.14826 7.13533,0.57649 8.1826,0.005 14.75852,-0.47668 4.69006,3.13855 1.94346,14.52183 0.83138,19.53267 z" id="path6289-4" sodipodi:nodetypes="cccccc"/><path style="display:inline;fill-opacity:1;fill:#1a1a1a;stroke-dasharray:none;stroke-linecap:butt;stroke-linejoin:miter;stroke-miterlimit:4;stroke-opacity:1;stroke-width:0;stroke:#83afc8" d="m 299.02234,92.79774 c -6.81278,1.78473 -8.03087,2.66364 -14.42773,-0.3893 -1.31507,-6.93158 -0.98055,-14.00072 1.67569,-18.33526 8.70945,-3.23561 7.57743,-1.34461 11.9285,0.02 4.02082,3.00774 1.74324,13.90693 0.82336,18.70478 z" id="path6291-3" sodipodi:nodetypes="cccccc"/></svg>
