<svg viewBox="0 0 560 1000"><path sodipodi:nodetypes="ccccsssssscccccsccc" id="path2965-9-3-0" d="m 370.75046,265.47726 c 2.21409,23.28099 2.2799,47.74017 -6.02987,82.62294 8.87507,21.30393 15.6991,55.89002 -2.31387,71.05111 0,0 -65.04608,-4.08064 -76.5553,24.25673 -2.06147,4.01155 -2.1084,11.81811 -3.46792,16.10443 -0.27859,0.87834 -1.00697,6.35332 -3.50565,8.26757 -0.26944,0.20641 -1.13656,1.14752 -4.58251,0.28177 -0.17413,-0.0437 -1.37345,0.71664 -3.61847,0.0361 -5.83439,-1.76869 -6.66978,-8.86034 -6.76649,-9.28816 -1.98539,-8.78313 -6.24957,-28.02971 -9.43291,-34.24779 -14.19124,-27.72004 -29.33706,-7.07662 -30.6449,-9.41295 -14.38888,-31.39829 -0.48381,-63.84474 9.8995,-96.30623 -0.10903,-0.84586 0.60609,-9.06632 -1.17626,-25.49277 0.006,-35.01018 0.15008,-61.3794 44.57741,-87.36323 -0.63873,-0.33426 4.96499,-3.49413 8.64983,-6.73616 3.28532,4.0435 10.83699,13.55034 12.30951,13.62094 1.27588,0.0612 15.96068,-12.45203 19.88034,-15.84861 2.34221,3.38097 9.23451,6.44402 8.01902,7.24297 28.55661,37.1561 47.21584,24.1433 44.75854,61.21134 z" style="display:inline;fill-opacity:1;fill-rule:evenodd;fill:#000000;opacity:1;stroke-dasharray:none;stroke-linecap:butt;stroke-linejoin:miter;stroke-miterlimit:4;stroke-opacity:1;stroke-width:0;stroke:#000000"/><path sodipodi:nodetypes="cccsssccccccccccc" id="path2967-1-0-9" d="m 363.13961,347.31675 c 5.4707,10.63545 17.19765,50.84953 -0.29096,72.60039 -40.10653,11.44456 -75.16501,38.9703 -80.17932,38.47964 -0.78385,1.88787 -2.10386,7.06063 -4.60076,8.84104 -1.21712,0.86786 -3.67455,-0.009 -3.92649,-0.0331 -0.29397,-0.0276 -0.96836,0.96577 -3.15959,0.31564 -4.34231,-1.28834 -5.1677,-4.97917 -6.64606,-7.92987 -3.42483,-1.93016 -39.56734,-12.17375 -40.79275,-45.6127 -14.90093,-38.41133 10.91235,-85.96018 11.57697,-95.19506 0,0 -0.69941,-12.10553 -1.58844,-24.64289 -3.78381,-75.41228 26.79395,-83.87099 43.40391,-88.15873 0.49229,-0.51848 4.48804,-2.99727 8.47886,-5.92994 3.23382,4.0224 11.38129,13.71561 12.45235,14.29157 1.35851,-0.4798 16.33178,-13.11289 20.22139,-16.51924 1.35413,2.27611 17.9269,7.73976 18.45878,9.08212 24.59696,0.63038 30.73363,23.56895 32.6646,29.12473 5.70366,45.45415 1.21482,84.68606 -6.07249,111.2864 z" style="display:inline;fill-opacity:1;fill-rule:evenodd;fill:#008080;opacity:1;stroke-dasharray:none;stroke-linecap:butt;stroke-linejoin:miter;stroke-miterlimit:4;stroke-opacity:1;stroke-width:0;stroke:#000000"/><path sodipodi:nodetypes="cccccc" id="path2985-7-6-6-2-1-7-8" class="shadow" d="m 366.47964,414.50072 c -0.49174,-0.13304 1.15379,-1.44051 0.42207,-1.56851 -80.97016,6.44386 -142.67257,3.74599 -143.46989,0.26216 -0.44764,0.27471 0.079,0.81398 -0.0315,1.1183 2.66613,9.32661 141.81621,2.27212 143.07937,0.18803 z"/><path d="m 329.8875,425.70175 c -15.4791,1.19068 -42.03653,26.26041 -44.60913,30.99635 10.29989,-9.14088 29.75951,-26.28541 44.60913,-30.99635 z" class="shadow" id="path5772-6-0-1-9-5" sodipodi:nodetypes="ccc"/><path d="m 262.14541,457.55004 c -6.81704,-9.41592 -28.83006,-31.99347 -34.93819,-34.15183 5.05404,5.44075 26.5203,25.35081 34.93819,34.15183 z" class="shadow" id="path5774-7-9-5-8-2" sodipodi:nodetypes="ccc"/></svg>
