<svg viewBox="0 0 560 1000"><path sodipodi:nodetypes="cccccccsccsccc" id="path3772" d="m 370.8969,268.8878 c 2.36849,23.60153 -3.24649,50.77091 -14.17047,77.92965 0.0897,2.34411 8.6595,18.11968 11.11537,30.07427 -36.77086,9.58655 -126.68446,13.76644 -145.55622,-5.09006 2.433,-12.49684 7.10305,-30.33653 14.9517,-51.41692 -2.13048,-7.70551 0.44816,-14.37237 -0.57531,-27.78473 0.40962,-35.13389 30.30326,-40.0847 52.38713,-59.43686 0.97617,-2.02088 2.05999,-19.89061 -11.85024,-27.17009 -0.63873,-0.33426 3.66191,-3.80977 8.18644,-6.21211 9.24713,11.38115 27.34766,3.74775 33.42729,-1.52056 1.50252,1.12706 8.39482,5.20658 7.17933,6.00553 -25.72677,16.91039 -30.9022,28.84774 -29.45936,29.06832 3.13994,1.52155 66.54554,33.43249 67.65165,34.25705 z" style="display:inline;fill-opacity:1;fill-rule:evenodd;fill:#000000;opacity:1;stroke-dasharray:none;stroke-linecap:butt;stroke-linejoin:miter;stroke-miterlimit:4;stroke-opacity:1;stroke-width:0;stroke:#000000"/><path sodipodi:nodetypes="cccccccccccc" id="path3774" d="m 355.86286,347.54922 c 0.49582,5.07437 8.15207,17.16139 10.52716,28.43074 -31.28229,8.06681 -129.76418,14.04864 -142.36655,-5.26211 1.76466,-12.54996 13.73275,-45.3843 14.32574,-50.33371 -3.0755,-26.84168 -3.64605,-47.62114 0.88756,-72.44709 4.39438,-23.68414 15.86738,-37.30901 37.69935,-41.95594 0.49229,-0.51848 3.97915,-3.18477 8.45611,-5.58711 9.14993,11.38115 27.08296,3.74775 33.09868,-1.52056 1.48672,1.12706 17.52471,7.31482 18.05659,8.65718 2.58742,0.19199 9.57783,0.93138 12.62329,2.06534 21.32697,11.58453 25.15316,34.74558 21.91064,58.57411 1.82371,35.69041 -9.90952,61.65738 -15.21857,79.37915 z" style="display:inline;fill-opacity:1;fill-rule:evenodd;fill:#ffffff;opacity:1;stroke-dasharray:none;stroke-linecap:butt;stroke-linejoin:miter;stroke-miterlimit:4;stroke-opacity:1;stroke-width:0;stroke:#000000"/><path sodipodi:nodetypes="ccssssccsccc" id="path1758-3" d="m 298.46108,438.89935 c -6.48422,6.26583 -11.19704,12.82415 -15.33516,19.44716 -1.04023,1.75909 -1.92047,7.35117 -4.50173,9.70959 -0.97785,0.89343 -3.70051,-0.0277 -4.03805,0.0431 -0.91345,0.19159 -2.09488,0.29968 -2.84109,0.24274 -1.3589,-0.10369 -3.10427,-0.97079 -4.62926,-2.64607 -1.15035,-1.26373 -2.1753,-2.98733 -2.81436,-5.19001 -3.99405,-5.27747 -10.5589,-14.66641 -17.49018,-23.90539 4.48963,1.85597 9.35646,2.79339 14.73041,2.73225 1.76498,-0.0201 3.58467,-0.14788 5.46366,-0.38622 9.80224,3.87793 21.03947,2.36746 31.45576,-0.0471 z" style="display:inline;fill-opacity:1;fill-rule:evenodd;fill:#aaffaa;opacity:1;stroke-dasharray:none;stroke-linecap:butt;stroke-linejoin:miter;stroke-miterlimit:4;stroke-opacity:1;stroke-width:0;stroke:#000000"/><path sodipodi:nodetypes="cssssccc" id="path1764-9" d="m 282.94456,458.76549 c -0.0483,0.15247 -0.11284,0.47208 -0.19954,0.90622 -0.41277,2.06685 -1.81439,6.53069 -3.87757,8.11265 -0.26921,0.20642 -1.13559,1.14752 -4.57861,0.28177 -0.17398,-0.0437 -2.18026,1.1699 -4.2783,0.12449 -4.65827,-2.32112 -6.22252,-8.10904 -6.31915,-8.53686 3.82592,9.08132 8.89939,9.3147 10.40315,7.55401 5.26837,2.79873 7.50839,-4.81217 8.85002,-8.44228 z" style="display:inline;fill-opacity:1;fill-rule:evenodd;fill:#000000;opacity:1;stroke-dasharray:none;stroke-linecap:butt;stroke-linejoin:miter;stroke-miterlimit:4;stroke-opacity:1;stroke-width:0;stroke:#000000"/><path style="display:inline;fill-opacity:1;fill:#ffffff;stroke-dasharray:none;stroke-linecap:butt;stroke-linejoin:miter;stroke-miterlimit:4;stroke-opacity:1;stroke-width:0;stroke:#83afc8" d="m 252.70414,444.58541 c 10.94342,1.31488 24.01095,1.50229 40.32871,0.0811 -1.56759,2.01272 -3.58281,4.56444 -5.24245,6.66295 -12.30604,1.16431 -22.00263,1.20882 -29.81942,0.51362 -2.04934,-2.61037 -3.63449,-4.68604 -5.26684,-7.25767 z" id="path1180-5-1-9-7-9-6-5" sodipodi:nodetypes="ccccc"/><path style="display:inline;fill-opacity:1;fill:#ffffff;stroke-dasharray:none;stroke-linecap:butt;stroke-linejoin:miter;stroke-miterlimit:4;stroke-opacity:1;stroke-width:0;stroke:#83afc8" d="m 262.53421,458.18295 c 6.22871,0.31514 13.08896,0.30377 20.72809,-0.0971 -0.87505,2.4389 -1.64015,4.66739 -2.42955,6.53665 -5.25319,0.34928 -9.97649,0.47387 -14.24234,0.41152 -1.68576,-1.69159 -2.0194,-4.59693 -4.0562,-6.85107 z" id="path1180-5-1-9-3-1-2-91" sodipodi:nodetypes="ccccc"/><path sodipodi:nodetypes="ccccc" id="path1676-3-2-5-8-7-5" d="m 297.45414,247.91914 c 1.06817,8.18282 5.20354,18.14296 15.25313,31.94492 -0.77167,-0.37786 -3.7457,-1.62192 -7.09131,-2.873 -8.41148,-11.46356 -11.63651,-19.2369 -12.36744,-24.97006 1.39616,-1.35167 2.59495,-2.3754 4.20562,-4.10186 z" style="display:inline;fill-opacity:1;fill:#008000;stroke-dasharray:none;stroke-linecap:butt;stroke-linejoin:miter;stroke-miterlimit:4;stroke-opacity:1;stroke-width:0;stroke:#83afc8"/><path sodipodi:nodetypes="ccccc" id="path1676-3-2-8-3-7-3-2" d="m 291.63695,247.70747 c -9.68748,-32.70368 33.38952,-13.74379 2.13032,0.50869 37.35696,-20.50416 16.84211,31.67022 -0.15371,3.06208 12.29738,34.8639 -33.24126,10.76787 -2.75036,-1.37591 -33.26075,12.92002 -7.12735,-34.56969 0.77375,-2.19486 z" style="display:inline;fill-opacity:1;fill:#008000;stroke-dasharray:none;stroke-linecap:butt;stroke-linejoin:miter;stroke-miterlimit:4;stroke-opacity:1;stroke-width:0;stroke:#83afc8"/><path sodipodi:nodetypes="ccccc" id="path1676-3-2-3-3-1-4-0" d="m 296.81371,248.22009 c 1.00581,7.25775 4.6769,16.12096 13.4915,28.44723 -0.66985,-0.34256 -3.24925,-1.47482 -6.14942,-2.61711 -7.37688,-10.23855 -10.2399,-17.15578 -10.92953,-22.24062 1.19105,-1.18273 2.21513,-2.07705 3.58745,-3.5895 z" style="display:inline;fill-opacity:1;fill:#aaffaa;stroke-dasharray:none;stroke-linecap:butt;stroke-linejoin:miter;stroke-miterlimit:4;stroke-opacity:1;stroke-width:0;stroke:#83afc8"/><path sodipodi:nodetypes="ccccc" id="path1676-3-2-8-0-9-1-9-7" d="m 291.79119,247.97295 c -8.69602,-29.0621 28.67482,-11.82907 1.84373,0.47236 32.02943,-17.77543 14.86,28.22024 -0.10125,2.71022 10.97057,31.00199 -28.57739,9.1951 -2.38772,-1.24673 -28.57213,11.10088 -6.50571,-30.68838 0.64524,-1.93585 z" style="display:inline;fill-opacity:1;fill:#aaffaa;stroke-dasharray:none;stroke-linecap:butt;stroke-linejoin:miter;stroke-miterlimit:4;stroke-opacity:1;stroke-width:0;stroke:#83afc8"/></svg>
