<svg viewBox="0 0 560 1000"><path sodipodi:nodetypes="cccscc" id="path2692" d="m 290.14844,122.15515 c -0.2823,0.17573 -1.35966,1.2905 -0.70508,1.58488 2.071,-0.38246 13.11634,-2.08136 16.57226,-2.22691 0.75808,-0.0486 8.06607,1.8644 7.48626,1.62593 -0.28278,-0.11629 -3.75707,-1.74365 -7.34451,-2.21405 -4.56178,0.51254 -12.97098,0.73795 -16.00893,1.23015 z" class="eyebrow_hair"/><path sodipodi:nodetypes="cccsssccc" id="path2694" d="m 277.24499,122.18722 c 0.18157,0.17571 0.8745,1.29048 0.45349,1.58487 -1.332,-0.38248 -8.43604,-2.08137 -10.6588,-2.22692 -0.0391,-0.004 -0.10867,0.005 -0.20291,0.0242 -1.07857,0.22074 -4.25982,1.51007 -4.61204,1.60182 -0.22939,0.0598 2.25287,-1.618 4.4604,-2.15512 0.0875,-0.0213 0.17537,-0.041 0.26338,-0.0589 2.934,0.51254 8.34256,0.73794 10.29648,1.23015 z" class="eyebrow_hair"/></svg>
