<svg viewBox="0 0 560 1000"><path sodipodi:nodetypes="ccscssc" id="path3406" d="m 272.03349,513.05568 c 13.56701,6.44705 55.99577,3.09166 68.26202,-4.8875 23.18249,7.13733 44.49217,0.97705 44.49217,0.97705 -8.16315,-19.78776 -158.29943,-96.81914 -160.96326,-95.83877 -26.3841,45.18762 -23.45048,92.60116 -23.08306,93.06658 5.50878,6.97808 66.30827,10.28695 71.15099,7.11838 0.81673,-0.53438 -0.072,-0.26714 0.14114,-0.43574 z" style="baseline-shift:baseline;clip-rule:nonzero;color-interpolation-filters:linearRGB;color-interpolation:sRGB;color-rendering:auto;color:#000000;direction:ltr;display:inline;enable-background:accumulate;fill-opacity:1;fill-rule:evenodd;fill:#000000;image-rendering:auto;isolation:auto;mix-blend-mode:normal;opacity:1;overflow:visible;shape-rendering:auto;solid-color:#000000;solid-opacity:1;stroke-dasharray:none;stroke-dashoffset:0;stroke-linecap:butt;stroke-linejoin:miter;stroke-miterlimit:4;stroke-opacity:1;stroke-width:1.77084005;stroke:none;visibility:visible;white-space:normal;writing-mode:lr-tb"/><path sodipodi:nodetypes="cccccc" id="path3408" d="m 384.71564,509.09281 c 4.33016,-55.50031 -8.79153,-74.03429 -27.70593,-97.0523 -13.38607,6.4024 -80.16829,26.55154 -85.28119,21.56396 0.50667,3.8765 -0.49115,46.0338 1.82649,79.70422 29.5054,2.88364 63.50268,-3.67793 66.61171,-7.52003 10.5921,3.96119 39.49559,4.37089 44.54892,3.30415 z" style="baseline-shift:baseline;clip-rule:nonzero;color-interpolation-filters:linearRGB;color-interpolation:sRGB;color-rendering:auto;color:#000000;direction:ltr;display:inline;enable-background:accumulate;fill-opacity:1;fill-rule:evenodd;fill:#c837ab;image-rendering:auto;isolation:auto;mix-blend-mode:normal;opacity:1;overflow:visible;shape-rendering:auto;solid-color:#000000;solid-opacity:1;stroke-dasharray:none;stroke-dashoffset:0;stroke-linecap:butt;stroke-linejoin:miter;stroke-miterlimit:4;stroke-opacity:1;stroke-width:1.67334545;stroke:none;visibility:visible;white-space:normal;writing-mode:lr-tb"/><path sodipodi:nodetypes="cccscc" id="path3410" d="m 272.7568,513.24143 c -3.90901,-31.70512 7.13896,-60.20133 5.50983,-70.14005 -23.71289,-13.25991 -51.26995,-30.10267 -54.41236,-29.725 -10.00203,23.20555 -22.46085,48.91951 -22.07319,81.04525 0.0488,4.04082 -0.20415,8.16097 -0.15078,12.37116 6.17374,1.0494 47.28627,8.70442 71.1265,6.44864 z" style="baseline-shift:baseline;clip-rule:nonzero;color-interpolation-filters:linearRGB;color-interpolation:sRGB;color-rendering:auto;color:#000000;direction:ltr;display:inline;enable-background:accumulate;fill-opacity:1;fill-rule:evenodd;fill:#c837ab;image-rendering:auto;isolation:auto;mix-blend-mode:normal;opacity:1;overflow:visible;shape-rendering:auto;solid-color:#000000;solid-opacity:1;stroke-dasharray:none;stroke-dashoffset:0;stroke-linecap:butt;stroke-linejoin:miter;stroke-miterlimit:4;stroke-opacity:1;stroke-width:1.67334545;stroke:none;visibility:visible;white-space:normal;writing-mode:lr-tb"/><path sodipodi:nodetypes="ccc" id="path3412" class="shadow" d="m 329.46037,425.76321 c -15.4791,1.19068 -42.03653,26.26041 -44.60913,30.99635 10.29989,-9.14088 29.75951,-26.28541 44.60913,-30.99635 z"/><path sodipodi:nodetypes="ccc" id="path3414" class="shadow" d="m 261.71828,457.6115 c -6.81704,-9.41592 -28.83006,-31.99347 -34.93819,-34.15183 5.05404,5.44075 26.5203,25.35081 34.93819,34.15183 z"/><path inkscape:label="#PussyshadowN" sodipodi:nodetypes="ccscc" id="path3416" class="shadow" d="m 283.66521,456.38067 c -1.54841,0.73859 -1.78928,15.78672 -9.24659,11.14886 -5.5459,3.1603 -10.12915,-4.94173 -10.42429,-8.4126 -0.25114,-2.95343 3.37748,-7.20053 3.87403,-6.51846 2.14579,-0.003 16.30971,2.85987 15.79685,3.7822 z"/><path inkscape:label="#PussyN" sodipodi:nodetypes="ccsc" id="path3418" class="skin torso" d="m 274.36595,467.58332 c -3.81452,2.31718 -9.64064,-2.27902 -10.8644,-11.68664 5.95334,-21.67633 25.49385,-8.31185 20.23612,0.35499 -2.87984,4.74713 -3.52005,14.37508 -9.37172,11.33165 z"/><path style="display:inline;fill-opacity:1;fill-rule:evenodd;fill:#ffffff;opacity:1;stroke-dasharray:none;stroke-linecap:butt;stroke-linejoin:miter;stroke-miterlimit:4;stroke-opacity:1;stroke-width:0;stroke:#000000" d="m 271.72931,510.3564 c -9.47722,3.32694 -65.32956,-3.38948 -70.21911,-6.3655 0.0156,0.36181 -0.17087,0.87816 0.035,2.6552 16.52371,5.43081 60.98839,7.93906 70.20174,6.58128 -0.0374,-0.79532 -0.0236,-2.59976 -0.0177,-2.87098 z" id="path3420" sodipodi:nodetypes="cccccc"/><path style="display:inline;fill-opacity:1;fill-rule:evenodd;fill:#ffffff;opacity:1;stroke-dasharray:none;stroke-linecap:butt;stroke-linejoin:miter;stroke-miterlimit:4;stroke-opacity:1;stroke-width:0;stroke:#000000" d="m 273.09381,510.04353 c 0.0204,0.36181 0.0162,1.14379 0.16501,3.05341 15.23297,4.03939 53.70137,2.2558 66.80812,-6.65849 13.15179,5.59192 40.96821,4.17817 44.67156,2.65765 0.0616,-0.87266 0.0813,-1.08051 0.089,-1.35173 -2.24029,1.41082 -41.53404,1.62956 -44.75715,-4.05773 -5.95619,8.79549 -53.82494,11.18375 -66.97646,6.37252 z" id="path3422" sodipodi:nodetypes="cccccccc"/><path sodipodi:nodetypes="ccc" id="path3424" class="shadow" d="M 293.87737,651.87575 C 283.68075,613.2828 264.75873,518.26264 273.49983,475.7992 c -3.08656,73.49978 15.0387,144.29089 20.37754,176.07655 z"/><path style="display:inline;fill-opacity:1;fill-rule:evenodd;fill:#ffffff;opacity:1;stroke-dasharray:none;stroke-linecap:butt;stroke-linejoin:miter;stroke-miterlimit:4;stroke-opacity:1;stroke-width:0;stroke:#000000" d="m 336.18565,421.8999 c 4.3624,12.79607 4.98159,76.66552 2.56903,84.00697 0.35782,-0.0789 0.91102,-0.2158 2.65404,-0.78531 3.55549,-24.08049 0.004,-70.96344 -2.37195,-83.69902 -0.7862,0.17793 -2.58093,0.44294 -2.85112,0.47741 z" id="path3426" sodipodi:nodetypes="cccccc"/></svg>
