<svg viewBox="0 0 560 1000"><g data-transform="boob_right" id="g2588" transform="matrix(4,0,0,4,-750.12304,-598.08667)"><path sodipodi:nodetypes="czczsc" d="m 232.7832,220.84618 c 0,0 0.4464,4.52494 -1.28267,9.81182 -1.72902,5.28687 -10.19793,13.26999 -10.19793,13.26999 0,0 -2.53745,-9.20953 -1.97865,-11.40402 0.55875,-2.19451 0.93334,-3.40238 3.21651,-5.89704 2.87142,-3.13742 10.24274,-5.78075 10.24274,-5.78075 z" class="areola" id="path2586"/></g><g data-transform="boob_left" id="g2592" transform="matrix(4,0,0,4,-941.71671,-583.58668)"><path sodipodi:nodetypes="sssss" class="areola" d="m 310.12038,239.65916 c -6.9072,-0.76189 -13.8874,-5.85245 -13.92016,-10.41508 -0.0419,-5.82288 8.76879,-11.90016 16.50864,-11.56148 7.27826,0.31847 14.8736,5.06548 13.3816,12.12299 -1.49201,7.05753 -7.71129,10.76454 -15.97008,9.85357 z" id="path2590"/></g></svg>
