<svg viewBox="0 0 560 1000"><g id="g3997" style="fill-opacity:1;fill:#c0c6c7;stroke-opacity:1;stroke:none"><path class="shadow" sodipodi:nodetypes="aaaaa" id="path5146" d="m 249.37141,236.16209 c 0,0.75293 -0.84427,1.5972 -1.5972,1.5972 -0.75293,0 -1.5972,-0.84427 -1.5972,-1.5972 0,-0.75293 0.84427,-1.5972 1.5972,-1.5972 0.75293,0 1.5972,0.84427 1.5972,1.5972 z"/><path d="m 249.22621,236.16209 c 0,0.68448 -0.76752,1.452 -1.452,1.452 -0.68448,0 -1.452,-0.76752 -1.452,-1.452 0,-0.68448 0.76752,-1.452 1.452,-1.452 0.68448,0 1.452,0.76752 1.452,1.452 z" id="path2749-8-7" sodipodi:nodetypes="aaaaa" class="steel_piercing"/><path class="shadow" sodipodi:nodetypes="aaaaa" id="path5148" d="m 248.77479,245.35448 c 0,0.75293 -0.84427,1.5972 -1.5972,1.5972 -0.75293,0 -1.5972,-0.84427 -1.5972,-1.5972 0,-0.75293 0.84427,-1.5972 1.5972,-1.5972 0.75293,0 1.5972,0.84427 1.5972,1.5972 z"/><path d="m 248.62959,245.35448 c 0,0.68448 -0.76752,1.452 -1.452,1.452 -0.68448,0 -1.452,-0.76752 -1.452,-1.452 0,-0.68448 0.76752,-1.452 1.452,-1.452 0.68448,0 1.452,0.76752 1.452,1.452 z" id="path2749-8-5" sodipodi:nodetypes="aaaaa" class="steel_piercing"/><path class="shadow" sodipodi:nodetypes="aaaaa" id="path5150" d="m 315.53009,232.95802 c 0,0.75293 -0.84427,1.5972 -1.5972,1.5972 -0.75293,0 -1.5972,-0.84427 -1.5972,-1.5972 0,-0.75293 0.84427,-1.5972 1.5972,-1.5972 0.75293,0 1.5972,0.84427 1.5972,1.5972 z"/><path d="m 315.38489,232.95802 c 0,0.68448 -0.76752,1.452 -1.452,1.452 -0.68448,0 -1.452,-0.76752 -1.452,-1.452 0,-0.68448 0.76752,-1.452 1.452,-1.452 0.68448,0 1.452,0.76752 1.452,1.452 z" id="path2749-8-76" sodipodi:nodetypes="aaaaa" class="steel_piercing"/><path class="shadow" sodipodi:nodetypes="aaaaa" id="path5152" d="m 314.20427,242.60621 c 0,0.75293 -0.84427,1.5972 -1.5972,1.5972 -0.75293,0 -1.5972,-0.84427 -1.5972,-1.5972 0,-0.75293 0.84427,-1.5972 1.5972,-1.5972 0.75293,0 1.5972,0.84427 1.5972,1.5972 z"/><path d="m 314.05907,242.60621 c 0,0.68448 -0.76752,1.452 -1.452,1.452 -0.68448,0 -1.452,-0.76752 -1.452,-1.452 0,-0.68448 0.76752,-1.452 1.452,-1.452 0.68448,0 1.452,0.76752 1.452,1.452 z" id="path2749-8-4" sodipodi:nodetypes="aaaaa" class="steel_piercing"/></g></svg>
