<svg viewBox="0 0 560 1000"><g id="g2361" data-transform="boob_right"><path id="path2359" class="areola" d="m 232.25356,226.4419 c 4.39417,7.66356 -6.67958,11.98476 -11.29027,20.32639 0,0 -2.32901,-10.92453 -1.5718,-14.47377 0.75721,-3.54924 1.27608,-4.34257 4.50054,-6.25453 4.9477,-1.91122 6.43637,-1.61802 8.36153,0.4019 0,0 0,1e-5 0,1e-5 z" sodipodi:nodetypes="cczcac"/></g><g id="g2365" data-transform="boob_left"><path id="path2363" d="m 310.81942,233.08395 c -4.20528,-2.9951 -12.71977,-16.79856 -6.01226,-22.33579 6.70751,-5.53723 9.65531,-0.0103 9.65531,-0.0103 0,0 5.61579,-5.19127 10.77973,1.06406 5.16394,6.25533 -9.37618,18.97767 -14.42277,21.28185 z" class="areola" sodipodi:nodetypes="czczcc"/></g></svg>
